<svg width="675" height="410" viewBox="0 0 675 410" fill="none" xmlns="http://www.w3.org/2000/svg">
<path d="M8.39999 219C8.40197 219.732 8.18665 220.449 7.78129 221.058C7.37594 221.668 6.79877 222.144 6.12286 222.426C5.44695 222.707 4.70269 222.782 3.9843 222.64C3.26592 222.499 2.6057 222.147 2.08725 221.63C1.56879 221.113 1.21541 220.454 1.07183 219.736C0.928254 219.018 1.00094 218.273 1.28069 217.596C1.56044 216.92 2.03467 216.341 2.64334 215.934C3.25202 215.527 3.96777 215.31 4.69999 215.31C5.67956 215.31 6.61916 215.699 7.31275 216.39C8.00635 217.082 8.39734 218.02 8.39999 219V219Z" stroke="#ADBBF9" stroke-linejoin="round"/>
<path d="M526.24 97.62C529.288 94.1544 531.916 90.3414 534.07 86.26C536.232 82.1794 537.91 77.8601 539.07 73.39L527.22 69.2C528.149 65.1662 528.532 61.0259 528.36 56.89L540.77 55C540.156 45.761 537.386 36.7945 532.68 28.82L521.34 34.22C519.174 30.6911 516.54 27.4718 513.51 24.65L520.91 14.52C517.428 11.4753 513.602 8.84753 509.51 6.69C505.431 4.52318 501.112 2.84493 496.64 1.69L492.45 13.51C488.417 12.576 484.276 12.1925 480.14 12.37L478.2 0C468.961 0.60872 459.995 3.37619 452.02 8.08L457.42 19.42C453.902 21.6079 450.696 24.262 447.89 27.31L437.76 19.91C431.642 26.8588 427.259 35.1591 424.97 44.13L436.79 48.32C435.857 52.3566 435.473 56.5007 435.65 60.64L423.24 62.57C423.852 71.808 426.619 80.7742 431.32 88.75L442.66 83.35C444.838 86.8639 447.478 90.0692 450.51 92.88L443.15 103C450.102 109.116 458.401 113.502 467.37 115.8L471.56 104C475.597 104.929 479.741 105.312 483.88 105.14L485.81 117.55C495.049 116.935 504.015 114.164 511.99 109.46L506.59 98.13C510.104 95.9364 513.309 93.2829 516.12 90.24L526.24 97.62ZM468.24 84.78C463.098 82.0597 458.878 77.8761 456.113 72.758C453.348 67.64 452.163 61.8171 452.706 56.0254C453.25 50.2337 455.499 44.7332 459.168 40.219C462.837 35.7049 467.762 32.3797 473.32 30.6639C478.878 28.9481 484.82 28.9185 490.396 30.579C495.971 32.2395 500.928 35.5155 504.642 39.993C508.356 44.4704 510.659 49.9483 511.26 55.7343C511.861 61.5203 510.734 67.3547 508.02 72.5C504.375 79.3999 498.139 84.5697 490.683 86.8726C483.227 89.1754 475.161 88.4227 468.26 84.78H468.24ZM472.24 77.25C468.589 75.3159 465.593 72.3428 463.63 68.7065C461.668 65.0702 460.828 60.9338 461.215 56.8201C461.603 52.7063 463.201 48.7998 465.808 45.5941C468.415 42.3884 471.914 40.0275 475.863 38.8095C479.811 37.5916 484.032 37.5714 487.992 38.7515C491.952 39.9316 495.473 42.2589 498.111 45.4395C500.748 48.6201 502.384 52.5111 502.811 56.621C503.238 60.7309 502.437 64.8751 500.51 68.53C499.227 70.9597 497.478 73.1127 495.363 74.8661C493.248 76.6194 490.808 77.9388 488.182 78.7486C485.557 79.5584 482.797 79.8429 480.062 79.5857C477.326 79.3286 474.669 78.5349 472.24 77.25V77.25Z" fill="#F7471E"/>
<path d="M328.34 198.18C338.177 184.447 344.626 168.582 347.16 151.88L324.94 146.42C325.903 138.927 325.849 131.339 324.78 123.86L346.95 118.1C344.156 101.459 337.501 85.705 327.52 72.1L307.93 83.92C303.318 77.9356 297.919 72.6008 291.88 68.06L303.51 48.34C289.777 38.5031 273.912 32.0541 257.21 29.52L251.75 51.73C244.256 50.7757 236.668 50.8329 229.19 51.9L223.41 29.73C206.753 32.5138 190.981 39.1652 177.36 49.15L189.23 68.75C183.245 73.3463 177.907 78.7281 173.36 84.75L153.64 73.2C143.805 86.9306 137.356 102.792 134.82 119.49L157.04 125C156.077 132.493 156.131 140.082 157.2 147.56L135.03 153.32C137.827 169.96 144.481 185.714 154.46 199.32L174.05 187.45C178.66 193.436 184.059 198.771 190.1 203.31L178.51 223C192.249 232.826 208.112 239.274 224.81 241.82L230.27 219.6C237.763 220.563 245.352 220.509 252.83 219.44L258.58 241.61C275.238 238.823 291.011 232.168 304.63 222.18L292.77 202.59C298.748 197.99 304.083 192.609 308.63 186.59L328.34 198.18ZM220.78 185.4C210.949 181.403 202.524 174.58 196.57 165.794C190.616 157.009 187.401 146.655 187.332 136.043C187.262 125.43 190.342 115.035 196.18 106.172C202.018 97.3098 210.353 90.3774 220.132 86.2519C229.91 82.1263 240.692 80.993 251.114 82.9952C261.536 84.9973 271.131 90.0451 278.684 97.5001C286.238 104.955 291.411 114.482 293.55 124.878C295.689 135.273 294.697 146.069 290.7 155.9C285.338 169.082 274.96 179.596 261.848 185.128C248.736 190.66 233.964 190.758 220.78 185.4ZM226.63 171C219.643 168.163 213.655 163.318 209.421 157.078C205.188 150.838 202.899 143.483 202.846 135.942C202.792 128.402 204.975 121.015 209.12 114.715C213.264 108.415 219.183 103.486 226.129 100.55C233.075 97.6141 240.735 96.8035 248.141 98.2207C255.547 99.6379 262.367 103.219 267.738 108.512C273.109 113.805 276.79 120.571 278.316 127.956C279.842 135.341 279.144 143.012 276.31 150C274.428 154.642 271.65 158.867 268.134 162.435C264.618 166.002 260.434 168.842 255.821 170.792C251.207 172.743 246.255 173.765 241.246 173.8C236.237 173.836 231.271 172.884 226.63 171Z" fill="#537CFF"/>
<path d="M230.51 33.1699C230.508 33.6659 230.359 34.1502 230.082 34.5616C229.805 34.9731 229.412 35.2933 228.954 35.4817C228.495 35.6701 227.99 35.7184 227.504 35.6204C227.018 35.5225 226.572 35.2826 226.222 34.9312C225.872 34.5798 225.634 34.1325 225.537 33.6459C225.441 33.1593 225.492 32.6551 225.682 32.1971C225.872 31.739 226.194 31.3476 226.607 31.0722C227.019 30.7969 227.504 30.6499 228 30.6499C228.667 30.6525 229.305 30.9192 229.775 31.3915C230.246 31.8638 230.51 32.5033 230.51 33.1699V33.1699Z" stroke="#ADBBF9" stroke-linejoin="round"/>
<path d="M558.29 64.6301C558.288 65.1261 558.139 65.6104 557.862 66.0219C557.585 66.4333 557.192 66.7535 556.734 66.9419C556.275 67.1303 555.77 67.1786 555.284 67.0807C554.798 66.9827 554.352 66.7428 554.002 66.3914C553.652 66.04 553.414 65.5927 553.318 65.1061C553.221 64.6195 553.272 64.1153 553.462 63.6573C553.652 63.1992 553.974 62.8078 554.387 62.5324C554.799 62.2571 555.284 62.1101 555.78 62.1101C556.111 62.1101 556.438 62.1754 556.743 62.3021C557.048 62.4289 557.325 62.6147 557.558 62.8488C557.792 63.0829 557.976 63.3608 558.102 63.6665C558.227 63.9722 558.291 64.2996 558.29 64.6301V64.6301Z" stroke="#ADBBF9" stroke-linejoin="round"/>
<path d="M552.95 248.57C552.952 249.069 552.806 249.557 552.53 249.973C552.255 250.389 551.862 250.713 551.401 250.905C550.941 251.098 550.434 251.149 549.945 251.053C549.455 250.957 549.005 250.718 548.652 250.366C548.298 250.014 548.057 249.565 547.959 249.075C547.861 248.586 547.91 248.079 548.101 247.618C548.291 247.157 548.614 246.763 549.029 246.485C549.444 246.208 549.931 246.06 550.43 246.06C550.76 246.059 551.088 246.123 551.394 246.248C551.699 246.374 551.977 246.558 552.211 246.792C552.445 247.025 552.631 247.302 552.758 247.607C552.885 247.912 552.95 248.24 552.95 248.57V248.57Z" stroke="#ADBBF9" stroke-linejoin="round"/>
<path d="M163.23 272.61C163.23 273.107 163.083 273.592 162.807 274.005C162.531 274.417 162.139 274.739 161.68 274.929C161.222 275.119 160.717 275.169 160.23 275.072C159.743 274.975 159.296 274.736 158.945 274.385C158.594 274.034 158.355 273.587 158.258 273.1C158.161 272.613 158.211 272.108 158.401 271.65C158.591 271.191 158.913 270.799 159.325 270.523C159.738 270.247 160.224 270.1 160.72 270.1C161.386 270.1 162.024 270.365 162.495 270.835C162.966 271.306 163.23 271.944 163.23 272.61V272.61Z" stroke="#ADBBF9" stroke-linejoin="round"/>
<path d="M170.77 157.9C170.772 158.399 170.626 158.888 170.349 159.304C170.073 159.72 169.68 160.044 169.219 160.236C168.758 160.428 168.251 160.479 167.761 160.382C167.271 160.285 166.821 160.045 166.468 159.692C166.115 159.339 165.875 158.889 165.778 158.399C165.681 157.909 165.732 157.402 165.924 156.941C166.116 156.48 166.44 156.087 166.856 155.81C167.272 155.534 167.761 155.388 168.26 155.39C168.926 155.39 169.564 155.654 170.035 156.125C170.506 156.596 170.77 157.234 170.77 157.9Z" stroke="#ADBBF9" stroke-linejoin="round"/>
<path d="M137.77 285.03H134.4C133.798 285.03 133.31 285.518 133.31 286.12V289.49C133.31 290.092 133.798 290.58 134.4 290.58H137.77C138.372 290.58 138.86 290.092 138.86 289.49V286.12C138.86 285.518 138.372 285.03 137.77 285.03Z" fill="#E4E9F9"/>
<path d="M503.33 201.75H499.96C499.358 201.75 498.87 202.238 498.87 202.84V206.21C498.87 206.812 499.358 207.3 499.96 207.3H503.33C503.932 207.3 504.42 206.812 504.42 206.21V202.84C504.42 202.238 503.932 201.75 503.33 201.75Z" fill="#E4E9F9"/>
<path d="M435.39 46.54H259.88C254.727 46.54 250.55 50.7172 250.55 55.87V386.34C250.55 391.493 254.727 395.67 259.88 395.67H435.39C440.543 395.67 444.72 391.493 444.72 386.34V55.87C444.72 50.7172 440.543 46.54 435.39 46.54Z" fill="#0085A1"/>
<path d="M435.39 47C437.731 47.0026 439.976 47.9338 441.631 49.5892C443.286 51.2445 444.217 53.489 444.22 55.83V386.34C444.217 388.681 443.286 390.925 441.631 392.581C439.976 394.236 437.731 395.167 435.39 395.17H259.88C257.539 395.167 255.295 394.236 253.639 392.581C251.984 390.925 251.053 388.681 251.05 386.34V55.87C251.046 54.7074 251.272 53.5555 251.713 52.4802C252.155 51.4048 252.805 50.4272 253.625 49.6033C254.445 48.7794 255.42 48.1254 256.493 47.6786C257.567 47.2319 258.717 47.0013 259.88 47H435.39ZM435.39 46H259.88C257.273 46 254.773 47.0357 252.929 48.8791C251.086 50.7226 250.05 53.2229 250.05 55.83V386.34C250.05 388.947 251.086 391.447 252.929 393.291C254.773 395.134 257.273 396.17 259.88 396.17H435.39C437.997 396.17 440.497 395.134 442.341 393.291C444.184 391.447 445.22 388.947 445.22 386.34V55.87C445.225 54.5757 444.975 53.2932 444.483 52.0959C443.992 50.8987 443.268 49.8103 442.355 48.8933C441.442 47.9762 440.356 47.2486 439.161 46.7521C437.966 46.2556 436.684 46 435.39 46Z" fill="#849CF4"/>
<path d="M389.217 47L257.51 405H295.794L427.51 47H389.217Z" fill="url(#paint0_linear)"/>
<path d="M449.44 8.1001L303.39 405H321.39L467.44 8.1001H449.44Z" fill="url(#paint1_linear)"/>
<path d="M443.66 78.6499H251.61V363.56H443.66V78.6499Z" fill="white"/>
<path d="M336.66 60.5701H363.66C363.803 60.5688 363.944 60.5958 364.076 60.6494C364.209 60.7031 364.329 60.7825 364.43 60.8829C364.532 60.9833 364.612 61.1028 364.667 61.2345C364.722 61.3662 364.75 61.5074 364.75 61.6501V61.6501C364.75 61.7928 364.722 61.934 364.667 62.0657C364.612 62.1974 364.532 62.3169 364.43 62.4173C364.329 62.5178 364.209 62.5971 364.076 62.6508C363.944 62.7045 363.803 62.7314 363.66 62.7301H336.66C336.517 62.7314 336.376 62.7045 336.244 62.6508C336.112 62.5971 335.991 62.5178 335.89 62.4173C335.789 62.3169 335.708 62.1974 335.653 62.0657C335.598 61.934 335.57 61.7928 335.57 61.6501C335.57 61.5074 335.598 61.3662 335.653 61.2345C335.708 61.1028 335.789 60.9833 335.89 60.8829C335.991 60.7825 336.112 60.7031 336.244 60.6494C336.376 60.5958 336.517 60.5688 336.66 60.5701V60.5701Z" stroke="#4643BF" stroke-miterlimit="10"/>
<path d="M330.6 62.77C331.219 62.77 331.72 62.2686 331.72 61.65C331.72 61.0315 331.219 60.53 330.6 60.53C329.981 60.53 329.48 61.0315 329.48 61.65C329.48 62.2686 329.981 62.77 330.6 62.77Z" stroke="#4643BF" stroke-miterlimit="10"/>
<path d="M347.63 188.98H264.73V272.76H347.63V188.98Z" fill="#D3DBF4"/>
<path d="M323.127 221.575C324.637 212.219 318.277 203.41 308.921 201.899C299.565 200.389 290.756 206.749 289.245 216.105C287.735 225.462 294.095 234.271 303.451 235.781C312.808 237.291 321.616 230.931 323.127 221.575Z" stroke="white" stroke-miterlimit="10"/>
<path d="M306.18 235.99C312.708 235.99 318 228.307 318 218.83C318 209.353 312.708 201.67 306.18 201.67C299.652 201.67 294.36 209.353 294.36 218.83C294.36 228.307 299.652 235.99 306.18 235.99Z" stroke="white" stroke-miterlimit="10"/>
<path d="M306.18 235.99C308.726 235.99 310.79 228.307 310.79 218.83C310.79 209.353 308.726 201.67 306.18 201.67C303.634 201.67 301.57 209.353 301.57 218.83C301.57 228.307 303.634 235.99 306.18 235.99Z" stroke="white" stroke-miterlimit="10"/>
<path d="M289.02 218.83H323.35" stroke="white" stroke-miterlimit="10"/>
<path d="M290.82 226.48C294.1 225.39 299.75 224.66 306.18 224.66C312.61 224.66 318.27 225.39 321.55 226.48" stroke="white" stroke-miterlimit="10"/>
<path d="M295.8 232.49C302.486 230.156 309.764 230.156 316.45 232.49" stroke="white" stroke-miterlimit="10"/>
<path d="M290.82 211.27C294.1 212.37 299.75 213.09 306.18 213.09C312.61 213.09 318.27 212.37 321.55 211.27" stroke="white" stroke-miterlimit="10"/>
<path d="M295.8 205.26C302.479 207.616 309.76 207.634 316.45 205.31" stroke="white" stroke-miterlimit="10"/>
<path d="M271.79 257.78H340.59V253.35H271.79V257.78Z" fill="#E3EAFC"/>
<path d="M299.46 249.54H340.58V245.11H299.46V249.54Z" fill="#E3EAFC"/>
<path d="M294.79 245.11H271.78V249.54H294.79V245.11Z" fill="#E3EAFC"/>
<path d="M271.79 266.02H340.59V261.59H271.79V266.02Z" fill="#E3EAFC"/>
<path d="M430.45 188.98H347.55V272.76H430.45V188.98Z" fill="#F0F1FF"/>
<path d="M354.6 208.35H423.4V203.92H354.6V208.35Z" fill="#E4E9F9"/>
<path d="M354.6 216.59H423.4V212.16H354.6V216.59Z" fill="#E4E9F9"/>
<path d="M354.61 224.83H376.03V220.4H354.61V224.83Z" fill="#E4E9F9"/>
<path d="M381.75 224.83H423.3V220.4H381.75V224.83Z" fill="#E4E9F9"/>
<path d="M354.6 233.07H423.4V228.64H354.6V233.07Z" fill="#E4E9F9"/>
<path d="M354.6 241.3H423.4V236.87H354.6V241.3Z" fill="#E4E9F9"/>
<path d="M354.6 249.54H423.4V245.11H354.6V249.54Z" fill="#E4E9F9"/>
<path d="M403.54 257.78H423.41V253.35H403.54V257.78Z" fill="#E4E9F9"/>
<path d="M354.6 257.78H398.79V253.35H354.6V257.78Z" fill="#E4E9F9"/>
<path d="M354.6 266.02H423.4V261.59H354.6V266.02Z" fill="#E4E9F9"/>
<path d="M405.18 200.1H423.4V195.67H405.18V200.1Z" fill="#E4E9F9"/>
<path d="M400.51 195.68H354.6V200.11H400.51V195.68Z" fill="#E4E9F9"/>
<path d="M347.63 272.76H264.73V356.54H347.63V272.76Z" fill="#F0F1FF"/>
<path d="M340.58 337.15H271.78V341.58H340.58V337.15Z" fill="#E4E9F9"/>
<path d="M340.58 328.91H271.78V333.34H340.58V328.91Z" fill="#E4E9F9"/>
<path d="M340.58 320.67H322.89V325.1H340.58V320.67Z" fill="#E4E9F9"/>
<path d="M317.16 320.67H271.88V325.1H317.16V320.67Z" fill="#E4E9F9"/>
<path d="M340.58 312.43H271.78V316.86H340.58V312.43Z" fill="#E4E9F9"/>
<path d="M340.58 304.19H271.78V308.62H340.58V304.19Z" fill="#E4E9F9"/>
<path d="M340.58 295.95H271.78V300.38H340.58V295.95Z" fill="#E4E9F9"/>
<path d="M303.75 287.71H271.78V292.14H303.75V287.71Z" fill="#E4E9F9"/>
<path d="M340.58 287.71H308.49V292.14H340.58V287.71Z" fill="#E4E9F9"/>
<path d="M340.58 279.47H271.78V283.9H340.58V279.47Z" fill="#E4E9F9"/>
<path d="M303.84 345.39H271.78V349.82H303.84V345.39Z" fill="#E4E9F9"/>
<path d="M308.52 349.82H340.58V345.39H308.52V349.82Z" fill="#E4E9F9"/>
<path d="M430.45 272.76H347.55V356.54H430.45V272.76Z" fill="#D3DBF4"/>
<path d="M405.86 330.42L372.61 330.02L368.88 306.12L409.07 306.05L405.86 330.42Z" fill="#C2CFEF"/>
<path d="M409.07 306.05L368.88 306.12L388.95 289.57L409.07 306.05Z" fill="#C2CFEF"/>
<path d="M402.399 303.708L374.969 303.756L375.01 326.926L402.44 326.878L402.399 303.708Z" fill="white"/>
<path d="M368.88 306.12L368.93 332.25L389 320.08L368.88 306.12Z" fill="#E3EAFC"/>
<path d="M409.07 306.05L409.12 332.18L389 320.08L409.07 306.05Z" fill="#E3EAFC"/>
<path d="M409.12 332.18L368.93 332.25L389 315.7L409.12 332.18Z" fill="#E3EAFC"/>
<path d="M368.93 332.25L389 315.7L409.12 332.18" stroke="#D3DBF4" stroke-miterlimit="10"/>
<path d="M391.88 318.06L409.07 306.05" stroke="#D3DBF4" stroke-miterlimit="10"/>
<path d="M386.12 318.08L368.88 306.12" stroke="#D3DBF4" stroke-miterlimit="10"/>
<path d="M372.97 346.67H405.03V342.24H372.97V346.67Z" fill="#E3EAFC"/>
<path d="M430.54 97.96H264.73V181.55H430.54V97.96Z" fill="#D3DBF4"/>
<path d="M345.3 115.77L423.4 115.77V109.99L345.3 109.99V115.77Z" fill="#E3EAFC"/>
<path d="M345.3 126.52L423.4 126.52V120.74L345.3 120.74V126.52Z" fill="#E3EAFC"/>
<path d="M345.3 137.27H423.4V131.49H345.3V137.27Z" fill="#E3EAFC"/>
<path d="M345.3 148.03H423.4V142.25H345.3V148.03Z" fill="#E3EAFC"/>
<path d="M345.3 169.53H423.4V163.75H345.3V169.53Z" fill="#E3EAFC"/>
<path d="M376.72 158.78H423.4V153H376.72V158.78Z" fill="#E3EAFC"/>
<path d="M371.42 153H345.3V158.78H371.42V153Z" fill="#E3EAFC"/>
<path d="M333.32 110.22H274.24V169.3H333.32V110.22Z" fill="#E3EAFC"/>
<path d="M309.25 128.69L327.23 159.44H291.27L309.25 128.69Z" fill="white"/>
<path d="M291.03 138.79L294.87 146.19L288 159.44H280.32L291.03 138.79Z" fill="white"/>
<path d="M281.83 126.91C281.83 127.569 282.025 128.213 282.391 128.76C282.757 129.308 283.277 129.735 283.886 129.987C284.494 130.239 285.164 130.305 285.81 130.176C286.456 130.048 287.049 129.73 287.515 129.265C287.98 128.799 288.298 128.206 288.426 127.56C288.555 126.914 288.489 126.244 288.237 125.636C287.985 125.027 287.558 124.507 287.01 124.141C286.463 123.775 285.819 123.58 285.16 123.58C284.277 123.58 283.43 123.931 282.805 124.555C282.181 125.18 281.83 126.027 281.83 126.91V126.91Z" fill="white"/>
<path d="M300.87 91.1301H394.4C395.105 91.1301 395.782 90.8498 396.281 90.351C396.78 89.8521 397.06 89.1755 397.06 88.4701C397.06 87.7646 396.78 87.088 396.281 86.5892C395.782 86.0903 395.105 85.8101 394.4 85.8101H300.87C300.164 85.8101 299.488 86.0903 298.989 86.5892C298.49 87.088 298.21 87.7646 298.21 88.4701C298.21 89.1755 298.49 89.8521 298.989 90.351C299.488 90.8498 300.164 91.1301 300.87 91.1301Z" fill="#D3DBF4"/>
<path d="M347.64 188.98V356.53" stroke="white" stroke-miterlimit="10"/>
<path d="M264.73 272.76H430.54" stroke="white" stroke-miterlimit="10"/>
<path d="M595.69 368.33L597.42 396.88L596.5 405.88L562.5 405.7C562.296 405.7 562.093 405.66 561.905 405.581C561.716 405.503 561.544 405.387 561.4 405.242C561.256 405.098 561.142 404.925 561.065 404.736C560.988 404.547 560.949 404.344 560.95 404.14V404.14C560.951 403.826 561.047 403.519 561.226 403.26C561.404 403.002 561.657 402.803 561.95 402.69L577.13 395.69L573.68 366" fill="#FFCBBD"/>
<path d="M559.38 405.29C559.74 404.17 560.38 402.9 561.07 402.61L577.16 395.68C586.03 399.28 597.52 396.53 597.52 396.53L598.4 408.65C598.397 408.842 598.319 409.025 598.183 409.16C598.046 409.294 597.862 409.37 597.67 409.37L559.67 409.17C558.86 409.17 559.37 405.33 559.38 405.29Z" fill="#F7471E"/>
<path d="M573.68 396.38C574.583 397.557 575.345 398.836 575.95 400.19" stroke="#B22B19" stroke-width="0.75" stroke-miterlimit="10"/>
<path d="M571.65 397.59C572.395 398.595 573.022 399.682 573.52 400.83" stroke="#B22B19" stroke-width="0.75" stroke-miterlimit="10"/>
<path d="M569.94 398.47C570.592 399.428 571.176 400.431 571.69 401.47" stroke="#B22B19" stroke-width="0.75" stroke-miterlimit="10"/>
<path d="M598.19 406.75L559.21 406.55" stroke="#B22B19" stroke-width="0.75" stroke-miterlimit="10"/>
<path d="M597.84 401C597.84 401 588.84 401.06 588 406.74" stroke="#B22B19" stroke-width="0.75" stroke-miterlimit="10"/>
<path d="M564.36 401.19C565.578 402.881 566.624 404.69 567.48 406.59" stroke="#B22B19" stroke-width="0.75" stroke-miterlimit="10"/>
<path d="M568.95 258.65C568.95 258.65 564.06 298.82 565.95 327.99C567.84 357.16 570.51 391 570.51 391H600.09C600.09 391 596.26 340.92 596.68 317.47C597.15 291.47 605.09 258.65 605.09 258.65" fill="#0E32AE"/>
<path d="M594.08 391C594.08 391 590.25 340.92 590.67 317.47C591.14 291.47 599.08 258.65 599.08 258.65" stroke="#121649" stroke-width="0.75" stroke-miterlimit="10"/>
<path d="M634.51 330.11L661.94 338.93L670.22 342.53L659.76 374.91C659.698 375.109 659.596 375.294 659.461 375.453C659.326 375.612 659.16 375.743 658.973 375.836C658.786 375.929 658.583 375.984 658.374 375.997C658.166 376.009 657.957 375.98 657.76 375.91V375.91C657.46 375.816 657.195 375.633 657.002 375.384C656.809 375.136 656.696 374.834 656.68 374.52L654.62 357.94L626.14 348.68" fill="#FFCBBD"/>
<path d="M658.51 377.74C657.51 377.06 656.51 376.04 656.51 375.32L654.77 357.89C660.88 350.52 661.77 338.74 661.77 338.74L673.51 341.57C673.692 341.63 673.843 341.758 673.931 341.929C674.019 342.099 674.037 342.297 673.98 342.48L662.29 378.66C662.03 379.41 658.51 377.76 658.51 377.74Z" fill="#F7471E"/>
<path d="M654.32 361.42C655.715 360.914 657.165 360.578 658.64 360.42" stroke="#B22B19" stroke-width="0.75" stroke-miterlimit="10"/>
<path d="M654.87 363.71C656.052 363.305 657.277 363.04 658.52 362.92" stroke="#B22B19" stroke-width="0.75" stroke-miterlimit="10"/>
<path d="M655.19 365.61C656.291 365.278 657.413 365.024 658.55 364.85" stroke="#B22B19" stroke-width="0.75" stroke-miterlimit="10"/>
<path d="M671.63 341.19L659.65 378.28" stroke="#B22B19" stroke-width="0.75" stroke-miterlimit="10"/>
<path d="M666 339.77C666 339.77 663.33 348.39 668.5 350.89" stroke="#B22B19" stroke-width="0.75" stroke-miterlimit="10"/>
<path d="M656.1 371.75C656.1 371.75 660.41 370.39 662.19 370.42" stroke="#B22B19" stroke-width="0.75" stroke-miterlimit="10"/>
<path d="M617.11 260C617.11 260 619.77 271.41 619.77 276.31C619.77 279.91 618.33 282.36 617.57 285C617.248 286.124 617.06 287.282 617.01 288.45C616.78 293.7 616.47 308.45 619.77 315.45C623.77 324.06 657.45 335.45 657.45 335.45L648.92 361.14C648.92 361.14 597.42 348.2 591 332.44C582 310.44 584.6 259.97 584.6 259.97" fill="#0E32AE"/>
<path d="M597.21 339.77C594.21 337.42 592.04 334.96 591 332.42C582 310.42 584.6 259.95 584.6 259.95" stroke="#121649" stroke-width="0.75" stroke-miterlimit="10"/>
<path d="M612.74 259C612.74 259 615.74 273.37 615.74 278.27C615.74 281.94 614.25 284.52 613.5 287.1C613.201 288.144 613.017 289.217 612.95 290.3C612.63 295.48 612.06 310.52 615.74 317.4C620.83 326.95 656.07 339.51 656.07 339.51" stroke="#121649" stroke-width="0.75" stroke-miterlimit="10"/>
<path d="M580.4 262.76C580.4 262.76 579.95 273.12 581.4 274.37C582.298 275.134 583.254 275.826 584.26 276.44" stroke="#121649" stroke-width="0.75" stroke-miterlimit="10"/>
<path d="M653.21 333.91L643.82 359.73" stroke="#121649" stroke-width="0.75" stroke-miterlimit="10"/>
<path d="M570.1 385.92H599.71" stroke="#121649" stroke-width="0.75" stroke-miterlimit="10"/>
<path d="M604.63 260.74C604.63 260.74 606.48 267.36 614.69 269.31" stroke="#121649" stroke-width="0.75" stroke-miterlimit="10"/>
<path d="M568 268.15C568 268.15 575.42 265.98 577.7 260.74" stroke="#121649" stroke-width="0.75" stroke-miterlimit="10"/>
<path d="M585.9 180.63L584.57 189.94C584.57 189.94 584.46 192.52 589.47 194.31C591.157 194.945 592.998 195.046 594.744 194.599C596.49 194.152 598.057 193.178 599.23 191.81L598.83 182.4" fill="#FFCBBB"/>
<path d="M585.16 168.29C585.16 168.29 578.71 179.07 583.16 183.38C587.22 187.29 596.16 184.84 596.96 183.48C597.76 182.12 602.86 170.06 600.08 168.41C595.16 165.46 587.92 163.66 585.16 168.29Z" fill="#FFCBBB"/>
<path d="M585.22 185.4C587.989 186.195 590.942 186.065 593.63 185.03" stroke="#EF977F" stroke-miterlimit="10"/>
<path d="M584.08 161.29C584.93 154.92 592.64 159.68 595.79 162.59C596.73 163.46 602.24 165.08 603.13 166C604.058 166.903 604.705 168.057 604.99 169.32C605.147 170.438 605.065 171.576 604.75 172.66C604.224 174.613 603.556 176.525 602.75 178.38C601.91 180.38 600.4 184.48 597.49 184.06C596.914 184.045 596.363 183.821 595.94 183.43C595.783 183.198 595.673 182.937 595.618 182.662C595.563 182.388 595.564 182.105 595.62 181.83C595.73 180.916 596.001 180.029 596.42 179.21C595.82 179.38 595.2 179.74 594.62 179.51C594.446 179.409 594.31 179.255 594.23 179.07C593.85 178.45 594.31 174.33 596.23 172.71C593.46 171.4 591.29 171.28 588.47 170.09C586.824 169.449 585.407 168.331 584.4 166.88C583.21 165.33 583.82 163.21 584.08 161.29Z" fill="#4A1A1A"/>
<path d="M595.71 178.84C596.42 177.84 597.51 176.72 598.54 177.75C598.893 178.195 599.074 178.752 599.05 179.32C599.18 181.26 597.22 183.74 595.5 183.06C594.67 182.73 594.43 181.58 594.28 180.65" fill="#FFCBBB"/>
<path d="M586.58 173.05C586.58 173.05 583.79 175.79 583.79 176.72C583.79 177.65 585.88 178.23 585.88 178.23" stroke="#F7A794" stroke-width="0.5" stroke-miterlimit="10"/>
<path d="M582.74 178.56L587.74 180.43C587.591 180.823 587.36 181.181 587.063 181.479C586.767 181.777 586.411 182.01 586.019 182.162C585.626 182.314 585.207 182.381 584.786 182.36C584.366 182.339 583.955 182.23 583.58 182.04C581.44 181.07 582.74 178.56 582.74 178.56Z" fill="white"/>
<path d="M584.51 171.52C584.36 171.74 584.22 171.97 584.09 172.2C583.85 172.65 584.54 173.05 584.78 172.6C584.907 172.333 585.027 172.063 585.14 171.79C585.29 171.4 584.72 171.22 584.51 171.52V171.52Z" fill="#212237"/>
<path d="M586.61 170.57C586.524 170.379 586.401 170.207 586.247 170.066C586.093 169.924 585.912 169.815 585.714 169.746C585.517 169.677 585.307 169.649 585.098 169.663C584.89 169.677 584.686 169.734 584.5 169.83" stroke="#212237" stroke-width="0.5" stroke-linecap="round" stroke-linejoin="round"/>
<path d="M590.7 174.52C590.563 174.746 590.439 174.98 590.33 175.22C590.11 175.68 590.8 176.08 591.01 175.62C591.131 175.349 591.238 175.072 591.33 174.79C591.346 174.711 591.334 174.629 591.297 174.558C591.26 174.487 591.199 174.43 591.125 174.399C591.051 174.367 590.968 174.362 590.891 174.384C590.813 174.406 590.746 174.454 590.7 174.52V174.52Z" fill="#212237"/>
<path d="M590.91 172.22C590.91 172.22 592.43 172.05 593.53 174.05" stroke="#212237" stroke-width="0.5" stroke-linecap="round" stroke-linejoin="round"/>
<path d="M564.27 139.89C563.86 134.48 564.59 119.17 563.64 118.77C562.69 118.37 562.3 123.55 561.64 123.07C560.98 122.59 560.98 114.58 559.92 114.43C558.49 114.22 558.87 122.43 558.87 122.43C558.87 122.43 558.01 113.43 556.71 113.63C555.8 113.76 556.14 120.63 555.95 123.29C555.8 120.4 554.95 115.01 554 115.16C553.05 115.31 553.24 120.73 553.16 124.33C553 122.08 552.55 117.16 551.67 117.26C550.79 117.36 550.52 130.15 550.5 140.93" fill="#FFCBBD"/>
<path d="M562.91 194C559.03 185.522 555.885 176.726 553.51 167.71C549.88 153.53 550.51 135.1 550.51 135.1L564.15 137.4C565.395 155.528 570.931 173.101 580.3 188.67" fill="#FFCBBD"/>
<path d="M553.29 125C554.42 126.71 555.91 128.72 555.83 132.06" stroke="#F7A794" stroke-miterlimit="10"/>
<path d="M561.51 124.3C560.2 125.47 558.78 128.62 559.46 130.24" stroke="#F7A794" stroke-miterlimit="10"/>
<path d="M608.17 137.28C610.207 134.892 611.959 132.274 613.39 129.48C614.808 126.678 615.898 123.722 616.64 120.67L608.56 117.94C609.153 115.185 609.372 112.363 609.21 109.55L617.63 108.12C617.13 101.841 615.16 95.7677 611.88 90.3901L604.22 94.1701C602.7 91.801 600.867 89.6482 598.77 87.7701L603.7 80.7701C601.314 78.7326 598.696 76.9839 595.9 75.5601C593.103 74.1349 590.15 73.0409 587.1 72.3001L584.37 80.3901C581.616 79.7889 578.794 79.5668 575.98 79.7301L574.51 71.3501C568.234 71.8506 562.164 73.8203 556.79 77.1001L560.57 84.7601C558.201 86.2801 556.048 88.1134 554.17 90.2101L547.17 85.2801C543.074 90.0662 540.172 95.7551 538.7 101.88L546.78 104.62C546.188 107.372 545.966 110.19 546.12 113L537.7 114.44C538.224 120.72 540.214 126.789 543.51 132.16L551.16 128.38C552.687 130.747 554.523 132.9 556.62 134.78L551.69 141.78C556.476 145.876 562.165 148.778 568.29 150.25L571.02 142.17C573.775 142.761 576.596 142.983 579.41 142.83L580.84 151.25C587.118 150.746 593.191 148.777 598.57 145.5L594.79 137.84C597.159 136.316 599.312 134.48 601.19 132.38L608.17 137.28ZM570.72 125C568.011 123.62 565.773 121.467 564.287 118.814C562.802 116.162 562.137 113.128 562.376 110.097C562.615 107.067 563.748 104.175 565.63 101.788C567.513 99.4006 570.061 97.6254 572.953 96.6867C575.844 95.748 578.95 95.6879 581.875 96.5141C584.801 97.3403 587.416 99.0155 589.39 101.328C591.363 103.641 592.607 106.486 592.963 109.506C593.319 112.525 592.771 115.582 591.39 118.29C590.474 120.089 589.213 121.689 587.678 122.999C586.143 124.31 584.365 125.305 582.445 125.929C580.526 126.552 578.502 126.791 576.49 126.631C574.478 126.472 572.518 125.918 570.72 125Z" fill="#00CACA"/>
<path d="M584.76 188.62C580.7 188.62 574.37 175.62 574.37 175.62L558.07 187.74C558.07 187.74 563.28 203.95 572.12 214.22" fill="#F7471E"/>
<path d="M575.73 178.23L559.12 190.71" stroke="#B22B19" stroke-width="0.75" stroke-miterlimit="10"/>
<path d="M626.92 133.26C626.05 127.31 623.78 113.26 622.78 113.06C621.78 112.86 621.36 116.18 621.78 117.54C621.14 114.99 619.38 109.41 618.32 109.45C616.87 109.45 618.69 117.53 618.69 117.53C618.69 117.53 616.26 108.84 615.02 109.24C614.14 109.53 615.69 116.24 615.96 118.89C615.3 116.06 613.52 110.89 612.62 111.22C611.72 111.55 612.85 116.84 613.39 120.4C612.85 118.21 611.54 113.4 610.69 113.7C609.84 114 612.05 124.95 613.37 135.92" fill="#FFCBBD"/>
<path d="M624.1 189.21C626.467 180.173 628.05 170.949 628.83 161.64C629.95 147.05 626.13 129.01 626.13 129.01L613.13 133.63C615.051 151.7 612.652 169.969 606.13 186.93" fill="#FFCBBD"/>
<path d="M584.76 188.62C584.76 188.62 585.55 190.9 590.05 191.13C593.255 191.413 596.454 190.521 599.05 188.62C599.05 188.62 616.31 190.91 617.71 209.77C619.31 231.49 619.71 262 619.71 262H565.93C565.93 262 566.29 227.16 567.43 210.54C568.51 194.61 584.76 188.62 584.76 188.62Z" fill="#F7471E"/>
<path d="M617.68 212.15C621.46 202.5 624.404 192.544 626.48 182.39L609.19 174C609.19 174 605.08 185.47 599.06 188.59" fill="#F7471E"/>
<path d="M607.8 177.34L625.74 185.92" stroke="#B22B19" stroke-width="0.75" stroke-miterlimit="10"/>
<path d="M565.93 259.02H619.71" stroke="#B22B19" stroke-width="0.75" stroke-miterlimit="10"/>
<path d="M618.15 210.91C618.15 210.91 615.96 215.6 615.73 217.96" stroke="#B22B19" stroke-width="0.75" stroke-miterlimit="10"/>
<path d="M571.42 198.52C569.348 202.235 567.991 206.305 567.42 210.52" stroke="#B22B19" stroke-width="0.75" stroke-miterlimit="10"/>
<path d="M582.71 187.76C583.041 189.593 584.029 191.242 585.489 192.398C586.949 193.554 588.78 194.138 590.64 194.04C599.23 194.04 600.93 187.76 600.93 187.76" stroke="#B22B19" stroke-width="0.75" stroke-miterlimit="10"/>
<path d="M621.77 117.54C621.77 117.48 621.85 117.64 621.88 117.7L622 117.94L622.22 118.43C622.363 118.756 622.486 119.09 622.59 119.43C622.808 120.113 622.956 120.817 623.03 121.53C622.814 121.217 622.633 120.882 622.49 120.53C622.343 120.205 622.216 119.871 622.11 119.53C622.003 119.203 621.92 118.869 621.86 118.53L621.77 117.99V117.72V117.59C621.77 117.59 621.75 117.43 621.77 117.54Z" fill="#EF977F"/>
<path d="M494.43 366.79L495.37 396.4L494.37 405.72L459.06 405.53C458.848 405.53 458.638 405.488 458.442 405.407C458.246 405.325 458.068 405.206 457.918 405.055C457.768 404.904 457.65 404.726 457.57 404.529C457.489 404.333 457.449 404.122 457.45 403.91C457.448 403.589 457.542 403.274 457.72 403.007C457.899 402.74 458.153 402.532 458.45 402.41L474.2 395.17L471.83 364.35" fill="#FFCBBD"/>
<path d="M455.89 405.14C456.27 403.97 456.95 402.66 457.64 402.36L474.34 395.17C483.55 398.9 495.47 396.05 495.47 396.05L496.38 408.62C496.38 408.719 496.36 408.818 496.322 408.909C496.284 409.001 496.227 409.084 496.157 409.154C496.086 409.224 496.002 409.279 495.91 409.316C495.818 409.353 495.719 409.371 495.62 409.37L456.17 409.16C455.35 409.16 455.88 405.18 455.89 405.14Z" fill="#18277A"/>
<path d="M470.73 395.89C471.665 397.111 472.453 398.436 473.08 399.84" stroke="#121649" stroke-width="0.75" stroke-miterlimit="10"/>
<path d="M468.63 397.14C469.397 398.188 470.044 399.318 470.56 400.51" stroke="#121649" stroke-width="0.75" stroke-miterlimit="10"/>
<path d="M466.85 398.06C467.528 399.044 468.133 400.077 468.66 401.15" stroke="#121649" stroke-width="0.75" stroke-miterlimit="10"/>
<path d="M496.17 406.66L455.72 406.44" stroke="#121649" stroke-width="0.75" stroke-miterlimit="10"/>
<path d="M495.8 400.64C495.8 400.64 486.43 400.7 485.59 406.64" stroke="#121649" stroke-width="0.75" stroke-miterlimit="10"/>
<path d="M461.06 400.88C461.06 400.88 463.76 404.72 464.29 406.49" stroke="#121649" stroke-width="0.75" stroke-miterlimit="10"/>
<path d="M490.34 250.4C490.34 250.4 494.63 257.64 495.88 263.04C497.023 268.77 497.023 274.67 495.88 280.4L495.79 383.94H469.57C469.57 383.94 463.75 264.61 466.34 249.19" fill="#0D219B"/>
<path d="M473.57 383.94C473.57 383.94 467.75 264.61 470.34 249.19" stroke="#121649" stroke-width="0.75" stroke-miterlimit="10"/>
<path d="M465.51 355.12L477.42 382.26L480 391.26L447.16 404.26C446.963 404.338 446.753 404.376 446.541 404.372C446.329 404.369 446.12 404.323 445.926 404.239C445.732 404.154 445.556 404.032 445.41 403.88C445.263 403.727 445.147 403.547 445.07 403.35V403.35C444.947 403.048 444.92 402.716 444.991 402.398C445.063 402.079 445.23 401.791 445.47 401.57L457.36 389L443.67 361.29" fill="#FFCBBD"/>
<path d="M444.01 405.08C443.92 403.85 444.07 402.38 444.6 401.85L457.42 389C467.35 389 477.35 381.94 477.35 381.94L482.88 393.27C482.921 393.363 482.942 393.463 482.942 393.564C482.943 393.666 482.923 393.766 482.884 393.86C482.845 393.953 482.787 394.038 482.714 394.108C482.641 394.179 482.555 394.234 482.46 394.27L445.77 408.79C445.01 409 444.02 405.12 444.01 405.08Z" fill="#0E32AE"/>
<path d="M454.33 391C455.654 391.784 456.883 392.721 457.99 393.79" stroke="#121649" stroke-width="0.75" stroke-miterlimit="10"/>
<path d="M452.85 392.91C453.952 393.594 454.975 394.399 455.9 395.31" stroke="#121649" stroke-width="0.75" stroke-miterlimit="10"/>
<path d="M451.51 394.43C452.506 395.085 453.452 395.814 454.34 396.61" stroke="#121649" stroke-width="0.75" stroke-miterlimit="10"/>
<path d="M481.95 391.47L444.34 406.35" stroke="#121649" stroke-width="0.75" stroke-miterlimit="10"/>
<path d="M479.37 386C479.37 386 470.7 389.55 472.12 395.33" stroke="#121649" stroke-width="0.75" stroke-miterlimit="10"/>
<path d="M447.23 399.2C447.23 399.2 451.16 401.75 452.31 403.2" stroke="#121649" stroke-width="0.75" stroke-miterlimit="10"/>
<path d="M445.14 267.28C431.67 300.38 431.43 303.89 429.21 320.04C426.93 336.62 451.84 385.43 451.84 385.43L475.74 374.88C475.74 374.88 459.89 330.22 460.91 322.54C462.8 308.41 479.11 284.3 479.11 284.3C479.11 284.3 486.85 278.17 488.53 270.03C490.21 261.89 486.53 253.36 486.53 253.36" fill="#0E32AE"/>
<path d="M469.71 271.18L480.44 267.8" stroke="#121649" stroke-width="0.75" stroke-miterlimit="10"/>
<path d="M492.6 264.76L496.01 263.68" stroke="#121649" stroke-width="0.75" stroke-miterlimit="10"/>
<path d="M453.14 266.28C453.14 266.28 436.51 302.47 434.21 319C431.91 335.53 456.16 383 456.16 383" stroke="#121649" stroke-width="0.75" stroke-miterlimit="10"/>
<path d="M466.51 306.63C470.148 298.883 474.359 291.419 479.11 284.3C479.11 284.3 486.85 278.17 488.53 270.03" stroke="#121649" stroke-width="0.75" stroke-miterlimit="10"/>
<path d="M442.87 185.35L449.73 197.28C449.73 197.28 445.62 206.16 434.51 202L431.67 195.69L442.87 185.35Z" fill="#FFCBBD"/>
<path d="M424.66 177.28C424.66 177.28 421.29 193.14 427.16 195.97C430.22 197.44 438.76 196.53 440.77 193.28C442.27 190.86 441.68 179.42 439.85 178.03C432.85 172.73 424.66 177.28 424.66 177.28Z" fill="#FFCBBD"/>
<path d="M439.51 172.58C436.94 168.1 431.71 168.99 423.21 173.83C422.08 174.47 419.6 174.71 419.57 176.02C419.57 177.73 420.77 180.57 422.76 181.14C423.866 181.466 425.046 181.445 426.14 181.08C427.91 180.67 430.27 181.38 430.24 183.46C430.24 184 430.08 185 430.58 185.2C430.979 185.24 431.381 185.24 431.78 185.2C432.58 185.2 433.01 186.2 432.91 186.99C432.81 187.78 433.31 188.36 433.21 189.15C432.97 191.02 435.36 193.07 437.21 193.21C438.88 193.34 443.73 192.53 446.03 189.41C448.03 186.69 447.77 182.12 444.44 175.3C443.23 172.72 440.42 171.92 439.51 172.58Z" fill="#212237"/>
<path d="M430.12 185.91C430.66 183.37 431.97 183.08 433.12 183.77C434.63 184.69 434.3 188.32 433.74 189.18C432.61 190.94 431.25 191.48 430.49 190.18" fill="#FFCBBD"/>
<path d="M432.21 196.63C433.96 195.18 433.7 192.41 433.7 192.41" stroke="#E88872" stroke-width="0.5" stroke-linejoin="round"/>
<path d="M425.18 184.86C424.94 185.41 424.86 186.22 425.31 186.57C425.371 186.614 425.445 186.638 425.52 186.638C425.595 186.638 425.669 186.614 425.73 186.57C426.61 186 425.69 183.72 425.18 184.86Z" fill="#28364C"/>
<path d="M424.51 183.11C425.404 182.979 426.315 183.17 427.08 183.65" stroke="#28364C" stroke-width="0.75" stroke-miterlimit="10"/>
<path d="M427.38 190.7L424.82 190.61C424.82 190.61 424.72 193.76 425.92 193.82C427.12 193.88 427.38 190.7 427.38 190.7Z" fill="white"/>
<path d="M448.14 194.52C448.14 194.52 454.14 192.99 462.56 195.45C469.69 197.53 478.77 202.87 485.56 210.13C497.39 222.7 491.93 253.94 491.93 253.94L476.56 253.36C476.56 253.36 478.97 233.29 470.92 225.24C462.87 217.19 451.51 215.3 451.51 215.3" fill="#ADBBF9"/>
<path d="M382.92 238.41C378.1 239.75 363.51 241.33 363.28 242.33C363.05 243.33 368.18 242.84 367.84 243.62C367.5 244.4 359.63 245.69 359.66 246.75C359.71 248.18 367.66 246.43 367.66 246.43C367.66 246.43 364.35 247.02 364.74 248.26C365.02 249.13 366.38 249.4 369 249.15C367.56 249.47 367 250.15 367.31 251.07C367.62 251.99 369.01 251.9 370.48 251.7C369.48 251.93 368.69 252.61 369.34 253.19C370.2 253.97 376.16 253.64 386.7 251.84" fill="#FFCBBD"/>
<path d="M432.96 198.51C435.753 199.553 438.827 199.553 441.62 198.51C444.058 197.666 446.283 196.301 448.14 194.51C448.14 194.51 458.47 193.8 471.05 206.38C483.63 218.96 493.63 255.1 493.63 255.1L441.56 272.6C441.56 272.6 432.66 241.06 429.16 226.7C425.66 212.34 432.96 198.51 432.96 198.51Z" fill="#ADBBF9"/>
<path d="M470.37 203.08C480.78 215.23 493.63 255.08 493.63 255.08" stroke="#525BCE" stroke-width="0.75" stroke-miterlimit="10"/>
<path d="M432.96 198.51C426.1 201.14 420.21 207.79 416.6 214.65C410.67 225.88 407.07 234.03 407.07 234.03L377.22 238.5L378.7 254.42C378.7 254.42 398.96 253.82 415.11 251.42C426.59 249.7 435.47 225.91 435.47 225.91" fill="#ADBBF9"/>
<path d="M430.95 199.41C430.95 199.41 434.25 203.82 442.17 200.85C450.09 197.88 450.37 194.22 450.37 194.22" stroke="#525BCE" stroke-width="0.75" stroke-miterlimit="10"/>
<path d="M431.67 234.06L434.91 227.21" stroke="#525BCE" stroke-width="0.75" stroke-miterlimit="10"/>
<path d="M381.89 237.8L383.01 254.2" stroke="#525BCE" stroke-width="0.75" stroke-miterlimit="10"/>
<path d="M440.61 269.21L492.6 252.02" stroke="#525BCE" stroke-width="0.75" stroke-miterlimit="10"/>
<path d="M235.84 225.63L236.55 226.08C238.818 227.664 241.295 228.926 243.91 229.83C245.44 230.29 247.11 230.52 248.37 231.52C248.841 231.943 249.343 232.33 249.87 232.68C250.02 232.76 251.5 233.31 251.43 233.16C251.575 233.406 251.767 233.621 251.995 233.792C252.224 233.964 252.484 234.089 252.76 234.16C252.823 234.174 252.888 234.174 252.95 234.16C253.02 234.16 253.08 234.08 253.05 234.01C253.25 234.39 253.92 234.55 254.13 234.35C254.34 234.15 253.81 233.21 253.81 233.21C253.81 233.21 254.17 233.21 254.28 233.11C254.429 232.9 254.506 232.647 254.5 232.39C254.572 231.175 254.383 229.958 253.947 228.822C253.511 227.685 252.837 226.655 251.97 225.8" fill="#FFCBBD"/>
<path d="M252.51 230.61C252.564 231.032 252.7 231.44 252.91 231.81C253.074 232.22 253.261 232.621 253.47 233.01C253.57 233.19 253.82 233.06 253.79 232.88C253.694 232.416 253.539 231.965 253.33 231.54C253.191 231.152 252.953 230.808 252.64 230.54C252.628 230.53 252.613 230.524 252.597 230.523C252.581 230.521 252.565 230.524 252.552 230.532C252.538 230.539 252.526 230.551 252.519 230.565C252.511 230.579 252.508 230.594 252.51 230.61Z" fill="#F49C8E"/>
<path d="M249.96 230.69C250.868 231.642 251.722 232.644 252.52 233.69C252.6 233.8 252.8 233.69 252.76 233.59C252.38 232.27 251.07 231.47 250.13 230.59C250.107 230.567 250.077 230.555 250.045 230.555C250.013 230.555 249.983 230.567 249.96 230.59C249.937 230.612 249.925 230.643 249.925 230.675C249.925 230.707 249.937 230.737 249.96 230.76V230.69Z" fill="#F49C8E"/>
<path d="M233.84 409.37L216.08 228.02" stroke="#0E32AE" stroke-miterlimit="10"/>
<path d="M303.02 409.37L285.25 228.02H216.08" stroke="#0E32AE" stroke-miterlimit="10"/>
<path d="M267.48 409.37L285.25 228.02" stroke="#0E32AE" stroke-miterlimit="10"/>
<path d="M198.31 409.37L216.07 228.02H285.25" stroke="#0E32AE" stroke-miterlimit="10"/>
<path d="M300.18 383.68H200.83" stroke="#0E32AE" stroke-miterlimit="10"/>
<path d="M297.87 361.47H203" stroke="#0E32AE" stroke-miterlimit="10"/>
<path d="M296.09 338.65H205.24" stroke="#0E32AE" stroke-miterlimit="10"/>
<path d="M293.88 316.91H207.37" stroke="#0E32AE" stroke-miterlimit="10"/>
<path d="M291.73 294.19H209.5" stroke="#0E32AE" stroke-miterlimit="10"/>
<path d="M289.53 271.67H211.72" stroke="#0E32AE" stroke-miterlimit="10"/>
<path d="M286.94 250.41H213.88" stroke="#0E32AE" stroke-miterlimit="10"/>
<path d="M231.98 227.56C239.08 227.56 246.18 227.543 253.28 227.51C252.803 226.522 252.179 225.611 251.43 224.81C250.664 224.001 249.768 223.325 248.78 222.81C245.461 221.116 241.796 220.213 238.07 220.17" fill="#FFCBBD"/>
<path d="M207.21 178.63C207.21 178.63 216.91 203.94 219.34 206.06C221.77 208.18 244.89 219.68 244.89 219.68L237.8 234.68C237.8 234.68 209.98 223.56 205.99 219.68C202 215.8 189.33 200.68 188.05 185.61" fill="#E23917"/>
<path d="M188.67 344L187.67 371.23L188.52 379.8H220.99C221.383 379.8 221.761 379.645 222.04 379.367C222.319 379.09 222.477 378.714 222.48 378.32C222.478 378.013 222.381 377.715 222.201 377.466C222.022 377.217 221.77 377.03 221.48 376.93L207.03 370.2L209.36 341.87" fill="#FFCBBD"/>
<path d="M223.94 379.48C223.6 378.41 222.94 377.19 222.34 376.92L207.02 370.23C198.53 373.62 187.59 370.94 187.59 370.94L186.69 382.5C186.69 382.683 186.763 382.858 186.892 382.988C187.021 383.117 187.197 383.19 187.38 383.19H223.66C224.42 383.18 223.95 379.52 223.94 379.48Z" fill="#F7471E"/>
<path d="M210.34 370.91C209.47 372.026 208.735 373.241 208.15 374.53" stroke="#B22B19" stroke-width="0.75" stroke-miterlimit="10"/>
<path d="M212.26 372.07C211.553 373.029 210.953 374.062 210.47 375.15" stroke="#B22B19" stroke-width="0.75" stroke-miterlimit="10"/>
<path d="M213.9 372.92C213.272 373.823 212.707 374.769 212.21 375.75" stroke="#B22B19" stroke-width="0.75" stroke-miterlimit="10"/>
<path d="M186.89 380.69L224.09 380.68" stroke="#B22B19" stroke-width="0.75" stroke-miterlimit="10"/>
<path d="M187.26 375.16C187.26 375.16 195.87 375.27 196.62 380.69" stroke="#B22B19" stroke-width="0.75" stroke-miterlimit="10"/>
<path d="M219.2 375.55C218.025 377.152 217.02 378.871 216.2 380.68" stroke="#B22B19" stroke-width="0.75" stroke-miterlimit="10"/>
<path d="M181.51 241.66C181.51 241.66 178.38 255.53 185.11 272.35C187.229 284.793 188.402 297.379 188.62 310C188.89 330.5 186.16 356.62 186.16 366.38H212.88C212.88 366.38 216.15 338.6 216.44 310.6C216.77 279.23 214.11 243.83 214.11 234.69" fill="#ADBBF9"/>
<path d="M208.88 366.41C208.88 366.41 212.16 338.11 212.45 309.76C212.78 278.62 210.11 243.76 210.11 234.76" stroke="#525BCE" stroke-width="0.75" stroke-miterlimit="10"/>
<path d="M233.84 321.87L232.84 349.11L233.69 357.68H266.16C266.555 357.68 266.934 357.523 267.214 357.244C267.493 356.964 267.65 356.585 267.65 356.19V356.19C267.645 355.884 267.547 355.587 267.368 355.338C267.189 355.09 266.939 354.902 266.65 354.8L252.2 348.07L254.53 319.74" fill="#FFCBBD"/>
<path d="M269.11 357.32C268.884 356.307 268.32 355.4 267.51 354.75L252.19 348.06C243.7 351.45 232.76 348.78 232.76 348.78L231.86 360.34C231.86 360.523 231.933 360.699 232.062 360.828C232.192 360.957 232.367 361.03 232.55 361.03H268.83C269.59 361 269.12 357.35 269.11 357.32Z" fill="#F7471E"/>
<path d="M255.51 348.74C254.642 349.861 253.907 351.079 253.32 352.37" stroke="#B22B19" stroke-width="0.75" stroke-miterlimit="10"/>
<path d="M257.44 349.91C256.727 350.866 256.123 351.899 255.64 352.99" stroke="#B22B19" stroke-width="0.75" stroke-miterlimit="10"/>
<path d="M259.07 350.76C258.44 351.662 257.875 352.607 257.38 353.59" stroke="#B22B19" stroke-width="0.75" stroke-miterlimit="10"/>
<path d="M232.07 358.53L269.26 358.52" stroke="#B22B19" stroke-width="0.75" stroke-miterlimit="10"/>
<path d="M232.43 353C232.43 353 241.04 353.1 241.79 358.53" stroke="#B22B19" stroke-width="0.75" stroke-miterlimit="10"/>
<path d="M264.37 353.38C263.196 354.985 262.19 356.708 261.37 358.52" stroke="#B22B19" stroke-width="0.75" stroke-miterlimit="10"/>
<path d="M226.51 243.17C226.51 243.17 252.19 267.51 257.97 283.35C261.97 294.35 256.14 344.82 256.14 344.82H230.56C230.56 344.82 233.68 298.93 232.07 294.19C230.17 288.62 208.15 269.62 208.15 269.62C205.1 268.744 202.28 267.206 199.891 265.117C197.503 263.027 195.604 260.437 194.33 257.53C190.33 248.53 192.19 237.62 192.19 237.62" fill="#ADBBF9"/>
<path d="M220.51 243.17C220.51 243.17 247.13 271.3 251.97 283.35C255.65 292.51 250.14 344.82 250.14 344.82" stroke="#525BCE" stroke-width="0.75" stroke-miterlimit="10"/>
<path d="M215.9 276.55C213.9 274.72 210.39 271.55 209.32 270.64C208.64 270.044 207.853 269.582 207 269.28C204.2 268.287 201.632 266.732 199.453 264.712C197.274 262.692 195.531 260.248 194.33 257.53" stroke="#525BCE" stroke-width="0.75" stroke-miterlimit="10"/>
<path d="M201.41 251.93C201.41 251.93 209.06 252.2 212.26 251.93" stroke="#525BCE" stroke-width="0.75" stroke-miterlimit="10"/>
<path d="M180.77 251.93H186.94" stroke="#525BCE" stroke-width="0.75" stroke-miterlimit="10"/>
<path d="M272.38 181.55C275.07 180.33 287.28 174.99 287.57 175.73C287.86 176.47 283.99 179.02 284.42 179.14C286.287 178.796 288.106 178.232 289.84 177.46C291.38 176.71 293.98 175.74 294.39 176.37C295.18 177.57 286.67 181.61 286.67 181.61C286.67 181.61 288.18 180.92 288.94 181.85C290.05 183.19 287.71 184.43 287.71 184.43C287.71 184.43 289.05 183.75 289.49 184.91C289.93 186.07 287.95 187.09 287.95 187.09C287.95 187.09 289.54 186.32 289.74 187.77C290 189.68 277.3 194.16 277.3 194.16" fill="#FFCBBD"/>
<path d="M210.51 169.19C209.548 169.84 208.467 170.293 207.329 170.523C206.191 170.753 205.019 170.756 203.88 170.53C199.8 169.83 198.81 167.86 198.81 167.86C198.81 167.86 187.97 169.37 182.75 202.86C180.544 216.953 179.727 231.228 180.31 245.48H229.76C229.76 245.48 231.27 194.38 228.76 184.88" fill="#F7471E"/>
<path d="M214.36 193.78C214.36 193.78 229.01 210 242.68 210C256.35 210 282.08 195.49 282.08 195.49L275.93 178.62L246.04 189.35C246.04 189.35 230.29 174.64 223.04 171.93C219.03 170.345 214.787 169.433 210.48 169.23" fill="#F7471E"/>
<path d="M230.11 206.24C230.11 206.24 220.91 199.24 216.47 195.92" stroke="#B22B19" stroke-width="0.75" stroke-miterlimit="10"/>
<path d="M273.08 179.61L278.71 197.27" stroke="#B22B19" stroke-width="0.75" stroke-miterlimit="10"/>
<path d="M180.11 241.33H229.83" stroke="#B22B19" stroke-width="0.75" stroke-miterlimit="10"/>
<path d="M221.39 199.61C221.87 213.83 221.39 245.44 221.39 245.44" stroke="#B22B19" stroke-width="0.75" stroke-miterlimit="10"/>
<path d="M198.95 160.57L197.83 169.57C197.83 169.57 206.54 174.14 212.32 169.28V164.02L198.95 160.57Z" fill="#FFCBBD"/>
<path d="M210.78 146.41C210.78 146.41 220.96 159.24 217.24 164C215.3 166.47 208.99 165.88 205.98 164C203.75 162.61 197.51 155.16 198.47 153.25C202.11 146 210.78 146.41 210.78 146.41Z" fill="#FFCBBD"/>
<path d="M209.51 148.76C209.594 152.051 209.427 155.344 209.01 158.61L208.23 175.51C208.23 175.51 194.79 176.94 186.23 170.97C186.23 170.97 189.11 153.22 195.52 147.84C201.61 142.72 209.52 143.09 213.57 146.4C213.57 146.4 213.01 147.95 212.25 148.31C211.371 148.58 210.459 148.731 209.54 148.76" fill="#4A1A1A"/>
<path d="M210.35 156.91C209.1 155.33 208.1 155.58 207.55 156.45C206.82 157.6 208.29 160 208.97 160.45C210.36 161.28 211.48 161.19 211.58 160.07" fill="#FFCBBD"/>
<path d="M212.43 165.58C212.023 165.589 211.622 165.477 211.278 165.258C210.935 165.039 210.664 164.723 210.5 164.35" stroke="#E88872" stroke-width="0.5" stroke-linejoin="round"/>
<path d="M213.45 152.92C213.88 153.27 214.28 153.92 214.04 154.39C214.011 154.453 213.961 154.504 213.9 154.537C213.839 154.569 213.769 154.581 213.7 154.57C212.75 154.48 212.56 152.18 213.45 152.92Z" fill="#28364C"/>
<path d="M213.33 151.17C212.901 151.209 212.492 151.371 212.153 151.637C211.814 151.903 211.559 152.262 211.42 152.67" stroke="#28364C" stroke-width="0.5" stroke-miterlimit="10" stroke-linecap="round"/>
<path d="M214.23 159.55L216.49 158.82C216.49 158.82 217.38 161.6 216.33 161.96C215.28 162.32 214.23 159.55 214.23 159.55Z" fill="white"/>
<path d="M201.9 144.81C202.346 144.676 202.734 144.398 203.005 144.02C203.277 143.642 203.415 143.185 203.4 142.72C203.373 142.256 203.224 141.807 202.97 141.417C202.716 141.028 202.364 140.712 201.95 140.5C201.113 140.081 200.146 139.998 199.25 140.27C198.892 140.352 198.553 140.501 198.25 140.71C197.09 141.57 197.12 143.42 197.94 144.61C198.264 145.099 198.754 145.454 199.32 145.61C200.161 145.712 201.014 145.551 201.76 145.15" fill="#4A1A1A"/>
<path d="M214.51 152.77C214.76 152.91 217.44 154.07 217.46 155.15C217.46 155.76 215.98 156.43 215.98 156.43" fill="#FFCBBD"/>
<path d="M249.79 225.44C250.993 226.867 251.934 228.495 252.57 230.25C252.603 230.308 252.624 230.373 252.63 230.44C252.63 230.76 252.16 230.79 251.86 230.68C251.181 230.419 250.552 230.043 250 229.57C249.792 229.368 249.564 229.187 249.32 229.03C248.841 228.813 248.325 228.691 247.8 228.67C246.717 228.584 245.669 228.248 244.739 227.687C243.809 227.127 243.022 226.357 242.44 225.44" fill="#FFCBBD"/>
<path d="M249.79 225.44C250.862 226.494 251.712 227.752 252.29 229.14L252.76 230.14C252.821 230.264 252.849 230.402 252.84 230.54C252.82 230.622 252.781 230.697 252.725 230.76C252.669 230.823 252.599 230.871 252.52 230.9C252.293 230.975 252.047 230.975 251.82 230.9C251.09 230.64 250.412 230.251 249.82 229.75C249.587 229.498 249.309 229.291 249 229.14C248.677 229.025 248.341 228.951 248 228.92C247.241 228.843 246.497 228.658 245.79 228.37C244.353 227.847 243.167 226.8 242.47 225.44C243.3 226.658 244.515 227.563 245.92 228.01C246.609 228.247 247.324 228.401 248.05 228.47C248.441 228.497 248.827 228.57 249.2 228.69C249.571 228.855 249.91 229.086 250.2 229.37C250.736 229.842 251.353 230.215 252.02 230.47C252.146 230.514 252.284 230.514 252.41 230.47H252.46C252.46 230.47 252.46 230.39 252.46 230.34C252.3 230 252.17 229.65 252.03 229.34C251.496 227.929 250.739 226.612 249.79 225.44V225.44Z" fill="#E88872"/>
<path d="M79.5099 368.33L78.6099 396.88L79.5299 405.88L113.53 405.7C113.734 405.7 113.937 405.66 114.125 405.581C114.314 405.503 114.485 405.387 114.629 405.242C114.773 405.098 114.887 404.925 114.965 404.736C115.042 404.547 115.081 404.344 115.08 404.14V404.14C115.08 403.825 114.984 403.518 114.806 403.259C114.627 403 114.374 402.802 114.08 402.69L98.9099 395.69L101.2 365.99" fill="#FFCBBD"/>
<path d="M116.6 405.29C116.24 404.17 115.6 402.9 114.91 402.61L98.8201 395.68C89.9501 399.28 78.4601 396.53 78.4601 396.53L77.5801 408.65C77.5827 408.842 77.6608 409.025 77.7974 409.16C77.934 409.294 78.1182 409.37 78.3101 409.37L116.31 409.17C117.12 409.17 116.61 405.33 116.6 405.29Z" fill="#18277A"/>
<path d="M102.3 396.38C101.397 397.557 100.635 398.836 100.03 400.19" stroke="#5565AA" stroke-width="0.75" stroke-miterlimit="10"/>
<path d="M104.33 397.59C103.585 398.595 102.958 399.682 102.46 400.83" stroke="#5565AA" stroke-width="0.75" stroke-miterlimit="10"/>
<path d="M106.04 398.47C105.385 399.426 104.8 400.429 104.29 401.47" stroke="#5565AA" stroke-width="0.75" stroke-miterlimit="10"/>
<path d="M77.79 406.75L116.77 406.55" stroke="#5565AA" stroke-width="0.75" stroke-miterlimit="10"/>
<path d="M78.1399 401C78.1399 401 87.1399 401.06 87.9799 406.74" stroke="#5565AA" stroke-width="0.75" stroke-miterlimit="10"/>
<path d="M111.61 401.19C111.61 401.19 109.01 404.89 108.5 406.59" stroke="#5565AA" stroke-width="0.75" stroke-miterlimit="10"/>
<path d="M82.61 266.19C82.61 266.19 100.7 300.08 106.43 321.4C112.16 342.72 104.51 390.72 104.51 390.72H76.4C76.4 390.72 82.01 338.61 75.4 321.4C68.79 304.19 44.98 258.88 44.98 258.88" fill="#00CACA"/>
<path d="M80.25 390.72C80.25 390.72 84.8701 336.52 82.0601 323.13C79.2501 309.74 59.8 278.57 59.8 278.57" stroke="#525BCE" stroke-width="0.75" stroke-miterlimit="10"/>
<path d="M47.2201 352.46L30.5901 375.38L26.0601 383.19L53.6801 403.06C54.0147 403.3 54.4307 403.398 54.8372 403.332C55.2437 403.266 55.6078 403.043 55.8501 402.71V402.71C56.0307 402.45 56.1276 402.141 56.1276 401.825C56.1276 401.509 56.0307 401.2 55.8501 400.94L47.6801 386.37L66.1201 362.37" fill="#FFCBBD"/>
<path d="M56.3999 404.57C56.7699 403.45 56.9899 402.03 56.6199 401.41L47.6799 386.34C38.3899 384.03 30.6799 375.05 30.6799 375.05L22.8399 384.33C22.7295 384.484 22.6844 384.676 22.7144 384.863C22.7443 385.05 22.8469 385.218 22.9999 385.33L53.8599 407.53C54.5099 408 56.3899 404.61 56.3999 404.57Z" fill="#18277A"/>
<path d="M50.09 389C48.6678 389.422 47.2988 390.006 46.01 390.74" stroke="#5565AA" stroke-width="0.75" stroke-miterlimit="10"/>
<path d="M51.0101 391.12C49.8216 391.501 48.6782 392.011 47.6001 392.64" stroke="#5565AA" stroke-width="0.75" stroke-miterlimit="10"/>
<path d="M51.88 392.84C50.7924 393.225 49.7331 393.687 48.71 394.22" stroke="#5565AA" stroke-width="0.75" stroke-miterlimit="10"/>
<path d="M24.1599 382.92L55.7999 405.68" stroke="#5565AA" stroke-width="0.75" stroke-miterlimit="10"/>
<path d="M27.8501 378.44C27.8501 378.44 35.1201 383.8 32.4301 388.87" stroke="#5565AA" stroke-width="0.75" stroke-miterlimit="10"/>
<path d="M54.7801 398.32C52.8016 398.97 50.895 399.821 49.0901 400.86" stroke="#5565AA" stroke-width="0.75" stroke-miterlimit="10"/>
<path d="M37.5101 258.88C32.1701 274.06 37.5101 286 37.5101 286C37.5101 286 55.7801 319.38 55.7801 326.17C55.7801 332.39 32.3401 367.85 32.3401 367.85L53.7901 385.1C53.7901 385.1 87.4601 348.87 86.7901 323.8C86.0001 292.8 69.1301 258.88 69.1301 258.88" fill="#00CACA"/>
<path d="M41.5099 259.88C36.1499 275.06 42.6199 285.3 42.6199 285.3C42.6199 285.3 59.7799 320.4 59.7799 327.19C59.7799 333.41 35.4299 370.35 35.4299 370.35" stroke="#525BCE" stroke-width="0.75" stroke-miterlimit="10"/>
<path d="M78.2999 351.28C83.2999 342.07 87.0299 332.28 86.8199 323.8C86.0299 292.8 69.1599 258.88 69.1599 258.88" stroke="#525BCE" stroke-width="0.75" stroke-miterlimit="10"/>
<path d="M39.78 271.79C39.78 271.79 49.34 272.35 53.09 264.66" stroke="#525BCE" stroke-width="0.75" stroke-miterlimit="10"/>
<path d="M76.4199 276.18C76.4199 276.18 79.0399 276.47 78.7899 275.18C78.5399 273.89 76.4199 266.9 76.4199 266.9" stroke="#525BCE" stroke-width="0.75" stroke-miterlimit="10"/>
<path fill-rule="evenodd" clip-rule="evenodd" d="M88.5699 178.31C89.5699 184.43 88.7799 189.84 83.5699 190.66C78.3599 191.48 71.09 189.98 69.66 181.25C68.66 175.13 72.1199 169.51 77.3499 168.69C82.5799 167.87 87.5899 172.19 88.5699 178.31Z" fill="#FFCBBB"/>
<path d="M84.3401 178.37C84.2301 178.93 84.3401 179.7 84.8301 179.93C84.8952 179.959 84.968 179.967 85.038 179.953C85.108 179.939 85.1717 179.903 85.2201 179.85C85.9301 179.15 84.5701 177.19 84.3401 178.37Z" fill="#28364C"/>
<path d="M82.6001 177C83.1455 176.698 83.7505 176.519 84.3724 176.476C84.9943 176.433 85.6182 176.526 86.2001 176.75" stroke="#28364C" stroke-width="0.5" stroke-linecap="round" stroke-linejoin="round"/>
<path d="M87.74 184.71H84.33C84.33 184.71 84.12 187.55 85.82 187.84C87.24 188.09 87.74 184.71 87.74 184.71Z" fill="white"/>
<path fill-rule="evenodd" clip-rule="evenodd" d="M80.7901 197.36C78.1592 197.752 75.4776 197.636 72.8901 197.02C68.3701 195.78 67.0901 193.95 67.0901 193.95L73.3501 180.88L83.0101 185.26L80.7901 197.36Z" fill="#FFCBBB"/>
<path d="M81.9901 190.81C81.9901 190.81 77.7801 190.95 75.6001 188.88" stroke="#EF977F" stroke-miterlimit="10"/>
<path fill-rule="evenodd" clip-rule="evenodd" d="M87.51 178.12C87.51 178.12 90.12 181.96 89.99 182.64C89.86 183.32 87.99 183.64 87.99 183.64" fill="#FFCBBB"/>
<path d="M73.3999 186.78C72.8218 186.999 72.216 187.137 71.5999 187.19C70.3639 187.345 69.1098 187.126 67.9999 186.56C66.9921 186.034 66.1749 185.204 65.6636 184.189C65.1523 183.173 64.9726 182.023 65.1499 180.9C65.2299 180.53 65.3399 180.18 65.3999 179.81C65.6699 178.1 64.6699 176.47 64.3999 174.76C64.1633 173.09 64.5592 171.393 65.5099 170C66.4762 168.624 67.8407 167.577 69.4199 167C70.6699 166.52 72.0399 166.34 73.0799 165.44C73.5213 164.966 73.9995 164.528 74.5099 164.13C77.1099 162.49 80.8199 163.39 83.1399 165.13C83.3938 165.363 83.6935 165.54 84.0199 165.65C84.5899 165.81 85.1899 165.57 85.7699 165.65C87.9999 166.09 88.9799 169.39 88.9499 171.36C88.982 171.94 88.8278 172.514 88.5099 173C88.2379 173.318 87.9048 173.579 87.5304 173.766C87.1559 173.953 86.7477 174.063 86.3299 174.09C85.1616 174.073 83.9939 174.156 82.8399 174.34C82.0399 174.59 81.3499 175.1 80.5799 175.41C79.9795 175.646 79.3373 175.757 78.6926 175.736C78.0478 175.715 77.4141 175.564 76.8299 175.29C77.106 176.093 77.2016 176.946 77.1099 177.79C76.8699 179.37 75.5399 180.14 74.1099 180.53C74.6983 182.199 74.8193 183.997 74.4599 185.73C74.3754 185.974 74.2358 186.196 74.0521 186.378C73.8683 186.56 73.6452 186.698 73.3999 186.78Z" fill="#14122D"/>
<path d="M75.33 179.27C75.174 179.068 74.9788 178.899 74.7561 178.774C74.5334 178.649 74.2877 178.57 74.0338 178.542C73.7799 178.514 73.5229 178.537 73.2783 178.611C73.0336 178.684 72.8064 178.807 72.61 178.97C70.72 180.55 73.19 183.97 74.69 184.52C76.19 185.07 76.64 183.41 76.64 183.41" fill="#FFCBBB"/>
<path d="M146.38 245.94C150.433 242.533 153.623 238.215 155.69 233.34L149.36 230C150.238 227.802 150.81 225.494 151.06 223.14H158.25C158.69 217.862 157.889 212.553 155.91 207.64L149.04 209.73C148.104 207.553 146.879 205.512 145.4 203.66L150.45 198.57C148.747 196.556 146.817 194.744 144.7 193.17C142.574 191.603 140.272 190.291 137.84 189.26L134.51 195.51C132.31 194.639 130.003 194.067 127.65 193.81V186.63C122.372 186.181 117.063 186.979 112.15 188.96L114.23 195.83C112.056 196.77 110.018 197.998 108.17 199.48L103.08 194.42C99.0042 197.817 95.7871 202.127 93.69 207L100.02 210.38C99.1429 212.582 98.5709 214.893 98.32 217.25H91.14C90.6939 222.548 91.5059 227.876 93.51 232.8L100.38 230.72C101.317 232.894 102.541 234.932 104.02 236.78L99.02 241.88C102.433 245.929 106.753 249.116 111.63 251.18L115.01 244.86C117.215 245.728 119.525 246.3 121.88 246.56V253.74C127.158 254.185 132.466 253.387 137.38 251.41L135.3 244.53C137.476 243.597 139.515 242.373 141.36 240.89L146.38 245.94ZM117.15 230.4C115.128 228.909 113.594 226.851 112.741 224.488C111.889 222.124 111.757 219.561 112.362 217.122C112.967 214.684 114.281 212.479 116.139 210.788C117.997 209.097 120.315 207.994 122.799 207.621C125.284 207.247 127.823 207.619 130.097 208.688C132.37 209.758 134.275 211.479 135.57 213.631C136.866 215.784 137.493 218.273 137.374 220.782C137.255 223.292 136.394 225.71 134.9 227.73C132.899 230.436 129.906 232.237 126.578 232.738C123.249 233.239 119.859 232.398 117.15 230.4V230.4Z" fill="#ADBBF9"/>
<path d="M126.6 244.39C129.54 244.64 142.8 245.99 142.69 246.78C142.58 247.57 138.09 247.78 138.26 248.2C138.51 248.78 141.89 249.29 143.81 249.4C145.52 249.5 148.26 249.94 148.31 250.69C148.42 252.12 139.02 251.46 139.02 251.46C139.02 251.89 149.26 250.28 149.47 251.46C149.77 253.17 138.89 254.01 138.54 254.46C138.54 254.46 147.77 251.11 147.99 252.38C148.21 253.65 140.05 256.84 137.44 256.89C139.57 256.44 145.85 252.89 146.01 253.83C146.17 254.77 140.62 257.17 139.72 257.32C134.755 258.053 129.723 258.221 124.72 257.82" fill="#FFCBBD"/>
<path d="M80.9499 196.52C80.9499 196.52 78.0999 197.88 73.7799 196C69.0999 194 68.1099 191.62 68.1099 191.62C68.1099 191.62 42.6699 193.87 33.3599 264.46L85.4499 270.92C85.4499 270.92 89.6399 245.69 88.9699 225.27C88.5499 212.27 83.4999 202.16 80.9699 196.52" fill="#0E32AE"/>
<path d="M65.6699 224.78C65.6699 224.78 73.6699 251.62 95.3199 257.42C106.51 260.5 118.029 262.229 129.63 262.57L131.72 244.48C131.72 244.48 108.16 240.25 98.5099 233.84C91.1199 228.96 89.6799 213.31 87.8199 207.78C85.2199 200.1 80.9899 196.52 80.9899 196.52" fill="#0E32AE"/>
<path d="M66.03 192.17C66.03 192.17 67.63 197.09 75.03 198.7C80.45 199.88 82.58 198.27 82.58 198.27" stroke="#121649" stroke-width="0.75" stroke-miterlimit="10"/>
<path d="M86.82 254.38C86.82 254.38 67.09 245.27 66.03 219.46" stroke="#121649" stroke-width="0.75" stroke-miterlimit="10"/>
<path d="M127.35 243.6L124.69 262.37" stroke="#121649" stroke-width="0.75" stroke-miterlimit="10"/>
<defs>
<linearGradient id="paint0_linear" x1="210.523" y1="358.006" x2="474.527" y2="94.0328" gradientUnits="userSpaceOnUse">
<stop offset="0.27" stop-color="white" stop-opacity="0.1"/>
<stop offset="1" stop-color="white" stop-opacity="0.3"/>
</linearGradient>
<linearGradient id="paint1_linear" x1="40441.5" y1="137649" x2="119037" y2="105164" gradientUnits="userSpaceOnUse">
<stop offset="0.27" stop-color="white" stop-opacity="0.1"/>
<stop offset="1" stop-color="white" stop-opacity="0.3"/>
</linearGradient>
</defs>
</svg>
