<svg width="165" height="79" viewBox="0 0 165 79" fill="none" xmlns="http://www.w3.org/2000/svg">
<path d="M15.927 53.6339C15.927 53.6339 19.9215 48.5697 14.8232 35.7428C10.1365 23.9443 18.7009 18.0208 23.9143 17.7871C25.054 17.6343 26.4185 17.5624 27.9035 17.5012C28.3169 17.4851 30.2261 17.4096 30.7636 17.3844C36.4427 17.1219 42.8534 16.455 45.3379 12.2339" stroke="#5E92BC" stroke-width="2" stroke-miterlimit="10" stroke-linecap="round"/>
<path d="M1 43.9137C1 43.9137 4.1712 38.2975 17.9706 38.1483C30.6644 38.0117 32.899 27.8383 31.1354 22.9269C29.6325 17.1778 23.8402 6.67005 28.1494 1" stroke="#5E92BC" stroke-width="2" stroke-miterlimit="10" stroke-linecap="round"/>
<path d="M26.0225 15.0063C26.4755 16.2917 27.5182 19.2688 27.8184 20.0795Z" fill="white"/>
<path d="M26.0225 15.0063C26.4755 16.2917 27.5182 19.2688 27.8184 20.0795" stroke="white" stroke-width="0.5" stroke-miterlimit="10"/>
<path d="M30.5732 14.3896C31.0514 15.9087 32.2092 18.9091 32.5957 19.9518Z" fill="white"/>
<path d="M30.5732 14.3896C31.0514 15.9087 32.2092 18.9091 32.5957 19.9518" stroke="white" stroke-width="0.5" stroke-miterlimit="10" stroke-linecap="round"/>
<path d="M18.9139 41.2151C18.9139 41.2151 18.0367 37.9846 17.1558 35.4731Z" fill="white"/>
<path d="M18.9139 41.2151C18.9139 41.2151 18.0367 37.9846 17.1558 35.4731" stroke="white" stroke-width="0.5" stroke-miterlimit="10"/>
<path d="M14.4887 42.0855C14.4887 42.0855 13.57 38.2725 12.3691 35.6748Z" fill="white"/>
<path d="M14.4887 42.0855C14.4887 42.0855 13.57 38.2725 12.3691 35.6748" stroke="white" stroke-width="0.5" stroke-miterlimit="10"/>
<path d="M17.6309 24.1924L27.2379 31.6458" stroke="#346FA5" stroke-width="0.5" stroke-miterlimit="10" stroke-linecap="round"/>
<path d="M21.1182 21.2549L28.9707 27.3474" stroke="#346FA5" stroke-width="0.5" stroke-miterlimit="10" stroke-linecap="round"/>
<path d="M16.083 28.6187L23.7216 34.544" stroke="#346FA5" stroke-width="0.5" stroke-miterlimit="10" stroke-linecap="round"/>
<path d="M26.0225 20.0791L28.2247 21.7869" stroke="#346FA5" stroke-width="0.5" stroke-miterlimit="10" stroke-linecap="round"/>
<path d="M29.7998 11.0205L34.402 14.5926" stroke="#346FA5" stroke-width="0.5" stroke-miterlimit="10" stroke-linecap="round"/>
<path d="M10.0679 41.5264L14.6701 45.1003" stroke="#346FA5" stroke-width="0.5" stroke-miterlimit="10" stroke-linecap="round"/>
<path d="M29.4941 4.51807L40.4297 13.0034" stroke="#346FA5" stroke-width="0.5" stroke-miterlimit="10" stroke-linecap="round"/>
<path d="M5.37598 43.9136L14.0195 50.6191" stroke="#346FA5" stroke-width="0.5" stroke-miterlimit="10" stroke-linecap="round"/>
<path d="M16.7881 33.8394L19.1539 35.6748" stroke="#346FA5" stroke-width="0.5" stroke-miterlimit="10" stroke-linecap="round"/>
<path d="M112.828 53.6339C112.828 53.6339 116.822 48.5697 111.724 35.7428C107.037 23.9443 115.602 18.0208 120.815 17.7871C121.955 17.6343 123.319 17.5624 124.804 17.5012C125.218 17.4851 127.127 17.4096 127.665 17.3844C133.344 17.1219 139.754 16.455 142.239 12.2339" stroke="#5E92BC" stroke-width="2" stroke-miterlimit="10" stroke-linecap="round"/>
<path d="M97.9009 43.9137C97.9009 43.9137 101.072 38.2975 114.871 38.1483C127.565 38.0117 129.8 27.8383 128.036 22.9269C126.533 17.1778 120.741 6.67005 125.05 1" stroke="#5E92BC" stroke-width="2" stroke-miterlimit="10" stroke-linecap="round"/>
<path d="M122.924 15.0063C123.377 16.2917 124.42 19.2688 124.72 20.0795Z" fill="white"/>
<path d="M122.924 15.0063C123.377 16.2917 124.42 19.2688 124.72 20.0795" stroke="white" stroke-width="0.5" stroke-miterlimit="10"/>
<path d="M127.472 14.3896C127.95 15.9087 129.108 18.9091 129.495 19.9518Z" fill="white"/>
<path d="M127.472 14.3896C127.95 15.9087 129.108 18.9091 129.495 19.9518" stroke="white" stroke-width="0.5" stroke-miterlimit="10" stroke-linecap="round"/>
<path d="M115.816 41.2151C115.816 41.2151 114.939 37.9846 114.058 35.4731Z" fill="white"/>
<path d="M115.816 41.2151C115.816 41.2151 114.939 37.9846 114.058 35.4731" stroke="white" stroke-width="0.5" stroke-miterlimit="10"/>
<path d="M111.39 42.0855C111.39 42.0855 110.471 38.2725 109.271 35.6748Z" fill="white"/>
<path d="M111.39 42.0855C111.39 42.0855 110.471 38.2725 109.271 35.6748" stroke="white" stroke-width="0.5" stroke-miterlimit="10"/>
<path d="M114.532 24.1924L124.139 31.6458" stroke="#346FA5" stroke-width="0.5" stroke-miterlimit="10" stroke-linecap="round"/>
<path d="M118.018 21.2549L125.87 27.3474" stroke="#346FA5" stroke-width="0.5" stroke-miterlimit="10" stroke-linecap="round"/>
<path d="M112.982 28.6187L120.621 34.544" stroke="#346FA5" stroke-width="0.5" stroke-miterlimit="10" stroke-linecap="round"/>
<path d="M122.924 20.0791L125.124 21.7869" stroke="#346FA5" stroke-width="0.5" stroke-miterlimit="10" stroke-linecap="round"/>
<path d="M126.699 11.0205L131.301 14.5926" stroke="#346FA5" stroke-width="0.5" stroke-miterlimit="10" stroke-linecap="round"/>
<path d="M106.969 41.5264L111.569 45.1003" stroke="#346FA5" stroke-width="0.5" stroke-miterlimit="10" stroke-linecap="round"/>
<path d="M126.394 4.51807L137.329 13.0034" stroke="#346FA5" stroke-width="0.5" stroke-miterlimit="10" stroke-linecap="round"/>
<path d="M102.275 43.9136L110.919 50.6191" stroke="#346FA5" stroke-width="0.5" stroke-miterlimit="10" stroke-linecap="round"/>
<path d="M113.688 33.8394L116.053 35.6748" stroke="#346FA5" stroke-width="0.5" stroke-miterlimit="10" stroke-linecap="round"/>
<path d="M129.68 50.5273V72.5765" stroke="#8658A0" stroke-width="2" stroke-miterlimit="10"/>
<path d="M127.628 50.5273V72.5765" stroke="#B76BD6" stroke-width="2" stroke-miterlimit="10"/>
<path d="M144.289 50.5273V72.5765" stroke="#8658A0" stroke-width="2" stroke-miterlimit="10"/>
<path d="M158.154 50.5273V72.5765" stroke="#8658A0" stroke-width="2" stroke-miterlimit="10"/>
<path d="M142.237 50.5273V72.5765" stroke="#B76BD6" stroke-width="2" stroke-miterlimit="10"/>
<path d="M163.799 50.5275L143.118 32.2212L121.707 50.1841L163.799 50.5275Z" fill="#578491" stroke="#B76BD6" stroke-width="2" stroke-miterlimit="10" stroke-linecap="round" stroke-linejoin="round"/>
<path d="M124.184 49.6268L142.546 34.1069L161.555 49.3337L124.184 49.6268Z" fill="#8658A0" stroke="#B76BD6" stroke-width="2" stroke-miterlimit="10" stroke-linecap="round" stroke-linejoin="round"/>
<path d="M163.799 71.4282H122.162V78.1571H163.799V71.4282Z" fill="#B76BD6"/>
<path d="M83.126 17.9775V42.7089" stroke="#C48A5F" stroke-width="2" stroke-miterlimit="10" stroke-linecap="round" stroke-linejoin="round"/>
<path d="M95.6003 30.3442H70.6567" stroke="#C48A5F" stroke-width="2" stroke-miterlimit="10" stroke-linecap="round" stroke-linejoin="round"/>
<path d="M29.0264 78.9998C29.0264 78.9998 32.7243 66.5379 39.6294 61.1573C42.5921 66.9999 50.0922 70.0597 52.8859 64.7618C54.9694 63.5123 56.0265 62.0957 57.3047 60.3052C65.1015 65.1447 70.6547 78.9998 70.6547 78.9998H29.0264V78.9998Z" fill="#9DCE76"/>
<path d="M36.2358 40.3413C36.2358 40.3413 36.7068 49.0945 37.1689 54.9928C37.2498 55.5375 37.4098 56.1002 37.7262 56.5964C41.6021 62.7357 44.8164 66.2035 47.9265 66.1999C50.8065 66.2772 52.5215 64.9541 52.2518 62.9873C51.966 60.875 48.8074 60.3698 47.6442 61.5528C46.9467 62.2611 47.1571 63.5374 47.9822 63.9869C49.1418 64.6161 50.2761 63.8503 50.3103 62.8525" stroke="#231F20" stroke-width="0.4" stroke-miterlimit="10" stroke-linecap="round"/>
<path d="M58.8902 42.0942C58.8902 42.0942 59.1814 46.8438 58.7554 54.9714C58.6853 55.6222 58.6116 56.068 58.3437 56.6037C56.9684 59.063 55.1419 61.7668 52.2817 63.8001" stroke="#231F20" stroke-width="0.4" stroke-miterlimit="10" stroke-linecap="round"/>
<path d="M42.8835 49.823C43.2568 49.823 43.5594 49.1533 43.5594 48.3273C43.5594 47.5012 43.2568 46.8315 42.8835 46.8315C42.5102 46.8315 42.2075 47.5012 42.2075 48.3273C42.2075 49.1533 42.5102 49.823 42.8835 49.823Z" fill="black"/>
<path d="M53.1598 49.823C53.5332 49.823 53.8358 49.1533 53.8358 48.3273C53.8358 47.5012 53.5332 46.8315 53.1598 46.8315C52.7865 46.8315 52.4839 47.5012 52.4839 48.3273C52.4839 49.1533 52.7865 49.823 53.1598 49.823Z" fill="black"/>
<path d="M43.8296 57.377C43.8296 57.377 47.754 60.4187 52.8884 57.377" stroke="#231F20" stroke-width="0.4" stroke-miterlimit="10" stroke-linecap="round"/>
<path d="M48.3573 50.8872C48.3573 50.8872 49.4018 54.1573 48.3573 55.0112C47.8809 55.4013 47.0737 55.0112 47.0737 55.0112" stroke="#231F20" stroke-width="0.4" stroke-miterlimit="10" stroke-linecap="round"/>
<path d="M43.2671 40.052C43.2671 40.052 44.8904 37.8049 46.4329 40.55C47.9717 43.2969 52.4535 47.8272 57.8431 44.852C55.5312 44.9868 54.6054 42.754 54.6054 42.754C54.6054 42.754 59.6444 44.6974 63.4233 42.3316C62.2655 42.4772 60.5415 42.5868 59.4862 39.8489C58.6934 37.7887 57.5986 29.8589 48.9371 30.3677C44.1588 30.5708 42.1111 33.1559 42.1111 33.1559C42.1111 33.1559 39.339 30.8512 36.5454 34.1195C34.0771 37.0085 35.9144 42.5365 32.0312 43.6511C33.6061 45.1216 40.015 46.2884 43.2671 40.052Z" fill="#72685B"/>
<path d="M156.356 50.5273V72.5765" stroke="#B76BD6" stroke-width="2" stroke-miterlimit="10"/>
<path d="M163.799 71.1025H122.162V76.6809H163.799V71.1025Z" fill="#8658A0"/>
</svg>
