<svg width="290" height="184" viewBox="0 0 290 184" fill="none" xmlns="http://www.w3.org/2000/svg">
<path opacity="0.5" d="M154.205 109.939C162.376 101.768 162.376 88.5196 154.205 80.3485C146.034 72.1774 132.786 72.1774 124.615 80.3485C116.444 88.5196 116.444 101.768 124.615 109.939C132.786 118.11 146.034 118.11 154.205 109.939Z" fill="#BCECFF"/>
<path d="M118.695 7.83939L104.021 34.3557L129.811 48.6279L144.485 22.1116L118.695 7.83939Z" fill="#DFDFDF"/>
<path d="M126.175 48.595C126.175 48.595 132.175 53.4896 124.863 66.6741C117.551 79.8587 113.053 72.2773 113.053 72.2773C113.053 72.2773 122.924 48.7885 126.175 48.595Z" fill="#EEC099"/>
<path d="M89.1836 48.2866C89.9798 47.4375 91.0806 46.9395 92.244 46.9019C93.4073 46.8644 94.5379 47.2905 95.3872 48.0865L127.537 78.2184L121.537 84.6188L89.387 54.4868C88.5385 53.6912 88.0405 52.5913 88.0024 51.4288C87.9642 50.2662 88.3891 49.1361 89.1836 48.2866V48.2866Z" fill="#293E75"/>
<path d="M122.436 73.7728L116.766 79.8209C116.461 80.1461 116.478 80.6568 116.803 80.9616L118.4 82.4581C118.725 82.7629 119.235 82.7464 119.54 82.4212L125.21 76.3732C125.515 76.048 125.498 75.5373 125.173 75.2325L123.577 73.736C123.251 73.4311 122.741 73.4476 122.436 73.7728Z" fill="#1B2F68"/>
<path d="M118.361 83.677C119.321 81.9485 120.491 80.3453 121.845 78.9038C126.153 74.3091 132.109 71.6138 138.404 71.4108C144.699 71.2078 150.817 73.5137 155.412 77.8212C158.647 80.8622 160.965 84.7499 162.102 89.0425C163.238 93.335 163.147 97.8603 161.84 102.104C160.533 106.348 158.062 110.139 154.707 113.049C151.352 115.958 147.248 117.867 142.862 118.561C138.476 119.254 133.984 118.703 129.895 116.97C125.807 115.237 122.287 112.392 119.734 108.759C117.182 105.125 115.701 100.848 115.458 96.4144C115.215 91.9806 116.221 87.5677 118.361 83.677V83.677ZM155.218 103.994C157.179 100.426 157.897 96.3076 157.259 92.2872C156.621 88.2667 154.663 84.5728 151.695 81.7874V81.7874C148.913 79.1925 145.39 77.5308 141.618 77.0341C137.847 76.5374 134.014 77.2306 130.655 79.0168C127.296 80.8031 124.579 83.5933 122.882 86.9982C121.185 90.4031 120.593 94.2528 121.19 98.0101C121.786 101.767 123.54 105.245 126.207 107.957C128.875 110.67 132.323 112.482 136.069 113.141C139.816 113.799 143.675 113.272 147.108 111.632C150.541 109.993 153.376 107.322 155.218 103.994V103.994Z" fill="#182A51"/>
<path d="M160.155 0L135.974 43.6971L104.93 26.5168L119.985 0H160.155Z" fill="#1B2F68"/>
<path d="M108.632 37.7509L108.609 37.7377C106.726 36.6503 104.318 37.295 103.231 39.1777L91.1598 60.0772C90.0724 61.9599 90.7171 64.3676 92.5998 65.4551L92.6225 65.4682C94.5052 66.5556 96.913 65.9109 98.0004 64.0282L110.072 43.1287C111.159 41.246 110.514 38.8383 108.632 37.7509Z" fill="#EEC099"/>
<path d="M96.9388 69.7909H96.9158C96.012 69.2688 95.3525 68.409 95.0824 67.4007C94.8123 66.3924 94.9538 65.3181 95.4757 64.4141L107.542 43.5104C107.8 43.0624 108.144 42.6698 108.555 42.3549C108.965 42.04 109.434 41.8091 109.933 41.6754C110.433 41.5416 110.954 41.5077 111.467 41.5754C111.979 41.6432 112.474 41.8113 112.922 42.0702H112.945C113.848 42.5924 114.508 43.4521 114.778 44.4604C115.048 45.4687 114.907 46.543 114.385 47.447L102.316 68.3508C101.793 69.2546 100.934 69.9141 99.9254 70.1842C98.9171 70.4542 97.8428 70.3128 96.9388 69.7909V69.7909Z" fill="#EEC099"/>
<path d="M101.571 74.4228L101.548 74.4064C100.644 73.8848 99.9836 73.0253 99.7129 72.0169C99.4422 71.0086 99.5831 69.934 100.105 69.0295L112.174 48.1291C112.696 47.2247 113.555 46.5645 114.563 46.2938C115.572 46.0231 116.646 46.1641 117.551 46.6856L117.574 46.702C118.478 47.2237 119.138 48.0832 119.409 49.0915C119.68 50.0999 119.539 51.1745 119.017 52.0789L106.948 72.9793C106.426 73.8838 105.567 74.5439 104.558 74.8146C103.55 75.0853 102.476 74.9444 101.571 74.4228V74.4228Z" fill="#EEC099"/>
<path d="M106.108 77.5982H106.085C105.637 77.3397 105.245 76.9954 104.93 76.585C104.615 76.1746 104.384 75.7062 104.25 75.2066C104.116 74.7069 104.082 74.1858 104.15 73.673C104.218 73.1603 104.386 72.6659 104.645 72.2181L116.711 51.3176C116.968 50.869 117.312 50.4755 117.721 50.1596C118.131 49.8437 118.599 49.6117 119.098 49.4767C119.598 49.3417 120.119 49.3065 120.632 49.373C121.145 49.4395 121.639 49.6065 122.088 49.8643H122.114C123.018 50.3865 123.677 51.2463 123.947 52.2546C124.217 53.2629 124.076 54.3371 123.554 55.2412L111.485 76.1449C111.228 76.5936 110.884 76.9871 110.475 77.3029C110.065 77.6188 109.597 77.8509 109.098 77.9858C108.598 78.1208 108.077 78.156 107.564 78.0895C107.051 78.023 106.557 77.8561 106.108 77.5982V77.5982Z" fill="#EEC099"/>
<path d="M94.0455 55.0839L105.409 35.125L127.097 47.1253C127.097 47.1253 129.298 51.6787 127.885 59.4668C126.471 67.2548 94.0455 55.0839 94.0455 55.0839Z" fill="#EEC099"/>
<path d="M108.733 19.6438L139.777 36.8241" stroke="#4570B3" stroke-miterlimit="10"/>
<path d="M114.943 23.2395L114.657 23.0787L127.763 0H128.14L114.943 23.2395Z" fill="#4570B3"/>
<path d="M144.416 115.205C155.467 112.327 162.092 101.035 159.214 89.9836C156.335 78.9326 145.043 72.3075 133.992 75.1861C122.941 78.0646 116.316 89.3568 119.194 100.408C122.073 111.459 133.365 118.084 144.416 115.205Z" stroke="#293E75" stroke-width="3" stroke-miterlimit="10"/>
<path d="M144.358 97.9411C142.335 92.6865 134.68 93.2789 133.506 98.7846C133.498 98.8389 133.488 98.8926 133.474 98.9456C132.197 105.282 132.995 108.824 139.028 108.824C145.06 108.824 146.452 105.604 145.412 101.38C145.131 100.213 144.78 99.0642 144.358 97.9411V97.9411Z" fill="#DF695C"/>
<path d="M137.599 109.404H140.501V106.502H137.599V109.404Z" fill="#E1AB80"/>
<path d="M143.985 154.688L142.785 183.135H141.401L139.34 154.688" fill="#EEC099"/>
<path d="M136.438 154.688L134.393 183.135H132.841L131.213 154.688" fill="#EEC099"/>
<path d="M131.213 114.901C131.508 113.358 132.339 111.966 133.561 110.964C134.783 109.961 136.319 109.412 137.906 109.411H139.515C139.515 109.411 146.355 108.874 144.958 117.542L142.746 130.304H133.815L131.213 114.901" fill="#94DCEB"/>
<path d="M143.692 101.857C143.692 101.857 144.565 101.973 144.565 102.5C144.565 103.028 144.242 104.05 143.404 104.179" fill="#E1AB80"/>
<path d="M133.968 101.857C133.968 101.857 133.535 101.973 133.535 102.5C133.535 103.028 133.695 104.05 134.115 104.179" fill="#E1AB80"/>
<path d="M134.115 102.903C134.115 105.532 136.195 107.663 138.76 107.663C141.325 107.663 143.404 105.532 143.404 102.903V100.23C143.404 97.6017 141.325 95.471 138.76 95.471C136.195 95.471 134.115 97.6017 134.115 100.23V102.903Z" fill="#EEC099"/>
<path d="M139.921 104.522C139.561 104.297 139.163 104.179 138.76 104.179C138.356 104.179 137.959 104.297 137.599 104.522C138.556 105.955 139.549 105.209 139.921 104.522Z" fill="#DF695C"/>
<path d="M140.502 104.76C139.546 104.76 138.554 104.76 137.599 104.76" stroke="#5E4F44" stroke-width="0.25" stroke-miterlimit="10" stroke-linecap="round"/>
<path d="M142.243 101.698C142.243 101.698 141.109 100.366 139.921 102.438" stroke="#5E4F44" stroke-width="0.25" stroke-miterlimit="10" stroke-linecap="round"/>
<path d="M135.857 101.698C135.857 101.698 136.988 100.366 138.179 102.438" stroke="#5E4F44" stroke-width="0.25" stroke-miterlimit="10" stroke-linecap="round"/>
<path d="M139.34 103.599C139.163 103.979 138.963 104.179 138.76 104.179C138.557 104.179 138.357 103.979 138.179 103.599" stroke="#5E4F44" stroke-width="0.25" stroke-miterlimit="10" stroke-linecap="round"/>
<path d="M142.243 100.872C141.859 100.706 141.436 100.656 141.025 100.728C140.615 100.799 140.232 100.99 139.921 101.277" stroke="#DF695C" stroke-width="0.5" stroke-miterlimit="10" stroke-linecap="round"/>
<path d="M135.857 100.872C136.146 100.706 136.462 100.656 136.77 100.728C137.078 100.799 137.365 100.99 137.599 101.277" stroke="#DF695C" stroke-width="0.5" stroke-miterlimit="10" stroke-linecap="round"/>
<path d="M132.906 180.812C132.117 180.867 131.348 181.103 130.654 181.504C129.96 181.905 129.358 182.462 128.89 183.134H134.696L134.542 180.812H132.906Z" fill="#293E75"/>
<path d="M141.426 180.812C140.56 180.867 139.716 181.103 138.954 181.504C138.193 181.905 137.532 182.462 137.018 183.134H143.404L143.236 180.812H141.426Z" fill="#293E75"/>
<path d="M135.276 110.031L128.242 89.0847H126.568L131.458 115.21" fill="#94DCEB"/>
<path d="M140.502 109.081L138.133 115.21L137.599 109.081C138.538 108.738 139.563 108.738 140.502 109.081Z" fill="#E1AB80"/>
<path d="M137.895 129.143L138.15 115.641L140.502 109.527L140.229 109.404L137.853 115.602L137.599 129.137L137.895 129.143Z" fill="#D4E9F9"/>
<path d="M137.816 115.79L138.179 115.757L137.374 109.404L137.018 109.512L137.816 115.79Z" fill="#D4E9F9"/>
<path d="M138.76 122.467C138.76 122.524 138.743 122.58 138.711 122.628C138.679 122.676 138.634 122.713 138.581 122.735C138.528 122.757 138.469 122.763 138.413 122.751C138.357 122.74 138.305 122.713 138.264 122.672C138.224 122.631 138.196 122.58 138.185 122.523C138.174 122.467 138.179 122.409 138.201 122.356C138.223 122.303 138.26 122.257 138.308 122.225C138.356 122.194 138.412 122.177 138.469 122.177C138.546 122.177 138.62 122.207 138.675 122.262C138.729 122.316 138.76 122.39 138.76 122.467Z" fill="#D4E9F9"/>
<path d="M138.76 119.564C138.76 119.622 138.743 119.678 138.711 119.725C138.679 119.773 138.634 119.81 138.581 119.832C138.528 119.854 138.469 119.86 138.413 119.849C138.357 119.838 138.305 119.81 138.264 119.769C138.224 119.729 138.196 119.677 138.185 119.621C138.174 119.565 138.179 119.506 138.201 119.453C138.223 119.4 138.26 119.355 138.308 119.323C138.356 119.291 138.412 119.274 138.469 119.274C138.546 119.274 138.62 119.304 138.675 119.359C138.729 119.413 138.76 119.487 138.76 119.564Z" fill="#D4E9F9"/>
<path d="M138.76 116.661C138.76 116.719 138.743 116.775 138.711 116.822C138.679 116.87 138.634 116.907 138.581 116.929C138.528 116.951 138.469 116.957 138.413 116.946C138.357 116.935 138.305 116.907 138.264 116.866C138.224 116.826 138.196 116.774 138.185 116.718C138.174 116.661 138.179 116.603 138.201 116.55C138.223 116.497 138.26 116.452 138.308 116.42C138.356 116.388 138.412 116.371 138.469 116.371C138.546 116.371 138.62 116.401 138.675 116.456C138.729 116.51 138.76 116.584 138.76 116.661Z" fill="#D4E9F9"/>
<path d="M138.76 125.37C138.76 125.427 138.743 125.483 138.711 125.531C138.679 125.579 138.634 125.616 138.581 125.638C138.528 125.66 138.469 125.666 138.413 125.654C138.357 125.643 138.305 125.615 138.264 125.575C138.224 125.534 138.196 125.483 138.185 125.426C138.174 125.37 138.179 125.312 138.201 125.259C138.223 125.206 138.26 125.16 138.308 125.128C138.356 125.096 138.412 125.079 138.469 125.079C138.546 125.079 138.62 125.11 138.675 125.164C138.729 125.219 138.76 125.293 138.76 125.37Z" fill="#D4E9F9"/>
<path d="M137.867 115.79L142.243 109.524L141.904 109.404L137.599 115.558L137.867 115.79Z" fill="#D4E9F9"/>
<path d="M135.501 109.806L135.203 109.941L137.757 115.582L138.055 115.447L135.501 109.806Z" fill="#D4E9F9"/>
<path d="M133.535 127.982H142.824L142.662 129.143H133.671L133.535 127.982Z" fill="#5E4F44"/>
<path d="M133.568 129.143H142.914V129.182C142.914 129.182 147.196 135.362 145.193 154.687H130.648C130.648 154.687 130.237 136.782 133.568 129.143Z" fill="#293E75"/>
<path d="M127.972 89.0589C127.972 89.0589 128.65 86.6711 128.086 84.8527C127.642 83.3644 127.452 85.7328 127.864 86.5999C127.604 85.5019 127.278 84.4213 126.888 83.3644C126.66 83.0861 126.463 83.5714 127.091 85.2345C126.413 83.6491 126.165 83.1896 125.912 83.2932C125.658 83.3967 126.489 85.2863 126.489 85.2863C126.489 85.2863 125.798 83.6491 125.494 83.8044C125.189 83.9597 126.127 86.3928 126.127 86.3928C126.127 86.3928 125.627 84.7492 125.43 84.8527C125.234 84.9563 126.349 89.0848 126.349 89.0848L127.972 89.0589Z" fill="#EEC099"/>
<path d="M142.243 109.808L151.595 90.2461L153.274 90.4094L144.974 118.113" fill="#94DCEB"/>
<path d="M151.099 90.071C151.099 90.071 150.606 87.6152 151.422 85.8591C152.069 84.4271 152.013 86.7987 151.478 87.6281C151.879 86.5619 152.348 85.519 152.885 84.5048C153.166 84.2456 153.335 84.7511 152.47 86.3451C153.384 84.8288 153.701 84.4012 153.975 84.5243C154.249 84.6474 153.131 86.4682 153.131 86.4682C153.131 86.4682 154.059 84.9066 154.383 85.088C154.706 85.2694 153.412 87.5828 153.412 87.5828C153.412 87.5828 154.116 85.9952 154.341 86.1118C154.566 86.2285 152.878 90.246 152.878 90.246L151.099 90.071Z" fill="#EEC099"/>
<path d="M134.173 100.674C134.173 100.674 137.662 101.262 141.663 96.3586C137.779 93.5004 133.575 94.7513 134.173 100.674Z" fill="#DF695C"/>
<path d="M262.465 102.739L265.229 105.201L267.911 102.739V100.469H262.465V102.739Z" fill="#F0A1A1"/>
<path d="M256.857 136.475H274.587L272.578 176.359C271.716 176.829 270.765 177.116 269.786 177.201C268.905 177.249 268.037 176.977 267.342 176.435L265.6 142.147L262.268 157.944L263.678 175.993C263.678 175.993 263.423 176.986 261.606 176.986C260.687 176.977 259.773 176.856 258.883 176.626L254.651 157.944L256.857 136.475Z" fill="#F3A64E"/>
<path d="M255.475 138.838L256.456 108.243C256.456 107.245 257.339 106.612 258.268 106.235C259.789 105.619 262.43 104.493 262.43 104.493L262.477 102.118L265.136 104.075L267.905 102.478V104.713C269.832 105.184 272.19 105.811 272.921 106.229C273.786 106.728 274.825 107.39 274.825 107.866L275.609 138.827C275.609 138.827 268.306 140.499 265.594 140.499C262.883 140.499 255.475 138.838 255.475 138.838Z" fill="white"/>
<path d="M260.056 98.1299C260.056 99.1169 262.587 102.136 265.188 102.136C267.684 102.136 270.314 99.3143 270.314 98.1299V94.3099C270.314 92.9503 269.774 91.6464 268.813 90.6851C267.851 89.7237 266.548 89.1836 265.188 89.1836C264.514 89.1828 263.847 89.3149 263.224 89.5721C262.602 89.8294 262.036 90.2069 261.559 90.683C261.083 91.1591 260.705 91.7245 260.447 92.3468C260.189 92.9691 260.056 93.6362 260.056 94.3099V98.1299Z" fill="#F0A1A1"/>
<path d="M259.139 96.4809C259.33 97.0615 259.824 97.3866 260.242 97.2473C260.463 97.1296 260.63 96.9309 260.708 96.6928C260.786 96.4547 260.769 96.1957 260.66 95.97C260.468 95.3895 259.975 95.0586 259.557 95.2037C259.336 95.3224 259.17 95.5211 259.093 95.7588C259.015 95.9965 259.031 96.255 259.139 96.4809V96.4809Z" fill="#F0A1A1"/>
<path d="M271.226 96.4809C271.034 97.0615 270.541 97.3866 270.123 97.2473C269.902 97.1286 269.737 96.9295 269.66 96.6915C269.583 96.4535 269.601 96.195 269.71 95.97C269.896 95.3895 270.39 95.0586 270.813 95.2037C271.034 95.3223 271.199 95.5215 271.276 95.7595C271.353 95.9975 271.335 96.256 271.226 96.4809V96.4809Z" fill="#F0A1A1"/>
<path d="M270.314 96.2255C270.314 96.2255 269.734 94.2458 268.573 93.3518L267.829 92.2545C267.829 92.2545 267.034 92.0455 265.211 92.777C263.388 93.5085 262.889 94.6232 261.147 94.2226C260.782 94.9064 260.464 95.6144 260.195 96.3416C259.956 95.5088 259.781 94.6586 259.673 93.7988C259.539 92.568 259.348 89.3808 263.197 88.3764C267.208 87.3256 268.921 89.8859 268.921 89.8859C268.921 89.8859 269.287 89.4737 270.297 91.047C271.028 92.2081 271.069 94.0891 270.297 96.3416" fill="#122259"/>
<path d="M260.369 99.3026C261.089 100.377 263.528 101.869 263.528 101.869C264.011 102.274 264.621 102.496 265.252 102.496C265.883 102.496 266.493 102.274 266.976 101.869C266.976 101.869 269.368 100.243 270.088 99.169C270.808 98.095 270.471 96.5507 270.471 96.5507C270.336 95.8076 270.054 95.0989 269.641 94.4666C269.641 94.4666 269.978 97.0732 269.101 98.1995C269.043 98.275 268.973 98.3563 268.898 98.4375C268.813 98.3278 268.722 98.2231 268.625 98.124C268.044 97.5435 266.674 97.2126 265.072 97.2126C263.981 97.2136 262.918 97.559 262.036 98.1995L261.972 98.2518L261.751 98.5885C261.626 98.4651 261.508 98.3353 261.397 98.1995C260.52 97.0732 260.851 94.751 260.851 94.751C260.427 95.2701 260.145 95.8902 260.033 96.5507C260.033 96.5507 259.696 98.2924 260.369 99.3026ZM262.552 99.2677L262.744 98.9658C263.433 98.5081 264.239 98.2601 265.066 98.2518C266.674 98.2518 267.65 98.6233 267.882 98.8613C267.967 98.947 268.046 99.0382 268.12 99.1342C267.098 99.9412 265.734 100.731 265.217 100.731C264.7 100.731 263.545 100.022 262.552 99.2677Z" fill="#122259"/>
<path d="M267.342 176.435C267.437 177.295 267.478 178.159 267.464 179.024C267.464 179.82 269.02 180.133 269.954 180.133C271.197 180.133 271.696 183.825 275.504 183.825C277.647 183.825 278.065 182.328 277.037 181.364C275.419 179.818 273.928 178.144 272.578 176.359L273.38 169.973H266.512L267.342 176.435Z" fill="#122259"/>
<path d="M263.679 175.994V179.152C263.679 179.947 262.645 180.133 261.711 180.133C260.468 180.133 259.969 183.825 256.16 183.825C254.018 183.825 253.6 182.327 254.634 181.364C256.648 179.483 257.594 177.944 258.883 176.626L257.507 171.523L263.342 169.933L263.679 175.994Z" fill="#122259"/>
<path d="M265.589 140.511C265.757 137.474 265.832 134.438 265.896 131.402C265.96 128.365 265.96 125.329 265.954 122.293C265.949 119.256 265.914 116.22 265.844 113.19C265.774 110.159 265.699 107.117 265.577 104.081V103.837L265.409 103.732C264.938 103.448 264.462 103.152 263.975 102.896C263.487 102.641 262.999 102.368 262.488 102.13C262.866 102.548 263.261 102.943 263.65 103.326C264.038 103.709 264.456 104.081 264.874 104.447L264.695 104.092C264.648 107.127 264.633 110.163 264.648 113.201C264.648 116.238 264.706 119.274 264.77 122.31C264.834 125.346 264.933 128.377 265.06 131.413C265.188 134.45 265.351 137.48 265.589 140.511Z" fill="#F3A64E"/>
<path d="M257.327 106.751L260.352 112.15L247.423 121.103C246.882 121.541 246.202 121.771 245.506 121.749C244.81 121.728 244.145 121.457 243.632 120.986C243.417 120.752 243.251 120.477 243.143 120.177C243.035 119.878 242.988 119.561 243.003 119.243C243.018 118.925 243.096 118.614 243.231 118.326C243.367 118.038 243.559 117.78 243.795 117.567L257.327 106.751Z" fill="white"/>
<path d="M274.709 107.593L275.057 117.573L281.171 124.887C281.751 126.089 283.417 126.171 284.619 125.584C284.897 125.462 285.147 125.283 285.353 125.06C285.559 124.836 285.716 124.572 285.815 124.285C285.913 123.997 285.951 123.692 285.927 123.389C285.902 123.087 285.814 122.792 285.67 122.525L274.709 107.593Z" fill="white"/>
<path d="M246.686 117.323C246.13 116.997 245.468 116.904 244.845 117.065C244.221 117.226 243.687 117.628 243.359 118.182V118.182C243.063 118.766 242.964 119.43 243.074 120.075C243.185 120.72 243.501 121.312 243.974 121.764L256.572 128.226C256.81 128.388 258.662 125.567 258.395 125.195L246.686 117.323Z" fill="white"/>
<path d="M281.902 126.147C282.389 126.566 283.022 126.774 283.662 126.726C284.302 126.679 284.897 126.378 285.316 125.892V125.892C285.711 125.37 285.928 124.735 285.934 124.081C285.94 123.426 285.736 122.787 285.351 122.258L274.256 112.969C274.047 112.766 271.568 115.872 271.771 116.313L281.902 126.147Z" fill="white"/>
<path d="M256.538 129.724C256.376 129.905 256.293 130.144 256.308 130.387C256.322 130.629 256.432 130.857 256.613 131.018C256.796 131.18 257.035 131.263 257.279 131.249C257.523 131.235 257.751 131.125 257.914 130.943L281.281 103.912C281.443 103.729 281.526 103.49 281.512 103.246C281.498 103.003 281.388 102.774 281.206 102.612V102.612C281.024 102.45 280.785 102.367 280.543 102.381C280.3 102.396 280.073 102.506 279.911 102.687L256.538 129.724Z" fill="#E66064"/>
<path d="M276.253 103.535L281.397 105.37L289.38 108.243C289.38 108.243 288.666 112.307 286.773 114.438C284.88 116.569 280.921 117.741 280.921 117.741L277.165 110.142L274.75 105.248L276.253 103.535Z" fill="#BCBCBC"/>
<path d="M284.927 112.766C286.256 111.268 287.005 108.812 287.33 107.483L289.38 108.243C289.38 108.243 288.666 112.307 286.773 114.438C284.88 116.568 280.921 117.741 280.921 117.741L279.934 115.79C281.24 115.274 283.621 114.235 284.927 112.766Z" fill="#122259"/>
<path d="M272.178 115.384C272.178 115.384 269.856 114.995 269.641 114.141C269.426 113.288 270.895 110.223 272.637 111.094L272.178 111.622C272.178 111.622 272.404 113.126 273.606 112.783C273.606 112.783 273.844 112.737 274.036 113.085C273.376 113.818 272.756 114.585 272.178 115.384V115.384Z" fill="#F0A1A1"/>
<path d="M257.031 127.837C257.031 127.837 259.655 130.623 261.809 129.741C262.448 129.48 263.011 128.679 261.298 127.012C261.298 127.012 259.742 126.931 259.626 126.142C259.549 126.033 259.451 125.942 259.338 125.873C259.225 125.804 259.099 125.758 258.967 125.739C258.836 125.72 258.702 125.728 258.574 125.762C258.446 125.797 258.326 125.856 258.221 125.938C258.221 125.938 257.664 126.937 257.031 127.837Z" fill="#F0A1A1"/>
<path d="M272.236 92.4116C269.861 92.6786 267.504 92.9515 265.153 93.0444C263.992 93.0947 262.817 93.0947 261.629 93.0444C260.449 92.9773 259.275 92.824 258.117 92.5857C258.096 92.5797 258.074 92.5781 258.052 92.5811C258.03 92.5841 258.01 92.5915 257.991 92.603C257.973 92.6145 257.957 92.6297 257.944 92.6477C257.932 92.6658 257.923 92.6862 257.919 92.7076C257.911 92.7426 257.914 92.7792 257.928 92.8125C257.941 92.8457 257.965 92.874 257.995 92.8934C259.085 93.4679 260.262 93.8601 261.478 94.0545C262.695 94.2708 263.93 94.366 265.165 94.339C266.394 94.3132 267.618 94.191 268.828 93.9732C270.043 93.7767 271.235 93.4598 272.387 93.0269C272.459 92.9991 272.519 92.9458 272.556 92.8768C272.592 92.8079 272.601 92.7282 272.583 92.6527C272.564 92.5771 272.519 92.5109 272.455 92.4665C272.391 92.4221 272.313 92.4026 272.236 92.4116Z" fill="white"/>
<path d="M271.429 93.0323C271.429 93.0323 270.645 86.6462 265.258 86.6462C259.086 86.652 259.086 93.1484 259.086 93.1484C259.086 93.1484 263.678 94.9656 271.429 93.0323Z" fill="white"/>
<path d="M266.494 86.2456H264.021V86.9771H266.494V86.2456Z" fill="white"/>
<path d="M263.359 89.8801L265.258 89.0847L267.162 89.8801C267.162 89.8801 267.261 92.5913 265.258 93.3634C263.255 92.568 263.359 89.8801 263.359 89.8801Z" fill="#FCD76F"/>
<path d="M209.003 116.29C209.003 116.29 211.534 119.082 209.398 121.294L206.536 119.082L209.003 116.29Z" fill="#F0A1A1"/>
<path d="M193.061 100.533C193.061 100.533 200.69 99.7611 202.623 103.093C202.623 103.093 203.685 104.974 202.623 111.07C201.56 117.166 200.707 128.69 200.707 128.69C200.707 128.69 201.055 135.036 198.78 135.448C198.78 135.448 187.035 113.764 193.061 100.533Z" fill="#122259"/>
<path d="M194.489 101.543C194.489 101.543 196.306 100.963 197.02 97.6363C197.142 97.0558 197.496 95.5812 197.601 94.7336C197.938 91.6276 196.126 89.2764 192.121 89.2764C190.379 89.2764 187.877 90.2981 186.315 93.2764C184.411 96.8816 185.885 97.8105 184.266 99.4767C182.646 101.143 182.524 102.339 183.737 103.959C184.951 105.578 185.74 106.821 185.171 108.11C184.602 109.398 184.405 112.922 187.766 111.541C191.128 110.159 194.489 103.169 194.489 103.169V101.543Z" fill="#804E4F"/>
<path d="M194.478 101.003H190.553V105.178H194.478V101.003Z" fill="#F0A1A1"/>
<path d="M196.66 97.7235C196.324 99.1865 194.28 101.95 192.434 101.95C190.849 101.95 188.306 99.6278 188.196 98.1357C188.196 98.1357 187.801 95.4245 187.743 94.5131C187.575 91.8193 190.094 89.6306 192.434 89.6306C194.756 89.6306 197.386 91.8251 197.195 94.5131C197.089 95.5941 196.911 96.6667 196.66 97.7235V97.7235Z" fill="#F0A1A1"/>
<path d="M197.038 95.7903C197.038 95.7903 196.15 95.6916 196.103 96.8353C196.103 96.8353 196.103 94.5131 195.267 93.1778C194.873 93.6994 194.37 94.1294 193.794 94.4381C193.218 94.7468 192.582 94.9268 191.929 94.9659C189.787 95.0356 188.626 95.7032 188.062 97.2068C188.062 97.2068 186.971 94.7511 187.732 92.5334C188.492 90.3157 191.215 89.3984 192.742 89.4564C194.269 89.5145 198.623 91.5987 197.038 95.7903Z" fill="#804E4F"/>
<path d="M180.521 120.435C180.404 120.981 180.488 121.552 180.758 122.041C181.028 122.531 181.465 122.907 181.99 123.1C182.959 123.599 184.614 122.38 184.986 121.358C185.566 119.785 186.605 116.295 186.605 116.295C186.605 115.239 186.605 104.551 186.373 104.882C183.795 108.644 180.521 120.435 180.521 120.435Z" fill="#F0A1A1"/>
<path d="M199.743 105.636C198.03 104.937 196.27 104.355 194.478 103.895C193.962 104.448 193.266 104.798 192.515 104.882C192.13 104.87 191.752 104.776 191.407 104.606C191.061 104.435 190.756 104.193 190.512 103.895C190.512 103.895 187.824 104.144 186.379 104.882L187.041 130.513H197.972L199.07 115.361L199.743 105.636Z" fill="#97BBE1"/>
<path d="M201.589 179.651C200.276 178.569 199.072 177.359 197.996 176.04C197.996 176.04 199.093 153.399 199.563 150.461C200.51 144.47 200.724 136.057 197.973 129.503H186.942C185.258 131.86 183.093 139.111 183 142.275C182.919 144.812 183.412 150.682 183.029 151.645C181.531 155.384 181.212 176.22 181.212 176.22C181.212 176.22 178.077 179.837 177.543 180.957C177.009 182.078 177.195 183.46 177.955 183.767C178.861 184.139 180.718 183.007 181.212 182.2C182.12 180.559 182.896 178.849 183.534 177.085C183.585 176.799 183.585 176.506 183.534 176.22L192.945 141.277L194.443 176.11C194.443 176.11 194.983 177.155 195.163 177.439C196.205 178.993 197.37 180.46 198.646 181.828C199.325 182.49 201.404 183.129 202.187 182.548C202.872 182.043 202.797 180.667 201.589 179.651Z" fill="#F0A1A1"/>
<path d="M200.26 178.444C200.26 178.444 198.803 177.283 198.332 179.024C198.106 179.895 194.454 175.541 194.454 175.541V176.075C194.454 176.075 194.994 177.12 195.174 177.405C196.217 178.958 197.381 180.426 198.657 181.794C199.337 182.455 201.415 183.094 202.199 182.513C202.861 182.02 202.779 180.673 201.578 179.611C200.376 178.548 200.26 178.444 200.26 178.444Z" fill="#E66064"/>
<path d="M183 177.19C183 177.19 182.245 179.384 180.846 178.351C180.745 178.258 180.627 178.186 180.498 178.139C180.37 178.093 180.233 178.072 180.096 178.079C179.959 178.086 179.825 178.121 179.701 178.18C179.578 178.24 179.468 178.324 179.377 178.426C178.677 179.19 178.069 180.034 177.566 180.94C177.038 182.066 177.218 183.442 177.978 183.75C178.884 184.122 180.742 182.99 181.235 182.183C182.143 180.542 182.919 178.831 183.557 177.068C183.608 176.782 183.608 176.489 183.557 176.203L183 177.19Z" fill="#E66064"/>
<path d="M192.074 145.55L193.003 141.259L192.73 145.55H200.707C201.032 140.325 200.48 134.049 198.007 129.491H186.977C185.293 131.849 182.75 139.1 182.652 142.264C182.652 143.1 182.652 144.296 182.71 145.555L192.074 145.55Z" fill="#E66064"/>
<path d="M199.714 105.602C199.714 105.602 205.973 112.655 209.003 116.29L206.536 119.082L199.279 112.795L199.714 105.602Z" fill="#F0A1A1"/>
<path d="M200.097 127.802C198.097 127.957 196.13 128.409 194.263 129.143C194.212 129.162 194.165 129.191 194.126 129.229C194.087 129.266 194.055 129.311 194.034 129.361C194.012 129.411 194.001 129.464 194 129.519C194 129.573 194.01 129.627 194.03 129.677C194.061 129.754 194.113 129.82 194.182 129.867C194.25 129.913 194.331 129.938 194.414 129.938C194.463 129.949 194.515 129.949 194.565 129.938C195.229 129.685 195.91 129.477 196.602 129.317C196.096 129.534 195.609 129.792 195.145 130.089C195.099 130.119 195.059 130.158 195.028 130.204C194.997 130.249 194.975 130.301 194.964 130.355C194.953 130.409 194.953 130.465 194.965 130.519C194.976 130.573 194.998 130.624 195.029 130.67C195.066 130.727 195.117 130.774 195.177 130.806C195.236 130.839 195.303 130.856 195.372 130.855C195.454 130.856 195.535 130.831 195.604 130.786C196.119 130.45 196.665 130.164 197.235 129.932C196.829 130.238 196.476 130.609 196.19 131.03C196.158 131.074 196.136 131.125 196.124 131.179C196.112 131.232 196.11 131.288 196.12 131.342C196.13 131.396 196.15 131.448 196.18 131.494C196.21 131.54 196.249 131.579 196.295 131.61C196.362 131.66 196.443 131.687 196.527 131.686C196.594 131.687 196.66 131.671 196.72 131.641C196.779 131.611 196.831 131.566 196.869 131.512C197.107 131.158 197.403 130.847 197.746 130.594C197.56 130.837 197.399 131.098 197.264 131.372C197.237 131.423 197.221 131.479 197.216 131.537C197.212 131.595 197.219 131.652 197.238 131.707C197.257 131.762 197.288 131.812 197.327 131.854C197.367 131.896 197.414 131.93 197.467 131.953C197.522 131.978 197.581 131.992 197.641 131.993C197.72 131.992 197.797 131.968 197.862 131.925C197.928 131.882 197.98 131.821 198.013 131.75C198.113 131.546 198.232 131.351 198.367 131.169C198.789 130.676 199.311 130.28 199.9 130.008C200.242 129.86 200.525 129.6 200.701 129.271C200.91 128.667 200.324 127.784 200.097 127.802Z" fill="#F0A1A1"/>
<path d="M199.557 127.848C199.06 127.703 198.543 127.633 198.025 127.639V128.069C198.025 128.069 199.029 127.964 199.302 127.895L199.557 127.848Z" fill="#F0A1A1"/>
<path d="M206.524 119.082L199.656 127.848C199.559 128.01 199.503 128.192 199.492 128.38C199.481 128.568 199.516 128.755 199.593 128.927C199.671 129.098 199.789 129.248 199.938 129.363C200.086 129.479 200.261 129.557 200.446 129.59L209.386 121.311L206.524 119.082Z" fill="#F0A1A1"/>
<path d="M175.534 105.317L177.821 112.928L181.775 112.371L180.277 104.905L175.534 105.317Z" fill="#122259"/>
<path d="M184.184 119.976C184.184 119.976 177.311 112.922 177.311 112.104C177.311 110.705 178.239 108.76 178.239 107.947C178.239 106.548 177.775 106.165 176.835 106.165C175.894 106.165 175 106.467 175 109.248C175.139 110.819 175.472 112.368 175.993 113.857C176.962 116.133 181.026 122.42 181.026 122.42C181.183 122.635 181.382 122.814 181.612 122.948C181.842 123.081 182.096 123.166 182.36 123.197C182.624 123.227 182.891 123.203 183.145 123.125C183.399 123.048 183.634 122.918 183.836 122.745C184.248 122.423 184.516 121.951 184.581 121.433C184.646 120.914 184.504 120.39 184.184 119.976V119.976Z" fill="#F0A1A1"/>
<path d="M195.65 104.226C195.65 104.226 197.392 104.115 198.257 105.021C198.257 105.021 196.875 117.938 198.64 121.915C198.64 121.915 199.221 123.953 198.402 125.184C198.402 125.184 196.376 124.191 196.016 122.641C195.935 122.38 193.787 110.194 195.65 104.226Z" fill="#122259"/>
<path d="M189.938 103.953C189.938 103.953 187.929 103.372 187.163 104.533C187.163 104.533 188.817 117.967 186.82 122.025C186.82 122.025 186.332 124.104 186.896 124.975C186.896 124.975 189.63 122.519 189.938 120.911C189.938 120.911 191.331 111.599 189.938 103.953Z" fill="#122259"/>
<path d="M202.582 90.3623C202.762 91.088 198.042 92.8819 192.045 94.3623C186.048 95.8427 181.015 96.4523 180.858 95.7208C180.701 94.9893 185.392 93.2012 191.395 91.7208C197.398 90.2404 202.402 89.6308 202.582 90.3623Z" fill="white"/>
<path d="M198.35 91.407C196.748 87.883 195.569 86.6348 190.449 87.9236C185.328 89.2125 185.078 91.1922 185.084 94.7103L198.35 91.407Z" fill="white"/>
<path d="M185.084 93.6189C187.151 92.8003 193.032 90.6232 197.857 90.3852C197.686 90.0283 197.492 89.6831 197.276 89.3518C192.724 89.6943 187.558 91.5173 185.206 92.4346C185.125 92.8061 185.102 93.2009 185.084 93.6189Z" fill="#122259"/>
<path d="M219.164 175.657C219.164 175.657 219.814 176.273 219.814 178.293C219.814 179.222 218.612 179.454 217.492 179.454C216.046 179.454 216.441 183.152 212.023 183.152C209.527 183.152 209.614 181.039 210.816 179.919C213.138 177.73 214.665 177.927 216.186 175.68L219.164 175.657Z" fill="#122259"/>
<path d="M219.164 175.744C219.164 175.744 218.85 176.272 217.689 176.272C217.148 176.294 216.62 176.104 216.215 175.744V174.002H219.164V175.744Z" fill="#F0A1A1"/>
<path d="M230.125 175.965C230.67 176.213 231.269 176.319 231.867 176.272C232.488 176.275 233.095 176.089 233.608 175.738L233.434 173.997H230.131L230.125 175.965Z" fill="#F0A1A1"/>
<path d="M218.456 134.449C218.456 134.449 215.878 144.951 215.199 152.057C214.81 156.121 215.971 174.2 215.971 174.2H219.321C219.321 174.2 220.453 158.38 221.451 154.502C223.721 145.747 226.996 136.47 226.996 136.47L229.898 174.206H234.229C234.229 174.206 235.39 157.613 235.692 153.538C236.046 148.783 236.186 134.455 236.186 134.455L218.456 134.449Z" fill="white"/>
<path d="M235.501 113.421L239.396 112.597C239.048 108.104 237.846 105.439 234.56 103.43C233.341 102.687 229.411 102.321 229.411 102.321H225.475C223.959 102.321 222.465 102.679 221.115 103.366C218.729 104.713 217.051 107.535 216.081 112.44L219.565 113.317C219.565 113.317 218.2 129.131 217.823 134.159C217.817 135.04 218.158 135.889 218.773 136.52C219.388 137.152 220.228 137.515 221.109 137.532C224.401 137.532 224.157 136.371 225.655 135.465C226.464 134.848 227.442 134.494 228.459 134.449H233.394C234.688 134.449 235.716 134.722 236.192 134.449C236.47 134.281 236.923 130.89 236.906 130.635C236.61 125.172 236.534 121.584 235.495 113.416L235.501 113.421Z" fill="#E66064"/>
<path d="M229.417 102.322H227.414H225.486V97.3984H229.417V102.322Z" fill="#F0A1A1"/>
<path d="M232.197 94.8322C232.197 96.0917 231.697 97.2996 230.807 98.1902C229.916 99.0808 228.708 99.5811 227.449 99.5811V99.5811C226.194 99.575 224.992 99.0718 224.108 98.1817C223.223 97.2916 222.727 96.0872 222.729 94.8322V92.359C222.728 91.7357 222.85 91.1183 223.088 90.5421C223.326 89.966 223.675 89.4424 224.116 89.0014C224.556 88.5603 225.079 88.2104 225.655 87.9717C226.231 87.733 226.848 87.6101 227.472 87.6101V87.6101C228.731 87.6101 229.939 88.1104 230.83 89.001C231.72 89.8916 232.221 91.0995 232.221 92.359L232.197 94.8322Z" fill="#F0A1A1"/>
<path d="M222.508 102.786C222.519 103.165 222.658 103.529 222.903 103.819C223.745 105.044 225.51 107.941 227.472 107.941C229.434 107.941 231.205 105.038 232.047 103.819C232.395 103.308 232.447 102.966 232.349 102.739C230.92 102.461 229.446 102.321 229.446 102.321H225.382C224.407 102.339 223.439 102.495 222.508 102.786V102.786Z" fill="#F0A1A1"/>
<path d="M216.174 112.463L219.611 113.299L218.607 121.764C218.512 122.245 218.247 122.676 217.859 122.977C217.472 123.278 216.989 123.428 216.499 123.401C216.278 123.37 216.064 123.295 215.872 123.181C215.679 123.067 215.511 122.916 215.376 122.737C215.242 122.558 215.145 122.354 215.089 122.138C215.034 121.921 215.022 121.695 215.054 121.474L216.174 112.463Z" fill="#F0A1A1"/>
<path d="M215.901 120.226C215.514 120.454 215.23 120.824 215.109 121.256C214.988 121.689 215.039 122.152 215.251 122.548V122.548C215.36 122.744 215.507 122.916 215.684 123.054C215.86 123.193 216.061 123.296 216.277 123.356C216.493 123.416 216.718 123.434 216.941 123.407C217.163 123.379 217.378 123.309 217.573 123.198L225.585 117.66C225.75 117.565 225.87 117.409 225.92 117.226C225.969 117.042 225.944 116.846 225.849 116.682C225.754 116.517 225.598 116.397 225.415 116.347C225.231 116.298 225.036 116.323 224.871 116.418L215.901 120.226Z" fill="#F0A1A1"/>
<path d="M226.731 110.925L225.8 118.268L229.232 118.703L230.164 111.36L226.731 110.925Z" fill="#122259"/>
<path d="M225.585 117.66C226.572 117.646 227.531 117.326 228.33 116.745C229.128 116.164 229.727 115.35 230.044 114.414C230.305 113.637 229.37 113.3 228.157 114.658C227.338 115.576 225.986 116.272 226.136 115.494C226.2 115.181 226.427 114.362 226.067 114.223C225.486 114.008 224.871 116.417 224.871 116.417L225.585 117.66Z" fill="#F0A1A1"/>
<path d="M232.993 94.3445C232.819 94.867 232.36 95.1863 231.971 95.0586C231.773 94.9489 231.623 94.7684 231.552 94.5531C231.481 94.3378 231.494 94.1037 231.588 93.8975C231.762 93.375 232.221 93.0557 232.61 93.1834C232.808 93.2931 232.958 93.4736 233.029 93.6889C233.1 93.9041 233.087 94.1383 232.993 94.3445Z" fill="#F0A1A1"/>
<path d="M221.805 94.3445C221.98 94.867 222.438 95.1863 222.827 95.0586C223.026 94.9489 223.175 94.7684 223.246 94.5531C223.317 94.3378 223.305 94.1037 223.21 93.8975C223.036 93.375 222.578 93.0557 222.189 93.1834C221.99 93.2931 221.841 93.4736 221.77 93.6889C221.699 93.9041 221.711 94.1383 221.805 94.3445V94.3445Z" fill="#F0A1A1"/>
<path d="M235.501 113.416L239.274 112.626L240.087 124.382C240.202 124.859 240.14 125.361 239.913 125.796C239.685 126.231 239.308 126.568 238.851 126.745C238.635 126.808 238.41 126.828 238.186 126.804C237.963 126.78 237.747 126.712 237.55 126.604C237.353 126.496 237.18 126.351 237.039 126.176C236.899 126.001 236.794 125.8 236.732 125.584L235.501 113.416Z" fill="#F0A1A1"/>
<path d="M236.546 124.121C236.661 123.899 236.819 123.701 237.011 123.54C237.202 123.378 237.424 123.257 237.663 123.181C237.902 123.106 238.153 123.078 238.403 123.1C238.653 123.122 238.896 123.193 239.118 123.308V123.308C239.341 123.423 239.539 123.581 239.701 123.772C239.863 123.964 239.985 124.185 240.061 124.424C240.137 124.663 240.166 124.915 240.144 125.165C240.123 125.415 240.052 125.658 239.936 125.88L235.071 137.764C234.589 138.705 232.383 137.062 232.865 136.127L236.546 124.121Z" fill="#F0A1A1"/>
<path d="M233.521 175.588C233.718 175.977 233.695 176.911 233.933 177.44C234.554 178.821 235.46 179.506 236.255 180.876C236.708 181.678 236.534 183.599 234.357 183.814C233.633 183.934 232.891 183.762 232.293 183.337C231.695 182.912 231.289 182.267 231.164 181.544C230.945 179.844 230.597 178.164 230.125 176.516C229.794 175.355 231.205 174.972 231.988 174.99C232.598 175.007 233.283 175.1 233.521 175.588Z" fill="#122259"/>
<path d="M222.729 94.1067C222.183 97.3984 224.975 99.5813 227.472 99.5813C228.119 99.5937 228.762 99.4707 229.358 99.2202C229.955 98.9696 230.493 98.597 230.938 98.1264C231.382 97.6557 231.723 97.0973 231.939 96.4871C232.155 95.8768 232.241 95.2282 232.192 94.5827C232.192 94.5827 230.961 97.0849 227.025 96.4057C223.344 95.7787 222.729 94.1067 222.729 94.1067Z" fill="#122259"/>
<path d="M224.47 90.2866C224.47 90.2866 222.729 92.3591 222.729 94.1066C222.729 94.1066 222.148 91.2387 223.309 90.0427L224.47 90.2866Z" fill="#122259"/>
<path d="M228.697 89.4159C228.697 89.4159 232.029 91.4188 232.18 94.5828C232.15 94.1208 232.15 93.6573 232.18 93.1953C232.116 92.9805 232.552 88.2722 228.697 89.4159Z" fill="#122259"/>
<path d="M232.018 91.1573C231.751 90.6575 231.328 90.2593 230.813 90.0243C230.297 89.7892 229.719 89.7304 229.167 89.8569C227.153 90.2691 224.766 92.301 223.152 90.3039C221.469 88.2197 222.659 85.4388 223.896 85.3866C223.896 85.3866 223.106 87.6101 226.862 85.5956C228.819 84.5506 232.929 86.0252 232.018 91.1573Z" fill="#122259"/>
<path d="M232.157 93.195C232.157 93.195 233.898 89.8975 232.093 87.6101C232.074 87.8655 232.039 88.1195 231.988 88.3706C231.463 89.9468 231.523 91.6592 232.157 93.195V93.195Z" fill="#122259"/>
<path d="M231.727 95.07C231.684 95.4695 231.522 95.847 231.264 96.1549C231.006 96.4628 230.662 96.6872 230.276 96.7997C229.891 96.9123 229.48 96.9079 229.097 96.7871C228.714 96.6664 228.375 96.4347 228.123 96.1214C227.871 95.8081 227.718 95.4272 227.683 95.0269C227.648 94.6266 227.732 94.2249 227.925 93.8725C228.119 93.5201 228.412 93.2329 228.768 93.0472C229.125 92.8614 229.528 92.7856 229.928 92.8291C230.193 92.858 230.45 92.9389 230.684 93.0672C230.918 93.1955 231.125 93.3686 231.292 93.5767C231.459 93.7848 231.583 94.0238 231.658 94.2801C231.733 94.5363 231.756 94.8047 231.727 95.07V95.07Z" fill="white"/>
<path d="M226.792 94.5359C226.749 94.9353 226.588 95.3129 226.329 95.6207C226.071 95.9286 225.727 96.153 225.342 96.2655C224.956 96.3781 224.545 96.3737 224.162 96.253C223.779 96.1322 223.44 95.9006 223.188 95.5872C222.937 95.2739 222.784 94.893 222.748 94.4927C222.713 94.0924 222.798 93.6907 222.991 93.3383C223.184 92.9859 223.477 92.6987 223.833 92.513C224.19 92.3273 224.593 92.2514 224.993 92.2949C225.528 92.3548 226.018 92.6241 226.355 93.0441C226.692 93.464 226.849 94.0003 226.792 94.5359V94.5359Z" fill="white"/>
<path d="M226.398 94.5827C226.637 94.4544 226.909 94.4002 227.178 94.4271C227.448 94.454 227.704 94.5607 227.913 94.7337" stroke="#122259" stroke-width="0.53" stroke-linecap="round" stroke-linejoin="round"/>
<path d="M5.79982 112.975C5.79982 112.975 8.47617 115.935 6.21781 118.275L3.18152 115.953L5.79982 112.975Z" fill="#F0A1A1"/>
<path d="M17.2599 101.695H12.6271V106.008H17.2599V101.695Z" fill="#F0A1A1"/>
<path d="M22.9435 137.555L24.4936 107.814C24.4936 106.856 23.6459 106.246 22.7519 105.886C21.6721 105.445 21.8811 105.422 17.254 103.965C17.254 103.965 17.1205 105.875 14.8273 105.875C13.0508 105.875 12.6038 103.959 12.6038 103.959C12.6038 103.959 8.80117 104.981 7.55298 105.7C6.72279 106.176 5.63135 106.56 5.63135 107.007L7.18143 137.555H22.9435Z" fill="#BCBCBC"/>
<path d="M6.86218 136.162L7.77365 158.136L10.3571 175.663C10.8813 175.823 11.4298 175.888 11.9769 175.854C13.138 175.854 13.2773 175.738 13.2773 175.738L15.3905 145.195L16.9058 175.738C16.9058 175.738 17.0393 175.854 18.2062 175.854C18.7532 175.888 19.3018 175.823 19.826 175.663L22.4152 158.136L22.9958 136.162H6.86218Z" fill="#122259"/>
<path d="M20.07 99.0296C20.07 100.017 17.5388 103.035 14.9379 103.035C12.4416 103.035 9.81165 100.214 9.81165 99.0296V95.2327C9.81165 93.8732 10.3517 92.5693 11.3131 91.6079C12.2745 90.6465 13.5784 90.1064 14.9379 90.1064V90.1064C15.6116 90.1057 16.2788 90.2377 16.9015 90.495C17.5241 90.7523 18.0899 91.1298 18.5665 91.6059C19.0432 92.0819 19.4213 92.6473 19.6793 93.2697C19.9373 93.892 20.07 94.5591 20.07 95.2327V99.0296Z" fill="#F0A1A1"/>
<path d="M20.987 97.3811C20.7954 97.9616 20.3019 98.2867 19.8839 98.1474C19.6638 98.0288 19.4979 97.8297 19.4211 97.5917C19.3443 97.3536 19.3624 97.0951 19.4717 96.8702C19.6575 96.2896 20.151 95.9587 20.5748 96.1039C20.795 96.2225 20.9608 96.4216 21.0376 96.6596C21.1144 96.8976 21.0963 97.1561 20.987 97.3811V97.3811Z" fill="#F0A1A1"/>
<path d="M8.8768 97.3811C9.06838 97.9616 9.56186 98.2867 9.97985 98.1474C10.201 98.0298 10.3681 97.8311 10.446 97.593C10.524 97.3549 10.5067 97.0958 10.3979 96.8702C10.2063 96.2896 9.7128 95.9587 9.2948 96.1039C9.07361 96.2215 8.90654 96.4202 8.82861 96.6583C8.75068 96.8964 8.76795 97.1554 8.8768 97.3811V97.3811Z" fill="#F0A1A1"/>
<path d="M10.3572 175.663C10.1656 176.052 10.0147 176.964 9.77668 177.492C9.16129 178.862 8.26723 179.535 7.4951 180.9C7.04226 181.689 7.21643 183.599 9.37609 183.803C10.0931 183.92 10.8277 183.751 11.4202 183.33C12.0126 182.909 12.4151 182.272 12.5401 181.556C12.8536 179.506 12.7665 178.038 13.2658 176.099C13.4632 175.338 12.5227 175.025 11.7448 175.036C11.4782 175.003 11.2077 175.044 10.963 175.155C10.7183 175.266 10.5087 175.441 10.3572 175.663V175.663Z" fill="#97BBE1"/>
<path d="M19.7622 175.663C19.9596 176.052 20.1105 176.963 20.3427 177.492C20.9233 178.862 21.8464 179.535 22.6185 180.899C23.0713 181.689 22.8972 183.599 20.7375 183.802C20.0205 183.92 19.2859 183.75 18.6934 183.33C18.101 182.909 17.6985 182.271 17.5735 181.556C17.26 179.506 17.3471 178.037 16.8478 176.098C16.6562 175.338 17.5909 175.024 18.3689 175.036C18.6365 175 18.9089 175.039 19.1551 175.15C19.4014 175.261 19.6117 175.439 19.7622 175.663Z" fill="#97BBE1"/>
<path d="M3.80845 148.255C3.77157 148.203 3.73081 148.155 3.68654 148.11C3.10598 147.529 2.74023 147.047 2.74023 146.594C2.74023 146.24 2.74023 145.979 2.74023 145.584C2.74023 145.189 3.14662 144.266 3.41948 144.266C3.69234 144.266 4.15098 145.178 4.29612 145.358L4.39481 145.462C4.03487 145.544 3.40207 145.892 3.81426 147.256C3.89554 147.5 4.34256 147.895 3.80845 148.255Z" fill="#F0A1A1"/>
<path d="M1.91013 142.154C1.58352 143.469 1.42358 144.821 1.43408 146.177C1.43408 147.094 1.95658 148.499 3.28605 148.842C3.42538 148.876 3.79694 148.842 3.8666 148.72C3.93627 148.598 3.94788 148.406 3.66921 148.11C3.08866 147.529 2.72291 147.048 2.72291 146.595C2.72291 146.241 2.72291 145.979 2.72291 145.585C2.72291 145.19 3.1293 144.267 3.40216 144.267C3.67502 144.267 4.13366 145.178 4.2788 145.358C4.73743 145.939 5.48635 145.776 5.08577 145.138C4.50563 144.257 4.25481 143.201 4.37749 142.154H1.91013Z" fill="#F0A1A1"/>
<path d="M0 126.484L1.93325 142.159H4.38319C4.38319 142.159 4.96374 130.281 5.09727 126.484C5.20177 123.727 5.62557 118.478 5.81135 114.873C6.10163 109.375 6.31063 107.361 6.31063 107.361C6.31063 107.361 0 110.833 0 126.484Z" fill="#F0A1A1"/>
<path d="M23.7621 107.082C23.7621 107.082 24.749 110.113 24.7781 115.616C24.7781 117.433 25.0509 126.502 25.0509 126.502L25.765 142.177H28.2149L30.1482 126.502C30.1482 109.224 23.7621 107.082 23.7621 107.082Z" fill="#F0A1A1"/>
<path d="M5.62566 118.478C5.62566 118.478 6.4036 116.539 6.4036 116.336V106.304C6.4036 106.304 1.94494 107.912 0.470337 118.496L5.62566 118.478Z" fill="#BCBCBC"/>
<path d="M24.5518 118.478H29.6955C28.1745 107.912 23.5823 106.287 23.5823 106.287C23.5823 106.287 23.9132 110.687 23.9422 116.191C24.0662 116.972 24.2705 117.739 24.5518 118.478V118.478Z" fill="#BCBCBC"/>
<path d="M26.3398 148.255C26.3767 148.203 26.4174 148.155 26.4617 148.11C27.0422 147.529 27.408 147.047 27.408 146.594C27.408 146.24 27.408 145.979 27.408 145.584C27.408 145.189 27.0016 144.266 26.7287 144.266C26.4559 144.266 25.9972 145.178 25.8521 145.358L25.7534 145.462C26.1134 145.544 26.7462 145.892 26.334 147.256C26.2527 147.5 25.8057 147.895 26.3398 148.255Z" fill="#F0A1A1"/>
<path d="M28.215 142.154C28.5377 143.47 28.6957 144.821 28.6852 146.177C28.6852 147.094 28.1685 148.499 26.8391 148.842C26.6997 148.876 26.3282 148.842 26.2585 148.72C26.1888 148.598 26.1772 148.406 26.4559 148.11C27.0365 147.529 27.4022 147.048 27.4022 146.595C27.4022 146.241 27.4022 145.979 27.4022 145.585C27.4022 145.19 26.9958 144.267 26.723 144.267C26.4501 144.267 25.9915 145.178 25.8463 145.358C25.3877 145.939 24.6388 145.776 25.0393 145.138C25.6195 144.257 25.8703 143.201 25.7476 142.154H28.215Z" fill="#F0A1A1"/>
<path d="M20.2267 93.6769C20.1628 92.748 19.9422 92.034 18.8566 91.7088C18.8566 91.7088 20.0932 89.5085 16.9117 89.5085H13.3761C12.215 89.5085 9.65479 90.7509 9.65479 94.8206C9.65479 95.3083 9.74187 97.3751 9.73607 97.5957C9.73607 97.5957 9.45159 99.198 10.1192 100.202C10.7869 101.207 13.2136 102.885 13.2136 102.885C13.7502 103.199 14.3409 103.409 14.9552 103.506C15.5696 103.409 16.1603 103.199 16.6969 102.885C16.6969 102.885 19.1178 101.404 19.8319 100.336C20.546 99.2677 20.1686 97.5957 20.1686 97.5957C20.1222 97.4215 20.3196 94.9309 20.2267 93.6769ZM14.932 101.752C14.4444 101.752 13.0859 100.969 12.0757 100.168C12.1453 100.07 12.223 99.9789 12.3079 99.8947C12.5401 99.6566 13.5097 99.3141 15.112 99.3141C15.9383 99.3207 16.7449 99.5667 17.4342 100.022L17.6258 100.318C16.6272 101.05 15.3907 101.752 14.932 101.752V101.752ZM18.7637 99.2386C18.6554 99.375 18.537 99.5031 18.4095 99.6218L18.1947 99.2851L18.1309 99.2328C17.25 98.6027 16.1951 98.2619 15.112 98.2575C13.5155 98.2575 12.1279 98.6116 11.5764 99.1632C11.4794 99.2602 11.3883 99.3629 11.3036 99.4709C11.231 99.3978 11.1631 99.3203 11.1004 99.2386C10.7023 98.6481 10.4993 97.9476 10.5198 97.2357C10.5313 96.6447 10.6863 96.0652 10.9715 95.5474C11.2567 95.0296 11.6635 94.5889 12.157 94.2633H17.5387C17.5387 94.2633 19.3559 96.0514 19.3559 97.2125C19.372 97.9353 19.1586 98.6447 18.7463 99.2386H18.7637Z" fill="#122259"/>
<path d="M23.472 132.354H6.41528V161.045H23.472V132.354Z" fill="white"/>
<path d="M21.3239 107.785H14.9436H8.55753L6.41528 132.354H14.9436H23.472L21.3239 107.785Z" fill="white"/>
<path d="M17.2657 103.964C17.8796 104.419 18.3977 104.991 18.7902 105.647C19.1827 106.302 19.442 107.029 19.5531 107.785H20.7142C20.7142 107.785 19.9305 104.359 17.289 103.506L17.2657 103.964Z" fill="white"/>
<path d="M12.6329 103.964C12.0125 104.416 11.4879 104.986 11.0893 105.642C10.6907 106.298 10.4261 107.026 10.3106 107.785H9.14954C9.14954 107.785 9.92748 104.359 12.5748 103.506L12.6329 103.964Z" fill="white"/>
<path d="M10.6184 115.303H18.8042C18.8042 115.303 18.7752 122.757 15.2629 122.757C11.7505 122.757 10.2759 118.554 10.6184 115.303Z" fill="#BCBCBC"/>
<path d="M19.1351 115.471C19.1351 115.611 19.0794 115.746 18.9804 115.845C18.8813 115.944 18.7469 115.999 18.6068 115.999H10.392C10.2518 115.999 10.1175 115.944 10.0184 115.845C9.91931 115.746 9.86365 115.611 9.86365 115.471V115.471C9.86365 115.331 9.91931 115.197 10.0184 115.098C10.1175 114.999 10.2518 114.943 10.392 114.943H18.6068C18.7469 114.943 18.8813 114.999 18.9804 115.098C19.0794 115.197 19.1351 115.331 19.1351 115.471V115.471Z" fill="white"/>
<path d="M18.5256 76.0398C16.0989 77.166 15.8667 77.7466 13.8521 77.5898C11.8376 77.4331 5.14381 76.928 8.51683 82.8961C9.25414 87.1167 9.67794 94.2111 9.67794 94.2111C9.67794 94.2111 12.0814 94.333 14.9029 94.3795C16.6913 94.4784 18.4851 94.3575 20.244 94.0195C20.244 94.0195 21.022 87.0935 21.4922 83.198C21.4922 83.198 21.8638 80.034 22.9901 78.5536C24.1163 77.0731 20.9465 74.9193 18.5256 76.0398Z" fill="white"/>
<path d="M19.6519 83.198C19.6865 84.8657 19.6361 86.534 19.5009 88.1966C19.4312 89.021 19.3732 89.8453 19.2861 90.6697C19.199 91.4941 19.1235 92.3243 18.9784 93.1661C18.7477 92.3479 18.6075 91.5069 18.5604 90.6581C18.5053 89.8172 18.5053 88.9736 18.5604 88.1327C18.624 87.2922 18.7403 86.4565 18.9087 85.6305C19.0702 84.7958 19.3192 83.9804 19.6519 83.198V83.198Z" fill="#BCBCBC"/>
<path d="M10.5545 83.198C10.8787 83.982 11.1218 84.7971 11.2802 85.6305C11.4515 86.456 11.5679 87.2919 11.6286 88.1327C11.6866 88.9735 11.6866 89.8173 11.6286 90.6581C11.5805 91.5064 11.4424 92.3471 11.2164 93.1661C11.0712 92.3243 10.9841 91.4941 10.9029 90.6697C10.8216 89.8453 10.7577 89.021 10.6939 88.1966C10.5568 86.5341 10.5102 84.8655 10.5545 83.198V83.198Z" fill="#BCBCBC"/>
<path d="M15.0655 83.198C15.3303 84.0001 15.5245 84.8237 15.6461 85.6595C15.7729 86.4887 15.8562 87.3239 15.8957 88.1617C15.9334 89.0018 15.9159 89.8435 15.8434 90.6813C15.7848 91.5297 15.6089 92.3659 15.3209 93.1661L15.1177 90.6755C15.0481 89.8511 15.0074 89.0268 14.9668 88.1966C14.8724 86.5303 14.9054 84.8592 15.0655 83.198V83.198Z" fill="#BCBCBC"/>
<path d="M17.4806 85.1606C17.5954 85.8458 17.6594 86.5386 17.6722 87.2332C17.6722 87.9241 17.6722 88.6033 17.6722 89.2826C17.6179 90.6535 17.4841 92.0201 17.2716 93.3755C17.0178 92.7166 16.8613 92.0243 16.8072 91.3203C16.7309 90.6323 16.7095 89.9392 16.7433 89.2477C16.7702 88.5566 16.8439 87.868 16.9639 87.1868C17.0677 86.4958 17.2408 85.817 17.4806 85.1606V85.1606Z" fill="#BCBCBC"/>
<path d="M12.7897 85.1606C13.038 85.8155 13.217 86.4946 13.3238 87.1868C13.4419 87.8681 13.5136 88.5567 13.5386 89.2477C13.5714 89.9391 13.552 90.6319 13.4806 91.3203C13.4207 92.0234 13.2645 92.715 13.0161 93.3755C12.8056 92.0294 12.67 90.6727 12.6097 89.3116C12.6097 88.6324 12.5749 87.9531 12.6097 87.2623C12.6171 86.5582 12.6773 85.8557 12.7897 85.1606V85.1606Z" fill="#BCBCBC"/>
<path d="M98.0332 111.285C98.0332 111.285 103.473 114.6 104.756 115.349C105.134 115.604 105.595 115.709 106.046 115.641C106.498 115.573 106.908 115.339 107.194 114.983C107.589 114.403 107.775 113.294 106.515 112.446C105.255 111.599 97.2262 106.124 97.2262 106.124L98.0332 111.285Z" fill="#804E4F"/>
<path d="M97.7695 100.91C97.7695 100.91 103.424 112.98 104.08 114.315C104.323 114.744 104.706 115.075 105.166 115.253C105.625 115.431 106.132 115.444 106.6 115.29C106.845 115.191 107.068 115.043 107.254 114.856C107.441 114.668 107.587 114.445 107.685 114.199C107.782 113.953 107.829 113.69 107.822 113.425C107.816 113.161 107.755 112.901 107.645 112.66C107.064 111.25 99.8479 99.4644 99.8479 99.4644L97.7695 100.91Z" fill="#804E4F"/>
<path d="M99.308 99.8592C99.4735 99.6342 99.5685 99.3651 99.5809 99.086C99.5933 98.807 99.5226 98.5305 99.3777 98.2917C99.1397 97.8389 98.2746 96.3759 97.3516 95.9695L97.4793 100.184C97.6666 100.249 97.8621 100.286 98.0598 100.295L98.2572 100.597L99.308 99.8592Z" fill="#F0A1A1"/>
<path d="M96.6677 94.9168L94.7616 96.1494L97.4035 100.235L99.3096 99.002L96.6677 94.9168Z" fill="#122259"/>
<path d="M87.186 92.6078C89.1889 87.8415 96.7071 88.5846 97.2819 94.6688V94.634C97.2819 94.634 97.2819 94.7036 97.2819 94.8314C97.2819 94.9591 97.2819 94.9184 97.2819 94.9649C97.3475 95.7453 97.4619 96.5209 97.6244 97.2871C97.7071 97.6116 97.8361 97.9225 98.0076 98.2102C98.2862 98.7385 97.7463 98.8256 97.6244 98.8256C97.2819 98.8256 97.0148 98.8256 97.0148 98.8256C97.0148 98.8256 97.0148 98.9881 97.0148 99.0636C96.9722 99.5207 96.8748 99.9709 96.7245 100.405C96.1904 101.891 95.1048 102.146 93.9553 102.303L94.5359 105.92L93.694 108.451L90.7622 105.92C90.9704 104.771 91.0676 103.604 91.0525 102.437C90.9945 101.856 89.9437 101.38 89.5257 101.09C88.6273 100.486 87.9154 99.6438 87.4705 98.6572C86.3733 96.2479 86.3907 94.4946 87.186 92.6078Z" fill="#F0A1A1"/>
<path d="M84.5911 93.9316C84.5272 93.2988 84.7595 92.5789 86.0251 91.7081C87.4358 90.7443 86.7972 89.9664 87.819 89.1652C88.1845 88.8688 88.6142 88.662 89.0738 88.5612C89.5335 88.4604 90.0103 88.4684 90.4663 88.5847C91.0004 88.7356 91.2152 88.7298 92.5041 88.3002C92.9577 88.1412 93.4556 88.1672 93.8902 88.3725C94.3248 88.5779 94.6611 88.9461 94.8263 89.3974C95.0933 90.0303 95.1978 90.5586 96.5273 90.7908C98.0251 91.0636 97.8974 94.1754 96.5273 94.3844C95.5171 94.5412 95.0875 93.0375 94.0541 93.7748C93.0207 94.5121 93.3923 96.1667 91.9815 96.7182C91.7257 96.7743 91.4581 96.7312 91.2329 96.5976C91.0077 96.4639 90.8416 96.2498 90.7682 95.9984C90.4605 95.3423 89.3342 96.097 89.4097 96.9447C89.4561 97.4439 89.7464 98.9766 90.8611 98.4135C91.5055 98.0883 92.3241 98.5528 91.4416 99.4759C90.9888 99.9519 91.4416 100.91 91.1049 101.409C91.0632 101.471 91.01 101.524 90.9482 101.566C89.6826 102.448 87.5926 100.985 87.1978 100.55C86.803 100.114 86.0367 100.08 85.5142 99.1624C85.131 98.4773 85.1775 97.7865 85.2007 96.637C85.2239 95.4875 84.6956 94.965 84.5911 93.9316Z" fill="#122259"/>
<path d="M90.9945 178.362H88.5736V180.347H90.9945V178.362Z" fill="#F0A1A1"/>
<path d="M91.1628 180.353H88.3588V182.989H94.9771C94.9771 182.989 95.4589 182.182 93.9263 181.497C92.7245 180.951 91.1628 180.353 91.1628 180.353Z" fill="#804E4F"/>
<path d="M101.015 178.362H98.594V180.347H101.015V178.362Z" fill="#F0A1A1"/>
<path d="M101.183 180.353H98.3735V182.989H104.992C104.992 182.989 105.474 182.182 103.947 181.497C102.739 180.951 101.183 180.353 101.183 180.353Z" fill="#804E4F"/>
<path d="M85.2123 134.112H100.771C100.771 134.112 101.723 151.319 101.723 159.993C101.723 164.573 101.183 179.221 101.183 179.221H98.4141C96.0571 164.881 94.3909 150.193 94.3909 141.967L92.9918 142.286C93.0905 145.903 92.6608 156.608 92.2835 163.343C91.8771 170.652 91.1224 179.221 91.1224 179.221H88.3705C88.3705 179.221 86.6289 164.208 86.1006 159.755C85.1252 151.424 85.2123 134.112 85.2123 134.112Z" fill="#97BBE1"/>
<path d="M100.823 137.595C100.789 135.807 100.469 118.861 100.011 112.875C99.7784 109.851 100.382 105.909 94.4025 105.288C94.4025 105.288 94.0599 107.499 93.7639 107.499C93.3459 107.499 91.3604 105.177 90.8611 105.288C88.864 105.624 85.1949 106.832 85.1949 111.064C85.1949 117.241 85.1368 135.447 85.1949 137.595H100.823Z" fill="#122259"/>
<path d="M84.9916 111.377C84.9916 113.862 85.2064 140.074 85.2064 140.074H86.5068C88.9161 140.074 90.8726 137.612 90.8726 134.988V105.27C90.8726 105.27 84.9916 105.043 84.9916 111.377Z" fill="#804E4F"/>
<path d="M85.2065 122.814C85.2065 120.376 85.2065 110.623 85.2065 110.623C85.2065 110.623 82.7043 125.874 81.0614 134.071C80.5505 136.632 82.7159 140.069 85.1252 140.069H85.1891L85.2065 122.814Z" fill="#804E4F"/>
<path d="M97.6652 106.025C96.7015 105.514 94.4025 105.27 94.4025 105.27L100.823 138.867C100.823 138.867 103.268 138.965 102.844 135.209C101.776 125.729 101.729 123.343 100.005 109.409C99.8945 108.382 99.6739 107.099 97.6652 106.025Z" fill="#804E4F"/>
<path d="M93.7115 107.47C93.7115 107.47 93.0555 107 92.8175 106.779C92.5795 106.559 91.4009 105.305 90.8726 105.27C90.8726 105.27 90.3966 105.404 90.7856 105.978C91.1745 106.553 92.771 108.73 93.0033 109.845C93.5224 109.167 93.7745 108.322 93.7115 107.47V107.47Z" fill="#97BBE1"/>
<path d="M93.7115 107.47C93.7115 107.47 93.8799 107.424 93.9554 106.983L94.4024 105.241L94.9481 108.103C94.9481 108.103 95.2094 109.131 94.6462 109.531C94.6462 109.56 94.1121 107.644 93.7115 107.47Z" fill="#97BBE1"/>
<path d="M93.7116 107.47C93.7116 107.47 93.8509 107.505 94.0599 107.882C94.3258 108.414 94.521 108.978 94.6405 109.56C94.6405 109.56 96.7711 118.954 96.6086 122.965L95.2849 126.658C94.6988 125.481 94.007 124.359 93.2181 123.308C93.2181 123.308 94.0948 110.843 93.4794 108.997C93.6374 108.504 93.7158 107.988 93.7116 107.47V107.47Z" fill="#E66064"/>
<path d="M85.1775 98.2916C85.1775 98.2916 92.4344 92.2074 97.5955 91.9055C97.5955 91.9055 95.3314 85.0201 88.475 88.1667C81.8161 91.2495 85.1775 98.2916 85.1775 98.2916Z" fill="white"/>
<path d="M86.1816 97.4905C87.0775 96.6196 88.0381 95.8181 89.0554 95.0928C90.0714 94.3532 91.1406 93.6895 92.2542 93.1073C93.3811 92.5076 94.5759 92.0457 95.813 91.7314C96.4462 91.5775 97.0947 91.4957 97.7463 91.4876C98.3945 91.4869 99.0408 91.557 99.6737 91.6966C99.7626 91.7173 99.8397 91.7722 99.8886 91.8493C99.9375 91.9263 99.9541 92.0195 99.935 92.1087C99.9136 92.1894 99.8649 92.2602 99.7971 92.3089C99.7293 92.3576 99.6467 92.3813 99.5634 92.3758C98.3819 92.2562 97.1885 92.3486 96.0395 92.6487C94.8736 92.9628 93.7387 93.3826 92.649 93.9027C91.5402 94.4077 90.4545 94.9941 89.3805 95.5921C88.3065 96.19 87.2382 96.8287 86.1816 97.4905Z" fill="white"/>
<path d="M88.475 88.1901C87.4884 88.6216 86.604 89.2567 85.8799 90.0537C87.3119 89.4941 88.885 89.4057 90.3707 89.8014C91.8564 90.1971 93.1772 91.0563 94.1412 92.254C95.1876 91.8376 96.2921 91.585 97.4155 91.5051C96.6724 89.7692 94.1644 85.5776 88.475 88.1901Z" fill="#BCBCBC"/>
<path d="M81.456 121.096C81.456 121.096 87.7028 111.046 88.591 109.85C89.0613 109.218 89.2529 107.871 88.6665 107.313C88.0801 106.756 87.2674 106.152 86.234 107.273C85.2006 108.393 77.6592 118.884 77.6592 118.884L81.456 121.096Z" fill="#804E4F"/>
<path d="M79.6564 133.833C79.6564 133.833 81.1775 122.553 81.4561 121.096C81.7929 119.354 81.0672 119.087 80.3995 118.623C79.7319 118.158 78.3037 117.845 77.6593 118.895C76.864 120.202 76.8814 133.676 76.8814 133.676L79.6564 133.833Z" fill="#804E4F"/>
<path d="M95.5404 135.36L79.6042 135.499L64.4749 130.489C63.7263 131.295 63.2357 132.307 63.066 133.394C62.8964 134.481 63.0554 135.595 63.5228 136.591L79.459 136.445L94.5825 141.461C95.3314 140.655 95.8226 139.644 95.9933 138.557C96.1639 137.47 96.0063 136.357 95.5404 135.36V135.36Z" fill="white"/>
<path d="M79.6565 135.499H80.417C80.2428 134.965 80.0396 134.919 79.7261 134.53C79.5385 134.332 79.4081 134.087 79.3488 133.821L78.2457 133.758C78.2051 134.715 79.0353 134.849 79.3488 135.128C79.4649 135.232 79.6623 135.447 79.6565 135.499Z" fill="#F0A1A1"/>
<path d="M77.4097 133.729C77.3848 134.171 77.2447 134.6 77.0033 134.971C76.626 135.476 76.2254 136.132 76.4808 136.794C76.7943 137.618 78.5592 138.048 78.9946 137.613C79.2591 137.279 79.4205 136.876 79.4591 136.452C79.4591 136.452 79.2791 135.674 79.6565 135.505V135.198L78.6753 133.764L77.4097 133.729Z" fill="#F0A1A1"/>
<path d="M59.7298 175.753C59.7298 175.753 59.2595 176.363 59.2595 178.383C59.2595 179.312 60.4613 179.544 61.5527 179.544C62.9925 179.544 62.6035 183.243 67.0157 183.243C69.5121 183.243 69.425 181.129 68.2233 180.009C65.9011 177.82 64.8909 178.018 63.3698 175.771L59.7298 175.753Z" fill="black"/>
<path d="M49.6977 133.466C49.2506 136.74 47.5496 147.979 47.4393 151.422C47.358 154.157 47.7006 158.58 47.2826 159.62C44.3217 167.033 44.9603 175.834 44.9603 175.834C45.3152 175.997 45.7023 176.076 46.0924 176.067C46.7487 176 47.4101 176 48.0663 176.067L58.0983 145.437L59.6135 175.974C59.6135 175.974 59.7471 176.096 60.914 176.096C61.7552 176.082 62.5948 176.016 63.4278 175.898C63.4278 175.898 64.2696 163.759 65.123 158.377C66.1448 151.904 65.9706 139.085 66.1274 133.495L49.6977 133.466Z" fill="#122259"/>
<path d="M66.0171 143.266C66.0577 140.45 66.0694 137.849 66.1274 135.858H49.6977C49.4829 137.443 48.972 140.322 48.496 143.266H66.0171Z" fill="black"/>
<path d="M45.1055 175.625C44.9081 176.014 44.7572 176.943 44.5249 177.472C43.9038 178.853 43.0039 179.538 42.2027 180.908C41.7499 181.71 41.9241 183.631 44.1011 183.846C44.8259 183.966 45.5685 183.794 46.1676 183.369C46.7666 182.944 47.1736 182.3 47.3 181.576C47.6135 179.509 47.5264 178.029 48.0315 176.072C48.2231 175.306 47.2768 174.987 46.493 175.004C46.227 174.971 45.9569 175.011 45.7122 175.12C45.4675 175.23 45.2577 175.405 45.1055 175.625V175.625Z" fill="black"/>
<path d="M59.962 104.235L62.7777 105.036L57.8895 116.867L52.5251 105.059L55.335 104.235H59.962Z" fill="#D8DADE"/>
<path d="M67.3814 141.576L68.0665 108.316C68.0665 107.294 67.1841 106.638 66.2552 106.255C64.7341 105.622 61.5004 104.653 61.5004 104.653L57.9184 116.844L53.8894 104.728C52.4391 105.085 51.0288 105.589 49.6803 106.232C48.8153 106.743 47.7761 107.433 47.7761 107.915V141.553H56.9837L57.9184 135.834L60.2116 141.553L67.3814 141.576Z" fill="#122259"/>
<path d="M60.2056 104.217C60.2056 104.217 58.0285 107.08 57.8834 107.08C57.7382 107.08 55.5612 104.217 55.5612 104.217V101.965H60.2056V104.217Z" fill="#F0A1A1"/>
<path d="M63.0215 99.3001C63.0215 100.287 60.4844 103.306 57.8894 103.306C55.3872 103.306 52.7631 100.484 52.7631 99.3001V95.5091C52.7631 94.8359 52.8957 94.1693 53.1533 93.5474C53.4109 92.9254 53.7885 92.3603 54.2645 91.8843C54.7405 91.4083 55.3057 91.0307 55.9276 90.773C56.5496 90.5154 57.2162 90.3828 57.8894 90.3828V90.3828C58.563 90.3821 59.2303 90.5141 59.8529 90.7714C60.4755 91.0286 61.0413 91.4061 61.5179 91.8822C61.9946 92.3583 62.3727 92.9237 62.6307 93.546C62.8887 94.1684 63.0215 94.8354 63.0215 95.5091V99.3001Z" fill="#F0A1A1"/>
<path d="M63.9387 97.6514C63.7472 98.232 63.2537 98.5571 62.8357 98.4177C62.6145 98.3001 62.4474 98.1014 62.3695 97.8633C62.2916 97.6252 62.3088 97.3662 62.4177 97.1405C62.6093 96.56 63.1027 96.2291 63.5207 96.3684C63.7413 96.4882 63.9076 96.688 63.9853 96.9266C64.0631 97.1653 64.0464 97.4247 63.9387 97.6514V97.6514Z" fill="#F0A1A1"/>
<path d="M51.84 97.6514C51.845 97.7812 51.8803 97.908 51.9429 98.0218C52.0055 98.1356 52.0937 98.2332 52.2006 98.3069C52.3075 98.3807 52.4301 98.4285 52.5587 98.4466C52.6873 98.4647 52.8184 98.4526 52.9415 98.4113C53.0646 98.3699 53.1764 98.3005 53.268 98.2084C53.3596 98.1163 53.4285 98.0042 53.4692 97.8809C53.5099 97.7575 53.5213 97.6264 53.5025 97.4979C53.4838 97.3694 53.4353 97.247 53.361 97.1405C53.1752 96.56 52.6818 96.2291 52.258 96.3684C52.0374 96.4882 51.8711 96.688 51.7934 96.9266C51.7156 97.1653 51.7323 97.4247 51.84 97.6514V97.6514Z" fill="#F0A1A1"/>
<path d="M53.3784 98.3248C53.4307 97.7965 53.0766 93.8835 57.7907 93.8835C62.6267 93.8835 62.3945 97.8603 62.3132 98.3248H62.7486L63.0215 97.1346C63.0215 97.1346 64.3277 93.8371 60.2522 90.615C59.9772 90.4569 59.7621 90.2124 59.6403 89.9195C59.5186 89.6266 59.4969 89.3017 59.5788 88.9953C59.2323 89.0616 58.9032 89.1991 58.6125 89.3989C58.3217 89.5988 58.0755 89.8567 57.8894 90.1564C57.9265 89.3829 58.2419 88.6489 58.7776 88.0896C58.7776 88.0896 54.7137 88.3044 52.7863 93.3959C52.1955 94.9949 52.2433 96.7601 52.9198 98.3248H53.3784Z" fill="#804E4F"/>
<path d="M62.0867 121.082C62.0855 121.212 62.0461 121.338 61.9733 121.445C61.9005 121.552 61.7977 121.636 61.6777 121.684C61.5577 121.733 61.426 121.745 61.2991 121.719C61.1723 121.693 61.0559 121.63 60.9648 121.539C60.8736 121.447 60.8117 121.33 60.7868 121.203C60.762 121.075 60.7753 120.944 60.8251 120.824C60.875 120.705 60.959 120.603 61.0668 120.531C61.1745 120.459 61.3012 120.421 61.4307 120.421C61.6052 120.422 61.772 120.493 61.8949 120.617C62.0178 120.74 62.0867 120.908 62.0867 121.082V121.082Z" fill="white"/>
<path d="M62.0867 124.729C62.0867 124.858 62.0482 124.985 61.9762 125.093C61.9041 125.201 61.8016 125.285 61.6817 125.335C61.5619 125.384 61.43 125.397 61.3027 125.372C61.1754 125.347 61.0585 125.284 60.9668 125.192C60.8751 125.101 60.8126 124.984 60.7873 124.857C60.762 124.729 60.7749 124.597 60.8246 124.477C60.8742 124.358 60.9583 124.255 61.0662 124.183C61.1741 124.111 61.3009 124.073 61.4307 124.073C61.6047 124.073 61.7715 124.142 61.8946 124.265C62.0176 124.388 62.0867 124.555 62.0867 124.729Z" fill="white"/>
<path d="M62.0867 128.38C62.0867 128.554 62.0176 128.721 61.8946 128.844C61.7715 128.967 61.6047 129.036 61.4307 129.036C61.2567 129.036 61.0898 128.967 60.9668 128.844C60.8438 128.721 60.7747 128.554 60.7747 128.38C60.7747 128.206 60.8438 128.039 60.9668 127.916C61.0898 127.793 61.2567 127.724 61.4307 127.724C61.6047 127.724 61.7715 127.793 61.8946 127.916C62.0176 128.039 62.0867 128.206 62.0867 128.38Z" fill="white"/>
<path d="M55.7587 121.082C55.7575 121.212 55.7181 121.338 55.6453 121.445C55.5725 121.552 55.4697 121.636 55.3497 121.684C55.2297 121.733 55.098 121.745 54.9711 121.719C54.8443 121.693 54.7279 121.63 54.6368 121.539C54.5456 121.447 54.4837 121.33 54.4588 121.203C54.434 121.075 54.4473 120.944 54.4971 120.824C54.547 120.705 54.631 120.603 54.7388 120.531C54.8466 120.459 54.9732 120.421 55.1027 120.421C55.2772 120.422 55.444 120.493 55.5669 120.617C55.6898 120.74 55.7587 120.908 55.7587 121.082Z" fill="white"/>
<path d="M55.7587 124.729C55.7587 124.858 55.7202 124.985 55.6481 125.093C55.5761 125.201 55.4736 125.285 55.3537 125.335C55.2339 125.384 55.102 125.397 54.9747 125.372C54.8474 125.347 54.7306 125.284 54.6388 125.192C54.5471 125.101 54.4846 124.984 54.4593 124.857C54.4339 124.729 54.4469 124.597 54.4966 124.477C54.5463 124.358 54.6303 124.255 54.7382 124.183C54.8461 124.111 54.9729 124.073 55.1027 124.073C55.2767 124.073 55.4435 124.142 55.5666 124.265C55.6896 124.388 55.7587 124.555 55.7587 124.729Z" fill="white"/>
<path d="M55.7587 128.38C55.7587 128.554 55.6896 128.721 55.5666 128.844C55.4435 128.967 55.2767 129.036 55.1027 129.036C54.9287 129.036 54.7618 128.967 54.6388 128.844C54.5158 128.721 54.4467 128.554 54.4467 128.38C54.4467 128.206 54.5158 128.039 54.6388 127.916C54.7618 127.793 54.9287 127.724 55.1027 127.724C55.2767 127.724 55.4435 127.793 55.5666 127.916C55.6896 128.039 55.7587 128.206 55.7587 128.38Z" fill="white"/>
<path d="M61.4655 104.653L63.7645 105.378L61.7035 112.328L57.8893 116.867L61.4655 104.653Z" fill="black"/>
<path d="M54.3307 104.531L51.8807 105.291L53.9417 112.328L57.8895 116.868L54.3307 104.531Z" fill="black"/>
<path d="M57.8834 107.12C58.1823 106.551 58.5117 105.999 58.8704 105.465C59.2362 104.996 59.6707 104.585 60.1592 104.246C60.4239 104.262 60.6876 104.293 60.9487 104.339C61.2081 104.433 61.462 104.542 61.7093 104.664C61.7563 105.344 61.7563 106.027 61.7093 106.708C61.7093 106.708 59.5438 105.448 57.8834 107.12Z" fill="white"/>
<path d="M57.8602 107.12C57.5581 106.552 57.2267 105.999 56.8675 105.465C56.5017 104.996 56.0672 104.585 55.5787 104.246C55.3139 104.262 55.0503 104.293 54.7891 104.339C54.5316 104.433 54.2796 104.541 54.0344 104.664C53.9874 105.377 53.9874 106.093 54.0344 106.806C54.0344 106.806 56.1941 105.448 57.8602 107.12Z" fill="white"/>
<path d="M65.6107 113.872H62.1041V114.853H65.6107V113.872Z" fill="white"/>
<path d="M67.1318 106.708C68.8504 107.821 70.287 109.319 71.3287 111.082C72.3704 112.845 72.9886 114.825 73.1348 116.868C73.965 128.38 71.9737 141.35 71.9737 141.35H67.7879L68.3162 123.614L67.904 117.808L67.1318 106.708Z" fill="#122259"/>
<path d="M71.4453 141.373C71.4453 141.373 73.187 145.623 69.3495 147.614C68.8096 147.893 67.7878 147.893 68.1884 146.041C68.589 144.189 68.8038 143.295 68.2406 143.655C67.6775 144.014 67.3001 144.421 67.4685 143.579C67.6781 142.817 67.954 142.075 68.2929 141.361L71.4453 141.373Z" fill="#F0A1A1"/>
<path d="M72.2175 139.701H67.8575V140.612H72.1246C72.1304 140.363 72.1711 140.061 72.2175 139.701Z" fill="white"/>
<path d="M72.3915 138.244H67.898L67.869 139.161H72.2812C72.3161 138.883 72.3567 138.569 72.3915 138.244Z" fill="white"/>
<path d="M72.5542 136.792H67.9388V137.703H72.4788C72.4846 137.413 72.5194 137.111 72.5542 136.792Z" fill="white"/>
<path d="M48.3972 107.12C48.3972 107.12 43.1722 109.831 42.6846 116.85C41.8544 128.363 43.4567 141.332 43.4567 141.332H47.6425L47.1084 123.596L47.8051 117.756L48.3972 107.12Z" fill="#122259"/>
<path d="M44.0026 141.373C44.0026 141.373 42.2609 145.623 46.0984 147.614C46.6383 147.893 47.6601 147.893 47.2595 146.041C46.8589 144.189 46.6441 143.295 47.213 143.655C47.782 144.015 48.1477 144.421 47.9794 143.579C47.7747 142.821 47.5027 142.083 47.1666 141.373H44.0026Z" fill="#F0A1A1"/>
<path d="M43.2303 139.701H47.5903L47.6193 140.612H43.3523C43.3174 140.363 43.2768 140.061 43.2303 139.701Z" fill="white"/>
<path d="M43.0503 138.244H47.5496V139.161H43.1374C43.1025 138.883 43.1025 138.569 43.0503 138.244Z" fill="white"/>
<path d="M42.8936 136.792H47.5032V137.703H42.9632C42.9574 137.413 42.9226 137.111 42.8936 136.792Z" fill="white"/>
<path d="M56.5134 106.325L57.3668 107.956H58.4234L59.2711 106.325H56.5134Z" fill="#122259"/>
<path d="M58.4234 107.956H57.8893H57.3552L56.5134 112.409L57.8893 116.868L59.2711 112.409L58.4234 107.956Z" fill="#122259"/>
<path d="M64.1883 107.126L63.6194 106.958L64.049 105.471L64.6179 105.669L64.1883 107.126Z" fill="white"/>
<path d="M65.1869 107.469L64.6179 107.3L65.0591 105.814L65.6165 106.017L65.1869 107.469Z" fill="white"/>
<path d="M66.1795 107.817L65.6106 107.648L66.046 106.179L66.6033 106.388L66.1795 107.817Z" fill="white"/>
<path d="M51.0853 107.126L51.6542 106.958L51.2536 105.518L50.6847 105.75L51.0853 107.126Z" fill="white"/>
<path d="M50.0924 107.469L50.6614 107.3L50.255 105.942L49.7151 106.215L50.0924 107.469Z" fill="white"/>
<path d="M49.0939 107.817L49.6629 107.648L49.3087 106.458L48.7456 106.83L49.0939 107.817Z" fill="white"/>
<path d="M59.6542 87.6424C58.7602 87.3289 56.7863 87.1664 55.8342 87.6424C54.0228 88.5423 49.7848 92.0256 49.7848 92.0256C50.5748 93.1925 51.4791 94.2777 52.4844 95.2651C54.8472 92.1707 60.7979 92.2056 63.004 95.2651C64.0118 94.2784 64.9181 93.1931 65.7094 92.0256C65.7094 92.0256 61.57 88.3043 59.6542 87.6424Z" fill="#122259"/>
<path d="M57.7442 92.9836C56.7422 92.9281 55.7407 93.0992 54.814 93.4842C53.8872 93.8691 53.0592 94.4581 52.3915 95.2071L54.226 96.4263C54.844 96.8114 55.5588 97.0128 56.287 97.0068H59.1898C59.9162 97.0136 60.6294 96.8121 61.2449 96.4263L63.0853 95.2071C62.4183 94.4603 61.592 93.8728 60.6676 93.4879C59.7432 93.1031 58.7441 92.9307 57.7442 92.9836V92.9836Z" fill="black"/>
<path d="M52.3914 95.2071C52.9695 94.3681 53.7751 93.7115 54.7136 93.3145C55.6751 92.8989 56.7105 92.6816 57.7579 92.6757C58.8054 92.6697 59.8432 92.8751 60.8094 93.2797C61.758 93.6712 62.567 94.3386 63.1316 95.1955C63.1426 95.2118 63.1499 95.2303 63.1529 95.2497C63.1559 95.2692 63.1546 95.289 63.149 95.3079C63.1435 95.3267 63.1338 95.3441 63.1208 95.3588C63.1077 95.3735 63.0916 95.3852 63.0736 95.3929C63.0409 95.4093 63.0036 95.4142 62.9678 95.4069C62.932 95.3995 62.8997 95.3803 62.8762 95.3523C62.2487 94.6332 61.45 94.0841 60.554 93.7557C58.7292 93.0825 56.7241 93.0825 54.8994 93.7557C53.9992 94.0838 53.1923 94.6257 52.5481 95.3348C52.5267 95.3544 52.4987 95.3653 52.4697 95.3653C52.4407 95.3653 52.4128 95.3544 52.3914 95.3348C52.3746 95.3166 52.3654 95.2928 52.3654 95.2681C52.3654 95.2434 52.3746 95.2195 52.3914 95.2013V95.2071Z" fill="white"/>
<path d="M58.1971 90.5977L57.7326 90.9866L57.2682 90.5977H55.2943C55.2943 90.5977 55.7471 91.3756 56.1071 91.3756H59.3582C59.7239 91.3756 60.1768 90.5977 60.1768 90.5977H58.1971Z" fill="white"/>
</svg>
