<svg xmlns="http://www.w3.org/2000/svg" viewBox="0 0 77.59 71.27"><defs><style>.cls-1{fill:#fcd09a;}.cls-2{fill:#2e536b;}.cls-3{fill:#a6cfe5;}.cls-4{fill:#0f2d38;}.cls-5{fill:#3d5f75;}.cls-6{fill:#27aae1;}.cls-7{fill:#babec4;}.cls-8{fill:#e0e0e0;}.cls-9{fill:#f15a29;}</style></defs><title>interview prep</title><g id="Layer_2" data-name="Layer 2"><g id="Ñëîé_1" data-name="Ñëîé 1"><path class="cls-1" d="M30.65,38.73l.6-.53,1-1a1.1,1.1,0,0,1,.31-.2s2.2-1.26,2.49-1c.14.12-.28.67-.28.67l-1.26,1,1.9-.32a.93.93,0,0,0,.33-.12s1.18-1.2,1.57-1-.07,1.38-.07,1.38a.9.9,0,0,1-.36.69l-2.24,1.73a.89.89,0,0,1-.41.18l-2.28.39a1,1,0,0,1-1.08-.77Z"/><path class="cls-1" d="M47.31,39l-.61-.54-1-.94a.79.79,0,0,0-.31-.2s-2.2-1.27-2.5-1c-.13.12.29.66.29.66l1.26,1-1.9-.32a1,1,0,0,1-.33-.13s-1.18-1.19-1.57-1,.07,1.38.07,1.38a.92.92,0,0,0,.36.7l2.24,1.72a.8.8,0,0,0,.41.18L46,40.9a.94.94,0,0,0,1.08-.77Z"/><rect class="cls-2" x="24.78" y="40.49" width="28.04" height="2.87"/><polygon class="cls-1" points="11.47 29.96 14.54 30.54 15.38 27.16 12.31 26.57 11.47 29.96"/><path class="cls-3" d="M33.39,71.16c-6.07,0-6.88.18-8,.07-.93-.08.23-3.72.23-3.72l3.17.07a10.94,10.94,0,0,0,3.9,2.1C33.75,70,33.87,71.16,33.39,71.16Z"/><path class="cls-4" d="M14.69,47.25l10.14,1.33a2.67,2.67,0,0,1,2.28,1.59l2.48,17.41-4.87-.07L23,53.84s-9.76.53-13.33.25c-3.17-.25-2.07-4.16-2-5.61C7.7,48.32,14.69,47.25,14.69,47.25Z"/><path class="cls-3" d="M7.53,48.46S6.7,41.07,10,30.26c.66-2.18,3.73-2,6.26.28,2.11,1.93,8.12,6.38,8.12,6.38l7,1.27v2.3l-7.91.1c-.46,0-7.24-3.18-7.24-3.18s-1.76,9.67-1.8,9.84C14.41,47.25,9.51,48.18,7.53,48.46Z"/><path class="cls-1" d="M13.82,24.62s-.83.22-.77-1.49,1.28,0,1.76-.16c.83-.23.55-2.68,1.21-3.23.29-.25.72-.14,1.48-.41a1.76,1.76,0,0,0,.79-.68,4.42,4.42,0,0,1,.44.8,18.44,18.44,0,0,1,.67,2.29c.48,3.19-.29,5.1-2.43,6h0c-1.72.72-3.3.34-4.88-1.17C13.7,27.06,13.82,24.62,13.82,24.62Z"/><path class="cls-4" d="M9.69,23.23c-.38-2.53-.51-4.58,1.78-6.18s7.14-.57,7.15,1.6a.91.91,0,0,1-.61.79c-.76.27-1.7,0-2,.3-.66.55-.38,3-1.21,3.23-.48.13-1.71-1.62-1.76.16s.77,1.49.77,1.49-.12,2.44-1.77,2C11.66,26.21,10,25,9.69,23.23Z"/><path class="cls-5" d="M23.37,58.51H3.13v0a4.58,4.58,0,0,1,4.58-4.59H18.79a4.58,4.58,0,0,1,4.58,4.59Z"/><path class="cls-5" d="M3.18,57.8,0,28.94H.05c2.51-.28,5,3.35,5.5,8.1L6.84,48.69c.52,4.75-1.1,8.83-3.61,9.11Z"/><rect class="cls-5" x="12.46" y="57.16" width="1.58" height="11.68"/><path class="cls-5" d="M18.84,71.27H7.66v0a3,3,0,0,1,3-3h5.1a3,3,0,0,1,3,3Z"/><polygon class="cls-1" points="66.12 29.96 63.05 30.54 62.21 27.16 65.28 26.57 66.12 29.96"/><path class="cls-3" d="M44.2,71.16c6.07,0,6.88.18,8,.07.93-.08-.23-3.72-.23-3.72l-3.17.07a10.82,10.82,0,0,1-3.9,2.1C43.85,70,43.72,71.16,44.2,71.16Z"/><path class="cls-4" d="M62.9,47.25,52.76,48.58a2.67,2.67,0,0,0-2.28,1.59L48,67.58l4.87-.07,1.72-13.67s9.76.53,13.33.25c3.17-.25,2.07-4.16,2-5.61C69.89,48.32,62.9,47.25,62.9,47.25Z"/><path class="cls-6" d="M70.06,48.46s.83-7.39-2.42-18.2c-.66-2.18-3.72-2-6.26.28-2.11,1.93-8.12,6.38-8.12,6.38l-7,1.27v2.3l7.91.1c.46,0,7.24-3.18,7.24-3.18s1.76,9.67,1.8,9.84C63.18,47.25,68.08,48.18,70.06,48.46Z"/><path class="cls-1" d="M63.77,24.62s.83.22.78-1.49-1.29,0-1.77-.16c-.83-.23-.55-2.68-1.2-3.23-.3-.25-.73-.14-1.49-.41a1.81,1.81,0,0,1-.79-.68,4.42,4.42,0,0,0-.44.8,18.44,18.44,0,0,0-.67,2.29c-.48,3.19.29,5.1,2.43,6h0c1.72.72,3.3.34,4.89-1.17C63.89,27.06,63.77,24.62,63.77,24.62Z"/><path class="cls-4" d="M67.9,23.23c.38-2.53.51-4.58-1.78-6.18S59,16.48,59,18.65a.91.91,0,0,0,.6.79c.76.27,1.7,0,2,.3.65.55.37,3,1.2,3.23.48.13,1.71-1.62,1.77.16s-.78,1.49-.78,1.49.12,2.44,1.78,2C65.93,26.21,67.63,25,67.9,23.23Z"/><path class="cls-5" d="M54.22,58.51H74.46v0a4.58,4.58,0,0,0-4.58-4.59H58.8a4.58,4.58,0,0,0-4.58,4.59Z"/><path class="cls-5" d="M74.41,57.8l3.18-28.86h0c-2.52-.28-5,3.35-5.51,8.1L70.76,48.69c-.53,4.75,1.09,8.83,3.61,9.11Z"/><rect class="cls-5" x="63.55" y="57.16" width="1.58" height="11.68"/><path class="cls-5" d="M58.75,71.27H69.93v0a3,3,0,0,0-3-3h-5.1a3,3,0,0,0-3,3Z"/><rect class="cls-5" x="30.37" y="43" width="16.85" height="28.27"/><rect class="cls-7" x="36.39" y="13.78" width="17.94" height="14.9" rx="6.55" ry="6.55"/><polygon class="cls-7" points="57.77 27.8 54.17 23.55 48.88 25.9 57.77 27.8"/><rect class="cls-8" x="22.35" width="17.94" height="14.9" rx="6.55" ry="6.55"/><polygon class="cls-8" points="18.9 14.02 22.51 9.77 27.8 12.12 18.9 14.02"/><path class="cls-9" d="M31,11.08h0a3,3,0,0,1-3-3V6a3,3,0,0,1,6,0V8.08A3,3,0,0,1,31,11.08Zm0-6.8A1.73,1.73,0,0,0,29.24,6V8.08A1.72,1.72,0,0,0,31,9.8h0a1.72,1.72,0,0,0,1.72-1.72V6A1.72,1.72,0,0,0,31,4.28Z"/><path class="cls-9" d="M34,11.9a.63.63,0,0,1-.46-.19L31,9.09a.64.64,0,1,1,.91-.91l2.62,2.62a.65.65,0,0,1,0,.91A.63.63,0,0,1,34,11.9Z"/><path class="cls-9" d="M42.72,25.14a.52.52,0,0,1-.24-.05.63.63,0,0,1-.35-.83l2.64-6.54a.64.64,0,0,1,1.18,0l2.64,6.54a.64.64,0,1,1-1.18.48l-2-5.07-2,5.07A.66.66,0,0,1,42.72,25.14Z"/><path class="cls-9" d="M46.83,22.86H43.64a.64.64,0,0,1,0-1.28h3.19a.64.64,0,0,1,0,1.28Z"/></g></g></svg>