<?xml version="1.0" encoding="utf-8"?>
<!-- Generator: Adobe Illustrator 24.1.3, SVG Export Plug-In . SVG Version: 6.00 Build 0)  -->
<svg version="1.1" xmlns="http://www.w3.org/2000/svg" xmlns:xlink="http://www.w3.org/1999/xlink" x="0px" y="0px"
	 viewBox="0 0 179 232" style="enable-background:new 0 0 179 232;" xml:space="preserve">
<style type="text/css">
	.st0{fill:#2A78A0;}
	.st1{fill:none;stroke:#2A78A0;stroke-width:3;stroke-miterlimit:10;}
	.st2{fill:none;}
	.st3{fill:#EF7B10;}
	.st4{fill:#1D1D1B;}
	.st5{enable-background:new    ;}
	.st6{clip-path:url(#SVGID_2_);}
	.st7{clip-path:url(#SVGID_4_);fill:#FFFFFF;}
	.st8{fill:#FFFFFF;}
	.st9{display:none;}
	.st10{display:inline;fill:#2A78A0;}
	.st11{display:inline;fill:none;stroke:#2A78A0;stroke-width:3;stroke-miterlimit:10;}
	.st12{display:inline;}
	.st13{fill:#B20838;}
	.st14{fill:none;stroke:#FFFFFF;stroke-width:0.5;}
	.st15{display:inline;fill:#A5565F;}
	.st16{display:inline;fill:#FFFFFF;}
	.st17{fill:#FFFFFF;stroke:#FFFFFF;stroke-width:0.1515;}
	.st18{fill:#FFFFFF;stroke:#FFFFFF;stroke-width:0.0758;}
	.st19{fill:#A5565F;stroke:#A5565F;stroke-width:0.0758;}
	.st20{fill:#A5565F;}
	.st21{clip-path:url(#SVGID_6_);}
	.st22{fill:none;stroke:#FFFFFF;stroke-width:0.75;stroke-miterlimit:10;}
	.st23{display:inline;fill:#776441;}
</style>
<g id="Layer_1">
	<path class="st0" d="M17.88,231.05c0,0-15.88,0-15.88-19.7s15.88-19.7,15.88-19.7h142.91c0,0,15.88,0,15.88,19.7
		s-15.88,19.7-15.88,19.7H17.88z"/>
	<path class="st1" d="M164.67,2H14C7.373,2,2,7.373,2,14v150.67c0,6.627,5.373,12,12,12h150.67c6.627,0,12-5.373,12-12V14
		C176.67,7.373,171.297,2,164.67,2z"/>
	<rect x="-321" y="62" class="st2" width="158" height="56"/>
	<g>
		<path class="st3" d="M20.192,105.637c2.223,2.809,4.82,5.348,7.744,7.532c2.892-2.156,5.504-4.677,7.756-7.511L27.93,98.11
			L20.192,105.637z"/>
		<path class="st3" d="M16.581,100.239l11.357-10.911l11.379,10.939c1.889-3.359,3.324-7.036,4.207-10.964
			c0.04-0.187,0.073-0.371,0.113-0.557H12.249C13.096,92.791,14.57,96.66,16.581,100.239"/>
		<path class="st3" d="M16.573,100.239c1.059,1.887,2.269,3.691,3.619,5.399l7.738-7.528l7.762,7.548
			c1.341-1.689,2.551-3.489,3.617-5.391L27.93,89.328L16.573,100.239z"/>
		<path class="st4" d="M35.658,105.125l-7.477-7.273L27.93,97.61l-0.249,0.241l-7.455,7.255c-1.184-1.535-2.263-3.146-3.208-4.801
			L27.93,89.828l10.932,10.508C37.909,102.005,36.831,103.613,35.658,105.125"/>
		<path class="st4" d="M27.93,89.33L39.31,100.27c-1.066,1.899-2.277,3.699-3.617,5.387l-7.762-7.548l-7.738,7.529
			c-1.351-1.707-2.56-3.511-3.619-5.399L27.93,89.33 M27.93,90.319l-10.464,10.049c0.837,1.446,1.777,2.858,2.8,4.204l7.166-6.974
			l0.497-0.483l0.497,0.483l7.192,6.993c1.017-1.335,1.954-2.741,2.797-4.193L27.93,90.319z"/>
		<path class="st4" d="M44.344,77.113c-1.335,0.405-2.751,0.625-4.224,0.625c-5.192,0-9.729-2.727-12.176-6.79
			c-2.451,4.062-6.985,6.79-12.18,6.79c-1.469,0-2.886-0.22-4.218-0.621c-0.348,3.964-0.094,7.875,0.692,11.637h31.389
			C44.45,84.83,44.671,80.92,44.344,77.113"/>
		<g class="st5">
			<g>
				<defs>
					<rect id="SVGID_1_" x="20.208" y="78.539" width="15.466" height="9.122"/>
				</defs>
				<clipPath id="SVGID_2_">
					<use xlink:href="#SVGID_1_"  style="overflow:visible;"/>
				</clipPath>
				<g class="st6">
					<defs>
						<rect id="SVGID_3_" x="20.208" y="78.539" width="15.468" height="9.122"/>
					</defs>
					<clipPath id="SVGID_4_">
						<use xlink:href="#SVGID_3_"  style="overflow:visible;"/>
					</clipPath>
					<path class="st7" d="M35.675,81.914v-1.335h-0.816v-0.94l-0.855-0.239h-0.062v-0.8c0,0-0.295,0.356-1.647,0.356
						c-1.283,0-2.035-0.414-3.052-0.414c-0.98,0-1.281,0.559-1.281,0.559v0.323h-0.035V79.1c0,0-0.303-0.559-1.279-0.559
						c-1.02,0-1.771,0.416-3.053,0.416c-1.352,0-1.586-0.354-1.586-0.354v0.84h-0.055l-0.926,0.195v0.94h-0.821v1.335h0.821v2.158
						h-0.821v1.337h0.821v1.66c0,0,1.371,0.212,2.641,0.212c1.501,0,2.367-0.216,3.341-0.236v0.421c0,0,0.393,0.193,0.916,0.193
						c0.53,0,0.949-0.193,0.949-0.193v-0.421c0.973,0.02,1.84,0.236,3.348,0.236c1.264,0,2.637-0.212,2.637-0.212v-1.66h0.816
						v-1.337h-0.816v-2.158H35.675z"/>
				</g>
			</g>
		</g>
		<path class="st4" d="M34.074,79.312l0.002-1.023l-0.247,0.261c-0.002,0.003-0.307,0.307-1.544,0.307l-1.676-0.223l-1.377-0.191
			c-0.756,0-1.132,0.309-1.299,0.495c-0.164-0.185-0.544-0.495-1.298-0.495l-1.376,0.195l-1.674,0.221
			c-1.217,0-1.472-0.291-1.473-0.293l-0.252-0.311l-0.003,0.395v0.701l-0.994,0.209v7.67l0.12,0.018
			c0.014,0.003,1.398,0.216,2.665,0.216c1.25,0,2.732-0.164,3.2-0.218v0.346l0.077,0.041c0.018,0.009,0.429,0.209,0.982,0.209
			c0.553,0,0.991-0.2,1.009-0.209l0.082-0.039v-0.348c0.468,0.054,1.95,0.218,3.206,0.218c1.264,0,2.649-0.212,2.661-0.216
			l0.121-0.018v-7.663L34.074,79.312z M28.075,79.214c0.011-0.018,0.283-0.487,1.157-0.487l1.316,0.186l1.737,0.228
			c0.842,0,1.27-0.13,1.507-0.243v7.248c-0.016-0.036-0.359,0.223-1.507,0.223l-1.676-0.223l-1.377-0.191
			c-0.597,0-0.949,0.191-1.157,0.363V79.214z M22.139,78.91c0.228,0.114,0.638,0.234,1.446,0.234l1.735-0.229l1.315-0.189
			c0.867,0,1.141,0.464,1.158,0.487v7.107c-0.213-0.175-0.565-0.366-1.168-0.366l-1.376,0.193l-1.664,0.221
			c-1.217,0-1.472-0.293-1.473-0.297C22.111,86.073,22.137,79.394,22.139,78.91 M34.699,86.981c-0.349,0.05-1.46,0.197-2.497,0.197
			c-1.484,0-3.312-0.232-3.33-0.234l-0.161-0.025v0.489c-0.139,0.052-0.448,0.148-0.806,0.148c-0.353,0-0.642-0.096-0.775-0.144
			v-0.493l-0.159,0.025c-0.021,0.001-1.85,0.234-3.324,0.234c-1.039,0-2.152-0.146-2.501-0.197v-7.189
			c0.129-0.027,0.52-0.111,0.71-0.148v6.511c0.069,0.152,0.367,0.498,1.729,0.498l1.723-0.225l1.316-0.191
			c0.881,0,1.157,0.468,1.17,0.489l0.04-0.025h0.203l0.038,0.025c0.011-0.022,0.283-0.489,1.157-0.489l1.316,0.187l1.737,0.229
			c1.38,0,1.725-0.362,1.76-0.405l0.027-6.638c0.181,0.05,0.512,0.141,0.627,0.177V86.981z"/>
		<path class="st4" d="M24.158,80.187c-0.112,0.009-0.185,0.068-0.218,0.143l-0.457,1.017c0,0-0.022,0.016-0.035,0.016
			c-0.015,0-0.033-0.016-0.042-0.048c-0.011-0.036-0.068-0.179-0.186-0.457l-0.148-0.33c-0.053-0.123-0.096-0.203-0.11-0.229
			c-0.053-0.091-0.119-0.101-0.192-0.112c-0.009-0.011-0.009-0.022-0.009-0.029c0-0.012,0-0.018,0.007-0.034h0.075
			c0.085,0,0.157,0.009,0.223,0.009c0.075,0,0.199-0.011,0.284-0.011h0.05c0.007,0.002,0.011,0.022,0.011,0.029
			c0,0.007,0,0.025-0.006,0.032c-0.055,0.007-0.181,0.004-0.181,0.082c0,0.016,0.002,0.048,0.011,0.068l0.3,0.714l0.251-0.591
			c0.031-0.068,0.035-0.127,0.035-0.157c0-0.068-0.05-0.096-0.172-0.112c-0.003-0.009-0.009-0.02-0.009-0.029
			c0-0.009,0.005-0.025,0.009-0.036h0.035c0.055,0,0.111,0.011,0.237,0.011c0.022,0,0.108-0.009,0.148-0.009h0.088
			c0.005,0.014,0.011,0.02,0.011,0.03C24.169,80.162,24.164,80.178,24.158,80.187"/>
		<path class="st4" d="M25.43,81.325c-0.365,0-0.562-0.009-0.612-0.009c-0.038,0-0.129-0.002-0.173-0.002
			c-0.05,0-0.167,0.007-0.295,0.007l-0.073-0.002c-0.005-0.011-0.005-0.016-0.005-0.027c0-0.009,0-0.022,0.002-0.036
			c0.099-0.007,0.168-0.023,0.185-0.038c0.02-0.025,0.035-0.075,0.04-0.184c0-0.055,0.002-0.116,0.002-0.18
			c0-0.093-0.002-0.205-0.002-0.336v-0.191c-0.004-0.132-0.068-0.132-0.205-0.148c-0.002-0.012-0.005-0.021-0.005-0.03
			c0-0.007,0.003-0.029,0.012-0.032h0.067c0.044,0,0.165,0.003,0.393,0.003c0.208,0,0.411,0.002,0.457,0.002
			c0.027,0,0.108,0.005,0.124,0.005c0.028,0,0.04,0.002,0.04,0.027l0.016,0.271c-0.016,0.011-0.02,0.014-0.034,0.014
			c-0.012,0-0.021,0-0.026-0.003c-0.082-0.138-0.121-0.166-0.183-0.211c-0.022-0.014-0.055-0.025-0.106-0.03
			c-0.016,0-0.058-0.004-0.161-0.004c-0.082,0-0.126,0.004-0.137,0.004c-0.013,0-0.011,0-0.016,0.048
			c-0.002,0.027-0.005,0.084-0.005,0.241v0.156h0.042c0.053,0,0.106-0.004,0.137-0.013c0.045-0.012,0.096-0.044,0.122-0.085
			c0.011-0.015,0.022-0.081,0.028-0.1c0.007-0.005,0.021-0.007,0.038-0.007c0.011,0,0.022,0.002,0.031,0.007
			c-0.004,0.048-0.011,0.141-0.011,0.257c0,0.06,0.005,0.189,0.005,0.239c-0.013,0.009-0.018,0.009-0.033,0.009
			c-0.009,0-0.025,0-0.035-0.001c-0.009-0.104-0.027-0.173-0.113-0.207c-0.047-0.021-0.086-0.027-0.135-0.027
			c-0.024,0-0.055,0.002-0.078,0.005v0.314c0,0.073,0.005,0.118,0.016,0.143c0.007,0.019,0.037,0.06,0.071,0.066
			c0.017,0.004,0.049,0.009,0.112,0.009H25.1c0.044,0,0.107-0.005,0.13-0.018c0.042-0.029,0.154-0.15,0.192-0.259
			c0.019-0.007,0.026-0.007,0.038-0.007c0.009,0,0.02,0.004,0.035,0.009v0.318C25.494,81.322,25.474,81.325,25.43,81.325"/>
		<path class="st4" d="M26.878,80.503c-0.009,0-0.021-0.004-0.033-0.004c-0.03-0.075-0.061-0.143-0.089-0.178
			c-0.05-0.063-0.097-0.102-0.223-0.116c-0.028-0.003-0.096-0.003-0.117-0.003l-0.002,0.532c0,0.084,0,0.18,0.002,0.364
			c0.003,0.139,0.063,0.139,0.208,0.159c0.009,0.014,0.011,0.027,0.011,0.034c0,0.013-0.002,0.018-0.007,0.031h-0.053
			c-0.082,0-0.251-0.005-0.303-0.005c-0.036,0-0.22,0.007-0.307,0.007c-0.007-0.015-0.009-0.015-0.009-0.032
			c0-0.007,0.002-0.02,0.005-0.032c0.194-0.014,0.213-0.048,0.219-0.11c0.006-0.038,0.006-0.199,0.006-0.359v-0.438
			c0-0.057-0.004-0.114-0.012-0.15c-0.038,0-0.155,0-0.186,0.015c-0.098,0.036-0.168,0.116-0.243,0.264
			c-0.009,0.001-0.024,0.001-0.029,0.001c-0.013,0-0.023-0.001-0.03-0.009v-0.311c0-0.027,0.003-0.036,0.035-0.036
			c0.029,0,0.073,0.003,0.132,0.003c0.044,0,0.22,0.002,0.438,0.002c0.289,0,0.503-0.007,0.558-0.007c0.03,0,0.049,0,0.059,0.011
			c0.004,0.005,0,0.027,0,0.043v0.309C26.903,80.499,26.889,80.503,26.878,80.503"/>
		<path class="st4" d="M24.099,82.387c-0.011,0-0.021-0.004-0.037-0.004c-0.026-0.075-0.056-0.143-0.089-0.178
			c-0.046-0.063-0.097-0.102-0.221-0.116c-0.029-0.004-0.097-0.004-0.117-0.004l-0.003,0.532c0,0.084,0,0.181,0.003,0.364
			c0.002,0.139,0.066,0.139,0.21,0.161c0.01,0.013,0.01,0.025,0.01,0.032c0,0.012,0,0.018-0.006,0.03h-0.053
			c-0.085,0-0.254-0.005-0.303-0.005c-0.036,0-0.219,0.007-0.31,0.007c-0.004-0.015-0.005-0.015-0.005-0.032
			c0-0.007,0.002-0.019,0.004-0.03c0.192-0.016,0.211-0.05,0.221-0.112c0.002-0.038,0.002-0.198,0.002-0.359v-0.437
			c0-0.057,0-0.114-0.007-0.15c-0.039,0-0.158,0-0.191,0.015c-0.096,0.036-0.164,0.116-0.239,0.264
			c-0.011,0.001-0.025,0.001-0.033,0.001c-0.011,0-0.02-0.001-0.029-0.009v-0.311c0-0.027,0.005-0.036,0.036-0.036
			c0.031,0,0.072,0.003,0.131,0.003c0.045,0,0.221,0.002,0.441,0.002c0.285,0,0.503-0.007,0.557-0.007c0.03,0,0.049,0,0.059,0.011
			c0.003,0.006,0,0.027,0,0.043v0.309C24.122,82.384,24.11,82.387,24.099,82.387"/>
		<path class="st4" d="M25.474,83.21c-0.361,0-0.563-0.009-0.61-0.009c-0.038,0-0.128-0.002-0.175-0.002
			c-0.048,0-0.167,0.007-0.293,0.007l-0.071-0.002c-0.007-0.011-0.009-0.016-0.009-0.027c0-0.009,0-0.022,0.005-0.034
			c0.099-0.009,0.168-0.025,0.181-0.039c0.023-0.025,0.035-0.075,0.04-0.182c0.002-0.057,0.006-0.118,0.006-0.182
			c0-0.093-0.004-0.203-0.004-0.335c0-0.096-0.002-0.152-0.002-0.191c-0.003-0.13-0.064-0.13-0.201-0.148
			c-0.006-0.013-0.01-0.022-0.01-0.03c0-0.007,0.005-0.027,0.015-0.03h0.063c0.048,0,0.165,0.003,0.394,0.003
			c0.212,0,0.411,0.002,0.461,0.002c0.023,0,0.108,0.003,0.12,0.003c0.031,0,0.042,0.002,0.042,0.027l0.014,0.273
			c-0.014,0.009-0.02,0.013-0.034,0.013c-0.008,0-0.017,0-0.026-0.003c-0.078-0.138-0.117-0.164-0.183-0.21
			c-0.022-0.015-0.051-0.025-0.103-0.029c-0.016,0-0.058-0.004-0.164-0.004c-0.082,0-0.126,0.004-0.135,0.004
			c-0.015,0-0.013,0-0.019,0.046c0,0.029-0.002,0.084-0.002,0.241v0.156h0.038c0.055,0,0.108-0.003,0.138-0.012
			c0.049-0.013,0.096-0.044,0.124-0.086c0.009-0.014,0.021-0.081,0.026-0.1c0.011-0.005,0.025-0.009,0.038-0.009
			c0.013,0,0.026,0.004,0.033,0.009c-0.002,0.048-0.013,0.141-0.013,0.257c0,0.061,0.007,0.189,0.007,0.239
			c-0.014,0.009-0.016,0.009-0.033,0.009c-0.011,0-0.025,0-0.036-0.002c-0.009-0.103-0.023-0.173-0.113-0.207
			c-0.047-0.021-0.086-0.027-0.131-0.027c-0.024,0-0.056,0.002-0.08,0.005v0.316c0,0.073,0.005,0.116,0.014,0.141
			c0.01,0.019,0.038,0.06,0.071,0.066c0.017,0.003,0.051,0.009,0.111,0.009h0.178c0.044,0,0.103-0.005,0.126-0.018
			c0.045-0.029,0.157-0.15,0.195-0.259c0.015-0.007,0.026-0.007,0.035-0.007c0.009,0,0.024,0.004,0.035,0.009v0.318
			C25.539,83.207,25.518,83.21,25.474,83.21"/>
		<path class="st4" d="M26.321,83.238c-0.101,0-0.21-0.039-0.278-0.073c-0.011-0.005-0.034-0.01-0.045-0.01
			c-0.013,0-0.049,0.019-0.088,0.048c-0.029,0-0.062-0.014-0.071-0.037c0-0.023,0.024-0.098,0.024-0.146
			c0-0.029-0.01-0.166-0.012-0.195c0.012-0.018,0.033-0.027,0.052-0.027h0.02c0.026,0.052,0.075,0.182,0.112,0.234
			c0.077,0.085,0.186,0.127,0.267,0.127c0.09,0,0.157-0.016,0.195-0.059c0.055-0.054,0.068-0.085,0.068-0.144
			c0-0.043-0.009-0.082-0.035-0.109c-0.031-0.039-0.056-0.055-0.124-0.089c-0.055-0.025-0.239-0.071-0.307-0.109
			c-0.084-0.037-0.124-0.073-0.166-0.116c-0.052-0.064-0.07-0.152-0.07-0.219c0-0.193,0.152-0.34,0.369-0.34
			c0.081,0,0.192,0.011,0.287,0.084c0.02-0.021,0.045-0.046,0.071-0.068c0.035,0,0.058,0.019,0.062,0.032
			c-0.004,0.027-0.018,0.104-0.018,0.164c0,0.032,0.018,0.159,0.018,0.18c-0.012,0.005-0.027,0.015-0.047,0.015
			c-0.005,0-0.014-0.002-0.02-0.003c-0.035-0.059-0.066-0.157-0.103-0.211c-0.054-0.075-0.132-0.102-0.239-0.102
			c-0.119,0-0.216,0.077-0.216,0.178c0,0.098,0.08,0.146,0.146,0.177c0.051,0.018,0.111,0.043,0.181,0.064
			c0.089,0.03,0.157,0.054,0.192,0.071c0.14,0.073,0.199,0.177,0.199,0.318C26.745,83.096,26.545,83.238,26.321,83.238"/>
		<path class="st4" d="M24.584,85.099c-0.366,0-0.563-0.009-0.612-0.009c-0.038,0-0.13-0.001-0.174-0.001
			c-0.049,0-0.166,0.007-0.294,0.007l-0.073-0.001c-0.006-0.011-0.006-0.016-0.006-0.027c0-0.009,0-0.023,0.003-0.036
			c0.098-0.007,0.168-0.023,0.184-0.037c0.021-0.027,0.035-0.075,0.04-0.184c0-0.055,0.002-0.116,0.002-0.18
			c0-0.093-0.002-0.205-0.002-0.336v-0.191c-0.004-0.132-0.067-0.132-0.204-0.148c-0.002-0.012-0.005-0.021-0.005-0.03
			c0-0.007,0.003-0.029,0.011-0.032h0.068c0.044,0,0.164,0.003,0.393,0.003c0.209,0,0.411,0.002,0.457,0.002
			c0.028,0,0.108,0.003,0.125,0.003c0.027,0,0.04,0.002,0.04,0.029l0.016,0.271c-0.016,0.009-0.02,0.014-0.035,0.014
			c-0.011,0-0.02,0-0.026-0.005c-0.082-0.136-0.12-0.164-0.182-0.209c-0.023-0.014-0.056-0.027-0.106-0.031
			c-0.017,0-0.059-0.003-0.161-0.003c-0.083,0-0.127,0.003-0.137,0.003c-0.013,0-0.011,0-0.016,0.048
			c-0.002,0.027-0.006,0.084-0.006,0.241v0.156h0.043c0.053,0,0.105-0.004,0.136-0.013c0.045-0.012,0.097-0.046,0.122-0.086
			c0.012-0.014,0.023-0.08,0.028-0.1c0.007-0.007,0.022-0.011,0.038-0.011c0.011,0,0.022,0.004,0.031,0.011
			c-0.004,0.048-0.011,0.14-0.011,0.257c0,0.061,0.005,0.187,0.005,0.24c-0.014,0.009-0.019,0.009-0.033,0.009
			c-0.009,0-0.026,0-0.035-0.002c-0.009-0.103-0.028-0.173-0.113-0.209c-0.047-0.02-0.086-0.025-0.136-0.025
			c-0.023,0-0.054,0.002-0.078,0.005v0.314c0,0.073,0.006,0.118,0.017,0.142c0.007,0.018,0.037,0.061,0.071,0.066
			c0.016,0.003,0.049,0.009,0.112,0.009h0.173c0.044,0,0.108-0.006,0.13-0.018c0.042-0.029,0.154-0.15,0.192-0.261
			c0.018-0.007,0.025-0.007,0.038-0.007c0.009,0,0.02,0.004,0.035,0.011v0.318C24.648,85.095,24.627,85.099,24.584,85.099"/>
		<path class="st4" d="M26.338,83.954c-0.123,0.005-0.228,0.073-0.228,0.268l-0.002,0.618c0,0.025,0.011,0.2,0.011,0.268
			c-0.021,0.009-0.04,0.018-0.049,0.018c-0.008,0-0.019-0.009-0.033-0.018l-0.849-0.914l0.008,0.186l0.004,0.337
			c0,0.025,0.005,0.089,0.011,0.138c0.006,0.076,0.03,0.099,0.063,0.126c0.04,0.037,0.109,0.048,0.161,0.054
			c0.005,0.009,0.007,0.018,0.007,0.027c0,0.004-0.002,0.022-0.011,0.032h-0.092c-0.078,0-0.138-0.002-0.219-0.002
			c-0.055,0-0.128,0.005-0.181,0.005h-0.04c-0.002-0.009-0.002-0.023-0.002-0.029c0-0.007,0-0.016,0.005-0.03
			c0.06-0.005,0.157-0.034,0.192-0.084c0.014-0.03,0.02-0.085,0.02-0.144v-0.432c0-0.07-0.004-0.105-0.006-0.173
			c-0.003-0.055-0.014-0.098-0.044-0.13c-0.002-0.009-0.029-0.036-0.058-0.064c-0.026-0.023-0.094-0.041-0.135-0.059
			c-0.006-0.011-0.007-0.025-0.007-0.025c0-0.011,0.002-0.025,0.007-0.034h0.031c0.026,0,0.157,0.007,0.256,0.007h0.058
			c0.011,0.005,0.031,0.016,0.036,0.027l0.629,0.687c0.047,0.05,0.109,0.121,0.142,0.166v-0.498c0-0.064-0.004-0.112-0.007-0.137
			c-0.005-0.05-0.014-0.097-0.035-0.127c-0.02-0.034-0.136-0.048-0.197-0.062c-0.007-0.011-0.007-0.025-0.007-0.037
			c0-0.006,0-0.012,0.004-0.025h0.036c0.058,0,0.154,0.009,0.212,0.009c0.145,0,0.188-0.005,0.262-0.005h0.048
			c0.005,0.011,0.005,0.022,0.005,0.03C26.344,83.933,26.344,83.946,26.338,83.954"/>
		<path class="st4" d="M30.306,80.181c-0.121,0.006-0.228,0.073-0.228,0.27v0.616c0,0.025,0.009,0.2,0.009,0.268
			c-0.017,0.009-0.04,0.019-0.049,0.019c-0.008,0-0.015-0.011-0.033-0.019l-0.849-0.914l0.011,0.187l0.002,0.335
			c0,0.027,0.005,0.089,0.009,0.138c0.009,0.077,0.03,0.1,0.063,0.129c0.044,0.036,0.113,0.046,0.161,0.052
			c0.005,0.009,0.007,0.02,0.007,0.028c0,0.004-0.002,0.02-0.007,0.031h-0.095c-0.075,0-0.137-0.002-0.219-0.002
			c-0.056,0-0.127,0.005-0.178,0.005h-0.04c-0.004-0.009-0.005-0.023-0.005-0.029c0-0.005,0-0.014,0.007-0.03
			c0.058-0.005,0.155-0.034,0.19-0.084c0.016-0.03,0.02-0.086,0.02-0.145v-0.43c0-0.072,0-0.107-0.004-0.175
			c-0.002-0.054-0.016-0.098-0.042-0.128c-0.005-0.009-0.03-0.038-0.062-0.066c-0.024-0.021-0.094-0.041-0.136-0.059
			c-0.002-0.011-0.006-0.025-0.006-0.025c0-0.009,0.004-0.025,0.006-0.034h0.033c0.024,0,0.155,0.007,0.254,0.007h0.058
			c0.011,0.005,0.031,0.018,0.038,0.027l0.631,0.687c0.047,0.05,0.108,0.121,0.14,0.166v-0.498c0-0.063-0.005-0.112-0.009-0.136
			c-0.002-0.052-0.014-0.098-0.035-0.129c-0.02-0.032-0.136-0.048-0.195-0.063c-0.005-0.011-0.009-0.025-0.009-0.035
			c0-0.006,0-0.014,0.007-0.027h0.037c0.059,0,0.152,0.009,0.21,0.009c0.143,0,0.191-0.006,0.263-0.006h0.045
			c0.005,0.013,0.009,0.024,0.009,0.031C30.315,80.16,30.311,80.172,30.306,80.181"/>
		<path class="st4" d="M31.556,81.175c-0.117,0.114-0.279,0.18-0.429,0.18c-0.143,0-0.307-0.061-0.421-0.171
			c-0.127-0.121-0.181-0.282-0.181-0.459c0-0.171,0.055-0.334,0.181-0.455c0.133-0.127,0.278-0.182,0.424-0.182
			c0.104,0,0.201,0.03,0.317,0.091c0.185,0.119,0.294,0.317,0.294,0.535C31.743,80.883,31.675,81.052,31.556,81.175 M31.361,80.295
			c-0.059-0.079-0.132-0.127-0.239-0.127c-0.101,0-0.165,0.046-0.223,0.127c-0.071,0.091-0.112,0.239-0.112,0.426
			c0,0.184,0.04,0.329,0.106,0.419c0.062,0.089,0.131,0.136,0.237,0.136c0.127,0,0.201-0.062,0.26-0.166
			c0.054-0.091,0.078-0.22,0.078-0.386C31.469,80.526,31.431,80.386,31.361,80.295"/>
		<path class="st4" d="M33.265,80.187c-0.108,0.009-0.181,0.068-0.213,0.143l-0.457,1.017c0,0-0.022,0.016-0.037,0.016
			c-0.015,0-0.035-0.016-0.043-0.048c-0.011-0.036-0.065-0.179-0.188-0.457l-0.145-0.33c-0.054-0.123-0.094-0.203-0.108-0.229
			c-0.057-0.091-0.12-0.101-0.192-0.112c-0.013-0.011-0.013-0.022-0.013-0.029c0-0.012,0-0.018,0.01-0.034h0.075
			c0.084,0,0.155,0.009,0.22,0.009c0.075,0,0.2-0.011,0.287-0.011h0.047c0.012,0.002,0.016,0.022,0.016,0.029
			c0,0.007,0,0.025-0.008,0.032c-0.056,0.007-0.18,0.004-0.18,0.082c0,0.016,0,0.048,0.011,0.068l0.298,0.714l0.254-0.591
			c0.028-0.068,0.031-0.127,0.031-0.157c0-0.068-0.049-0.096-0.171-0.112c-0.004-0.009-0.007-0.02-0.007-0.029
			c0-0.009,0.004-0.025,0.007-0.036h0.035c0.055,0,0.112,0.011,0.239,0.011c0.021,0,0.108-0.009,0.15-0.009h0.087
			c0.005,0.014,0.007,0.02,0.007,0.03C33.276,80.162,33.275,80.178,33.265,80.187"/>
		<path class="st4" d="M29.913,82.387c-0.011,0-0.02-0.004-0.036-0.004c-0.026-0.075-0.057-0.143-0.09-0.178
			c-0.046-0.063-0.096-0.102-0.222-0.116c-0.028-0.004-0.096-0.004-0.117-0.004l-0.003,0.532c0,0.084,0,0.181,0.003,0.364
			c0.002,0.139,0.066,0.139,0.211,0.161c0.009,0.013,0.009,0.025,0.009,0.032c0,0.012,0,0.018-0.005,0.03h-0.054
			c-0.086,0-0.253-0.005-0.303-0.005c-0.036,0-0.219,0.007-0.311,0.007c-0.004-0.015-0.005-0.015-0.005-0.032
			c0-0.007,0.002-0.019,0.004-0.03c0.192-0.016,0.212-0.05,0.221-0.112c0.002-0.038,0.002-0.198,0.002-0.359v-0.437
			c0-0.057,0-0.114-0.007-0.15c-0.038,0-0.157,0-0.19,0.015c-0.097,0.036-0.164,0.116-0.239,0.264
			c-0.012,0.001-0.026,0.001-0.033,0.001c-0.011,0-0.021-0.001-0.03-0.009v-0.311c0-0.027,0.005-0.036,0.036-0.036
			c0.031,0,0.073,0.003,0.131,0.003c0.047,0,0.221,0.002,0.441,0.002c0.285,0,0.502-0.007,0.558-0.007c0.029,0,0.049,0,0.058,0.011
			c0.003,0.006,0,0.027,0,0.043v0.309C29.935,82.384,29.924,82.387,29.913,82.387"/>
		<path class="st4" d="M31.356,83.212H31.26c-0.06,0-0.131-0.009-0.202-0.009c-0.115,0-0.258,0.009-0.314,0.009
			c-0.005-0.007-0.009-0.018-0.009-0.034c0-0.005,0.004-0.018,0.007-0.025c0.117-0.005,0.163-0.025,0.163-0.073
			c0-0.019,0-0.058-0.037-0.155c-0.037-0.089-0.055-0.129-0.064-0.152c-0.003-0.009-0.007-0.013-0.032-0.013h-0.38
			c-0.024,0.029-0.055,0.114-0.088,0.23c-0.009,0.03-0.009,0.059-0.009,0.07c0,0.039,0.037,0.083,0.17,0.087
			c0.009,0.012,0.009,0.025,0.009,0.03c0,0.011,0,0.019-0.004,0.03h-0.033c-0.09,0-0.114-0.006-0.209-0.006
			c-0.062,0-0.208,0.006-0.257,0.006c-0.005-0.011-0.008-0.015-0.008-0.027c0-0.007,0-0.016,0.008-0.028
			c0.07-0.018,0.136-0.036,0.171-0.091c0.019-0.025,0.082-0.137,0.152-0.31c0.068-0.161,0.15-0.364,0.185-0.448
			c0.049-0.105,0.068-0.139,0.084-0.175c0.024-0.054,0.053-0.107,0.062-0.127c0.013-0.015,0.038-0.022,0.049-0.022
			c0.019,0,0.044,0.011,0.053,0.025c0.012,0.021,0.024,0.044,0.028,0.059c0.07,0.166,0.124,0.314,0.212,0.519
			c0.044,0.104,0.065,0.171,0.113,0.279c0.033,0.068,0.053,0.121,0.086,0.182c0.045,0.091,0.117,0.091,0.19,0.111
			c0.002,0.009,0.011,0.018,0.011,0.026C31.366,83.194,31.361,83.199,31.356,83.212 M30.595,82.255h-0.003
			c-0.026,0.048-0.07,0.15-0.086,0.197c-0.062,0.155-0.087,0.209-0.097,0.23h0.359C30.742,82.609,30.648,82.389,30.595,82.255"/>
		<path class="st4" d="M33.216,83.21l-0.488-0.005h-0.134c-0.003-0.011-0.007-0.023-0.007-0.03c0-0.016,0.004-0.018,0.01-0.03
			c0.027-0.001,0.091,0,0.12-0.012c0.051-0.022,0.07-0.071,0.07-0.145v-0.699v-0.166h-0.002l-0.256,0.564
			c-0.029,0.06-0.062,0.126-0.09,0.195c-0.058,0.13-0.087,0.219-0.105,0.273c-0.01,0.021-0.028,0.021-0.038,0.021
			c-0.017,0-0.027-0.005-0.036-0.032c-0.033-0.073-0.057-0.121-0.068-0.15l-0.401-0.883h-0.009v0.225l0.009,0.562
			c0,0.173,0.088,0.254,0.225,0.254c0.005,0.009,0.012,0.025,0.012,0.028c0,0.007-0.002,0.018-0.008,0.029
			c-0.009,0-0.037,0.003-0.062,0.003c-0.017,0-0.105-0.009-0.234-0.009c-0.035,0-0.111,0.003-0.169,0.003h-0.082
			c-0.004-0.011-0.005-0.019-0.005-0.03c0-0.002,0.002-0.016,0.005-0.025c0.035-0.007,0.152-0.036,0.176-0.061
			c0.025-0.027,0.049-0.075,0.049-0.197v-0.282v-0.336c-0.003-0.098-0.014-0.138-0.062-0.17c-0.02-0.013-0.095-0.021-0.159-0.032
			c-0.007-0.011-0.009-0.023-0.009-0.032c0-0.007,0.002-0.02,0.009-0.032c0.045,0,0.13,0.005,0.214,0.005h0.292
			c0.014,0.007,0.017,0.015,0.026,0.031l0.358,0.814l0.064-0.162c0.057-0.13,0.138-0.33,0.251-0.539
			c0.027-0.048,0.056-0.109,0.073-0.141l0.457-0.007c0.005,0.011,0.011,0.02,0.011,0.03c0,0.011-0.002,0.018-0.009,0.028
			c-0.05,0.011-0.135,0.011-0.177,0.079c-0.015,0.025-0.024,0.044-0.024,0.143v0.582c0,0.223,0.057,0.246,0.083,0.261
			c0.014,0.011,0.083,0.018,0.122,0.018c0.005,0.012,0.009,0.019,0.009,0.032C33.224,83.196,33.219,83.199,33.216,83.21"/>
		<path class="st4" d="M29.885,84.274c-0.011,0-0.02-0.004-0.037-0.004c-0.025-0.075-0.056-0.143-0.089-0.177
			c-0.045-0.062-0.097-0.101-0.221-0.118c-0.029-0.003-0.097-0.003-0.117-0.003l-0.004,0.532c0,0.086,0,0.182,0.004,0.366
			c0.002,0.139,0.066,0.139,0.21,0.159c0.009,0.013,0.009,0.027,0.009,0.034c0,0.013,0,0.018-0.005,0.03h-0.053
			c-0.086,0-0.254-0.005-0.304-0.005c-0.036,0-0.218,0.007-0.31,0.007c-0.003-0.014-0.005-0.014-0.005-0.032
			c0-0.007,0.002-0.021,0.004-0.032c0.192-0.014,0.212-0.048,0.221-0.111c0.002-0.039,0.002-0.198,0.002-0.359v-0.439
			c0-0.055,0-0.112-0.007-0.15c-0.038,0-0.157,0-0.19,0.016c-0.097,0.036-0.164,0.116-0.239,0.264
			c-0.012,0.002-0.026,0.002-0.033,0.002c-0.012,0-0.021-0.002-0.029-0.009v-0.31c0-0.027,0.005-0.037,0.037-0.037
			c0.031,0,0.073,0.003,0.131,0.003c0.046,0,0.221,0.004,0.441,0.004c0.285,0,0.503-0.009,0.558-0.009c0.029,0,0.049,0,0.058,0.013
			c0.003,0.005,0,0.027,0,0.043v0.309C29.907,84.27,29.897,84.274,29.885,84.274"/>
		<path class="st4" d="M31.381,83.96c-0.108,0.009-0.181,0.068-0.214,0.143l-0.457,1.015c0,0-0.021,0.018-0.036,0.018
			c-0.014,0-0.035-0.018-0.042-0.048c-0.011-0.038-0.066-0.179-0.188-0.457l-0.146-0.33c-0.053-0.123-0.093-0.203-0.107-0.229
			c-0.057-0.093-0.121-0.102-0.193-0.113c-0.013-0.011-0.013-0.021-0.013-0.028c0-0.013,0-0.02,0.009-0.034h0.075
			c0.085,0,0.155,0.007,0.221,0.007c0.075,0,0.199-0.009,0.287-0.009h0.047c0.011,0.002,0.014,0.02,0.014,0.029
			c0,0.007,0,0.025-0.007,0.032c-0.056,0.007-0.181,0.003-0.181,0.082c0,0.014,0,0.048,0.012,0.068l0.297,0.712l0.254-0.589
			c0.028-0.068,0.031-0.127,0.031-0.157c0-0.068-0.049-0.098-0.172-0.113c-0.003-0.009-0.007-0.019-0.007-0.028
			c0-0.009,0.004-0.027,0.007-0.036h0.035c0.055,0,0.112,0.009,0.24,0.009c0.019,0,0.108-0.007,0.15-0.007h0.087
			c0.005,0.013,0.007,0.018,0.007,0.03C31.391,83.935,31.39,83.951,31.381,83.96"/>
		<path class="st4" d="M33.241,85.099l-0.485-0.005H32.62c-0.005-0.011-0.005-0.023-0.005-0.03c0-0.018,0-0.02,0.006-0.032
			c0.029-0.001,0.091,0,0.124-0.011c0.047-0.021,0.066-0.071,0.066-0.144v-0.7c0,0,0.003-0.13,0.003-0.166h-0.005l-0.253,0.562
			c-0.033,0.062-0.062,0.128-0.093,0.196c-0.056,0.128-0.088,0.22-0.106,0.271c-0.005,0.023-0.026,0.023-0.038,0.023
			c-0.015,0-0.026-0.005-0.037-0.034c-0.031-0.073-0.054-0.12-0.064-0.15l-0.404-0.882h-0.009v0.225l0.009,0.562
			c0.004,0.171,0.088,0.252,0.228,0.252c0.006,0.009,0.008,0.027,0.008,0.031c0,0.007,0,0.018-0.006,0.028
			c-0.011,0-0.034,0.004-0.063,0.004c-0.017,0-0.103-0.009-0.23-0.009c-0.038,0-0.115,0.004-0.17,0.004H31.5
			c-0.005-0.011-0.009-0.02-0.009-0.03c0-0.002,0.004-0.018,0.009-0.027c0.031-0.007,0.15-0.034,0.176-0.058
			c0.022-0.027,0.046-0.075,0.046-0.196l0.002-0.284l-0.002-0.334c-0.003-0.098-0.012-0.137-0.063-0.17
			c-0.02-0.014-0.095-0.023-0.157-0.032c-0.007-0.011-0.011-0.023-0.011-0.032c0-0.007,0.004-0.021,0.011-0.034
			c0.044,0,0.132,0.005,0.212,0.005h0.296c0.009,0.007,0.014,0.016,0.022,0.032l0.359,0.812l0.067-0.162
			c0.054-0.129,0.138-0.329,0.251-0.539c0.024-0.046,0.055-0.107,0.073-0.141l0.453-0.007c0.006,0.011,0.014,0.022,0.014,0.032
			c0,0.011-0.005,0.018-0.012,0.029c-0.045,0.009-0.134,0.009-0.174,0.078c-0.014,0.023-0.028,0.045-0.028,0.143v0.582
			c0,0.223,0.057,0.246,0.085,0.26c0.013,0.009,0.082,0.016,0.121,0.016c0.009,0.013,0.011,0.022,0.011,0.034
			C33.251,85.084,33.246,85.088,33.241,85.099"/>
		<path class="st4" d="M165.713,77.87c0-0.061-0.014-0.17-0.046-0.216h-0.357c-0.778,0-1.273,0.03-2.674,0.03
			c-0.482,0-1.199-0.03-1.367-0.03h-0.403c-0.05,0.03-0.064,0.202-0.064,0.264c0,0.078,0.014,0.201,0.078,0.266
			c0.25,0.079,1.196,0.182,1.599,0.448c0.282,0.329,0.407,0.978,0.454,1.587c0.014,0.23,0.029,0.464,0.029,1.101v3.248
			c0,0.373-0.015,0.498-0.029,0.669c-0.266-0.296-0.637-0.855-1.26-1.553l-5.191-5.754c-0.046-0.061-0.139-0.14-0.235-0.2
			c-0.123,0-0.341-0.016-0.464-0.016c-0.996,0-2.799-0.045-3.059-0.045c-0.034,0.061-0.064,0.154-0.064,0.216
			c0,0.032,0.03,0.25,0.045,0.298c0.234,0.059,0.746,0.138,1.166,0.589c0.25,0.278,0.685,0.668,0.822,0.978
			c0.05,0.112,0.064,0.28,0.064,0.498c0,0.805-0.048,1.942-0.048,3.027v3.159c0,0.513-0.043,0.918-0.091,1.18
			c-0.327,0.343-0.823,0.591-1.633,0.793c-0.029,0.08-0.061,0.201-0.061,0.278c0,0.048,0.015,0.205,0.046,0.218h0.297
			c0.31,0,1.024-0.046,1.49-0.046c0.685,0,1.15,0.046,1.787,0.046h0.935c0.061-0.013,0.075-0.202,0.075-0.262
			c0-0.063-0.014-0.187-0.046-0.248c-0.543-0.139-1.335-0.266-1.863-0.964c-0.111-0.234-0.202-1.385-0.202-1.93
			c0-0.496-0.016-1.178-0.016-2.097c0-1.228,0.016-2.299,0.031-2.841c0.094,0.107,0.201,0.246,0.28,0.337l7.18,8.069
			c0.077,0.077,0.357,0.093,0.435,0.093c0.075,0,0.123,0,0.187-0.03c0.029-0.077,0.138-0.329,0.138-0.697
			c0-0.452-0.016-0.921-0.016-1.152v-6.482c0-1.944,0.919-2.486,1.99-2.534C165.699,78.086,165.713,77.948,165.713,77.87
			 M147.902,82.812c0,2.347-0.651,4.418-1.536,5.146c-0.453,0.375-1.01,0.56-1.651,0.56c-0.869,0-1.63-0.343-2.065-1.041
			c-0.589-0.901-0.917-2.581-0.917-4.042c0-2.162,0.557-3.856,1.556-4.68c0.528-0.434,1.067-0.603,1.614-0.603
			c0.842,0,1.649,0.403,2.117,1.071C147.608,80.031,147.902,81.197,147.902,82.812 M150.713,83.109c0-2.174-0.96-3.836-2.766-4.834
			c-0.962-0.53-1.924-0.794-2.95-0.794c-2.269,0-4.322,1.353-5.241,2.893c-0.591,0.964-0.899,2.019-0.899,3.136
			c0,1.789,0.869,3.545,2.222,4.555c1.026,0.748,2.192,1.119,3.545,1.119c0.824,0,1.601-0.154,2.361-0.45
			c0.857-0.327,1.587-0.841,2.162-1.478C150.157,86.154,150.713,84.74,150.713,83.109 M137.052,81.15v-3.172
			c0-0.234-0.089-0.294-0.324-0.294c-0.466,0-2.92,0.06-5.408,0.06c-1.928,0-3.529-0.03-4.398-0.03h-1.153
			c-0.2,0-0.262,0.048-0.262,0.264v2.969c0.062,0.048,0.17,0.064,0.25,0.064c0.062,0,0.28,0,0.341-0.034
			c0.7-1.41,1.353-2.174,2.176-2.595c0.466-0.043,1.383-0.061,1.633-0.061c0.015,0.171,0.031,0.716,0.047,1.365
			c0.014,1.121,0.014,1.603,0.014,4.244c0,2.288-0.014,3.311-0.046,3.559c-0.061,0.434,0.016,0.764-1.849,0.843
			c-0.048,0.107-0.048,0.23-0.048,0.353c0,0.063,0,0.189,0.018,0.25h0.603c0.576,0,1.929-0.061,2.49-0.061
			c0.449,0,1.895,0.046,2.842,0.046h0.435c0.046-0.077,0.046-0.248,0.046-0.325c0-0.096-0.014-0.203-0.06-0.282
			c-0.171,0-1.167,0.03-1.599-0.295c-0.048-0.171-0.143-0.621-0.143-1.167c-0.014-1.678-0.032-2.313-0.032-3.434
			c0-1.446,0.018-2.424,0.018-5.114c0.217,0,0.715-0.015,1.179,0c0.966,0.264,1.433,0.623,1.851,1.181
			c0.262,0.357,0.546,0.962,0.823,1.694c0.094,0.031,0.173,0.031,0.262,0.031C136.82,81.211,137.022,81.181,137.052,81.15
			 M123.659,86.201c0-0.216,0-0.312-0.018-0.451c-0.078-0.048-0.109-0.048-0.232-0.048c-0.111,0-0.232,0-0.344,0.032
			c-0.526,1.198-1.289,2.131-1.708,2.377c-0.232,0.143-0.589,0.173-1.167,0.173h-1.271c-0.498,0-0.889-0.046-1.027-0.079
			c-0.234-0.046-0.484-0.419-0.591-0.669c-0.111-0.262-0.173-0.262-0.173-0.98v-3.402h0.576c0.157,0,0.529,0.03,0.946,0.218
			c0.391,0.173,0.547,0.403,0.7,0.653c0.143,0.216,0.234,1.071,0.264,1.291c0.078,0.044,0.28,0.06,0.407,0.06
			c0.122,0,0.2-0.016,0.309-0.078c0-0.421-0.091-1.553-0.091-2.178c0-0.776,0.107-1.847,0.154-2.404
			c-0.062-0.034-0.154-0.064-0.31-0.064c-0.109,0-0.311,0-0.403,0.046c-0.046,0.218-0.218,0.869-0.25,0.917
			c-0.232,0.391-0.638,0.685-1.056,0.809c-0.279,0.075-0.686,0.123-0.9,0.123h-0.327v-1.444c0-1.494,0.03-1.974,0.045-2.256
			c0.016-0.184,0.046-0.387,0.064-0.526c0.139-0.016,0.217-0.03,0.932-0.03c0.899,0,1.321,0.015,1.46,0.015
			c0.436,0.034,0.762,0.125,0.996,0.312c0.591,0.45,1.039,1.162,1.492,1.924c0.093,0.034,0.248,0.034,0.327,0.034
			c0.093,0,0.109-0.034,0.234-0.093c0-0.952-0.066-2.177-0.096-2.565c-0.014-0.155-0.044-0.203-0.355-0.203
			c-0.127,0-0.716-0.031-1.337-0.031c-0.886,0-1.246,0.016-2.599,0.016c-0.728,0-2.236,0.015-2.873,0.015
			c-0.932,0-1.726-0.031-2.131-0.031h-0.528c-0.046,0.06-0.075,0.185-0.075,0.246c0,0.078,0.029,0.253,0.075,0.312
			c0.187,0.063,0.919,0.048,1.138,0.171c0.215,0.185,0.416,0.264,0.557,1.01c0.032,0.327,0.046,1.228,0.046,1.942v3.202
			c0,0.654-0.014,1.601-0.032,1.989c-0.029,0.607-0.246,1.337-0.339,1.479c-0.141,0.107-0.779,0.202-1.399,0.23
			c-0.047,0.095-0.079,0.252-0.079,0.342c0,0.093,0.032,0.204,0.079,0.282h0.512c0.498,0,2.333-0.046,2.752-0.046
			c0.387,0,1.135,0.03,2.035,0.03c0.498,0,1.958,0.093,5.099,0.093c0.125,0,0.264,0.015,0.418-0.032
			c0.048-0.079,0.048-0.109,0.064-0.25C123.659,88.375,123.659,87.46,123.659,86.201 M110.509,86.744
			c-0.048-0.139-0.173-0.373-0.53-0.373c-0.032,0-0.077,0.016-0.107,0.016c-0.935,1.323-1.96,1.819-3.127,1.819
			c-1.613,0-2.766-1.089-3.138-2.052c-0.203-0.512-0.482-1.632-0.482-2.829c0-1.134,0.171-2.051,0.466-2.72
			c0.683-1.801,1.677-2.361,2.891-2.361c1.012,0,1.851,0.577,2.486,1.399c0.266,0.357,0.544,1.057,0.79,1.881
			c0.064,0.015,0.204,0.045,0.345,0.045c0.093,0,0.311-0.075,0.371-0.14c-0.014-0.17-0.168-1.367-0.168-1.742
			c0-0.464,0.123-1.226,0.123-1.522c-0.095-0.093-0.405-0.156-0.607-0.168c-0.232,0.168-0.31,0.369-0.528,0.636
			c-0.873-0.623-1.68-1.103-3.45-1.103c-1.632,0-2.924,0.557-3.902,1.539c-1.071,1.054-1.663,2.518-1.663,4.383
			c0,1.988,0.839,3.622,2.192,4.648c0.857,0.62,2.115,1.039,3.621,1.039c1.897,0,3.279-0.716,3.979-1.66
			C110.351,87.101,110.383,87.008,110.509,86.744 M98.41,77.87c0-0.061-0.016-0.17-0.046-0.216h-0.359
			c-0.777,0-1.275,0.03-2.675,0.03c-0.479,0-1.196-0.03-1.367-0.03h-0.403c-0.046,0.03-0.064,0.202-0.064,0.264
			c0,0.078,0.018,0.201,0.082,0.266c0.248,0.079,1.196,0.182,1.599,0.448c0.282,0.329,0.403,0.978,0.45,1.587
			c0.018,0.23,0.034,0.464,0.034,1.101v3.248c0,0.373-0.016,0.498-0.034,0.669c-0.262-0.296-0.637-0.855-1.258-1.553l-5.185-5.754
			c-0.047-0.061-0.139-0.14-0.234-0.2c-0.125,0-0.342-0.016-0.464-0.016c-0.996,0-2.799-0.045-3.064-0.045
			c-0.031,0.061-0.06,0.154-0.06,0.216c0,0.032,0.029,0.25,0.044,0.298c0.234,0.059,0.747,0.138,1.166,0.589
			c0.251,0.278,0.685,0.668,0.825,0.978c0.047,0.112,0.063,0.28,0.063,0.498c0,0.805-0.046,1.942-0.046,3.027v3.159
			c0,0.513-0.046,0.918-0.093,1.18c-0.328,0.343-0.823,0.591-1.633,0.793c-0.031,0.08-0.062,0.201-0.062,0.278
			c0,0.048,0.015,0.205,0.046,0.218h0.296c0.311,0,1.025-0.046,1.492-0.046c0.685,0,1.149,0.046,1.787,0.046h0.927
			c0.061-0.013,0.077-0.202,0.077-0.262c0-0.063-0.016-0.187-0.044-0.248c-0.541-0.139-1.33-0.266-1.86-0.964
			c-0.108-0.234-0.201-1.385-0.201-1.93c0-0.496-0.019-1.178-0.019-2.097c0-1.228,0.019-2.299,0.033-2.841
			c0.093,0.107,0.201,0.246,0.28,0.337l7.175,8.069c0.079,0.077,0.357,0.093,0.436,0.093c0.077,0,0.125,0,0.185-0.03
			c0.031-0.077,0.14-0.329,0.14-0.697c0-0.452-0.016-0.921-0.016-1.152v-6.482c0-1.944,0.918-2.486,1.99-2.534
			C98.394,78.086,98.41,77.948,98.41,77.87 M83.043,88.642c0-0.079-0.017-0.248-0.046-0.309c-0.234-0.018-0.869-0.079-1.149-0.141
			c-0.25-0.298-0.422-0.637-0.529-1.196c-0.016-0.748-0.033-2.287-0.033-3.732v-3.823c0-0.419,0.17-0.746,0.282-0.841
			c0.297-0.278,0.884-0.337,1.383-0.403c0.031-0.06,0.045-0.23,0.045-0.294c0-0.093-0.045-0.218-0.077-0.248h-0.452
			c-0.654,0-2.176,0.077-2.704,0.077c-0.327,0-1.849-0.046-2.532-0.061h-0.342c-0.047,0.061-0.077,0.121-0.077,0.261
			c0,0.066,0.013,0.221,0.03,0.296c0.764,0.064,1.104,0.139,1.214,0.22c0.185,0.139,0.449,0.482,0.513,1.319
			c0.015,0.296,0.029,0.934,0.043,2.363c0.017,0.78,0.033,1.865,0.033,2.768c0,0.45-0.033,1.46-0.047,2.003
			c-0.029,0.375-0.11,0.732-0.216,0.934c-0.186,0.155-0.375,0.434-1.507,0.512c-0.033,0.063-0.05,0.264-0.05,0.329
			c0,0.123,0.033,0.184,0.033,0.263h0.263c0.622,0,2.176-0.079,2.984-0.079c0.235,0,1.849,0.046,2.362,0.046h0.515
			C83.026,88.827,83.043,88.702,83.043,88.642 M70.58,80.529c0,0.964-0.653,2.067-1.415,2.252c-0.311,0.079-0.701,0.127-1.273,0.127
			c-0.157,0-0.392,0-0.576-0.034l-0.017-1.321v-2.86c0-0.185,0.045-0.296,0.094-0.343c0.045-0.046,0.327-0.089,0.654-0.089
			c1.212,0,1.739,0.103,2.175,0.835C70.468,79.519,70.58,79.999,70.58,80.529 M75.085,88.658c0-0.079-0.031-0.264-0.077-0.325
			c-0.155,0-0.791-0.032-1.025-0.205c-0.076-0.091-0.201-0.279-0.265-0.389c-0.204-0.712-0.434-1.196-0.667-1.785
			c-0.329-0.778-0.778-1.51-1.152-1.853c-0.139-0.121-0.621-0.325-1.167-0.511c-0.248-0.093-0.449-0.171-0.635-0.248
			c0.232-0.046,0.342-0.066,0.635-0.091c1.153-0.143,1.415-0.343,1.709-0.578c0.624-0.468,0.966-1.18,0.966-2.021
			c0-1.26-0.809-2.469-1.943-2.829c-0.375-0.109-1.041-0.17-1.864-0.17c-1.167,0-2.799,0.109-3.575,0.109
			c-0.234,0-1.587-0.032-2.131-0.032c-0.232,0-0.822-0.03-0.915-0.03c-0.048,0.109-0.077,0.23-0.077,0.296
			c0,0.061,0.014,0.216,0.029,0.279c0.265,0.031,0.748,0.091,0.997,0.139c0.37,0.28,0.497,0.498,0.652,0.841
			c0.079,0.496,0.093,1.77,0.093,3.962c0,1.585,0.017,3.42-0.061,4.012c-0.046,0.385-0.187,0.85-0.638,1.037
			c-0.202,0.034-0.576,0.095-0.884,0.109c-0.05,0.079-0.08,0.234-0.08,0.31c0,0.048,0.029,0.172,0.063,0.25
			c0.219,0,2.597-0.045,3.092-0.045c0.994,0,1.835,0.045,2.72,0.045c0.033-0.061,0.062-0.172,0.062-0.234
			c0-0.105-0.029-0.262-0.062-0.326c-0.311-0.031-0.698-0.121-0.868-0.155c-0.389-0.184-0.671-0.557-0.671-1.103L67.33,83.53
			c0.123-0.02,0.28-0.02,0.404-0.02c0.201,0,0.435,0.036,0.824,0.25c0.574,0.327,0.856,0.562,1.228,1.137
			c0.498,0.777,0.825,2.205,0.978,3.342c0.047,0.325,0.172,0.607,0.468,0.637c0.123,0.016,0.949,0.046,1.539,0.046h2.222
			C75.054,88.857,75.085,88.734,75.085,88.658 M58.208,80.604c0,0.795-0.281,1.494-0.792,1.944c-0.326,0.264-0.842,0.42-1.618,0.42
			c-0.325,0-0.576-0.012-0.667-0.028c-0.125-0.018-0.205-0.03-0.205-0.113l0.019-4.551c0.186-0.013,0.449-0.079,0.902-0.079
			c1.057,0,1.709,0.264,2.02,0.919C58.082,79.531,58.208,80.062,58.208,80.604 M60.988,80.668c0-1.166-0.669-2.254-1.661-2.702
			c-0.512-0.222-1.414-0.359-2.782-0.359c-1.197,0-3.064,0.093-3.885,0.093c-0.576,0-1.446-0.064-1.927-0.064
			c-0.049,0.079-0.081,0.187-0.081,0.25c0,0.063,0,0.234,0.047,0.311c0.295,0.095,0.778,0.17,1.09,0.25
			c0.262,0.232,0.325,0.435,0.419,0.885c0.045,0.544,0.078,1.23,0.078,2.409c0,3.279-0.017,5.003-0.062,5.376
			c-0.062,0.47-0.373,0.948-0.888,1.103c-0.234,0.046-0.576,0.125-0.9,0.155c-0.014,0.079-0.033,0.187-0.033,0.326
			c0,0.125,0.019,0.143,0.046,0.22c0.497,0,1.959-0.064,2.52-0.064c1.383,0,2.798,0.064,3.37,0.064h0.392
			c0.047-0.064,0.047-0.173,0.047-0.248c0-0.095,0-0.219-0.033-0.28c-0.466-0.06-1.167-0.155-1.46-0.5
			c-0.155-0.184-0.313-0.45-0.313-0.916l-0.047-3.42c0.934,0.062,1.93,0.093,2.473,0.093c0.715,0,1.32-0.121,1.802-0.278
			C60.304,82.955,60.988,81.864,60.988,80.668"/>
		<path class="st4" d="M165.963,95.208c0-0.095-0.064-0.127-0.094-0.186c-0.637,0-1.475,0.046-1.804,0.046
			c-0.791,0-1.753-0.064-2.174-0.064c-0.046,0.095-0.062,0.109-0.062,0.187c0,0.079,0.016,0.138,0.03,0.186
			c0.453,0.091,1.103,0.203,1.228,0.421c0.109,0.198,0.142,0.355,0.142,0.603c0,0.186-0.014,0.373-0.096,0.576
			c-0.139,0.385-0.436,0.994-0.854,1.851c-0.717,1.442-1.165,2.343-1.417,2.7c-0.401-0.68-1.303-2.482-1.521-2.95l-0.871-1.897
			c-0.032-0.059-0.063-0.28-0.063-0.42c0-0.201,0.03-0.342,0.063-0.401c0.141-0.28,0.623-0.312,1.276-0.393
			c0.029-0.077,0.044-0.17,0.044-0.232c0-0.107-0.044-0.077-0.093-0.156h-0.278c-1.042,0-0.732,0.048-2.52,0.048
			c-0.76,0-1.678-0.048-1.801-0.048c-0.063,0.11-0.095,0.127-0.095,0.234c0,0.063,0.018,0.111,0.064,0.189
			c1.039,0.244,1.349,0.434,1.46,0.635l2.72,5.33c0.264,0.5,0.419,0.885,0.498,1.166c0.107,0.436,0.123,1.073,0.123,1.863
			c0,0.673-0.232,1.028-0.498,1.201c-0.109,0.062-0.888,0.17-1.244,0.2c-0.06,0.109-0.078,0.139-0.078,0.218
			c0,0.078,0.034,0.125,0.048,0.187c0.794,0,1.619-0.02,2.083-0.02c0.327,0,0.825,0.02,1.742,0.034
			c0.529,0.015,0.932,0.032,1.211,0.032c0.032-0.066,0.082-0.125,0.082-0.203c0-0.075-0.02-0.123-0.064-0.2
			c-0.5-0.063-1.196-0.157-1.353-0.312c-0.25-0.266-0.371-0.385-0.403-0.994l-0.125-2.335c-0.018-0.168,0.046-0.323,0.061-0.369
			c0.048-0.173,0.109-0.31,0.169-0.436l2.397-4.741c0.215-0.403,0.685-0.855,0.993-1.041c0.219-0.139,0.703-0.234,1.01-0.312
			C165.933,95.329,165.963,95.27,165.963,95.208 M153.405,98.41v-3.018c0-0.232-0.093-0.293-0.325-0.293
			c-0.468,0-2.613,0.061-5.101,0.061c-1.926,0-3.216-0.03-4.087-0.03h-1.149c-0.2,0-0.264,0.044-0.264,0.262v2.813
			c0.064,0.048,0.11,0.062,0.185,0.062c0.064,0,0.125,0,0.187-0.029c0.605-1.355,0.917-2.067,1.958-2.597
			c0.468-0.048,2.097-0.06,2.349-0.06c0.014,0.168,0.03,0.712,0.044,1.367c0.016,1.118,0.016,1.722,0.016,4.368
			c0,2.282-0.016,3.464-0.046,3.712c-0.061,0.437,0.016,0.762-1.849,0.841c-0.046,0.107-0.046,0.139-0.046,0.264
			c0,0.062,0,0.123,0.014,0.185h0.607c0.574,0,1.335-0.062,1.895-0.062c0.451,0,1.307,0.048,2.252,0.048h0.436
			c0.048-0.079,0.048-0.157,0.048-0.232c0-0.096-0.016-0.143-0.063-0.219c-0.171,0-1.167,0.032-1.601-0.297
			c-0.048-0.17-0.141-0.619-0.141-1.162c-0.013-1.679-0.032-2.474-0.032-3.595c0-1.444,0.02-2.547,0.02-5.235
			c0.216,0,1.368-0.017,1.833,0c0.96,0.262,1.335,0.619,1.754,1.18c0.373,0.498,0.468,0.95,0.7,1.694
			c0.095,0.034,0.139,0.034,0.234,0.034C153.295,98.472,153.373,98.439,153.405,98.41 M140.49,106.085
			c0-0.077-0.018-0.155-0.046-0.216c-0.232-0.016-0.87-0.078-1.153-0.141c-0.246-0.295-0.418-0.635-0.525-1.196
			c-0.018-0.746-0.032-2.44-0.032-3.887V96.7c0-0.42,0.171-0.75,0.278-0.839c0.296-0.28,0.887-0.344,1.382-0.407
			c0.032-0.062,0.05-0.139,0.05-0.198c0-0.096-0.05-0.157-0.079-0.187h-0.45c-0.653,0-1.585,0.075-2.117,0.075
			c-0.325,0-1.257-0.045-1.942-0.063h-0.343c-0.045,0.063-0.075,0.063-0.075,0.202c0,0.064,0.016,0.125,0.03,0.203
			c0.762,0.062,1.105,0.139,1.212,0.216c0.186,0.143,0.451,0.482,0.514,1.324c0.016,0.295,0.028,1.089,0.046,2.517
			c0.014,0.775,0.029,1.835,0.029,2.734c0,0.453-0.029,1.617-0.046,2.16c-0.028,0.373-0.107,0.733-0.214,0.931
			c-0.187,0.157-0.375,0.436-1.51,0.516c-0.031,0.063-0.044,0.169-0.044,0.232c0,0.125,0.027,0.125,0.027,0.201h0.268
			c0.623,0,1.585-0.077,2.394-0.077c0.234,0,1.258,0.043,1.772,0.043h0.511C140.472,106.21,140.49,106.147,140.49,106.085
			 M132.81,103.227c0-1.244-0.557-2.097-1.757-2.734c-0.324-0.187-0.899-0.391-1.722-0.625c-0.95-0.262-1.742-0.573-2.255-0.855
			c-0.34-0.184-0.919-0.698-0.919-1.692c0-0.995,1.012-1.817,2.192-1.817c0.934,0,1.681,0.464,2.131,1.084
			c0.389,0.546,0.528,0.796,0.962,1.772c0.048,0.017,0.109,0.034,0.155,0.034c0.141,0,0.264-0.078,0.343-0.155
			c-0.046-0.391-0.123-0.935-0.123-1.401c0-0.401,0.095-0.932,0.141-1.212c-0.125-0.187-0.267-0.218-0.467-0.218
			c-0.218,0.141-0.421,0.356-0.607,0.561c-1.025-0.825-1.863-0.964-2.641-0.964c-1.912,0-3.279,1.276-3.279,2.968
			c0,0.577,0.202,1.136,0.573,1.71c0.342,0.48,0.842,0.855,1.51,1.136c0.45,0.183,2.47,0.794,2.748,0.901
			c1.244,0.484,1.712,0.9,1.712,2.003c0,0.546-0.234,1.028-0.686,1.571c-0.401,0.498-1.04,0.732-1.722,0.732
			c-0.734,0-1.992-0.311-2.613-1.15c-0.375-0.48-0.901-1.492-1.056-2.101c-0.109-0.029-0.109-0.029-0.218-0.029
			c-0.093,0-0.203,0.029-0.296,0.091c0,0.203,0.064,1.226,0.064,1.538c0,0.76-0.14,1.133-0.171,1.387
			c0.043,0.156,0.31,0.311,0.5,0.311c0.323-0.282,0.664-0.5,0.776-0.5c0.091,0,0.23,0.046,0.369,0.141
			c1.01,0.655,1.851,0.776,2.599,0.776C131.24,106.49,132.81,105.387,132.81,103.227 M119.057,97.864
			c0,0.994-0.794,2.113-1.708,2.317c-0.377,0.079-0.921,0.125-1.619,0.125c-0.185,0-0.714,0-0.946-0.034l-0.017-1.366v-2.938
			c0-0.205,0.048-0.313,0.107-0.357c0.064-0.046,0.702-0.095,1.089-0.095c1.46,0,2.131,0.139,2.66,0.901
			C118.918,96.837,119.057,97.321,119.057,97.864 M122.32,106.099c0-0.075-0.029-0.17-0.079-0.23c-0.154,0-0.791-0.029-1.025-0.205
			c-0.077-0.091-0.201-0.277-0.264-0.385c-0.201-0.716-0.419-1.353-0.653-1.942c-0.325-0.779-0.778-1.51-1.15-1.851
			c-0.139-0.123-0.577-0.329-1.121-0.513c-0.246-0.095-0.45-0.173-0.635-0.25c0.234-0.045,0.341-0.061,0.635-0.093
			c1.01-0.123,1.355-0.341,1.649-0.575c0.621-0.464,1.025-1.164,1.025-2.006c0-1.256-0.807-2.456-1.942-2.813
			c-0.375-0.107-1.042-0.168-1.865-0.168c-1.166,0-2.037,0.105-2.813,0.105c-0.232,0-0.996-0.03-1.537-0.03
			c-0.234,0-0.826-0.031-0.919-0.031c-0.045,0.107-0.077,0.143-0.077,0.201c0,0.063,0.014,0.154,0.032,0.218
			c0.262,0.032,0.744,0.093,0.992,0.139c0.375,0.279,0.5,0.5,0.653,0.842c0.077,0.495,0.095,1.896,0.095,4.088
			c0,1.583,0.016,3.575-0.062,4.164c-0.046,0.387-0.186,0.853-0.639,1.039c-0.2,0.036-0.575,0.095-0.885,0.112
			c-0.046,0.075-0.079,0.137-0.079,0.216c0,0.048,0.032,0.109,0.063,0.185c0.218,0,2.008-0.046,2.503-0.046
			c0.995,0,1.244,0.046,2.129,0.046c0.032-0.062,0.064-0.109,0.064-0.171c0-0.109-0.032-0.171-0.064-0.23
			c-0.309-0.032-0.7-0.126-0.871-0.156c-0.386-0.189-0.666-0.562-0.666-1.107l-0.016-3.884c0.125-0.018,0.573-0.018,0.698-0.018
			c0.419,0,0.842,0.034,1.244,0.219c0.591,0.262,1.151,0.684,1.522,1.258c0.498,0.777,0.825,2.254,0.982,3.388
			c0.044,0.328,0.17,0.607,0.464,0.637c0.123,0.016,0.312,0.048,0.903,0.048h1.616C122.292,106.242,122.32,106.181,122.32,106.099
			 M109.28,103.74c0-0.218,0-0.313-0.014-0.452c-0.079-0.048-0.107-0.048-0.234-0.048c-0.109,0-0.095,0-0.204,0.034
			c-0.34,1.134-0.93,1.976-1.601,2.378c-0.232,0.14-0.654,0.17-1.319,0.17h-1.74c-0.542-0.016-0.885-0.046-1.028-0.078
			c-0.232-0.043-0.482-0.42-0.587-0.667c-0.112-0.264-0.173-0.357-0.173-1.073v-3.543h0.498c0.498,0,0.902,0.034,1.319,0.219
			c0.393,0.171,0.685,0.416,0.839,0.666c0.143,0.219,0.189,1.074,0.221,1.29c0.076,0.048,0.123,0.061,0.246,0.061
			c0.123,0,0.14-0.013,0.25-0.077c0-0.416-0.093-1.553-0.093-2.174c0-0.776,0.109-1.728,0.153-2.285
			c-0.06-0.032-0.093-0.062-0.246-0.062c-0.111,0-0.153,0-0.252,0.043c-0.044,0.219-0.17,0.873-0.198,0.921
			c-0.236,0.387-0.78,0.7-1.197,0.823c-0.282,0.077-0.685,0.127-1.276,0.127h-0.25v-1.526c0-1.492,0.032-2.097,0.046-2.38
			c0.018-0.185,0.048-0.385,0.064-0.524c0.14-0.016,0.591-0.032,1.307-0.032c0.9,0,1.569,0.017,1.71,0.017
			c0.436,0.029,0.76,0.123,0.994,0.31c0.76,0.589,0.962,0.982,1.383,1.927c0.093,0.029,0.107,0.029,0.186,0.029
			c0.093,0,0.109-0.029,0.232-0.091c0-0.948-0.061-2.02-0.093-2.411c-0.016-0.156-0.046-0.2-0.357-0.2
			c-0.125,0-0.716-0.031-1.335-0.031c-0.889,0-1.246,0.015-2.597,0.015c-0.73,0-2.018,0.016-2.658,0.016
			c-0.932,0-1.137-0.031-1.54-0.031h-0.532c-0.048,0.061-0.079,0.121-0.079,0.184c0,0.08,0.03,0.155,0.079,0.221
			c0.187,0.061,0.922,0.044,1.14,0.168c0.215,0.189,0.418,0.234,0.559,0.98c0.031,0.327,0.048,1.385,0.048,2.099v3.198
			c0,0.654-0.017,1.728-0.032,2.114c-0.032,0.609-0.25,1.37-0.343,1.51c-0.141,0.111-0.778,0.201-1.403,0.232
			c-0.048,0.095-0.082,0.157-0.082,0.25c0,0.093,0.034,0.141,0.082,0.218h0.514c0.502,0,1.746-0.046,2.164-0.046
			c0.389,0,0.917,0.03,1.817,0.03c0.5,0,1.958,0.095,5.101,0.095c0.123,0,0.262,0.018,0.417-0.032
			c0.046-0.077,0.046-0.109,0.061-0.246C109.28,105.761,109.28,104.998,109.28,103.74 M97.773,95.256
			c0-0.064-0.016-0.157-0.078-0.175h-0.528c-0.373,0-0.962,0.032-1.228,0.032c-1.259,0-1.708-0.079-1.897-0.079h-0.279
			c-0.032,0.079-0.078,0.125-0.078,0.202c0,0.062,0.032,0.11,0.032,0.171c0.387,0.046,0.728,0.125,1.073,0.234
			c0.183,0.186,0.389,0.561,0.389,0.982c0,0.152-0.155,0.884-0.376,1.413l-2.501,6.153l-3.07-7.787
			c0.046-0.369,0.248-0.73,0.51-0.869c0.263-0.029,0.587-0.125,1.009-0.125c0.029-0.06,0.06-0.152,0.06-0.216
			c0-0.062-0.014-0.157-0.078-0.17h-0.393c-0.475,0-1.204,0.059-2.026,0.059c-0.357,0-1.057-0.03-1.742-0.03h-0.605
			c-0.033,0.063-0.062,0.093-0.062,0.186c0,0.093,0.017,0.126,0.046,0.189c0.435,0.107,0.855,0.277,1.307,0.525
			c0.295,0.437,0.932,2.008,1.275,2.829l1.285,3.111c1.068,2.583,1.709,4.305,1.786,4.6c0.078,0.048,0,0.091,0.139,0.091
			c0.139,0,0.125-0.027,0.156-0.105l4.01-9.638c0.139-0.341,0.355-0.665,0.558-0.887c0.248-0.279,0.762-0.385,1.242-0.496
			C97.724,95.392,97.773,95.329,97.773,95.256 M84.162,106.085c0-0.077-0.013-0.155-0.046-0.216
			c-0.234-0.016-0.869-0.078-1.149-0.141c-0.248-0.295-0.419-0.635-0.53-1.196c-0.014-0.746-0.029-2.44-0.029-3.887V96.7
			c0-0.42,0.17-0.75,0.279-0.839c0.295-0.28,0.884-0.344,1.381-0.407c0.031-0.062,0.047-0.139,0.047-0.198
			c0-0.096-0.047-0.157-0.078-0.187h-0.449c-0.655,0-1.587,0.075-2.115,0.075c-0.326,0-1.259-0.045-1.941-0.063h-0.343
			c-0.046,0.063-0.079,0.063-0.079,0.202c0,0.064,0.016,0.125,0.033,0.203c0.761,0.062,1.102,0.139,1.212,0.216
			c0.187,0.143,0.451,0.482,0.513,1.324c0.014,0.295,0.031,1.089,0.045,2.517c0.017,0.775,0.033,1.835,0.033,2.734
			c0,0.453-0.033,1.617-0.047,2.16c-0.031,0.373-0.11,0.733-0.219,0.931c-0.185,0.157-0.371,0.436-1.506,0.516
			c-0.031,0.063-0.048,0.169-0.048,0.232c0,0.125,0.033,0.125,0.033,0.201h0.261c0.623,0,1.589-0.077,2.394-0.077
			c0.234,0,1.259,0.043,1.773,0.043H84.1C84.149,106.21,84.162,106.147,84.162,106.085 M77.138,95.22
			c0-0.06-0.016-0.107-0.047-0.152h-0.356c-0.778,0-1.121,0.03-2.518,0.03c-0.484,0-1.199-0.03-1.366-0.03h-0.408
			c-0.046,0.03-0.061,0.14-0.061,0.202c0,0.077,0.015,0.107,0.077,0.168c0.249,0.079,1.197,0.187,1.603,0.451
			c0.279,0.328,0.402,0.981,0.45,1.587c0.016,0.23,0.03,0.466,0.03,1.103v4.616c0,0.375-0.014,0.498-0.03,0.669
			c-0.265-0.294-0.715-0.873-1.321-1.587l-5.938-6.93c-0.045-0.064-0.138-0.139-0.234-0.203c-0.122,0-0.278-0.015-0.402-0.015
			c-0.994,0-1.866-0.048-2.131-0.048c-0.029,0.063-0.045,0.093-0.045,0.156c0,0.034,0.016,0.155,0.03,0.201
			c0.235,0.066,0.918,0.143,1.199,0.437c0.248,0.278,0.619,0.605,0.76,0.917c0.045,0.107,0.064,0.277,0.064,0.496
			c0,0.809-0.048,2.283-0.048,3.373v3.311c0,0.512-0.047,0.915-0.095,1.179c-0.326,0.343-0.823,0.589-1.633,0.795
			c-0.031,0.077-0.06,0.107-0.06,0.185c0,0.048,0.015,0.139,0.046,0.152h0.294c0.312,0,1.027-0.043,1.495-0.043
			c0.679,0,0.993,0.043,1.626,0.043h0.938c0.06-0.012,0.073-0.137,0.073-0.2c0-0.06-0.013-0.093-0.045-0.155
			c-0.543-0.139-1.334-0.266-1.862-0.964c-0.11-0.234-0.205-1.413-0.205-1.957c0-0.497-0.014-1.305-0.014-2.221
			c0-1.228,0.014-2.924,0.033-3.466c0.091,0.107,0.234,0.276,0.34,0.403l7.367,8.626c0.077,0.077,0.11,0.089,0.188,0.089
			c0.077,0,0.03,0,0.092-0.029c0.03-0.078,0.078-0.326,0.078-0.698c0-0.451-0.017-0.918-0.017-1.151v-6.604
			c0-1.942,0.919-2.49,1.99-2.533C77.122,95.347,77.138,95.299,77.138,95.22 M62.745,95.299c0-0.062-0.029-0.155-0.076-0.2h-0.45
			c-0.482,0-1.135,0.031-1.695,0.031c-0.619,0-1.32-0.031-1.773-0.031h-0.557c-0.048,0.093-0.064,0.121-0.064,0.2
			c0,0.064,0.016,0.127,0.047,0.205c0.064,0,1.197,0.013,1.398,0.295c0.171,0.234,0.544,0.804,0.607,1.149
			c0.031,0.156,0.124,0.792,0.124,1.708c0,1.321,0,2.206-0.014,2.672c-0.031,0.875-0.127,1.557-0.282,2.067
			c-0.435,1.354-1.444,2.022-3.045,2.022c-0.684,0-1.274-0.139-1.818-0.389c-1.011-0.496-1.494-1.444-1.508-1.958l-0.079-4.66
			l-0.013-1.896c0-0.36,0.447-0.687,0.602-0.873c0.127-0.06,0.81-0.125,1.199-0.155c0.046-0.095,0.077-0.139,0.077-0.216
			c0-0.079-0.045-0.157-0.11-0.202l-0.588,0.013c-0.579,0.018-1.339,0.032-1.819,0.032c-0.748,0-1.323-0.015-1.788-0.015h-0.652
			c-0.064,0.045-0.079,0.138-0.079,0.216c0,0.077,0.014,0.139,0.062,0.189c0.497,0.061,0.822,0.107,1.04,0.152
			c0.265,0.156,0.453,0.419,0.544,0.684c0.016,0.205,0.045,0.7,0.045,1.679v3.732c0,0.964,0.049,1.644,0.157,2.081
			c0.199,0.809,0.637,1.446,1.353,1.91c0.761,0.5,1.709,0.748,2.844,0.748c1.042,0,1.927-0.218,2.673-0.637
			c0.777-0.42,1.259-1.103,1.539-2.067c0.155-0.573,0.249-1.198,0.249-1.849v-2.985c0-0.559,0.032-1.258,0.032-1.54
			c0.015-0.837,0.233-1.337,0.467-1.71c0.248-0.077,0.466-0.121,1.288-0.216C62.715,95.426,62.745,95.378,62.745,95.299"/>
	</g>
	<g>
		<path class="st8" d="M39.069,214.641c0.468,0.288,1.151,0.527,1.871,0.527c1.067,0,1.691-0.563,1.691-1.379
			c0-0.756-0.433-1.188-1.523-1.607c-1.319-0.468-2.135-1.151-2.135-2.29c0-1.26,1.043-2.195,2.614-2.195
			c0.827,0,1.428,0.192,1.787,0.396l-0.288,0.852c-0.264-0.144-0.804-0.384-1.535-0.384c-1.104,0-1.523,0.66-1.523,1.212
			c0,0.755,0.492,1.127,1.607,1.559c1.367,0.528,2.063,1.188,2.063,2.375c0,1.247-0.924,2.327-2.831,2.327
			c-0.779,0-1.631-0.229-2.063-0.517L39.069,214.641z"/>
		<path class="st8" d="M46.664,208.716h-2.458v-0.888h5.984v0.888H47.72v7.196h-1.056V208.716z"/>
		<path class="st8" d="M51.5,213.369l-0.84,2.543h-1.079l2.746-8.084h1.26l2.759,8.084h-1.116l-0.863-2.543H51.5z M54.15,212.554
			l-0.791-2.327c-0.181-0.527-0.3-1.007-0.42-1.475h-0.024c-0.12,0.479-0.252,0.972-0.407,1.463l-0.792,2.339H54.15z"/>
		<path class="st8" d="M57.537,215.912v-8.084h1.14l2.591,4.09c0.6,0.947,1.067,1.799,1.451,2.627l0.023-0.013
			c-0.096-1.079-0.119-2.063-0.119-3.321v-3.383h0.983v8.084h-1.056l-2.566-4.102c-0.563-0.9-1.104-1.823-1.512-2.699l-0.036,0.013
			c0.061,1.019,0.084,1.99,0.084,3.334v3.454H57.537z"/>
		<path class="st8" d="M65.433,207.828h4.354v0.876h-3.31v2.687h3.059v0.863h-3.059v3.658h-1.044V207.828z"/>
		<path class="st8" d="M78.185,211.786c0,2.782-1.69,4.258-3.754,4.258c-2.135,0-3.634-1.655-3.634-4.102
			c0-2.567,1.596-4.246,3.754-4.246C76.758,207.696,78.185,209.388,78.185,211.786z M71.912,211.918
			c0,1.728,0.936,3.274,2.579,3.274c1.655,0,2.59-1.523,2.59-3.358c0-1.607-0.839-3.286-2.578-3.286
			C72.776,208.548,71.912,210.143,71.912,211.918z"/>
		<path class="st8" d="M79.545,207.937c0.528-0.108,1.283-0.168,2.003-0.168c1.115,0,1.835,0.204,2.339,0.659
			c0.408,0.36,0.636,0.912,0.636,1.535c0,1.067-0.672,1.775-1.523,2.063v0.035c0.624,0.217,0.996,0.792,1.188,1.632
			c0.264,1.127,0.456,1.906,0.624,2.219h-1.079c-0.133-0.229-0.313-0.924-0.54-1.932c-0.24-1.115-0.672-1.535-1.619-1.57h-0.983
			v3.502h-1.044V207.937z M80.589,211.618h1.067c1.115,0,1.823-0.611,1.823-1.535c0-1.043-0.756-1.499-1.859-1.511
			c-0.504,0-0.863,0.048-1.031,0.096V211.618z"/>
		<path class="st8" d="M86.001,207.937c0.636-0.097,1.392-0.168,2.219-0.168c1.5,0,2.567,0.348,3.274,1.007
			c0.72,0.66,1.14,1.596,1.14,2.902c0,1.319-0.408,2.399-1.163,3.143c-0.756,0.756-2.003,1.164-3.574,1.164
			c-0.744,0-1.367-0.036-1.896-0.097V207.937z M87.045,215.084c0.264,0.048,0.647,0.061,1.056,0.061c2.23,0,3.441-1.247,3.441-3.431
			c0.013-1.906-1.067-3.118-3.273-3.118c-0.54,0-0.948,0.048-1.224,0.108V215.084z"/>
		<path class="st8" d="M103.349,212.362c-0.06-1.128-0.132-2.483-0.12-3.49h-0.036c-0.275,0.947-0.611,1.955-1.019,3.07
			l-1.428,3.922h-0.791l-1.308-3.851c-0.384-1.139-0.708-2.183-0.936-3.142h-0.024c-0.023,1.007-0.084,2.362-0.155,3.573
			l-0.216,3.467H96.32l0.564-8.084h1.331l1.379,3.91c0.336,0.995,0.611,1.883,0.815,2.723h0.036
			c0.204-0.815,0.492-1.703,0.852-2.723l1.439-3.91h1.331l0.504,8.084h-1.02L103.349,212.362z"/>
		<path class="st8" d="M110.37,212.122h-3.143v2.914h3.502v0.876h-4.546v-8.084h4.366v0.876h-3.322v2.555h3.143V212.122z"/>
		<path class="st8" d="M112.088,207.937c0.636-0.097,1.392-0.168,2.219-0.168c1.5,0,2.567,0.348,3.274,1.007
			c0.72,0.66,1.14,1.596,1.14,2.902c0,1.319-0.408,2.399-1.163,3.143c-0.756,0.756-2.003,1.164-3.574,1.164
			c-0.744,0-1.367-0.036-1.896-0.097V207.937z M113.132,215.084c0.264,0.048,0.647,0.061,1.056,0.061
			c2.23,0,3.441-1.247,3.441-3.431c0.013-1.906-1.067-3.118-3.273-3.118c-0.54,0-0.948,0.048-1.224,0.108V215.084z"/>
		<path class="st8" d="M121.124,207.828v8.084h-1.044v-8.084H121.124z"/>
		<path class="st8" d="M128.597,215.648c-0.384,0.191-1.151,0.384-2.135,0.384c-2.279,0-3.994-1.439-3.994-4.09
			c0-2.531,1.715-4.246,4.222-4.246c1.008,0,1.644,0.216,1.919,0.36l-0.252,0.852c-0.396-0.192-0.959-0.336-1.631-0.336
			c-1.895,0-3.154,1.211-3.154,3.334c0,1.979,1.14,3.25,3.106,3.25c0.636,0,1.283-0.132,1.703-0.336L128.597,215.648z"/>
		<path class="st8" d="M130.951,207.828v8.084h-1.044v-8.084H130.951z"/>
		<path class="st8" d="M132.775,215.912v-8.084h1.14l2.591,4.09c0.6,0.947,1.067,1.799,1.451,2.627l0.023-0.013
			c-0.096-1.079-0.119-2.063-0.119-3.321v-3.383h0.983v8.084h-1.056l-2.566-4.102c-0.563-0.9-1.104-1.823-1.512-2.699l-0.036,0.013
			c0.061,1.019,0.084,1.99,0.084,3.334v3.454H132.775z"/>
		<path class="st8" d="M144.858,212.122h-3.143v2.914h3.502v0.876h-4.546v-8.084h4.366v0.876h-3.322v2.555h3.143V212.122z"/>
	</g>
</g>
<g id="Layer_2" class="st9">
	<path class="st10" d="M18.045,230.526c0,0-15.88,0-15.88-19.7s15.88-19.7,15.88-19.7h142.91c0,0,15.88,0,15.88,19.7
		s-15.88,19.7-15.88,19.7H18.045z"/>
	<path class="st11" d="M164.835,1.476H14.165c-6.627,0-12,5.373-12,12v150.67c0,6.627,5.373,12,12,12h150.67c6.627,0,12-5.373,12-12
		V13.476C176.835,6.849,171.462,1.476,164.835,1.476z"/>
	<g class="st12">
		<path class="st8" d="M39.234,214.116c0.468,0.288,1.151,0.528,1.871,0.528c1.067,0,1.691-0.563,1.691-1.38
			c0-0.755-0.433-1.187-1.523-1.606c-1.319-0.468-2.135-1.151-2.135-2.291c0-1.259,1.043-2.194,2.614-2.194
			c0.827,0,1.428,0.191,1.787,0.396l-0.288,0.852c-0.264-0.145-0.804-0.384-1.535-0.384c-1.104,0-1.523,0.659-1.523,1.211
			c0,0.756,0.492,1.128,1.607,1.56c1.367,0.527,2.063,1.188,2.063,2.374c0,1.248-0.924,2.327-2.831,2.327
			c-0.779,0-1.631-0.228-2.063-0.516L39.234,214.116z"/>
		<path class="st8" d="M46.829,208.191h-2.458v-0.887h5.984v0.887h-2.471v7.196h-1.056V208.191z"/>
		<path class="st8" d="M51.665,212.846l-0.84,2.542h-1.079l2.746-8.083h1.26l2.759,8.083h-1.116l-0.863-2.542H51.665z
			 M54.315,212.029l-0.791-2.326c-0.181-0.527-0.3-1.008-0.42-1.476H53.08c-0.12,0.48-0.252,0.972-0.407,1.464l-0.792,2.338H54.315z
			"/>
		<path class="st8" d="M57.702,215.388v-8.083h1.14l2.591,4.09c0.6,0.947,1.067,1.799,1.451,2.626l0.023-0.012
			c-0.096-1.079-0.119-2.063-0.119-3.322v-3.382h0.983v8.083h-1.056l-2.566-4.102c-0.563-0.899-1.104-1.823-1.512-2.698
			l-0.036,0.012c0.061,1.02,0.084,1.991,0.084,3.334v3.454H57.702z"/>
		<path class="st8" d="M65.598,207.305h4.354v0.875h-3.31v2.687H69.7v0.863h-3.059v3.658h-1.044V207.305z"/>
		<path class="st8" d="M78.35,211.262c0,2.783-1.69,4.258-3.754,4.258c-2.135,0-3.634-1.654-3.634-4.102
			c0-2.566,1.596-4.245,3.754-4.245C76.923,207.173,78.35,208.863,78.35,211.262z M72.077,211.395c0,1.727,0.936,3.273,2.579,3.273
			c1.655,0,2.59-1.522,2.59-3.357c0-1.607-0.839-3.286-2.578-3.286C72.941,208.024,72.077,209.619,72.077,211.395z"/>
		<path class="st8" d="M79.71,207.412c0.528-0.107,1.283-0.168,2.003-0.168c1.115,0,1.835,0.204,2.339,0.66
			c0.408,0.359,0.636,0.911,0.636,1.535c0,1.067-0.672,1.774-1.523,2.063v0.036c0.624,0.216,0.996,0.792,1.188,1.631
			c0.264,1.128,0.456,1.907,0.624,2.219h-1.079c-0.133-0.228-0.313-0.923-0.54-1.931c-0.24-1.115-0.672-1.535-1.619-1.571h-0.983
			v3.502H79.71V207.412z M80.754,211.095h1.067c1.115,0,1.823-0.612,1.823-1.535c0-1.044-0.756-1.5-1.859-1.512
			c-0.504,0-0.863,0.048-1.031,0.096V211.095z"/>
		<path class="st8" d="M86.166,207.412c0.636-0.096,1.392-0.168,2.219-0.168c1.5,0,2.567,0.348,3.274,1.008
			c0.72,0.659,1.14,1.595,1.14,2.902c0,1.319-0.408,2.398-1.163,3.143c-0.756,0.755-2.003,1.163-3.574,1.163
			c-0.744,0-1.367-0.036-1.896-0.096V207.412z M87.21,214.561c0.264,0.048,0.647,0.06,1.056,0.06c2.23,0,3.441-1.247,3.441-3.43
			c0.013-1.907-1.067-3.118-3.273-3.118c-0.54,0-0.948,0.048-1.224,0.107V214.561z"/>
		<path class="st8" d="M103.514,211.838c-0.06-1.127-0.132-2.482-0.12-3.49h-0.036c-0.275,0.947-0.611,1.955-1.019,3.07
			l-1.428,3.922h-0.791l-1.308-3.85c-0.384-1.14-0.708-2.183-0.936-3.143h-0.024c-0.023,1.008-0.084,2.363-0.155,3.574l-0.216,3.466
			h-0.996l0.564-8.083h1.331l1.379,3.909c0.336,0.996,0.611,1.884,0.815,2.723h0.036c0.204-0.815,0.492-1.703,0.852-2.723
			l1.439-3.909h1.331l0.504,8.083h-1.02L103.514,211.838z"/>
		<path class="st8" d="M110.535,211.598h-3.143v2.915h3.502v0.875h-4.546v-8.083h4.366v0.875h-3.322v2.555h3.143V211.598z"/>
		<path class="st8" d="M112.253,207.412c0.636-0.096,1.392-0.168,2.219-0.168c1.5,0,2.567,0.348,3.274,1.008
			c0.72,0.659,1.14,1.595,1.14,2.902c0,1.319-0.408,2.398-1.163,3.143c-0.756,0.755-2.003,1.163-3.574,1.163
			c-0.744,0-1.367-0.036-1.896-0.096V207.412z M113.297,214.561c0.264,0.048,0.647,0.06,1.056,0.06c2.23,0,3.441-1.247,3.441-3.43
			c0.013-1.907-1.067-3.118-3.273-3.118c-0.54,0-0.948,0.048-1.224,0.107V214.561z"/>
		<path class="st8" d="M121.289,207.305v8.083h-1.044v-8.083H121.289z"/>
		<path class="st8" d="M128.762,215.124c-0.384,0.192-1.151,0.384-2.135,0.384c-2.279,0-3.994-1.439-3.994-4.09
			c0-2.53,1.715-4.245,4.222-4.245c1.008,0,1.644,0.216,1.919,0.359l-0.252,0.852c-0.396-0.192-0.959-0.336-1.631-0.336
			c-1.895,0-3.154,1.212-3.154,3.334c0,1.979,1.14,3.251,3.106,3.251c0.636,0,1.283-0.133,1.703-0.336L128.762,215.124z"/>
		<path class="st8" d="M131.116,207.305v8.083h-1.044v-8.083H131.116z"/>
		<path class="st8" d="M132.94,215.388v-8.083h1.14l2.591,4.09c0.6,0.947,1.067,1.799,1.451,2.626l0.023-0.012
			c-0.096-1.079-0.119-2.063-0.119-3.322v-3.382h0.983v8.083h-1.056l-2.566-4.102c-0.563-0.899-1.104-1.823-1.512-2.698
			l-0.036,0.012c0.061,1.02,0.084,1.991,0.084,3.334v3.454H132.94z"/>
		<path class="st8" d="M145.023,211.598h-3.143v2.915h3.502v0.875h-4.546v-8.083h4.366v0.875h-3.322v2.555h3.143V211.598z"/>
	</g>
	<g class="st12">
		<g>
			<path class="st13" d="M28.109,111.195c15.137-8.264,11.528-24.722,10.486-27.152H17.624
				C16.581,86.472,12.969,102.93,28.109,111.195z"/>
		</g>
	</g>
	<g class="st12">
		<g>
			<path class="st14" d="M33.245,104.476c-0.077-9.78-0.607-10.426-1.074-10.717l0.253-0.587l0.39,0.265l-0.006-6.237l1.14,0.673
				l0.002,1.419c0.09-0.184,0.433-0.703,0.783-0.76l0.163,1.059c-1.045,0.868-1.241,2.352-1.142,14.884
				C33.695,104.739,33.342,104.739,33.245,104.476z"/>
		</g>
	</g>
	<path class="st15" d="M23.019,100.131"/>
	<polygon class="st16" points="25.213,100.409 26.562,100.409 26.562,104.79 22.185,104.79 22.185,102.321 20.828,102.321 
		20.828,97.939 25.21,97.939 	"/>
	<g class="st12">
		<path class="st8" d="M22.377,86.178l0.006,0.323c0.215-0.175,0.531-0.314,0.78-0.365c-0.139,0.623-0.441,0.779-0.774,0.835
			l-0.013,0.523c0.27-0.217,0.679-0.511,0.992-0.574c-0.177,0.788-0.559,1.077-0.979,1.137v0.516c0.336-0.218,0.867-0.6,1.256-0.662
			c-0.222,0.801-0.718,1.116-1.255,1.165l0.001,0.475c0.336-0.219,0.865-0.558,1.254-0.622c-0.214,0.773-0.736,1.242-1.253,1.316
			l0.001,0.401c0.337-0.22,0.863-0.559,1.252-0.623c-0.204,0.811-0.719,1.248-1.256,1.295v0.326
			c0.403-0.238,1.067-0.657,1.533-0.724c-0.266,0.869-0.895,1.341-1.533,1.401v0.375c0.214-0.175,0.672-0.362,0.923-0.412
			c-0.133,0.592-0.612,0.796-0.929,0.875l-0.002,0.702c0.077-0.003,0.15-0.017,0.225-0.025c-0.023-0.244,0.121-0.494,0.437-0.695
			c0.014,0.186-0.091,0.459-0.154,0.643c0.172-0.039,0.338-0.084,0.509-0.158c-0.09-0.356,0.028-0.842,0.434-1.255
			c0.076,0.273,0.006,0.723-0.031,1.021c0.178-0.109,0.36-0.228,0.534-0.381c-0.194-0.338-0.158-0.861,0.222-1.387
			c0.111,0.258,0.117,0.756,0.121,1.056c0.154-0.165,0.321-0.35,0.471-0.547c-0.271-0.329-0.28-0.645,0.04-1.281
			c0.112,0.258,0.215,0.646,0.218,0.946c0.139-0.179,0.237-0.33,0.354-0.544c-0.069-0.166-0.037-0.291,0.049-0.398
			c0.118-0.149,0.298-0.276,0.456-0.178c0.221,0.1,0.109,0.345,0.03,0.522c-0.055,0.126-0.148,0.21-0.314,0.207
			c-0.112,0.203-0.273,0.423-0.412,0.601c0.323,0.1,0.548,0.176,0.766,0.398c-0.474,0.197-0.758,0.15-0.996-0.048
			c-0.153,0.204-0.375,0.425-0.538,0.593c0.311,0.097,0.517,0.185,0.773,0.443c-0.519,0.217-0.9,0.148-1.132-0.096
			c-0.178,0.155-0.352,0.313-0.536,0.422c0.305,0.158,0.528,0.323,0.712,0.578c-0.591,0.134-0.978-0.032-1.15-0.364
			c-0.176,0.072-0.338,0.129-0.516,0.164c0.17,0.146,0.284,0.256,0.367,0.444c-0.404-0.009-0.633-0.103-0.692-0.352
			c-0.081,0.006-0.163,0.06-0.246,0.06v0.79l-0.497-0.219v-0.58c-0.05-0.005-0.168-0.046-0.217-0.054
			c-0.07,0.233-0.249,0.326-0.638,0.333c0.088-0.192,0.134-0.326,0.328-0.429c-0.179-0.044-0.345-0.132-0.523-0.212
			c-0.153,0.366-0.501,0.519-1.125,0.377c0.183-0.255,0.413-0.482,0.725-0.589c-0.161-0.1-0.307-0.199-0.465-0.352
			c-0.226,0.256-0.612,0.342-1.144,0.121c0.219-0.22,0.434-0.396,0.764-0.459c-0.168-0.163-0.319-0.364-0.478-0.562
			c-0.236,0.207-0.593,0.275-1.078,0.07c0.219-0.22,0.466-0.456,0.779-0.45c-0.096-0.137-0.181-0.292-0.281-0.448
			c-0.102-0.002-0.191,0-0.296-0.134c-0.117-0.148-0.225-0.465-0.033-0.565c0.117-0.101,0.393,0.048,0.484,0.214
			c0.082,0.152,0.053,0.242,0.021,0.347c0.098,0.152,0.208,0.303,0.304,0.438c-0.066-0.437,0.055-0.798,0.17-1.056
			c0.391,0.544,0.317,1.014,0.1,1.348c0.163,0.199,0.299,0.349,0.459,0.513c-0.046-0.306-0.008-0.77,0.104-1.026
			c0.363,0.503,0.412,1.017,0.246,1.355c0.154,0.129,0.295,0.253,0.448,0.35c-0.083-0.291-0.122-0.767-0.046-1.041
			c0.413,0.417,0.54,0.892,0.444,1.249l0,0c0.176,0.08,0.344,0.148,0.519,0.189c-0.082-0.171-0.162-0.461-0.149-0.648
			c0.308,0.198,0.387,0.425,0.374,0.665c0.049,0.006,0.182,0.063,0.228,0.067l-0.012-0.693c-0.303-0.078-0.762-0.252-0.912-0.842
			c0.285,0.067,0.65,0.137,0.912,0.371v-0.365c-0.616-0.052-1.235-0.486-1.541-1.36c0.535,0.093,1.048,0.349,1.541,0.67v-0.321l0,0
			c-0.536-0.042-1.042-0.539-1.269-1.248c0.444,0.084,0.858,0.285,1.269,0.58v-0.406c-0.504-0.056-1.018-0.484-1.269-1.269
			c0.444,0.084,0.858,0.275,1.269,0.569v-0.453c-0.52-0.039-1.012-0.327-1.269-1.135c0.444,0.083,0.858,0.317,1.269,0.61v-0.505
			c-0.41-0.047-0.797-0.298-1.001-1.094c0.357,0.084,0.673,0.237,1.001,0.53v-0.524c-0.314-0.055-0.606-0.181-0.766-0.796
			c0.216,0.048,0.476,0.061,0.769,0.32l-0.005-0.314c-0.238-0.355-0.187-0.511-0.16-0.792c0.028-0.257,0.123-0.446,0.399-0.458
			c0.276,0.012,0.368,0.201,0.398,0.458C22.563,85.667,22.618,85.823,22.377,86.178z"/>
	</g>
	<g class="st12">
		<g>
			<path class="st17" d="M33.752,96.754c3.008-1.286,0.147-2.917-1.582-4.676c-0.291-0.294-1.436-1.504-1.561-1.677
				c-0.224-0.307-0.526-0.762-0.683-1.211c-0.328-0.929-0.02-2.127,1.478-1.825c0.357,0.166,0.475-0.205,0.923,0.127
				c0.361,0.268,1.738,1.658-0.566,0.897c-0.518-0.171-0.234-0.448-0.508-0.506c-0.411-0.098-2.144,0.355,0.995,3.2
				c4.393,3.984,4.671,4.881,1.508,6.46L33.752,96.754z"/>
		</g>
		<g>
			<g>
				<path class="st17" d="M33.744,104.257c0.477-0.164,0.38-0.8-0.109-1.013c0,0-0.428-0.168-0.428-0.459v-0.569
					c-0.124,0.02-1.316,0.551-0.225,1.25c0.311,0.201,0.77,0.036,0.763,0.577V104.257z"/>
			</g>
			<g>
				<path class="st17" d="M33.732,102.609c1.25-0.206,2.448-1.43,0.26-2.315c-2.237-0.902-2.627-1.225-0.932-2.45l-0.059-0.779
					c-1.141,0.371-2.89,2.349-0.592,3.25c1.533,0.599,3.227,1.255,1.323,1.786V102.609z"/>
			</g>
			<g>
				<path class="st17" d="M33.245,104.428l-0.01-0.323c-0.254,0.119-0.323,0.158-0.459,0.314c-0.176,0.201-0.05,0.174,0.185,0.077
					C33.175,104.408,33.245,104.428,33.245,104.428z"/>
			</g>
		</g>
	</g>
	<g class="st12">
		<polygon class="st18" points="33.869,88.78 33.346,88.639 33.06,88.495 33.01,88.56 33.302,88.703 33.596,89.171 33.577,88.838 		
			"/>
	</g>
	<g class="st12">
		<path class="st19" d="M31.761,88.214c0.048,0.027,0.101,0.021,0.119-0.011c0.016-0.032-0.009-0.079-0.057-0.106
			c-0.049-0.027-0.101-0.021-0.118,0.011C31.688,88.141,31.712,88.188,31.761,88.214z"/>
		<path class="st19" d="M31.793,88.155"/>
	</g>
	<g class="st12">
		<path class="st19" d="M32.014,87.666c0.041,0.039,0.095,0.048,0.118,0.021c0.024-0.027,0.014-0.078-0.028-0.116
			c-0.041-0.038-0.092-0.046-0.118-0.019C31.963,87.578,31.973,87.631,32.014,87.666z"/>
		<path class="st19" d="M32.059,87.618"/>
	</g>
	<g class="st12">
		<g>
			<rect x="22.822" y="102.321" class="st20" width="0.715" height="1.832"/>
			<path class="st20" d="M23.179,103.236"/>
		</g>
		<g>
			<rect x="21.467" y="99.93" class="st20" width="0.718" height="1.833"/>
			<path class="st20" d="M21.825,100.848"/>
		</g>
		<g>
			<rect x="23.916" y="98.496" class="st20" width="0.717" height="1.833"/>
			<path class="st20" d="M24.273,99.414"/>
		</g>
		<g>
			<rect x="25.21" y="101.027" class="st20" width="0.717" height="1.832"/>
			<path class="st20" d="M25.568,101.944"/>
		</g>
		<g>
			<rect x="24.076" y="103.415" class="st20" width="1.831" height="0.717"/>
			<path class="st20" d="M24.991,103.772"/>
		</g>
		<g>
			<rect x="22.801" y="101.045" class="st20" width="1.832" height="0.718"/>
			<path class="st20" d="M23.718,101.403"/>
		</g>
		<g>
			<rect x="21.487" y="98.496" class="st20" width="1.832" height="0.718"/>
			<path class="st20" d="M22.402,98.856"/>
		</g>
		<g>
			<rect x="22.74" y="99.851" class="st20" width="0.558" height="0.558"/>
			<path class="st20" d="M23.019,100.131"/>
		</g>
		<g>
			<rect x="24.095" y="102.321" class="st20" width="0.556" height="0.557"/>
			<path class="st20" d="M24.373,102.599"/>
		</g>
	</g>
	<g class="st12">
		<defs>
			<path id="SVGID_5_" d="M28.109,111.195c15.137-8.264,11.528-24.722,10.486-27.152H17.624
				C16.581,86.472,12.969,102.93,28.109,111.195z"/>
		</defs>
		<clipPath id="SVGID_6_">
			<use xlink:href="#SVGID_5_"  style="overflow:visible;"/>
		</clipPath>
		<g class="st21">
			<g>
				<line class="st22" x1="28.109" y1="111.398" x2="28.109" y2="83.749"/>
			</g>
			<g>
				<line class="st22" x1="16.614" y1="95.78" x2="28.087" y2="95.78"/>
			</g>
		</g>
	</g>
	<g class="st12">
		<path class="st13" d="M46.328,97.575V94.02h0.39c0.658,2.055,2.158,3.247,3.863,3.247c1.952,0,3.452-1.397,3.452-3.144
			c0-1.644-1.171-1.911-3.391-2.61c-2.794-0.883-4.295-1.664-4.295-4.048c0-2.178,1.562-3.76,3.945-3.76
			c1.726,0,2.507,0.801,2.692,0.801c0.041,0,0.123-0.021,0.185-0.103l0.39-0.432h0.432v3.082h-0.37
			c-0.658-1.932-1.829-2.897-3.555-2.897c-1.562,0-2.754,1.069-2.754,2.404c0,1.151,0.842,1.788,2.61,2.26
			c1.582,0.431,2.835,0.699,3.698,1.356c0.884,0.678,1.356,1.705,1.356,3c0,2.774-1.747,4.582-4.582,4.582
			c-1.932,0-2.754-0.925-2.938-0.925c-0.041,0-0.103,0.041-0.164,0.103l-0.617,0.637H46.328z"/>
		<path class="st13" d="M61.37,97h1.706V84.527c-0.246-0.021-0.452-0.021-0.678-0.021c-1.973,0-2.712,0.904-3.226,3.452H58.72
			l0.185-3.945h10.418l0.144,3.863h-0.493c-0.308-2.425-1.212-3.37-3.308-3.37c-0.185,0-0.37,0-0.555,0.021V97h1.664v0.514H61.37V97
			z"/>
		<path class="st13" d="M71.172,97h1.603l4.603-13.336h0.514L82.186,97h1.418v0.514h-5.137V97h1.664l-1.356-4.335h-3.904L73.433,97
			h1.705v0.514h-3.966V97z M78.59,92.068l-1.705-5.425l-1.829,5.425H78.59z"/>
		<path class="st13" d="M87.077,97h1.52V84.527h-1.5v-0.514h3.925l5.753,9.657v-9.144h-1.541v-0.514h3.76v0.514h-1.562v13.315
			h-0.534l-7.664-13.068V97h1.521v0.514h-3.678V97z"/>
		<path class="st13" d="M103.127,97h1.52V84.527h-1.52v-0.514h10.047v3.596h-0.431c-0.205-2.466-1.171-3.082-3.514-3.082h-2.527
			v5.815c0.061,0,0.123,0,0.184,0c1.767,0,2.466-0.575,2.589-2.137h0.431v5.034h-0.431c-0.144-1.664-0.822-2.363-2.363-2.363
			c-0.144,0-0.267,0.021-0.411,0.021V97h1.603v0.514h-5.178V97z"/>
		<path class="st13" d="M118.497,95.726c-0.986-1.274-1.582-3.062-1.582-5.014c0-1.89,0.555-3.473,1.582-4.746
			c1.192-1.459,2.569-2.198,4.274-2.198c1.603,0,2.918,0.637,4.048,1.952c1.15,1.336,1.787,3.103,1.787,5.096
			c0,1.931-0.616,3.719-1.685,5.034c-1.109,1.377-2.404,1.993-4.15,1.993C120.942,97.842,119.627,97.185,118.497,95.726z
			 M119.237,91.637c0,3.822,1.151,5.692,3.534,5.692c2.384,0,3.514-1.89,3.514-5.733c0-5.034-0.637-7.356-3.514-7.356
			C119.915,84.24,119.237,86.603,119.237,91.637z"/>
		<path class="st13" d="M134.382,97V84.527h-1.52v-0.514h5.712c3.082,0,4.706,1.13,4.706,2.979c0,1.808-1.48,3.082-4.11,3.205v0.165
			c2.014,0.349,3.267,1.459,3.493,2.918c0.206,1.294,0,2.466,0.288,3.205c0.185,0.493,0.493,0.699,1.027,0.699
			c0.35,0,0.699-0.103,1.048-0.267v0.514c-0.678,0.288-1.315,0.432-1.87,0.432c-1.808,0-2.527-1.397-2.65-4.151
			c-0.042-0.945-0.042-1.685-0.637-2.342c-0.555-0.596-1.377-0.925-2.301-0.925h-1.192V97h1.562v0.514h-5.158V97H134.382z
			 M137.567,89.911c2.465,0,3.493-0.452,3.493-2.794c0-2.178-0.842-2.589-2.918-2.589h-1.767v5.383H137.567z"/>
		<path class="st13" d="M150.39,84.527h-1.52v-0.514h4.931c4.377,0,6.761,2.425,6.761,6.596c0,2.527-0.884,4.5-2.548,5.815
			c-1.008,0.781-2.302,1.089-4.008,1.089h-5.136V97h1.52V84.527z M152.445,97h1.459c1.397,0,2.425-0.308,3.082-0.863
			c1.273-1.089,1.315-2.774,1.315-5.425c0-2.486-0.103-4.11-1.131-5.137c-0.781-0.781-1.89-1.048-3.452-1.048h-1.273V97z"/>
	</g>
	<path class="st23" d="M50.285,105.075c-0.158-0.611-0.655-1.101-1.468-1.101c-0.734,0-1.171,0.35-1.18,0.979
		c-0.017,1.381,3.548,1.03,3.548,3.058c0,0.917-0.516,1.853-2.124,1.853c-1.381,0-1.923-0.892-2.255-1.642l0.639-0.227
		c0.253,0.663,0.725,1.275,1.651,1.275c0.927,0,1.39-0.489,1.39-1.137c0-1.607-3.548-1.136-3.548-3.128
		c0-0.909,0.76-1.625,1.896-1.625c0.979,0,1.748,0.515,2.08,1.555L50.285,105.075z"/>
	<path class="st23" d="M58.019,107.89c-0.28,1.171-0.926,1.975-2.22,1.975c-1.415,0-2.412-1.03-2.412-3.242
		c0-2.054,0.891-3.242,2.412-3.242c1.172,0,1.853,0.681,2.132,1.835l-0.647,0.192c-0.227-0.892-0.629-1.434-1.573-1.434
		c-0.909,0-1.625,0.839-1.625,2.648c0,1.827,0.717,2.648,1.765,2.648c0.97,0,1.346-0.734,1.538-1.504L58.019,107.89z"/>
	<path class="st23" d="M65.036,103.468v6.309h-0.699v-3.006h-3.024v3.006h-0.699v-6.309h0.699v2.709h3.024v-2.709H65.036z"/>
	<path class="st23" d="M68.436,106.622c0-1.791,0.656-2.648,1.765-2.648c1.11,0,1.765,0.857,1.765,2.648
		c0,1.791-0.655,2.648-1.765,2.648C69.091,109.27,68.436,108.413,68.436,106.622z M67.737,106.622c0,2.105,0.918,3.242,2.464,3.242
		c1.547,0,2.464-1.137,2.464-3.242c0-2.106-0.918-3.242-2.464-3.242C68.654,103.381,67.737,104.516,67.737,106.622z"/>
	<path class="st23" d="M75.575,106.622c0-1.791,0.656-2.648,1.766-2.648c1.11,0,1.765,0.857,1.765,2.648
		c0,1.791-0.655,2.648-1.765,2.648C76.231,109.27,75.575,108.413,75.575,106.622z M74.876,106.622c0,2.105,0.918,3.242,2.464,3.242
		s2.465-1.137,2.465-3.242c0-2.106-0.918-3.242-2.465-3.242S74.876,104.516,74.876,106.622z"/>
	<path class="st23" d="M82.514,109.777v-6.309h0.699v5.715h2.989v0.594H82.514z"/>
	<path class="st23" d="M92.861,106.622c0-1.791,0.656-2.648,1.765-2.648c1.11,0,1.766,0.857,1.766,2.648
		c0,1.791-0.656,2.648-1.766,2.648C93.517,109.27,92.861,108.413,92.861,106.622z M92.162,106.622c0,2.105,0.918,3.242,2.464,3.242
		c1.547,0,2.465-1.137,2.465-3.242c0-2.106-0.917-3.242-2.465-3.242C93.08,103.381,92.162,104.516,92.162,106.622z"/>
	<path class="st23" d="M103.471,103.468v0.594h-3.042v2.115h2.254v0.594h-2.254v3.006H99.73v-6.309H103.471z"/>
	<path class="st23" d="M114.709,109.777v-5.768h-0.027l-1.765,5.768h-0.542l-1.773-5.768h-0.027v5.768h-0.63v-6.309h1.084
		l1.608,5.103h0.017l1.582-5.103h1.101v6.309H114.709z"/>
	<path class="st23" d="M122.321,103.468v0.594h-3.085v2.115h2.194v0.594h-2.194v2.412h3.26v0.594h-3.959v-6.309H122.321z"/>
	<path class="st23" d="M125.816,104.061h0.979c1.293,0,2.168,0.717,2.168,2.561c0,1.696-0.752,2.561-2.203,2.561h-0.944V104.061z
		 M125.118,109.777h1.66c1.887,0,2.883-1.302,2.883-3.155c0-2.071-1.136-3.154-2.848-3.154h-1.695V109.777z"/>
	<path class="st23" d="M133.183,103.468v6.309h-0.699v-6.309H133.183z"/>
	<path class="st23" d="M140.603,107.89c-0.28,1.171-0.927,1.975-2.22,1.975c-1.416,0-2.412-1.03-2.412-3.242
		c0-2.054,0.892-3.242,2.412-3.242c1.171,0,1.853,0.681,2.132,1.835l-0.646,0.192c-0.227-0.892-0.63-1.434-1.573-1.434
		c-0.908,0-1.625,0.839-1.625,2.648c0,1.827,0.717,2.648,1.765,2.648c0.97,0,1.346-0.734,1.538-1.504L140.603,107.89z"/>
	<path class="st23" d="M144.055,103.468v6.309h-0.699v-6.309H144.055z"/>
	<path class="st23" d="M147.42,109.777v-6.309h1.005l2.752,4.859h0.036v-4.859h0.629v6.309h-0.576l-3.199-5.627h-0.017v5.627H147.42
		z"/>
	<path class="st23" d="M158.824,103.468v0.594h-3.085v2.115h2.194v0.594h-2.194v2.412h3.26v0.594h-3.958v-6.309H158.824z"/>
</g>
</svg>
