<svg width="690" height="751" viewBox="0 0 690 751" fill="none" xmlns="http://www.w3.org/2000/svg">
<path d="M169.866 173.857L177.111 169V178.163L169.866 173.857Z" fill="#6DABBC"/>
<path d="M523.207 452.857L530.451 448V457.165L523.207 452.857Z" fill="#6DABBC"/>
<path d="M345.149 254L351.492 259.315H339L345.149 254Z" fill="#C3E1E5"/>
<path d="M170.245 313.576L163 308.719V317.883L170.245 313.576Z" fill="#6DABBC"/>
<path d="M524.372 313.576L517.128 308.719V317.883L524.372 313.576Z" fill="#6DABBC"/>
<path d="M446 313L516 313" stroke="#6DABBC" stroke-width="3" stroke-miterlimit="10"/>
<path d="M173 313L205 313" stroke="#6DABBC" stroke-width="3" stroke-miterlimit="10"/>
<path d="M260 313L308 313" stroke="#6DABBC" stroke-width="3" stroke-miterlimit="10"/>
<path d="M345.32 300.888C345.487 287.116 345.653 264.487 345.343 242.355C344.464 207.579 318.769 179.268 282.936 174.599" stroke="#C3E1E5" stroke-width="3" stroke-miterlimit="10" stroke-dasharray="25.55 5.11"/>
<path d="M281.028 174.373C277.977 174.05 274.856 173.897 271.674 173.925" stroke="#C3E1E5" stroke-width="3" stroke-miterlimit="10"/>
<path d="M345.194 319C345.029 333.482 344.866 357.224 345.173 380.446C346.044 417.002 371.501 447.042 407 452" stroke="#C3E1E5" stroke-width="3" stroke-miterlimit="10" stroke-dasharray="25.45 5.09"/>
<path d="M409.195 452.5C412.246 452.824 415.367 452.978 418.549 452.95" stroke="#C3E1E5" stroke-width="3" stroke-miterlimit="10"/>
<path d="M344.779 1C344.779 1 345.493 71.0143 344.999 106.021C344.03 144.091 312.926 174.284 271.33 173.923C196.133 174.173 178.395 174.284 178.395 174.284" stroke="#6DABBC" stroke-width="3" stroke-miterlimit="10"/>
<path d="M345.101 733.143C345.101 733.143 344.387 555.858 344.881 520.852C345.85 482.782 376.954 452.588 418.55 452.949C493.747 452.698 522.727 452.588 522.727 452.588" stroke="#6DABBC" stroke-width="3" stroke-miterlimit="10"/>
<path d="M166.778 174.66H87.7078C87.7078 174.66 14.6335 171.659 14.2588 245.174" stroke="#6DABBC" stroke-width="3" stroke-miterlimit="10"/>
<path d="M160.782 313.42H87.7077C87.7077 313.42 14.6335 316.42 14.2588 242.906" stroke="#6DABBC" stroke-width="3" stroke-miterlimit="10"/>
<path d="M532.845 452.214H602.172C602.172 452.214 675.246 455.214 675.621 381.7" stroke="#6DABBC" stroke-width="3" stroke-miterlimit="10"/>
<path d="M525.35 313.453H602.172C602.172 313.453 675.246 310.453 675.621 383.967" stroke="#6DABBC" stroke-width="3" stroke-miterlimit="10"/>
<path d="M345.235 87.7237C353.696 87.7237 360.556 80.8582 360.556 72.3892C360.556 63.9202 353.696 57.0547 345.235 57.0547C336.773 57.0547 329.914 63.9202 329.914 72.3892C329.914 80.8582 336.773 87.7237 345.235 87.7237Z" fill="#DDDDDD"/>
<path d="M345.235 76.659C347.591 76.659 349.501 74.7473 349.501 72.3892C349.501 70.031 347.591 68.1193 345.235 68.1193C342.879 68.1193 340.969 70.031 340.969 72.3892C340.969 74.7473 342.879 76.659 345.235 76.659Z" fill="#006B84"/>
<path d="M15.3209 261.258C23.7823 261.258 30.6417 254.392 30.6417 245.923C30.6417 237.454 23.7823 230.589 15.3209 230.589C6.85937 230.589 0 237.454 0 245.923C0 254.392 6.85937 261.258 15.3209 261.258Z" fill="#DDDDDD"/>
<path d="M15.3207 250.193C17.6768 250.193 19.5868 248.281 19.5868 245.923C19.5868 243.565 17.6768 241.653 15.3207 241.653C12.9646 241.653 11.0547 243.565 11.0547 245.923C11.0547 248.281 12.9646 250.193 15.3207 250.193Z" fill="#006B84"/>
<path d="M674.56 399.301C683.021 399.301 689.88 392.436 689.88 383.967C689.88 375.498 683.021 368.632 674.56 368.632C666.098 368.632 659.239 375.498 659.239 383.967C659.239 392.436 666.098 399.301 674.56 399.301Z" fill="#DDDDDD"/>
<path d="M674.56 388.237C676.916 388.237 678.826 386.325 678.826 383.967C678.826 381.609 676.916 379.697 674.56 379.697C672.204 379.697 670.294 381.609 670.294 383.967C670.294 386.325 672.204 388.237 674.56 388.237Z" fill="#006B84"/>
<path d="M345.019 597.573C353.48 597.573 360.34 590.707 360.34 582.238C360.34 573.769 353.48 566.904 345.019 566.904C336.557 566.904 329.698 573.769 329.698 582.238C329.698 590.707 336.557 597.573 345.019 597.573Z" fill="#DDDDDD"/>
<path d="M345.019 586.508C347.375 586.508 349.285 584.596 349.285 582.238C349.285 579.88 347.375 577.968 345.019 577.968C342.663 577.968 340.753 579.88 340.753 582.238C340.753 584.596 342.663 586.508 345.019 586.508Z" fill="#006B84"/>
<path d="M344.706 750.054C353.168 750.054 360.027 743.188 360.027 734.719C360.027 726.25 353.168 719.385 344.706 719.385C336.245 719.385 329.385 726.25 329.385 734.719C329.385 743.188 336.245 750.054 344.706 750.054Z" fill="#DDDDDD"/>
<path d="M344.706 738.989C347.063 738.989 348.972 737.077 348.972 734.719C348.972 732.361 347.063 730.449 344.706 730.449C342.35 730.449 340.44 732.361 340.44 734.719C340.44 737.077 342.35 738.989 344.706 738.989Z" fill="#006B84"/>
<path d="M374.563 583H373.251V573.047H374.563V583ZM377.968 575.604L378.009 576.533C378.574 575.822 379.312 575.467 380.224 575.467C381.787 575.467 382.575 576.349 382.589 578.112V583H381.324V578.105C381.32 577.572 381.197 577.178 380.955 576.923C380.718 576.668 380.347 576.54 379.841 576.54C379.431 576.54 379.071 576.649 378.761 576.868C378.451 577.087 378.209 577.374 378.036 577.729V583H376.771V575.604H377.968ZM386.212 573.812V575.604H387.593V576.581H386.212V581.168C386.212 581.464 386.273 581.688 386.396 581.838C386.52 581.984 386.729 582.057 387.025 582.057C387.171 582.057 387.372 582.029 387.627 581.975V583C387.294 583.091 386.971 583.137 386.656 583.137C386.091 583.137 385.665 582.966 385.378 582.624C385.091 582.282 384.947 581.797 384.947 581.168V576.581H383.601V575.604H384.947V573.812H386.212ZM392.146 583.137C391.143 583.137 390.327 582.809 389.698 582.152C389.069 581.492 388.755 580.61 388.755 579.507V579.274C388.755 578.541 388.894 577.887 389.172 577.312C389.454 576.734 389.846 576.283 390.348 575.959C390.854 575.631 391.4 575.467 391.988 575.467C392.95 575.467 393.697 575.784 394.23 576.417C394.764 577.05 395.03 577.957 395.03 579.138V579.664H390.02C390.038 580.393 390.25 580.983 390.655 581.435C391.065 581.881 391.585 582.104 392.214 582.104C392.66 582.104 393.039 582.013 393.349 581.831C393.659 581.649 393.93 581.407 394.162 581.106L394.935 581.708C394.315 582.66 393.385 583.137 392.146 583.137ZM391.988 576.506C391.478 576.506 391.049 576.693 390.703 577.066C390.357 577.436 390.143 577.955 390.061 578.625H393.766V578.529C393.729 577.887 393.556 577.39 393.246 577.039C392.936 576.684 392.517 576.506 391.988 576.506ZM400.075 576.738C399.884 576.706 399.676 576.69 399.453 576.69C398.624 576.69 398.061 577.044 397.765 577.75V583H396.5V575.604H397.73L397.751 576.458C398.166 575.797 398.754 575.467 399.515 575.467C399.761 575.467 399.948 575.499 400.075 575.562V576.738ZM403.808 581.284L405.64 575.604H406.932L404.279 583H403.315L400.636 575.604H401.928L403.808 581.284ZM409.522 583H408.258V575.604H409.522V583ZM408.155 573.642C408.155 573.437 408.217 573.263 408.34 573.122C408.467 572.981 408.654 572.91 408.9 572.91C409.146 572.91 409.333 572.981 409.461 573.122C409.589 573.263 409.652 573.437 409.652 573.642C409.652 573.847 409.589 574.018 409.461 574.154C409.333 574.291 409.146 574.359 408.9 574.359C408.654 574.359 408.467 574.291 408.34 574.154C408.217 574.018 408.155 573.847 408.155 573.642ZM414.622 583.137C413.619 583.137 412.804 582.809 412.175 582.152C411.546 581.492 411.231 580.61 411.231 579.507V579.274C411.231 578.541 411.37 577.887 411.648 577.312C411.931 576.734 412.323 576.283 412.824 575.959C413.33 575.631 413.877 575.467 414.465 575.467C415.426 575.467 416.174 575.784 416.707 576.417C417.24 577.05 417.507 577.957 417.507 579.138V579.664H412.496C412.514 580.393 412.726 580.983 413.132 581.435C413.542 581.881 414.062 582.104 414.69 582.104C415.137 582.104 415.515 582.013 415.825 581.831C416.135 581.649 416.406 581.407 416.639 581.106L417.411 581.708C416.791 582.66 415.862 583.137 414.622 583.137ZM414.465 576.506C413.954 576.506 413.526 576.693 413.18 577.066C412.833 577.436 412.619 577.955 412.537 578.625H416.242V578.529C416.206 577.887 416.033 577.39 415.723 577.039C415.413 576.684 414.993 576.506 414.465 576.506ZM425.525 581.257L426.947 575.604H428.212L426.059 583H425.033L423.235 577.395L421.485 583H420.46L418.313 575.604H419.571L421.027 581.141L422.75 575.604H423.769L425.525 581.257ZM434.487 579.104V583H433.175V573.047H436.846C437.935 573.047 438.787 573.325 439.402 573.881C440.022 574.437 440.332 575.173 440.332 576.089C440.332 577.055 440.029 577.8 439.423 578.324C438.821 578.844 437.958 579.104 436.832 579.104H434.487ZM434.487 578.03H436.846C437.548 578.03 438.085 577.866 438.459 577.538C438.833 577.205 439.02 576.727 439.02 576.103C439.02 575.51 438.833 575.036 438.459 574.681C438.085 574.325 437.573 574.141 436.921 574.127H434.487V578.03ZM445.384 576.738C445.192 576.706 444.985 576.69 444.762 576.69C443.932 576.69 443.369 577.044 443.073 577.75V583H441.809V575.604H443.039L443.06 576.458C443.474 575.797 444.062 575.467 444.823 575.467C445.069 575.467 445.256 575.499 445.384 575.562V576.738ZM449.485 583.137C448.483 583.137 447.667 582.809 447.038 582.152C446.409 581.492 446.095 580.61 446.095 579.507V579.274C446.095 578.541 446.234 577.887 446.512 577.312C446.794 576.734 447.186 576.283 447.688 575.959C448.193 575.631 448.74 575.467 449.328 575.467C450.29 575.467 451.037 575.784 451.57 576.417C452.104 577.05 452.37 577.957 452.37 579.138V579.664H447.359C447.378 580.393 447.59 580.983 447.995 581.435C448.405 581.881 448.925 582.104 449.554 582.104C450 582.104 450.379 582.013 450.688 581.831C450.998 581.649 451.27 581.407 451.502 581.106L452.274 581.708C451.655 582.66 450.725 583.137 449.485 583.137ZM449.328 576.506C448.818 576.506 448.389 576.693 448.043 577.066C447.697 577.436 447.482 577.955 447.4 578.625H451.105V578.529C451.069 577.887 450.896 577.39 450.586 577.039C450.276 576.684 449.857 576.506 449.328 576.506ZM460.088 579.384C460.088 580.509 459.83 581.416 459.315 582.104C458.8 582.793 458.103 583.137 457.224 583.137C456.326 583.137 455.619 582.852 455.104 582.282V585.844H453.84V575.604H454.995L455.057 576.424C455.572 575.786 456.287 575.467 457.203 575.467C458.092 575.467 458.794 575.802 459.309 576.472C459.828 577.142 460.088 578.074 460.088 579.268V579.384ZM458.823 579.24C458.823 578.406 458.646 577.748 458.29 577.265C457.935 576.782 457.447 576.54 456.827 576.54C456.062 576.54 455.487 576.88 455.104 577.559V581.093C455.483 581.767 456.062 582.104 456.841 582.104C457.447 582.104 457.928 581.865 458.283 581.387C458.643 580.904 458.823 580.188 458.823 579.24ZM466.268 583C466.195 582.854 466.135 582.594 466.09 582.221C465.502 582.831 464.8 583.137 463.984 583.137C463.255 583.137 462.656 582.932 462.187 582.521C461.722 582.107 461.489 581.583 461.489 580.949C461.489 580.179 461.781 579.582 462.364 579.158C462.952 578.73 463.777 578.516 464.839 578.516H466.069V577.935C466.069 577.493 465.937 577.142 465.673 576.882C465.409 576.618 465.019 576.485 464.504 576.485C464.053 576.485 463.674 576.599 463.369 576.827C463.064 577.055 462.911 577.331 462.911 577.654H461.64C461.64 577.285 461.77 576.93 462.029 576.588C462.294 576.242 462.649 575.968 463.096 575.768C463.547 575.567 464.041 575.467 464.579 575.467C465.431 575.467 466.099 575.681 466.582 576.109C467.065 576.533 467.316 577.119 467.334 577.866V581.271C467.334 581.95 467.421 582.49 467.594 582.891V583H466.268ZM464.169 582.036C464.565 582.036 464.941 581.934 465.297 581.729C465.652 581.523 465.91 581.257 466.069 580.929V579.411H465.078C463.529 579.411 462.754 579.865 462.754 580.771C462.754 581.168 462.886 581.478 463.15 581.701C463.415 581.924 463.754 582.036 464.169 582.036ZM472.892 576.738C472.7 576.706 472.493 576.69 472.27 576.69C471.44 576.69 470.877 577.044 470.581 577.75V583H469.316V575.604H470.547L470.567 576.458C470.982 575.797 471.57 575.467 472.331 575.467C472.577 575.467 472.764 575.499 472.892 575.562V576.738ZM478.354 583C478.281 582.854 478.221 582.594 478.176 582.221C477.588 582.831 476.886 583.137 476.07 583.137C475.341 583.137 474.742 582.932 474.272 582.521C473.808 582.107 473.575 581.583 473.575 580.949C473.575 580.179 473.867 579.582 474.45 579.158C475.038 578.73 475.863 578.516 476.925 578.516H478.155V577.935C478.155 577.493 478.023 577.142 477.759 576.882C477.494 576.618 477.105 576.485 476.59 576.485C476.139 576.485 475.76 576.599 475.455 576.827C475.15 577.055 474.997 577.331 474.997 577.654H473.726C473.726 577.285 473.855 576.93 474.115 576.588C474.38 576.242 474.735 575.968 475.182 575.768C475.633 575.567 476.127 575.467 476.665 575.467C477.517 575.467 478.185 575.681 478.668 576.109C479.151 576.533 479.402 577.119 479.42 577.866V581.271C479.42 581.95 479.507 582.49 479.68 582.891V583H478.354ZM476.255 582.036C476.651 582.036 477.027 581.934 477.383 581.729C477.738 581.523 477.996 581.257 478.155 580.929V579.411H477.164C475.615 579.411 474.84 579.865 474.84 580.771C474.84 581.168 474.972 581.478 475.236 581.701C475.501 581.924 475.84 582.036 476.255 582.036ZM483.118 573.812V575.604H484.499V576.581H483.118V581.168C483.118 581.464 483.18 581.688 483.303 581.838C483.426 581.984 483.635 582.057 483.932 582.057C484.077 582.057 484.278 582.029 484.533 581.975V583C484.201 583.091 483.877 583.137 483.562 583.137C482.997 583.137 482.571 582.966 482.284 582.624C481.997 582.282 481.854 581.797 481.854 581.168V576.581H480.507V575.604H481.854V573.812H483.118ZM487.356 583H486.092V575.604H487.356V583ZM485.989 573.642C485.989 573.437 486.051 573.263 486.174 573.122C486.301 572.981 486.488 572.91 486.734 572.91C486.98 572.91 487.167 572.981 487.295 573.122C487.423 573.263 487.486 573.437 487.486 573.642C487.486 573.847 487.423 574.018 487.295 574.154C487.167 574.291 486.98 574.359 486.734 574.359C486.488 574.359 486.301 574.291 486.174 574.154C486.051 574.018 485.989 573.847 485.989 573.642ZM489.052 579.233C489.052 578.509 489.193 577.857 489.476 577.278C489.763 576.7 490.159 576.253 490.665 575.938C491.175 575.624 491.757 575.467 492.408 575.467C493.415 575.467 494.229 575.815 494.849 576.513C495.473 577.21 495.785 578.137 495.785 579.295V579.384C495.785 580.104 495.646 580.751 495.368 581.325C495.095 581.895 494.701 582.339 494.186 582.658C493.675 582.977 493.087 583.137 492.422 583.137C491.419 583.137 490.606 582.788 489.981 582.091C489.362 581.394 489.052 580.471 489.052 579.322V579.233ZM490.323 579.384C490.323 580.204 490.512 580.863 490.891 581.359C491.273 581.856 491.784 582.104 492.422 582.104C493.064 582.104 493.575 581.854 493.953 581.353C494.331 580.847 494.521 580.14 494.521 579.233C494.521 578.422 494.327 577.766 493.939 577.265C493.557 576.759 493.046 576.506 492.408 576.506C491.784 576.506 491.28 576.754 490.897 577.251C490.515 577.748 490.323 578.459 490.323 579.384ZM498.567 575.604L498.608 576.533C499.174 575.822 499.912 575.467 500.823 575.467C502.386 575.467 503.175 576.349 503.188 578.112V583H501.924V578.105C501.919 577.572 501.796 577.178 501.555 576.923C501.318 576.668 500.946 576.54 500.44 576.54C500.03 576.54 499.67 576.649 499.36 576.868C499.05 577.087 498.809 577.374 498.636 577.729V583H497.371V575.604H498.567Z" fill="#3088A0"/>
<path d="M522.088 375.563C520.962 375.24 520.142 374.843 519.627 374.374C519.117 373.9 518.861 373.317 518.861 372.624C518.861 371.84 519.174 371.193 519.798 370.683C520.427 370.168 521.243 369.91 522.245 369.91C522.929 369.91 523.537 370.042 524.07 370.307C524.608 370.571 525.023 370.936 525.314 371.4C525.611 371.865 525.759 372.373 525.759 372.925H524.439C524.439 372.323 524.248 371.852 523.865 371.51C523.482 371.163 522.942 370.99 522.245 370.99C521.598 370.99 521.092 371.134 520.728 371.421C520.368 371.703 520.188 372.098 520.188 372.604C520.188 373.009 520.358 373.353 520.7 373.636C521.047 373.914 521.632 374.169 522.457 374.401C523.286 374.634 523.934 374.891 524.398 375.174C524.868 375.452 525.214 375.778 525.438 376.151C525.665 376.525 525.779 376.965 525.779 377.471C525.779 378.277 525.465 378.924 524.836 379.412C524.207 379.895 523.366 380.137 522.313 380.137C521.63 380.137 520.992 380.007 520.399 379.747C519.807 379.483 519.349 379.123 519.025 378.667C518.706 378.211 518.547 377.694 518.547 377.115H519.866C519.866 377.717 520.087 378.193 520.529 378.544C520.976 378.89 521.571 379.063 522.313 379.063C523.006 379.063 523.537 378.922 523.906 378.64C524.275 378.357 524.46 377.972 524.46 377.484C524.46 376.997 524.289 376.621 523.947 376.356C523.605 376.088 522.986 375.823 522.088 375.563ZM530.236 379.104C530.688 379.104 531.082 378.968 531.419 378.694C531.756 378.421 531.943 378.079 531.979 377.669H533.176C533.153 378.093 533.007 378.496 532.738 378.879C532.469 379.262 532.109 379.567 531.658 379.795C531.212 380.023 530.738 380.137 530.236 380.137C529.229 380.137 528.427 379.802 527.83 379.132C527.238 378.457 526.941 377.537 526.941 376.37V376.158C526.941 375.438 527.074 374.798 527.338 374.237C527.602 373.677 527.98 373.242 528.473 372.932C528.969 372.622 529.555 372.467 530.229 372.467C531.059 372.467 531.747 372.715 532.294 373.212C532.845 373.709 533.139 374.354 533.176 375.146H531.979C531.943 374.668 531.761 374.276 531.433 373.971C531.109 373.661 530.708 373.506 530.229 373.506C529.587 373.506 529.088 373.738 528.732 374.203C528.382 374.663 528.206 375.331 528.206 376.206V376.445C528.206 377.298 528.382 377.954 528.732 378.414C529.083 378.874 529.585 379.104 530.236 379.104ZM535.862 373.499C536.423 372.811 537.152 372.467 538.05 372.467C539.613 372.467 540.401 373.349 540.415 375.112V380H539.15V375.105C539.146 374.572 539.023 374.178 538.781 373.923C538.544 373.668 538.173 373.54 537.667 373.54C537.257 373.54 536.897 373.649 536.587 373.868C536.277 374.087 536.035 374.374 535.862 374.729V380H534.598V369.5H535.862V373.499ZM541.974 376.233C541.974 375.509 542.115 374.857 542.397 374.278C542.685 373.7 543.081 373.253 543.587 372.938C544.097 372.624 544.678 372.467 545.33 372.467C546.337 372.467 547.151 372.815 547.771 373.513C548.395 374.21 548.707 375.137 548.707 376.295V376.384C548.707 377.104 548.568 377.751 548.29 378.325C548.017 378.895 547.622 379.339 547.107 379.658C546.597 379.977 546.009 380.137 545.344 380.137C544.341 380.137 543.528 379.788 542.903 379.091C542.284 378.394 541.974 377.471 541.974 376.322V376.233ZM543.245 376.384C543.245 377.204 543.434 377.863 543.812 378.359C544.195 378.856 544.706 379.104 545.344 379.104C545.986 379.104 546.497 378.854 546.875 378.353C547.253 377.847 547.442 377.14 547.442 376.233C547.442 375.422 547.249 374.766 546.861 374.265C546.479 373.759 545.968 373.506 545.33 373.506C544.706 373.506 544.202 373.754 543.819 374.251C543.437 374.748 543.245 375.459 543.245 376.384ZM551.667 380H550.402V369.5H551.667V380ZM558.264 380C558.191 379.854 558.132 379.594 558.086 379.221C557.498 379.831 556.796 380.137 555.98 380.137C555.251 380.137 554.652 379.932 554.183 379.521C553.718 379.107 553.485 378.583 553.485 377.949C553.485 377.179 553.777 376.582 554.36 376.158C554.948 375.73 555.773 375.516 556.835 375.516H558.065V374.935C558.065 374.493 557.933 374.142 557.669 373.882C557.405 373.618 557.015 373.485 556.5 373.485C556.049 373.485 555.671 373.599 555.365 373.827C555.06 374.055 554.907 374.331 554.907 374.654H553.636C553.636 374.285 553.766 373.93 554.025 373.588C554.29 373.242 554.645 372.968 555.092 372.768C555.543 372.567 556.037 372.467 556.575 372.467C557.427 372.467 558.095 372.681 558.578 373.109C559.061 373.533 559.312 374.119 559.33 374.866V378.271C559.33 378.95 559.417 379.49 559.59 379.891V380H558.264ZM556.165 379.036C556.562 379.036 556.938 378.934 557.293 378.729C557.648 378.523 557.906 378.257 558.065 377.929V376.411H557.074C555.525 376.411 554.75 376.865 554.75 377.771C554.75 378.168 554.882 378.478 555.146 378.701C555.411 378.924 555.75 379.036 556.165 379.036ZM564.888 373.738C564.696 373.706 564.489 373.69 564.266 373.69C563.436 373.69 562.873 374.044 562.577 374.75V380H561.312V372.604H562.543L562.563 373.458C562.978 372.797 563.566 372.467 564.327 372.467C564.573 372.467 564.76 372.499 564.888 372.562V373.738ZM570.363 378.038C570.363 377.696 570.233 377.432 569.974 377.245C569.718 377.054 569.27 376.89 568.627 376.753C567.989 376.616 567.481 376.452 567.103 376.261C566.729 376.069 566.451 375.841 566.269 375.577C566.091 375.313 566.002 374.998 566.002 374.634C566.002 374.028 566.257 373.515 566.768 373.096C567.283 372.676 567.939 372.467 568.736 372.467C569.575 372.467 570.254 372.683 570.773 373.116C571.298 373.549 571.56 374.103 571.56 374.777H570.288C570.288 374.431 570.14 374.132 569.844 373.882C569.552 373.631 569.183 373.506 568.736 373.506C568.276 373.506 567.916 373.606 567.656 373.807C567.396 374.007 567.267 374.269 567.267 374.593C567.267 374.898 567.387 375.128 567.629 375.283C567.87 375.438 568.306 375.586 568.935 375.728C569.568 375.869 570.081 376.037 570.473 376.233C570.865 376.429 571.154 376.666 571.341 376.944C571.532 377.218 571.628 377.553 571.628 377.949C571.628 378.61 571.364 379.141 570.835 379.542C570.306 379.938 569.62 380.137 568.777 380.137C568.185 380.137 567.661 380.032 567.205 379.822C566.749 379.613 566.392 379.321 566.132 378.947C565.877 378.569 565.749 378.161 565.749 377.724H567.014C567.036 378.147 567.205 378.485 567.52 378.735C567.839 378.981 568.258 379.104 568.777 379.104C569.256 379.104 569.639 379.009 569.926 378.817C570.217 378.621 570.363 378.362 570.363 378.038ZM574.54 373.499C575.101 372.811 575.83 372.467 576.728 372.467C578.291 372.467 579.079 373.349 579.093 375.112V380H577.828V375.105C577.824 374.572 577.701 374.178 577.459 373.923C577.222 373.668 576.851 373.54 576.345 373.54C575.935 373.54 575.575 373.649 575.265 373.868C574.955 374.087 574.713 374.374 574.54 374.729V380H573.275V369.5H574.54V373.499ZM582.36 380H581.096V372.604H582.36V380ZM580.993 370.642C580.993 370.437 581.055 370.263 581.178 370.122C581.305 369.981 581.492 369.91 581.738 369.91C581.984 369.91 582.171 369.981 582.299 370.122C582.426 370.263 582.49 370.437 582.49 370.642C582.49 370.847 582.426 371.018 582.299 371.154C582.171 371.291 581.984 371.359 581.738 371.359C581.492 371.359 581.305 371.291 581.178 371.154C581.055 371.018 580.993 370.847 580.993 370.642ZM590.639 376.384C590.639 377.509 590.381 378.416 589.866 379.104C589.351 379.793 588.654 380.137 587.774 380.137C586.877 380.137 586.17 379.852 585.655 379.282V382.844H584.391V372.604H585.546L585.607 373.424C586.122 372.786 586.838 372.467 587.754 372.467C588.643 372.467 589.344 372.802 589.859 373.472C590.379 374.142 590.639 375.074 590.639 376.268V376.384ZM589.374 376.24C589.374 375.406 589.196 374.748 588.841 374.265C588.485 373.782 587.998 373.54 587.378 373.54C586.612 373.54 586.038 373.88 585.655 374.559V378.093C586.034 378.767 586.612 379.104 587.392 379.104C587.998 379.104 588.479 378.865 588.834 378.387C589.194 377.904 589.374 377.188 589.374 376.24ZM599.573 375.974H597.235V380H595.916V370.047H599.211C600.332 370.047 601.193 370.302 601.795 370.812C602.401 371.323 602.704 372.066 602.704 373.041C602.704 373.661 602.535 374.201 602.198 374.661C601.866 375.121 601.401 375.465 600.804 375.693L603.142 379.918V380H601.733L599.573 375.974ZM597.235 374.9H599.252C599.904 374.9 600.421 374.732 600.804 374.395C601.191 374.057 601.385 373.606 601.385 373.041C601.385 372.426 601.2 371.954 600.831 371.626C600.466 371.298 599.938 371.132 599.245 371.127H597.235V374.9ZM607.421 380.137C606.418 380.137 605.603 379.809 604.974 379.152C604.345 378.492 604.03 377.61 604.03 376.507V376.274C604.03 375.541 604.169 374.887 604.447 374.312C604.73 373.734 605.122 373.283 605.623 372.959C606.129 372.631 606.676 372.467 607.264 372.467C608.225 372.467 608.973 372.784 609.506 373.417C610.039 374.05 610.306 374.957 610.306 376.138V376.664H605.295C605.313 377.393 605.525 377.983 605.931 378.435C606.341 378.881 606.86 379.104 607.489 379.104C607.936 379.104 608.314 379.013 608.624 378.831C608.934 378.649 609.205 378.407 609.438 378.106L610.21 378.708C609.59 379.66 608.66 380.137 607.421 380.137ZM607.264 373.506C606.753 373.506 606.325 373.693 605.979 374.066C605.632 374.436 605.418 374.955 605.336 375.625H609.041V375.529C609.005 374.887 608.831 374.39 608.521 374.039C608.212 373.684 607.792 373.506 607.264 373.506ZM616.082 378.038C616.082 377.696 615.952 377.432 615.692 377.245C615.437 377.054 614.988 376.89 614.346 376.753C613.708 376.616 613.2 376.452 612.821 376.261C612.448 376.069 612.17 375.841 611.987 375.577C611.81 375.313 611.721 374.998 611.721 374.634C611.721 374.028 611.976 373.515 612.486 373.096C613.001 372.676 613.658 372.467 614.455 372.467C615.294 372.467 615.973 372.683 616.492 373.116C617.016 373.549 617.278 374.103 617.278 374.777H616.007C616.007 374.431 615.859 374.132 615.562 373.882C615.271 373.631 614.902 373.506 614.455 373.506C613.995 373.506 613.635 373.606 613.375 373.807C613.115 374.007 612.985 374.269 612.985 374.593C612.985 374.898 613.106 375.128 613.348 375.283C613.589 375.438 614.024 375.586 614.653 375.728C615.287 375.869 615.799 376.037 616.191 376.233C616.583 376.429 616.873 376.666 617.06 376.944C617.251 377.218 617.347 377.553 617.347 377.949C617.347 378.61 617.082 379.141 616.554 379.542C616.025 379.938 615.339 380.137 614.496 380.137C613.904 380.137 613.38 380.032 612.924 379.822C612.468 379.613 612.11 379.321 611.851 378.947C611.595 378.569 611.468 378.161 611.468 377.724H612.732C612.755 378.147 612.924 378.485 613.238 378.735C613.557 378.981 613.977 379.104 614.496 379.104C614.975 379.104 615.357 379.009 615.645 378.817C615.936 378.621 616.082 378.362 616.082 378.038ZM622.063 380.137C621.061 380.137 620.245 379.809 619.616 379.152C618.987 378.492 618.673 377.61 618.673 376.507V376.274C618.673 375.541 618.812 374.887 619.09 374.312C619.372 373.734 619.764 373.283 620.266 372.959C620.771 372.631 621.318 372.467 621.906 372.467C622.868 372.467 623.615 372.784 624.148 373.417C624.682 374.05 624.948 374.957 624.948 376.138V376.664H619.938C619.956 377.393 620.168 377.983 620.573 378.435C620.983 378.881 621.503 379.104 622.132 379.104C622.578 379.104 622.957 379.013 623.267 378.831C623.576 378.649 623.848 378.407 624.08 378.106L624.853 378.708C624.233 379.66 623.303 380.137 622.063 380.137ZM621.906 373.506C621.396 373.506 620.967 373.693 620.621 374.066C620.275 374.436 620.061 374.955 619.979 375.625H623.684V375.529C623.647 374.887 623.474 374.39 623.164 374.039C622.854 373.684 622.435 373.506 621.906 373.506ZM630.984 380C630.911 379.854 630.852 379.594 630.807 379.221C630.219 379.831 629.517 380.137 628.701 380.137C627.972 380.137 627.373 379.932 626.903 379.521C626.438 379.107 626.206 378.583 626.206 377.949C626.206 377.179 626.498 376.582 627.081 376.158C627.669 375.73 628.494 375.516 629.556 375.516H630.786V374.935C630.786 374.493 630.654 374.142 630.39 373.882C630.125 373.618 629.736 373.485 629.221 373.485C628.77 373.485 628.391 373.599 628.086 373.827C627.781 374.055 627.628 374.331 627.628 374.654H626.356C626.356 374.285 626.486 373.93 626.746 373.588C627.01 373.242 627.366 372.968 627.812 372.768C628.264 372.567 628.758 372.467 629.296 372.467C630.148 372.467 630.816 372.681 631.299 373.109C631.782 373.533 632.033 374.119 632.051 374.866V378.271C632.051 378.95 632.137 379.49 632.311 379.891V380H630.984ZM628.886 379.036C629.282 379.036 629.658 378.934 630.014 378.729C630.369 378.523 630.627 378.257 630.786 377.929V376.411H629.795C628.245 376.411 627.471 376.865 627.471 377.771C627.471 378.168 627.603 378.478 627.867 378.701C628.132 378.924 628.471 379.036 628.886 379.036ZM637.608 373.738C637.417 373.706 637.21 373.69 636.986 373.69C636.157 373.69 635.594 374.044 635.298 374.75V380H634.033V372.604H635.264L635.284 373.458C635.699 372.797 636.287 372.467 637.048 372.467C637.294 372.467 637.481 372.499 637.608 372.562V373.738ZM641.607 379.104C642.059 379.104 642.453 378.968 642.79 378.694C643.127 378.421 643.314 378.079 643.351 377.669H644.547C644.524 378.093 644.378 378.496 644.109 378.879C643.84 379.262 643.48 379.567 643.029 379.795C642.583 380.023 642.109 380.137 641.607 380.137C640.6 380.137 639.798 379.802 639.201 379.132C638.609 378.457 638.312 377.537 638.312 376.37V376.158C638.312 375.438 638.445 374.798 638.709 374.237C638.973 373.677 639.352 373.242 639.844 372.932C640.34 372.622 640.926 372.467 641.601 372.467C642.43 372.467 643.118 372.715 643.665 373.212C644.216 373.709 644.51 374.354 644.547 375.146H643.351C643.314 374.668 643.132 374.276 642.804 373.971C642.48 373.661 642.079 373.506 641.601 373.506C640.958 373.506 640.459 373.738 640.104 374.203C639.753 374.663 639.577 375.331 639.577 376.206V376.445C639.577 377.298 639.753 377.954 640.104 378.414C640.454 378.874 640.956 379.104 641.607 379.104ZM647.233 373.499C647.794 372.811 648.523 372.467 649.421 372.467C650.984 372.467 651.772 373.349 651.786 375.112V380H650.521V375.105C650.517 374.572 650.394 374.178 650.152 373.923C649.915 373.668 649.544 373.54 649.038 373.54C648.628 373.54 648.268 373.649 647.958 373.868C647.648 374.087 647.407 374.374 647.233 374.729V380H645.969V369.5H647.233V373.499ZM523.523 396C523.451 395.854 523.391 395.594 523.346 395.221C522.758 395.831 522.056 396.137 521.24 396.137C520.511 396.137 519.912 395.932 519.442 395.521C518.978 395.107 518.745 394.583 518.745 393.949C518.745 393.179 519.037 392.582 519.62 392.158C520.208 391.73 521.033 391.516 522.095 391.516H523.325V390.935C523.325 390.493 523.193 390.142 522.929 389.882C522.664 389.618 522.275 389.485 521.76 389.485C521.309 389.485 520.93 389.599 520.625 389.827C520.32 390.055 520.167 390.331 520.167 390.654H518.896C518.896 390.285 519.025 389.93 519.285 389.588C519.549 389.242 519.905 388.968 520.352 388.768C520.803 388.567 521.297 388.467 521.835 388.467C522.687 388.467 523.355 388.681 523.838 389.109C524.321 389.533 524.572 390.119 524.59 390.866V394.271C524.59 394.95 524.676 395.49 524.85 395.891V396H523.523ZM521.425 395.036C521.821 395.036 522.197 394.934 522.553 394.729C522.908 394.523 523.166 394.257 523.325 393.929V392.411H522.334C520.785 392.411 520.01 392.865 520.01 393.771C520.01 394.168 520.142 394.478 520.406 394.701C520.671 394.924 521.01 395.036 521.425 395.036ZM527.769 388.604L527.81 389.533C528.375 388.822 529.113 388.467 530.024 388.467C531.588 388.467 532.376 389.349 532.39 391.112V396H531.125V391.105C531.12 390.572 530.997 390.178 530.756 389.923C530.519 389.668 530.147 389.54 529.642 389.54C529.231 389.54 528.871 389.649 528.562 389.868C528.252 390.087 528.01 390.374 527.837 390.729V396H526.572V388.604H527.769ZM533.989 392.24C533.989 391.105 534.258 390.194 534.796 389.506C535.334 388.813 536.038 388.467 536.908 388.467C537.774 388.467 538.46 388.763 538.966 389.355V385.5H540.23V396H539.068L539.007 395.207C538.501 395.827 537.797 396.137 536.895 396.137C536.038 396.137 535.338 395.786 534.796 395.084C534.258 394.382 533.989 393.466 533.989 392.336V392.24ZM535.254 392.384C535.254 393.222 535.427 393.879 535.773 394.353C536.12 394.826 536.598 395.063 537.209 395.063C538.011 395.063 538.597 394.703 538.966 393.983V390.586C538.588 389.889 538.007 389.54 537.223 389.54C536.603 389.54 536.12 389.779 535.773 390.258C535.427 390.736 535.254 391.445 535.254 392.384ZM551.366 393.402H547.196L546.26 396H544.906L548.707 386.047H549.855L553.663 396H552.316L551.366 393.402ZM547.593 392.322H550.977L549.281 387.667L547.593 392.322ZM561.053 392.384C561.053 393.509 560.795 394.416 560.28 395.104C559.765 395.793 559.068 396.137 558.188 396.137C557.291 396.137 556.584 395.852 556.069 395.282V398.844H554.805V388.604H555.96L556.021 389.424C556.536 388.786 557.252 388.467 558.168 388.467C559.057 388.467 559.758 388.802 560.273 389.472C560.793 390.142 561.053 391.074 561.053 392.268V392.384ZM559.788 392.24C559.788 391.406 559.61 390.748 559.255 390.265C558.899 389.782 558.412 389.54 557.792 389.54C557.026 389.54 556.452 389.88 556.069 390.559V394.093C556.448 394.767 557.026 395.104 557.806 395.104C558.412 395.104 558.893 394.865 559.248 394.387C559.608 393.904 559.788 393.188 559.788 392.24ZM568.914 392.384C568.914 393.509 568.657 394.416 568.142 395.104C567.627 395.793 566.929 396.137 566.05 396.137C565.152 396.137 564.446 395.852 563.931 395.282V398.844H562.666V388.604H563.821L563.883 389.424C564.398 388.786 565.113 388.467 566.029 388.467C566.918 388.467 567.62 388.802 568.135 389.472C568.654 390.142 568.914 391.074 568.914 392.268V392.384ZM567.649 392.24C567.649 391.406 567.472 390.748 567.116 390.265C566.761 389.782 566.273 389.54 565.653 389.54C564.888 389.54 564.313 389.88 563.931 390.559V394.093C564.309 394.767 564.888 395.104 565.667 395.104C566.273 395.104 566.754 394.865 567.109 394.387C567.469 393.904 567.649 393.188 567.649 392.24ZM571.901 396H570.637V385.5H571.901V396ZM575.306 396H574.041V388.604H575.306V396ZM573.938 386.642C573.938 386.437 574 386.263 574.123 386.122C574.251 385.981 574.438 385.91 574.684 385.91C574.93 385.91 575.117 385.981 575.244 386.122C575.372 386.263 575.436 386.437 575.436 386.642C575.436 386.847 575.372 387.018 575.244 387.154C575.117 387.291 574.93 387.359 574.684 387.359C574.438 387.359 574.251 387.291 574.123 387.154C574 387.018 573.938 386.847 573.938 386.642ZM580.303 395.104C580.754 395.104 581.148 394.968 581.485 394.694C581.823 394.421 582.009 394.079 582.046 393.669H583.242C583.219 394.093 583.074 394.496 582.805 394.879C582.536 395.262 582.176 395.567 581.725 395.795C581.278 396.023 580.804 396.137 580.303 396.137C579.296 396.137 578.493 395.802 577.896 395.132C577.304 394.457 577.008 393.537 577.008 392.37V392.158C577.008 391.438 577.14 390.798 577.404 390.237C577.669 389.677 578.047 389.242 578.539 388.932C579.036 388.622 579.621 388.467 580.296 388.467C581.125 388.467 581.813 388.715 582.36 389.212C582.912 389.709 583.206 390.354 583.242 391.146H582.046C582.009 390.668 581.827 390.276 581.499 389.971C581.175 389.661 580.774 389.506 580.296 389.506C579.653 389.506 579.154 389.738 578.799 390.203C578.448 390.663 578.272 391.331 578.272 392.206V392.445C578.272 393.298 578.448 393.954 578.799 394.414C579.15 394.874 579.651 395.104 580.303 395.104ZM589.23 396C589.158 395.854 589.098 395.594 589.053 395.221C588.465 395.831 587.763 396.137 586.947 396.137C586.218 396.137 585.619 395.932 585.149 395.521C584.685 395.107 584.452 394.583 584.452 393.949C584.452 393.179 584.744 392.582 585.327 392.158C585.915 391.73 586.74 391.516 587.802 391.516H589.032V390.935C589.032 390.493 588.9 390.142 588.636 389.882C588.371 389.618 587.982 389.485 587.467 389.485C587.016 389.485 586.637 389.599 586.332 389.827C586.027 390.055 585.874 390.331 585.874 390.654H584.603C584.603 390.285 584.732 389.93 584.992 389.588C585.257 389.242 585.612 388.968 586.059 388.768C586.51 388.567 587.004 388.467 587.542 388.467C588.394 388.467 589.062 388.681 589.545 389.109C590.028 389.533 590.279 390.119 590.297 390.866V394.271C590.297 394.95 590.383 395.49 590.557 395.891V396H589.23ZM587.132 395.036C587.528 395.036 587.904 394.934 588.26 394.729C588.615 394.523 588.873 394.257 589.032 393.929V392.411H588.041C586.492 392.411 585.717 392.865 585.717 393.771C585.717 394.168 585.849 394.478 586.113 394.701C586.378 394.924 586.717 395.036 587.132 395.036ZM593.995 386.812V388.604H595.376V389.581H593.995V394.168C593.995 394.464 594.057 394.688 594.18 394.838C594.303 394.984 594.512 395.057 594.809 395.057C594.954 395.057 595.155 395.029 595.41 394.975V396C595.077 396.091 594.754 396.137 594.439 396.137C593.874 396.137 593.448 395.966 593.161 395.624C592.874 395.282 592.73 394.797 592.73 394.168V389.581H591.384V388.604H592.73V386.812H593.995ZM598.233 396H596.969V388.604H598.233V396ZM596.866 386.642C596.866 386.437 596.928 386.263 597.051 386.122C597.178 385.981 597.365 385.91 597.611 385.91C597.857 385.91 598.044 385.981 598.172 386.122C598.299 386.263 598.363 386.437 598.363 386.642C598.363 386.847 598.299 387.018 598.172 387.154C598.044 387.291 597.857 387.359 597.611 387.359C597.365 387.359 597.178 387.291 597.051 387.154C596.928 387.018 596.866 386.847 596.866 386.642ZM599.929 392.233C599.929 391.509 600.07 390.857 600.353 390.278C600.64 389.7 601.036 389.253 601.542 388.938C602.052 388.624 602.633 388.467 603.285 388.467C604.292 388.467 605.106 388.815 605.726 389.513C606.35 390.21 606.662 391.137 606.662 392.295V392.384C606.662 393.104 606.523 393.751 606.245 394.325C605.972 394.895 605.577 395.339 605.062 395.658C604.552 395.977 603.964 396.137 603.299 396.137C602.296 396.137 601.483 395.788 600.858 395.091C600.239 394.394 599.929 393.471 599.929 392.322V392.233ZM601.2 392.384C601.2 393.204 601.389 393.863 601.768 394.359C602.15 394.856 602.661 395.104 603.299 395.104C603.941 395.104 604.452 394.854 604.83 394.353C605.208 393.847 605.397 393.14 605.397 392.233C605.397 391.422 605.204 390.766 604.816 390.265C604.434 389.759 603.923 389.506 603.285 389.506C602.661 389.506 602.157 389.754 601.774 390.251C601.392 390.748 601.2 391.459 601.2 392.384ZM609.444 388.604L609.485 389.533C610.05 388.822 610.789 388.467 611.7 388.467C613.263 388.467 614.052 389.349 614.065 391.112V396H612.801V391.105C612.796 390.572 612.673 390.178 612.432 389.923C612.195 389.668 611.823 389.54 611.317 389.54C610.907 389.54 610.547 389.649 610.237 389.868C609.927 390.087 609.686 390.374 609.513 390.729V396H608.248V388.604H609.444Z" fill="#3088A0"/>
<path d="M55.6514 241.402H51.4814L50.5449 244H49.1914L52.9922 234.047H54.1406L57.9482 244H56.6016L55.6514 241.402ZM51.8779 240.322H55.2617L53.5664 235.667L51.8779 240.322ZM65.3379 240.384C65.3379 241.509 65.0804 242.416 64.5654 243.104C64.0505 243.793 63.3532 244.137 62.4736 244.137C61.5758 244.137 60.8695 243.852 60.3545 243.282V246.844H59.0898V236.604H60.2451L60.3066 237.424C60.8216 236.786 61.5371 236.467 62.4531 236.467C63.3418 236.467 64.0436 236.802 64.5586 237.472C65.0781 238.142 65.3379 239.074 65.3379 240.268V240.384ZM64.0732 240.24C64.0732 239.406 63.8955 238.748 63.54 238.265C63.1846 237.782 62.6969 237.54 62.0771 237.54C61.3115 237.54 60.7373 237.88 60.3545 238.559V242.093C60.7327 242.767 61.3115 243.104 62.0908 243.104C62.6969 243.104 63.1777 242.865 63.5332 242.387C63.8932 241.904 64.0732 241.188 64.0732 240.24ZM73.1992 240.384C73.1992 241.509 72.9417 242.416 72.4268 243.104C71.9118 243.793 71.2145 244.137 70.335 244.137C69.4372 244.137 68.7308 243.852 68.2158 243.282V246.844H66.9512V236.604H68.1064L68.168 237.424C68.6829 236.786 69.3984 236.467 70.3145 236.467C71.2031 236.467 71.9049 236.802 72.4199 237.472C72.9395 238.142 73.1992 239.074 73.1992 240.268V240.384ZM71.9346 240.24C71.9346 239.406 71.7568 238.748 71.4014 238.265C71.0459 237.782 70.5583 237.54 69.9385 237.54C69.1729 237.54 68.5986 237.88 68.2158 238.559V242.093C68.5941 242.767 69.1729 243.104 69.9521 243.104C70.5583 243.104 71.0391 242.865 71.3945 242.387C71.7546 241.904 71.9346 241.188 71.9346 240.24ZM76.1865 244H74.9219V233.5H76.1865V244ZM79.5908 244H78.3262V236.604H79.5908V244ZM78.2236 234.642C78.2236 234.437 78.2852 234.263 78.4082 234.122C78.5358 233.981 78.7227 233.91 78.9688 233.91C79.2148 233.91 79.4017 233.981 79.5293 234.122C79.6569 234.263 79.7207 234.437 79.7207 234.642C79.7207 234.847 79.6569 235.018 79.5293 235.154C79.4017 235.291 79.2148 235.359 78.9688 235.359C78.7227 235.359 78.5358 235.291 78.4082 235.154C78.2852 235.018 78.2236 234.847 78.2236 234.642ZM84.5879 243.104C85.0391 243.104 85.4333 242.968 85.7705 242.694C86.1077 242.421 86.2946 242.079 86.3311 241.669H87.5273C87.5046 242.093 87.3587 242.496 87.0898 242.879C86.821 243.262 86.4609 243.567 86.0098 243.795C85.5632 244.023 85.0892 244.137 84.5879 244.137C83.5807 244.137 82.7786 243.802 82.1816 243.132C81.5892 242.457 81.293 241.537 81.293 240.37V240.158C81.293 239.438 81.4251 238.798 81.6895 238.237C81.9538 237.677 82.332 237.242 82.8242 236.932C83.321 236.622 83.9066 236.467 84.5811 236.467C85.4105 236.467 86.0986 236.715 86.6455 237.212C87.1969 237.709 87.4909 238.354 87.5273 239.146H86.3311C86.2946 238.668 86.1123 238.276 85.7842 237.971C85.4606 237.661 85.0596 237.506 84.5811 237.506C83.9385 237.506 83.4395 237.738 83.084 238.203C82.7331 238.663 82.5576 239.331 82.5576 240.206V240.445C82.5576 241.298 82.7331 241.954 83.084 242.414C83.4349 242.874 83.9362 243.104 84.5879 243.104ZM93.5156 244C93.4427 243.854 93.3835 243.594 93.3379 243.221C92.75 243.831 92.0482 244.137 91.2324 244.137C90.5033 244.137 89.904 243.932 89.4346 243.521C88.9697 243.107 88.7373 242.583 88.7373 241.949C88.7373 241.179 89.029 240.582 89.6123 240.158C90.2002 239.73 91.0251 239.516 92.0869 239.516H93.3174V238.935C93.3174 238.493 93.1852 238.142 92.9209 237.882C92.6566 237.618 92.2669 237.485 91.752 237.485C91.3008 237.485 90.9225 237.599 90.6172 237.827C90.3118 238.055 90.1592 238.331 90.1592 238.654H88.8877C88.8877 238.285 89.0176 237.93 89.2773 237.588C89.5417 237.242 89.8971 236.968 90.3438 236.768C90.7949 236.567 91.2894 236.467 91.8271 236.467C92.6794 236.467 93.347 236.681 93.8301 237.109C94.3132 237.533 94.5638 238.119 94.582 238.866V242.271C94.582 242.95 94.6686 243.49 94.8418 243.891V244H93.5156ZM91.417 243.036C91.8135 243.036 92.1895 242.934 92.5449 242.729C92.9004 242.523 93.1579 242.257 93.3174 241.929V240.411H92.3262C90.7767 240.411 90.002 240.865 90.002 241.771C90.002 242.168 90.1341 242.478 90.3984 242.701C90.6628 242.924 91.0023 243.036 91.417 243.036ZM98.2803 234.812V236.604H99.6611V237.581H98.2803V242.168C98.2803 242.464 98.3418 242.688 98.4648 242.838C98.5879 242.984 98.7975 243.057 99.0938 243.057C99.2396 243.057 99.4401 243.029 99.6953 242.975V244C99.3626 244.091 99.0391 244.137 98.7246 244.137C98.1595 244.137 97.7334 243.966 97.4463 243.624C97.1592 243.282 97.0156 242.797 97.0156 242.168V237.581H95.6689V236.604H97.0156V234.812H98.2803ZM102.519 244H101.254V236.604H102.519V244ZM101.151 234.642C101.151 234.437 101.213 234.263 101.336 234.122C101.464 233.981 101.65 233.91 101.896 233.91C102.143 233.91 102.329 233.981 102.457 234.122C102.585 234.263 102.648 234.437 102.648 234.642C102.648 234.847 102.585 235.018 102.457 235.154C102.329 235.291 102.143 235.359 101.896 235.359C101.65 235.359 101.464 235.291 101.336 235.154C101.213 235.018 101.151 234.847 101.151 234.642ZM104.214 240.233C104.214 239.509 104.355 238.857 104.638 238.278C104.925 237.7 105.321 237.253 105.827 236.938C106.338 236.624 106.919 236.467 107.57 236.467C108.577 236.467 109.391 236.815 110.011 237.513C110.635 238.21 110.947 239.137 110.947 240.295V240.384C110.947 241.104 110.808 241.751 110.53 242.325C110.257 242.895 109.863 243.339 109.348 243.658C108.837 243.977 108.249 244.137 107.584 244.137C106.581 244.137 105.768 243.788 105.144 243.091C104.524 242.394 104.214 241.471 104.214 240.322V240.233ZM105.485 240.384C105.485 241.204 105.674 241.863 106.053 242.359C106.436 242.856 106.946 243.104 107.584 243.104C108.227 243.104 108.737 242.854 109.115 242.353C109.493 241.847 109.683 241.14 109.683 240.233C109.683 239.422 109.489 238.766 109.102 238.265C108.719 237.759 108.208 237.506 107.57 237.506C106.946 237.506 106.442 237.754 106.06 238.251C105.677 238.748 105.485 239.459 105.485 240.384ZM113.729 236.604L113.771 237.533C114.336 236.822 115.074 236.467 115.985 236.467C117.549 236.467 118.337 237.349 118.351 239.112V244H117.086V239.105C117.081 238.572 116.958 238.178 116.717 237.923C116.48 237.668 116.108 237.54 115.603 237.54C115.192 237.54 114.832 237.649 114.522 237.868C114.213 238.087 113.971 238.374 113.798 238.729V244H112.533V236.604H113.729ZM125.624 234.047L128.878 242.168L132.132 234.047H133.834V244H132.521V240.124L132.645 235.94L129.377 244H128.372L125.111 235.961L125.241 240.124V244H123.929V234.047H125.624ZM139.022 244.137C138.02 244.137 137.204 243.809 136.575 243.152C135.946 242.492 135.632 241.61 135.632 240.507V240.274C135.632 239.541 135.771 238.887 136.049 238.312C136.331 237.734 136.723 237.283 137.225 236.959C137.73 236.631 138.277 236.467 138.865 236.467C139.827 236.467 140.574 236.784 141.107 237.417C141.641 238.05 141.907 238.957 141.907 240.138V240.664H136.896C136.915 241.393 137.127 241.983 137.532 242.435C137.942 242.881 138.462 243.104 139.091 243.104C139.537 243.104 139.916 243.013 140.226 242.831C140.535 242.649 140.807 242.407 141.039 242.106L141.812 242.708C141.192 243.66 140.262 244.137 139.022 244.137ZM138.865 237.506C138.355 237.506 137.926 237.693 137.58 238.066C137.234 238.436 137.02 238.955 136.938 239.625H140.643V239.529C140.606 238.887 140.433 238.39 140.123 238.039C139.813 237.684 139.394 237.506 138.865 237.506ZM144.573 236.604L144.614 237.533C145.179 236.822 145.918 236.467 146.829 236.467C148.392 236.467 149.181 237.349 149.194 239.112V244H147.93V239.105C147.925 238.572 147.802 238.178 147.561 237.923C147.324 237.668 146.952 237.54 146.446 237.54C146.036 237.54 145.676 237.649 145.366 237.868C145.056 238.087 144.815 238.374 144.642 238.729V244H143.377V236.604H144.573ZM152.817 234.812V236.604H154.198V237.581H152.817V242.168C152.817 242.464 152.879 242.688 153.002 242.838C153.125 242.984 153.335 243.057 153.631 243.057C153.777 243.057 153.977 243.029 154.232 242.975V244C153.9 244.091 153.576 244.137 153.262 244.137C152.697 244.137 152.271 243.966 151.983 243.624C151.696 243.282 151.553 242.797 151.553 242.168V237.581H150.206V236.604H151.553V234.812H152.817ZM155.21 240.233C155.21 239.509 155.351 238.857 155.634 238.278C155.921 237.7 156.317 237.253 156.823 236.938C157.334 236.624 157.915 236.467 158.566 236.467C159.574 236.467 160.387 236.815 161.007 237.513C161.631 238.21 161.943 239.137 161.943 240.295V240.384C161.943 241.104 161.804 241.751 161.526 242.325C161.253 242.895 160.859 243.339 160.344 243.658C159.833 243.977 159.245 244.137 158.58 244.137C157.577 244.137 156.764 243.788 156.14 243.091C155.52 242.394 155.21 241.471 155.21 240.322V240.233ZM156.481 240.384C156.481 241.204 156.671 241.863 157.049 242.359C157.432 242.856 157.942 243.104 158.58 243.104C159.223 243.104 159.733 242.854 160.111 242.353C160.49 241.847 160.679 241.14 160.679 240.233C160.679 239.422 160.485 238.766 160.098 238.265C159.715 237.759 159.204 237.506 158.566 237.506C157.942 237.506 157.438 237.754 157.056 238.251C156.673 238.748 156.481 239.459 156.481 240.384ZM167.104 237.738C166.913 237.706 166.706 237.69 166.482 237.69C165.653 237.69 165.09 238.044 164.794 238.75V244H163.529V236.604H164.76L164.78 237.458C165.195 236.797 165.783 236.467 166.544 236.467C166.79 236.467 166.977 236.499 167.104 236.562V237.738ZM169.647 244H168.383V236.604H169.647V244ZM168.28 234.642C168.28 234.437 168.342 234.263 168.465 234.122C168.592 233.981 168.779 233.91 169.025 233.91C169.271 233.91 169.458 233.981 169.586 234.122C169.714 234.263 169.777 234.437 169.777 234.642C169.777 234.847 169.714 235.018 169.586 235.154C169.458 235.291 169.271 235.359 169.025 235.359C168.779 235.359 168.592 235.291 168.465 235.154C168.342 235.018 168.28 234.847 168.28 234.642ZM172.874 236.604L172.915 237.533C173.48 236.822 174.218 236.467 175.13 236.467C176.693 236.467 177.481 237.349 177.495 239.112V244H176.23V239.105C176.226 238.572 176.103 238.178 175.861 237.923C175.624 237.668 175.253 237.54 174.747 237.54C174.337 237.54 173.977 237.649 173.667 237.868C173.357 238.087 173.116 238.374 172.942 238.729V244H171.678V236.604H172.874ZM179.102 240.24C179.102 239.087 179.368 238.171 179.901 237.492C180.435 236.809 181.141 236.467 182.021 236.467C182.923 236.467 183.627 236.786 184.133 237.424L184.194 236.604H185.35V243.822C185.35 244.779 185.065 245.534 184.495 246.085C183.93 246.636 183.169 246.912 182.212 246.912C181.679 246.912 181.157 246.798 180.646 246.57C180.136 246.342 179.746 246.03 179.478 245.634L180.134 244.875C180.676 245.545 181.339 245.88 182.123 245.88C182.738 245.88 183.217 245.707 183.559 245.36C183.905 245.014 184.078 244.526 184.078 243.897V243.262C183.572 243.845 182.882 244.137 182.007 244.137C181.141 244.137 180.439 243.788 179.901 243.091C179.368 242.394 179.102 241.443 179.102 240.24ZM180.373 240.384C180.373 241.218 180.544 241.874 180.886 242.353C181.228 242.826 181.706 243.063 182.321 243.063C183.119 243.063 183.704 242.701 184.078 241.977V238.6C183.691 237.893 183.11 237.54 182.335 237.54C181.72 237.54 181.239 237.779 180.893 238.258C180.546 238.736 180.373 239.445 180.373 240.384Z" fill="#3088A0"/>
<path d="M211.119 313.549H209.115V317H207.984V308.469H210.809C211.77 308.469 212.508 308.688 213.023 309.125C213.543 309.562 213.803 310.199 213.803 311.035C213.803 311.566 213.658 312.029 213.369 312.424C213.084 312.818 212.686 313.113 212.174 313.309L214.178 316.93V317H212.971L211.119 313.549ZM209.115 312.629H210.844C211.402 312.629 211.846 312.484 212.174 312.195C212.506 311.906 212.672 311.52 212.672 311.035C212.672 310.508 212.514 310.104 212.197 309.822C211.885 309.541 211.432 309.398 210.838 309.395H209.115V312.629ZM217.846 317.117C216.986 317.117 216.287 316.836 215.748 316.273C215.209 315.707 214.939 314.951 214.939 314.006V313.807C214.939 313.178 215.059 312.617 215.297 312.125C215.539 311.629 215.875 311.242 216.305 310.965C216.738 310.684 217.207 310.543 217.711 310.543C218.535 310.543 219.176 310.814 219.633 311.357C220.09 311.9 220.318 312.678 220.318 313.689V314.141H216.023C216.039 314.766 216.221 315.271 216.568 315.658C216.92 316.041 217.365 316.232 217.904 316.232C218.287 316.232 218.611 316.154 218.877 315.998C219.143 315.842 219.375 315.635 219.574 315.377L220.236 315.893C219.705 316.709 218.908 317.117 217.846 317.117ZM217.711 311.434C217.273 311.434 216.906 311.594 216.609 311.914C216.312 312.23 216.129 312.676 216.059 313.25H219.234V313.168C219.203 312.617 219.055 312.191 218.789 311.891C218.523 311.586 218.164 311.434 217.711 311.434ZM225.27 315.318C225.27 315.025 225.158 314.799 224.936 314.639C224.717 314.475 224.332 314.334 223.781 314.217C223.234 314.1 222.799 313.959 222.475 313.795C222.154 313.631 221.916 313.436 221.76 313.209C221.607 312.982 221.531 312.713 221.531 312.4C221.531 311.881 221.75 311.441 222.188 311.082C222.629 310.723 223.191 310.543 223.875 310.543C224.594 310.543 225.176 310.729 225.621 311.1C226.07 311.471 226.295 311.945 226.295 312.523H225.205C225.205 312.227 225.078 311.971 224.824 311.756C224.574 311.541 224.258 311.434 223.875 311.434C223.48 311.434 223.172 311.52 222.949 311.691C222.727 311.863 222.615 312.088 222.615 312.365C222.615 312.627 222.719 312.824 222.926 312.957C223.133 313.09 223.506 313.217 224.045 313.338C224.588 313.459 225.027 313.604 225.363 313.771C225.699 313.939 225.947 314.143 226.107 314.381C226.271 314.615 226.354 314.902 226.354 315.242C226.354 315.809 226.127 316.264 225.674 316.607C225.221 316.947 224.633 317.117 223.91 317.117C223.402 317.117 222.953 317.027 222.562 316.848C222.172 316.668 221.865 316.418 221.643 316.098C221.424 315.773 221.314 315.424 221.314 315.049H222.398C222.418 315.412 222.562 315.701 222.832 315.916C223.105 316.127 223.465 316.232 223.91 316.232C224.32 316.232 224.648 316.15 224.895 315.986C225.145 315.818 225.27 315.596 225.27 315.318ZM230.396 317.117C229.537 317.117 228.838 316.836 228.299 316.273C227.76 315.707 227.49 314.951 227.49 314.006V313.807C227.49 313.178 227.609 312.617 227.848 312.125C228.09 311.629 228.426 311.242 228.855 310.965C229.289 310.684 229.758 310.543 230.262 310.543C231.086 310.543 231.727 310.814 232.184 311.357C232.641 311.9 232.869 312.678 232.869 313.689V314.141H228.574C228.59 314.766 228.771 315.271 229.119 315.658C229.471 316.041 229.916 316.232 230.455 316.232C230.838 316.232 231.162 316.154 231.428 315.998C231.693 315.842 231.926 315.635 232.125 315.377L232.787 315.893C232.256 316.709 231.459 317.117 230.396 317.117ZM230.262 311.434C229.824 311.434 229.457 311.594 229.16 311.914C228.863 312.23 228.68 312.676 228.609 313.25H231.785V313.168C231.754 312.617 231.605 312.191 231.34 311.891C231.074 311.586 230.715 311.434 230.262 311.434ZM238.043 317C237.98 316.875 237.93 316.652 237.891 316.332C237.387 316.855 236.785 317.117 236.086 317.117C235.461 317.117 234.947 316.941 234.545 316.59C234.146 316.234 233.947 315.785 233.947 315.242C233.947 314.582 234.197 314.07 234.697 313.707C235.201 313.34 235.908 313.156 236.818 313.156H237.873V312.658C237.873 312.279 237.76 311.979 237.533 311.756C237.307 311.529 236.973 311.416 236.531 311.416C236.145 311.416 235.82 311.514 235.559 311.709C235.297 311.904 235.166 312.141 235.166 312.418H234.076C234.076 312.102 234.188 311.797 234.41 311.504C234.637 311.207 234.941 310.973 235.324 310.801C235.711 310.629 236.135 310.543 236.596 310.543C237.326 310.543 237.898 310.727 238.312 311.094C238.727 311.457 238.941 311.959 238.957 312.6V315.518C238.957 316.1 239.031 316.562 239.18 316.906V317H238.043ZM236.244 316.174C236.584 316.174 236.906 316.086 237.211 315.91C237.516 315.734 237.736 315.506 237.873 315.225V313.924H237.023C235.695 313.924 235.031 314.312 235.031 315.09C235.031 315.43 235.145 315.695 235.371 315.887C235.598 316.078 235.889 316.174 236.244 316.174ZM243.721 311.633C243.557 311.605 243.379 311.592 243.188 311.592C242.477 311.592 241.994 311.895 241.74 312.5V317H240.656V310.66H241.711L241.729 311.393C242.084 310.826 242.588 310.543 243.24 310.543C243.451 310.543 243.611 310.57 243.721 310.625V311.633ZM247.148 316.232C247.535 316.232 247.873 316.115 248.162 315.881C248.451 315.646 248.611 315.354 248.643 315.002H249.668C249.648 315.365 249.523 315.711 249.293 316.039C249.062 316.367 248.754 316.629 248.367 316.824C247.984 317.02 247.578 317.117 247.148 317.117C246.285 317.117 245.598 316.83 245.086 316.256C244.578 315.678 244.324 314.889 244.324 313.889V313.707C244.324 313.09 244.438 312.541 244.664 312.061C244.891 311.58 245.215 311.207 245.637 310.941C246.062 310.676 246.564 310.543 247.143 310.543C247.854 310.543 248.443 310.756 248.912 311.182C249.385 311.607 249.637 312.16 249.668 312.84H248.643C248.611 312.43 248.455 312.094 248.174 311.832C247.896 311.566 247.553 311.434 247.143 311.434C246.592 311.434 246.164 311.633 245.859 312.031C245.559 312.426 245.408 312.998 245.408 313.748V313.953C245.408 314.684 245.559 315.246 245.859 315.641C246.16 316.035 246.59 316.232 247.148 316.232ZM251.971 311.428C252.451 310.838 253.076 310.543 253.846 310.543C255.186 310.543 255.861 311.299 255.873 312.811V317H254.789V312.805C254.785 312.348 254.68 312.01 254.473 311.791C254.27 311.572 253.951 311.463 253.518 311.463C253.166 311.463 252.857 311.557 252.592 311.744C252.326 311.932 252.119 312.178 251.971 312.482V317H250.887V308H251.971V311.428Z" fill="#3088A0"/>
<path d="M317.701 313.773H314.127L313.324 316H312.164L315.422 307.469H316.406L319.67 316H318.516L317.701 313.773ZM314.467 312.848H317.367L315.914 308.857L314.467 312.848ZM321.674 309.66L321.709 310.457C322.193 309.848 322.826 309.543 323.607 309.543C324.947 309.543 325.623 310.299 325.635 311.811V316H324.551V311.805C324.547 311.348 324.441 311.01 324.234 310.791C324.031 310.572 323.713 310.463 323.279 310.463C322.928 310.463 322.619 310.557 322.354 310.744C322.088 310.932 321.881 311.178 321.732 311.482V316H320.648V309.66H321.674ZM331.184 316C331.121 315.875 331.07 315.652 331.031 315.332C330.527 315.855 329.926 316.117 329.227 316.117C328.602 316.117 328.088 315.941 327.686 315.59C327.287 315.234 327.088 314.785 327.088 314.242C327.088 313.582 327.338 313.07 327.838 312.707C328.342 312.34 329.049 312.156 329.959 312.156H331.014V311.658C331.014 311.279 330.9 310.979 330.674 310.756C330.447 310.529 330.113 310.416 329.672 310.416C329.285 310.416 328.961 310.514 328.699 310.709C328.438 310.904 328.307 311.141 328.307 311.418H327.217C327.217 311.102 327.328 310.797 327.551 310.504C327.777 310.207 328.082 309.973 328.465 309.801C328.852 309.629 329.275 309.543 329.736 309.543C330.467 309.543 331.039 309.727 331.453 310.094C331.867 310.457 332.082 310.959 332.098 311.6V314.518C332.098 315.1 332.172 315.562 332.32 315.906V316H331.184ZM329.385 315.174C329.725 315.174 330.047 315.086 330.352 314.91C330.656 314.734 330.877 314.506 331.014 314.225V312.924H330.164C328.836 312.924 328.172 313.312 328.172 314.09C328.172 314.43 328.285 314.695 328.512 314.887C328.738 315.078 329.029 315.174 329.385 315.174ZM334.975 316H333.891V307H334.975V316ZM338.789 314.412L340.266 309.66H341.426L338.877 316.979C338.482 318.033 337.855 318.561 336.996 318.561L336.791 318.543L336.387 318.467V317.588L336.68 317.611C337.047 317.611 337.332 317.537 337.535 317.389C337.742 317.24 337.912 316.969 338.045 316.574L338.285 315.93L336.023 309.66H337.207L338.789 314.412ZM346.09 314.318C346.09 314.025 345.979 313.799 345.756 313.639C345.537 313.475 345.152 313.334 344.602 313.217C344.055 313.1 343.619 312.959 343.295 312.795C342.975 312.631 342.736 312.436 342.58 312.209C342.428 311.982 342.352 311.713 342.352 311.4C342.352 310.881 342.57 310.441 343.008 310.082C343.449 309.723 344.012 309.543 344.695 309.543C345.414 309.543 345.996 309.729 346.441 310.1C346.891 310.471 347.115 310.945 347.115 311.523H346.025C346.025 311.227 345.898 310.971 345.645 310.756C345.395 310.541 345.078 310.434 344.695 310.434C344.301 310.434 343.992 310.52 343.77 310.691C343.547 310.863 343.436 311.088 343.436 311.365C343.436 311.627 343.539 311.824 343.746 311.957C343.953 312.09 344.326 312.217 344.865 312.338C345.408 312.459 345.848 312.604 346.184 312.771C346.52 312.939 346.768 313.143 346.928 313.381C347.092 313.615 347.174 313.902 347.174 314.242C347.174 314.809 346.947 315.264 346.494 315.607C346.041 315.947 345.453 316.117 344.73 316.117C344.223 316.117 343.773 316.027 343.383 315.848C342.992 315.668 342.686 315.418 342.463 315.098C342.244 314.773 342.135 314.424 342.135 314.049H343.219C343.238 314.412 343.383 314.701 343.652 314.916C343.926 315.127 344.285 315.232 344.73 315.232C345.141 315.232 345.469 315.15 345.715 314.986C345.965 314.818 346.09 314.596 346.09 314.318ZM349.764 316H348.68V309.66H349.764V316ZM348.592 307.979C348.592 307.803 348.645 307.654 348.75 307.533C348.859 307.412 349.02 307.352 349.23 307.352C349.441 307.352 349.602 307.412 349.711 307.533C349.82 307.654 349.875 307.803 349.875 307.979C349.875 308.154 349.82 308.301 349.711 308.418C349.602 308.535 349.441 308.594 349.23 308.594C349.02 308.594 348.859 308.535 348.75 308.418C348.645 308.301 348.592 308.154 348.592 307.979ZM355.195 314.318C355.195 314.025 355.084 313.799 354.861 313.639C354.643 313.475 354.258 313.334 353.707 313.217C353.16 313.1 352.725 312.959 352.4 312.795C352.08 312.631 351.842 312.436 351.686 312.209C351.533 311.982 351.457 311.713 351.457 311.4C351.457 310.881 351.676 310.441 352.113 310.082C352.555 309.723 353.117 309.543 353.801 309.543C354.52 309.543 355.102 309.729 355.547 310.1C355.996 310.471 356.221 310.945 356.221 311.523H355.131C355.131 311.227 355.004 310.971 354.75 310.756C354.5 310.541 354.184 310.434 353.801 310.434C353.406 310.434 353.098 310.52 352.875 310.691C352.652 310.863 352.541 311.088 352.541 311.365C352.541 311.627 352.645 311.824 352.852 311.957C353.059 312.09 353.432 312.217 353.971 312.338C354.514 312.459 354.953 312.604 355.289 312.771C355.625 312.939 355.873 313.143 356.033 313.381C356.197 313.615 356.279 313.902 356.279 314.242C356.279 314.809 356.053 315.264 355.6 315.607C355.146 315.947 354.559 316.117 353.836 316.117C353.328 316.117 352.879 316.027 352.488 315.848C352.098 315.668 351.791 315.418 351.568 315.098C351.35 314.773 351.24 314.424 351.24 314.049H352.324C352.344 314.412 352.488 314.701 352.758 314.916C353.031 315.127 353.391 315.232 353.836 315.232C354.246 315.232 354.574 315.15 354.82 314.986C355.07 314.818 355.195 314.596 355.195 314.318Z" fill="#3088A0"/>
<path d="M359 313L407 313" stroke="#6DABBC" stroke-width="3" stroke-miterlimit="10"/>
<path d="M411.99 316V307.469H414.398C415.141 307.469 415.797 307.633 416.367 307.961C416.938 308.289 417.377 308.756 417.686 309.361C417.998 309.967 418.156 310.662 418.16 311.447V311.992C418.16 312.797 418.004 313.502 417.691 314.107C417.383 314.713 416.939 315.178 416.361 315.502C415.787 315.826 415.117 315.992 414.352 316H411.99ZM413.115 308.395V315.08H414.299C415.166 315.08 415.84 314.811 416.32 314.271C416.805 313.732 417.047 312.965 417.047 311.969V311.471C417.047 310.502 416.818 309.75 416.361 309.215C415.908 308.676 415.264 308.402 414.428 308.395H413.115ZM422.76 310.633C422.596 310.605 422.418 310.592 422.227 310.592C421.516 310.592 421.033 310.895 420.779 311.5V316H419.695V309.66H420.75L420.768 310.393C421.123 309.826 421.627 309.543 422.279 309.543C422.49 309.543 422.65 309.57 422.76 309.625V310.633ZM427.441 316C427.379 315.875 427.328 315.652 427.289 315.332C426.785 315.855 426.184 316.117 425.484 316.117C424.859 316.117 424.346 315.941 423.943 315.59C423.545 315.234 423.346 314.785 423.346 314.242C423.346 313.582 423.596 313.07 424.096 312.707C424.6 312.34 425.307 312.156 426.217 312.156H427.271V311.658C427.271 311.279 427.158 310.979 426.932 310.756C426.705 310.529 426.371 310.416 425.93 310.416C425.543 310.416 425.219 310.514 424.957 310.709C424.695 310.904 424.564 311.141 424.564 311.418H423.475C423.475 311.102 423.586 310.797 423.809 310.504C424.035 310.207 424.34 309.973 424.723 309.801C425.109 309.629 425.533 309.543 425.994 309.543C426.725 309.543 427.297 309.727 427.711 310.094C428.125 310.457 428.34 310.959 428.355 311.6V314.518C428.355 315.1 428.43 315.562 428.578 315.906V316H427.441ZM425.643 315.174C425.982 315.174 426.305 315.086 426.609 314.91C426.914 314.734 427.135 314.506 427.271 314.225V312.924H426.422C425.094 312.924 424.43 313.312 424.43 314.09C424.43 314.43 424.543 314.695 424.77 314.887C424.996 315.078 425.287 315.174 425.643 315.174ZM430.588 316V310.498H429.586V309.66H430.588V309.01C430.588 308.33 430.77 307.805 431.133 307.434C431.496 307.062 432.01 306.877 432.674 306.877C432.924 306.877 433.172 306.91 433.418 306.977L433.359 307.855C433.176 307.82 432.98 307.803 432.773 307.803C432.422 307.803 432.15 307.906 431.959 308.113C431.768 308.316 431.672 308.609 431.672 308.992V309.66H433.025V310.498H431.672V316H430.588ZM435.697 308.125V309.66H436.881V310.498H435.697V314.43C435.697 314.684 435.75 314.875 435.855 315.004C435.961 315.129 436.141 315.191 436.395 315.191C436.52 315.191 436.691 315.168 436.91 315.121V316C436.625 316.078 436.348 316.117 436.078 316.117C435.594 316.117 435.229 315.971 434.982 315.678C434.736 315.385 434.613 314.969 434.613 314.43V310.498H433.459V309.66H434.613V308.125H435.697ZM441.844 314.318C441.844 314.025 441.732 313.799 441.51 313.639C441.291 313.475 440.906 313.334 440.355 313.217C439.809 313.1 439.373 312.959 439.049 312.795C438.729 312.631 438.49 312.436 438.334 312.209C438.182 311.982 438.105 311.713 438.105 311.4C438.105 310.881 438.324 310.441 438.762 310.082C439.203 309.723 439.766 309.543 440.449 309.543C441.168 309.543 441.75 309.729 442.195 310.1C442.645 310.471 442.869 310.945 442.869 311.523H441.779C441.779 311.227 441.652 310.971 441.398 310.756C441.148 310.541 440.832 310.434 440.449 310.434C440.055 310.434 439.746 310.52 439.523 310.691C439.301 310.863 439.189 311.088 439.189 311.365C439.189 311.627 439.293 311.824 439.5 311.957C439.707 312.09 440.08 312.217 440.619 312.338C441.162 312.459 441.602 312.604 441.938 312.771C442.273 312.939 442.521 313.143 442.682 313.381C442.846 313.615 442.928 313.902 442.928 314.242C442.928 314.809 442.701 315.264 442.248 315.607C441.795 315.947 441.207 316.117 440.484 316.117C439.977 316.117 439.527 316.027 439.137 315.848C438.746 315.668 438.439 315.418 438.217 315.098C437.998 314.773 437.889 314.424 437.889 314.049H438.973C438.992 314.412 439.137 314.701 439.406 314.916C439.68 315.127 440.039 315.232 440.484 315.232C440.895 315.232 441.223 315.15 441.469 314.986C441.719 314.818 441.844 314.596 441.844 314.318Z" fill="#3088A0"/>
<path d="M149.155 72V62.0469H151.965C152.831 62.0469 153.596 62.2383 154.262 62.6211C154.927 63.0039 155.44 63.5485 155.8 64.2549C156.164 64.9613 156.349 65.7725 156.354 66.6885V67.3242C156.354 68.263 156.171 69.0856 155.807 69.792C155.447 70.4984 154.929 71.0407 154.255 71.4189C153.585 71.7972 152.803 71.9909 151.91 72H149.155ZM150.468 63.127V70.9268H151.849C152.86 70.9268 153.646 70.6123 154.207 69.9834C154.772 69.3545 155.055 68.459 155.055 67.2969V66.7158C155.055 65.5856 154.788 64.7083 154.255 64.084C153.726 63.4551 152.974 63.1361 151.999 63.127H150.468ZM165.992 72H164.673L159.662 64.3301V72H158.343V62.0469H159.662L164.687 69.751V62.0469H165.992V72ZM173.942 69.4023H169.772L168.836 72H167.482L171.283 62.0469H172.432L176.239 72H174.893L173.942 69.4023ZM170.169 68.3223H173.553L171.857 63.667L170.169 68.3223ZM182.747 62.0469L186.001 70.168L189.255 62.0469H190.957V72H189.645V68.124L189.768 63.9404L186.5 72H185.495L182.234 63.9609L182.364 68.124V72H181.052V62.0469H182.747ZM197.643 72C197.57 71.8542 197.51 71.5944 197.465 71.2207C196.877 71.8314 196.175 72.1367 195.359 72.1367C194.63 72.1367 194.031 71.9316 193.562 71.5215C193.097 71.1068 192.864 70.5827 192.864 69.9492C192.864 69.179 193.156 68.582 193.739 68.1582C194.327 67.7298 195.152 67.5156 196.214 67.5156H197.444V66.9346C197.444 66.4925 197.312 66.1416 197.048 65.8818C196.784 65.6175 196.394 65.4854 195.879 65.4854C195.428 65.4854 195.049 65.5993 194.744 65.8271C194.439 66.055 194.286 66.3307 194.286 66.6543H193.015C193.015 66.2852 193.145 65.9297 193.404 65.5879C193.669 65.2415 194.024 64.9681 194.471 64.7676C194.922 64.5671 195.416 64.4668 195.954 64.4668C196.806 64.4668 197.474 64.681 197.957 65.1094C198.44 65.5332 198.691 66.1188 198.709 66.8662V70.2705C198.709 70.9495 198.796 71.4896 198.969 71.8906V72H197.643ZM195.544 71.0361C195.94 71.0361 196.316 70.9336 196.672 70.7285C197.027 70.5234 197.285 70.2568 197.444 69.9287V68.4111H196.453C194.904 68.4111 194.129 68.8646 194.129 69.7715C194.129 70.168 194.261 70.4779 194.525 70.7012C194.79 70.9245 195.129 71.0361 195.544 71.0361ZM202.407 62.8125V64.6035H203.788V65.5811H202.407V70.168C202.407 70.4642 202.469 70.6875 202.592 70.8379C202.715 70.9837 202.924 71.0566 203.221 71.0566C203.367 71.0566 203.567 71.0293 203.822 70.9746V72C203.49 72.0911 203.166 72.1367 202.852 72.1367C202.286 72.1367 201.86 71.9658 201.573 71.624C201.286 71.2822 201.143 70.7969 201.143 70.168V65.5811H199.796V64.6035H201.143V62.8125H202.407ZM208.238 71.1045C208.689 71.1045 209.084 70.9678 209.421 70.6943C209.758 70.4209 209.945 70.0791 209.981 69.6689H211.178C211.155 70.0928 211.009 70.4961 210.74 70.8789C210.471 71.2617 210.111 71.5671 209.66 71.7949C209.214 72.0228 208.74 72.1367 208.238 72.1367C207.231 72.1367 206.429 71.8018 205.832 71.1318C205.24 70.4574 204.943 69.5368 204.943 68.3701V68.1582C204.943 67.4382 205.076 66.7979 205.34 66.2373C205.604 65.6768 205.982 65.2415 206.475 64.9316C206.971 64.6217 207.557 64.4668 208.231 64.4668C209.061 64.4668 209.749 64.7152 210.296 65.2119C210.847 65.7087 211.141 66.3535 211.178 67.1465H209.981C209.945 66.668 209.763 66.276 209.435 65.9707C209.111 65.6608 208.71 65.5059 208.231 65.5059C207.589 65.5059 207.09 65.7383 206.734 66.2031C206.383 66.6634 206.208 67.3311 206.208 68.2061V68.4453C206.208 69.2975 206.383 69.9538 206.734 70.4141C207.085 70.8743 207.587 71.1045 208.238 71.1045ZM213.864 65.499C214.425 64.8109 215.154 64.4668 216.052 64.4668C217.615 64.4668 218.403 65.3486 218.417 67.1123V72H217.152V67.1055C217.148 66.5723 217.025 66.1781 216.783 65.9229C216.546 65.6676 216.175 65.54 215.669 65.54C215.259 65.54 214.899 65.6494 214.589 65.8682C214.279 66.0869 214.037 66.374 213.864 66.7295V72H212.6V61.5H213.864V65.499ZM221.685 72H220.42V64.6035H221.685V72ZM220.317 62.6416C220.317 62.4365 220.379 62.2633 220.502 62.1221C220.63 61.9808 220.816 61.9102 221.062 61.9102C221.309 61.9102 221.495 61.9808 221.623 62.1221C221.751 62.2633 221.814 62.4365 221.814 62.6416C221.814 62.8467 221.751 63.0176 221.623 63.1543C221.495 63.291 221.309 63.3594 221.062 63.3594C220.816 63.3594 220.63 63.291 220.502 63.1543C220.379 63.0176 220.317 62.8467 220.317 62.6416ZM224.911 64.6035L224.952 65.5332C225.517 64.8223 226.256 64.4668 227.167 64.4668C228.73 64.4668 229.519 65.3486 229.532 67.1123V72H228.268V67.1055C228.263 66.5723 228.14 66.1781 227.898 65.9229C227.661 65.6676 227.29 65.54 226.784 65.54C226.374 65.54 226.014 65.6494 225.704 65.8682C225.394 66.0869 225.153 66.374 224.979 66.7295V72H223.715V64.6035H224.911ZM231.139 68.2402C231.139 67.0872 231.405 66.1712 231.938 65.4922C232.472 64.8086 233.178 64.4668 234.058 64.4668C234.96 64.4668 235.664 64.7858 236.17 65.4238L236.231 64.6035H237.387V71.8223C237.387 72.7793 237.102 73.5335 236.532 74.085C235.967 74.6364 235.206 74.9121 234.249 74.9121C233.716 74.9121 233.194 74.7982 232.684 74.5703C232.173 74.3424 231.784 74.0303 231.515 73.6338L232.171 72.875C232.713 73.5449 233.376 73.8799 234.16 73.8799C234.775 73.8799 235.254 73.7067 235.596 73.3604C235.942 73.014 236.115 72.5264 236.115 71.8975V71.2617C235.609 71.8451 234.919 72.1367 234.044 72.1367C233.178 72.1367 232.476 71.7881 231.938 71.0908C231.405 70.3936 231.139 69.4434 231.139 68.2402ZM232.41 68.3838C232.41 69.2178 232.581 69.874 232.923 70.3525C233.265 70.8265 233.743 71.0635 234.358 71.0635C235.156 71.0635 235.742 70.7012 236.115 69.9766V66.5996C235.728 65.8932 235.147 65.54 234.372 65.54C233.757 65.54 233.276 65.7793 232.93 66.2578C232.583 66.7363 232.41 67.445 232.41 68.3838ZM249.322 70.2568L250.744 64.6035H252.009L249.855 72H248.83L247.032 66.3945L245.282 72H244.257L242.11 64.6035H243.368L244.824 70.1406L246.547 64.6035H247.565L249.322 70.2568ZM254.675 72H253.41V64.6035H254.675V72ZM253.308 62.6416C253.308 62.4365 253.369 62.2633 253.492 62.1221C253.62 61.9808 253.807 61.9102 254.053 61.9102C254.299 61.9102 254.486 61.9808 254.613 62.1221C254.741 62.2633 254.805 62.4365 254.805 62.6416C254.805 62.8467 254.741 63.0176 254.613 63.1543C254.486 63.291 254.299 63.3594 254.053 63.3594C253.807 63.3594 253.62 63.291 253.492 63.1543C253.369 63.0176 253.308 62.8467 253.308 62.6416ZM258.421 62.8125V64.6035H259.802V65.5811H258.421V70.168C258.421 70.4642 258.482 70.6875 258.605 70.8379C258.729 70.9837 258.938 71.0566 259.234 71.0566C259.38 71.0566 259.581 71.0293 259.836 70.9746V72C259.503 72.0911 259.18 72.1367 258.865 72.1367C258.3 72.1367 257.874 71.9658 257.587 71.624C257.3 71.2822 257.156 70.7969 257.156 70.168V65.5811H255.81V64.6035H257.156V62.8125H258.421ZM262.55 65.499C263.11 64.8109 263.84 64.4668 264.737 64.4668C266.3 64.4668 267.089 65.3486 267.103 67.1123V72H265.838V67.1055C265.833 66.5723 265.71 66.1781 265.469 65.9229C265.232 65.6676 264.86 65.54 264.354 65.54C263.944 65.54 263.584 65.6494 263.274 65.8682C262.965 66.0869 262.723 66.374 262.55 66.7295V72H261.285V61.5H262.55V65.499ZM279.988 68.8418C279.865 69.8945 279.476 70.708 278.819 71.2822C278.168 71.8519 277.299 72.1367 276.215 72.1367C275.039 72.1367 274.096 71.7152 273.385 70.8721C272.678 70.029 272.325 68.901 272.325 67.4883V66.5312C272.325 65.6061 272.489 64.7926 272.817 64.0908C273.15 63.389 273.619 62.8512 274.226 62.4775C274.832 62.0993 275.534 61.9102 276.331 61.9102C277.388 61.9102 278.236 62.2064 278.874 62.7988C279.512 63.3867 279.883 64.2025 279.988 65.2461H278.669C278.555 64.4531 278.307 63.8789 277.924 63.5234C277.546 63.168 277.015 62.9902 276.331 62.9902C275.493 62.9902 274.834 63.3001 274.355 63.9199C273.882 64.5397 273.645 65.4215 273.645 66.5654V67.5293C273.645 68.6094 273.87 69.4684 274.321 70.1064C274.772 70.7445 275.404 71.0635 276.215 71.0635C276.944 71.0635 277.502 70.8994 277.89 70.5713C278.282 70.2386 278.541 69.6621 278.669 68.8418H279.988ZM281.253 68.2334C281.253 67.5088 281.394 66.8571 281.677 66.2783C281.964 65.6995 282.36 65.2529 282.866 64.9385C283.377 64.624 283.958 64.4668 284.609 64.4668C285.617 64.4668 286.43 64.8154 287.05 65.5127C287.674 66.21 287.986 67.1374 287.986 68.2949V68.3838C287.986 69.1038 287.847 69.751 287.569 70.3252C287.296 70.8949 286.902 71.3392 286.387 71.6582C285.876 71.9772 285.288 72.1367 284.623 72.1367C283.62 72.1367 282.807 71.7881 282.183 71.0908C281.563 70.3936 281.253 69.4707 281.253 68.3223V68.2334ZM282.524 68.3838C282.524 69.2041 282.714 69.8626 283.092 70.3594C283.475 70.8561 283.985 71.1045 284.623 71.1045C285.266 71.1045 285.776 70.8538 286.154 70.3525C286.533 69.8467 286.722 69.1403 286.722 68.2334C286.722 67.4222 286.528 66.766 286.141 66.2646C285.758 65.7588 285.247 65.5059 284.609 65.5059C283.985 65.5059 283.481 65.7542 283.099 66.251C282.716 66.7477 282.524 67.4587 282.524 68.3838ZM294.139 71.2686C293.646 71.8473 292.924 72.1367 291.972 72.1367C291.183 72.1367 290.582 71.9089 290.167 71.4531C289.757 70.9928 289.549 70.3138 289.545 69.416V64.6035H290.81V69.3818C290.81 70.5029 291.265 71.0635 292.177 71.0635C293.143 71.0635 293.785 70.7035 294.104 69.9834V64.6035H295.369V72H294.166L294.139 71.2686ZM300.872 65.7383C300.681 65.7064 300.473 65.6904 300.25 65.6904C299.421 65.6904 298.858 66.0436 298.562 66.75V72H297.297V64.6035H298.527L298.548 65.458C298.963 64.7972 299.55 64.4668 300.312 64.4668C300.558 64.4668 300.744 64.4987 300.872 64.5625V65.7383ZM306.348 70.0381C306.348 69.6963 306.218 69.432 305.958 69.2451C305.703 69.0537 305.254 68.8896 304.611 68.7529C303.973 68.6162 303.465 68.4521 303.087 68.2607C302.713 68.0693 302.435 67.8415 302.253 67.5771C302.075 67.3128 301.986 66.9984 301.986 66.6338C301.986 66.0277 302.242 65.515 302.752 65.0957C303.267 64.6764 303.923 64.4668 304.721 64.4668C305.559 64.4668 306.238 64.6833 306.758 65.1162C307.282 65.5492 307.544 66.1029 307.544 66.7773H306.272C306.272 66.431 306.124 66.1325 305.828 65.8818C305.536 65.6312 305.167 65.5059 304.721 65.5059C304.26 65.5059 303.9 65.6061 303.641 65.8066C303.381 66.0072 303.251 66.2692 303.251 66.5928C303.251 66.8981 303.372 67.1283 303.613 67.2832C303.855 67.4382 304.29 67.5863 304.919 67.7275C305.552 67.8688 306.065 68.0374 306.457 68.2334C306.849 68.4294 307.138 68.6663 307.325 68.9443C307.517 69.2178 307.612 69.5527 307.612 69.9492C307.612 70.61 307.348 71.141 306.819 71.542C306.291 71.9385 305.605 72.1367 304.762 72.1367C304.169 72.1367 303.645 72.0319 303.189 71.8223C302.734 71.6126 302.376 71.321 302.116 70.9473C301.861 70.569 301.733 70.1611 301.733 69.7236H302.998C303.021 70.1475 303.189 70.4847 303.504 70.7354C303.823 70.9814 304.242 71.1045 304.762 71.1045C305.24 71.1045 305.623 71.0088 305.91 70.8174C306.202 70.6214 306.348 70.3617 306.348 70.0381ZM312.329 72.1367C311.326 72.1367 310.511 71.8086 309.882 71.1523C309.253 70.4915 308.938 69.6097 308.938 68.5068V68.2744C308.938 67.5407 309.077 66.8867 309.355 66.3125C309.638 65.7337 310.03 65.2826 310.531 64.959C311.037 64.6309 311.584 64.4668 312.172 64.4668C313.133 64.4668 313.881 64.7835 314.414 65.417C314.947 66.0505 315.214 66.9574 315.214 68.1377V68.6641H310.203C310.221 69.3932 310.433 69.9834 310.839 70.4346C311.249 70.8812 311.769 71.1045 312.397 71.1045C312.844 71.1045 313.222 71.0133 313.532 70.8311C313.842 70.6488 314.113 70.4072 314.346 70.1064L315.118 70.708C314.498 71.6605 313.569 72.1367 312.329 72.1367ZM312.172 65.5059C311.661 65.5059 311.233 65.6927 310.887 66.0664C310.54 66.4355 310.326 66.9551 310.244 67.625H313.949V67.5293C313.913 66.8867 313.74 66.39 313.43 66.0391C313.12 65.6836 312.701 65.5059 312.172 65.5059ZM316.937 72.8545H315.85L320.006 62.0469H321.086L316.937 72.8545ZM156.477 84.8418C156.354 85.8945 155.964 86.708 155.308 87.2822C154.656 87.8519 153.788 88.1367 152.703 88.1367C151.527 88.1367 150.584 87.7152 149.873 86.8721C149.167 86.029 148.813 84.901 148.813 83.4883V82.5312C148.813 81.6061 148.978 80.7926 149.306 80.0908C149.638 79.389 150.108 78.8512 150.714 78.4775C151.32 78.0993 152.022 77.9102 152.819 77.9102C153.877 77.9102 154.724 78.2064 155.362 78.7988C156 79.3867 156.372 80.2025 156.477 81.2461H155.157C155.043 80.4531 154.795 79.8789 154.412 79.5234C154.034 79.168 153.503 78.9902 152.819 78.9902C151.981 78.9902 151.322 79.3001 150.844 79.9199C150.37 80.5397 150.133 81.4215 150.133 82.5654V83.5293C150.133 84.6094 150.358 85.4684 150.81 86.1064C151.261 86.7445 151.892 87.0635 152.703 87.0635C153.432 87.0635 153.991 86.8994 154.378 86.5713C154.77 86.2386 155.03 85.6621 155.157 84.8418H156.477ZM157.741 84.2334C157.741 83.5088 157.882 82.8571 158.165 82.2783C158.452 81.6995 158.849 81.2529 159.354 80.9385C159.865 80.624 160.446 80.4668 161.098 80.4668C162.105 80.4668 162.918 80.8154 163.538 81.5127C164.162 82.21 164.475 83.1374 164.475 84.2949V84.3838C164.475 85.1038 164.336 85.751 164.058 86.3252C163.784 86.8949 163.39 87.3392 162.875 87.6582C162.365 87.9772 161.777 88.1367 161.111 88.1367C160.109 88.1367 159.295 87.7881 158.671 87.0908C158.051 86.3936 157.741 85.4707 157.741 84.3223V84.2334ZM159.013 84.3838C159.013 85.2041 159.202 85.8626 159.58 86.3594C159.963 86.8561 160.473 87.1045 161.111 87.1045C161.754 87.1045 162.264 86.8538 162.643 86.3525C163.021 85.8467 163.21 85.1403 163.21 84.2334C163.21 83.4222 163.016 82.766 162.629 82.2646C162.246 81.7588 161.736 81.5059 161.098 81.5059C160.473 81.5059 159.97 81.7542 159.587 82.251C159.204 82.7477 159.013 83.4587 159.013 84.3838ZM170.627 87.2686C170.135 87.8473 169.412 88.1367 168.46 88.1367C167.672 88.1367 167.07 87.9089 166.655 87.4531C166.245 86.9928 166.038 86.3138 166.033 85.416V80.6035H167.298V85.3818C167.298 86.5029 167.754 87.0635 168.665 87.0635C169.631 87.0635 170.274 86.7035 170.593 85.9834V80.6035H171.857V88H170.654L170.627 87.2686ZM174.981 80.6035L175.022 81.5332C175.588 80.8223 176.326 80.4668 177.237 80.4668C178.8 80.4668 179.589 81.3486 179.603 83.1123V88H178.338V83.1055C178.333 82.5723 178.21 82.1781 177.969 81.9229C177.732 81.6676 177.36 81.54 176.854 81.54C176.444 81.54 176.084 81.6494 175.774 81.8682C175.465 82.0869 175.223 82.374 175.05 82.7295V88H173.785V80.6035H174.981ZM183.226 78.8125V80.6035H184.606V81.5811H183.226V86.168C183.226 86.4642 183.287 86.6875 183.41 86.8379C183.533 86.9837 183.743 87.0566 184.039 87.0566C184.185 87.0566 184.385 87.0293 184.641 86.9746V88C184.308 88.0911 183.984 88.1367 183.67 88.1367C183.105 88.1367 182.679 87.9658 182.392 87.624C182.104 87.2822 181.961 86.7969 181.961 86.168V81.5811H180.614V80.6035H181.961V78.8125H183.226ZM189.665 81.7383C189.474 81.7064 189.266 81.6904 189.043 81.6904C188.214 81.6904 187.651 82.0436 187.354 82.75V88H186.09V80.6035H187.32L187.341 81.458C187.756 80.7972 188.343 80.4668 189.104 80.4668C189.351 80.4668 189.537 80.4987 189.665 80.5625V81.7383ZM193.377 86.1475L195.1 80.6035H196.453L193.479 89.1416C193.019 90.3721 192.288 90.9873 191.285 90.9873L191.046 90.9668L190.574 90.8779V89.8525L190.916 89.8799C191.344 89.8799 191.677 89.7933 191.914 89.6201C192.156 89.4469 192.354 89.1302 192.509 88.6699L192.789 87.918L190.15 80.6035H191.531L193.377 86.1475ZM197.841 88.8545H196.754L200.91 78.0469H201.99L197.841 88.8545ZM214.035 78.0469V84.8145C214.031 85.7533 213.734 86.5212 213.146 87.1182C212.563 87.7152 211.77 88.0501 210.768 88.123L210.419 88.1367C209.33 88.1367 208.462 87.8428 207.814 87.2549C207.167 86.667 206.839 85.8581 206.83 84.8281V78.0469H208.129V84.7871C208.129 85.5072 208.327 86.0677 208.724 86.4688C209.12 86.8652 209.685 87.0635 210.419 87.0635C211.162 87.0635 211.729 86.8652 212.121 86.4688C212.518 86.0723 212.716 85.514 212.716 84.7939V78.0469H214.035ZM217.104 80.6035L217.146 81.5332C217.711 80.8223 218.449 80.4668 219.36 80.4668C220.924 80.4668 221.712 81.3486 221.726 83.1123V88H220.461V83.1055C220.456 82.5723 220.333 82.1781 220.092 81.9229C219.855 81.6676 219.483 81.54 218.978 81.54C218.567 81.54 218.207 81.6494 217.897 81.8682C217.588 82.0869 217.346 82.374 217.173 82.7295V88H215.908V80.6035H217.104ZM225.007 88H223.742V80.6035H225.007V88ZM223.64 78.6416C223.64 78.4365 223.701 78.2633 223.824 78.1221C223.952 77.9808 224.139 77.9102 224.385 77.9102C224.631 77.9102 224.818 77.9808 224.945 78.1221C225.073 78.2633 225.137 78.4365 225.137 78.6416C225.137 78.8467 225.073 79.0176 224.945 79.1543C224.818 79.291 224.631 79.3594 224.385 79.3594C224.139 79.3594 223.952 79.291 223.824 79.1543C223.701 79.0176 223.64 78.8467 223.64 78.6416ZM229.478 86.2842L231.31 80.6035H232.602L229.949 88H228.985L226.306 80.6035H227.598L229.478 86.2842ZM236.792 88.1367C235.789 88.1367 234.974 87.8086 234.345 87.1523C233.716 86.4915 233.401 85.6097 233.401 84.5068V84.2744C233.401 83.5407 233.54 82.8867 233.818 82.3125C234.101 81.7337 234.493 81.2826 234.994 80.959C235.5 80.6309 236.047 80.4668 236.635 80.4668C237.596 80.4668 238.344 80.7835 238.877 81.417C239.41 82.0505 239.677 82.9574 239.677 84.1377V84.6641H234.666C234.684 85.3932 234.896 85.9834 235.302 86.4346C235.712 86.8812 236.231 87.1045 236.86 87.1045C237.307 87.1045 237.685 87.0133 237.995 86.8311C238.305 86.6488 238.576 86.4072 238.809 86.1064L239.581 86.708C238.961 87.6605 238.032 88.1367 236.792 88.1367ZM236.635 81.5059C236.124 81.5059 235.696 81.6927 235.35 82.0664C235.003 82.4355 234.789 82.9551 234.707 83.625H238.412V83.5293C238.376 82.8867 238.202 82.39 237.893 82.0391C237.583 81.6836 237.163 81.5059 236.635 81.5059ZM244.722 81.7383C244.53 81.7064 244.323 81.6904 244.1 81.6904C243.27 81.6904 242.707 82.0436 242.411 82.75V88H241.146V80.6035H242.377L242.397 81.458C242.812 80.7972 243.4 80.4668 244.161 80.4668C244.407 80.4668 244.594 80.4987 244.722 80.5625V81.7383ZM250.197 86.0381C250.197 85.6963 250.067 85.432 249.808 85.2451C249.552 85.0537 249.104 84.8896 248.461 84.7529C247.823 84.6162 247.315 84.4521 246.937 84.2607C246.563 84.0693 246.285 83.8415 246.103 83.5771C245.925 83.3128 245.836 82.9984 245.836 82.6338C245.836 82.0277 246.091 81.515 246.602 81.0957C247.117 80.6764 247.773 80.4668 248.57 80.4668C249.409 80.4668 250.088 80.6833 250.607 81.1162C251.132 81.5492 251.394 82.1029 251.394 82.7773H250.122C250.122 82.431 249.974 82.1325 249.678 81.8818C249.386 81.6312 249.017 81.5059 248.57 81.5059C248.11 81.5059 247.75 81.6061 247.49 81.8066C247.23 82.0072 247.101 82.2692 247.101 82.5928C247.101 82.8981 247.221 83.1283 247.463 83.2832C247.704 83.4382 248.14 83.5863 248.769 83.7275C249.402 83.8688 249.915 84.0374 250.307 84.2334C250.699 84.4294 250.988 84.6663 251.175 84.9443C251.366 85.2178 251.462 85.5527 251.462 85.9492C251.462 86.61 251.198 87.141 250.669 87.542C250.14 87.9385 249.454 88.1367 248.611 88.1367C248.019 88.1367 247.495 88.0319 247.039 87.8223C246.583 87.6126 246.226 87.321 245.966 86.9473C245.711 86.569 245.583 86.1611 245.583 85.7236H246.848C246.87 86.1475 247.039 86.4847 247.354 86.7354C247.673 86.9814 248.092 87.1045 248.611 87.1045C249.09 87.1045 249.473 87.0088 249.76 86.8174C250.051 86.6214 250.197 86.3617 250.197 86.0381ZM254.483 88H253.219V80.6035H254.483V88ZM253.116 78.6416C253.116 78.4365 253.178 78.2633 253.301 78.1221C253.428 77.9808 253.615 77.9102 253.861 77.9102C254.107 77.9102 254.294 77.9808 254.422 78.1221C254.549 78.2633 254.613 78.4365 254.613 78.6416C254.613 78.8467 254.549 79.0176 254.422 79.1543C254.294 79.291 254.107 79.3594 253.861 79.3594C253.615 79.3594 253.428 79.291 253.301 79.1543C253.178 79.0176 253.116 78.8467 253.116 78.6416ZM258.229 78.8125V80.6035H259.61V81.5811H258.229V86.168C258.229 86.4642 258.291 86.6875 258.414 86.8379C258.537 86.9837 258.747 87.0566 259.043 87.0566C259.189 87.0566 259.389 87.0293 259.645 86.9746V88C259.312 88.0911 258.988 88.1367 258.674 88.1367C258.109 88.1367 257.683 87.9658 257.396 87.624C257.108 87.2822 256.965 86.7969 256.965 86.168V81.5811H255.618V80.6035H256.965V78.8125H258.229ZM263.514 86.1475L265.236 80.6035H266.59L263.616 89.1416C263.156 90.3721 262.424 90.9873 261.422 90.9873L261.183 90.9668L260.711 90.8779V89.8525L261.053 89.8799C261.481 89.8799 261.814 89.7933 262.051 89.6201C262.292 89.4469 262.491 89.1302 262.646 88.6699L262.926 87.918L260.287 80.6035H261.668L263.514 86.1475Z" fill="#3088A0"/>
<path d="M376.45 737.257L379.294 729.047H380.729L377.038 739H375.876L372.191 729.047H373.62L376.45 737.257ZM383.245 739H381.98V731.604H383.245V739ZM381.878 729.642C381.878 729.437 381.939 729.263 382.062 729.122C382.19 728.981 382.377 728.91 382.623 728.91C382.869 728.91 383.056 728.981 383.184 729.122C383.311 729.263 383.375 729.437 383.375 729.642C383.375 729.847 383.311 730.018 383.184 730.154C383.056 730.291 382.869 730.359 382.623 730.359C382.377 730.359 382.19 730.291 382.062 730.154C381.939 730.018 381.878 729.847 381.878 729.642ZM389.582 737.038C389.582 736.696 389.452 736.432 389.192 736.245C388.937 736.054 388.488 735.89 387.846 735.753C387.208 735.616 386.7 735.452 386.321 735.261C385.948 735.069 385.67 734.841 385.487 734.577C385.31 734.313 385.221 733.998 385.221 733.634C385.221 733.028 385.476 732.515 385.986 732.096C386.501 731.676 387.158 731.467 387.955 731.467C388.794 731.467 389.473 731.683 389.992 732.116C390.516 732.549 390.778 733.103 390.778 733.777H389.507C389.507 733.431 389.359 733.132 389.062 732.882C388.771 732.631 388.402 732.506 387.955 732.506C387.495 732.506 387.135 732.606 386.875 732.807C386.615 733.007 386.485 733.269 386.485 733.593C386.485 733.898 386.606 734.128 386.848 734.283C387.089 734.438 387.524 734.586 388.153 734.728C388.787 734.869 389.299 735.037 389.691 735.233C390.083 735.429 390.373 735.666 390.56 735.944C390.751 736.218 390.847 736.553 390.847 736.949C390.847 737.61 390.582 738.141 390.054 738.542C389.525 738.938 388.839 739.137 387.996 739.137C387.404 739.137 386.88 739.032 386.424 738.822C385.968 738.613 385.61 738.321 385.351 737.947C385.095 737.569 384.968 737.161 384.968 736.724H386.232C386.255 737.147 386.424 737.485 386.738 737.735C387.057 737.981 387.477 738.104 387.996 738.104C388.475 738.104 388.857 738.009 389.145 737.817C389.436 737.621 389.582 737.362 389.582 737.038ZM397.061 739C396.988 738.854 396.928 738.594 396.883 738.221C396.295 738.831 395.593 739.137 394.777 739.137C394.048 739.137 393.449 738.932 392.979 738.521C392.515 738.107 392.282 737.583 392.282 736.949C392.282 736.179 392.574 735.582 393.157 735.158C393.745 734.73 394.57 734.516 395.632 734.516H396.862V733.935C396.862 733.493 396.73 733.142 396.466 732.882C396.201 732.618 395.812 732.485 395.297 732.485C394.846 732.485 394.467 732.599 394.162 732.827C393.857 733.055 393.704 733.331 393.704 733.654H392.433C392.433 733.285 392.562 732.93 392.822 732.588C393.087 732.242 393.442 731.968 393.889 731.768C394.34 731.567 394.834 731.467 395.372 731.467C396.224 731.467 396.892 731.681 397.375 732.109C397.858 732.533 398.109 733.119 398.127 733.866V737.271C398.127 737.95 398.214 738.49 398.387 738.891V739H397.061ZM394.962 738.036C395.358 738.036 395.734 737.934 396.09 737.729C396.445 737.523 396.703 737.257 396.862 736.929V735.411H395.871C394.322 735.411 393.547 735.865 393.547 736.771C393.547 737.168 393.679 737.478 393.943 737.701C394.208 737.924 394.547 738.036 394.962 738.036ZM409.276 736.402H405.106L404.17 739H402.816L406.617 729.047H407.766L411.573 739H410.227L409.276 736.402ZM405.503 735.322H408.887L407.191 730.667L405.503 735.322ZM418.963 735.384C418.963 736.509 418.705 737.416 418.19 738.104C417.675 738.793 416.978 739.137 416.099 739.137C415.201 739.137 414.494 738.852 413.979 738.282V741.844H412.715V731.604H413.87L413.932 732.424C414.447 731.786 415.162 731.467 416.078 731.467C416.967 731.467 417.669 731.802 418.184 732.472C418.703 733.142 418.963 734.074 418.963 735.268V735.384ZM417.698 735.24C417.698 734.406 417.521 733.748 417.165 733.265C416.81 732.782 416.322 732.54 415.702 732.54C414.937 732.54 414.362 732.88 413.979 733.559V737.093C414.358 737.767 414.937 738.104 415.716 738.104C416.322 738.104 416.803 737.865 417.158 737.387C417.518 736.904 417.698 736.188 417.698 735.24ZM426.824 735.384C426.824 736.509 426.567 737.416 426.052 738.104C425.537 738.793 424.84 739.137 423.96 739.137C423.062 739.137 422.356 738.852 421.841 738.282V741.844H420.576V731.604H421.731L421.793 732.424C422.308 731.786 423.023 731.467 423.939 731.467C424.828 731.467 425.53 731.802 426.045 732.472C426.564 733.142 426.824 734.074 426.824 735.268V735.384ZM425.56 735.24C425.56 734.406 425.382 733.748 425.026 733.265C424.671 732.782 424.183 732.54 423.563 732.54C422.798 732.54 422.224 732.88 421.841 733.559V737.093C422.219 737.767 422.798 738.104 423.577 738.104C424.183 738.104 424.664 737.865 425.02 737.387C425.38 736.904 425.56 736.188 425.56 735.24ZM429.812 739H428.547V728.5H429.812V739ZM433.216 739H431.951V731.604H433.216V739ZM431.849 729.642C431.849 729.437 431.91 729.263 432.033 729.122C432.161 728.981 432.348 728.91 432.594 728.91C432.84 728.91 433.027 728.981 433.154 729.122C433.282 729.263 433.346 729.437 433.346 729.642C433.346 729.847 433.282 730.018 433.154 730.154C433.027 730.291 432.84 730.359 432.594 730.359C432.348 730.359 432.161 730.291 432.033 730.154C431.91 730.018 431.849 729.847 431.849 729.642ZM438.213 738.104C438.664 738.104 439.058 737.968 439.396 737.694C439.733 737.421 439.92 737.079 439.956 736.669H441.152C441.13 737.093 440.984 737.496 440.715 737.879C440.446 738.262 440.086 738.567 439.635 738.795C439.188 739.023 438.714 739.137 438.213 739.137C437.206 739.137 436.404 738.802 435.807 738.132C435.214 737.457 434.918 736.537 434.918 735.37V735.158C434.918 734.438 435.05 733.798 435.314 733.237C435.579 732.677 435.957 732.242 436.449 731.932C436.946 731.622 437.532 731.467 438.206 731.467C439.035 731.467 439.724 731.715 440.271 732.212C440.822 732.709 441.116 733.354 441.152 734.146H439.956C439.92 733.668 439.737 733.276 439.409 732.971C439.086 732.661 438.685 732.506 438.206 732.506C437.563 732.506 437.064 732.738 436.709 733.203C436.358 733.663 436.183 734.331 436.183 735.206V735.445C436.183 736.298 436.358 736.954 436.709 737.414C437.06 737.874 437.561 738.104 438.213 738.104ZM447.141 739C447.068 738.854 447.008 738.594 446.963 738.221C446.375 738.831 445.673 739.137 444.857 739.137C444.128 739.137 443.529 738.932 443.06 738.521C442.595 738.107 442.362 737.583 442.362 736.949C442.362 736.179 442.654 735.582 443.237 735.158C443.825 734.73 444.65 734.516 445.712 734.516H446.942V733.935C446.942 733.493 446.81 733.142 446.546 732.882C446.282 732.618 445.892 732.485 445.377 732.485C444.926 732.485 444.548 732.599 444.242 732.827C443.937 733.055 443.784 733.331 443.784 733.654H442.513C442.513 733.285 442.643 732.93 442.902 732.588C443.167 732.242 443.522 731.968 443.969 731.768C444.42 731.567 444.914 731.467 445.452 731.467C446.304 731.467 446.972 731.681 447.455 732.109C447.938 732.533 448.189 733.119 448.207 733.866V737.271C448.207 737.95 448.294 738.49 448.467 738.891V739H447.141ZM445.042 738.036C445.438 738.036 445.814 737.934 446.17 737.729C446.525 737.523 446.783 737.257 446.942 736.929V735.411H445.951C444.402 735.411 443.627 735.865 443.627 736.771C443.627 737.168 443.759 737.478 444.023 737.701C444.288 737.924 444.627 738.036 445.042 738.036ZM451.905 729.812V731.604H453.286V732.581H451.905V737.168C451.905 737.464 451.967 737.688 452.09 737.838C452.213 737.984 452.423 738.057 452.719 738.057C452.865 738.057 453.065 738.029 453.32 737.975V739C452.988 739.091 452.664 739.137 452.35 739.137C451.785 739.137 451.358 738.966 451.071 738.624C450.784 738.282 450.641 737.797 450.641 737.168V732.581H449.294V731.604H450.641V729.812H451.905ZM456.144 739H454.879V731.604H456.144V739ZM454.776 729.642C454.776 729.437 454.838 729.263 454.961 729.122C455.089 728.981 455.275 728.91 455.521 728.91C455.768 728.91 455.954 728.981 456.082 729.122C456.21 729.263 456.273 729.437 456.273 729.642C456.273 729.847 456.21 730.018 456.082 730.154C455.954 730.291 455.768 730.359 455.521 730.359C455.275 730.359 455.089 730.291 454.961 730.154C454.838 730.018 454.776 729.847 454.776 729.642ZM457.839 735.233C457.839 734.509 457.98 733.857 458.263 733.278C458.55 732.7 458.946 732.253 459.452 731.938C459.963 731.624 460.544 731.467 461.195 731.467C462.202 731.467 463.016 731.815 463.636 732.513C464.26 733.21 464.572 734.137 464.572 735.295V735.384C464.572 736.104 464.433 736.751 464.155 737.325C463.882 737.895 463.488 738.339 462.973 738.658C462.462 738.977 461.874 739.137 461.209 739.137C460.206 739.137 459.393 738.788 458.769 738.091C458.149 737.394 457.839 736.471 457.839 735.322V735.233ZM459.11 735.384C459.11 736.204 459.299 736.863 459.678 737.359C460.061 737.856 460.571 738.104 461.209 738.104C461.852 738.104 462.362 737.854 462.74 737.353C463.118 736.847 463.308 736.14 463.308 735.233C463.308 734.422 463.114 733.766 462.727 733.265C462.344 732.759 461.833 732.506 461.195 732.506C460.571 732.506 460.067 732.754 459.685 733.251C459.302 733.748 459.11 734.459 459.11 735.384ZM467.354 731.604L467.396 732.533C467.961 731.822 468.699 731.467 469.61 731.467C471.174 731.467 471.962 732.349 471.976 734.112V739H470.711V734.105C470.706 733.572 470.583 733.178 470.342 732.923C470.105 732.668 469.733 732.54 469.228 732.54C468.817 732.54 468.457 732.649 468.147 732.868C467.838 733.087 467.596 733.374 467.423 733.729V739H466.158V731.604H467.354Z" fill="#3088A0"/>
</svg>
