<svg width="136" height="165" viewBox="0 0 136 165" fill="none" xmlns="http://www.w3.org/2000/svg">
<path d="M64.3897 82.1411L60.6503 83.7559L62.197 84.3718L64.358 83.4393L69.28 85.8536L69.7375 84.766L64.3897 82.1411Z" fill="#F4EBE1"/>
<path d="M53.7637 5.97899L52.4133 5.15259L47.4992 6.62808L47.1572 7.96268L53.7637 5.97899Z" fill="#F4EBE1"/>
<path d="M33.2602 12.1326L40.8941 9.84174L41.2139 8.51507L33.2665 10.9009L24.632 8.22852L24.4088 9.39213L33.2602 12.1326Z" fill="#F4EBE1"/>
<path d="M94.3381 96.836L94.0658 96.703L73.3741 86.5503L72.983 87.6712L83.8878 93.0222L95.497 97.6513L106.283 93.4718C106.418 92.9969 106.562 92.5219 106.703 92.047L94.3381 96.836Z" fill="#F4EBE1"/>
<path d="M115.459 89.9173L116.683 89.4424L115.772 89.0244C115.671 89.3236 115.57 89.6197 115.459 89.9173Z" fill="#F4EBE1"/>
<path d="M1.91397 36.689L0.73927 36.1492L0.590454 55.8071L1.76673 56.0684L1.91397 36.689Z" fill="#F4EBE1"/>
<path d="M44.7777 90.6064L44.5101 92.0059L58.6556 85.8997L57.0914 85.2917L44.7777 90.6064Z" fill="#F4EBE1"/>
<path d="M2.08014 14.6769L0.903862 14.1687L0.772461 31.7021L1.94716 32.2451L2.08014 14.6769Z" fill="#F4EBE1"/>
<path d="M1.54186 85.7157L1.58777 79.7251L0.411493 79.3071L0.357666 86.5374L3.29916 87.6139L3.52396 86.4408L1.54186 85.7157Z" fill="#F4EBE1"/>
<path d="M1.74129 59.4815L0.563423 59.2124L0.438354 75.8845L1.61463 76.2898L1.74129 59.4815Z" fill="#F4EBE1"/>
<path d="M2.172 2.50707L18.632 7.60481L18.8552 6.43962L1.00522 0.912842L0.941895 9.21013L2.11659 9.78798L2.172 2.50707Z" fill="#F4EBE1"/>
<path d="M128.868 35.0107C129.261 34.1431 129.66 33.2692 130.06 32.4112L130.174 8.91089L128.982 11.7606L128.868 35.0107Z" fill="#F4EBE1"/>
<path d="M125.903 2.73209L122.339 2.64502L109.663 6.74379L108.981 8.20346L125.903 2.73209Z" fill="#F4EBE1"/>
<path d="M130.2 2.8364L129.717 2.82373L130.2 2.8364Z" fill="#F4EBE1"/>
<path d="M121.427 87.4414L121.95 86.1384L120.132 86.8429L121.427 87.4414Z" fill="#F4EBE1"/>
<path d="M128.686 71.3218C129.047 70.8577 129.443 70.4221 129.87 70.0189L129.931 57.7827C129.532 58.4308 129.136 59.0804 128.743 59.7316L128.686 71.3218Z" fill="#F4EBE1"/>
<path d="M66.8121 2.06231L68.2021 1.64594L94.5774 12.861L102.913 10.1665L103.578 8.71154L94.6328 11.604L70.6101 1.38789L65.5076 1.2644L66.8121 2.06231Z" fill="#F4EBE1"/>
<path d="M34.9622 94.8443L34.8276 96.1868L41.1745 93.4464L41.442 92.0469L34.9622 94.8443Z" fill="#A6CAA2"/>
<path d="M9.24239 88.5308L9.01758 89.7039L17.489 92.8005L17.8421 91.6733L9.24239 88.5308Z" fill="#A6CAA2"/>
<path d="M128.84 40.0358L130.015 40.7562L130.056 32.4114C129.657 33.2774 129.264 34.1433 128.864 35.0109L128.84 40.0358Z" fill="#A3CEDF"/>
<path d="M128.743 59.7316C129.136 59.0794 129.532 58.4298 129.931 57.7828L129.956 52.6249L128.781 51.9045L128.743 59.7316Z" fill="#A3CEDF"/>
<path d="M115.19 88.7568L106.704 92.0466C106.563 92.5216 106.419 92.9965 106.285 93.4715L115.467 89.9173C115.571 89.6197 115.679 89.3236 115.783 89.0244L115.19 88.7568Z" fill="#A3CEDF"/>
<path d="M24.4089 9.39227L24.6321 8.22866L18.8552 6.4397L18.632 7.60489L24.4089 9.39227Z" fill="white"/>
<path d="M3.524 86.4409L3.29919 87.614L7.14783 89.0199L7.37105 87.8468L3.524 86.4409Z" fill="white"/>
<path d="M7.37105 87.8467L7.14783 89.0198L9.01753 89.7037L9.24233 88.5306L7.37105 87.8467Z" fill="white"/>
<path d="M44.2759 90.8228L44.0083 92.2224L44.5102 92.0055L44.7777 90.606L44.2759 90.8228Z" fill="white"/>
<path d="M41.442 92.047L41.1744 93.4465L44.0083 92.2228L44.2758 90.8232L41.442 92.047Z" fill="white"/>
<path d="M120.131 86.843L115.961 88.4594L115.772 89.0246L116.683 89.4425L121.347 87.6362L121.426 87.4414L120.131 86.843Z" fill="white"/>
<path d="M1.9472 32.2449L0.772504 31.7019L0.739258 36.149L1.91395 36.6888L1.9472 32.2449Z" fill="white"/>
<path d="M115.772 89.0247L115.961 88.4595L115.19 88.7571L115.772 89.0247Z" fill="white"/>
<path d="M128.626 83.5518L121.948 86.1387L121.427 87.4416L121.621 87.5303L129.802 84.364L129.872 70.0222C129.444 70.4254 129.048 70.861 128.688 71.3252L128.626 83.5518Z" fill="#A6CAA2"/>
<path d="M121.347 87.6361L121.619 87.5301L121.427 87.4414L121.347 87.6361Z" fill="#A6CAA2"/>
<path d="M57.0914 85.2918L58.6556 85.8997L62.1971 84.3719L60.6504 83.7561L57.0914 85.2918Z" fill="white"/>
<path d="M93.5466 97.7619L94.2828 98.1213L95.4971 97.6511L83.8878 93.022L93.5466 97.7619Z" fill="white"/>
<path d="M69.7377 84.7659L69.2802 85.8535L72.9831 87.6709L73.3742 86.5501L69.7377 84.7659Z" fill="white"/>
<path d="M2.1165 9.78805L0.941804 9.21021L0.903809 14.1686L2.08009 14.6768L2.1165 9.78805Z" fill="white"/>
<path d="M1.61469 76.2898L0.438413 75.8845L0.411499 79.3073L1.58778 79.7252L1.61469 76.2898Z" fill="white"/>
<path d="M1.76679 56.0683L0.590512 55.8071L0.563599 59.2125L1.74146 59.4816L1.76679 56.0683Z" fill="white"/>
<path d="M108.981 8.20332L109.663 6.74365L103.577 8.71151L102.912 10.1664L108.981 8.20332Z" fill="white"/>
<path d="M129.022 2.80786L128.977 11.7669L130.17 8.9109L130.2 2.83636L129.717 2.82369L129.022 2.80786Z" fill="white"/>
<path d="M47.1571 7.96252L47.4991 6.62793L41.214 8.51504L40.8942 9.84172L47.1571 7.96252Z" fill="white"/>
<path d="M31.0898 96.5162L30.8302 96.4212L17.8421 91.6733L17.489 92.8005L30.3711 97.5088L31.6883 97.5421L34.8277 96.1869L34.9622 94.8444L31.0898 96.5162Z" fill="#F4EBE1"/>
<path d="M58.1917 4.65082L58.4418 3.34473L52.4132 5.15268L53.7636 5.97909L58.1917 4.65082Z" fill="#F2D263"/>
<path d="M66.8119 2.0623L65.5074 1.2644L65.3808 1.26123L61.6873 2.36943L61.4371 3.67553L66.8119 2.0623Z" fill="#F2D263"/>
<path d="M128.781 51.9045L129.956 52.6248L130.014 40.7544L128.84 40.0356L128.781 51.9045Z" fill="#F2D263"/>
<path d="M61.4371 3.67548L61.6872 2.36938L58.4418 3.3446L58.1917 4.6507L61.4371 3.67548Z" fill="#F2D263"/>
<path d="M112.297 41.8134L97.5092 32.761L92.6885 43.08L108.427 50.9165L112.297 41.8134Z" fill="#F4EBE1"/>
<path d="M1.58778 79.7251L1.54187 85.7157L3.52397 86.4408L4.60526 80.7985L1.58778 79.7251Z" fill="#F4EBE1"/>
<path d="M86.3085 46.4884L56.5659 29.0991L51.5695 55.1688L76.9758 66.9063L86.3085 46.4884Z" fill="#F4EBE1"/>
<path d="M50.8047 59.1619L47.1255 78.3607L60.6503 83.7561L64.3897 82.1413L69.7376 84.7661L75.6776 70.5954L50.8047 59.1619Z" fill="#F4EBE1"/>
<path d="M16.6531 17.9349L18.632 7.60482L2.17199 2.50708L2.11658 9.78798L16.8256 17.0309L16.6531 17.9349Z" fill="#F4EBE1"/>
<path d="M44.7777 90.6063L57.0914 85.2917L46.5809 81.2024L44.7777 90.6063Z" fill="#F4EBE1"/>
<path d="M12.1568 41.3972L1.91383 36.689L1.7666 56.0683L9.03484 57.6815L12.1568 41.3972Z" fill="#F4EBE1"/>
<path d="M116.316 32.3684L129.717 2.82372L130.214 0.0991211L108.981 8.20326L101.834 23.5028L116.316 32.3684Z" fill="#F4EBE1"/>
<path d="M8.39854 61.0028L1.7414 59.4814L1.61475 76.2897L5.23066 77.5373L8.39854 61.0028Z" fill="#F4EBE1"/>
<path d="M110.306 56.4863L90.0684 48.6877L80.7404 68.648L77.9034 67.3372L109.965 82.1475C112.234 75.8244 114.745 69.5884 117.015 63.5851C118.941 58.4895 120.954 53.4276 123.053 48.3995L115.59 43.8306L110.306 56.4863Z" fill="#F4EBE1"/>
<path d="M88.7607 41.1249L93.6605 30.4054L60.2371 9.94165L57.2671 25.4423L88.7607 41.1249Z" fill="#F4EBE1"/>
<path d="M116.949 85.3723L120.131 86.843L121.948 86.1385C123.04 83.4165 124.131 80.6946 125.224 77.9726C126.148 75.6644 127.171 73.2501 128.686 71.3234L128.743 59.7332C124.823 66.2241 121.192 72.8875 118.681 80.0228C118.059 81.788 117.506 83.5817 116.949 85.3723Z" fill="#F4EBE1"/>
<path d="M127.098 38.9705C127.682 37.6491 128.27 36.3298 128.863 35.0126L128.977 11.7688L119.55 34.3493L127.098 38.9705Z" fill="#F4EBE1"/>
<path d="M16.1147 20.7386L2.08013 14.6768L1.94714 32.245L12.9374 37.3221L16.1147 20.7386Z" fill="#F4EBE1"/>
<path d="M102.913 10.1665L94.5773 12.861L68.202 1.646L66.812 2.06236L97.913 21.1029L102.913 10.1665Z" fill="#F4EBE1"/>
<path d="M32.1189 46.1845L40.8943 9.8417L33.2603 12.1325L24.4089 9.39209L18.5592 39.92L32.1189 46.1845Z" fill="#F4EBE1"/>
<path d="M78.4877 71.887L73.3741 86.5501L94.0659 96.7028L94.3382 96.8358L106.704 92.0468C107.322 89.9518 107.985 87.8599 108.696 85.7712L78.4877 71.887Z" fill="#F4EBE1"/>
<path d="M48.7593 53.8708L57.4983 8.26665L53.7637 5.979L47.1572 7.96269L36.8176 48.3552L48.7593 53.8708Z" fill="#F4EBE1"/>
<path d="M17.7802 43.9824L9.24231 88.5307L17.842 91.6732L23.345 74.0448L36.3031 81.6139L34.9621 94.8443L41.442 92.0468L47.993 57.8698L17.7802 43.9824Z" fill="#A6CAA2"/>
<path d="M128.84 40.0357L128.863 35.0107C128.268 36.3279 127.68 37.6472 127.098 38.9686L128.84 40.0357Z" fill="#A3CEDF"/>
<path d="M117.015 63.585C114.745 69.5883 112.234 75.8243 109.965 82.1474L116.949 85.3723C117.506 83.5817 118.057 81.788 118.681 80.0212C121.192 72.886 124.823 66.2146 128.743 59.7316L128.781 51.9045L123.053 48.3994C120.957 53.4275 118.945 58.4893 117.015 63.585Z" fill="#A3CEDF"/>
<path d="M106.704 92.0468L115.191 88.7571L108.7 85.7712C107.987 87.8578 107.322 89.9497 106.704 92.0468Z" fill="#A3CEDF"/>
<path d="M16.1148 20.7388L12.9374 37.3223L18.5591 39.9202L24.4089 9.39236L18.632 7.60498L16.653 17.935L16.1148 20.7388Z" fill="white"/>
<path d="M12.157 41.3972L9.03499 57.6815L11.1596 58.1533L8.87034 61.1106L8.39856 61.0029L5.23068 77.5373L6.04759 77.8191L4.60534 80.7986L3.52405 86.441L7.3711 87.8468L15.8647 43.1023L12.157 41.3972Z" fill="white"/>
<path d="M15.8646 43.1023L7.37097 87.8468L9.24225 88.5308L17.7802 43.9825L15.8646 43.1023Z" fill="white"/>
<path d="M46.6964 78.1912L47.1254 78.3606L50.8047 59.1618L50.3804 58.967L46.6964 78.1912Z" fill="white"/>
<path d="M46.1519 81.0361L44.2759 90.8232L44.7777 90.6063L46.5809 81.2024L46.1519 81.0361Z" fill="white"/>
<path d="M48.7593 53.8708L51.5694 55.169L56.5658 29.0993L54.6328 27.9705L55.9784 24.801L57.2671 25.4422L60.2371 9.94157L57.4983 8.2666L48.7593 53.8708Z" fill="white"/>
<path d="M45.9318 80.9506L46.011 77.9173L46.6965 78.1912L50.3805 58.967L47.9931 57.8699L41.442 92.0469L44.2759 90.8231L46.1519 81.0361L45.9318 80.9506Z" fill="white"/>
<path d="M12.9374 37.3223L1.94719 32.2451L1.91394 36.689L12.1569 41.3973L12.9374 37.3223Z" fill="white"/>
<path d="M48.2512 56.5195L48.7594 53.8709L36.8177 48.3552L36.6356 49.0676L31.4555 48.9346L32.1189 46.1847L18.5592 39.9202L17.9956 42.8569L48.2512 56.5195Z" fill="white"/>
<path d="M115.961 88.4595L120.131 86.8431L116.949 85.3723C116.626 86.4045 116.3 87.4352 115.961 88.4595Z" fill="white"/>
<path d="M76.9758 66.9064L51.5695 55.1689L50.8048 59.1616L75.6745 70.5952L78.483 71.887L108.689 85.7712C109.101 84.5606 109.523 83.3527 109.956 82.1474L77.9083 67.337L76.9758 66.9064Z" fill="white"/>
<path d="M17.9956 42.8569L17.7803 43.9826L47.9931 57.8699L48.2511 56.5195L17.9956 42.8569Z" fill="white"/>
<path d="M109.965 82.1472C109.532 83.3525 109.11 84.5605 108.699 85.771L115.19 88.7569L115.961 88.4592C116.3 87.4349 116.626 86.4011 116.949 85.3721L109.965 82.1472Z" fill="white"/>
<path d="M17.9955 42.857L18.5591 39.9202L12.9374 37.3223L12.1569 41.3973L15.8646 43.1023L16.0752 41.9894L17.9955 42.857Z" fill="white"/>
<path d="M16.0753 41.9893L15.8647 43.1022L17.7804 43.9824L17.9957 42.8568L16.0753 41.9893Z" fill="white"/>
<path d="M48.7593 53.8708L48.2511 56.5195L50.6432 57.5992L50.3804 58.967L50.8047 59.1617L51.5694 55.169L48.7593 53.8708Z" fill="white"/>
<path d="M48.2512 56.5195L47.9932 57.87L50.3806 58.9671L50.6434 57.5992L48.2512 56.5195Z" fill="white"/>
<path d="M121.948 86.1387L128.626 83.5518L128.686 71.322C127.171 73.2503 126.153 75.6646 125.224 77.9712C124.131 80.6953 123.04 83.4178 121.948 86.1387Z" fill="#A6CAA2"/>
<path d="M46.5809 81.2021L57.0915 85.2914L60.6504 83.7557L47.1255 78.3604L46.5809 81.2021Z" fill="white"/>
<path d="M46.1519 81.0361L46.5809 81.2023L47.1255 78.3606L46.6965 78.1912L46.1519 81.0361Z" fill="white"/>
<path d="M46.011 77.9175L45.9319 80.9508L46.1519 81.0363L46.6965 78.1914L46.011 77.9175Z" fill="white"/>
<path d="M75.6776 70.5952L69.7377 84.766L73.3742 86.5502L78.4877 71.8871L75.6776 70.5952Z" fill="white"/>
<path d="M75.6775 70.5952L78.4876 71.8871L75.6775 70.5952Z" fill="white"/>
<path d="M16.653 17.935L16.8255 17.031L2.11649 9.78809L2.08008 14.6769L16.1147 20.7387L16.653 17.935Z" fill="white"/>
<path d="M16.6531 17.9348L16.1149 20.7386L16.6531 17.9348Z" fill="white"/>
<path d="M5.23072 77.5373L1.6148 76.2898L1.58789 79.7252L4.60537 80.7986L5.23072 77.5373Z" fill="white"/>
<path d="M4.60535 80.7984L6.0476 77.8189L5.23069 77.5371L4.60535 80.7984Z" fill="white"/>
<path d="M9.0349 57.6813L1.76666 56.0681L1.74133 59.4814L8.39848 61.0028L9.0349 57.6813Z" fill="white"/>
<path d="M8.87034 61.1105L11.1596 58.1532L9.03499 57.6814L8.39856 61.0028L8.87034 61.1105Z" fill="white"/>
<path d="M92.6885 43.0802L97.5092 32.7612L93.6606 30.4055L88.7607 41.125L92.6885 43.0802Z" fill="white"/>
<path d="M101.834 23.5027L108.981 8.20312L102.912 10.1662L97.9128 21.1026L101.834 23.5027Z" fill="white"/>
<path d="M86.3085 46.4888L76.9758 66.9066L77.9083 67.3373L80.7437 68.6481L90.0685 48.6878L86.3085 46.4888Z" fill="white"/>
<path d="M76.9758 66.9062L77.9083 67.3369L76.9758 66.9062Z" fill="white"/>
<path d="M116.315 32.3685L119.55 34.349L129.568 11.4028L129.609 3.06281L129.614 2.26807L116.315 32.3685Z" fill="white"/>
<path d="M110.306 56.4863L115.59 43.8307L112.297 41.8137L108.427 50.9168L92.6885 43.0802L90.0684 48.6878L110.306 56.4863Z" fill="white"/>
<path d="M88.7607 41.1251L57.2671 25.4424L56.5658 29.0995L86.3084 46.4888L88.7607 41.1251Z" fill="white"/>
<path d="M55.9784 24.801L54.6327 27.9705L56.5657 29.0993L57.2671 25.4422L55.9784 24.801Z" fill="white"/>
<path d="M90.0683 48.6877L92.6884 43.0802L88.7606 41.125L86.3083 46.4887L90.0683 48.6877Z" fill="white"/>
<path d="M36.8176 48.3551L47.1571 7.96265L40.8942 9.84184L32.1188 46.1846L36.8176 48.3551Z" fill="white"/>
<path d="M36.6355 49.0677L36.8176 48.3553L32.1188 46.1848L31.4554 48.9347L36.6355 49.0677Z" fill="white"/>
<path d="M23.3451 74.0449L17.842 91.6733L30.8302 96.4212L31.0898 96.5161L34.9622 94.8443L36.3031 81.614L23.3451 74.0449Z" fill="#F4EBE1"/>
<path d="M60.2371 9.94159L93.6605 30.4054L97.9128 21.1028L66.8119 2.06226L61.4371 3.67548L60.2371 9.94159Z" fill="#F2D263"/>
<path d="M58.1917 4.65063L53.7637 5.9789L57.4983 8.26655L58.1917 4.65063Z" fill="#F2D263"/>
<path d="M123.053 48.3993C124.369 45.2425 125.718 42.0994 127.098 38.9701L119.55 34.3489L115.592 43.8304L123.053 48.3993Z" fill="#F2D263"/>
<path d="M112.297 41.8136L116.316 32.3686L101.834 23.5029L97.5093 32.7612L112.297 41.8136Z" fill="#F2D263"/>
<path d="M123.053 48.3996L128.781 51.9047L128.84 40.031L127.098 38.9656C125.718 42.097 124.369 45.2417 123.053 48.3996Z" fill="#F2D263"/>
<path d="M60.2371 9.94164L61.4372 3.67554L58.1917 4.65076L57.4983 8.26667L60.2371 9.94164Z" fill="#F2D263"/>
<path d="M101.834 23.5028L97.913 21.1028L93.6606 30.4054L97.5093 32.7611L101.834 23.5028Z" fill="#F2D263"/>
<path d="M115.59 43.8307L119.55 34.3492L116.316 32.3687L112.297 41.8137L115.59 43.8307Z" fill="#F2D263"/>
<g style="mix-blend-mode:multiply" opacity="0.1">
<g style="mix-blend-mode:multiply" opacity="0.1">
<path d="M32.6523 11.8602L2.25266 2.25366L1.62732 85.7569L30.4549 96.5128L32.6523 11.8602Z" fill="black"/>
</g>
</g>
<g style="mix-blend-mode:multiply" opacity="0.1">
<g style="mix-blend-mode:multiply" opacity="0.1">
<path d="M94.164 12.6139L67.7824 1.16138L64.7412 82.6239L93.9836 96.8247L94.164 12.6139Z" fill="black"/>
</g>
</g>
<path d="M0.531938 86.9586L3.45285 88.0273L29.9959 97.7003C31.8593 98.3779 33.2588 97.3203 35.0367 96.5557L41.2885 93.8643L53.6767 88.5339L59.1227 86.1908L62.4727 84.7486C62.9381 84.5491 63.5223 84.3987 63.9386 84.1153C64.0299 84.0605 64.1258 84.0139 64.2252 83.976C64.3468 84.018 64.4615 84.0778 64.5656 84.1533C66.4844 85.4974 69.1076 86.3697 71.2291 87.413L76.7922 90.1344L89.972 96.5763C90.9108 97.0354 91.848 97.4977 92.7884 97.9552C93.876 98.4824 94.085 98.4412 95.2565 97.99L102.029 95.3731L129.397 84.804C129.549 84.7583 129.683 84.6661 129.78 84.5402C129.877 84.4144 129.932 84.2613 129.937 84.1026C129.99 73.5103 130.043 62.9169 130.095 52.3225C130.152 40.8721 130.208 29.4207 130.263 17.9682L130.349 0.738756C130.349 0.282809 129.883 -0.116145 129.427 0.0310882L103.622 8.34895L97.4128 10.3532C96.4882 10.6509 95.3642 11.2477 94.3794 11.3585L94.3256 11.3459C94.0323 11.249 93.7475 11.1283 93.4739 10.9849L77.7817 4.33567L71.3209 1.58732C70.0702 1.05697 68.8353 0.192569 67.4849 0.456955C63.2104 1.29127 58.9359 3.01532 54.75 4.26601L41.982 8.09248L35.8077 9.9416C35.1997 10.1237 34.5633 10.2741 33.9681 10.4925C33.7527 10.5701 33.1844 10.6334 33.3348 10.6809C32.3216 10.5353 31.1627 9.9701 30.2255 9.68038L1.5689 0.840077C1.4607 0.811223 1.34735 0.807379 1.23744 0.828837C1.12753 0.850294 1.02395 0.896491 0.934552 0.963924C0.845149 1.03136 0.772271 1.11826 0.72144 1.21804C0.67061 1.31782 0.643162 1.42786 0.641175 1.53983C0.558852 12.5047 0.476 23.4696 0.392621 34.4345C0.309242 45.6073 0.224807 56.7791 0.139317 67.9498C0.0918227 74.0523 0.0453836 80.1532 0 86.2525C0.00299228 86.4113 0.0560327 86.565 0.151555 86.6918C0.247077 86.8186 0.380202 86.912 0.531938 86.9586V86.9586ZM64.1445 83.9506C63.9687 83.9681 63.9861 83.9158 64.1445 83.9506V83.9506ZM30.2651 11.2208C31.169 11.501 32.2472 12.0614 33.1939 12.1248C33.9063 12.1723 34.69 11.7955 35.3628 11.5944L39.8764 10.244L52.1363 6.57583L64.5054 2.87442C65.4411 2.59421 66.3846 2.33299 67.3139 2.03377C68.1451 1.7678 68.0311 1.82005 68.2986 1.88337C68.9462 2.04169 69.6412 2.45331 70.257 2.71453L74.3257 4.43699L91.0311 11.52C92.0395 11.9474 93.4058 12.8688 94.5283 12.8166C95.4291 12.7754 96.504 12.1833 97.3605 11.9047L102.074 10.3849L128.879 1.74564L128.721 32.845C128.666 44.0326 128.613 55.2202 128.563 66.4078C128.534 72.1409 128.506 77.8724 128.479 83.6024L105.308 92.5551L97.3637 95.6264L94.989 96.543C93.8918 96.9673 94.1261 96.9879 93.1129 96.4924C88.9714 94.4691 84.8309 92.4442 80.6915 90.4178L68.5013 84.4541C67.3535 83.8921 65.9967 82.9311 64.7508 82.6192C63.8247 82.3881 63.1566 82.8773 62.2589 83.2636L57.4192 85.3359L43.9387 91.135L38.1539 93.63C36.194 94.4738 33.7211 96.0047 31.6313 96.4369C30.2239 96.7267 27.3093 95.1704 25.6834 94.5736L17.926 91.7492L3.83597 86.6167L1.46441 85.7475L1.69714 55.017L1.9726 18.527C2.01377 13.1971 2.0544 7.86715 2.09451 2.53721L25.9636 9.89727L30.2651 11.2208Z" fill="#E0E0E0"/>
<path d="M21.4357 99.1362L21.1539 90.3371L27.4485 86.8684L29.2343 89.9366L26.3403 93.7599L31.2703 98.1832L43.6188 92.8005L42.8273 97.5499L37.7612 106.099L38.8694 139.127L38.7459 148.657L18.1301 145.203L20.0806 131.648L26.0459 105.149L21.4357 99.1362Z" fill="#ECC192"/>
<path d="M39.9253 133.086C39.9253 133.086 31.0596 126.143 21.5053 119.683L9.73938 164.992H38.3944L39.9253 133.086Z" fill="#7AA0BB"/>
<path d="M21.5688 119.638L16.1449 122.152L16.5565 133.084L40.6425 141.311L42.3096 137.197L39.9254 133.085L21.5688 119.638Z" fill="#6E90A8"/>
<path d="M31.7801 139.279C31.7801 138.951 31.4239 138.701 31.1183 138.728C30.9592 138.746 30.8131 138.824 30.7105 138.947C30.6079 139.07 30.5566 139.228 30.5674 139.388C30.5614 139.946 30.4832 140.502 30.3347 141.041C30.1352 141.797 31.3337 142.011 31.5331 141.257C31.6999 140.611 31.7829 139.946 31.7801 139.279V139.279Z" fill="#89B3D1"/>
<path d="M29.9389 143.626L29.5811 145.6C29.4418 146.371 30.6386 146.589 30.7779 145.817L31.1357 143.843C31.2766 143.072 30.0798 142.853 29.9389 143.626Z" fill="#89B3D1"/>
<path d="M29.2248 148.254L28.9319 149.87C28.791 150.641 29.9879 150.858 30.1288 150.087L30.4217 148.47C30.5546 147.699 29.3641 147.483 29.2248 148.254Z" fill="#89B3D1"/>
<path d="M29.7474 152.528C29.7474 152.198 29.3912 151.948 29.0872 151.977C28.9278 151.994 28.7813 152.073 28.6783 152.196C28.5754 152.319 28.5239 152.477 28.5347 152.637C28.5283 153.196 28.4507 153.751 28.3035 154.29C28.1025 155.047 29.3009 155.259 29.5004 154.507C29.6671 153.86 29.7501 153.195 29.7474 152.528V152.528Z" fill="#89B3D1"/>
<path d="M28.085 156.907L27.7272 158.881C27.5879 159.652 28.7847 159.871 28.9241 159.098L29.2882 157.124C29.4212 156.353 28.2243 156.134 28.085 156.907Z" fill="#89B3D1"/>
<path d="M27.3694 161.535L27.0718 163.151C26.9325 163.922 28.1293 164.139 28.2687 163.368L28.5616 161.752C28.7072 160.981 27.5088 160.764 27.3694 161.535Z" fill="#89B3D1"/>
<path d="M32.8376 155.153C33.0793 151.353 33.3432 147.551 33.6292 143.745C33.7447 142.187 33.8872 140.621 34.017 139.054L32.8566 138.658C32.6476 140.4 32.4561 142.141 32.236 143.859C31.7611 147.561 31.2645 151.261 30.7463 154.957C30.2317 158.655 29.5731 163.822 29.5336 165H32.0666C32.274 163.835 32.5954 158.953 32.8376 155.153Z" fill="#89B3D1"/>
<path d="M108.053 98.8162C122.48 98.8162 134.175 87.121 134.175 72.6942C134.175 58.2675 122.48 46.5723 108.053 46.5723C93.6262 46.5723 81.931 58.2675 81.931 72.6942C81.931 87.121 93.6262 98.8162 108.053 98.8162Z" fill="#2E4661"/>
<path d="M108.132 95.2019C120.635 95.2019 130.771 85.0661 130.771 72.5629C130.771 60.0597 120.635 49.9238 108.132 49.9238C95.629 49.9238 85.4932 60.0597 85.4932 72.5629C85.4932 85.0661 95.629 95.2019 108.132 95.2019Z" fill="white"/>
<g style="mix-blend-mode:multiply" opacity="0.07">
<g style="mix-blend-mode:multiply" opacity="0.07">
<path d="M124.302 56.2422C128.036 60.6581 129.937 66.3352 129.618 72.1088C129.298 77.8824 126.782 83.3149 122.584 87.292C118.387 91.269 112.826 93.4891 107.044 93.4969C101.261 93.5046 95.6952 91.2994 91.4869 87.3337C93.476 89.6865 95.9243 91.6085 98.682 92.9822C101.44 94.3559 104.449 95.1522 107.525 95.3224C110.601 95.4927 113.68 95.0332 116.572 93.9722C119.465 92.9112 122.11 91.271 124.347 89.1521C126.583 87.0331 128.363 84.4799 129.579 81.6489C130.794 78.8178 131.419 75.7685 131.415 72.6876C131.411 69.6067 130.778 66.5591 129.555 63.7313C128.332 60.9036 126.545 58.3552 124.302 56.2422V56.2422Z" fill="#2E4661"/>
</g>
</g>
<path d="M103.946 70.8928L111.335 75.8813L97.6438 88.1935L103.946 70.8928Z" fill="#B22B48"/>
<path d="M104.268 70.4179L111.656 75.4064L117.96 58.1057L104.268 70.4179Z" fill="#6596C1"/>
<path d="M129.845 72.6802C129.845 72.8634 129.791 73.0426 129.69 73.1951C129.588 73.3477 129.444 73.4666 129.274 73.5369C129.105 73.6073 128.919 73.6259 128.739 73.5903C128.559 73.5547 128.394 73.4667 128.265 73.3372C128.135 73.2077 128.047 73.0427 128.011 72.863C127.975 72.6833 127.993 72.497 128.063 72.3277C128.133 72.1584 128.252 72.0136 128.404 71.9118C128.557 71.81 128.736 71.7556 128.919 71.7556C129.164 71.7556 129.4 71.853 129.573 72.0263C129.747 72.1997 129.845 72.4348 129.845 72.6802V72.6802Z" fill="#2E4661"/>
<path d="M88.7703 72.6802C88.7703 72.863 88.716 73.0418 88.6144 73.1938C88.5129 73.3459 88.3685 73.4644 88.1995 73.5344C88.0306 73.6043 87.8447 73.6226 87.6653 73.587C87.486 73.5513 87.3212 73.4632 87.1919 73.3339C87.0626 73.2046 86.9746 73.0399 86.9389 72.8605C86.9032 72.6812 86.9215 72.4953 86.9915 72.3264C87.0615 72.1574 87.18 72.013 87.332 71.9114C87.4841 71.8098 87.6628 71.7556 87.8457 71.7556C88.0909 71.7556 88.3261 71.853 88.4995 72.0264C88.6729 72.1998 88.7703 72.435 88.7703 72.6802V72.6802Z" fill="#2E4661"/>
<path d="M108.373 51.219C108.556 51.219 108.734 51.2732 108.886 51.3747C109.038 51.4762 109.157 51.6205 109.227 51.7894C109.297 51.9582 109.315 52.144 109.28 52.3233C109.244 52.5026 109.156 52.6674 109.027 52.7968C108.898 52.9261 108.733 53.0143 108.554 53.0502C108.375 53.086 108.189 53.0679 108.02 52.9982C107.851 52.9285 107.707 52.8102 107.605 52.6584C107.503 52.5065 107.449 52.3279 107.448 52.1451C107.448 52.0236 107.472 51.9032 107.518 51.7908C107.565 51.6785 107.633 51.5764 107.718 51.4903C107.804 51.4043 107.906 51.3361 108.019 51.2895C108.131 51.243 108.251 51.219 108.373 51.219V51.219Z" fill="#2E4661"/>
<path d="M108.392 92.292C108.575 92.2917 108.754 92.3457 108.907 92.4473C109.059 92.5489 109.178 92.6934 109.249 92.8626C109.319 93.0318 109.338 93.2181 109.302 93.3978C109.266 93.5776 109.178 93.7428 109.049 93.8725C108.919 94.0021 108.754 94.0905 108.575 94.1264C108.395 94.1622 108.209 94.144 108.039 94.0739C107.87 94.0039 107.725 93.8852 107.623 93.7328C107.522 93.5805 107.467 93.4014 107.467 93.2181C107.467 93.0966 107.491 92.9762 107.537 92.8638C107.584 92.7515 107.652 92.6494 107.738 92.5634C107.823 92.4773 107.925 92.4091 108.038 92.3625C108.15 92.316 108.27 92.292 108.392 92.292V92.292Z" fill="#2E4661"/>
<path d="M106.139 42.415H110.157C110.733 42.415 111.285 42.6437 111.692 43.0508C112.099 43.4578 112.328 44.0099 112.328 44.5855V47.7977H103.969V44.5855C103.969 44.0099 104.197 43.4578 104.604 43.0508C105.011 42.6437 105.563 42.415 106.139 42.415V42.415Z" fill="#2E4661"/>
<path d="M115.457 37.919C114.515 35.8863 112.457 34.6498 110.242 34.6055C108.976 34.5802 107.709 34.6055 106.443 34.6055C104.618 34.6055 102.89 35.1897 101.679 36.6177C100.468 38.0457 100.291 39.7064 100.291 41.5033C100.291 43.0611 100.053 44.8833 101.61 45.8316C102.523 46.3889 103.668 46.248 104.694 46.248H113.111C113.147 46.2511 113.184 46.2511 113.22 46.248C113.273 46.2479 113.326 46.2436 113.379 46.2353C114.435 46.1277 115.348 45.5561 115.776 44.5477C116.038 43.9287 116.005 43.2907 116.005 42.6352C116.005 41.0394 116.149 39.4088 115.457 37.919ZM113.22 44.5287H103.75C102.924 44.5287 102.1 44.4875 102.009 43.4205C101.928 42.4247 101.99 41.3766 102.009 40.3761C102.015 39.4661 102.324 38.5842 102.888 37.8699C103.452 37.1556 104.237 36.6498 105.121 36.4325C106.156 36.1855 107.337 36.3264 108.4 36.3264C109.606 36.3264 110.904 36.1855 112.02 36.7348C113.722 37.5723 114.281 39.2045 114.281 40.9777C114.284 41.9972 114.758 44.44 113.22 44.5287Z" fill="#2E4661"/>
<path d="M123.903 99.1362L124.187 90.3371L117.891 86.8684L116.105 89.9366L118.999 93.7599L114.544 98.1832L101.72 98.0249V100.083L107.578 106.099L106.47 139.127L106.593 148.657L127.209 145.203L125.259 131.648L119.293 105.149L123.903 99.1362Z" fill="#ECC192"/>
<path d="M105.256 133.086C105.256 133.086 114.121 126.143 123.677 119.683L135.442 164.992H106.787L105.256 133.086Z" fill="#7AA0BB"/>
<path d="M123.612 119.638L129.036 122.152L128.624 133.084L104.538 141.311L101.72 130.48L104.412 127.63L123.612 119.638Z" fill="#6E90A8"/>
<path d="M113.401 139.279C113.401 138.951 113.757 138.701 114.063 138.728C114.222 138.746 114.368 138.824 114.471 138.947C114.573 139.07 114.624 139.228 114.614 139.388C114.62 139.946 114.698 140.502 114.846 141.041C115.047 141.797 113.849 142.011 113.649 141.257C113.482 140.611 113.399 139.946 113.401 139.279V139.279Z" fill="#89B3D1"/>
<path d="M115.242 143.626L115.6 145.6C115.739 146.371 114.542 146.589 114.403 145.817L114.045 143.843C113.906 143.072 115.103 142.853 115.242 143.626Z" fill="#89B3D1"/>
<path d="M115.958 148.254L116.251 149.87C116.39 150.641 115.193 150.858 115.052 150.087L114.759 148.47C114.62 147.699 115.817 147.483 115.958 148.254Z" fill="#89B3D1"/>
<path d="M115.434 152.528C115.434 152.198 115.79 151.948 116.095 151.977C116.255 151.995 116.401 152.073 116.503 152.196C116.606 152.319 116.657 152.477 116.646 152.637C116.652 153.196 116.731 153.751 116.879 154.29C117.079 155.047 115.882 155.259 115.681 154.507C115.515 153.86 115.432 153.195 115.434 152.528Z" fill="#89B3D1"/>
<path d="M117.096 156.907L117.455 158.881C117.595 159.652 116.398 159.871 116.257 159.098L115.899 157.124C115.76 156.353 116.957 156.134 117.096 156.907Z" fill="#89B3D1"/>
<path d="M117.812 161.535L118.104 163.151C118.244 163.922 117.047 164.139 116.908 163.368L116.615 161.752C116.475 160.981 117.672 160.764 117.812 161.535Z" fill="#89B3D1"/>
<path d="M112.343 155.153C112.102 151.353 111.838 147.551 111.552 143.745C111.435 142.187 111.292 140.621 111.164 139.054L112.323 138.658C112.533 140.4 112.723 142.141 112.945 143.859C113.42 147.561 113.916 151.261 114.433 154.957C114.949 158.655 115.606 163.822 115.646 165H113.113C112.907 163.835 112.585 158.953 112.343 155.153Z" fill="#89B3D1"/>
</svg>
