<svg width="337" height="237" viewBox="0 0 337 237" fill="none" xmlns="http://www.w3.org/2000/svg">
<path d="M213.409 60.277C215.632 69.6028 221.302 77.6095 224.732 83.1278C226.828 86.4918 227.55 90.3223 222.936 91.2785C229.057 93.548 231.857 90.9214 232.232 87.8224C233.485 90.9732 231.765 96.0595 228.485 97.6551C234.126 99.1182 237.273 98.6458 238.52 95.8925C239.028 99.1355 239.063 100.23 236.361 101.428C240.703 101.751 245.403 103.974 247.279 101.169C246.985 103.997 244.479 103.208 242.706 104.164C244.49 105.524 251.586 105.714 252.522 105.345C255.103 104.308 257.337 103.617 258.469 101.019C259.907 103.404 263.533 107.252 265.6 107.903C267.667 108.553 272.794 109.584 276.732 108.957C274.571 106.702 273.294 103.748 273.135 100.633C275.698 104.164 280.56 110.287 283.528 109.435C281.599 107.217 279.671 107.131 280.912 102.684C281.709 105.362 285.704 108.53 291.882 106.975C289.18 105.397 283.799 105.852 285.196 102.684C285.508 104.648 295.624 105.829 300.382 102.194C296.213 101.618 295.231 97.3037 297.98 92.7589C299.533 90.2014 302.824 88.2947 305.982 87.5229C313.881 85.5932 318.385 79.6717 319.84 70.9104C321.959 57.973 296.559 28.089 269.307 24.3045C242.054 20.5201 209.524 44.0505 213.409 60.277Z" fill="#512E17"/>
<path d="M290.901 237C316.131 237 336.584 234.073 336.584 230.462C336.584 226.851 316.131 223.924 290.901 223.924C265.671 223.924 245.218 226.851 245.218 230.462C245.218 234.073 265.671 237 290.901 237Z" fill="#B9BAB2"/>
<path d="M294.469 180.527C289.792 158.593 287.021 137.856 286.905 137.032C255.894 146.744 246.581 136.825 246.581 136.825L267.367 224.253L256.431 232.127L271.114 228.429L275.617 231.765L263.642 152.734C267.91 153.681 272.342 153.598 276.57 152.492L287.362 189.358L315.186 190.625L321.266 202.33L320.804 184.946L294.469 180.527Z" fill="url(#paint0_linear)"/>
<path d="M244.398 134.734C244.398 134.734 240.304 156.242 246.13 176.524C246.13 176.524 294.094 176.011 308.575 167.912C308.575 167.912 294.025 150.632 289.273 133.046L244.398 134.734Z" fill="#2D2D2D"/>
<path d="M270.502 99.1647H258.879C258.879 99.1647 241.124 90.9334 244.837 115.362C245.564 120.161 247.031 123.605 244.398 134.763C244.398 134.763 267.355 145.753 289.296 133.064C289.296 133.064 287.24 118.139 289.59 110.702C289.59 110.685 300.416 99.1647 270.502 99.1647Z" fill="#007993"/>
<path d="M261.725 98.7207L250.968 122.315L254.877 132.153L261.864 124.694L261.725 98.7207Z" fill="#2D2D2D"/>
<path d="M257.637 101.918L261.743 98.7207L256.413 97.7529L257.637 101.918Z" fill="#A6E3ED"/>
<path d="M260.155 106.399L263.746 102.822L261.852 98.6113L258.486 101.244L260.155 106.399Z" fill="#2D2D2D"/>
<path d="M261.864 98.7207L264.26 104.17L269.82 99.5329L261.864 98.7207Z" fill="#A6E3ED"/>
<path d="M274.035 221.246C274.035 221.246 271.962 224.385 267.216 223.55L267.078 224.449L256.442 232.104L267.02 231.902L272.147 230.221L272.724 233.101L275.969 232.922C275.969 232.922 276.154 226.401 274.035 221.246Z" fill="#433131"/>
<path d="M312.657 183.557C312.657 183.557 315.544 186.005 314.106 190.596L314.989 190.849L321.254 202.335L322.409 191.846L321.381 186.564L324.32 186.351L324.551 183.119C324.551 183.119 318.05 182.111 312.657 183.557Z" fill="#433131"/>
<path d="M255.847 97.148C253.105 96.1573 246.609 99.0662 243.208 100.633C242.596 100.915 235.604 103.571 233.266 102.557C231.533 101.808 231.135 95.3796 231.181 94.4637C231.291 92.2921 219.431 89.8556 219.264 91.192C217.924 101.56 222.463 109.988 228.502 112.568C234.051 114.924 243.174 111.802 247.348 110.506C254.548 108.277 261.621 99.239 255.847 97.148Z" fill="#007993"/>
<path d="M220.615 86.7684C221.839 89.0725 226.389 91.8259 229.103 90.9907C231.262 90.3398 231.99 87.0507 232.515 85.1959C233.041 83.3411 233.78 80.7605 233.324 78.8251C232.92 77.097 231.245 75.2422 229.859 76.5671C228.93 77.4542 228.272 78.4392 227.365 79.3723C225.327 76.6132 222.267 70.6168 218.294 70.899C214.605 71.164 216.66 76.7744 217.342 78.5659C218.392 81.3077 219.218 84.1879 220.615 86.7684Z" fill="url(#paint1_linear)"/>
<path d="M226.689 90.7599C228.323 90.6274 229.951 88.9397 229.53 86.4743C229.235 85.1245 228.67 83.8479 227.87 82.7206C227.069 81.5934 226.049 80.6386 224.87 79.9134C223.683 79.2859 222.71 78.3192 222.076 77.137C221.406 75.7257 219.651 71.6706 218.715 70.7086C217.78 69.7466 215.638 70.4724 215.724 72.4943C215.883 74.9306 216.397 77.3309 217.249 79.6197C218.101 82.0291 219.198 84.3453 220.523 86.5319C221.493 87.9144 224.183 90.9673 226.689 90.7599Z" fill="url(#paint2_linear)"/>
<path d="M222.833 95.4146C222.833 95.4146 223.624 93.0472 223.803 92.4596C224.074 93.2027 224.732 95.8294 224.732 95.8294L232.365 96.0137L232.556 88.8307L219.068 85.5071L216.181 92.7131L222.833 95.4146Z" fill="#A6E3ED"/>
<path d="M298.517 31.8905C293.239 28.2385 283.072 25.2144 272.534 23.6015C261.956 22.2882 251.35 22.4495 245.276 24.5001C232.717 28.7799 231.037 69.6199 235.42 78.8074C241.107 90.7368 257.805 99.717 261.835 100.276C266.76 100.961 284.885 97.9716 293.534 87.6032C300.064 79.7866 309.424 39.4306 298.517 31.8905Z" fill="url(#paint3_linear)"/>
<path d="M267.799 69.5106C263.896 68.1166 260.328 69.1823 259.081 71.8147C257.833 74.4471 261.269 76.0023 264.595 76.8606C258.544 74.1591 263.319 68.4622 267.799 69.5106Z" fill="#FFC680"/>
<path d="M264.595 76.8778L267.799 69.5105C263.319 68.4621 258.544 74.159 264.595 76.8778Z" fill="#FFDEAF"/>
<path d="M275.583 50.5772C279.012 49.0219 285.433 49.2926 288.285 50.1855C285.109 47.8987 278.29 47.1844 275.583 50.5772Z" fill="url(#paint4_linear)"/>
<path d="M247.931 63.7273C246.839 62.7414 246.065 61.4547 245.705 60.0298C245.346 58.6048 245.419 57.1056 245.913 55.7217C246.408 54.3377 247.303 53.1312 248.485 52.2545C249.667 51.3778 251.082 50.8704 252.553 50.7963C254.024 50.7223 255.484 51.0849 256.749 51.8384C258.013 52.592 259.025 53.7025 259.657 55.0297C260.289 56.357 260.512 57.8413 260.298 59.2951C260.085 60.7488 259.444 62.1068 258.457 63.1973C257.131 64.6597 255.278 65.537 253.304 65.6364C251.33 65.7358 249.398 65.0491 247.931 63.7273V63.7273Z" fill="url(#paint5_linear)"/>
<path d="M257.868 62.6906C256.981 63.6686 255.823 64.3623 254.541 64.6839C253.258 65.0054 251.909 64.9404 250.664 64.4971C249.418 64.0538 248.333 63.2521 247.544 62.1933C246.755 61.1345 246.299 59.8662 246.233 58.5487C246.167 57.2312 246.494 55.9237 247.172 54.7916C247.851 53.6594 248.851 52.7534 250.045 52.188C251.24 51.6227 252.576 51.4235 253.884 51.6155C255.192 51.8075 256.414 52.3822 257.395 53.2669C258.046 53.8545 258.575 54.5644 258.952 55.3561C259.328 56.1478 259.545 57.0057 259.589 57.8808C259.633 58.756 259.503 59.6312 259.208 60.4565C258.913 61.2817 258.458 62.0409 257.868 62.6906Z" fill="white"/>
<path d="M248.578 60.7321C247.989 60.2016 247.57 59.5087 247.375 58.7409C247.181 57.973 247.219 57.1649 247.485 56.4186C247.75 55.6723 248.232 55.0215 248.869 54.5484C249.506 54.0754 250.269 53.8014 251.062 53.7611C251.854 53.7207 252.641 53.9159 253.323 54.322C254.005 54.728 254.55 55.3266 254.891 56.042C255.231 56.7575 255.351 57.5576 255.236 58.3412C255.121 59.1247 254.775 59.8566 254.242 60.4441C253.525 61.2242 252.529 61.6917 251.469 61.7456C250.41 61.7995 249.371 61.4355 248.578 60.7321V60.7321Z" fill="url(#paint6_linear)"/>
<path d="M250.212 56.8956C250.098 57.0213 249.949 57.1104 249.785 57.1518C249.62 57.1932 249.446 57.1849 249.286 57.128C249.126 57.0712 248.986 56.9683 248.885 56.8323C248.783 56.6964 248.724 56.5335 248.716 56.3641C248.707 56.1948 248.748 56.0267 248.835 55.8809C248.922 55.7352 249.05 55.6184 249.203 55.5452C249.357 55.472 249.528 55.4458 249.697 55.4698C249.865 55.4939 250.022 55.5671 250.149 55.6802C250.233 55.7557 250.302 55.8471 250.351 55.9491C250.4 56.0512 250.428 56.1618 250.434 56.2748C250.44 56.3877 250.423 56.5007 250.385 56.6073C250.347 56.7138 250.288 56.8118 250.212 56.8956Z" fill="white"/>
<path d="M264.075 79.3203C261.448 79.015 256.315 79.4298 253.411 78.4851C254.046 82.3617 256.188 87.7533 263.457 88.6C270.727 89.4468 274.191 84.7061 275.582 81.0657C272.522 81.3076 266.708 79.6256 264.075 79.3203Z" fill="url(#paint7_linear)"/>
<path d="M264.341 81.0369C259.6 80.5069 255.045 79.5219 253.411 78.4851C253.647 80.5415 257.141 84.6946 263.804 85.478C270.467 86.2614 274.843 83.0184 275.554 81.0657C273.336 81.659 269.075 81.6129 264.341 81.0369Z" fill="url(#paint8_linear)"/>
<path d="M264.555 86.4109C262.955 86.3187 261.795 86.0652 261.789 86.2035C261.783 86.3417 262.944 86.8141 264.531 86.9005C266.119 86.9869 267.661 86.6643 267.58 86.4166C267.54 86.2899 266.154 86.4915 264.555 86.4109Z" fill="#FFDCD1"/>
<path d="M258.394 83.8709C261.731 85.5229 265.529 86.0019 269.173 85.2303C268.596 84.6082 266.564 85.1036 263.769 84.7004C261.384 84.3605 259.34 83.6117 258.394 83.8709Z" fill="white"/>
<path d="M257.949 81.0599C261.961 82.2291 266.144 82.7026 270.317 82.4597C270.626 82.4712 270.931 82.3819 271.185 82.2053C271.439 82.0286 271.629 81.7742 271.725 81.4804C269.259 81.4989 266.793 81.3507 264.346 81.0369C261.699 80.7609 259.075 80.297 256.494 79.6487C256.577 79.9977 256.757 80.3159 257.015 80.5659C257.273 80.8159 257.597 80.9873 257.949 81.0599V81.0599Z" fill="white"/>
<path d="M288.383 29.4255C279.186 41.9252 261.824 52.8465 239.981 53.5435C225.754 53.9928 213.71 55.8476 213.386 60.2772C210.69 43.1809 219.16 31.9024 227.244 22.231C237.204 10.267 250.53 4.70844 261.858 2.1221C275.871 -1.08058 286.109 4.00569 290.728 10.7279C298.724 9.80623 307.535 19.0283 310.78 27.2597C315.4 38.9529 324.222 55.8879 318.823 74.9197C318.408 70.9567 303.038 64.3094 297.91 56.5619C292.477 48.319 287.437 36.2168 288.383 29.4255Z" fill="url(#paint9_linear)"/>
<path d="M301.594 55.3461C294.729 45.6632 289.815 39.7071 288.366 24.241C288.245 26.1476 288.187 27.9678 288.181 29.7074L288.383 29.4309C287.436 36.2222 292.477 48.3244 297.927 56.5673C303.055 64.3148 318.425 70.9678 318.841 74.9251C320.226 65.1788 306.565 62.3563 301.594 55.3461Z" fill="#5E3113"/>
<path d="M236.349 50.7787C220.638 51.7176 213.802 55.2429 213.386 60.2658C213.71 55.8534 225.754 53.9814 239.981 53.5321C261.8 52.8351 279.186 41.9137 288.383 29.4141C273.931 43.5381 252.06 49.8513 236.349 50.7787Z" fill="#5E3113"/>
<path d="M275.895 67.6443C274.803 66.6584 274.028 65.3717 273.669 63.9468C273.31 62.5218 273.382 61.0226 273.877 59.6387C274.371 58.2547 275.266 57.0482 276.448 56.1715C277.63 55.2948 279.046 54.7874 280.517 54.7133C281.988 54.6392 283.448 55.0019 284.712 55.7554C285.976 56.5089 286.988 57.6195 287.62 58.9467C288.252 60.274 288.475 61.7583 288.262 63.212C288.048 64.6658 287.407 66.0238 286.42 67.1143C285.764 67.8391 284.972 68.4278 284.088 68.8467C283.203 69.2656 282.245 69.5066 281.268 69.5558C280.29 69.605 279.312 69.4615 278.39 69.1335C277.468 68.8055 276.62 68.2995 275.895 67.6443V67.6443Z" fill="url(#paint10_linear)"/>
<path d="M285.849 66.6073C284.962 67.5854 283.803 68.2791 282.521 68.6006C281.239 68.9222 279.89 68.8572 278.644 68.4139C277.399 67.9706 276.313 67.1688 275.525 66.11C274.736 65.0512 274.28 63.7829 274.213 62.4654C274.147 61.148 274.474 59.8405 275.153 58.7083C275.831 57.5761 276.831 56.6701 278.026 56.1048C279.22 55.5395 280.556 55.3402 281.865 55.5322C283.173 55.7243 284.394 56.2989 285.375 57.1836C286.027 57.7712 286.556 58.4812 286.932 59.2729C287.309 60.0646 287.525 60.9225 287.569 61.7976C287.613 62.6727 287.484 63.5479 287.189 64.3732C286.893 65.1985 286.438 65.9576 285.849 66.6073Z" fill="white"/>
<path d="M276.541 64.6494C275.953 64.1186 275.535 63.4255 275.341 62.6579C275.147 61.8902 275.186 61.0825 275.452 60.3367C275.718 59.5909 276.2 58.9405 276.836 58.4679C277.473 57.9952 278.236 57.7215 279.028 57.6812C279.821 57.6409 280.607 57.836 281.289 58.2417C281.97 58.6474 282.516 59.2456 282.856 59.9605C283.197 60.6755 283.318 61.4752 283.203 62.2585C283.088 63.0419 282.743 63.7736 282.211 64.3614C281.494 65.1433 280.497 65.6119 279.436 65.6658C278.374 65.7197 277.335 65.3545 276.541 64.6494Z" fill="url(#paint11_linear)"/>
<path d="M278.175 60.8129C278.061 60.9385 277.912 61.0277 277.747 61.069C277.583 61.1104 277.409 61.1021 277.249 61.0453C277.089 60.9884 276.949 60.8855 276.848 60.7495C276.746 60.6136 276.687 60.4507 276.678 60.2814C276.67 60.1121 276.711 59.9439 276.798 59.7982C276.885 59.6524 277.013 59.5356 277.166 59.4624C277.32 59.3893 277.491 59.3631 277.66 59.3871C277.828 59.4111 277.985 59.4843 278.112 59.5975C278.196 59.6729 278.265 59.7643 278.314 59.8664C278.363 59.9684 278.391 60.0791 278.397 60.192C278.403 60.3049 278.386 60.418 278.348 60.5245C278.31 60.6311 278.251 60.7291 278.175 60.8129V60.8129Z" fill="white"/>
<path d="M135.156 84.9939C135.156 84.9939 138.724 82.9951 141.294 74.4642C141.126 67.143 129.111 73.4331 129.111 73.4331V83.0354L135.156 84.9939Z" fill="url(#paint12_linear)"/>
<path d="M10.8557 230.002C10.8557 233.867 30.9085 237 55.6496 237C80.3907 237 100.449 233.867 100.449 230.002C100.449 226.137 80.3907 223.009 55.6496 223.009C30.9085 223.009 10.8557 226.137 10.8557 230.002Z" fill="#B9BAB2"/>
<path d="M11.8022 122.39C11.8022 122.39 2.88152 123.461 0.831787 129.515C0.831787 129.515 2.45425 136.761 10.2837 138.029L18.3671 128.369L11.8022 122.39Z" fill="url(#paint13_linear)"/>
<path d="M67.907 220.065L65.5974 230.169L71.1981 230.463L71.5734 228.205L74.0273 230.382C74.0273 230.382 83.9584 230.779 91.4818 230.255C91.4818 230.255 90.8293 226.742 85.806 226.54C85.806 226.54 77.4801 225.278 75.7537 220.78L67.907 220.065Z" fill="#433131"/>
<path d="M27.3512 222.791L24.3604 232.71L29.9264 233.389L30.4576 231.154L32.7671 233.499C32.7671 233.499 42.6463 234.57 50.187 234.559C50.187 234.559 49.777 231.01 44.7826 230.469C44.7826 230.469 36.5606 228.643 35.146 224.006L27.3512 222.791Z" fill="#433131"/>
<path d="M9.31372 120.713C9.31372 120.713 32.034 97.4362 61.2268 97.4362H98.3241C98.3241 97.4362 114.127 99.1182 124.665 77.4368C124.665 77.4368 129.717 82.3906 140.254 84.349C140.254 84.349 117.424 107.632 95.9106 107.632C95.9106 107.632 98.9881 115.667 94.4902 136.249C94.4902 136.249 82.5209 147.377 41.4743 134.457L42.7965 109.688C42.7965 109.688 27.8653 116.122 19.9839 130.143L9.31372 120.713Z" fill="#BABBB4"/>
<path d="M66.1289 221.488L71.9028 157.187C63.1611 157.999 57.1274 156.824 57.1274 156.824L37.2421 225.837L25.6943 224.109C35.6428 187.209 41.2839 135.719 41.4802 134.308C82.342 147.107 94.4672 136.185 94.4672 136.185L77.9423 221.707L66.1289 221.488Z" fill="#2D2D2D"/>
<path d="M170.555 31.3377L168.28 15.6987L140.369 38.2442L119.918 41.2107L122.384 58.1688L130.629 57.0455L130.877 76.7858C131.039 77.8745 132.858 79.7465 133.949 79.5853L136.605 79.4067C137.696 79.2454 139.879 76.7973 139.723 75.7086L137.858 56.1239L142.835 55.185L176.058 69.1074L173.777 53.4627C176.41 51.6828 173.569 32.3457 170.555 31.3377Z" fill="#FF5C00"/>
<path d="M115.9 50.4793C116.379 53.7684 121.327 55.8018 123.25 55.7615L121.437 43.3367C119.583 43.8666 115.42 47.1845 115.9 50.4793Z" fill="#FF5C00"/>
<path d="M165.532 43.4455C167.674 58.1629 172.166 69.6948 175.567 69.1994C178.968 68.7041 179.99 56.3772 177.842 41.6599C175.694 26.9425 171.214 15.4048 167.796 15.8944C164.378 16.384 163.39 28.7166 165.532 43.4455Z" fill="#AA3A02"/>
<path d="M125.767 78.3582L127.667 70.1499L131.42 65.6857C132.97 65.567 134.499 65.2515 135.97 64.7468C135.97 64.7468 137.05 67.5578 133.083 68.5659C133.066 69.2365 132.91 69.8963 132.624 70.5033C132.337 71.1102 131.927 71.651 131.42 72.0911C131.42 72.0911 133.464 77.955 130.958 81.4169C128.354 80.0863 127.956 79.9423 125.767 78.3582Z" fill="url(#paint14_linear)"/>
<path d="M79.2352 96.2495L92.3073 124.071L87.4572 136.271L78.7964 127.015L79.2352 96.2495Z" fill="#007993"/>
<path d="M79.1202 96.2495L75.0149 106.042L63.011 97.5052L79.1202 96.2495Z" fill="white"/>
<path d="M86.3833 102.477L85.5518 95.8755L78.7964 96.3651L86.3833 102.477Z" fill="white"/>
<path d="M88.1908 9.76001C88.1908 9.76001 39.5169 -18.7876 26.1445 21.7643C26.1445 21.7643 -7.81755 29.5003 8.76508 68.4508C8.76508 68.4508 22.6686 97.7991 52.8892 98.5998C52.8892 98.5998 55.4124 84.5391 48.4087 81.924C48.4087 81.924 37.3632 75.8124 47.7562 70.1386C47.7562 70.1386 51.1455 66.1064 48.0853 58.791C48.0853 58.791 42.0689 41.3375 33.5409 34.3561C42.8253 31.4869 51.5001 26.9352 59.1308 20.9291C59.1308 20.9291 68.6981 12.5825 88.1908 22.0811C88.1908 22.0811 82.9943 14.1435 78.1558 10.6298C81.4614 9.9932 84.8246 9.70169 88.1908 9.76001V9.76001Z" fill="url(#paint15_linear)"/>
<path d="M81.8628 109.078L75.8464 103.962L79.1202 96.2495L84.4611 100.892L81.8628 109.078Z" fill="#007993"/>
<path d="M184.055 49.3447C183.935 49.3454 183.817 49.3198 183.708 49.2698C183.602 49.2242 183.507 49.1581 183.427 49.0752C183.347 48.9922 183.285 48.8943 183.243 48.787C183.202 48.6797 183.182 48.5652 183.186 48.4503C183.189 48.3354 183.216 48.2223 183.264 48.1178C184.14 46.2806 184.462 44.229 184.192 42.2124C183.921 40.1959 183.069 38.3012 181.739 36.7586C181.655 36.6787 181.588 36.5826 181.542 36.4763C181.496 36.3699 181.471 36.2553 181.47 36.1394C181.47 36.0234 181.492 35.9085 181.537 35.8014C181.581 35.6944 181.647 35.5973 181.73 35.5161C181.813 35.4349 181.911 35.3712 182.02 35.3288C182.128 35.2863 182.243 35.266 182.359 35.2691C182.476 35.2722 182.59 35.2985 182.696 35.3466C182.801 35.3947 182.896 35.4635 182.975 35.549C184.537 37.3404 185.546 39.5454 185.878 41.8968C186.21 44.2481 185.851 46.6451 184.846 48.7975C184.784 48.9574 184.676 49.0951 184.535 49.1928C184.394 49.2904 184.226 49.3433 184.055 49.3447V49.3447Z" fill="#727270"/>
<path d="M189.996 50.98C189.877 50.9802 189.758 50.9546 189.65 50.9051C189.544 50.8589 189.449 50.7924 189.37 50.7094C189.29 50.6264 189.228 50.5285 189.187 50.4214C189.146 50.3144 189.126 50.2002 189.129 50.0855C189.132 49.9708 189.158 49.8578 189.205 49.7531C193.356 40.3755 187.294 34.0047 187.034 33.7397C186.954 33.6584 186.892 33.5622 186.849 33.4567C186.807 33.3512 186.786 33.2384 186.787 33.1247C186.789 33.011 186.812 32.8987 186.857 32.7942C186.902 32.6897 186.967 32.5951 187.048 32.5157C187.13 32.4362 187.226 32.3736 187.332 32.3313C187.438 32.2891 187.551 32.268 187.665 32.2693C187.779 32.2707 187.891 32.2944 187.996 32.3391C188.101 32.3839 188.196 32.4487 188.275 32.5301C190.387 34.9543 191.749 37.9374 192.196 41.118C192.642 44.2985 192.155 47.5401 190.793 50.4501C190.726 50.6063 190.616 50.7398 190.474 50.834C190.332 50.9281 190.166 50.9789 189.996 50.98Z" fill="#727270"/>
<path d="M197.987 54.7013C197.868 54.7014 197.75 54.6759 197.641 54.6264C197.536 54.5802 197.441 54.5137 197.361 54.4306C197.282 54.3476 197.22 54.2498 197.178 54.1427C197.137 54.0356 197.117 53.9214 197.12 53.8067C197.123 53.692 197.149 53.579 197.196 53.4743C203.594 39.022 194.234 29.2066 193.83 28.7918C193.746 28.7119 193.679 28.6159 193.633 28.5095C193.586 28.4031 193.562 28.2885 193.561 28.1726C193.56 28.0566 193.583 27.9417 193.628 27.8346C193.672 27.7276 193.738 27.6305 193.821 27.5493C193.904 27.4681 194.002 27.4044 194.11 27.362C194.218 27.3195 194.334 27.2992 194.45 27.3023C194.566 27.3054 194.681 27.3317 194.787 27.3798C194.892 27.4279 194.987 27.4967 195.066 27.5822C195.176 27.6916 205.667 38.6245 198.784 54.1713C198.718 54.3276 198.607 54.461 198.465 54.5552C198.324 54.6494 198.158 54.7001 197.987 54.7013Z" fill="#727270"/>
<path d="M125.767 40.3644L128.464 57.3397L139.313 55.8709L136.98 38.74L125.767 40.3644Z" fill="#AA3A02"/>
<path d="M139.347 64.6028C139.347 64.6028 142.113 68.3008 141.293 74.4643L140.029 77.1889L137.69 76.9412C137.69 76.9412 134.416 70.772 137.055 64.6028H139.347Z" fill="url(#paint16_linear)"/>
<path d="M48.4088 81.9241C48.4088 81.9241 37.3633 75.8125 47.7564 70.1387C47.7564 70.1387 51.1456 66.1066 48.0855 58.7911C48.0855 58.7911 42.0691 41.3377 33.541 34.3563C42.8254 31.4871 51.5003 26.9354 59.1309 20.9292C59.1309 20.9292 68.6983 12.5827 88.1909 22.0813C88.1909 22.0813 96.0319 28.9071 99.5713 33.9128C99.5713 33.9128 121.246 37.1961 107.903 45.4908C107.903 45.4908 126.813 108.957 52.8893 98.6057C52.8951 98.5884 55.4125 84.5393 48.4088 81.9241Z" fill="url(#paint17_linear)"/>
<path d="M107.903 45.4851C106.494 46.2369 105.022 46.8652 103.503 47.3629C103.503 47.3629 104.693 50.7442 108.954 50.099C108.429 47.2305 107.903 45.4851 107.903 45.4851Z" fill="url(#paint18_linear)"/>
<path d="M108.549 52.3796C108.549 52.3796 81.9894 58.6813 74.9741 58.3127C80.6268 67.8688 92.3651 71.8261 100.731 69.6084C109.098 67.3908 108.278 57.4083 108.549 52.3796Z" fill="url(#paint19_linear)"/>
<path d="M83.0696 66.4635C94.9061 62.0108 100.334 64.6605 101.91 69.2169C101.533 69.369 101.147 69.4997 100.755 69.6086C95.3969 71.0198 88.6934 69.9196 83.0696 66.4635Z" fill="url(#paint20_linear)"/>
<path d="M97.2267 59.4937C91.2694 61.22 85.1976 62.525 79.0563 63.3991C77.4616 61.9046 76.0872 60.1921 74.9741 58.3129C80.5863 58.6066 98.7164 54.6321 105.737 53.0308C105.928 55.2542 104.606 57.2588 97.2267 59.4937Z" fill="white"/>
<path d="M87.9654 43.9411C89.1707 43.3327 90.168 42.3814 90.8314 41.2075C91.4948 40.0336 91.7944 38.6898 91.6923 37.3461C91.5902 36.0024 91.0911 34.719 90.258 33.6582C89.4249 32.5975 88.2953 31.807 87.0119 31.3866C85.7285 30.9663 84.349 30.935 83.0478 31.2967C81.7466 31.6584 80.5821 32.397 79.7016 33.4189C78.821 34.4408 78.264 35.7002 78.1008 37.0379C77.9376 38.3756 78.1757 39.7315 78.7849 40.9343C79.6057 42.5446 81.0324 43.765 82.7529 44.3285C84.4734 44.892 86.3476 44.7527 87.9654 43.9411V43.9411Z" fill="url(#paint21_linear)"/>
<path d="M79.4143 40.6175C79.9611 41.6979 80.8168 42.5921 81.8732 43.1872C82.9296 43.7822 84.1392 44.0513 85.3489 43.9603C86.5586 43.8693 87.7141 43.4225 88.6691 42.6762C89.6242 41.9299 90.3359 40.9177 90.7142 39.7678C91.0924 38.6179 91.1203 37.3819 90.7943 36.2161C90.4682 35.0504 89.8029 34.0074 88.8825 33.219C87.962 32.4306 86.8279 31.9323 85.6235 31.7871C84.4191 31.6419 83.1986 31.8564 82.1165 32.4034C81.3983 32.7656 80.7587 33.2654 80.2342 33.8743C79.7097 34.4832 79.3105 35.1892 79.0596 35.952C78.8087 36.7148 78.7108 37.5194 78.7717 38.3199C78.8326 39.1205 79.0509 39.9012 79.4143 40.6175V40.6175Z" fill="white"/>
<path d="M88.116 41.1361C88.765 40.8085 89.3022 40.2963 89.6595 39.6642C90.0168 39.0321 90.1782 38.3085 90.1233 37.5849C90.0684 36.8613 89.7996 36.1702 89.351 35.5989C88.9024 35.0277 88.2941 34.602 87.6029 34.3757C86.9118 34.1493 86.169 34.1325 85.4683 34.3274C84.7676 34.5222 84.1405 34.92 83.6664 35.4703C83.1923 36.0207 82.8924 36.6989 82.8047 37.4193C82.717 38.1397 82.8453 38.8699 83.1735 39.5175C83.6148 40.3849 84.3829 41.0424 85.3094 41.3458C86.2359 41.6493 87.2451 41.5738 88.116 41.1361Z" fill="url(#paint22_linear)"/>
<path d="M87.6076 37.3454C87.6493 37.4457 87.7112 37.5363 87.7896 37.6116C87.868 37.687 87.9611 37.7453 88.0631 37.7831C88.1651 37.8209 88.2738 37.8373 88.3824 37.8312C88.4911 37.8252 88.5973 37.7968 88.6945 37.748C88.7916 37.6991 88.8776 37.6308 88.9471 37.5472C89.0166 37.4637 89.0681 37.3668 89.0983 37.2625C89.1285 37.1582 89.1368 37.0488 89.1228 36.9412C89.1087 36.8335 89.0725 36.73 89.0165 36.6369C88.9136 36.4662 88.7499 36.3405 88.5581 36.2852C88.3663 36.2299 88.1606 36.249 87.9823 36.3386C87.804 36.4283 87.6663 36.5819 87.5968 36.7686C87.5273 36.9554 87.5312 37.1614 87.6076 37.3454V37.3454Z" fill="white"/>
<path d="M74.8356 27.9163C74.9799 27.8814 75.111 27.8058 75.2134 27.6986C75.3158 27.5913 75.3851 27.457 75.413 27.3115C75.5631 26.5108 76.5678 25.4452 77.9651 24.5927C79.6972 23.5328 81.5795 23.072 82.7285 23.4406C82.9218 23.4816 83.1235 23.4484 83.2933 23.3476C83.4631 23.2468 83.5886 23.0858 83.6447 22.8968C83.7008 22.7078 83.6834 22.5046 83.596 22.3278C83.5086 22.151 83.3576 22.0136 83.1731 21.943C81.2851 21.367 78.8254 22.2713 77.1509 23.2909C75.3379 24.3968 74.1139 25.8023 73.8771 27.0523C73.8415 27.2552 73.8867 27.464 74.0032 27.634C74.1197 27.8041 74.2983 27.9219 74.5007 27.9624C74.6143 27.9704 74.7284 27.9547 74.8356 27.9163V27.9163Z" fill="#9E6600"/>
<path d="M288.47 101.601C293.481 103.15 311.646 113.824 310.711 122.545C309.689 132.026 304.36 137.222 297.65 140.309C296.744 137.573 294.602 132.671 293.129 130.742C295.115 129.653 298.938 125.69 299.244 122.896C299.584 119.694 292.217 115.708 290.3 114.492C284.243 110.685 283.441 100.051 288.47 101.601Z" fill="#007993"/>
<path d="M289.244 133.812C288.41 135.051 288.042 136.544 288.204 138.028C288.36 139.67 289.515 142.728 291.923 144.232C293.078 144.946 298.147 146.052 299.088 143.921C299.862 142.158 297.119 141.432 296.109 141.277C296.969 140.505 298.476 140.004 298.955 138.817C299.383 137.757 298.459 136.444 298.043 135.476C297.304 133.748 296.715 132.377 295.156 131.208C292.858 129.497 290.52 131.732 289.244 133.812Z" fill="url(#paint23_linear)"/>
<path d="M292.662 130.2C292.662 130.2 295.48 127.263 296.126 126.744C297.858 128.282 300.745 132.372 300.745 132.372C300.745 132.372 297.951 135.937 298.205 135.672C298.459 135.408 302.31 134.567 302.31 134.567L303.546 138.449C303.546 138.449 298.851 140.419 297.616 140.321C297.021 138.483 294.14 133.075 292.662 130.2Z" fill="#A6E3ED"/>
<defs>
<linearGradient id="paint0_linear" x1="283.88" y1="142.942" x2="283.989" y2="217.439" gradientUnits="userSpaceOnUse">
<stop stop-color="#FFE0B3"/>
<stop offset="1" stop-color="#FFCF95"/>
</linearGradient>
<linearGradient id="paint1_linear" x1="234.791" y1="70.9538" x2="215.753" y2="87.0791" gradientUnits="userSpaceOnUse">
<stop stop-color="#FFE0B3"/>
<stop offset="1" stop-color="#FFAB63"/>
</linearGradient>
<linearGradient id="paint2_linear" x1="2070.34" y1="9133.33" x2="1684.73" y2="9503.8" gradientUnits="userSpaceOnUse">
<stop stop-color="#FFE0B3"/>
<stop offset="1" stop-color="#FFAB63"/>
</linearGradient>
<linearGradient id="paint3_linear" x1="264.811" y1="79.4766" x2="262.103" y2="98.9904" gradientUnits="userSpaceOnUse">
<stop stop-color="#FFE0B3"/>
<stop offset="1" stop-color="#FFC48F"/>
</linearGradient>
<linearGradient id="paint4_linear" x1="275.583" y1="49.4136" x2="288.268" y2="49.4136" gradientUnits="userSpaceOnUse">
<stop stop-color="#664000"/>
<stop offset="1" stop-color="#6B4000"/>
</linearGradient>
<linearGradient id="paint5_linear" x1="249.35" y1="62.2613" x2="258.17" y2="52.4962" gradientUnits="userSpaceOnUse">
<stop stop-color="#FFE0B3"/>
<stop offset="1" stop-color="#FFBD6D"/>
</linearGradient>
<linearGradient id="paint6_linear" x1="-6824.94" y1="3591.05" x2="-6884.66" y2="3657.16" gradientUnits="userSpaceOnUse">
<stop stop-color="#664000"/>
<stop offset="1" stop-color="#6B4000"/>
</linearGradient>
<linearGradient id="paint7_linear" x1="262.656" y1="80.8072" x2="261.619" y2="89.3788" gradientUnits="userSpaceOnUse">
<stop stop-color="#FFA78C"/>
<stop offset="1" stop-color="#F2877A"/>
</linearGradient>
<linearGradient id="paint8_linear" x1="261.542" y1="89.9712" x2="262.398" y2="82.8938" gradientUnits="userSpaceOnUse">
<stop stop-color="#FFA78C"/>
<stop offset="1" stop-color="#ED7A57"/>
</linearGradient>
<linearGradient id="paint9_linear" x1="47002" y1="24946.7" x2="67057.8" y2="27743.5" gradientUnits="userSpaceOnUse">
<stop stop-color="#664000"/>
<stop offset="1" stop-color="#6B4000"/>
</linearGradient>
<linearGradient id="paint10_linear" x1="-5437.94" y1="14320.7" x2="-5437.94" y2="13981" gradientUnits="userSpaceOnUse">
<stop stop-color="#FFE0B3"/>
<stop offset="1" stop-color="#FFBD6D"/>
</linearGradient>
<linearGradient id="paint11_linear" x1="-6419.06" y1="3667.49" x2="-6478.77" y2="3733.6" gradientUnits="userSpaceOnUse">
<stop stop-color="#664000"/>
<stop offset="1" stop-color="#6B4000"/>
</linearGradient>
<linearGradient id="paint12_linear" x1="4039.83" y1="4633.49" x2="4296.89" y2="4633.49" gradientUnits="userSpaceOnUse">
<stop stop-color="#FFE0B3"/>
<stop offset="1" stop-color="#FFCF95"/>
</linearGradient>
<linearGradient id="paint13_linear" x1="1734.02" y1="6610.84" x2="2266.04" y2="6610.84" gradientUnits="userSpaceOnUse">
<stop stop-color="#FFE0B3"/>
<stop offset="1" stop-color="#FFCF95"/>
</linearGradient>
<linearGradient id="paint14_linear" x1="3383.98" y1="5327.82" x2="3569.01" y2="5327.82" gradientUnits="userSpaceOnUse">
<stop stop-color="#FFE0B3"/>
<stop offset="1" stop-color="#FFCF95"/>
</linearGradient>
<linearGradient id="paint15_linear" x1="8795.17" y1="27058.7" x2="21012" y2="27058.7" gradientUnits="userSpaceOnUse">
<stop stop-color="#664000"/>
<stop offset="1" stop-color="#6B4000"/>
</linearGradient>
<linearGradient id="paint16_linear" x1="1940.12" y1="3990.45" x2="1990.94" y2="3990.45" gradientUnits="userSpaceOnUse">
<stop stop-color="#FFE0B3"/>
<stop offset="1" stop-color="#FFCF95"/>
</linearGradient>
<linearGradient id="paint17_linear" x1="18602.8" y1="18756.1" x2="15465.3" y2="29475.7" gradientUnits="userSpaceOnUse">
<stop stop-color="#FFE0B3"/>
<stop offset="1" stop-color="#FFCF95"/>
</linearGradient>
<linearGradient id="paint18_linear" x1="1611.4" y1="1322.17" x2="1662.91" y2="1322.17" gradientUnits="userSpaceOnUse">
<stop stop-color="#FFE0B3"/>
<stop offset="1" stop-color="#FFCF95"/>
</linearGradient>
<linearGradient id="paint19_linear" x1="-15909.2" y1="21722.7" x2="-16012.6" y2="21353.4" gradientUnits="userSpaceOnUse">
<stop stop-color="#FFA78C"/>
<stop offset="1" stop-color="#ED7A57"/>
</linearGradient>
<linearGradient id="paint20_linear" x1="-9280.28" y1="8016.15" x2="-9245.41" y2="8145.75" gradientUnits="userSpaceOnUse">
<stop stop-color="#FFA78C"/>
<stop offset="1" stop-color="#ED7A57"/>
</linearGradient>
<linearGradient id="paint21_linear" x1="5708.54" y1="8568.82" x2="5580.17" y2="8314.33" gradientUnits="userSpaceOnUse">
<stop stop-color="#FFE0B3"/>
<stop offset="1" stop-color="#FFBD6D"/>
</linearGradient>
<linearGradient id="paint22_linear" x1="2939.39" y1="4454.91" x2="2973.09" y2="4521.71" gradientUnits="userSpaceOnUse">
<stop stop-color="#664000"/>
<stop offset="1" stop-color="#6B4000"/>
</linearGradient>
<linearGradient id="paint23_linear" x1="-4817.29" y1="6293" x2="-5002.53" y2="6448.99" gradientUnits="userSpaceOnUse">
<stop stop-color="#FFE0B3"/>
<stop offset="1" stop-color="#FFBD6D"/>
</linearGradient>
</defs>
</svg>
