<svg xmlns="http://www.w3.org/2000/svg" viewBox="0 0 681.57 562.73"><defs><style>.cls-1{isolation:isolate;}.cls-2{fill:#726396;}.cls-16,.cls-2{opacity:0.3;}.cls-3{fill:#ffc27d;}.cls-4{fill:#912610;}.cls-5{fill:#515151;}.cls-6{fill:#213945;}.cls-7{fill:#e6e7e8;}.cls-8{fill:#272526;}.cls-9{fill:#1a2e35;}.cls-10{fill:#345a6f;}.cls-11{fill:#ffa969;}.cls-12{fill:#fff;}.cls-13{fill:#ff8a54;}.cls-14{fill:#ed3e21;}.cls-15{fill:#869ca9;}.cls-16,.cls-17{fill:#232323;}.cls-16{mix-blend-mode:multiply;}.cls-18{fill:#3c2415;}.cls-19{fill:#231f20;}.cls-20{fill:#ed1c24;}.cls-21{fill:#212121;}.cls-22{fill:#b54d2a;}.cls-23{fill:#a32f11;}.cls-24{fill:#c0bebf;}.cls-25{fill:#d82432;}.cls-26{fill:#852913;}.cls-27{fill:#de7540;}.cls-28{fill:#ff9e61;}</style></defs><title>Partnership</title><g class="cls-1"><g id="Layer_2" data-name="Layer 2"><g id="Layer_1-2" data-name="Layer 1"><path class="cls-2" d="M650.1,539c10.58,9.88-33,23.76-293.69,23.76S41.68,549.85,57.55,539c6.38-4.38,130.06-15.77,293.69-15.77S644.45,533.69,650.1,539Z"/><path class="cls-3" d="M99.44,367.22c.45,1,4-1.37,7.59,1.57,7.52,6.19,18.22,18.23,21.87,10.73.71-1.48,2.09,4.75,2.21,5,0,0,.45,1.7.54,2.4.12,1,.17,3.44.17,3.44,8,3.82,11.54-21.79,8-30.66-.78-1.94,0,0-1.36-1.49-.42-.56-3.54-4.95-4-5.47-4.8-5-6.76-5.87-12.93-3.88C109.85,351.23,97.83,363.5,99.44,367.22Z"/><path class="cls-4" d="M72.35,379.25l12.86-15a17.2,17.2,0,0,1,24.23-1.87l16.4,14a17.22,17.22,0,0,1,1.88,24.24l-12.86,15a17.21,17.21,0,0,1-24.24,1.87l-16.4-14A17.21,17.21,0,0,1,72.35,379.25Zm31.71-10.6a8.92,8.92,0,0,0-12.56,1l-12.86,15a8.91,8.91,0,0,0,1,12.56l16.4,14a8.91,8.91,0,0,0,12.55-1l12.86-15a8.91,8.91,0,0,0-1-12.56Z"/><path class="cls-5" d="M146.36,420.2,63.27,349.05a13,13,0,0,0-18.39,1.42L15.82,384.39,3.14,399.2a13.05,13.05,0,0,0,1.42,18.4l83.09,71.15A13,13,0,0,0,106,487.33l12.69-14.81,29.05-33.92A13.05,13.05,0,0,0,146.36,420.2Z"/><path class="cls-6" d="M145.49,276.27c7.71-11.24,36.66-43.46,36.66-43.46,10.84-8,25.54-3.1,33.54,7.73s2.62,23.14-6.88,32.66c-8.68,8.7-29.08,39.61-29.08,39.61l-27.19,48.77-43.1-20.66S135,291.54,145.49,276.27Z"/><polygon class="cls-7" points="147.92 359.39 144.61 366.68 109.88 350.35 114.06 343.29 147.92 359.39"/><path class="cls-3" d="M113.08,374.71c-1.87,2.47-5,3.22-7,1.68s-2.13-4.77-.25-7.24,5-3.21,7-1.68S115,372.25,113.08,374.71Z"/><path class="cls-3" d="M119.21,380c-1.87,2.46-5,3.21-7,1.68s-2.13-4.78-.25-7.24,5-3.22,7-1.68S121.09,377.5,119.21,380Z"/><path class="cls-3" d="M125.42,386.1c-1.88,2.46-5,3.22-7,1.68s-2.13-4.77-.25-7.24,5-3.21,7-1.68S127.3,383.64,125.42,386.1Z"/><path class="cls-3" d="M107,368.79c-1.88,2.46-5,3.21-7,1.68s-2.12-4.78-.25-7.24,5-3.22,7-1.68S108.9,366.32,107,368.79Z"/><path class="cls-8" d="M195.7,506.57v23.57h22.64l1.6-4.47,18.19,4.47a272.8,272.8,0,0,0,42.74,0c2.23-.18,5.07-12.58,0-12.92-12.73-.86-35.72-11.2-35.72-11.2Z"/><path class="cls-9" d="M183.44,355.72l25.94,2.06.3-.18,39.69,11.33-4.08,137s-14.93,4.8-28.07,5.45c-17.59.87-24.66-3.27-24.66-3.27s-5.62-79.15-7.28-90.07C177.1,364.46,183.44,355.72,183.44,355.72Z"/><path class="cls-8" d="M148.09,518.13v18.69l8.09,3.43,2.92-1.7s9.11,4.26,14.75,7.47c9.08,5.17,32.44,10.07,42.78,8.67,3.57-.48,13.16-8,10.16-10-23.56-15.44-36-27.7-36-27.7Z"/><path class="cls-8" d="M559.11,515.05v21.77L551,540.25l-2.92-1.7S539,542.81,533.35,546c-9.08,5.17-32.44,10.07-42.78,8.67-3.57-.48-13.16-8-10.16-10,23.56-15.44,36-27.7,36-27.7Z"/><path class="cls-6" d="M149.09,367.09l25.74,3.81.32-.16,38.82,14L200.62,521.17s-15.23,3.78-28.38,3.54c-17.61-.33-24.38-4.94-24.38-4.94s-.24-79.35-1.16-90.36C142.17,375.38,149.09,367.09,149.09,367.09Z"/><path class="cls-9" d="M145.49,410.91c-.64-11-1.07-22.6-.84-29.34.23-3.36,21.1-18.47,21.1-18.47l.31-.15,83,14s-.31,19.36-1,33.91c-.87.11,0,0-1.5,0-1.31,0-6.15-9.12-6.15-9.12l-4.74,9.43C204.53,411.68,153,413.76,145.49,410.91Z"/><path class="cls-10" d="M256.11,274.35c-2.66-28-37.05-51.88-64.88-48.07l-1.92.26c-27.83,3.81-42.78-2.29-46.65,52.47-1.61,22.56-4.16,116.5-4.16,116.5,4.56,3.32,60.5,3.19,94.45,2.84l9-16.08,5.54,15.9L256,398S262.08,337,256.11,274.35Z"/><path class="cls-10" d="M427.81,306.34c10.65-8.52,32.79-39,32.79-39A24.37,24.37,0,0,0,453,233.71c-11.39-7.18-16.75-6.52-32.06,9.26l-29.4,30.58-48.6,25.63,23.16,40.69S413.35,317.9,427.81,306.34Z"/><path class="cls-11" d="M331.6,355.52c-10.52,2-7.43-12.76-9.74-16.31s2.57-3.31-.22-6.23c-1.95-2-2,.28-4.36-2.39-3.86-4.35,7.57-8.61,6.49-9.6,0,0-4.92-1.44-5.51-2.06-6.08-6.39,20.3-10.95,28.08-5.38,1.7,1.22,3.59,4.85,4.72,6.53.44.54,4,4.6,4.36,5.21,3.73,5.84,4.11,7.95.73,13.48C351.09,349.48,335.58,354.77,331.6,355.52Z"/><polygon class="cls-7" points="345.31 303.39 338.36 307.33 357.51 340.76 364.19 336.56 345.31 303.39"/><path class="cls-8" d="M494,509.76v23.56H471.37l-1.6-4.46-18.18,4.46a272.9,272.9,0,0,1-42.75,0c-2.23-.17-4.9-12.71,0-12.91,12.75-.55,35.72-11.2,35.72-11.2Z"/><path class="cls-6" d="M558.89,359.29l-25.74,3.81-.31-.15-85.66,14.16s-.76,39.84-2.35,53.39c-.92,8-.27,78.71-.27,78.71s14.43,5.32,27.59,5.08c17.61-.33,21.86-4.53,21.86-4.53s.66-88,7.48-89.16c6.45.61,8.31,98.08,8.31,98.08a98.15,98.15,0,0,0,25.95,3.54c17.61-.32,24.37-4.93,24.37-4.93s.24-84.67,1.16-95.68C565.81,367.59,558.89,359.29,558.89,359.29Z"/><path class="cls-9" d="M497.52,403.48l8.56,10.86c16.11-.64,46.25-1.88,56.2-5.64.64-11.05.72-19.69.49-26.43-.23-3.36-.48-6.93-.74-10.67-1.16-10-3.06-12.31-3.06-12.31l-25.74,3.81-.32-.15-85.66,14.16s-.33,17.62-1,33.41c7.46,1,26.69,3.27,44,3.87Z"/><path class="cls-10" d="M497.44,386.11,506,402.29c17.62-.71,52.06-2.12,58.45-6.78,0,0-6.54-93.94-8.14-116.5-3.87-54.76-18.82-48.66-46.65-52.47l-1.93-.26c-27.82-3.81-62.21,20.12-64.87,48.07C436.9,337,443,398,443,398s25.16,3.55,47.22,4.3Z"/><path class="cls-10" d="M601.94,284.81c-5.2-12.6-26.82-50.14-26.82-50.14-8.94-10.07-24.35-8.33-34.42.6s-9,23.32-.05,33.38l20.21,44.78,15.24,53.66,45.54-10.88S609,301.93,601.94,284.81Z"/><path class="cls-12" d="M454.47,191.1l-.23,43c-.1,20.39,43,73.83,43,73.83s43-51.42,43.15-72.33l.23-44.06Z"/><path class="cls-13" d="M462.45,197.94l-.19,35c-.08,16.59,19.18,24.6,32.42,24.68l5.06,0c13.23.07,32.57-6.47,32.67-23.49l.18-35.86Z"/><polygon class="cls-14" points="510.19 290.13 500.93 278.21 507.67 266.6 497.03 257.66 486.39 266.6 493.13 278.21 483.86 290.13 497.27 307.94 510.19 290.13"/><polygon class="cls-7" points="540.65 235.69 497.03 256.94 453.41 235.69 475.96 278.02 497.03 259.01 518.09 278.02 540.65 235.69"/><polygon class="cls-15" points="549.61 220.16 564.46 253.08 546.76 260.65 552.71 283.1 497.27 307.94 549.61 220.16"/><polygon class="cls-15" points="444.45 220.16 429.59 253.08 447.3 260.65 441.6 283.5 497.27 307.94 444.45 220.16"/><path class="cls-16" d="M502.05,256.28c22.81,0,52-7,71.3-23.36-8.58-7.62-21.65-6.21-31,1-7.73-6.08-18.53-5.46-32.66-7.4l-1.93-.26c-15.75-2.16-33.61,4.58-46.62,15.91a24.35,24.35,0,0,0-8.15-8.48c-10-6.33-15.4-6.56-27,4.28,18.57,12.28,42.47,18.28,61.79,18.29Z"/><path class="cls-11" d="M406,94.17l-.05,88.89c0,42.11,49,62.25,82.56,62.27h12.88c33.58,0,82.6-16.82,82.63-60l0-91L483.86,48.43Z"/><path class="cls-17" d="M404.73,138.81l-.05-49.12c0-43,50-63.5,84.23-63.53H502c34.26,0,84.27,17.16,84.3,61.23l0,51.32c-21.36,0-28.4-37.39-28.4-37.39s-24.45,9-62.46,9c-39.74,0-63.35-8.23-63.35-8.23S431,138.81,404.73,138.81Z"/><path class="cls-18" d="M472.14,166.53h0a4.39,4.39,0,0,1-4.39-4.4,11.95,11.95,0,0,0-11.95-12,12.07,12.07,0,0,0-12,12,4.39,4.39,0,0,1-8.78-.1,20.92,20.92,0,0,1,20.75-20.69h0a20.74,20.74,0,0,1,20.73,20.76A4.39,4.39,0,0,1,472.14,166.53Z"/><path class="cls-18" d="M549.61,166.57a4.38,4.38,0,0,1-4.39-4.39,12,12,0,0,0-12-12h0a12.11,12.11,0,0,0-12,12,4.39,4.39,0,0,1-8.78-.11,20.92,20.92,0,0,1,20.74-20.68h0A20.77,20.77,0,0,1,554,162.18,4.38,4.38,0,0,1,549.61,166.57Z"/><path class="cls-19" d="M525.32,193.77l-60.12,0c3.06,20.28,15.34,31.48,30.05,31.49,15.83,0,28.87-13,30.62-36.27C525.74,190.6,525.56,192.21,525.32,193.77Z"/><path class="cls-12" d="M464.47,183.8V184c0,.72,0,1.43,0,2.13,0,.19,0,.38,0,.57,0,.69,0,1.36.1,2l0,.32c.06.76.13,1.5.21,2.23a.43.43,0,0,0,0,.11c.08.79.18,1.57.29,2.33v0l60.12,0c.24-1.56.42-3.17.55-4.82,0-.06,0-.11,0-.16,0-.75.1-1.51.13-2.28,0-.11,0-.21,0-.32,0-.77.05-1.56.05-2.36Z"/><path class="cls-20" d="M495.24,226.22c10.64,0,20-5.85,25.56-16.76-2.87-4.78-20.37-3.52-25.18,6.79-5.35-10.13-22.19-10.67-25.73-6.45C475.45,220.48,484.72,226.21,495.24,226.22Z"/><path class="cls-11" d="M422,162.15a17.7,17.7,0,0,1-17.71,17.69h0a17.7,17.7,0,0,1-17.69-17.71v-15a17.71,17.71,0,0,1,17.71-17.69h0A17.71,17.71,0,0,1,422,147.13Z"/><path class="cls-11" d="M567.9,162.23a17.69,17.69,0,0,0,17.68,17.71h0a17.69,17.69,0,0,0,17.71-17.69v-15a17.7,17.7,0,0,0-17.69-17.71h0a17.69,17.69,0,0,0-17.71,17.69Z"/><path class="cls-13" d="M405.92,146.78a7.63,7.63,0,0,0-1.61-.2,7,7,0,0,0-7,7v5.36a7,7,0,0,0,7,7,7.1,7.1,0,0,0,1.61-.2Z"/><path class="cls-13" d="M585.6,146.69a6.86,6.86,0,0,0-2.68.54v18.23a7,7,0,0,0,9.66-6.43v-5.36A7,7,0,0,0,585.6,146.69Z"/><path class="cls-6" d="M501.4,322.84a4.38,4.38,0,1,1-4.37-4.37A4.38,4.38,0,0,1,501.4,322.84Z"/><path class="cls-6" d="M501.4,344.13a4.38,4.38,0,1,1-4.37-4.38A4.37,4.37,0,0,1,501.4,344.13Z"/><path class="cls-6" d="M501.4,367.09a4.38,4.38,0,1,1-4.37-4.38A4.37,4.37,0,0,1,501.4,367.09Z"/><polygon class="cls-15" points="551.86 364.67 554.48 372.01 522.98 376.93 520.8 369.74 551.86 364.67"/><polygon class="cls-15" points="448.32 364.67 445.7 372.01 477.2 376.93 479.38 369.74 448.32 364.67"/><path class="cls-21" d="M620.9,440H599.31a17.21,17.21,0,0,1-17.19-17.19V403a17.21,17.21,0,0,1,17.19-17.19H620.9A17.21,17.21,0,0,1,638.09,403v19.77A17.21,17.21,0,0,1,620.9,440Zm-21.59-45.87A8.92,8.92,0,0,0,590.4,403v19.77a8.92,8.92,0,0,0,8.91,8.9H620.9a8.91,8.91,0,0,0,8.9-8.9V403a8.92,8.92,0,0,0-8.9-8.91Z"/><rect class="cls-4" x="535.06" y="404.7" width="135.49" height="90.26" rx="13.05" ry="13.05"/><path class="cls-22" d="M681.57,417.75a13,13,0,0,0-13.05-13.05H559.13a13.05,13.05,0,0,0-13,13.05v44.66H681.57Z"/><path class="cls-23" d="M559.13,495H668.52a13,13,0,0,0,13.05-13v-19.5H546.08v19.5A13.05,13.05,0,0,0,559.13,495Z"/><rect class="cls-24" x="571.78" y="454.31" width="9.98" height="16.67"/><rect class="cls-24" x="645.99" y="454.31" width="9.98" height="16.67"/><path class="cls-11" d="M625.34,396c-3.79,1.85-2.72-1.89-5.34-1.83-2.87.06-1.55,4.79-4.42,4.44-2.54-.3-2-3.76-5.36-3.32-2.67.35-.59,2.74-4.8,3.19s-1.78-3.78-5.65-2.63c-2.71.82-.66,1.91-4.11,2.81-5.63,1.47-4.24-10.65-5.61-10.14,0,0-1.45,1-2,1.48-.73.67-2.37,2.5-2.37,2.5-8.52-2.27-.55-23,7.94-27.47,1.86-1,6-1,8-1.24.68-.15,5.91-1.46,6.63-1.53,6.89-.67,8.94-.06,12.34,5.47C627.83,377.11,629,394.25,625.34,396Z"/><polygon class="cls-7" points="580.81 365.96 584.02 373.43 620.11 364.67 616.74 357.38 580.81 365.96"/><path class="cls-12" d="M244.51,191.1l.22,43c.11,20.39,0,56.8,0,56.8s-86.06-34.39-86.17-55.3l-.23-44.06Z"/><path class="cls-13" d="M240.51,196.61l.18,35c.09,16.59-19.18,24.6-32.41,24.68l-5.07,0c-13.22.06-32.56-6.48-32.66-23.5L170.36,197Z"/><polygon class="cls-7" points="165.81 235.01 228.12 250.98 238.93 239.91 239.01 257.66 228.73 252.86 217.63 268.14 165.81 235.01"/><polygon class="cls-14" points="228.73 252.86 222.49 261.45 231.02 265.02 230.04 276.26 240.69 283.27 240.11 268.88 235.11 263.4 236.19 256.34 228.73 252.86"/><polygon class="cls-15" points="187.56 358.21 186.26 365.54 217.76 370.46 218.61 363.28 187.56 358.21"/><path class="cls-10" d="M222.53,338.5c-12.52-5.41-41.92-29-41.92-29a24.37,24.37,0,0,1-1.5-34.44c9.1-9.93,14.44-10.71,33.37.48l36.41,21.75,53.64,11.92-11.62,45.36S239.52,345.84,222.53,338.5Z"/><path class="cls-6" d="M168.54,300c-6-6.3-5.9-15.9-7-17.5-6.41,13.16,5.72,26.3,10.15,30.36,0,0,38.24,20.24,50.75,25.65,17,7.34,68.39,16.08,68.39,16.08l1.82-7.1c-13.63-2.43-54.81-10.12-70.19-16.76C208.79,324.81,178.27,310.24,168.54,300Z"/><path class="cls-3" d="M337.85,355.75c2.12-3.78-8.89-5-8.75-6.06.28-2.08,15.62,5.85,17.81-.08,2-5.37-15.51-6.32-14.63-8.85.71-2,17,7.36,19,1.19,1.83-5.65-17-8-16-10.65.41-1.11,10.61,3.84,12,.46C350.93,323,307.87,312,302.17,320c-1.24,1.76-1.86,5.93-2.39,7.93-.25.68-2.32,5.82-2.49,6.54-1.67,6.93-4.57,6.86.58,11.1,2.71,2.77,11,6.51,16.17,8.46C325.16,358.19,335.64,359.66,337.85,355.75Z"/><polygon class="cls-7" points="301.71 312.43 309.31 314.21 299.4 353.18 291.73 351.04 301.71 312.43"/><polygon class="cls-15" points="152.52 225.88 145.85 244.47 168.25 269.8 196.63 275.89 195.4 288.87 244.78 292.31 257.18 266.28 249.98 256.45 250.8 247.1 237.62 236.34 240.69 283.27 152.52 225.88"/><path class="cls-16" d="M238,242.32c-13-11.4-31-18.21-46.78-16l-1.92.26c-11.69,1.6-21.11,1.46-28.39,4.8l-8.4-5.46-6.67,18.58,1.06,1.2a122.45,122.45,0,0,0,40.82,10.13l14.67.87a132.78,132.78,0,0,0,48.1-6.23l.3-3.33-13.18-10.76Z"/><path class="cls-3" d="M117.34,89.75l-5.22,87.61c-2.46,41.51,44.66,64.2,77.77,66.17l12.69.75c33.1,2,82.39-11.78,84.93-54.36l5.34-89.73Z"/><path class="cls-18" d="M178.64,164.92a4.33,4.33,0,0,1-3.5-1.77,15.73,15.73,0,0,0-11.35-6,18.81,18.81,0,0,0-14.46,4.65,4.33,4.33,0,0,1-5.89-6.36,27.29,27.29,0,0,1,21.18-6.92A24.41,24.41,0,0,1,182.13,158a4.34,4.34,0,0,1-.93,6.06A4.29,4.29,0,0,1,178.64,164.92Z"/><path class="cls-18" d="M258.87,169.69a4.32,4.32,0,0,1-3.5-1.77A15.74,15.74,0,0,0,244,162a18.9,18.9,0,0,0-14.46,4.65,4.33,4.33,0,0,1-5.89-6.36,27.32,27.32,0,0,1,21.18-6.92,24.41,24.41,0,0,1,17.5,9.45,4.33,4.33,0,0,1-3.48,6.9Z"/><path class="cls-25" d="M205.21,218.51c-13,0-27-2.7-34.51-7.67-5.61-3.7-6.58-7.87-6.41-10.72a4,4,0,0,1,7.94.47c-.08,1.38,1.5,2.72,2.85,3.6,10.43,6.89,39.09,8.59,50.26,3,1.43-.72,3.16-1.86,3.25-3.23a4,4,0,1,1,7.94.47c-.17,2.85-1.63,6.87-7.63,9.88C223.19,217.16,214.43,218.51,205.21,218.51Z"/><path class="cls-26" d="M116.36,82.66c1.57-28.95,24.64-44.79,49.73-51.49-8.91-16.67-22-20.91-13.46-20.44,14,.75,33.85,18.18,34.26,15.88C190.22,8.06,221-5.82,216.28,2.44c-3.36,5.9-7,17.7-9.2,25.25l7.41.41c33.39,1.81,81,24.44,78.74,66.3l-2.72,50.13s-3-40.59-33.32-42.22c-23.34-1.25-28.76,22.5-56.77,21s-29.59-25.64-55.26-27c-29.39-1.57-31.54,36.84-31.64,38.65Z"/><path class="cls-27" d="M113.52,134.94v0Z"/><path class="cls-3" d="M129.21,157.69a17.48,17.48,0,0,1-18.49,16.41h0a17.49,17.49,0,0,1-16.4-18.49l.88-14.8a17.47,17.47,0,0,1,18.48-16.41h0a17.48,17.48,0,0,1,16.41,18.49Z"/><path class="cls-3" d="M273,166.24a17.48,17.48,0,0,0,16.41,18.48h0a17.47,17.47,0,0,0,18.48-16.4l.88-14.81A17.47,17.47,0,0,0,292.37,135h0a17.47,17.47,0,0,0-18.48,16.41Z"/><path class="cls-28" d="M114.25,141.6a6.79,6.79,0,0,0-1.58-.28,6.89,6.89,0,0,0-7.28,6.46l-.31,5.29a6.89,6.89,0,0,0,6.46,7.28,7,7,0,0,0,1.6-.1Z"/><path class="cls-28" d="M291.36,152a6.84,6.84,0,0,0-2.68.37l-1.06,18a6.87,6.87,0,0,0,9.89-5.78l.32-5.28A6.88,6.88,0,0,0,291.36,152Z"/><path class="cls-11" d="M337.13,314.65c.71,2.82-3.56,6.32-9.55,7.83s-11.4.44-12.11-2.38,3.56-6.33,9.55-7.84S336.43,311.83,337.13,314.65Z"/><path class="cls-11" d="M310.05,349.09c-.74,2.52-3,4.08-5,3.48s-3-3.11-2.3-5.63,3-4.07,5-3.48S310.8,346.58,310.05,349.09Z"/><path class="cls-11" d="M316.17,351.71c-.74,2.51-3,4.07-5,3.48s-3-3.12-2.29-5.63,3-4.08,5-3.48S316.91,349.19,316.17,351.71Z"/><path class="cls-11" d="M322.38,354.4c-.56,2.56-2.68,4.27-4.73,3.82s-3.25-2.89-2.69-5.45,2.68-4.27,4.73-3.82S322.94,351.84,322.38,354.4Z"/><path class="cls-11" d="M329,356.56c-.56,2.56-2.67,4.28-4.72,3.82s-3.26-2.89-2.69-5.45,2.68-4.27,4.72-3.82S329.53,354,329,356.56Z"/><path class="cls-6" d="M246.37,344.13a4.38,4.38,0,1,1-4.38-4.38A4.38,4.38,0,0,1,246.37,344.13Z"/><path class="cls-6" d="M246.37,367.09a4.38,4.38,0,1,1-4.38-4.38A4.38,4.38,0,0,1,246.37,367.09Z"/><path class="cls-10" d="M144.68,263.35C150,259.35,167.35,236,218,278s12.66,31.33,12.66,31.33S170.68,294,166,284s-8.67-18-15.34-14.67S144.68,263.35,144.68,263.35Z"/></g></g></g></svg>