<svg width="66" height="70" viewBox="0 0 66 70" fill="none" xmlns="http://www.w3.org/2000/svg">
<path d="M37.2964 19.0246C37.2964 19.0246 38.2895 17.5147 39.5298 18.1608C41.5468 19.2142 40.9019 21.5844 40.9019 21.5844L40.4383 20.531C40.4383 20.531 41.0564 22.1989 40.0778 23.3401L40.1808 22.2428C40.1808 22.2428 39.4082 23.8229 38.0175 23.9985C36.6268 24.174 36.4208 24.174 36.2663 24.8763C36.1118 25.5786 37.2429 26.0456 36.8844 25.9965C35.6235 25.8209 35.7512 24.4602 35.7512 24.4602L35.5452 25.4469C35.5452 25.4469 33.9485 22.8134 34.0515 21.5844C34.1099 20.8537 34.375 20.1459 34.8241 19.5214L34 19.7848C34 19.7848 36.4723 16.4349 37.2964 19.0246Z" fill="#333333"/>
<path d="M37.394 23.3738C37.9009 22.3326 38.6715 21.1694 36.8697 20.0923C36.5791 19.9127 35.8922 20.0528 35.619 20.0402C35.4295 20.0402 35.4074 20.2592 35.2369 20.2897C34.466 20.4469 33.7726 20.9202 33.2882 21.62C33.2882 21.62 34.4299 23.5946 31.038 26.1187C30.6416 26.4131 33.4714 31.4521 33.7509 29.5869C34.6984 23.2356 37.0892 23.9986 37.394 23.3738Z" fill="#EABFA5"/>
<path d="M34.5324 20.0124C34.5324 20.0124 35.2079 19.8534 35.9607 20.6726C35.9787 20.6908 35.9911 20.7123 35.9966 20.7353C36.0022 20.7583 36.0008 20.7821 35.9926 20.8046C35.9844 20.827 35.9697 20.8475 35.9496 20.8641C35.9296 20.8808 35.9049 20.8931 35.8777 20.9001C35.3999 21.0259 34.8878 21.033 34.405 20.9208C33.4245 20.6328 34.5324 20.0124 34.5324 20.0124Z" fill="#D84744"/>
<path d="M36 21C36 21 35.5665 20.3308 35.1027 20.2624C35.1027 20.2624 35.5247 20.4634 35.0811 20.4815C35.0811 20.4815 34.9544 20.381 35.0177 20.2122C35.0575 20.1519 35.0998 20.0962 35.1445 20.0454C35.1727 20.0112 35.208 19.9954 35.2433 20.0012C35.4191 20.0232 35.5862 20.1311 35.7217 20.31C35.8572 20.4889 35.9544 20.7299 36 21V21Z" fill="#EEF9F9"/>
<path d="M33.7622 22.8715C33.895 24.2337 33.1718 27.2285 33 27.9154L33.0687 28L34.515 27.197C35.1742 24.2934 36.2331 23.4489 37 23.0856C36.7095 22.9445 36.4112 22.7952 36.1128 22.6393C34.3167 21.6985 33.834 21 33.834 21C33.834 21 34.287 21.7383 33.7622 22.8715Z" fill="#D8A98F"/>
<path d="M37.8179 22.0115C37.8179 22.0115 38.1637 22.1281 37.9022 22.6307C37.6407 23.1334 36.8303 23.1494 37.0319 22.5141C37.2334 21.8788 37.8179 22.0115 37.8179 22.0115Z" fill="#EABFA5"/>
<path d="M37 20.0993C37 20.0993 37.7749 19.5588 38 21C37.9268 20.7057 37.7882 20.4565 37.6066 20.293C37.4251 20.1295 37.2113 20.0612 37 20.0993Z" fill="#822A2A"/>
<path d="M37 20.0493C37 20.0493 38.103 19.6729 37.9922 21C37.939 20.7152 37.8104 20.4638 37.629 20.29C37.4476 20.1161 37.2249 20.0309 37 20.0493V20.0493Z" fill="#333333"/>
<path d="M36.1308 20.3333L36 20.1226C36 20.1226 36.0579 19.8628 36.4089 20.0995C36.595 20.2414 36.8027 20.2728 37 20.189L36.3576 21L36.1308 20.3333Z" fill="#F7CAB2"/>
<path d="M35 20.3732L35.3591 20.066C35.3919 20.0363 35.4314 20.0157 35.474 20.0061C35.5166 19.9965 35.5608 19.9982 35.6026 20.0111C35.6444 20.024 35.6823 20.0476 35.7129 20.0798C35.7435 20.1119 35.7657 20.1516 35.7774 20.195L36 21C35.7401 20.6856 35.3896 20.4659 35 20.3732V20.3732Z" fill="#D8A98F"/>
<path d="M37 22.5008C37 22.5008 38.5988 22.3555 38.7587 21.5351C39.181 21.431 39.5673 21.2607 39.8906 21.0359C40.3862 20.6913 39.0369 22.9414 39.0369 22.9414C39.0369 22.9414 38.7171 22.5312 37.2782 23L37 22.5008Z" fill="#333333"/>
<path d="M39.8843 2.20834C40.085 2.59849 40.6504 2.52425 41.0311 2.23677C41.1955 2.10891 41.3208 1.93757 41.3928 1.74215C41.4649 1.54673 41.4807 1.33505 41.4386 1.13108C41.2807 0.137546 40.1134 -0.290513 39.0298 0.210205C37.6461 0.859401 37.3034 2.18938 37.2655 3.36931C37.2465 3.95058 37.4976 5.01204 36.6115 5.28057C36.0524 5.44958 35.7712 4.98993 35.6496 4.61873C35.569 4.36916 35.5801 3.98691 35.975 3.89214C36.3698 3.79737 36.6336 4.22858 36.1598 4.21911C36.1835 4.35653 36.2056 4.49395 36.2293 4.63137L36.3114 4.58872C36.6273 4.43077 36.3446 4.06273 36.0366 4.22069L35.9544 4.26334C35.9111 4.28313 35.8755 4.31668 35.8532 4.35878C35.8309 4.40087 35.823 4.44915 35.831 4.49614C35.8389 4.54312 35.8621 4.58618 35.897 4.61863C35.9319 4.65108 35.9765 4.6711 36.0239 4.6756C36.3951 4.6756 36.8864 4.58556 37.0001 4.20173C37.1059 3.84159 36.7505 3.50041 36.3841 3.42617C36.1654 3.39123 35.9413 3.41829 35.7372 3.50428C35.5331 3.59027 35.3572 3.73176 35.2294 3.91267C34.934 4.34705 35.1125 4.84461 35.351 5.21738C35.4654 5.42146 35.6415 5.58401 35.8541 5.68165C36.0667 5.77929 36.3048 5.80698 36.5341 5.76075C36.7794 5.72675 37.0122 5.6321 37.2117 5.48536C37.4111 5.33863 37.5707 5.14445 37.6761 4.92043C37.9004 4.40391 37.7914 3.83528 37.8072 3.3156C37.8294 2.60954 37.9178 1.81661 38.4643 1.20058C38.9666 0.633525 39.9491 0.137546 40.5999 0.660377C40.7047 0.750047 40.7887 0.861525 40.846 0.987023C40.9033 1.11252 40.9325 1.24902 40.9316 1.38697C40.9393 1.52183 40.9068 1.65593 40.8384 1.77238C40.8005 1.82609 40.4372 2.08829 40.4072 2.03617C40.2761 1.7787 39.7596 1.94929 39.8923 2.20834H39.8843Z" fill="#E5A920"/>
<path d="M44.3907 7.66089L43.4951 4.99145L43.2092 4.13849L42.32 1.46747C42.2786 1.39155 42.2118 1.33264 42.1313 1.30106C42.0508 1.26948 41.9617 1.26725 41.8797 1.29476C41.7978 1.32228 41.7281 1.37777 41.6829 1.45152C41.6378 1.52527 41.6201 1.61256 41.6328 1.69808L41.6423 1.72967C41.0064 1.93257 40.4551 2.33952 40.0738 2.88748C39.8084 3.27442 39.6295 3.71405 39.5494 4.1764C39.4404 4.86034 38.8971 5.47479 38.1278 5.73068L38.0789 5.74805C37.5973 5.91509 37.0728 5.91063 36.5941 5.73542L36.0823 5.53639C35.8474 5.45251 35.5906 5.45251 35.3557 5.53639L35.7301 6.65156L36.016 7.50451L36.3887 8.61968C36.6261 8.543 36.8297 8.38679 36.9653 8.1774L37.2543 7.70354C37.5306 7.27526 37.9463 6.95553 38.4311 6.79845L38.4801 6.78266C39.2446 6.52677 40.0486 6.68947 40.5477 7.16965C40.8905 7.48947 41.2976 7.73235 41.7418 7.88203C42.3769 8.08865 43.0623 8.08088 43.6926 7.85991L43.7036 7.8915C43.745 7.96742 43.8118 8.02633 43.8923 8.05791C43.9728 8.08949 44.0619 8.09172 44.1439 8.06421C44.2258 8.0367 44.2955 7.9812 44.3407 7.90745C44.3858 7.8337 44.4035 7.74641 44.3907 7.66089Z" fill="#E5A920"/>
<path d="M39.5589 5.38949C39.8211 5.12413 40.265 4.51758 40.5177 4.22694C40.9048 3.80369 41.3873 3.4788 41.9251 3.27921C41.993 3.25236 43.6389 7.92783 43.71 7.90414L42.1304 3.20339L42.1225 3.1797C42.083 3.05965 42.2031 2.91118 42.3942 2.84799C42.5853 2.78481 42.7685 2.82904 42.8096 2.94909L42.32 1.46747C42.2786 1.39155 42.2118 1.33264 42.1313 1.30106C42.0508 1.26948 41.9617 1.26725 41.8797 1.29476C41.7978 1.32228 41.7281 1.37777 41.6829 1.45152C41.6378 1.52527 41.6201 1.61256 41.6328 1.69808L41.6423 1.72967C41.0064 1.93257 40.4551 2.33952 40.0738 2.88748C39.8084 3.27442 39.6295 3.71405 39.5494 4.1764C39.4404 4.86034 38.8971 5.47479 38.1278 5.73068L38.0789 5.74805C37.5973 5.91509 37.0728 5.91063 36.5941 5.73542L36.0823 5.53639C35.8474 5.45251 35.5906 5.45251 35.3557 5.53639L35.7269 6.64208C36.1036 6.55302 36.4856 6.4876 36.8705 6.44621C36.8705 6.44621 39.1261 5.82861 39.5589 5.38949Z" fill="#C68D1A"/>
<path d="M42.004 8.5346C41.9282 8.10338 42.4289 7.82696 42.9012 7.82064C43.1111 7.82257 43.3162 7.8838 43.4928 7.99726C43.6695 8.11073 43.8104 8.27182 43.8995 8.46194C44.3733 9.35123 43.7052 10.4 42.5331 10.648C41.0357 10.9639 39.9616 10.1078 39.2161 9.18853C38.8449 8.73678 38.4121 7.73693 37.5433 8.05284C36.9952 8.25502 37.0474 8.79207 37.1737 9.15852C37.259 9.40651 37.4896 9.69873 37.8719 9.54393C38.2541 9.38914 38.1878 8.88052 37.815 9.17432L37.6223 8.8047L37.7139 8.78733C38.0567 8.72888 38.0567 9.18695 37.7139 9.24698L37.6223 9.26277C37.5758 9.27312 37.5271 9.2678 37.4839 9.24763C37.4406 9.22746 37.4053 9.19357 37.3833 9.15124C37.3613 9.1089 37.354 9.06049 37.3623 9.01354C37.3707 8.96658 37.3944 8.9237 37.4296 8.89158C37.7203 8.66254 38.172 8.44299 38.4942 8.6815C38.8165 8.92001 38.7185 9.3923 38.469 9.67188C38.3159 9.83166 38.121 9.94525 37.9065 9.99971C37.6921 10.0542 37.4666 10.0473 37.2559 9.97989C36.7567 9.81088 36.6004 9.30542 36.5656 8.86472C36.5339 8.63282 36.5766 8.39683 36.6876 8.19076C36.7986 7.98468 36.9721 7.81914 37.1832 7.71797C37.4 7.59709 37.6436 7.5322 37.8918 7.52916C38.14 7.52613 38.3851 7.58505 38.6048 7.70059C39.0945 7.97702 39.3504 8.49037 39.6757 8.90106C40.1196 9.45232 40.6677 10.032 41.4748 10.1931C42.2172 10.3511 43.2992 10.1473 43.503 9.33859C43.5338 9.20389 43.5344 9.06403 43.5046 8.92909C43.4748 8.79415 43.4155 8.6675 43.3308 8.55829C43.2554 8.44643 43.1489 8.35912 43.0244 8.30714C42.9628 8.28661 42.511 8.29135 42.5221 8.35611C42.5711 8.64043 42.0577 8.81576 42.0072 8.52828L42.004 8.5346Z" fill="#E5A920"/>
<path d="M40.6806 4.19682C40.6806 4.19682 40.5731 4.02781 40.6711 3.90144C40.769 3.77508 41.0597 3.80193 41.0581 3.80825C40.9038 3.90679 40.7746 4.03981 40.6806 4.19682Z" fill="#EFB135"/>
<path d="M41.0027 4.08635C40.9053 4.14277 40.7981 4.18028 40.6868 4.19692C40.7786 4.04078 40.905 3.90783 41.0564 3.80835C41.0564 3.80835 41.1132 3.99632 41.0027 4.08635Z" fill="#FCC34F"/>
<path d="M40.6899 4.22388C40.7028 4.32504 40.7543 4.4173 40.8337 4.48134C40.9206 4.51896 41.0164 4.53155 41.1101 4.51767C40.9912 4.39246 40.8483 4.29253 40.6899 4.22388Z" fill="#FCC34F"/>
<path d="M41.0201 4.23484C40.9705 4.20505 40.9142 4.1884 40.8564 4.18647C40.7987 4.18453 40.7414 4.19738 40.6899 4.22378C40.8483 4.29244 40.9912 4.39237 41.1101 4.51758C41.1165 4.46674 41.1117 4.41513 41.0962 4.36631C41.0806 4.3175 41.0546 4.27264 41.0201 4.23484Z" fill="#EFB135"/>
<path d="M41.1036 4.15109C41.1036 4.15109 41.0404 3.9568 41.1715 3.88098C41.3026 3.80516 41.5948 3.95048 41.5901 3.9568C41.4132 3.97587 41.245 4.04307 41.1036 4.15109Z" fill="#EFB135"/>
<path d="M41.4592 4.18266C41.3398 4.19196 41.2196 4.18128 41.1038 4.15107C41.2451 4.04305 41.4134 3.97585 41.5903 3.95679C41.5903 3.95679 41.5966 4.14791 41.4592 4.18266Z" fill="#FCC34F"/>
<path d="M41.1051 4.17969C41.0923 4.28195 41.1201 4.38518 41.1825 4.46717C41.2604 4.53543 41.3528 4.58512 41.4526 4.61248C41.3627 4.44922 41.2451 4.30279 41.1051 4.17969Z" fill="#FCC34F"/>
<path d="M41.4369 4.32168C41.3957 4.27483 41.3445 4.23776 41.2871 4.21317C41.2297 4.18858 41.1676 4.17708 41.1052 4.17952C41.2452 4.30262 41.3628 4.44905 41.4527 4.61232C41.4736 4.56615 41.483 4.51565 41.4803 4.46507C41.4775 4.41449 41.4627 4.36531 41.4369 4.32168Z" fill="#EFB135"/>
<path d="M38.875 9.12972C38.875 9.12972 38.8624 8.92912 39.0187 8.91806C39.1751 8.907 39.4405 9.17395 39.4357 9.18026C39.257 9.11223 39.063 9.09474 38.875 9.12972Z" fill="#EFB135"/>
<path d="M39.2367 9.31759C39.1087 9.27049 38.9871 9.20733 38.875 9.12962C39.063 9.09464 39.257 9.11213 39.4357 9.18017C39.4273 9.22464 39.4017 9.26399 39.3644 9.28971C39.3272 9.31543 39.2813 9.32545 39.2367 9.31759Z" fill="#FCC34F"/>
<path d="M38.8687 9.15479C38.8476 9.20033 38.8367 9.24992 38.8367 9.3001C38.8367 9.35029 38.8476 9.39988 38.8687 9.44542C38.9346 9.54391 39.0169 9.63044 39.1119 9.70131C39.0601 9.50749 38.978 9.32305 38.8687 9.15479Z" fill="#FCC34F"/>
<path d="M39.1751 9.43279C39.1109 9.3054 39.0017 9.20635 38.8687 9.15479C38.9785 9.32295 39.0611 9.50739 39.1135 9.70131C39.1493 9.66778 39.1743 9.6243 39.1853 9.57646C39.1963 9.52862 39.1927 9.47859 39.1751 9.43279Z" fill="#EFB135"/>
<path d="M39.8796 5.27729C39.8272 5.27396 39.7777 5.25238 39.7396 5.21631C39.7015 5.18024 39.6773 5.13195 39.6711 5.07985C39.6526 4.90778 39.6903 4.73435 39.7785 4.58545C39.7773 4.81983 39.8113 5.05306 39.8796 5.27729Z" fill="#EFB135"/>
<path d="M39.9506 4.83502C39.9458 4.98442 39.924 5.13279 39.8858 5.27729C39.8176 5.05306 39.7835 4.81983 39.7847 4.58545C39.8318 4.60887 39.8719 4.64425 39.901 4.68805C39.9301 4.73185 39.9472 4.78253 39.9506 4.83502Z" fill="#FCC34F"/>
<path d="M39.9033 5.2867C39.9033 5.2867 40.0455 5.38464 40.1418 5.29776C40.2083 5.21428 40.2582 5.11884 40.2887 5.0166C40.1358 5.06538 40.0014 5.15959 39.9033 5.2867Z" fill="#FCC34F"/>
<path d="M40.0549 4.91888C39.9286 4.97733 39.897 5.28534 39.897 5.28692C39.995 5.15981 40.1294 5.06559 40.2824 5.01682C40.2824 5.01682 40.1734 4.85886 40.0549 4.91888Z" fill="#EFB135"/>
<path d="M40.0345 4.7717C39.9861 4.74873 39.9453 4.71216 39.9173 4.66645C39.8892 4.62073 39.8751 4.56784 39.8766 4.51423C39.9012 4.36273 39.9847 4.22707 40.1088 4.13672C40.0482 4.34265 40.0231 4.55736 40.0345 4.7717Z" fill="#EFB135"/>
<path d="M40.208 4.41957C40.1665 4.54292 40.1081 4.65988 40.0343 4.76707C40.0232 4.55379 40.0483 4.34017 40.1085 4.13525C40.1462 4.1715 40.1749 4.21613 40.1922 4.26553C40.2095 4.31492 40.2149 4.3677 40.208 4.41957Z" fill="#FCC34F"/>
<path d="M40.0535 4.78954C40.0535 4.78954 40.1688 4.93644 40.2857 4.90643C40.4025 4.87641 40.4973 4.73583 40.5005 4.73583C40.3494 4.71053 40.1942 4.72917 40.0535 4.78954Z" fill="#FCC34F"/>
<path d="M40.295 4.54469C40.156 4.54469 40.0486 4.78794 40.0534 4.78952C40.1935 4.72701 40.3487 4.70617 40.5004 4.72949C40.5004 4.72949 40.4246 4.54311 40.295 4.54469Z" fill="#EFB135"/>
<path d="M40.3123 4.40705C40.2734 4.3706 40.2449 4.3245 40.2297 4.27345C40.2144 4.2224 40.2129 4.16822 40.2254 4.11642C40.2823 3.94267 40.5492 3.86685 40.5492 3.87317C40.4363 4.03401 40.3558 4.21537 40.3123 4.40705Z" fill="#EFB135"/>
<path d="M40.5729 4.17158C40.5014 4.26558 40.413 4.3454 40.3123 4.40693C40.3557 4.21525 40.4362 4.03389 40.5492 3.87305C40.5765 3.91737 40.5929 3.96755 40.597 4.01946C40.6011 4.07136 40.5929 4.1235 40.5729 4.17158Z" fill="#FCC34F"/>
<path d="M40.3281 4.43066C40.3281 4.43066 40.4039 4.60757 40.5256 4.62969C40.6164 4.63229 40.7059 4.60811 40.783 4.56019C40.6437 4.4817 40.4879 4.43732 40.3281 4.43066Z" fill="#FCC34F"/>
<path d="M40.6282 4.31229C40.4907 4.257 40.3217 4.42759 40.3281 4.43075C40.4878 4.43741 40.6437 4.48179 40.783 4.56028C40.783 4.56028 40.7593 4.36441 40.6282 4.31229Z" fill="#EFB135"/>
<path d="M38.7708 11.3206C38.7708 11.3206 38.7881 11.5196 38.9413 11.5622C39.0946 11.6049 39.311 11.4043 39.3062 11.4043C39.1236 11.4187 38.9402 11.39 38.7708 11.3206Z" fill="#EFB135"/>
<path d="M39.0946 11.21C38.9808 11.224 38.8708 11.2599 38.7708 11.3158C38.9403 11.3847 39.1238 11.4129 39.3062 11.3979C39.3062 11.3979 39.2367 11.2163 39.0946 11.21Z" fill="#FCC34F"/>
<path d="M38.7615 11.2889C38.7119 11.1999 38.6984 11.0953 38.7236 10.9966C38.7697 10.9141 38.8381 10.8463 38.921 10.8008C38.9012 10.9725 38.8469 11.1385 38.7615 11.2889Z" fill="#FCC34F"/>
<path d="M39.0172 11.0804C38.9825 11.2383 38.7598 11.2952 38.7598 11.2889C38.8446 11.1384 38.8983 10.9724 38.9177 10.8008C38.9537 10.8373 38.9812 10.8813 38.9984 10.9296C39.0155 10.9779 39.022 11.0293 39.0172 11.0804Z" fill="#EFB135"/>
<path d="M39.1357 11.0977C39.1357 11.0977 39.2037 11.2904 39.3537 11.2715C39.5038 11.2525 39.6491 10.9556 39.6428 10.9556C39.4893 11.0468 39.3143 11.0959 39.1357 11.0977Z" fill="#EFB135"/>
<path d="M39.4011 10.8578C39.2995 10.9219 39.2097 11.0031 39.1357 11.0978C39.314 11.097 39.489 11.049 39.6428 10.9588C39.6428 10.9588 39.5322 10.8041 39.4011 10.8578Z" fill="#FCC34F"/>
<path d="M39.12 11.0741C39.049 10.9994 39.0089 10.9007 39.0078 10.7976C39.0298 10.6963 39.0734 10.6009 39.1358 10.5181C39.1634 10.7029 39.1581 10.8911 39.12 11.0741Z" fill="#FCC34F"/>
<path d="M39.2999 10.7596C39.2956 10.8224 39.2772 10.8835 39.246 10.9382C39.2148 10.9928 39.1717 11.0398 39.1199 11.0755C39.158 10.8926 39.1633 10.7043 39.1357 10.5195C39.1803 10.5435 39.2185 10.5778 39.2471 10.6195C39.2757 10.6613 39.2938 10.7094 39.2999 10.7596Z" fill="#EFB135"/>
<path d="M39.4104 10.7267C39.4104 10.7267 39.521 10.8942 39.6521 10.8089C39.7832 10.7236 39.8353 10.3492 39.8274 10.3477C39.7255 10.5096 39.5813 10.6407 39.4104 10.7267Z" fill="#EFB135"/>
<path d="M39.5857 10.3587C39.5121 10.4735 39.4532 10.5972 39.4104 10.7267C39.5813 10.6407 39.7255 10.5096 39.8274 10.3476C39.8108 10.3324 39.7914 10.3207 39.7703 10.313C39.7492 10.3053 39.7267 10.3019 39.7043 10.3029C39.6818 10.3039 39.6598 10.3094 39.6394 10.319C39.6191 10.3285 39.6008 10.342 39.5857 10.3587Z" fill="#FCC34F"/>
<path d="M39.3898 10.7091C39.3452 10.6858 39.3064 10.6529 39.276 10.6127C39.2457 10.5725 39.2247 10.5262 39.2145 10.4769C39.2091 10.3585 39.223 10.2401 39.2556 10.1262C39.3311 10.3121 39.3764 10.5089 39.3898 10.7091Z" fill="#FCC34F"/>
<path d="M39.4673 10.3031C39.4921 10.4434 39.4645 10.5878 39.3899 10.7091C39.3765 10.5089 39.3311 10.3121 39.2556 10.1262C39.3044 10.1316 39.3505 10.1513 39.3881 10.1828C39.4258 10.2142 39.4533 10.2561 39.4673 10.3031Z" fill="#EFB135"/>
<path d="M37.4804 10.9368C37.441 10.9712 37.4148 11.0182 37.4065 11.0699C37.3981 11.1215 37.408 11.1744 37.4346 11.2195C37.5224 11.3684 37.6567 11.4844 37.8168 11.5496C37.6748 11.3632 37.5614 11.1567 37.4804 10.9368Z" fill="#EFB135"/>
<path d="M37.7993 11.2495C37.706 11.1328 37.6001 11.0269 37.4834 10.9336C37.5644 11.1535 37.6778 11.36 37.8198 11.5465C37.8425 11.4995 37.8526 11.4473 37.849 11.3953C37.8454 11.3432 37.8283 11.2929 37.7993 11.2495Z" fill="#FCC34F"/>
<path d="M37.4944 10.9163C37.4944 10.9163 37.5481 10.7583 37.6776 10.7583C37.7811 10.7838 37.8784 10.83 37.9635 10.8941C37.813 10.9489 37.6494 10.9566 37.4944 10.9163Z" fill="#FCC34F"/>
<path d="M37.8372 11.1182C37.6998 11.1467 37.4897 10.9192 37.4945 10.9161C37.6505 10.9589 37.8159 10.9529 37.9683 10.8987C37.9683 10.8987 37.9668 11.093 37.8372 11.1182Z" fill="#EFB135"/>
<path d="M37.9116 11.2478C37.8879 11.2954 37.8783 11.3488 37.8839 11.4017C37.8895 11.4545 37.91 11.5047 37.9431 11.5463C38.0539 11.6511 38.2015 11.7078 38.3538 11.7043C38.1819 11.5779 38.0324 11.4236 37.9116 11.2478Z" fill="#EFB135"/>
<path d="M38.2573 11.4184C38.1514 11.3442 38.0347 11.2866 37.9114 11.2478C38.0319 11.4248 38.1815 11.5802 38.3536 11.7075C38.362 11.6551 38.3576 11.6015 38.3408 11.5511C38.324 11.5008 38.2954 11.4553 38.2573 11.4184Z" fill="#FCC34F"/>
<path d="M37.9114 11.2208C37.9114 11.2208 37.9114 11.0344 38.0251 10.9886C38.1171 10.9677 38.213 10.9715 38.3031 10.9997C38.1961 11.109 38.0603 11.1857 37.9114 11.2208Z" fill="#FCC34F"/>
<path d="M38.2542 11.2716C38.1437 11.3553 37.9099 11.2258 37.9146 11.221C38.063 11.1873 38.1988 11.1123 38.3064 11.0046C38.3064 11.0046 38.3601 11.1926 38.2542 11.2716Z" fill="#EFB135"/>
<path d="M38.3507 11.3694C38.3418 11.4219 38.3469 11.4758 38.3655 11.5257C38.3841 11.5756 38.4155 11.6198 38.4565 11.6537C38.5197 11.6835 38.5888 11.699 38.6587 11.699C38.7286 11.699 38.7976 11.6835 38.8609 11.6537C38.6736 11.5937 38.5002 11.4971 38.3507 11.3694Z" fill="#EFB135"/>
<path d="M38.7015 11.401C38.5876 11.3687 38.4687 11.358 38.3508 11.3694C38.5 11.4964 38.6729 11.5925 38.8594 11.6522C38.8557 11.6006 38.8393 11.5507 38.8118 11.5069C38.7842 11.4631 38.7464 11.4268 38.7015 11.401Z" fill="#FCC34F"/>
<path d="M38.3491 11.341C38.3357 11.2946 38.3321 11.2459 38.3386 11.198C38.3452 11.1501 38.3616 11.1041 38.387 11.063C38.4581 11.0063 38.5444 10.9722 38.635 10.9651C38.5711 11.1114 38.4731 11.2403 38.3491 11.341Z" fill="#FCC34F"/>
<path d="M38.6604 11.2557C38.583 11.3821 38.3445 11.3473 38.3445 11.341C38.4684 11.2403 38.5665 11.1114 38.6304 10.9651C38.6304 10.9651 38.7331 11.1357 38.6604 11.2557Z" fill="#EFB135"/>
<path d="M37.0776 10.0637L35.0315 3.95923L34.0191 4.29857L36.0652 10.403L37.0776 10.0637Z" fill="#846C5D"/>
<path d="M32 4.12621L34.5581 11.7583L36.7986 11.0073L34.2405 3.37524L32 4.12621Z" fill="#846C5D"/>
<path d="M33.0281 5.19436L34.7344 10.2849L35.955 9.8758L34.2487 4.78524L33.0281 5.19436Z" fill="#FCC34F"/>
<path d="M42 32.0664C41.4368 31.9536 40.9342 31.6541 40.5822 31.2215L39.3794 32.8303L38.2675 28.3718C37.9357 27.1132 36.4883 26.1169 35.0909 25.4252C31.9588 26.3053 32.0626 23.6069 32.1256 23.0753C31.5196 19.5972 34.2032 16.6383 36.5495 13.8555L33.9122 13C23.9229 21.6601 23 36.0585 23 36.0585L35.115 37.7659C33.2321 35.6237 35.3633 34.4515 34.2847 34.3318C34.0568 34.3071 34.6128 33.8847 34.6554 33.6875C34.698 33.4904 34.4608 33.3496 34.5164 33.1841C34.7649 32.4172 35.2296 31.7293 35.86 31.1951C35.9305 36.7573 39.6278 38 39.6278 38L42 32.0664Z" fill="#3AC1B0"/>
<path d="M32.8491 27.0222C32.8068 26.9956 32.7587 26.9928 32.7149 27.0145C32.6712 27.0361 32.6352 27.0805 32.6145 27.1383C32.5906 27.2483 32.6564 27.3728 32.7639 27.4184C32.8065 27.4443 32.8546 27.4465 32.8983 27.4245C32.9419 27.4025 32.9778 27.3579 32.9985 27.3001C33.0045 27.2359 32.9923 27.171 32.9644 27.1191C32.9365 27.0672 32.8951 27.0324 32.8491 27.0222V27.0222ZM32.3889 28.7523C32.3894 28.6901 32.3753 28.6293 32.3488 28.579C32.3224 28.5288 32.2849 28.4918 32.242 28.4736C32.1991 28.4554 32.1532 28.4569 32.111 28.478C32.0688 28.4991 32.0326 28.5385 32.0079 28.5905C31.984 28.7004 32.0483 28.8249 32.1574 28.8706C32.1996 28.8947 32.2469 28.896 32.2897 28.8741C32.3326 28.8522 32.368 28.8087 32.3889 28.7523V28.7523ZM32.2963 30.5654C32.1857 30.5654 32.0961 30.6567 32.0961 30.7729C32.0961 30.889 32.1857 30.9803 32.2963 30.9803C32.4069 30.9803 32.495 30.887 32.495 30.7729C32.495 30.6588 32.4009 30.5654 32.2963 30.5654ZM32.1469 32.2354C32.1112 32.2739 32.0855 32.3275 32.0738 32.388C32.062 32.4486 32.0648 32.5128 32.0817 32.571C32.0986 32.6292 32.1287 32.6781 32.1674 32.7104C32.2061 32.7427 32.2514 32.7565 32.2963 32.7499C32.336 32.7166 32.365 32.6633 32.3773 32.6011C32.3895 32.539 32.3841 32.4726 32.362 32.4159C32.3507 32.3523 32.3217 32.2976 32.2814 32.2638C32.241 32.23 32.1927 32.2197 32.1469 32.2354V32.2354ZM31.2296 33.6087C31.2125 33.5937 31.1935 33.5836 31.1737 33.5791C31.1538 33.5746 31.1334 33.5756 31.1139 33.5823C31.0943 33.589 31.0759 33.601 31.0598 33.6178C31.0436 33.6346 31.0301 33.6558 31.0201 33.68C31.01 33.7042 31.0035 33.731 31.0011 33.7588C30.9987 33.7866 31.0003 33.8147 31.0059 33.8416C31.0115 33.8685 31.021 33.8935 31.0338 33.9151C31.0465 33.9368 31.0623 33.9547 31.0802 33.9676C31.0972 33.9826 31.1162 33.9927 31.1361 33.9972C31.1559 34.0018 31.1763 34.0007 31.1958 33.994C31.2154 33.9874 31.2338 33.9753 31.2499 33.9585C31.2661 33.9417 31.2796 33.9206 31.2897 33.8964C31.2997 33.8721 31.3062 33.8453 31.3086 33.8176C31.311 33.7898 31.3094 33.7616 31.3038 33.7347C31.2982 33.7079 31.2887 33.6829 31.2759 33.6612C31.2632 33.6395 31.2474 33.6217 31.2296 33.6087Z" fill="#4ADDC7"/>
<path d="M31.0405 35L31 34.8121C31.3579 34.7126 31.3799 33.8729 31.3579 33.5498V33.5141L31.8137 32.8566L31.8323 32.8453C31.8424 32.8453 32.8452 32.3306 33.0867 32.1484C33.1424 32.077 32.9871 31.5942 32.8723 31.2411C32.6781 30.6362 32.435 29.8829 32.4586 29.2649C32.476 28.9241 32.5626 28.5922 32.7121 28.2941C32.8615 27.996 33.0698 27.7396 33.3213 27.5441L33.0613 26.913L33.1474 26.8791C33.3763 26.7868 33.5949 26.6658 33.7991 26.5185C33.8087 26.5111 33.8166 26.5013 33.8222 26.4899C33.8278 26.4784 33.8309 26.4657 33.8312 26.4527C33.8312 26.355 33.6961 26.2048 33.6303 26.1484L33.7333 26C33.7603 26.0244 33.9983 26.2348 34 26.4508C33.9999 26.4924 33.9912 26.5334 33.9745 26.5705C33.9578 26.6077 33.9336 26.64 33.9038 26.665C33.7135 26.8107 33.5077 26.9294 33.2909 27.0182L33.5374 27.6136L33.4733 27.6587C33.2308 27.8377 33.0286 28.0763 32.8822 28.3561C32.7358 28.6359 32.6493 28.9494 32.6292 29.2724C32.6072 29.8528 32.8436 30.5874 33.0326 31.1772C33.2335 31.8009 33.3551 32.1766 33.1829 32.3043C32.9432 32.4828 32.0687 32.9336 31.9235 33.0069L31.5335 33.5704C31.5385 33.7846 31.5622 34.8554 31.0405 35Z" fill="#39AA99"/>
<path d="M38.9208 34.5398L36.8674 38.4097C34.735 35.527 34.8535 32.8022 34.8535 32.8022C33.9057 37.4224 37.8151 39.7128 37.8151 39.7128L39.5131 35.0531L38.9208 34.5398Z" fill="#39AA99"/>
<path d="M24 35.8012C24.0694 36.3579 24.9104 35.5688 24.9104 35.5688C24.9104 35.5688 25.0512 33.2962 24.9798 33.0179C24.9083 32.7396 24 35.8012 24 35.8012Z" fill="#39AA99"/>
<path d="M33.7385 34.9695C33.6688 34.3269 21.8245 28.4775 34 16.7518C34 16.7518 31.188 17.6833 31.2386 16.9905C31.2882 16.2794 31.5158 15.5936 31.8993 15C29.9241 17.231 26.1009 23.6314 27.1923 28.9711C28.3987 34.9103 31.915 35 31.915 35C31.0734 34.654 30.3392 34.0786 29.7913 33.3355C29.2434 32.5924 28.9024 31.7097 28.8049 30.7821C28.8049 30.7821 29.9607 33.6539 33.7385 34.9695Z" fill="#39AA99"/>
<path d="M32.9797 26.6421C33.115 26.6962 32.5318 26.0965 32.4547 25.7879C32.4008 25.5722 32.4142 25.3409 32.4926 25.1357C32.3787 24.7727 32.3276 24.3866 32.3424 24C32.0203 24.4168 31 25.8293 31 27C31 27 31.5927 25.0323 32.2016 24.8733C32.2043 24.8733 31.9337 26.2253 32.9797 26.6421Z" fill="#39AA99"/>
<path d="M35.0928 31.1134C33.8557 32.8454 32 31.6082 32 31.6082L34.0206 34C34.0206 34 34.5567 32.3918 35.3814 31.6495L36 30C36 30 35.3534 30.7489 35.0928 31.1134Z" fill="#39AA99"/>
<path d="M36.4725 35.4467L37.5782 34.9333L36.0776 35.2887L36.3935 36.7498L36.4725 35.4467Z" fill="#39AA99"/>
<path d="M32.8571 28.5567L32.955 28.3592L33.4889 28.1223L34.1507 28.3687L34.574 29.0005C34.574 29.0005 33.3799 29.0306 33.0545 28.8726C32.7291 28.7146 32.8571 28.5567 32.8571 28.5567Z" fill="#39AA99"/>
<path d="M34 25.9185L34.7495 25.2577L35.0245 27L36 26.5044L35.9498 25.2379L34.772 25L34 25.9185Z" fill="#4ADDC7"/>
<path d="M34.1464 26C34.1464 26 37.3663 28.3335 41 26.9789C41 26.9789 39.513 28.1974 37.78 27.9722C36.0471 27.7471 34.2674 26.708 34 26.1361L34.1464 26Z" fill="#DB7631"/>
<path d="M34 25.7567C34 25.7567 36.347 34.1479 42.6287 27.3302C42.6287 27.3302 43.0703 26.53 42.9903 24.1608C42.9895 24.1318 42.9823 24.1037 42.9694 24.079C42.9565 24.0544 42.9384 24.0341 42.9169 24.0203C42.8954 24.0064 42.8712 23.9994 42.8466 24C42.8221 24.0006 42.7982 24.0088 42.7771 24.0237L40.8527 25.3724C40.8527 25.3724 40.057 30.5806 36.9828 29.1937C34.8242 28.2293 34 25.7567 34 25.7567Z" fill="#B64E00"/>
<path d="M33 25.3122C33 25.3122 33.3953 24.8523 33.6153 25.0489C33.7673 25.2011 33.898 25.396 34 25.6227L33.7365 26C33.5868 25.9762 33.4427 25.9019 33.3151 25.7828C33.1875 25.6636 33.0797 25.5027 33 25.3122Z" fill="#B64E00"/>
<path d="M31.9979 27.7212C32.0089 27.8925 32.0629 28.0582 32.1548 28.2031C32.2467 28.3481 32.3737 28.4675 32.5239 28.5505C32.5239 28.5505 32.933 28.7732 32.7087 28.8127C32.4844 28.8522 32.129 28.5899 31.9711 28.1682C31.8131 27.7465 31.9979 27.7212 31.9979 27.7212Z" fill="#DB7631"/>
<path d="M33.203 26L34 24.7651L32.274 23L32.0153 23.1091C32.0153 23.1091 31.7746 25.4196 33.203 26Z" fill="#4ADDC7"/>
<path d="M34.4654 13.1262L37.1517 14C38.0219 12.9722 38.9482 11.9882 39.9268 11.0521L41.0808 10.8835L41.5216 10.3972H41.8451C41.8451 10.3972 42.0342 10.2519 41.9945 10.1281C41.8526 9.72442 41.5632 9.86975 41.4516 9.65624C41.2416 9.25793 41.0108 8.81297 40.9314 8.63175C40.8084 8.35186 40.816 7.95714 40.3941 8.00378C37.9821 8.27291 38.9753 9.79798 38.3832 10.3219C36.8046 11.2391 35.335 12.3153 34 13.5317C34.1513 13.3989 34.3065 13.2608 34.4654 13.1262Z" fill="#EABFA5"/>
<path d="M42.8999 28H40.5884L40 28.8883C40 28.8883 40.042 29.4311 40.4203 29.5298C40.5884 29.5752 40.6842 29.439 40.7346 29.2771C40.8103 29.8812 41.3835 30.6411 41.5752 30.882L40.8674 32.0525C41.1867 32.5376 41.6426 32.8735 42.1535 33L42.7738 31.0833C43.1941 29.9187 42.8999 28 42.8999 28Z" fill="#EABFA5"/>
<path d="M23.1411 35.6187C23.1411 35.6187 26.6655 32.2082 35.1872 35.2881L34.8274 36.2288C34.8274 36.2288 42.9317 39.8823 45 46.148L33.5493 50.7276L34.6326 54.0048C34.6326 54.0048 34.1763 54.646 33.2766 53.6979C32.377 52.7498 30.7928 49.2206 30.7928 49.2206L39.5316 44.2756C39.5316 44.2756 34.9164 40.1947 29.8394 41.2871C29.8394 41.2871 24.3987 49.3758 26.5876 60.044C26.5876 60.044 26.8028 65.2483 25.2891 64.9907C23.7755 64.7332 24.6696 60.0805 24.6696 60.0805C24.6696 60.0805 19.8708 49.7686 23.1411 35.6187Z" fill="#333333"/>
<path d="M34.4651 12.4059C34.4651 12.4059 35.7596 10.9524 37 13.5465L35.9286 15C35.9286 15 34.7457 13.1855 33 13.7037L34.4651 12.4059Z" fill="#4ADDC7"/>
<path d="M41.0337 32C41.0337 32 41.9663 32.9492 43 32.8461L42.1206 35C42.1206 35 40.6206 35.0261 40 33.0769L41.0337 32Z" fill="#4ADDC7"/>
<path opacity="0.2" d="M31 69C30.2409 67.4153 29.5897 65.7976 29.0492 64.1544C28.5013 62.5095 28.0625 60.8405 27.7032 59.1715L27.4645 57.9105L27.2803 56.6421C27.2099 56.2193 27.1735 55.7946 27.1348 55.37C27.0962 54.9453 27.0416 54.5225 27.0371 54.096C26.9454 52.3949 27.0238 50.6907 27.2712 49L27.178 50.2721C27.1667 50.4835 27.1371 50.6949 27.1371 50.9064V51.5443V52.1803C27.1371 52.3917 27.1371 52.605 27.1371 52.8164L27.2053 54.0867C27.3303 55.7806 27.5693 57.4676 27.9215 59.14C28.2603 60.809 28.7014 62.478 29.2107 64.1173C29.4698 64.9407 29.7427 65.7585 30.0428 66.5726C30.3429 67.3866 30.659 68.197 31 69Z" fill="#333333"/>
<path opacity="0.2" d="M31 66C30.7193 65.3724 30.4769 64.725 30.2607 64.0721C30.0445 63.4193 29.8544 62.752 29.6765 62.0884C29.4987 61.4247 29.3609 60.743 29.2459 60.0595C29.1281 59.3781 29.046 58.6906 29 58C29.0663 58.3408 29.1064 58.6817 29.1744 59.0189L29.2668 59.5275L29.3714 60.0343C29.5144 60.7069 29.6609 61.3796 29.8387 62.0433C30.0166 62.7069 30.1874 63.3724 30.3827 64.0271C30.4792 64.3577 30.5786 64.6871 30.6809 65.0153C30.7803 65.3454 30.8936 65.6718 31 66Z" fill="#333333"/>
<path opacity="0.3" d="M32.5 69.6486C35.4834 69.6486 37.902 69.3997 37.902 69.0926C37.902 68.7856 35.4834 68.5366 32.5 68.5366C29.5165 68.5366 27.0979 68.7856 27.0979 69.0926C27.0979 69.3997 29.5165 69.6486 32.5 69.6486Z" fill="#333333"/>
<g opacity="0.3">
<path opacity="0.3" d="M42.6581 44.2952C42.9851 44.8164 43.29 45.3503 43.5964 45.8842C43.9028 46.4181 44.1903 46.9583 44.4778 47.5001L44.552 47.6422L44.4036 47.7086C43.9834 47.8981 43.5648 48.0908 43.1399 48.2741C42.715 48.4573 42.2949 48.6389 41.8763 48.8174C41.0233 49.1697 40.1688 49.514 39.2937 49.8157C40.104 49.3687 40.9333 48.9659 41.7657 48.5679C42.1827 48.372 42.5997 48.1777 43.0214 47.9897C43.4432 47.8018 43.8633 47.617 44.2851 47.4322L44.2124 47.6391C43.9376 47.0904 43.6696 46.5381 43.4084 45.9821C43.1462 45.4245 42.8919 44.8654 42.6581 44.2952Z" fill="#333333"/>
</g>
<path d="M18.2935 5.37217C17.9192 5.00098 17.6317 4.68033 17.6159 4.12749C17.6017 3.65362 17.7217 3.17976 17.7312 2.69641C17.7312 2.39156 17.2573 2.39156 17.2573 2.69641C17.2463 3.3156 17.0441 3.96005 17.191 4.57292C17.3031 5.04679 17.6254 5.37533 17.9586 5.70862C18.0033 5.75302 18.0637 5.77789 18.1266 5.77774C18.1896 5.77759 18.2499 5.75244 18.2943 5.70783C18.3387 5.66321 18.3636 5.60279 18.3634 5.53984C18.3633 5.47689 18.3381 5.41658 18.2935 5.37217Z" fill="#3AC1B0"/>
<path d="M19.6869 13.6896C19.6253 13.8476 19.3978 13.9802 19.262 14.0719C19.093 14.184 18.9176 14.2851 18.7439 14.3878C18.4833 14.5457 18.7202 14.9564 18.9824 14.7969C19.3947 14.5473 19.9601 14.2898 20.1449 13.8128C20.2539 13.5317 19.7974 13.4084 19.6869 13.6896Z" fill="#3AC1B0"/>
<path d="M10.6484 11.6366C10.4699 11.8624 10.3325 12.1499 10.4905 12.4263C10.6484 12.7027 10.8885 12.687 11.1523 12.7059C11.127 12.9523 10.947 13.2098 10.9217 13.4467C10.9052 13.5516 10.9142 13.6589 10.9481 13.7596C10.9819 13.8602 11.0395 13.9512 11.116 14.0248C11.326 14.2476 11.6609 13.9111 11.4524 13.69C11.2739 13.502 11.5187 13.1308 11.5756 12.9397C11.6294 12.7772 11.6402 12.6037 11.6072 12.4358C11.5964 12.3983 11.5763 12.3641 11.5486 12.3364C11.521 12.3088 11.4868 12.2886 11.4492 12.2778C11.2344 12.232 10.8411 12.33 10.9991 11.9809C11.0891 11.7803 11.5409 11.4059 11.7557 11.6097C11.9705 11.8135 12.3133 11.4849 12.0921 11.2748C11.5993 10.8152 10.9928 11.2006 10.6484 11.6366Z" fill="#3AC1B0"/>
<path d="M48.1788 5.84265L48.2799 5.87425C48.3279 5.88748 48.3789 5.88471 48.4252 5.86635L48.4489 5.87898H48.4583L48.4915 5.91215C48.5364 5.95401 48.5958 5.97679 48.6572 5.97571C48.7186 5.97462 48.7772 5.94976 48.8206 5.90635C48.864 5.86294 48.8889 5.80437 48.8899 5.74299C48.891 5.68161 48.8682 5.6222 48.8264 5.57729C48.7468 5.48827 48.6444 5.42279 48.5302 5.38798C48.416 5.35316 48.2944 5.35035 48.1788 5.37985C48.1271 5.39274 48.0813 5.42251 48.0486 5.46444C48.0158 5.50637 47.998 5.55805 47.998 5.61125C47.998 5.66445 48.0158 5.71612 48.0486 5.75805C48.0813 5.79998 48.1271 5.82976 48.1788 5.84265Z" fill="#3AC1B0"/>
<path d="M48.9021 12.0596C48.6099 12.1717 48.1755 12.3881 47.7964 12.4561C48.0934 12.1401 48.5372 11.8448 48.8358 11.7705C49.1343 11.6963 49.0064 11.2398 48.7094 11.314C48.3303 11.4088 48.065 11.6679 47.7617 11.8969C47.498 12.0627 47.2806 12.2925 47.1299 12.565C47.1119 12.5964 47.1014 12.6314 47.0989 12.6674C47.0965 12.7034 47.1023 12.7395 47.1158 12.7729C47.1293 12.8064 47.1503 12.8363 47.1771 12.8605C47.2039 12.8847 47.2358 12.9025 47.2704 12.9125C47.6511 13.0105 48.0729 12.892 48.4662 12.7435C48.3358 12.8653 48.2178 12.9997 48.1139 13.1447C47.956 13.4164 47.798 13.7497 47.798 14.0688C47.798 14.3878 48.2845 14.3752 48.2719 14.0688C48.2419 13.3059 49.2196 12.9868 49.2054 12.287C49.2051 12.2504 49.1963 12.2143 49.1798 12.1815C49.1632 12.1488 49.1393 12.1203 49.11 12.0983C49.0807 12.0763 49.0466 12.0614 49.0106 12.0547C48.9745 12.0479 48.9374 12.0496 48.9021 12.0596Z" fill="#3AC1B0"/>
<path d="M52.4812 20.9149V19.7555C52.4812 19.6926 52.4562 19.6324 52.4118 19.588C52.3674 19.5435 52.3071 19.5186 52.2443 19.5186C52.1814 19.5186 52.1212 19.5435 52.0767 19.588C52.0323 19.6324 52.0073 19.6926 52.0073 19.7555V20.9149C52.0073 20.9777 52.0323 21.038 52.0767 21.0824C52.1212 21.1268 52.1814 21.1518 52.2443 21.1518C52.3071 21.1518 52.3674 21.1268 52.4118 21.0824C52.4562 21.038 52.4812 20.9777 52.4812 20.9149Z" fill="#3AC1B0"/>
<path d="M54.0341 24.7844C53.9623 24.784 53.8913 24.7994 53.826 24.8294C53.7608 24.8594 53.7029 24.9034 53.6565 24.9582C53.6136 25.0036 53.5896 25.0638 53.5896 25.1264C53.5896 25.189 53.6136 25.2492 53.6565 25.2946C53.7014 25.3382 53.7614 25.3626 53.824 25.3626C53.8865 25.3626 53.9466 25.3382 53.9914 25.2946C54.0006 25.2823 54.0106 25.2707 54.0214 25.2599H54.0341C54.0969 25.2599 54.1572 25.2349 54.2016 25.1905C54.246 25.146 54.271 25.0858 54.271 25.0229C54.271 24.9601 54.246 24.8998 54.2016 24.8554C54.1572 24.811 54.0969 24.786 54.0341 24.786V24.7844Z" fill="#3AC1B0"/>
<path d="M9.87928 28.2802C9.8254 28.1652 9.73168 28.0738 9.61549 28.0227C9.48125 27.9751 9.34178 27.9438 9.20007 27.9295C9.01911 27.884 8.83475 27.8534 8.64881 27.8379C8.34395 27.8379 8.34395 28.3118 8.64881 28.3118C8.83702 28.3322 9.02377 28.3644 9.20797 28.4081C9.33591 28.4271 9.49229 28.4207 9.46701 28.5882C9.437 28.7904 9.69605 29.0273 9.86348 28.8188C9.91651 28.7535 9.96607 28.6855 10.012 28.615C10.0311 28.5854 10.0429 28.5517 10.0464 28.5166C10.0499 28.4816 10.0449 28.4462 10.0319 28.4134C10.0189 28.3806 9.9983 28.3515 9.97175 28.3283C9.9452 28.3051 9.91349 28.2886 9.87928 28.2802Z" fill="#3AC1B0"/>
<path d="M18.1672 22.7469L17.9571 22.9585C17.9131 23.0031 17.8884 23.0633 17.8884 23.1259C17.8884 23.1886 17.9131 23.2488 17.9571 23.2934C18.0021 23.3366 18.0621 23.3608 18.1245 23.3608C18.1869 23.3608 18.2469 23.3366 18.2919 23.2934C18.3614 23.2223 18.4325 23.1528 18.502 23.0833C18.5241 23.0613 18.5417 23.0352 18.5536 23.0064C18.5656 22.9777 18.5719 22.9468 18.5719 22.9156C18.572 22.8845 18.5659 22.8536 18.5541 22.8248C18.5422 22.7959 18.5248 22.7697 18.5028 22.7476C18.4808 22.7256 18.4547 22.708 18.4259 22.696C18.3972 22.684 18.3663 22.6778 18.3351 22.6777C18.304 22.6777 18.2731 22.6837 18.2443 22.6956C18.2155 22.7074 18.1892 22.7249 18.1672 22.7469Z" fill="#3AC1B0"/>
<path d="M60.2888 4.89022C59.7739 5.0845 59.1831 5.40831 59.0062 5.97853C58.8293 6.54875 59.4216 6.82517 59.8686 6.92626C60.1656 6.99418 60.2919 6.53769 59.9934 6.46977C59.849 6.44689 59.7103 6.39706 59.5843 6.32287C59.4058 6.20125 59.4548 6.08436 59.5669 5.92167C59.785 5.64866 60.0808 5.44819 60.4152 5.34671C60.6979 5.24088 60.5747 4.78281 60.2888 4.89022Z" fill="#3AC1B0"/>
<path d="M61.5243 10.6002C61.4699 10.569 61.4055 10.5605 61.3449 10.5765C61.2843 10.5924 61.2324 10.6316 61.2005 10.6855L61.0962 10.8956C61.0656 10.9502 61.0573 11.0144 61.0729 11.075C61.0884 11.1356 61.1268 11.1879 61.1799 11.221C61.2345 11.2522 61.2992 11.2608 61.36 11.2448C61.4209 11.2289 61.4731 11.1897 61.5053 11.1357L61.6096 10.924C61.6403 10.8696 61.6486 10.8053 61.6327 10.7448C61.6167 10.6843 61.5778 10.6324 61.5243 10.6002Z" fill="#3AC1B0"/>
<path d="M59.5101 24.7847C59.4473 24.7847 59.387 24.8096 59.3426 24.8541C59.2982 24.8985 59.2732 24.9588 59.2732 25.0216C59.2732 25.0844 59.2982 25.1447 59.3426 25.1891C59.387 25.2336 59.4473 25.2585 59.5101 25.2585C59.573 25.2585 59.6332 25.2336 59.6777 25.1891C59.7221 25.1447 59.7471 25.0844 59.7471 25.0216C59.7471 24.9588 59.7221 24.8985 59.6777 24.8541C59.6332 24.8096 59.573 24.7847 59.5101 24.7847Z" fill="#3AC1B0"/>
<path d="M57.1821 34.6458C57.1474 34.8432 57.1363 35.0438 57.1079 35.2428C57.0842 35.415 57.0668 35.6819 56.9263 35.8052C56.6988 36.0089 57.0352 36.3422 57.2627 36.14C57.6213 35.8241 57.5628 35.2018 57.6386 34.7721C57.686 34.4736 57.2295 34.3456 57.1821 34.6458Z" fill="#3AC1B0"/>
<path d="M48.2751 32.3286C48.2024 32.308 48.1297 32.2812 48.0555 32.2638C48.0426 32.2606 48.0303 32.2552 48.0192 32.248C48.0571 32.2843 47.9102 32.2812 48.0192 32.248C48.0062 32.2384 47.9925 32.23 47.9781 32.2227C47.9931 32.2291 48.0074 32.237 48.0208 32.2464C48.0938 32.1979 48.1639 32.1451 48.2308 32.0885C48.309 32.0423 48.3903 32.0016 48.4741 31.9668C48.7537 31.8468 48.512 31.4393 48.234 31.5577C47.9181 31.6936 47.3179 32.0316 47.5769 32.4644C47.7026 32.6246 47.8843 32.7313 48.0855 32.7629C48.2577 32.8119 48.4615 32.8103 48.433 33.0251C48.3951 33.3268 48.869 33.3253 48.9069 33.0251C48.9543 32.6034 48.6273 32.4202 48.2751 32.3286Z" fill="#3AC1B0"/>
<path d="M15.0078 40.0179C14.8799 40.1348 14.5956 40.0574 14.4376 40.0527C14.1328 40.0527 14.1328 40.5265 14.4376 40.5265C14.7425 40.5265 15.0837 40.5913 15.3427 40.3528C15.5702 40.1459 15.2337 39.811 15.0078 40.0179Z" fill="#3AC1B0"/>
<path d="M26.1708 19.5343C26.1134 19.5512 26.0646 19.5893 26.0343 19.641C26.004 19.6926 25.9945 19.7539 26.0078 19.8123C26.0211 19.8706 26.0561 19.9218 26.1058 19.9552C26.1554 19.9887 26.216 20.0019 26.2751 19.9923H26.294C26.33 20.0105 26.3635 20.0333 26.3935 20.0603C26.4615 20.1171 26.5231 20.1819 26.5926 20.2387C26.6382 20.2814 26.6983 20.3051 26.7608 20.3051C26.8232 20.3051 26.8834 20.2814 26.929 20.2387C26.9727 20.1937 26.9972 20.1333 26.9972 20.0705C26.9972 20.0077 26.9727 19.9474 26.929 19.9023C26.6968 19.7207 26.4962 19.4616 26.1708 19.5343Z" fill="#3AC1B0"/>
<path d="M28.9744 2.43547C28.9601 2.38567 28.93 2.34184 28.8888 2.31053C28.8475 2.27921 28.7972 2.26209 28.7454 2.26172C28.5149 2.26571 28.2924 2.34692 28.1135 2.49233C28.0606 2.52512 28.0222 2.57698 28.0063 2.63722C27.9904 2.69747 27.9983 2.76151 28.0283 2.81614C28.0602 2.87004 28.1121 2.90921 28.1727 2.92517C28.2333 2.94113 28.2977 2.9326 28.3521 2.90144C28.4188 2.85151 28.4908 2.80913 28.5669 2.77507L28.5969 2.7656C28.6277 2.79161 28.6642 2.81003 28.7034 2.81935C28.7427 2.82868 28.7835 2.82866 28.8228 2.8193C28.8826 2.80162 28.9332 2.7615 28.9641 2.70733C28.995 2.65316 29.0038 2.58915 28.9886 2.52866L28.9744 2.43547Z" fill="#3AC1B0"/>
<path d="M2.43495 4.98669C2.13958 4.97721 1.86789 5.10041 1.56778 5.09725C1.22975 5.09725 0.898049 5.11937 0.591616 4.95509C0.361001 4.83347 0.0987957 5.13832 0.304137 5.32787L0.372058 5.39263C0.396305 5.41565 0.425208 5.4332 0.456816 5.4441C0.488425 5.455 0.522003 5.459 0.555286 5.45581C0.79765 5.53578 1.05203 5.57319 1.30715 5.56638C1.50402 5.57832 1.70152 5.57515 1.8979 5.5569C2.07432 5.50927 2.25454 5.47703 2.43653 5.46055C2.74139 5.47635 2.73981 5.00248 2.43495 4.98669Z" fill="#3AC1B0"/>
<path d="M1.47288 20.605C1.09852 20.8593 0.602542 21.0362 0.416155 21.4832C0.400125 21.5438 0.408532 21.6082 0.43956 21.6625C0.470589 21.7169 0.521751 21.7569 0.582007 21.7739C0.641665 21.7895 0.705027 21.7819 0.759276 21.7525C0.813525 21.7232 0.854611 21.6744 0.874225 21.6159C0.931089 21.4769 1.13485 21.3727 1.25332 21.3C1.41127 21.2052 1.56923 21.1215 1.71297 21.022C1.96412 20.8435 1.72718 20.4328 1.47288 20.605Z" fill="#3AC1B0"/>
<path d="M4.2891 37.6388C3.97319 37.5977 3.70783 37.3813 3.38244 37.4208C3.32011 37.4224 3.26077 37.4479 3.21667 37.492C3.17258 37.5361 3.14711 37.5954 3.14551 37.6577C3.14633 37.7203 3.17155 37.7801 3.21581 37.8244C3.26007 37.8686 3.31986 37.8939 3.38244 37.8947C3.65412 37.8615 3.89895 38.0526 4.16274 38.0969C4.22318 38.1113 4.28685 38.1021 4.34081 38.0713C4.39478 38.0405 4.43502 37.9904 4.45338 37.931C4.46994 37.8705 4.46198 37.8059 4.43123 37.7512C4.40048 37.6965 4.34942 37.6561 4.2891 37.6388Z" fill="#3AC1B0"/>
<path d="M52.8764 44.1593C52.5305 44.2067 52.3504 44.4752 52.123 44.7074C51.9057 44.9142 51.7346 45.1645 51.6207 45.4419C51.3679 45.5256 51.4943 45.9426 51.7786 45.8889L51.8655 45.8731C51.9039 45.8615 51.9387 45.8401 51.9664 45.811C51.994 45.782 52.0137 45.7462 52.0235 45.7073C52.0937 45.4702 52.2256 45.256 52.4057 45.0865C52.5131 44.9759 52.7058 44.6553 52.8685 44.6332C53.1734 44.5937 53.1781 44.1198 52.8764 44.1593Z" fill="#3AC1B0"/>
<path d="M54.0481 51.9847L53.6264 51.7746C53.5718 51.7446 53.5077 51.7368 53.4475 51.7527C53.3872 51.7685 53.3354 51.8069 53.3026 51.8599C53.2714 51.9142 53.2629 51.9787 53.2789 52.0393C53.2948 52.0999 53.334 52.1517 53.3879 52.1837L53.8096 52.3938C53.8365 52.4108 53.8666 52.4222 53.898 52.4274C53.9294 52.4325 53.9616 52.4313 53.9925 52.4237C54.0234 52.4162 54.0525 52.4025 54.078 52.3834C54.1035 52.3644 54.1249 52.3404 54.141 52.3129C54.157 52.2854 54.1673 52.2549 54.1713 52.2233C54.1754 52.1918 54.173 52.1597 54.1643 52.1291C54.1556 52.0984 54.1409 52.0698 54.1209 52.045C54.101 52.0202 54.0762 51.9997 54.0481 51.9847Z" fill="#3AC1B0"/>
<path d="M59.9368 42.8026C59.7284 43.1211 59.4938 43.4218 59.2355 43.7014C59.0412 43.9336 59.3745 44.2701 59.5704 44.0363C59.8551 43.7263 60.114 43.3934 60.3444 43.0412C60.37 42.9876 60.3745 42.9263 60.3571 42.8695C60.3396 42.8128 60.3015 42.7646 60.2502 42.7346C60.199 42.7046 60.1383 42.6949 60.0803 42.7075C60.0222 42.7201 59.971 42.7541 59.9368 42.8026Z" fill="#3AC1B0"/>
<path d="M65.2377 22.3268C64.9897 22.5732 65.0608 22.9175 65.0624 23.2303C65.0624 23.2931 65.0873 23.3534 65.1318 23.3978C65.1762 23.4422 65.2365 23.4672 65.2993 23.4672C65.3621 23.4672 65.4224 23.4422 65.4668 23.3978C65.5113 23.3534 65.5362 23.2931 65.5362 23.2303C65.5362 23.0723 65.4525 22.7801 65.5726 22.6616C65.6144 22.6167 65.6372 22.5573 65.6361 22.4959C65.635 22.4346 65.6102 22.376 65.5668 22.3326C65.5234 22.2892 65.4648 22.2643 65.4034 22.2632C65.342 22.2621 65.2826 22.2849 65.2377 22.3268Z" fill="#3AC1B0"/>
<path d="M3.91025 51.0051H2.96252C2.89968 51.0051 2.83942 51.0301 2.79498 51.0745C2.75055 51.119 2.72559 51.1792 2.72559 51.2421C2.72559 51.3049 2.75055 51.3652 2.79498 51.4096C2.83942 51.454 2.89968 51.479 2.96252 51.479H3.91025C3.97309 51.479 4.03335 51.454 4.07779 51.4096C4.12222 51.3652 4.14718 51.3049 4.14718 51.2421C4.14718 51.1792 4.12222 51.119 4.07779 51.0745C4.03335 51.0301 3.97309 51.0051 3.91025 51.0051Z" fill="#3AC1B0"/>
<path d="M10.9393 50.2943C10.9393 51.1094 11.0973 51.9655 10.655 52.7015C10.6261 52.7556 10.6192 52.8188 10.6359 52.8779C10.6526 52.9369 10.6915 52.9872 10.7446 53.0181C10.7976 53.049 10.8605 53.0581 10.9201 53.0436C10.9797 53.029 11.0313 52.9919 11.0641 52.9401C11.5554 52.1218 11.4164 51.2025 11.4132 50.2943C11.4132 50.2315 11.3882 50.1712 11.3438 50.1268C11.2994 50.0823 11.2391 50.0574 11.1763 50.0574C11.1134 50.0574 11.0532 50.0823 11.0087 50.1268C10.9643 50.1712 10.9393 50.2315 10.9393 50.2943Z" fill="#3AC1B0"/>
<path d="M10.2284 58.2712C10.1655 58.2712 10.1053 58.2962 10.0609 58.3406C10.0164 58.3851 9.99146 58.4453 9.99146 58.5082C9.99146 58.571 10.0164 58.6313 10.0609 58.6757C10.1053 58.7201 10.1655 58.7451 10.2284 58.7451C10.2912 58.7451 10.3515 58.7201 10.3959 58.6757C10.4404 58.6313 10.4653 58.571 10.4653 58.5082C10.4653 58.4453 10.4404 58.3851 10.3959 58.3406C10.3515 58.2962 10.2912 58.2712 10.2284 58.2712Z" fill="#3AC1B0"/>
</svg>
