<svg width="130" height="77" viewBox="0 0 130 77" fill="none" xmlns="http://www.w3.org/2000/svg">
<path d="M70.0241 76.993C74.8003 77.009 79.5759 76.9977 84.3511 76.9593C94.5819 76.865 104.814 76.6034 115.028 76.0027C119.45 75.7425 135.179 75.9746 127.732 66.6497C125.215 63.5016 119.844 62.2665 116.318 62.2089C112.452 62.1442 108.698 62.4902 104.827 62.6928C101.23 62.8813 97.6428 63.1485 94.0403 63.1401C86.682 63.1204 79.3222 63.1401 71.978 63.7309C65.0768 64.2851 58.1588 64.0952 51.2436 64.0952C44.1511 64.0952 37.1079 64.0277 30.0661 62.8953C26.9996 62.4016 23.8767 62.2286 20.7905 61.8825C18.0292 61.5731 15.3762 61.8825 12.6318 62.1751C10.2719 62.419 7.98916 63.154 5.93037 64.3329C4.26346 65.2881 1.30241 68.2519 0.793191 70.5279C-0.634584 76.9128 20.9086 76.7595 24.2242 76.744C39.4908 76.6779 54.7575 76.9452 70.0241 76.993Z" fill="#F1F2F2"/>
<path d="M34.0637 15.9278L34.767 15.3328L35.6898 15.6268L36.2187 16.3976L35.9767 17.0545L35.2284 17.4892L35.5097 17.5652L35.4577 17.7973L34.2817 18.3318C34.0004 18.0378 33.0452 17.8113 32.8933 17.6538L33.681 16.9772L34.0637 15.9278Z" fill="#B97262"/>
<path d="M10.9015 70.0271L10.8734 70.2958L10.782 71.1862L12.5586 72.2707L13.5827 71.4746L12.7415 70.4871L12.6627 70.4393L12.6205 70.5419L10.9015 70.0271Z" fill="#484F5B"/>
<path d="M18.2964 50.8218C16.2834 50.9554 14.4154 51.0089 12.951 51.0286L13.0031 57.9114L10.8044 69.9976L10.9015 70.0271L12.6205 70.542L12.6627 70.4393L18.43 56.1897L18.6326 53.2835L18.2964 50.8218Z" fill="#8EC3CB"/>
<path d="M17.5312 50.8219L18.6327 53.2836L19.1531 57.0619L19.7411 70.6968H19.751V70.4999L21.5065 70.5533L24.2763 56.0772L24.4254 50.1692C22.5221 50.473 20.5275 50.6728 18.6439 50.805L17.5312 50.8219Z" fill="#8EC3CB"/>
<path d="M21.6288 70.5574L21.5078 70.5532L19.7523 70.4998L19.7452 70.6967L19.7185 71.3958L21.5612 72.3481L22.5333 71.4816L21.6288 70.5574Z" fill="#484F5B"/>
<path d="M15.4549 21.0734C15.3958 20.9242 15.3367 20.7765 15.2791 20.6288L15.2917 20.619C16.0696 20.0282 16.4255 19.0013 16.3833 18.0307C16.3433 17.3983 16.1878 16.7785 15.9247 16.202C15.7339 15.8699 15.4971 15.5663 15.2214 15.3004C14.7206 14.8249 14.044 14.4479 13.3815 14.4718C13.1128 14.4803 13.2239 14.6913 12.899 14.5253C12.8456 14.4909 12.7981 14.4482 12.7583 14.3987C12.7105 14.4521 12.6781 14.4887 12.6683 14.4971C12.356 14.8235 12.0114 14.9782 11.6358 15.2146C11.0731 15.5718 10.7608 16.3315 10.8973 17.0432C10.9535 17.34 11.0787 17.6453 11.007 17.9294C10.9437 18.1784 10.7454 18.3514 10.6202 18.5638C10.546 18.6939 10.4982 18.8373 10.4795 18.9858C11.1026 20.1112 12.2843 21.0269 13.501 21.1395C13.501 21.1395 13.501 21.1479 13.501 21.1521C13.5179 21.2239 13.5348 21.2928 13.5545 21.3659C13.6431 21.6782 13.8555 22.0074 14.1805 22.0313C14.3298 22.0299 14.477 21.9948 14.6109 21.9286L15.4465 21.591C15.4759 21.5881 15.5041 21.5775 15.5281 21.5603C15.5522 21.5431 15.5713 21.5199 15.5836 21.4929C15.5958 21.466 15.6008 21.4363 15.5979 21.4069C15.5951 21.3774 15.5846 21.3493 15.5674 21.3252C15.521 21.2408 15.4873 21.1578 15.4549 21.0734Z" fill="#B97262"/>
<path d="M21.4516 13.1875C20.7919 13.1481 20.2109 13.5335 19.675 13.9049C19.5793 13.2564 18.9562 12.8105 18.3584 12.6389C17.7605 12.4673 17.1317 12.4645 16.5466 12.2366C15.8432 11.9553 15.1497 11.3532 14.452 11.5515C13.8232 11.7302 13.4308 12.494 13.0453 13.172L13.0144 13.1383C12.7315 12.8143 12.3854 12.5516 11.9974 12.366C10.7454 11.8483 10.8889 13.4126 9.92534 13.3296C9.69323 13.3099 9.4963 13.1256 9.27826 13.0285C8.85626 12.8471 8.40191 12.9906 8.03195 13.217C7.66199 13.4435 7.32861 13.7474 6.93615 13.9204C6.58167 14.0695 6.18217 14.1075 5.8516 14.3058C5.35505 14.6026 5.45773 15.1414 5.36911 15.6309C5.27205 16.1739 5.12295 16.9053 4.82895 17.3569C4.61795 17.6818 4.29019 17.8942 4.01589 18.1587C3.74159 18.4231 3.50527 18.7931 3.56294 19.1996C3.61921 19.5837 3.92446 19.8959 4.01167 20.2757C4.13124 20.8384 4.06935 21.1493 4.32255 21.7134C4.45337 22.0031 4.59685 22.3112 4.85146 22.487C5.18765 22.7205 5.61528 22.6586 5.98383 22.5475C6.35238 22.4364 6.72656 22.2817 7.10917 22.3576C7.95318 22.5222 7.90113 23.3507 8.20357 24.002C8.40479 24.4251 8.74907 24.7634 9.17558 24.9572C9.43009 25.0849 9.71091 25.1514 9.99567 25.1514C10.2804 25.1514 10.5612 25.0849 10.8158 24.9572C11.5571 24.5436 11.8919 23.5828 11.7428 22.698C11.6682 22.383 11.5713 22.0737 11.453 21.7724C11.4153 21.6566 11.3862 21.5381 11.3658 21.418C11.2983 20.996 11.4656 20.3615 11.0296 20.0704C10.9152 20.0169 10.8044 19.9563 10.6976 19.8889C10.6199 19.8159 10.5618 19.7244 10.5288 19.623C10.4554 19.424 10.4326 19.2099 10.4627 18.9999C10.4814 18.8513 10.5292 18.7079 10.6034 18.5779C10.7285 18.3627 10.9269 18.1925 10.9902 17.9435C11.0619 17.6621 10.9367 17.3541 10.8805 17.0573C10.7398 16.3399 11.0507 15.5803 11.619 15.2286C11.9946 14.9923 12.3392 14.8375 12.6515 14.5112C12.6613 14.5027 12.6937 14.4662 12.7415 14.4127C12.7813 14.4622 12.8288 14.505 12.8822 14.5393C13.2071 14.7053 13.096 14.4943 13.3647 14.4859C14.0272 14.462 14.7038 14.8389 15.2046 15.3144C15.4803 15.5804 15.7171 15.8839 15.9079 16.2161C16.2563 16.8125 16.4528 17.4854 16.4804 18.1756C16.51 19.149 16.0064 19.5822 16.4692 20.5585C16.5727 20.7763 16.6986 20.9828 16.8448 21.1746C17.2295 21.6982 17.7657 22.091 18.3809 22.2999C18.4484 22.2999 18.5215 22.2999 18.5834 22.2929C18.9198 22.2623 19.247 22.1668 19.547 22.0116C19.9306 21.8159 20.2653 21.5366 20.5265 21.1943C20.7878 20.852 20.9688 20.4554 21.0564 20.0338C21.1154 19.7525 21.1436 19.4317 21.3307 19.225C21.4826 19.059 21.7133 18.9943 21.8666 18.8325C22.5095 18.1573 21.2828 16.9307 21.5585 16.0023C21.7344 15.4157 22.456 15.1878 22.6121 14.5956C22.8105 13.9133 22.1071 13.2227 21.4516 13.1875Z" fill="#3B455A"/>
<path d="M35.2736 17.9604C35.0584 17.921 32.8204 17.2866 32.8204 17.2866C32.9512 17.3063 27.4244 21.366 26.9011 21.6797C25.2932 22.6503 22.2591 21.4673 20.3671 21.3857C20.1375 21.6343 19.8655 21.8401 19.5639 21.9934C19.2639 22.1486 18.9367 22.2441 18.6003 22.2747C18.5328 22.2747 18.4596 22.2831 18.3977 22.2817C17.7825 22.0728 17.2463 21.68 16.8616 21.1564C16.6309 21.1029 16.4467 21.0635 16.3229 21.0368L15.455 21.072C15.4873 21.1564 15.5211 21.2408 15.5548 21.3238C15.572 21.3479 15.5825 21.3761 15.5853 21.4055C15.5882 21.435 15.5832 21.4646 15.5709 21.4916C15.5587 21.5185 15.5396 21.5417 15.5155 21.5589C15.4915 21.5762 15.4633 21.5867 15.4339 21.5896L14.5983 21.9272C14.4644 21.9934 14.3172 22.0285 14.1679 22.0299C13.8429 22.006 13.6305 21.6769 13.5419 21.3646C13.5222 21.2956 13.5053 21.2239 13.4884 21.1508L11.8384 21.2197L11.453 21.7584C11.5713 22.0597 11.6681 22.369 11.7427 22.684C11.8919 23.5688 11.5571 24.5296 10.8157 24.9432C10.5612 25.0709 10.2804 25.1374 9.99565 25.1374C9.7109 25.1374 9.43008 25.0709 9.17556 24.9432L8.83374 44.2948L10.4514 51.5982C10.4514 51.5982 11.6147 51.6306 13.4139 51.6067C14.8023 51.5884 16.569 51.5364 18.4779 51.4112L18.8071 51.3887C20.5893 51.2649 22.4771 51.075 24.2762 50.788C24.9697 50.6769 25.6505 50.5531 26.3075 50.411C26.3075 50.411 27.9955 45.821 25.5704 34.3046C25.1892 32.4956 24.6617 30.4615 24.1496 28.661C25.7673 27.2726 30.1013 24.8742 31.5178 23.2805C33.0651 21.5348 35.2947 17.9632 35.3425 17.9717L35.2736 17.9604Z" fill="#CCD2D9"/>
<path d="M108.376 19.3997L104.593 20.065L97.8862 25.2599L88.9313 22.922L87.8945 25.0742L96.2206 29.0804L99.8471 29.9961L104.559 28.4572L108.376 19.3997Z" fill="#7FC5A3"/>
<path d="M88.6878 24.33L87.2882 25.0319L86.2866 24.9179L86.281 24.5761L86.8676 24.3426L84.9672 23.9305L84.7927 23.0133L87.0701 22.4731L89.1337 23.0738L88.6878 24.33Z" fill="#EAC5B0"/>
<path d="M104.184 68.7639L102.418 70.0145L101.829 70.9724C102.162 71.1221 102.507 71.2449 102.86 71.3395C103.227 71.4127 106.095 70.9724 106.095 70.9724V69.2844L104.184 68.7639Z" fill="#3B455A"/>
<path d="M117.902 69.2972L117.25 70.483C117.25 70.483 116.842 71.9797 117.195 71.8784C117.548 71.7771 119.518 71.4325 119.598 71.1751C119.678 70.9177 120.532 69.9091 120.633 69.7248C120.735 69.5405 120.308 68.3181 120.308 68.3181L117.902 69.2972Z" fill="#3B455A"/>
<path d="M105.828 41.3955L111.531 58.4163L117.902 69.2969L120.375 68.5781L116.155 56.1726C116.155 56.1726 115.644 43.7095 114.808 40.0437L105.828 41.3955Z" fill="#CCD2D9"/>
<path d="M101.314 43.9657L103.523 69.2789H106.171L106.98 56.3276L108.501 44.8618L102.712 38.0774L101.314 43.9657Z" fill="#CCD2D9"/>
<path d="M101.23 27.7663C101.504 26.4624 101.612 25.0571 102.258 23.8417C102.904 22.6263 104.125 21.7036 105.071 20.6697C105.471 20.2308 105.897 19.775 106.489 19.5654C106.909 19.4435 107.346 19.3875 107.783 19.3994L111.77 19.2982C112.254 19.2855 112.755 19.2771 113.2 19.4515C113.862 19.7145 114.236 20.3236 114.564 20.8933C115.398 22.345 115.548 23.9557 115.627 25.5972C115.627 25.6127 116.664 46.2163 115.839 45.8295C114.813 45.3484 113.638 45.0924 112.487 44.9137C110.854 44.648 109.204 44.492 107.55 44.4467L104.637 44.6436H102.875C101.819 44.7463 101.906 45.0656 100.822 44.9967C100.128 44.9545 100.915 29.2588 101.23 27.7663Z" fill="#7FC5A3"/>
<path d="M108.862 20.0647L110.842 19.9789C110.877 19.4536 110.87 18.9263 110.822 18.4021C111.385 18.2403 112.028 17.9871 112.154 17.4174C112.184 17.2367 112.184 17.0523 112.154 16.8716L111.892 14.6209C111.88 14.359 111.815 14.1023 111.703 13.8655C111.479 13.466 111.012 13.2705 110.565 13.1622C109.425 12.8991 108.156 13.0792 107.221 13.7839C106.964 13.9622 106.758 14.2046 106.623 14.4873C106.437 14.9304 106.53 15.434 106.623 15.9052L106.889 17.2078C106.992 17.7072 107.148 18.2783 107.612 18.4893C107.858 18.6004 108.156 18.5891 108.377 18.7467C108.765 19.0308 108.677 19.6259 108.862 20.0647Z" fill="#EAC5B0"/>
<path d="M105.209 10.5249C105.365 10.5053 105.517 10.4666 105.663 10.4095C106.14 10.2013 106.475 9.78495 106.983 9.58942C108.063 9.20732 109.246 9.23789 110.304 9.67523C111.269 10.0818 112.584 10.2379 113.448 10.7823C113.804 11.0208 114.096 11.343 114.299 11.7205C114.654 12.3686 114.82 13.1029 114.78 13.8405C114.74 14.5781 114.494 15.2899 114.071 15.8955C113.873 16.1619 113.653 16.4104 113.411 16.6383C112.919 17.1165 112.33 17.7073 111.68 17.8579C111.697 17.2867 112.317 15.5129 111.905 15.0206C111.358 14.3679 110.283 14.3848 109.514 14.4579C108.596 14.5437 107.841 14.2497 106.927 14.2948C106.461 14.3187 105.934 14.4115 105.576 14.1119C105.163 13.7644 104.291 12.663 104.082 12.1791C104 11.9634 103.98 11.7286 104.025 11.502C104.071 11.2755 104.179 11.0664 104.338 10.899C104.608 10.6135 104.902 10.5797 105.209 10.5249Z" fill="#3B455A"/>
<path d="M109.04 20.0494C108.985 20.3961 108.913 20.7398 108.823 21.0791C108.823 21.0791 105.149 31.6643 104.799 32.5097C104.721 32.6986 104.682 32.9007 104.682 33.1047L105.523 35.5889L107.197 33.5183L109.469 21.6572L110.02 21.1832L110.214 19.9805L109.04 20.0494Z" fill="white"/>
<path d="M90.4967 61.7051V53.4774C90.4789 53.4414 90.4634 53.4043 90.4503 53.3663V42.6137H79.5682C79.3452 42.5135 79.1462 42.3668 78.9846 42.1834C78.8229 42 78.7024 41.7841 78.6311 41.5503C78.5599 41.3164 78.5394 41.07 78.5713 40.8276C78.6031 40.5853 78.6864 40.3525 78.8157 40.145C80.2941 37.7733 80.6317 34.8418 77.8915 33.2297C75.6689 31.9215 72.6192 32.7613 71.387 35.0289C70.3742 36.8927 71.2041 38.5343 72.155 40.2012C72.2737 40.4089 72.3476 40.6391 72.3719 40.877C72.3962 41.115 72.3704 41.3554 72.2962 41.5828C72.222 41.8101 72.101 42.0195 71.941 42.1973C71.7811 42.375 71.5856 42.5174 71.3673 42.6151H60.6217V53.2566C60.6871 53.5178 60.8132 53.7599 60.9897 53.9632C61.1662 54.1665 61.3882 54.3254 61.6376 54.4268C61.887 54.5282 62.1569 54.5693 62.4252 54.5469C62.6935 54.5244 62.9528 54.439 63.1819 54.2975C65.5535 52.8205 68.485 52.4843 70.0957 55.2245C71.4025 57.4471 70.4361 60.4461 68.1685 61.6769C66.3047 62.6883 64.8094 61.8739 63.1214 60.9581C62.0073 60.3533 60.8637 60.8175 60.6189 61.9977V72.4436H68.1601V72.4675H84.3748V72.4436H90.4517V61.812C90.4714 61.7754 90.4812 61.7402 90.4967 61.7051Z" fill="#EBB044"/>
<path d="M70.1086 55.1964C68.4952 52.4562 65.5637 52.7952 63.1934 54.2736C62.9342 54.4353 62.6365 54.5246 62.3311 54.5324C62.0257 54.5402 61.7238 54.4661 61.4567 54.3178C61.1896 54.1696 60.967 53.9525 60.8121 53.6893C60.6572 53.426 60.5755 53.126 60.5756 52.8205V42.9035H49.9946C49.7604 42.9888 49.5477 43.1243 49.3713 43.3004C49.1949 43.4765 49.0591 43.689 48.9734 43.923C48.8877 44.157 48.8541 44.407 48.875 44.6553C48.8958 44.9037 48.9707 45.1445 49.0943 45.3609C50.0466 47.0279 50.8766 48.6694 49.8652 50.5333C48.6343 52.8009 45.5847 53.642 43.3621 52.3352C40.6205 50.7246 40.9567 47.7931 42.4337 45.4214C42.5689 45.204 42.6536 44.959 42.6815 44.7045C42.7095 44.45 42.68 44.1924 42.5953 43.9508C42.5105 43.7092 42.3726 43.4897 42.1918 43.3084C42.0109 43.1272 41.7917 42.9888 41.5503 42.9035H30.944V42.8219H30.7963V42.6418H30.7527V72.4634H60.5742V62.4183C60.5745 62.1187 60.6534 61.8244 60.803 61.5648C60.9527 61.3052 61.1678 61.0895 61.427 60.9391C61.6861 60.7888 61.9802 60.709 62.2798 60.7079C62.5794 60.7068 62.8741 60.7844 63.1344 60.9328C64.8027 61.8838 66.4443 62.7137 68.3081 61.7009C70.5757 60.4686 71.4154 57.419 70.1086 55.1964Z" fill="#474EBB"/>
<path d="M93.939 37.3936L103.54 9.80031L103.399 9.75248L75.3695 0L72.0244 9.61603C71.9243 9.90536 71.7485 10.1626 71.5152 10.3608C71.2819 10.5591 70.9998 10.6912 70.6981 10.7433C70.3964 10.7955 70.0863 10.7658 69.8 10.6573C69.5137 10.5488 69.2618 10.3656 69.0704 10.1267C67.3219 7.95194 64.6632 6.66905 62.241 8.72139C60.2716 10.3911 60.0662 13.5463 61.8021 15.4551C63.2284 17.025 65.0529 16.7802 66.9407 16.43C67.236 16.3747 67.5407 16.3981 67.8241 16.4979C68.1075 16.5976 68.3596 16.7702 68.5552 16.9983C68.7508 17.2264 68.8829 17.5019 68.9383 17.7972C68.9936 18.0925 68.9703 18.3972 68.8706 18.6806L65.5734 28.1701L75.4454 31.6052C75.7064 31.6233 75.9681 31.5815 76.2104 31.4829C76.4527 31.3842 76.6692 31.2314 76.8433 31.0361C77.0174 30.8409 77.1444 30.6083 77.2147 30.3563C77.285 30.1043 77.2967 29.8396 77.2488 29.5824C76.8971 27.6946 76.6523 25.8716 78.2208 24.4438C80.1282 22.7066 83.2848 22.9147 84.9545 24.8785C87.0139 27.3008 85.7338 29.9594 83.5591 31.7135C83.3495 31.8827 83.1829 32.0991 83.0727 32.3449C82.9624 32.5907 82.9118 32.859 82.9248 33.1281C82.9378 33.3971 83.0141 33.6593 83.1476 33.8934C83.281 34.1274 83.4678 34.3266 83.6928 34.4748L89.6472 36.5454L93.6042 37.9226L93.7449 37.9704L93.9446 37.3936H93.939Z" fill="#D34E4E"/>
<path d="M59.3024 28.073C58.9184 26.928 57.7269 26.6072 56.693 27.3415C55.1288 28.4528 53.739 29.4417 51.7696 28.661C49.3713 27.7101 48.0518 24.8503 49.0815 22.4871C50.3475 19.5725 53.3015 19.5542 55.8335 20.7372C56.0779 20.8518 56.3459 20.9069 56.6157 20.8982C56.8855 20.8895 57.1494 20.8171 57.3858 20.6869C57.6223 20.5567 57.8246 20.3725 57.9763 20.1493C58.128 19.926 58.2247 19.67 58.2586 19.4023L57.5032 13.1454L56.9926 8.98442L56.9743 8.84375L53.5983 9.25169L28.6453 12.2634L27.3708 12.4167L27.3877 12.5574L27.8519 16.399L28.6594 23.0877C28.6509 23.1271 28.6383 23.1651 28.627 23.2031L29.6117 31.3717C29.6314 31.404 29.6511 31.4364 29.6694 31.4715L30.9438 42.0216L31.0845 42.0033L31.0971 42.0849L34.9374 41.6207L41.6261 40.8119C41.8758 40.8676 42.1098 40.9785 42.311 41.1365C42.5121 41.2946 42.6753 41.4957 42.7885 41.7251C42.9017 41.9545 42.9621 42.2063 42.9652 42.4621C42.9683 42.7179 42.914 42.9711 42.8063 43.2032C41.6247 45.7352 41.643 48.6892 44.5562 49.9552C46.9194 50.9849 49.8467 49.7836 50.7962 47.3852C51.5769 45.4159 50.5557 43.8826 49.4106 42.3423C49.2648 42.1422 49.1641 41.9128 49.1156 41.6699C49.067 41.4271 49.0717 41.1766 49.1293 40.9357C49.187 40.6949 49.2962 40.4694 49.4494 40.2749C49.6026 40.0803 49.7963 39.9213 50.0169 39.8089L60.567 38.533L60.0437 34.1977L59.3024 28.073Z" fill="#7FC5A3"/>
<path d="M28.4202 32.7531L28.3865 33.7688L30.1786 34.4215L31.2111 33.6379L31.2125 32.4563L30.2152 32.4015L30.1842 32.1412L29.8579 31.9316L28.4202 32.7531Z" fill="#B97262"/>
<path d="M23.1732 30.5095L28.7029 31.6025C28.7029 31.6025 28.3836 34.9785 28.3864 34.6972C28.3892 34.4159 21.1223 34.0853 21.1223 34.0853L23.1732 30.5095Z" fill="#CCD2D9"/>
<path d="M112.236 23.0144L105.458 29.412L95.4061 26.4157L94.6873 28.6763L105.735 33.7319H108.643L114.786 28.5047L112.236 23.0144Z" fill="#7FC5A3"/>
<path d="M94.7521 28.4725L93.0022 28.5049L91.9331 26.9969L94.6494 25.4875L95.4062 26.416L94.7521 28.4725Z" fill="#EAC5B0"/>
</svg>
