<svg width="140" height="78" viewBox="0 0 140 78" fill="none" xmlns="http://www.w3.org/2000/svg">
<path d="M100.318 50.3218C100.318 50.3218 99.6353 52.5446 100.695 54.024C101.755 55.5034 106.597 59.3415 106.597 59.3415C106.077 59.5589 105.513 59.6549 104.95 59.6222C104.387 59.5895 103.838 59.429 103.346 59.1528C101.721 58.198 99.2959 55.0354 99.2959 55.0354C99.2959 55.0354 98.1946 52.639 100.318 50.3218Z" fill="#D37D3D"/>
<path d="M34.0967 8.03462L24.8909 3.33982C23.5423 2.65606 21.9781 2.53422 20.54 3.00094C19.102 3.46766 17.907 4.48498 17.2162 5.83063L0.622234 38.4036C-0.0610609 39.7531 -0.182812 41.3184 0.283583 42.7574C0.749979 44.1965 1.7666 45.3923 3.11132 46.0836L12.3096 50.7784C13.659 51.4631 15.2245 51.585 16.6635 51.1175C18.1026 50.65 19.2979 49.6311 19.9881 48.2838L20.4859 47.3063L20.3388 47.2422L35.9937 16.8694L36.582 15.7146C37.2656 14.3656 37.3879 12.8007 36.9223 11.3617C36.4566 9.92269 35.4408 8.72659 34.0967 8.03462V8.03462Z" fill="#EA4924"/>
<path d="M104.002 14.1484C99.9633 18.1941 93.2353 19.432 85.9 19.7754L88.1326 23.9267C88.2715 24.1783 88.3719 24.4493 88.4306 24.7306C88.4721 24.9214 88.4911 25.1165 88.4871 25.3118C88.4871 26.3798 87.9893 28.0781 85.2664 28.6178C84.9466 28.6792 84.6226 28.7158 84.2972 28.7272C81.3027 28.8631 77.9462 27.1233 76.5508 26.3119C76.1246 26.0621 75.7679 25.7091 75.5137 25.2854L74.0391 22.8474L73.3791 21.7567C73.1172 21.3194 72.7463 20.9577 72.3027 20.707C71.8591 20.4562 71.358 20.3251 70.8485 20.3264H65.3386C63.7371 20.9343 62.2049 21.7111 60.7677 22.6436L60.5414 22.7795C57.705 24.4937 55.0066 26.4268 52.4707 28.5612C51.9536 28.8375 51.4951 29.2118 51.1206 29.6631L32.4675 52.2616L32.2525 52.522C31.7423 53.1408 31.4064 53.8847 31.2795 54.6769C31.149 55.4631 31.2266 56.2698 31.5045 57.0167C31.7824 57.7636 32.2509 58.4246 32.8635 58.9339L33.4556 59.4207C34.164 60.0056 35.0334 60.361 35.9485 60.4397C35.5072 60.2661 35.2847 60.1189 35.4016 60.1416C36.1559 60.4963 37.4759 60.0133 38.7958 58.9377C39.0334 58.7452 39.2748 58.5376 39.5086 58.3074C39.7424 58.0772 40.1724 57.5904 40.7456 56.8997C43.1027 54.0731 47.8886 47.963 51.3054 43.8306C52.6744 42.17 53.8247 40.8114 54.5035 40.151C55.1823 39.4905 55.7028 39.1735 56.1063 39.1056C57.3735 38.8942 57.5017 40.9322 57.5017 40.9322C57.5017 40.9322 56.5891 42.121 55.2012 43.906C54.4469 44.8722 53.5531 46.0194 52.5877 47.246C49.4876 51.1784 45.6597 55.9261 43.412 58.3867C43.1065 58.7226 42.8274 59.0169 42.586 59.2585C42.0264 60.1931 41.8192 61.2971 42.0018 62.3712C42.1844 63.4453 42.7447 64.4187 43.5817 65.1156L44.17 65.6025C44.6157 65.9706 45.1278 66.2499 45.6785 66.4252L45.5239 66.3195C45.5239 66.3195 48.4392 66.7875 50.0495 65.3157L50.1627 65.2175C50.4568 64.9232 51.0753 64.1759 51.8975 63.1456C53.4626 61.1832 55.7744 58.1829 58.0976 55.2203C59.3723 53.5787 60.6508 51.9445 61.8011 50.4954C62.0324 50.4864 62.264 50.5041 62.4912 50.5482C62.968 50.6308 63.4078 50.8584 63.7506 51.2001C64.0934 51.5419 64.3227 51.981 64.4071 52.4578C63.6528 53.4617 62.8193 54.5373 61.9745 55.6355L60.5339 57.4923C58.4068 60.2246 56.2685 62.9041 54.6958 64.7269C54.1289 65.4043 53.5259 66.0506 52.8894 66.663L52.7988 66.7384C52.7762 66.7762 52.7611 66.8177 52.7385 66.8554C52.2313 67.7837 52.0619 68.8594 52.2593 69.8988C52.4568 70.9382 53.0087 71.8767 53.8209 72.5541L54.6845 73.2145C55.538 73.918 56.6192 74.2845 57.7242 74.2448C57.2302 74.0561 56.97 73.8901 57.0982 73.9165C57.9807 74.3354 59.6702 73.5882 61.2467 72.0823C61.6238 71.705 62.5629 70.5728 63.7923 69.0632C65.1802 67.3536 66.9414 65.1383 68.7253 62.9116L70.132 61.1605L71.0182 60.0623C71.3686 60.1827 71.6806 60.3944 71.9219 60.6757C72.1632 60.957 72.3252 61.2976 72.391 61.6625C72.4872 62.0774 72.4974 62.5077 72.4212 62.9267C72.3835 63.1456 72.3307 63.3607 72.2741 63.5834L71.6443 64.3684C71.1465 64.9911 70.6486 65.6138 70.1357 66.2252C68.5254 68.214 66.9716 70.0822 65.7497 71.4634C65.462 72.3261 65.4405 73.2555 65.688 74.1305C65.9356 75.0056 66.4407 75.7858 67.1375 76.3696C67.658 76.7986 68.2694 77.1032 68.9251 77.2602C69.8491 77.1772 71.1163 76.4752 72.3194 75.3242C72.8059 74.8562 74.1749 73.1806 75.9134 71.0181L75.8908 70.9653C75.5546 70.3362 75.3918 69.6289 75.4194 68.916V68.8179C75.4194 68.8179 75.4194 68.799 75.4194 68.7877C75.447 67.8953 75.7325 67.0301 76.2416 66.2969C76.3958 66.0651 76.5782 65.8534 76.7846 65.6666C76.8902 65.5647 76.9958 65.4666 77.109 65.376C77.6693 64.9317 78.3255 64.6243 79.0253 64.4782C79.7252 64.3321 80.4494 64.3514 81.1405 64.5344L81.9401 63.5419C82.0668 63.5469 82.1929 63.562 82.3172 63.5872L82.4002 63.6098L82.453 63.5796C82.3343 62.8604 82.3873 62.1233 82.6076 61.4285C82.6076 61.3719 82.6453 61.319 82.6642 61.2624C82.683 61.2058 82.7283 61.0964 82.7622 61.0134C82.7632 60.9995 82.7632 60.9857 82.7622 60.9718V60.9718C83.0516 60.3132 83.4921 59.7321 84.0479 59.2757C84.6037 58.8193 85.2592 58.5004 85.9612 58.3449C86.6632 58.1894 87.392 58.2017 88.0884 58.3807C88.7847 58.5598 89.4291 58.9006 89.9693 59.3755L90.5953 59.0245C90.5135 58.4331 90.5692 57.8308 90.7583 57.2645C90.9474 56.6983 91.2646 56.1834 91.6852 55.76L92.7186 54.7259C93.4463 54.0023 94.4306 53.5962 95.4566 53.5962C96.4825 53.5962 97.4668 54.0023 98.1946 54.7259L98.2285 54.7599L98.9828 54.3297C98.8154 53.6788 98.8203 52.9955 98.9968 52.347C99.1734 51.6985 99.5156 51.1072 99.9897 50.6312L101.019 49.5972C101.747 48.8735 102.731 48.4674 103.757 48.4674C104.783 48.4674 105.768 48.8735 106.495 49.5972L106.835 49.9368L116.323 44.6533C113.959 38.6263 104.315 14.7636 104.002 14.1484Z" fill="#F9B466"/>
<path d="M55.2163 43.9062C56.6041 42.1211 57.5168 40.9323 57.5168 40.9323C57.5168 40.9323 57.3886 38.8944 56.1214 39.1057C55.7179 39.1736 55.1937 39.4831 54.5186 40.1511C53.8435 40.8191 52.6895 42.1701 51.3205 43.8307C47.9074 47.982 43.1216 54.0732 40.7607 56.8999C40.1875 57.5905 39.7575 58.0849 39.5237 58.3076C39.2899 58.5302 39.0485 58.7453 38.8109 58.9378C37.4721 60.0134 36.1446 60.4965 35.4167 60.1417C35.2998 60.1191 35.5223 60.2662 35.9636 60.4398C36.9969 60.8474 39.2484 61.406 41.2434 60.3115C41.5807 60.1295 41.8958 59.9092 42.1825 59.6549C42.307 59.5454 42.4503 59.4133 42.6049 59.2775C42.8463 59.0359 43.1253 58.7416 43.4308 58.4057C45.6936 55.9564 49.5065 51.1974 52.6065 47.265C53.5531 46.0196 54.462 44.8723 55.2163 43.9062Z" fill="#F49F4C"/>
<path d="M62.0123 55.6167C62.857 54.5185 63.683 53.4429 64.4448 52.4391C64.3604 51.9623 64.1311 51.5231 63.7883 51.1814C63.4455 50.8397 63.0057 50.612 62.5289 50.5295C62.3017 50.4854 62.0701 50.4677 61.8388 50.4766C60.6885 51.9258 59.41 53.5599 58.1353 55.2016C55.8122 58.183 53.5003 61.1833 51.9352 63.1269C51.1131 64.1572 50.4946 64.9044 50.2004 65.1988L50.0873 65.2969C48.458 66.7688 45.5616 66.3008 45.5616 66.3008L45.7163 66.4065C46.4705 66.9122 50.0232 69.0143 52.7461 66.7839C52.7842 66.7557 52.8207 66.7255 52.8554 66.6933L52.9459 66.6178C53.5824 66.0054 54.1855 65.3591 54.7524 64.6818C56.3251 62.8589 58.4634 60.1794 60.5905 57.4471L62.0123 55.6167Z" fill="#F49F4C"/>
<path d="M71.6293 64.391L72.2591 63.6061C72.3157 63.3834 72.3685 63.1683 72.4062 62.9494C72.4824 62.5303 72.4722 62.1001 72.376 61.6851C72.3102 61.3203 72.1482 60.9797 71.9069 60.6984C71.6656 60.4171 71.3536 60.2053 71.0032 60.085L70.117 61.1832L68.7102 62.9343C66.9264 65.1609 65.1652 67.3762 63.7773 69.0858C62.5479 70.5954 61.6126 71.7276 61.2317 72.105C59.6741 73.6146 57.9845 74.3694 57.0832 73.9391C56.9625 73.9127 57.2152 74.0788 57.7092 74.2675C58.95 74.7354 61.7182 75.3468 63.8641 73.4523C64.5272 72.8363 65.1567 72.185 65.7497 71.5012C66.9717 70.1199 68.5255 68.2518 70.1358 66.2629C70.6336 65.6364 71.1315 65.0137 71.6293 64.391Z" fill="#F49F4C"/>
<path d="M119.552 44.6344L119.374 44.291L118.835 43.2267L112.009 29.8367L104.002 14.1484C104.315 14.7636 113.959 38.6263 116.372 44.6004L106.884 49.884L108.86 51.8615L120.019 45.5477L119.552 44.6344Z" fill="#F49F4C"/>
<path d="M83.5807 66.0741L83.7768 66.3156L83.8183 66.2628C83.5694 66.025 83.3883 65.8476 83.2903 65.7495C83.3921 65.8552 83.4864 65.9609 83.5807 66.0741Z" fill="#F49F4C"/>
<path d="M75.8984 71.0522C74.1598 73.2147 72.7908 74.8904 72.3043 75.3583C71.1163 76.4905 69.8491 77.2113 68.9101 77.2944C68.6537 77.3288 68.3928 77.2923 68.1558 77.1887C67.7259 77.1057 71.9271 79.3549 74.9442 76.7056C75.9547 75.7289 76.9091 74.6957 77.8029 73.611C77.2217 72.9582 76.6813 72.27 76.185 71.5504C76.0781 71.3912 75.9823 71.2247 75.8984 71.0522V71.0522Z" fill="#F49F4C"/>
<path d="M82.8037 64.7158C82.6382 64.3476 82.5215 63.9594 82.4567 63.5609L82.4039 63.5911L82.3209 63.5685C82.1966 63.5433 82.0705 63.5282 81.9438 63.5232L81.1405 64.5346C81.9215 64.734 82.6367 65.1348 83.2148 65.697V65.697C83.0525 65.3811 82.915 65.053 82.8037 64.7158Z" fill="#F49F4C"/>
<path d="M90.9385 60.0851L90.8819 59.953L90.848 59.8662C90.7468 59.5889 90.6748 59.3018 90.633 59.0095L90.007 59.3605C90.0899 59.4322 90.1691 59.5001 90.2483 59.5756L91.1497 60.4814C91.078 60.3606 91.0139 60.2361 90.9536 60.104L90.9385 60.0851Z" fill="#F49F4C"/>
<path d="M99.0319 54.2957L98.2776 54.7259L100.288 56.7374L100.563 56.5827L100.058 56.077C99.5605 55.5874 99.2059 54.9716 99.0319 54.2957V54.2957Z" fill="#F49F4C"/>
<path d="M139.382 35.6827L122.788 3.10968C122.097 1.76403 120.902 0.746709 119.464 0.279992C118.026 -0.186726 116.462 -0.0648903 115.113 0.618876L105.903 5.31367C104.559 6.00498 103.542 7.2008 103.076 8.63984C102.609 10.0789 102.731 11.6442 103.414 12.9937L104.003 14.1485L112.009 29.8368L118.835 43.2268L119.552 44.6345L120.027 45.5666C120.718 46.9123 121.913 47.9296 123.351 48.3963C124.789 48.863 126.353 48.7412 127.702 48.0574L136.9 43.3626C138.243 42.67 139.258 41.4736 139.723 40.0347C140.188 38.5958 140.065 37.0312 139.382 35.6827V35.6827Z" fill="#3E385A"/>
<path d="M119.544 44.6345L118.828 43.2268L119.367 44.2911L119.544 44.6345Z" fill="#3E385A"/>
<path d="M84.1011 28.5988C84.4776 28.6303 84.856 28.6303 85.2325 28.5988C87.9554 28.0592 88.4382 26.3609 88.4532 25.2929C88.4572 25.0976 88.4382 24.9025 88.3967 24.7117C88.2987 24.7989 88.194 24.8784 88.0836 24.9494L86.4393 25.9986C85.9755 26.2925 85.4141 26.3904 84.8783 26.2709C84.3424 26.1513 83.8758 25.824 83.5807 25.3608L82.091 23.0209C81.9821 22.8481 81.946 22.6392 81.9905 22.4398C82.0351 22.2404 82.1566 22.0668 82.3286 21.9567L85.7794 19.7603L85.8472 19.7187L79.7188 8.30254C79.4661 7.83098 79.0903 7.43692 78.6313 7.16242C78.1723 6.88791 77.6475 6.74326 77.1128 6.7439H60.5377C60.0073 6.74437 59.4865 6.88636 59.0292 7.15526L41.1341 17.7374C40.6768 18.0063 40.156 18.1483 39.6256 18.1488H38.4376C38.174 18.1506 37.9116 18.1861 37.6569 18.2544C37.0654 17.8353 36.5103 17.3669 35.9975 16.8543L37.0234 18.5111L35.7449 22.436L26.9878 49.1971L32.4676 52.2615L51.1207 29.6593C51.4951 29.2079 51.9537 28.8337 52.4708 28.5573C55.0066 26.4229 57.7051 24.4898 60.5415 22.7756L60.7678 22.6398H59.5157C59.4327 22.6398 56.3591 21.9265 61.4014 18.9111C63.4077 17.7789 73.5677 16.9185 75.163 19.8772C75.2096 19.9591 75.2487 20.045 75.2799 20.1339C76.1327 21.7242 77.0902 23.256 78.1461 24.7192C79.6622 26.7005 81.5705 28.3498 84.1011 28.5988Z" fill="#E58F48"/>
<path d="M108.947 51.9672L108.86 51.8804L106.884 49.9028L106.544 49.5632C105.817 48.8395 104.832 48.4333 103.806 48.4333C102.78 48.4333 101.796 48.8395 101.068 49.5632L100.039 50.5972C99.3166 51.326 98.9114 52.3107 98.9114 53.3371C98.9114 54.3635 99.3166 55.3482 100.039 56.077L100.544 56.5827L102.43 58.4697C103.158 59.1933 104.142 59.5995 105.168 59.5995C106.194 59.5995 107.178 59.1933 107.906 58.4697L108.939 57.4356C109.66 56.7088 110.065 55.7268 110.066 54.7029C110.068 53.679 109.665 52.6959 108.947 51.9672V51.9672ZM100.431 53.5107C100.297 53.0971 100.291 52.6525 100.414 52.2355C100.537 51.8184 100.784 51.4486 101.121 51.1746L102.63 49.9519C103.058 49.609 103.605 49.4494 104.15 49.5081C104.695 49.5668 105.196 49.8389 105.541 50.2651L105.756 50.5293L105.945 50.767C106.011 50.8451 106.06 50.9357 106.09 51.0334C106.12 51.1311 106.13 51.2339 106.119 51.3356C106.108 51.4372 106.077 51.5355 106.027 51.6247C105.977 51.7138 105.909 51.7918 105.828 51.8539L102.23 54.7561C102.152 54.8222 102.061 54.8717 101.964 54.9017C101.866 54.9316 101.763 54.9415 101.662 54.9305C101.56 54.9196 101.462 54.8881 101.373 54.838C101.284 54.7879 101.206 54.7203 101.144 54.6391L100.789 54.1976C100.628 53.993 100.507 53.76 100.431 53.5107Z" fill="#E58F48"/>
<path d="M92.1264 61.3418C91.4514 60.6361 90.995 60.1379 90.946 60.0927C91.0064 60.2172 91.0705 60.3417 91.1421 60.4701L90.2408 59.5643C90.1616 59.4888 90.0824 59.4209 89.9994 59.3492C89.4593 58.8743 88.8149 58.5335 88.1185 58.3545C87.4221 58.1754 86.6934 58.1631 85.9914 58.3186C85.2894 58.4741 84.6339 58.793 84.0781 59.2494C83.5223 59.7059 83.0818 60.2869 82.7924 60.9456C83.7352 59.5681 84.0331 59.5681 84.0331 59.5681C84.0935 59.8209 83.6221 60.8588 84.0972 62.2438C84.2019 61.7761 84.461 61.3573 84.8327 61.055L86.3412 59.8323C86.723 59.527 87.2002 59.3665 87.6886 59.3789C88.1771 59.3914 88.6455 59.576 89.0113 59.9002C89.0983 59.9753 89.179 60.0573 89.2527 60.1455L89.6562 60.6474C89.784 60.8071 89.8438 61.0107 89.8227 61.2141C89.8015 61.4176 89.701 61.6045 89.5431 61.7343L85.9414 64.6365C85.9045 64.6677 85.864 64.6943 85.8208 64.7157C85.8585 64.761 85.9 64.8026 85.9414 64.8478C88.5286 67.5575 93.7594 72.2486 93.767 72.2561C94.3689 72.0281 94.9154 71.6743 95.3698 71.2183V71.2183C96.1048 70.4783 96.5675 69.5109 96.6826 68.4739C96.7977 67.437 96.5583 66.3916 96.0034 65.5083C96.4711 65.9685 97.0489 66.3011 97.6816 66.4744C96.603 65.9272 93.7557 63.0439 92.1264 61.3418Z" fill="#E58F48"/>
<path d="M100.269 56.7374L98.2587 54.7221L98.2248 54.6882C97.497 53.9645 96.5127 53.5583 95.4868 53.5583C94.4608 53.5583 93.4765 53.9645 92.7488 54.6882L91.7154 55.7222C91.2948 56.1456 90.9775 56.6605 90.7885 57.2267C90.5994 57.793 90.5436 58.3953 90.6255 58.9867C90.6595 59.2134 90.7125 59.4368 90.7839 59.6547C90.7197 59.4317 90.6781 59.2029 90.6594 58.9716C90.5765 58.0734 90.7726 56.7072 92.1152 55.3222C91.8703 55.74 91.7579 56.2225 91.7929 56.7056C91.8279 57.1888 92.0087 57.6499 92.3113 58.0281C92.3804 57.4913 92.6499 57.0006 93.0656 56.6544L94.5741 55.4316C94.9272 55.1486 95.3632 54.9892 95.8154 54.9776C96.2676 54.966 96.7112 55.1029 97.0783 55.3675C97.2308 55.4739 97.3678 55.6009 97.4856 55.7449L97.8929 56.2468C98.0193 56.4073 98.0779 56.6109 98.056 56.8141C98.0342 57.0173 97.9336 57.2038 97.776 57.3337L94.4911 60.0056L94.4308 60.0547C97.0028 62.3417 100.955 65.6703 100.955 65.6703C100.513 66.0541 100.001 66.3488 99.4467 66.5383C100.206 66.3954 100.904 66.0257 101.449 65.4779L102.483 64.4438C103.206 63.7162 103.611 62.7318 103.611 61.7058C103.611 60.6798 103.206 59.6954 102.483 58.9678L100.269 56.7374Z" fill="#E58F48"/>
<path d="M90.7839 59.6584C90.8028 59.7302 90.8216 59.7943 90.8405 59.8471C90.8179 59.783 90.8028 59.7226 90.7839 59.6584Z" fill="#E58F48"/>
<path d="M88.8719 71.2106C89.1577 71.4974 89.4812 71.7437 89.8336 71.9428C89.2603 71.4673 88.0309 70.3124 86.7788 69.1199L88.8719 71.2106Z" fill="#E58F48"/>
<path d="M93.7595 72.2522C93.147 72.4342 92.5126 72.532 91.8738 72.5428C92.5157 72.5788 93.1581 72.4798 93.7595 72.2522V72.2522Z" fill="#E58F48"/>
<path d="M82.4567 63.5608C82.5215 63.9593 82.6382 64.3475 82.8037 64.7156C82.6706 64.3312 82.5709 63.936 82.5057 63.5344C82.3801 62.8273 82.4162 62.1008 82.6113 61.4097C82.391 62.1045 82.3381 62.8416 82.4567 63.5608V63.5608Z" fill="#E58F48"/>
<path d="M78.9563 74.8666L78.8777 74.7996L78.9563 74.8666Z" fill="#E58F48"/>
<path d="M78.957 74.8677C79.868 75.6369 81.041 76.0237 82.2305 75.947C81.0487 75.9685 79.8946 75.588 78.957 74.8677Z" fill="#E58F48"/>
<path d="M78.8778 74.7996C78.8099 74.7429 78.7458 74.6788 78.6816 74.6184L78.8778 74.7996Z" fill="#E58F48"/>
<path d="M78.6816 74.6184C78.5628 74.5 78.452 74.3739 78.3497 74.241C78.4521 74.3738 78.5629 74.4999 78.6816 74.6184Z" fill="#E58F48"/>
<path d="M83.7767 66.3158L83.5806 66.0743C83.4863 65.961 83.392 65.8554 83.2902 65.7497L83.2148 65.678C82.4072 64.894 81.3419 64.4312 80.2181 64.3764C79.0943 64.3215 77.989 64.6782 77.109 65.3798C76.9958 65.4704 76.8902 65.5685 76.7846 65.6704C76.9619 65.9535 75.8908 67.7876 76.5546 68.8557C76.7182 69.106 76.8944 69.3478 77.0826 69.5802C77.5804 70.2218 78.3309 71.1313 79.1116 72.0711C80.6804 73.958 82.37 75.9016 82.4002 75.9356C83.2849 75.8509 84.1254 75.5084 84.8176 74.9506V74.9506C85.7638 74.1812 86.3677 73.0687 86.4977 71.8556C86.6277 70.6425 86.2732 69.4271 85.5115 68.4745L83.7767 66.3158ZM78.7344 69.9237C78.6565 69.9897 78.5659 70.0393 78.4682 70.0692C78.3706 70.0992 78.2679 70.109 78.1663 70.0981C78.0647 70.0872 77.9664 70.0557 77.8774 70.0056C77.7883 69.9555 77.7104 69.8878 77.6483 69.8067C77.5195 69.6401 77.4153 69.4558 77.339 69.2595C77.1669 68.8332 77.1355 68.3629 77.2495 67.9175C77.3635 67.472 77.6169 67.0748 77.9726 66.7838L78.708 66.195C79.1367 65.8536 79.6823 65.6946 80.2271 65.7526C80.7719 65.8105 81.2721 66.0806 81.6195 66.5045L81.6685 66.5649C81.7345 66.6429 81.784 66.7335 81.814 66.8312C81.8439 66.929 81.8538 67.0317 81.8428 67.1334C81.8319 67.235 81.8004 67.3334 81.7504 67.4225C81.7003 67.5116 81.6327 67.5896 81.5516 67.6518L78.7344 69.9237Z" fill="#E58F48"/>
<path d="M75.8757 70.9993L75.8984 71.0521C75.9859 71.2249 76.0855 71.3914 76.1963 71.5503C76.0907 71.388 75.9889 71.2182 75.9021 71.0521C75.8946 71.0332 75.8833 71.0181 75.8757 70.9993Z" fill="#E58F48"/>
<path d="M76.2304 66.3311C75.7213 67.0643 75.4358 67.9295 75.4082 68.8219C75.4548 67.933 75.7387 67.0728 76.2304 66.3311V66.3311Z" fill="#E58F48"/>
<path d="M52.7762 66.8367C52.7988 66.799 52.8139 66.7575 52.8365 66.7197C52.8018 66.7519 52.7653 66.7822 52.7272 66.8103L52.7762 66.8367Z" fill="#D37D3D"/>
<path d="M41.2397 60.3113L42.0317 60.7566C42.1297 60.2234 42.3226 59.7121 42.6012 59.2471C42.4466 59.4018 42.3033 59.5339 42.1788 59.6245C41.8937 59.8894 41.5785 60.1199 41.2397 60.3113V60.3113Z" fill="#D37D3D"/>
<path d="M76.5584 26.3118C77.9538 27.1232 81.3103 28.863 84.3047 28.7271C84.6301 28.7158 84.9542 28.6792 85.274 28.6177C84.8975 28.6492 84.519 28.6492 84.1425 28.6177C81.5969 28.3686 79.6886 26.7307 78.1725 24.7305C77.1166 23.2673 76.159 21.7355 75.3063 20.1452C75.2751 20.0563 75.2359 19.9704 75.1894 19.8885C73.5941 16.9298 63.4341 17.7902 61.4277 18.9224C56.3779 21.9416 59.4515 22.6322 59.542 22.6511L62.4422 20.8094C62.9154 20.5077 63.4651 20.3479 64.0262 20.3489H70.8749C71.3844 20.3477 71.8855 20.4788 72.3291 20.7295C72.7727 20.9803 73.1436 21.342 73.4055 21.7793L74.0655 22.8699L75.5137 25.2853C75.77 25.71 76.1294 26.0631 76.5584 26.3118V26.3118Z" fill="#D37D3D"/>
<path d="M79.1116 72.0825C78.331 71.1428 77.5805 70.2333 77.0826 69.5917C76.8945 69.3593 76.7182 69.1174 76.5546 68.8671C75.8909 67.7991 76.962 65.9649 76.7847 65.6819C76.5723 65.8773 76.386 66.0993 76.2303 66.3423C75.7386 67.0841 75.4547 67.9442 75.4082 68.8331C75.4082 68.8331 75.4082 68.8558 75.4082 68.8633V68.9614C75.3806 69.6743 75.5433 70.3817 75.8796 71.0107C75.8796 71.0296 75.8984 71.0447 75.906 71.0635C75.9927 71.2296 76.0945 71.3994 76.2001 71.5617C76.6965 72.2813 77.2368 72.9695 77.818 73.6223C77.9953 73.8298 78.1726 74.045 78.3536 74.2638C79.7716 76.0301 82.0382 75.9734 82.3625 75.9546H82.404C82.3701 75.9017 80.6805 73.9431 79.1116 72.0825Z" fill="#D37D3D"/>
<path d="M35.9938 16.8694L20.3314 47.2421L20.4784 47.3063L19.9882 48.2837L31.3022 54.6768C31.4291 53.8846 31.765 53.1407 32.2752 52.5219L32.4902 52.2615L27.0104 49.197L35.7449 22.436L37.0233 18.5261L35.9975 16.8694H35.9938Z" fill="#D37D3D"/>
<path d="M81.6196 66.5046C81.2722 66.0807 80.772 65.8106 80.2272 65.7526C79.6824 65.6947 79.1368 65.8537 78.7081 66.1951L77.9727 66.7989C77.617 67.09 77.3636 67.4872 77.2496 67.9327C77.1356 68.3781 77.167 68.8483 77.3391 69.2747C77.4154 69.471 77.5195 69.6553 77.6484 69.8219C77.7105 69.903 77.7884 69.9707 77.8775 70.0208C77.9665 70.0709 78.0648 70.1024 78.1664 70.1133C78.2679 70.1242 78.3707 70.1144 78.4683 70.0844C78.566 70.0545 78.6565 70.0049 78.7345 69.9389L81.5517 67.6745C81.6328 67.6123 81.7004 67.5343 81.7505 67.4452C81.8005 67.3561 81.832 67.2578 81.8429 67.1561C81.8539 67.0545 81.844 66.9517 81.8141 66.854C81.7841 66.7562 81.7346 66.6656 81.6686 66.5876L81.6196 66.5046Z" fill="#FFCD85"/>
<path d="M89.2602 60.1379C89.1865 60.0497 89.1058 59.9676 89.0188 59.8925C88.653 59.5683 88.1846 59.3837 87.6961 59.3713C87.2077 59.3588 86.7305 59.5194 86.3487 59.8246L84.8402 61.0474C84.4685 61.3497 84.2094 61.7685 84.1048 62.2362C84.074 62.3802 84.0563 62.5267 84.052 62.6739C84.0351 63.1799 84.1996 63.6752 84.5158 64.0703L84.8703 64.5119C84.9838 64.6512 85.142 64.7469 85.318 64.7827C85.494 64.8185 85.677 64.7921 85.8358 64.7081C85.8791 64.6866 85.9196 64.66 85.9565 64.6288L89.5581 61.7267C89.7161 61.5968 89.8165 61.4099 89.8377 61.2065C89.8589 61.003 89.7991 60.7994 89.6713 60.6398L89.2602 60.1379Z" fill="#FFCD85"/>
<path d="M105.952 50.7669L105.764 50.5292L105.549 50.265C105.203 49.8388 104.703 49.5667 104.157 49.508C103.612 49.4493 103.066 49.6088 102.637 49.9518L101.129 51.1745C100.791 51.4485 100.545 51.8183 100.421 52.2354C100.298 52.6524 100.304 53.097 100.439 53.5106C100.52 53.7613 100.648 53.9944 100.816 54.1975L101.17 54.639C101.232 54.7202 101.31 54.7878 101.399 54.8379C101.488 54.888 101.587 54.9195 101.688 54.9304C101.79 54.9414 101.892 54.9315 101.99 54.9016C102.088 54.8716 102.178 54.8221 102.256 54.756L105.854 51.8538C105.934 51.7903 106 51.7112 106.048 51.6214C106.097 51.5316 106.126 51.4329 106.135 51.3314C106.145 51.2298 106.133 51.1274 106.102 51.0304C106.07 50.9334 106.019 50.8438 105.952 50.7669Z" fill="#FFCD85"/>
<path d="M86.4694 26.0176L88.1137 24.9685C88.2241 24.8975 88.3287 24.818 88.4268 24.7307C88.3681 24.4494 88.2677 24.1784 88.1288 23.9269L85.8962 19.7755V19.7378L85.8283 19.7793L82.3775 21.9757C82.2055 22.0858 82.084 22.2595 82.0395 22.4589C81.995 22.6582 82.0311 22.8672 82.1399 23.04L83.6296 25.3799C83.9245 25.8379 84.3877 26.1615 84.919 26.2808C85.4503 26.4002 86.0072 26.3056 86.4694 26.0176V26.0176Z" fill="#FFCD85"/>
</svg>
