<svg width="101" height="78" viewBox="0 0 101 78" fill="none" xmlns="http://www.w3.org/2000/svg">
<path d="M41.175 29.1303C40.8778 29.6689 40.4272 30.1016 40.0492 30.5855C39.6711 31.0694 39.5297 31.4962 39.3989 32.0645C39.305 32.4746 39.1326 32.7873 38.6273 32.8218C37.6762 32.8848 38.002 32.1263 37.8296 31.5437C37.6334 30.878 37.1496 30.3263 36.8274 29.7212C35.8977 27.9724 36.4446 24.6923 38.6891 24.1514C41.1417 23.5593 42.0726 27.498 41.175 29.1303Z" fill="#EACDB0"/>
<path d="M37.4764 27.2293C37.203 27.2198 36.9022 27.2198 36.687 27.3875C36.4718 27.5551 36.4635 27.9546 36.7274 28.0176C36.9652 28.0746 37.2969 27.8464 37.4312 28.0402C37.5085 28.159 37.4217 28.3065 37.3468 28.4265C37.0595 28.8872 36.9445 29.4347 37.0223 29.9721C36.9153 30.0577 36.7679 29.9495 36.6882 29.8472C36.2905 29.3405 35.9946 28.7616 35.8168 28.1424C35.7162 28.2832 35.5811 28.3958 35.4244 28.4693C35.5314 28.2506 35.4934 27.9997 35.4542 27.7655C35.3127 26.9048 35.2473 25.9038 35.8893 25.2582C36.2317 24.9123 36.7286 24.7351 37.2172 24.6816C37.7067 24.6467 38.1985 24.6678 38.6831 24.7446C38.89 24.7696 39.1432 24.8338 39.1789 25.03C38.7033 25.1798 38.2099 25.5055 37.9496 25.9157C37.8687 26.0334 37.5038 27.2305 37.4764 27.2293Z" fill="#1A3151"/>
<path d="M38.5928 25.2701L38.5405 25.3033C38.3218 25.446 38.1137 25.6231 37.8581 25.6743C37.4895 25.748 37.1139 25.5447 36.7501 25.641C36.3423 25.7492 36.0451 26.2045 35.7348 26.4649C34.9515 27.1073 33.9658 27.451 32.9529 27.435C32.783 27.4455 32.6125 27.4319 32.4464 27.3946C32.2502 27.3256 32.2633 27.2352 32.4821 27.1829C33.1669 27.0177 33.4462 26.0939 33.4427 25.4674C33.4427 24.9728 33.3083 24.4474 33.5295 24.0051C33.6983 23.6663 34.0193 23.5094 34.3319 23.3322C34.6755 23.1372 35.0274 23.2228 35.4019 23.1456C35.7764 23.0683 36.1378 22.7818 36.5396 22.733C36.9653 22.6819 37.3719 22.8983 37.782 23.0112C38.1239 23.1041 38.481 23.1264 38.8318 23.0766C39.1456 23.0314 39.4559 22.9292 39.771 22.9577C40.2358 22.997 40.6424 23.3144 40.8861 23.7174C41.2309 24.2809 41.4104 25.2142 41.2226 25.9085C41.2523 25.8015 40.9135 25.3771 40.8445 25.2867C40.6983 25.0953 40.5176 24.9122 40.2762 24.8647C39.7341 24.7565 39.06 24.9812 38.5928 25.2701Z" fill="#1A3151"/>
<path d="M55.1691 67.9191L54.7566 67.635L51.3612 74.3723L52.4966 74.8966L56.5767 68.8869C56.1083 68.5651 55.6391 68.2425 55.1691 67.9191Z" fill="#EBCEB1"/>
<path d="M52.5679 74.6862L53.5986 76.2959L53.0969 76.9296L50.6812 75.1653L51.36 74.2285L52.5679 74.6862Z" fill="#19283A"/>
<path d="M63.0501 68.4448L62.5591 68.3545L62.2096 75.8907L63.4603 75.9061L64.7347 68.7516C64.1728 68.647 63.6113 68.5447 63.0501 68.4448Z" fill="#EBCEB1"/>
<path d="M63.44 75.6836L65.0379 76.7322L64.8381 77.5168L61.9124 76.8915L62.1501 75.7597L63.44 75.6836Z" fill="#19283A"/>
<path d="M67.091 49.587L56.0548 47.9487L55.049 52.2857L54.4118 63.3219L52.1078 71.3824L55.2119 72.7329L58.5419 66.124L60.7532 58.186L61.2941 57.3324L61.8136 64.2135L61.7162 72.5962L65.0664 73.0813L66.537 65.828L66.5893 55.0712L66.5845 55.0569L67.091 49.587Z" fill="#145566"/>
<path d="M72.2531 48.4303C72.5955 48.8606 73.0021 49.2066 73.5989 49.3041C73.6929 49.3267 73.7917 49.32 73.8818 49.2851C73.9542 49.2421 74.015 49.1821 74.059 49.1103C74.2448 48.8497 74.3966 48.5664 74.5107 48.2674C74.5526 48.1865 74.564 48.0933 74.5428 48.0047C74.5211 47.9563 74.489 47.9133 74.4489 47.8786C74.33 47.7657 74.2112 47.6575 74.0923 47.5565C74.0918 47.6271 74.0776 47.6969 74.0507 47.7621C74.0373 47.7942 74.0149 47.8218 73.9862 47.8414C73.9575 47.861 73.9237 47.8719 73.889 47.8727C73.8537 47.868 73.8202 47.8545 73.7915 47.8335C73.3159 47.516 74.3657 47.2842 73.839 47.0155C73.7447 46.9772 73.6436 46.9582 73.5418 46.9596C73.2398 46.9392 72.9432 46.8685 72.6644 46.7504C72.4267 46.6517 72.3149 46.4901 72.1009 46.6494C71.8869 46.8087 71.7015 47.1582 71.5303 47.3769C71.7692 47.7288 71.9927 48.1033 72.2531 48.4303Z" fill="#EBCEB1"/>
<path d="M71.3959 47.3889L72.4421 46.2737L68.0314 41.9213L66.3325 35.3481C66.2045 34.8521 65.8943 34.4226 65.4638 34.145C65.0334 33.8674 64.5141 33.7621 64.0095 33.8501V33.8501C63.7159 33.9014 63.437 34.0165 63.1927 34.1872C62.9484 34.358 62.7445 34.5803 62.5954 34.8384C62.4463 35.0965 62.3557 35.3842 62.3299 35.6812C62.3041 35.9782 62.3438 36.2772 62.4462 36.5572L64.8869 43.2338L71.3959 47.3889Z" fill="#145566"/>
<path d="M26.2607 47.7169C26.2607 47.7169 26.2238 47.4244 26.2238 47.4208C26.2238 47.3864 25.0445 47.2116 24.9292 47.1569C24.3133 46.8621 23.7474 46.1119 23.2648 45.6376C23.1126 45.4889 22.9521 45.338 22.7892 45.1858C22.4801 45.6986 22.1631 46.2066 21.8381 46.7099C21.8437 46.7124 21.8489 46.7156 21.8536 46.7194C22.4956 47.1082 23.3183 47.3376 23.9127 47.7763C24.4834 48.196 24.8721 48.9081 25.3726 49.4086L26.4747 49.0425L26.7053 48.07L25.8375 47.9118L25.967 47.7478L26.2607 47.7169Z" fill="#EACDB0"/>
<path d="M14.6099 35.7654L17.5036 44.1195L23.7772 48.0856L24.5964 46.7029L19.6317 41.6836C19.0147 41.0594 19.1324 37.8851 19.0194 37.022C18.7044 34.6277 18.4012 32.565 15.334 32.9906C13.9133 33.1868 14.5017 34.7002 14.6099 35.7654Z" fill="#F0F1F2"/>
<path d="M12.7303 65.8031L9.84491 69.5171C8.63227 71.2171 7.11053 72.6961 5.89314 74.3914C5.61376 74.7825 5.40571 75.2605 5.02289 75.5672C4.64008 75.8739 4.30244 75.7086 4.14076 75.2902C3.92439 74.729 4.43678 74.1905 4.69358 73.7102C6.4091 70.5121 7.79888 67.2023 9.40741 63.9413C9.42762 63.8985 9.45497 63.851 9.50133 63.8414C9.54054 63.8379 9.57961 63.8494 9.61071 63.8735C9.91268 64.0626 12.6673 65.8839 12.7303 65.8031Z" fill="#EACDB0"/>
<path d="M4.31677 74.4236L3.57849 74.8254L3.86382 76.7859L4.86484 77.7108L5.66613 77.4492L5.30234 75.0477L4.31677 74.4236Z" fill="#1E2833"/>
<path d="M7.02137 50.8805L7.29957 54.5802L8.25066 64.2682L4.37378 73.489L6.21295 74.2761L14.2734 64.2896L14.9665 50.2373C14.9665 50.2373 6.96431 51.1694 7.02137 50.8805Z" fill="#1A3151"/>
<path d="M16.7023 63.9746L17.0042 68.6659C17.034 69.9736 17.2135 71.2635 17.3609 72.5582C17.4929 73.7613 17.3086 75.0156 17.9339 76.1069C18.1301 76.4481 18.5284 76.674 18.7947 76.2555C19.0039 75.9334 18.8755 75.3984 18.9136 75.0334C19.1989 72.2907 19.8456 69.5991 20.1024 66.854C20.364 63.9782 19.2619 64.1054 16.7023 63.9746Z" fill="#EACDB0"/>
<path d="M17.5119 75.3223L17.2468 76.12L18.7947 77.3564L20.1583 77.3481L20.5649 76.6086L18.658 75.1047L17.5119 75.3223Z" fill="#1E2833"/>
<path d="M13.1785 50.2551L17.1564 74.2082L19.8266 74.3604L20.4912 60.5054L18.9992 48.3933L12.9609 48.6822L13.1785 50.2551Z" fill="#1A3151"/>
<path d="M36.1283 19.8928V20.7833C36.1267 20.9206 36.1797 21.0528 36.2755 21.1511C36.3714 21.2494 36.5023 21.3057 36.6395 21.3076H38.9233C39.0606 21.3057 39.1915 21.2494 39.2874 21.1511C39.3832 21.0528 39.4361 20.9206 39.4346 20.7833V19.8928H36.1283Z" fill="#A5A4A4"/>
<path d="M43.321 7.92697C43.321 4.79194 40.8422 2.2561 37.7832 2.2561C34.7243 2.2561 32.2467 4.79194 32.2467 7.92697C32.2444 8.99692 32.5404 10.0463 33.1015 10.9574V10.9574C34.647 13.6038 35.0037 15.821 35.0037 15.821H40.5759C40.5759 15.821 40.9325 13.6038 42.4721 10.9574C43.0311 10.0457 43.325 8.99635 43.321 7.92697V7.92697Z" fill="#FFD559"/>
<path d="M34.9394 15.821V19.6064C34.9378 19.6804 34.9655 19.752 35.0165 19.8057C35.0675 19.8594 35.1376 19.8907 35.2116 19.8929H40.3677C40.4417 19.8907 40.5119 19.8594 40.5629 19.8057C40.6139 19.752 40.6416 19.6804 40.64 19.6064V15.821H34.9394Z" fill="#DBDAD9"/>
<path d="M43.2223 6.86401C41.8159 9.6828 39.085 14.0376 34.9954 15.8054V15.8209H40.5676C40.5676 15.8209 40.9242 13.6037 42.4638 10.9573C43.0257 10.0465 43.3225 8.99704 43.321 7.92686C43.3202 7.57032 43.2872 7.21459 43.2223 6.86401V6.86401Z" fill="#EAB736"/>
<path d="M33.1562 8.39426C33.1562 5.65988 35.3211 3.43908 37.9901 3.43908C38.7353 3.44088 39.4697 3.61669 40.135 3.9525C40.8002 4.28832 41.3778 4.77486 41.8218 5.37336C41.4072 4.62293 40.7997 3.99683 40.0621 3.5598C39.3245 3.12277 38.4836 2.89065 37.6263 2.88745C34.9561 2.88745 32.7924 5.10943 32.7924 7.84381C32.7894 8.93292 33.1412 9.99337 33.7946 10.8647C33.3728 10.1098 33.1529 9.25894 33.1562 8.39426V8.39426Z" fill="#FFDF4D"/>
<path d="M36.7073 15.821L36.0368 8.55472L36.9713 9.35126L37.7868 8.02687L38.6131 9.30965L39.5321 8.54759L38.8604 15.821H39.1469L39.8792 7.88539L38.6773 8.88047L37.7809 7.4895L36.9035 8.91376L35.6885 7.87826L36.4208 15.821H36.7073Z" fill="#F6F7F7"/>
<path d="M36.3542 15.0958L36.4208 15.821H36.7073L36.6241 14.9258C36.535 14.984 36.4446 15.0399 36.3542 15.0958Z" fill="#EDECED"/>
<path d="M39.1373 12.8263L38.8627 15.821H39.1492L39.4559 12.4922C39.3501 12.5992 39.2443 12.7181 39.1373 12.8263Z" fill="#EDECED"/>
<path d="M40.6341 16.7603H34.9335V17.4593H40.6341V16.7603Z" fill="#C1C1C1"/>
<path d="M40.6341 18.2534H34.9335V18.9525H40.6341V18.2534Z" fill="#C1C1C1"/>
<path d="M38.059 18.2534H40.634V17.4592H39.0457C38.733 17.7434 38.4034 18.0086 38.059 18.2534V18.2534Z" fill="#96928D"/>
<path d="M40.6341 16.7602V15.821H40.5449C40.2826 16.1626 40.0183 16.4757 39.752 16.7602H40.6341Z" fill="#96928D"/>
<path d="M35.2057 19.8928H40.3618C40.4358 19.8906 40.506 19.8593 40.557 19.8056C40.608 19.7519 40.6357 19.6803 40.6341 19.6063V18.9524H36.9117C36.2889 19.2767 35.6274 19.5204 34.943 19.6776C34.9565 19.7376 34.9897 19.7914 35.0373 19.8304C35.0849 19.8694 35.1442 19.8914 35.2057 19.8928V19.8928Z" fill="#96928D"/>
<path d="M39.0458 17.4593H40.6341V16.7603H39.752C39.5166 17.0135 39.28 17.2465 39.0458 17.4593Z" fill="#A5A4A4"/>
<path d="M36.9117 18.9525H40.6341V18.2534H38.059C37.6934 18.5131 37.3101 18.7467 36.9117 18.9525V18.9525Z" fill="#A5A4A4"/>
<path d="M39.4369 20.4338C38.7938 21.0687 37.5621 21.2601 37.1555 21.3077H38.9257C39.063 21.3058 39.1939 21.2495 39.2898 21.1512C39.3856 21.0529 39.4385 20.9206 39.4369 20.7834V20.4338Z" fill="#A09F9F"/>
<path d="M51.5906 47.9809C51.587 47.9452 51.581 47.9099 51.5727 47.8751C51.4848 47.5505 51.1566 47.478 51.0033 47.2224C50.9343 47.1035 50.9973 46.7135 50.7786 46.7468C50.6989 46.7611 50.4219 46.7872 50.1509 46.83C49.7514 46.8942 49.3912 46.6565 49.0631 46.4734L47.7363 45.7434C47.3456 45.5418 46.9718 45.3088 46.6188 45.0468C45.7866 44.3905 45.336 43.5012 44.7974 42.6274C44.2256 41.7037 43.643 40.7252 42.9452 39.893C42.6979 39.5994 42.4161 39.3164 42.0583 39.1797C41.1619 38.8231 40.6317 39.5518 40.8052 40.3864C40.889 40.7349 41.0223 41.0696 41.2011 41.3803C41.6536 42.2338 42.1926 43.0386 42.8097 43.7818C43.0962 44.1278 43.4041 44.4606 43.7037 44.7923C44.4537 45.6229 45.326 46.3341 46.2906 46.9014C46.7793 47.1391 47.2917 47.3234 47.7981 47.5184C48.1084 47.6373 48.855 47.7681 48.924 48.1485C48.9298 48.212 48.9393 48.2751 48.9525 48.3375C48.9792 48.4039 49.0197 48.4639 49.0714 48.5135C49.2484 48.7105 49.4479 48.8861 49.6658 49.0366C50.0581 49.2969 50.7417 49.0152 51.1352 48.8856C51.2352 48.8587 51.3281 48.8105 51.4075 48.7441C51.5264 48.6252 51.5549 48.4457 51.5739 48.2793C51.589 48.1806 51.5945 48.0806 51.5906 47.9809V47.9809Z" fill="#EACDB0"/>
<path d="M40.7007 42.8366C41.734 44.1082 42.9336 45.235 44.2673 46.1869L45.7724 44.7995C45.8481 44.7445 45.902 44.6645 45.9245 44.5736C45.9254 44.4964 45.9035 44.4208 45.8615 44.356C45.405 43.4763 44.8474 42.6238 44.5787 41.6609C44.3885 40.9808 44.2661 40.3186 44.0461 39.6398C43.6895 38.533 43.3709 37.4107 42.988 36.311C42.6457 35.3254 42.283 34.3078 41.5614 33.5552C40.0159 31.9491 37.2886 33.0238 37.4598 35.3219C37.6608 38.0408 38.9305 40.6563 40.7007 42.8366Z" fill="#B5D6CA"/>
<path d="M30.8117 75.3032C31.0982 75.4898 31.418 75.5944 31.7212 75.7418C33.5913 72.9896 35.1273 69.8475 36.7405 66.9217L34.4817 65.7114C34.0647 67.5462 33.4752 69.3375 32.721 71.0613C32.5986 71.3359 30.7713 75.277 30.8117 75.3032Z" fill="#EACDB0"/>
<path d="M32.1433 75.2439C32.343 75.3212 32.4001 75.465 32.4547 75.6481C32.4685 75.7583 32.4952 75.8664 32.5344 75.9703C32.5943 76.0603 32.672 76.1372 32.7627 76.1962C33.2572 76.5683 34.4841 77.2816 33.3036 77.7702C32.2336 78.2148 30.8652 76.9511 30.0937 76.189C30.0381 76.1454 29.9967 76.0862 29.9748 76.019C29.9608 75.9396 29.9665 75.8579 29.9914 75.7812C30.1174 75.3426 30.2613 74.7874 30.8236 74.9098C31.0614 74.9621 31.1636 75.2035 31.4181 75.257C31.619 75.3057 31.9435 75.1666 32.1433 75.2439Z" fill="#1E2833"/>
<path d="M30.0021 55.4779C30.2672 56.637 30.9532 57.638 31.6094 58.6046C32.2301 59.5321 32.7483 60.5243 33.155 61.5636C33.5948 62.6336 33.5247 63.8415 33.3927 64.9935C33.1192 67.3821 32.6095 69.7376 31.871 72.0256L34.6731 73.3036C34.8384 73.3785 35.8133 72.2503 35.9416 72.1065C36.3734 71.6197 36.7568 71.0921 37.0865 70.5312C37.719 69.4612 38.2183 68.2391 38.7283 67.1049C39.9091 64.4747 40.3876 61.5831 40.1169 58.7127C39.9374 56.8605 39.4476 55.0534 38.9602 53.2583C38.7224 52.3702 38.5453 51.4191 38.2005 50.5667C37.9746 50.0079 37.8046 49.146 37.3065 48.7762C36.8547 48.4291 36.3447 48.3708 35.73 48.4006C34.0846 48.4826 31.7485 48.2983 30.593 49.694C29.334 51.2194 29.6098 53.7564 30.0021 55.4779Z" fill="#145566"/>
<path d="M41.2689 76.4102C41.6077 76.4518 41.9406 76.4102 42.277 76.4031C42.7419 73.1087 42.7347 69.6111 42.8917 66.274L40.3285 66.1848C40.7638 68.0158 41.025 69.8839 41.1084 71.7641C41.1215 72.0625 41.2201 76.4043 41.2689 76.4102Z" fill="#EACDB0"/>
<path d="M42.4364 75.7706C42.6504 75.7515 42.7657 75.855 42.8941 75.9953C42.969 76.0773 43.013 76.1867 43.1081 76.2485C43.2014 76.3034 43.305 76.3387 43.4124 76.3519C44.0199 76.4708 45.4335 76.5659 44.593 77.5253C43.8274 78.3968 42.0441 77.8665 41.0169 77.5253C40.9467 77.5121 40.8821 77.4782 40.8314 77.4278C40.7856 77.3631 40.7555 77.2887 40.7434 77.2103C40.6626 76.7621 40.5473 76.1997 41.1001 76.063C41.3379 76.006 41.5352 76.1819 41.7861 76.113C41.9941 76.0571 42.2236 75.7884 42.4364 75.7706Z" fill="#1E2833"/>
<path d="M37.5906 57.3254C38.1612 59.3393 38.632 61.3544 39.2419 63.3565C40.0146 65.8985 40.4202 68.5379 40.4462 71.1946C40.4557 72.2646 40.4058 73.3572 40.6566 74.4046L43.4623 74.042C44.3528 70.0997 45.1268 66.0433 44.8224 61.9869C44.5181 57.9305 43.3958 54.0215 42.2176 50.1649C42.0591 49.6346 41.8966 49.1048 41.7302 48.5754C41.6327 48.2567 41.5281 47.9251 41.2939 47.6873C41.0597 47.4495 40.6994 47.3306 40.3606 47.2522C39.1005 46.9747 37.788 47.0541 36.5705 47.4816C36.3288 47.5478 36.1095 47.678 35.9357 47.8585C35.6979 48.1497 35.6979 48.5718 35.7241 48.9451C35.9321 51.821 36.8071 54.566 37.5906 57.3254Z" fill="#145566"/>
<path d="M34.5994 33.2046C34.2374 33.4576 33.9031 33.7481 33.602 34.0713C32.6269 35.1358 31.8427 36.3604 31.2837 37.6914C29.9985 40.723 29.7524 44.0518 29.5206 47.314L29.2888 50.5715C29.2127 51.6415 29.2888 51.8792 30.4194 51.8281C32.5165 51.7354 34.7064 51.4714 36.6549 50.6642C37.5823 50.2826 38.4584 49.7749 39.4226 49.4932C40.8255 49.083 42.2105 49.4337 43.5836 49.2043C43.3126 48.1022 42.8703 47.081 42.7051 45.9349C42.5584 44.7858 42.4937 43.6277 42.5113 42.4694C42.5113 40.843 42.4471 39.219 42.4162 37.5951C42.3936 36.3313 42.3983 34.8488 41.6208 33.7764C41.3573 33.4019 40.9997 33.1033 40.5841 32.911C40.281 32.7814 39.7329 32.6981 39.5546 32.3807C39.5414 32.35 39.5353 32.3167 39.5367 32.2832C39.5284 31.8802 39.6556 31.5152 39.2621 31.3714C39.0434 31.2917 38.7319 31.3 38.5012 31.2858C38.1743 31.2656 37.3516 31.1871 37.2589 31.6424C37.2466 31.7654 37.224 31.8871 37.1911 32.0062C37.1815 32.0359 37.1643 32.0626 37.1412 32.0835C37.1092 32.107 37.0714 32.1214 37.0318 32.1251C36.1569 32.3184 35.3297 32.6854 34.5994 33.2046Z" fill="#B5D6CA"/>
<path d="M26.0075 49.0878C26.0421 49.0783 26.0756 49.0651 26.1074 49.0486C26.4082 48.8988 26.4141 48.5635 26.6341 48.3614C26.7327 48.2711 27.131 48.2544 27.0514 48.0488C27.0204 47.9727 26.9408 47.7087 26.8445 47.4543C26.703 47.0751 26.8647 46.6756 26.9765 46.3166C27.1263 45.8355 27.2768 45.354 27.4282 44.8721C27.5476 44.4493 27.7015 44.037 27.8883 43.6393C28.3639 42.6882 29.1521 42.0735 29.8975 41.3721C30.6893 40.6279 31.5334 39.8634 32.211 39.0134C32.4488 38.7126 32.6723 38.3809 32.7401 38.0017C32.9089 37.0506 32.0921 36.6809 31.3075 37.0137C30.9822 37.1646 30.6806 37.3621 30.4123 37.5999C29.6661 38.2128 28.9846 38.9004 28.3781 39.6518C28.0964 40.0025 27.8312 40.3651 27.5661 40.7289C26.9013 41.6292 26.3774 42.6254 26.0123 43.6833C25.8768 44.2099 25.7983 44.7532 25.7079 45.2847C25.6521 45.6116 25.6735 46.3701 25.3132 46.5127C25.2524 46.5306 25.1929 46.5524 25.1349 46.5781C25.0745 46.6173 25.0234 46.6693 24.9851 46.7303C24.8276 46.9441 24.6955 47.1755 24.5916 47.4198C24.4133 47.8562 24.8294 48.4696 25.0315 48.8298C25.077 48.9226 25.1428 49.0038 25.2241 49.0676C25.362 49.1627 25.5451 49.152 25.7127 49.1377C25.8124 49.1313 25.9112 49.1146 26.0075 49.0878V49.0878Z" fill="#EACDB0"/>
<path d="M29.1913 37.5439C28.9631 37.7816 28.742 38.0194 28.5327 38.2655C27.7522 39.1966 27.1498 40.2633 26.7554 41.4124C27.2372 42.0083 27.7711 42.5602 28.3508 43.0614C30.6703 41.1723 33.18 39.8514 35.7325 38.3392C36.6301 37.803 37.555 37.2502 38.1494 36.3919C39.2432 34.8107 38.1221 32.5221 36.1426 32.6291C33.7483 32.7587 31.575 35.222 29.9605 36.783C29.7085 37.0338 29.4434 37.2847 29.1913 37.5439Z" fill="#B5D6CA"/>
<path d="M19.7982 42.8546C19.756 41.2444 19.5794 39.6406 19.2703 38.0599C18.8649 36.0388 18.3311 33.9678 17.0697 32.3331C15.8083 30.6985 13.6482 29.5988 11.6592 30.1528C10.443 30.4916 9.44318 31.3999 8.7679 32.4663C8.09263 33.5327 7.70506 34.756 7.38407 35.977C6.47102 39.4449 6.3985 42.9259 6.03115 46.4758C5.87065 48.0214 5.46049 49.6751 5.76008 51.2313C5.75295 51.1897 8.49447 51.0672 8.82259 51.0577C10.4739 51.009 12.086 51.1766 13.729 51.2551C15.0558 51.3216 16.0984 50.9781 17.4145 51.5618C17.8556 51.7579 18.2681 52.0373 18.7413 52.136C18.7931 52.1524 18.8477 52.1583 18.9018 52.1532C18.9559 52.148 19.0085 52.1321 19.0563 52.1063C19.1005 52.0645 19.1359 52.0142 19.1602 51.9584C19.1845 51.9027 19.1973 51.8426 19.1978 51.7817C19.6032 48.8797 19.8921 45.8434 19.7982 42.8546Z" fill="#F0F1F2"/>
<path d="M15.076 24.1133C15.3538 24.6222 15.5066 25.1898 15.5218 25.7694C15.5289 25.9228 15.5384 26.0999 15.6621 26.1903C15.7857 26.2806 15.6775 26.4994 15.7809 26.371C15.8844 26.2426 16.2256 25.792 16.2422 25.6279C16.2791 25.2448 16.2791 24.859 16.2422 24.4759C16.2113 24.143 16.1436 23.7947 15.926 23.5403C15.7878 23.3964 15.6272 23.276 15.4504 23.1836C15.2132 23.0187 14.9482 22.8979 14.6682 22.827C14.1807 22.7354 13.8811 22.909 14.3115 23.2502C14.6204 23.4851 14.8801 23.7783 15.076 24.1133V24.1133Z" fill="#1A3151"/>
<path d="M12.0158 30.6462C12.0158 30.884 11.9707 31.1217 12.1775 31.3096C12.2835 31.3922 12.411 31.4426 12.5449 31.4546C12.8862 31.5094 13.2355 31.4854 13.5661 31.3845C13.7039 31.3491 13.8317 31.2824 13.9394 31.1895C13.9883 31.1404 14.0257 31.0809 14.0487 31.0155C14.0718 30.9501 14.0799 30.8804 14.0726 30.8114C14.0797 30.6343 14.1166 30.4548 14.1403 30.2729C14.1915 29.8782 14.2152 29.4811 14.2271 29.084C14.812 28.9842 15.4992 28.7975 15.7001 28.1852C15.7538 27.9874 15.7767 27.7825 15.7679 27.5777C15.7758 26.7305 15.7837 25.8828 15.7917 25.0348C15.8125 24.7421 15.7803 24.4481 15.6966 24.1669C15.5206 23.6914 15.0736 23.4036 14.6349 23.2229C13.5162 22.764 12.2096 22.7795 11.1741 23.4274C10.8849 23.5938 10.6452 23.8343 10.4798 24.1241C10.2337 24.5889 10.2635 25.1644 10.3003 25.7017C10.3352 26.1971 10.3693 26.6932 10.4026 27.1902C10.4418 27.7608 10.5214 28.4171 10.9685 28.7202C11.2062 28.8807 11.507 28.9105 11.7091 29.1173C12.0658 29.4799 11.8934 30.0197 11.9968 30.4572C12.0104 30.5192 12.0167 30.5827 12.0158 30.6462V30.6462Z" fill="#EACDB0"/>
<path d="M15.9748 27.24C15.9652 27.0831 15.8975 26.6218 15.6609 26.9119C15.6043 26.9951 15.5756 27.0942 15.5789 27.1948C15.5824 27.2956 15.572 27.3965 15.548 27.4944C15.4742 27.712 15.2329 27.8107 15.0177 27.8059C14.9317 27.8077 14.8466 27.7877 14.7704 27.7476C14.6985 27.7007 14.635 27.6421 14.5826 27.5741L14.1701 27.0985C13.9323 26.8263 13.4567 26.9428 13.1441 26.9796C12.7679 27.0145 12.4087 27.1527 12.1062 27.3791C12.0753 27.4029 12.0456 27.429 12.0158 27.454C11.9471 27.5191 11.8699 27.5747 11.7864 27.6192C11.5023 27.7572 11.1504 27.6121 10.9542 27.3529C10.8627 27.2341 10.7782 27.0807 10.6356 27.0605C10.5782 27.0583 10.5215 27.073 10.4725 27.1028C10.4234 27.1326 10.3842 27.1762 10.3598 27.2281C10.3079 27.337 10.2803 27.4559 10.2789 27.5764C10.2413 28.0143 10.3171 28.4544 10.4989 28.8545C10.909 29.6974 11.7044 29.8056 12.5045 29.7854L13.4556 29.7651C14.0333 29.7521 14.6444 29.7295 15.1319 29.3942C15.5622 29.0994 15.8178 28.5953 15.9236 28.0686C15.9754 27.7957 15.9926 27.5173 15.9748 27.24ZM13.8574 28.4289C13.7138 28.5218 13.5507 28.5803 13.3807 28.5997C13.2107 28.6191 13.0386 28.5989 12.8778 28.5406C12.7339 28.4966 12.7957 28.2553 12.9396 28.3028C13.0703 28.3527 13.2109 28.3709 13.3499 28.356C13.489 28.3411 13.6225 28.2936 13.7397 28.2172C13.8681 28.1281 13.9846 28.3445 13.8574 28.4301V28.4289Z" fill="#1A3151"/>
<path d="M16.1043 22.6462C16.1612 22.4411 16.2029 22.2321 16.2291 22.0208C16.0321 22.0887 15.8212 22.1063 15.6157 22.072V21.7058C15.6157 21.6047 14.2426 21.531 14.132 21.5215C13.0882 21.4335 12.1347 21.3503 11.1896 21.9079C10.3823 22.3834 9.86398 23.0968 9.73915 24.0276C9.62026 24.9157 9.90678 26.0772 10.4192 26.8155C10.4192 26.5777 10.2825 26.0202 10.3383 25.7955C10.3749 25.5706 10.4493 25.3536 10.5583 25.1535C10.7799 24.7534 11.1009 24.4172 11.4903 24.1774C12.1137 23.8108 12.8071 23.5791 13.5257 23.4974C14.176 23.407 14.9689 23.325 15.6121 23.4974C15.92 23.5806 15.9688 23.6579 16.159 23.3464C16.2654 23.1207 16.356 22.888 16.4301 22.6497L16.1043 22.6462Z" fill="#1A3151"/>
<path d="M57.1307 34.6026C57.8226 33.7157 58.7951 33.2295 59.9102 32.5269C60.0971 32.3958 60.3016 32.2922 60.5178 32.219C60.6707 32.1808 60.8274 32.1597 60.985 32.156C61.9361 32.1013 63.7408 31.9562 64.5516 32.5364C65.404 33.1439 65.5633 34.5931 65.7404 35.5311C66.6523 40.264 66.8627 46.364 67.0398 51.1956C66.4621 51.0149 65.8926 50.7949 65.3231 50.5785C62.5436 50.2885 59.2599 50.4062 56.6884 50.6689C55.8753 50.9233 55.0692 51.2003 54.2667 51.4856C54.4724 51.4131 54.4676 47.6183 54.495 47.1962C54.5972 45.6709 54.7328 44.1468 54.9361 42.631C55.2499 40.2949 55.6577 37.9766 56.4816 35.7618C56.6368 35.3442 56.8558 34.9532 57.1307 34.6026V34.6026Z" fill="#145566"/>
<path d="M14.9892 50.9565H0V60.6779H14.9892V50.9565Z" fill="#145566"/>
<path d="M10.5155 50.8412H9.69641V49.1947H5.29762V50.6855H4.47493V48.97C4.47078 48.8049 4.5323 48.645 4.64598 48.5253C4.75967 48.4056 4.91622 48.3359 5.08125 48.3315H9.90921C10.0742 48.3359 10.2308 48.4056 10.3445 48.5253C10.4582 48.645 10.5197 48.8049 10.5155 48.97V50.8412Z" fill="#184462"/>
<path opacity="0.13" d="M14.9892 53.0015L8.29352 54.1558V54.2628L7.12843 54.6944L6.7052 54.8513L7.24494 55.1283V55.4256C7.24447 55.4448 7.24778 55.4639 7.2547 55.4818C7.26161 55.4997 7.27199 55.5161 7.28524 55.53C7.29849 55.5439 7.31435 55.5551 7.33191 55.5629C7.34948 55.5706 7.3684 55.5749 7.38761 55.5753H7.78587C7.80503 55.5749 7.8239 55.5706 7.8414 55.5628C7.8589 55.5551 7.87468 55.5439 7.88783 55.5299C7.90099 55.516 7.91125 55.4996 7.91803 55.4817C7.92482 55.4638 7.92798 55.4447 7.92735 55.4256V55.1283H8.60262L8.61689 54.4222L14.9916 53.6292L14.9892 53.0015Z" fill="black"/>
<path d="M14.9892 53.2428L7.7205 54.4222L0.0012207 53.2428V50.4502H14.9892V53.2428Z" fill="#B5D6CA"/>
<path d="M8.5182 53.9905H6.4912L6.47693 55.0878H7.15339V55.385C7.15275 55.4237 7.16735 55.4611 7.19404 55.4891C7.22073 55.5172 7.25737 55.5336 7.29605 55.5348H7.69432C7.7329 55.5336 7.76942 55.5171 7.79592 55.4891C7.82243 55.461 7.83676 55.4236 7.8358 55.385V55.0878H8.51226L8.5182 53.9905Z" fill="#184462"/>
<path d="M6.91323 49.1994L7.11296 48.9771C7.13792 48.9533 6.49475 47.9499 6.46146 47.8274C6.27957 47.17 6.47335 46.2498 6.51139 45.5686C6.52328 45.3558 6.5316 45.1359 6.53874 44.9124C5.94431 45.0146 5.35939 45.1109 4.76733 45.1977C4.76733 45.1977 4.76733 45.2096 4.76733 45.2155C4.89573 45.955 5.26309 46.7254 5.32253 47.4625C5.38079 48.1675 5.09903 48.9283 5.05028 49.6357L6.05012 50.2301L6.93463 49.7641L6.48524 49.0068L6.69329 48.9961L6.91323 49.1994Z" fill="#EACDB0"/>
<path d="M8.27928 32.5719L3.88049 40.2413L5.00872 47.5765L6.58634 47.2817L7.11182 40.2413L12.5033 34.14C12.8084 33.7952 12.9648 33.3437 12.9383 32.884C12.9118 32.4243 12.7046 31.9937 12.3618 31.6862L11.8649 31.2404C11.525 30.9353 11.079 30.7756 10.6227 30.7956C10.1664 30.8156 9.73606 31.0137 9.42415 31.3474L8.27928 32.5719Z" fill="#F0F1F2"/>
<path d="M49.7622 47.0582C49.4554 47.5148 49.2474 48.0093 49.3354 48.6038C49.3426 48.7003 49.3791 48.7924 49.44 48.8677C49.5022 48.9245 49.5773 48.9653 49.6587 48.9866C49.9636 49.0847 50.2795 49.1442 50.5991 49.1637C50.6891 49.1781 50.7812 49.1604 50.8595 49.1138C50.8993 49.0789 50.9306 49.0354 50.951 48.9866C51.0247 48.8427 51.0901 48.6965 51.1496 48.5479C51.0818 48.5679 51.0108 48.5752 50.9403 48.5693C50.9061 48.5661 50.8735 48.5532 50.8463 48.5322C50.8192 48.5111 50.7986 48.4827 50.787 48.4504C50.7808 48.4154 50.7837 48.3794 50.7953 48.3458C50.9546 47.7989 51.492 48.7274 51.5895 48.1449C51.5974 48.0431 51.5848 47.9409 51.5526 47.8441C51.4817 47.5497 51.4596 47.2457 51.4872 46.9441C51.5098 46.6909 51.6299 46.5328 51.4135 46.3758C51.1971 46.2189 50.8084 46.1488 50.548 46.0513C50.2853 46.3853 49.9952 46.7111 49.7622 47.0582Z" fill="#EBCEB1"/>
<path d="M50.4968 45.9266L51.8759 46.5888L54.6947 41.0689L60.4488 37.4667C60.8828 37.1948 61.1986 36.7695 61.3332 36.2753C61.4678 35.7812 61.4114 35.2545 61.1752 34.8001C61.0377 34.5355 60.8439 34.3043 60.6074 34.1228C60.3708 33.9413 60.0973 33.8139 59.8062 33.7496C59.5151 33.6853 59.2134 33.6857 58.9224 33.7507C58.6314 33.8158 58.3583 33.9439 58.1222 34.126L52.4929 38.4677L50.4968 45.9266Z" fill="#145566"/>
<path d="M90.7469 32.2759L85.4173 30.1621C85.4173 30.1621 83.5234 34.8664 81.3751 42.4074C79.2269 49.9483 82.375 59.5294 82.375 59.5294C82.375 59.5294 94.5834 56.6285 97.0217 56.1494L93.9592 42.3753L90.7469 32.2759Z" fill="#2E4661"/>
<path d="M98.4995 34.2946L99.7562 32.9144L99.2259 32.3152L98.169 33.057L98.0418 32.6504L97.1014 33.9713L97.5734 34.6727L98.4995 34.2946Z" fill="#EBCEB1"/>
<path d="M87.6321 30.6294L90.8254 36.6379L97.4842 33.0796L98.2332 34.5978L90.6031 41.1472L83.3451 33.4993L87.6321 30.6294Z" fill="#2E4661"/>
<path d="M86.152 47.7705L83.4818 53.4188L82.778 63.9913L77.2914 72.8032L79.1234 74.1644L88.1279 66.4107L90.4105 58.3478L92.705 49.6239L86.152 47.7705Z" fill="#2E4661"/>
<path d="M93.9438 50.9696L95.5654 61.7312L94.5002 75.8524L92.8869 76.1259L89.6282 63.052L85.1819 50.1802L93.9438 50.9696Z" fill="#2E4661"/>
<path d="M78.9559 73.8314L79.7286 76.1973L78.8893 76.8143L76.4248 73.7779L77.5851 72.8435L78.9559 73.8314Z" fill="#1A2635"/>
<path d="M94.4123 75.5173L96.7103 76.472L96.6331 77.5099L92.7229 77.4029L92.7705 75.9144L94.4123 75.5173Z" fill="#1A2635"/>
<path d="M90.9229 24.8826C89.4725 24.9896 88.1148 23.7984 86.687 24.0932C85.7585 24.2858 85.0225 25.1097 84.742 26.0382C84.5957 26.4685 84.5784 26.9321 84.692 27.3721C84.7819 27.6487 84.9249 27.9051 85.1129 28.127C85.3569 28.4237 85.6525 28.6738 85.9855 28.8653C85.8035 29.1581 85.5954 29.4338 85.3638 29.6892L87.3682 30.4584C87.5156 30.0732 87.6634 29.6884 87.8116 29.304C88.0123 29.2938 88.2114 29.2635 88.406 29.2136C89.0069 29.0438 89.5507 28.7148 89.98 28.2613C90.4092 27.8078 90.7079 27.2467 90.8444 26.6374C90.9764 26.0631 90.9526 25.4687 90.9229 24.8826Z" fill="#EBCEB1"/>
<path d="M90.5568 25.3199L86.07 24.7873L85.1998 28.2148C84.1405 27.3742 83.0456 26.1818 83.0991 24.6874C83.1293 24.3601 83.2094 24.0393 83.3368 23.7363C83.5255 23.21 83.7149 22.6838 83.9051 22.1575C84.3367 20.9556 84.553 21.4715 85.541 21.5548C86.1948 21.6094 86.8903 21.5548 87.5466 21.5381C88.2599 21.5227 88.9732 21.525 89.6865 21.4929C90.4403 21.4573 90.7565 20.8343 91.4793 20.8723C91.7777 20.8878 92.088 20.9461 92.3662 20.8367C92.6658 20.7178 92.8762 20.4194 93.1889 20.3409C93.4683 20.2708 93.7572 20.3956 94.0092 20.5359C94.2613 20.6762 94.5228 20.8557 94.6239 21.1303C94.6704 21.2777 94.6882 21.4327 94.6762 21.5869C94.6001 24.1572 92.9618 25.0785 91.0918 26.3423L90.5568 25.3199Z" fill="#2E4661"/>
<path d="M88.8151 30.9886L83.4866 28.8748C83.4866 28.8748 81.5916 33.5791 79.4386 41.12C77.2855 48.661 80.4384 58.2479 80.4384 58.2479C80.4384 58.2479 91.3605 52.8517 93.7976 52.3738L92.0274 41.0939L88.8151 30.9886Z" fill="white"/>
<path d="M79.3589 41.2758C81.512 33.7396 83.4011 29.0305 83.4011 29.0305L88.7343 31.1455L88.7438 31.1728C88.6249 31.4808 88.506 31.7875 88.3955 32.099C87.972 33.3311 87.662 34.5993 87.4693 35.8879C87.1329 38.1467 87.0972 40.4792 87.1697 42.7642C87.2372 44.9577 87.4661 47.1432 87.8545 49.303C88.3785 52.1486 89.1805 54.936 90.2489 57.625C85.2913 58.632 79.4588 59.8232 79.4588 59.8232C79.4588 59.8232 77.2059 48.8108 79.3589 41.2758Z" fill="#2E4661"/>
<path d="M99.5006 40.6408C99.6008 40.634 99.6987 40.6075 99.7886 40.5627C99.8785 40.5179 99.9587 40.4557 100.024 40.3798C100.09 40.3039 100.14 40.2157 100.172 40.1203C100.203 40.0249 100.216 39.9242 100.208 39.8241L97.6186 3.11084L96.1005 3.21784L98.6874 39.9346C98.6944 40.0344 98.7209 40.1319 98.7655 40.2214C98.8102 40.3109 98.872 40.3908 98.9476 40.4563C99.0231 40.5219 99.1108 40.572 99.2057 40.6036C99.3006 40.6353 99.4008 40.6479 99.5006 40.6408V40.6408Z" fill="#1A3151"/>
<path d="M98.8312 18.4745C95.2503 16.6603 92.403 16.4059 90.4996 16.4903C85.7608 16.7031 83.5579 19.1712 77.5411 20.1591C75.3943 20.5117 73.2127 20.6035 71.0439 20.4326C70.4046 17.9367 69.9759 15.3915 69.7623 12.8239C69.4758 9.38567 68.8208 5.74419 69.0883 3.31297C70.5006 3.50913 73.4538 4.31755 76.0288 3.98705C82.3417 3.17506 84.7075 0.133952 89.8981 0.00436602C91.7194 -0.0419996 94.3753 0.258782 97.6708 1.98025C98.0576 7.47438 98.4444 12.9725 98.8312 18.4745Z" fill="#3ABABA"/>
<path d="M72.8332 48.3612C72.7589 48.5123 72.7183 48.6779 72.7144 48.8463C72.7144 49.2196 73.0461 49.5251 73.4027 49.6357C73.7594 49.7462 74.1434 49.7011 74.5143 49.6559C74.5916 49.4757 74.625 49.2797 74.6118 49.084C74.6914 49.0068 74.777 49.1696 74.8662 49.2374C74.9851 49.3325 75.1765 49.2041 75.211 49.0531C75.2454 48.9021 75.1896 48.7464 75.1682 48.5918C75.0933 48.0283 75.4915 47.5147 75.5736 46.9524C75.5522 47.1046 74.7414 46.5874 74.7164 46.5839C74.3312 46.5232 74.4655 46.465 74.1029 46.6706C73.5905 46.9572 73.0651 47.8441 72.8332 48.3612Z" fill="#EBCEB1"/>
<path d="M83.4057 29.0352L76.4247 37.7245L73.77 46.9453L75.4713 47.7704L78.6871 41.1473L85.5279 34.1544L83.4057 29.0352Z" fill="#2E4661"/>
<path d="M87.5834 34.7263C87.3313 35.1495 87.0401 35.5656 86.6323 35.8426C86.2134 36.1042 85.7364 36.2582 85.2437 36.2908C83.0598 36.5203 80.7902 35.3576 79.7012 33.4507C79.5895 33.2557 79.4789 33.0441 79.2839 32.9335C79.0978 32.8497 78.892 32.8192 78.6895 32.8455C77.6105 32.8888 76.5359 33.008 75.4736 33.2022C75.6119 34.4851 76.0856 35.7089 76.8469 36.7507C77.6082 37.7925 78.6303 38.6155 79.8106 39.137C80.8889 39.5971 82.0694 39.7885 83.2393 39.8503C84.352 39.9121 85.4874 39.8598 86.5431 39.5008C87.5988 39.1417 88.5642 38.4451 89.0885 37.4583C90.0574 35.6156 89.2585 33.3567 89.5462 31.2953C89.7198 30.0517 88.3847 31.6923 88.3371 31.8005C88.2777 31.9349 88.4726 32.7159 88.4263 32.9644C88.3193 33.5553 87.8842 34.2222 87.5834 34.7263Z" fill="#B5D6CA"/>
<path d="M59.7379 33.9546C59.273 34.769 59.2231 35.8746 59.6523 36.9208C60.0684 37.9385 60.557 37.7055 61.4059 38.4022C59.959 39.4246 59.877 42.48 59.8378 44.249C59.8071 45.6346 59.8946 47.0203 60.0993 48.391C60.1611 48.8023 60.173 50.0019 60.5273 50.2622C60.8816 50.5226 61.929 50.2266 62.3795 50.2896C62.7933 47.4898 63.2117 44.6865 63.3996 41.8629C63.4329 41.3874 63.4578 40.8988 63.3318 40.4363C63.2058 39.9738 63.094 38.5627 62.6423 38.3998C64.0332 37.3227 64.164 36.3395 64.1533 34.58C64.1533 34.1211 64.1177 33.6289 63.8228 33.2722C63.4757 32.8573 62.88 32.7753 62.3415 32.723C61.0944 32.6041 60.2063 33.1319 59.7379 33.9546Z" fill="white"/>
<path d="M60.0827 27.0961C61.1527 25.1202 64.4125 24.8824 64.7192 27.4207C64.812 28.1839 64.8108 28.9769 64.5326 29.6997C64.2544 30.4225 63.6635 31.0633 62.8955 31.2571H62.8825C62.7505 31.2904 63.1297 32.6398 63.1547 32.7468C63.1993 32.912 63.2241 33.0821 63.2284 33.2532C63.2284 33.6325 63.0216 33.9832 62.8052 34.3018C62.6065 34.5937 62.3918 34.8743 62.162 35.1423C62.1442 35.1679 62.12 35.1884 62.0919 35.2017C62.0217 35.2291 61.948 35.172 61.8969 35.1197C61.4824 34.6964 61.1438 34.205 60.8959 33.6669C60.8374 33.5468 60.7973 33.4186 60.777 33.2865C60.7663 33.1348 60.7819 32.9823 60.8233 32.8359C60.9196 32.4222 61.526 31.4818 61.3845 31.1121C61.331 30.9718 60.9458 30.7946 60.8245 30.6817C60.6271 30.4941 60.4556 30.281 60.3145 30.048C59.7867 29.1897 59.5869 28.0103 60.0827 27.0961Z" fill="#EACDB0"/>
<path d="M64.542 28.0604C64.762 28.6679 64.5884 29.3158 64.3601 29.8972C64.1319 30.4785 64.0689 31.0539 63.7907 31.6056C63.8335 31.7102 63.994 31.6816 64.101 31.6341C64.7263 31.3567 65.3477 31.0718 65.9651 30.7793C66.0294 30.754 66.0878 30.7155 66.1363 30.6664C66.1865 30.5966 66.2161 30.5143 66.2219 30.4286C66.4811 28.7701 66.0947 27.435 65.4408 25.9418C65.1234 25.2166 64.0463 24.2596 63.1665 24.854C62.9787 25.0044 62.837 25.2047 62.7576 25.4318C62.6937 25.5584 62.6565 25.6968 62.6482 25.8384C62.6482 26.4007 63.1808 26.4839 63.5505 26.7419C64.0058 27.072 64.3513 27.5314 64.542 28.0604V28.0604Z" fill="#2E4661"/>
<path d="M60.3929 28.3004C60.2902 28.7951 60.2638 29.3027 60.3144 29.8055C60.3299 29.9695 60.5522 30.3999 60.5391 30.5009C60.4963 30.8089 59.6796 31.3783 59.4489 31.6054L56.7811 29.3347C56.7081 29.2829 56.6506 29.2122 56.6147 29.1302C56.5939 29.0523 56.5939 28.9703 56.6147 28.8924C56.9191 27.3469 57.6573 26.0498 58.5965 24.7908C59.5357 23.5318 61.1752 22.6984 62.7694 23.1419C64.0594 23.4985 64.7572 24.6196 63.9761 25.8049C63.3876 26.7001 62.074 26.6371 61.2287 27.1507C60.702 27.4741 60.4821 27.8617 60.3929 28.3004Z" fill="#2E4661"/>
<path d="M13.2095 44.9743C13.1393 45.3369 13.0632 45.7066 13.1203 46.0716C13.2332 46.7849 13.8205 47.3092 14.371 47.7729C15.1247 47.3675 15.548 46.5139 15.6787 45.6662C15.8095 44.8185 15.6787 43.9578 15.6062 43.1042C15.3054 39.6838 15.7251 36.0103 14.0262 33.0274L14.6385 32.8265C14.7443 32.2321 13.9252 31.8873 13.3509 32.0573C13.005 32.1584 12.5401 32.5233 12.4997 32.9121C12.4165 33.7086 12.9313 33.22 13.1976 33.5826C13.7789 34.372 13.6731 36.2504 13.7266 37.2312C13.8753 39.8237 13.7016 42.4246 13.2095 44.9743V44.9743Z" fill="#145566"/>
</svg>
