<svg width="83" height="79" viewBox="0 0 83 79" fill="none" xmlns="http://www.w3.org/2000/svg">
<path d="M51.3877 32.9021L30.7345 51.0696L27.0029 46.5825L49.0516 26.4351" fill="#B6CECC"/>
<path d="M51.3877 32.9021L30.7345 51.0696L27.0029 46.5825L49.0516 26.4351" stroke="#640917" stroke-width="0.4" stroke-miterlimit="10"/>
<path d="M67.156 63.2231L65.4614 65.772L59.0175 68.1467L57.3213 67.2801V63.6626L67.156 63.2231Z" fill="#C68671"/>
<path d="M48.5026 76.4597H57.446V59.8758H48.5026V76.4597Z" fill="#C68671" stroke="#640917" stroke-width="0.4" stroke-miterlimit="10" stroke-linecap="round"/>
<path d="M65.267 64.2364C66.1213 63.1724 66.4697 61.7985 66.4697 60.329L66.516 59.8772H48.498V66.5678" fill="#C68671"/>
<path d="M65.267 64.2364C66.1213 63.1724 66.4697 61.7985 66.4697 60.329L66.516 59.8772H48.498V66.5678" stroke="#640917" stroke-width="0.4" stroke-miterlimit="10" stroke-linecap="round"/>
<path d="M57.4802 65.5254H53.2876" stroke="#640917" stroke-width="0.4" stroke-miterlimit="10" stroke-linecap="round"/>
<path d="M61.2502 59.8772C61.2487 61.0419 61.7089 62.1598 62.5301 62.9858L63.0605 63.5178" fill="#C68671"/>
<path d="M61.2502 59.8772C61.2487 61.0419 61.7089 62.1598 62.5301 62.9858L63.0605 63.5178" stroke="#640917" stroke-width="0.4" stroke-miterlimit="10" stroke-linecap="round"/>
<path d="M66.4237 64.4353V76.4596H57.4802V65.5255" fill="#C68671"/>
<path d="M66.4237 64.4353V76.4596H57.4802V65.5255" stroke="#640917" stroke-width="0.4" stroke-miterlimit="10" stroke-linecap="round"/>
<path opacity="0.21" d="M66.4235 62.6943H48.4934V65.5254H66.4235V62.6943Z" fill="#640917"/>
<path opacity="0.27" d="M54.5181 76.4597H57.4802V65.6937H54.5181V76.4597Z" fill="#64121A"/>
<path d="M68.0365 31.2674L68.0674 32.2265L66.8677 62.6944H47.3679V30.0045C47.3683 28.7215 47.8783 27.4911 48.7857 26.584C49.6931 25.6769 50.9236 25.1674 52.2066 25.1674H60.9882C64.0089 25.0656 68.0365 26.8882 68.0365 31.2674Z" fill="#CDE0DF" stroke="#640917" stroke-width="0.4" stroke-miterlimit="10"/>
<path d="M52.8928 25.4326V39.4661L59.9751 25.9276L52.8928 25.4326Z" fill="white" stroke="#640917" stroke-width="0.4" stroke-miterlimit="10" stroke-linecap="round"/>
<path d="M60.4362 21.1953V24.2345C60.4362 24.3271 60.4362 24.418 60.4254 24.509C60.3569 25.3542 59.9727 26.1427 59.3492 26.7175C58.7258 27.2924 57.9089 27.6115 57.0609 27.6115H53.4927C53.3799 27.6115 53.2716 27.5666 53.1918 27.4868C53.112 27.407 53.0671 27.2988 53.0671 27.1859V22.3132L60.4362 21.1953Z" fill="#FFEDD9" stroke="#640917" stroke-width="0.4" stroke-miterlimit="10" stroke-linecap="round"/>
<path d="M60.4361 21.479V24.2345C60.4361 24.327 60.4361 24.418 60.4253 24.509C59.2879 25.1205 58.0159 25.4385 56.7245 25.4342H55.4509C54.6356 25.4355 53.8274 25.2833 53.0685 24.9855L53.0408 24.9762V22.6139H53.0685L60.4361 21.479Z" fill="#FCD3B6"/>
<path d="M60.4236 21.1953V24.2345C60.4236 24.3271 60.4236 24.418 60.4113 24.509C60.3427 25.3542 59.9585 26.1427 59.3351 26.7175C58.7117 27.2924 57.8947 27.6115 57.0467 27.6115H53.6543C53.4947 27.6111 53.3418 27.5474 53.229 27.4343C53.1163 27.3213 53.053 27.1682 53.053 27.0086V22.321L60.4236 21.1953Z" stroke="#640917" stroke-width="0.4" stroke-miterlimit="10" stroke-linecap="round"/>
<path d="M62.661 10.1931V15.6471C62.6612 16.6751 62.4589 17.693 62.0657 18.6428C61.6724 19.5926 61.0959 20.4557 60.3691 21.1826C59.6423 21.9096 58.7794 22.4863 57.8296 22.8797C56.8799 23.2732 55.862 23.4757 54.834 23.4757H53.5619C51.8242 23.4757 50.1577 22.7854 48.929 21.5567C47.7003 20.328 47.01 18.6615 47.01 16.9238V8.921C47.01 7.85771 47.4324 6.83797 48.1843 6.08611C48.9361 5.33425 49.9559 4.91187 51.0191 4.91187H58.6442C59.7075 4.91187 60.7272 5.33425 61.4791 6.08611C62.2309 6.83797 62.6533 7.85771 62.6533 8.921V10.8531" fill="#FFEDD9"/>
<path d="M49.9676 11.1399H47.0085V13.4729H49.9676V11.1399Z" fill="#FCD3B6"/>
<path d="M52.4395 11.1399H56.5365V12.8006C56.5365 12.8889 56.5191 12.9763 56.4853 13.0579C56.4515 13.1394 56.402 13.2136 56.3396 13.276C56.2771 13.3384 56.203 13.3879 56.1215 13.4217C56.0399 13.4555 55.9525 13.4729 55.8642 13.4729H53.158C52.9674 13.4729 52.7847 13.3972 52.6499 13.2624C52.5152 13.1277 52.4395 12.9449 52.4395 12.7543V11.1399Z" fill="#FCD3B6"/>
<path d="M62.6612 10.2381V15.6921C62.6604 17.767 61.8356 19.7567 60.3681 21.2236C58.9006 22.6905 56.9106 23.5145 54.8357 23.5145H53.5636H53.3123C55.3393 23.4438 57.2597 22.5892 58.6691 21.1306C60.0785 19.672 60.8668 17.7234 60.8679 15.6952V8.96909C60.8679 7.90741 60.4468 6.88907 59.6969 6.13747C58.9471 5.38588 57.9297 4.96241 56.8681 4.95996H58.6444C59.7077 4.95996 60.7274 5.38235 61.4793 6.13421C62.2311 6.88607 62.6535 7.9058 62.6535 8.96909V10.8966L62.6612 10.2381Z" fill="#FCD3B6"/>
<path d="M62.661 10.1931V15.6471C62.6612 16.6751 62.4589 17.693 62.0657 18.6428C61.6724 19.5926 61.0959 20.4557 60.3691 21.1827C59.6423 21.9096 58.7794 22.4863 57.8296 22.8797C56.8799 23.2732 55.862 23.4757 54.834 23.4757H53.5619C51.8242 23.4757 50.1577 22.7854 48.929 21.5567C47.7003 20.328 47.01 18.6615 47.01 16.9238V8.921C47.01 7.85771 47.4324 6.83797 48.1843 6.08611C48.9361 5.33425 49.9559 4.91187 51.0191 4.91187H58.6442C59.7075 4.91187 60.7272 5.33425 61.4791 6.08611C62.2309 6.83797 62.6533 7.85771 62.6533 8.921V10.8531" stroke="#640917" stroke-width="0.4" stroke-miterlimit="10" stroke-linecap="round"/>
<path d="M51.3199 18.0264C51.0062 18.0264 50.7054 17.9018 50.4836 17.68C50.2618 17.4582 50.1372 17.1573 50.1372 16.8437V14.1899" stroke="#640917" stroke-width="0.4" stroke-miterlimit="10" stroke-linecap="round"/>
<path d="M56.0292 11.3251H52.9853C52.8512 11.3247 52.7226 11.2713 52.6276 11.1766C52.5326 11.0819 52.4788 10.9535 52.478 10.8193C52.478 10.6848 52.5315 10.5557 52.6266 10.4606C52.7218 10.3655 52.8508 10.312 52.9853 10.312H56.0292C56.0957 10.312 56.1616 10.3251 56.2231 10.3507C56.2846 10.3762 56.3404 10.4136 56.3874 10.4607C56.4344 10.5078 56.4716 10.5638 56.4969 10.6253C56.5222 10.6868 56.5352 10.7528 56.535 10.8193C56.5346 10.9533 56.4811 11.0817 56.3864 11.1765C56.2916 11.2713 56.1632 11.3247 56.0292 11.3251Z" fill="#F2E2E2" stroke="#640917" stroke-width="0.4" stroke-miterlimit="10" stroke-linecap="round"/>
<path d="M63.6094 7.86949C63.609 6.04825 62.8855 4.30167 61.598 3.01357C60.3105 1.72547 58.5642 1.00123 56.743 1C56.726 1 56.7106 1 56.7892 1.01079L45.687 1V3.939C45.6947 6.71456 47.2629 8.9643 50.04 8.9643H51.5974C53.2952 8.96628 54.9586 8.48493 56.3929 7.57652L56.4377 7.54876C56.664 7.40245 56.9225 7.31331 57.1909 7.28902C57.4594 7.26473 57.7297 7.30602 57.9786 7.40933C58.2275 7.51263 58.4476 7.67487 58.62 7.88208C58.7924 8.08928 58.9118 8.33526 58.968 8.59885L59.0451 8.9643L60.089 13.7814C60.1333 13.9832 60.2389 14.1663 60.3913 14.3056C60.5438 14.445 60.7356 14.5338 60.9405 14.5598C61.1454 14.5858 61.3533 14.5478 61.5358 14.4509C61.7182 14.3541 61.8662 14.2032 61.9595 14.0189L63.6125 12.6311V7.86949H63.6094Z" fill="white" stroke="#640917" stroke-width="0.4" stroke-miterlimit="10" stroke-linecap="round"/>
<path d="M49.4618 11.3251H47.5159C47.3816 11.3251 47.2528 11.2719 47.1577 11.177C47.0626 11.0822 47.009 10.9536 47.0085 10.8193C47.0085 10.6848 47.062 10.5557 47.1571 10.4606C47.2523 10.3655 47.3813 10.312 47.5159 10.312H49.4618C49.5964 10.312 49.7254 10.3655 49.8205 10.4606C49.9157 10.5557 49.9691 10.6848 49.9691 10.8193C49.9683 10.9535 49.9146 11.0819 49.8196 11.1766C49.7245 11.2713 49.596 11.3247 49.4618 11.3251Z" fill="#F2E2E2" stroke="#640917" stroke-width="0.4" stroke-miterlimit="10" stroke-linecap="round"/>
<path d="M52.8928 13.473C52.8928 13.6663 52.9502 13.8553 53.0576 14.0161C53.165 14.1769 53.3177 14.3022 53.4963 14.3762C53.675 14.4502 53.8715 14.4695 54.0612 14.4318C54.2508 14.3941 54.425 14.301 54.5617 14.1642C54.6984 14.0275 54.7915 13.8533 54.8293 13.6637C54.867 13.4741 54.8476 13.2775 54.7736 13.0989C54.6996 12.9202 54.5743 12.7675 54.4136 12.6601C54.2528 12.5527 54.0638 12.4954 53.8704 12.4954C53.7421 12.4954 53.6149 12.5206 53.4963 12.5698C53.3777 12.6189 53.2699 12.6909 53.1792 12.7817C53.0884 12.8725 53.0164 12.9802 52.9672 13.0989C52.9181 13.2175 52.8928 13.3446 52.8928 13.473Z" fill="white" stroke="#640917" stroke-width="0.4" stroke-miterlimit="10" stroke-linecap="round"/>
<path d="M47.2476 13.473C47.2476 13.6663 47.3049 13.8553 47.4123 14.0161C47.5197 14.1769 47.6724 14.3022 47.851 14.3762C48.0297 14.4502 48.2262 14.4695 48.4159 14.4318C48.6055 14.3941 48.7797 14.301 48.9164 14.1642C49.0532 14.0275 49.1463 13.8533 49.184 13.6637C49.2217 13.4741 49.2024 13.2775 49.1284 13.0989C49.0544 12.9202 48.9291 12.7675 48.7683 12.6601C48.6075 12.5527 48.4185 12.4954 48.2252 12.4954C48.0968 12.4954 47.9697 12.5206 47.851 12.5698C47.7324 12.6189 47.6247 12.6909 47.5339 12.7817C47.4431 12.8725 47.3711 12.9802 47.322 13.0989C47.2728 13.2175 47.2476 13.3446 47.2476 13.473Z" fill="white" stroke="#640917" stroke-width="0.4" stroke-miterlimit="10" stroke-linecap="round"/>
<path d="M53.3416 13.9895C53.3404 14.0691 53.3629 14.1473 53.4063 14.214C53.4496 14.2808 53.5119 14.3331 53.5851 14.3644C53.6584 14.3956 53.7392 14.4044 53.8174 14.3895C53.8957 14.3746 53.9677 14.3367 54.0243 14.2808C54.0809 14.2248 54.1196 14.1532 54.1354 14.0752C54.1512 13.9972 54.1434 13.9162 54.113 13.8426C54.0826 13.769 54.031 13.7061 53.9648 13.662C53.8985 13.6178 53.8206 13.5944 53.741 13.5947C53.636 13.5951 53.5353 13.6367 53.4606 13.7105C53.386 13.7843 53.3432 13.8845 53.3416 13.9895Z" fill="#640917" stroke="#640917" stroke-width="0.4" stroke-miterlimit="10" stroke-linecap="round"/>
<path d="M47.6963 13.9895C47.6951 14.069 47.7176 14.1471 47.7609 14.2139C47.8042 14.2806 47.8664 14.3329 47.9395 14.3642C48.0126 14.3955 48.0934 14.4044 48.1716 14.3896C48.2498 14.3748 48.3218 14.3371 48.3785 14.2813C48.4352 14.2255 48.474 14.1541 48.4899 14.0762C48.5059 13.9982 48.4984 13.9173 48.4682 13.8437C48.438 13.7701 48.3867 13.7071 48.3206 13.6627C48.2546 13.6184 48.1768 13.5947 48.0973 13.5947C47.9919 13.5943 47.8906 13.6356 47.8155 13.7095C47.7404 13.7835 47.6976 13.8841 47.6963 13.9895Z" fill="#640917" stroke="#640917" stroke-width="0.4" stroke-miterlimit="10" stroke-linecap="round"/>
<path d="M53.8379 42.1785C53.8382 42.2726 53.8664 42.3646 53.9189 42.4427C53.9715 42.5209 54.046 42.5817 54.1331 42.6176C54.2202 42.6534 54.3159 42.6626 54.4083 42.644C54.5006 42.6255 54.5853 42.58 54.6518 42.5133C54.7183 42.4466 54.7635 42.3617 54.7818 42.2693C54.8 42.1769 54.7905 42.0812 54.7544 41.9942C54.7183 41.9072 54.6572 41.8329 54.5789 41.7806C54.5006 41.7283 54.4085 41.7004 54.3144 41.7004C54.2517 41.7004 54.1896 41.7128 54.1317 41.7369C54.0738 41.7609 54.0212 41.7961 53.9769 41.8405C53.9326 41.8849 53.8976 41.9377 53.8737 41.9956C53.8499 42.0536 53.8377 42.1158 53.8379 42.1785Z" fill="#CDE0DF" stroke="#640917" stroke-width="0.4" stroke-miterlimit="10"/>
<path d="M53.8379 45.9162C53.8382 46.0104 53.8664 46.1024 53.9189 46.1805C53.9715 46.2587 54.046 46.3195 54.1331 46.3553C54.2202 46.3912 54.3159 46.4004 54.4083 46.3818C54.5006 46.3633 54.5853 46.3178 54.6518 46.2511C54.7183 46.1844 54.7635 46.0995 54.7818 46.0071C54.8 45.9147 54.7905 45.819 54.7544 45.732C54.7183 45.645 54.6572 45.5707 54.5789 45.5184C54.5006 45.4661 54.4085 45.4382 54.3144 45.4382C54.2517 45.4382 54.1896 45.4506 54.1317 45.4746C54.0738 45.4987 54.0212 45.5339 53.9769 45.5783C53.9326 45.6227 53.8976 45.6754 53.8737 45.7334C53.8499 45.7914 53.8377 45.8535 53.8379 45.9162Z" fill="#B57261" stroke="#640917" stroke-width="0.4" stroke-miterlimit="10"/>
<path d="M53.8379 49.5492C53.8379 49.6435 53.8658 49.7356 53.9182 49.8139C53.9705 49.8923 54.045 49.9534 54.132 49.9894C54.2191 50.0255 54.3149 50.0349 54.4073 50.0165C54.4997 49.9982 54.5846 49.9528 54.6513 49.8861C54.7179 49.8195 54.7633 49.7346 54.7817 49.6422C54.8001 49.5498 54.7906 49.454 54.7546 49.3669C54.7185 49.2798 54.6574 49.2054 54.5791 49.1531C54.5007 49.1007 54.4086 49.0728 54.3144 49.0728C54.188 49.0728 54.0668 49.123 53.9774 49.2123C53.8881 49.3017 53.8379 49.4229 53.8379 49.5492Z" fill="#B57261" stroke="#640917" stroke-width="0.4" stroke-miterlimit="10"/>
<path d="M53.8379 53.2375C53.8379 53.3317 53.8658 53.4238 53.9182 53.5022C53.9705 53.5805 54.045 53.6416 54.132 53.6777C54.2191 53.7137 54.3149 53.7232 54.4073 53.7048C54.4997 53.6864 54.5846 53.641 54.6513 53.5744C54.7179 53.5077 54.7633 53.4228 54.7817 53.3304C54.8001 53.238 54.7906 53.1422 54.7546 53.0551C54.7185 52.9681 54.6574 52.8936 54.5791 52.8413C54.5007 52.7889 54.4086 52.761 54.3144 52.761C54.188 52.761 54.0668 52.8112 53.9774 52.9005C53.8881 52.9899 53.8379 53.1111 53.8379 53.2375Z" fill="#B57261" stroke="#640917" stroke-width="0.4" stroke-miterlimit="10"/>
<path d="M52.8928 29.3201V62.7131" stroke="#640917" stroke-width="0.4" stroke-miterlimit="10"/>
<path d="M52.8928 39.4661L60.4362 25.1736H61.7222C61.7905 25.1737 61.8581 25.1877 61.9209 25.2148C61.9837 25.2418 62.0403 25.2814 62.0873 25.331C62.1343 25.3806 62.1707 25.4392 62.1944 25.5034C62.218 25.5675 62.2284 25.6358 62.2249 25.704L61.9519 30.9853L59.9751 31.5358V34.5041L52.8928 39.4661Z" fill="#CDE0DF" stroke="#640917" stroke-width="0.4" stroke-miterlimit="10"/>
<path d="M52.8926 24.791L51.7962 25.3955L50.4424 29.8965L51.2242 31.0946L50.6598 33.6928L52.8926 39.2748V24.791Z" fill="#CDE0DF" stroke="#640917" stroke-width="0.4" stroke-miterlimit="10"/>
<g opacity="0.18">
<path opacity="0.18" d="M58.9143 8.40601C58.9359 8.46918 58.954 8.53353 58.9683 8.59875L59.0469 8.96574L60.0908 13.7798C60.1345 13.9821 60.2399 14.1659 60.3923 14.3059C60.5448 14.4458 60.737 14.5351 60.9423 14.5613C61.1476 14.5875 61.356 14.5494 61.5388 14.4522C61.7215 14.3551 61.8697 14.2036 61.9628 14.0188L63.6127 12.631V8.40601H58.9143Z" fill="#640917" stroke="#640917" stroke-width="0.4" stroke-miterlimit="10" stroke-linecap="round"/>
</g>
<path d="M60.8618 14.5878C60.8615 14.1581 61.0028 13.7404 61.2639 13.3991C61.5249 13.0579 61.8912 12.8122 62.306 12.7002C62.7207 12.5881 63.1609 12.6159 63.5583 12.7793C63.9556 12.9426 64.2881 13.2324 64.5042 13.6038C64.7202 13.9751 64.8078 14.4073 64.7535 14.8335C64.6991 15.2597 64.5057 15.6561 64.2033 15.9613C63.9009 16.2665 63.5064 16.4635 63.0807 16.5218C62.655 16.5802 62.222 16.4966 61.8487 16.2839" fill="#FCD3B6"/>
<path d="M60.8618 14.5878C60.8615 14.1581 61.0028 13.7404 61.2639 13.3991C61.5249 13.0579 61.8912 12.8122 62.306 12.7002C62.7207 12.5881 63.1609 12.6159 63.5583 12.7793C63.9556 12.9426 64.2881 13.2324 64.5042 13.6038C64.7202 13.9751 64.8078 14.4073 64.7535 14.8335C64.6991 15.2597 64.5057 15.6561 64.2033 15.9613C63.9009 16.2665 63.5064 16.4635 63.0807 16.5218C62.655 16.5802 62.222 16.4966 61.8487 16.2839" stroke="#640917" stroke-width="0.4" stroke-miterlimit="10" stroke-linecap="round"/>
<path d="M62.8171 13.7922C63.0276 13.7931 63.2292 13.8772 63.3778 14.0264C63.5263 14.1755 63.6097 14.3774 63.6097 14.5879" fill="#FFF3E4"/>
<path d="M62.8171 13.7922C63.0276 13.7931 63.2292 13.8772 63.3778 14.0264C63.5263 14.1755 63.6097 14.3774 63.6097 14.5879" stroke="#640917" stroke-width="0.4" stroke-miterlimit="10" stroke-linecap="round"/>
<path d="M60.7738 25.3139V24.1004C60.7738 23.972 60.7228 23.8488 60.632 23.758C60.5412 23.6672 60.4181 23.6162 60.2897 23.6162L54.8357 26.7742L54.8496 31.3415L60.7738 25.3139Z" fill="#F7F0ED" stroke="#640917" stroke-width="0.4" stroke-miterlimit="10"/>
<path d="M52.9529 30.5335L51.7964 26.8636L52.0693 24.859C52.1033 24.6095 52.2265 24.3808 52.4162 24.2152C52.6058 24.0496 52.8491 23.9584 53.1009 23.9585V26.936L52.9467 30.535" fill="#F7F0ED"/>
<path d="M52.9529 30.5335L51.7964 26.8636L52.0693 24.859C52.1033 24.6095 52.2265 24.3808 52.4162 24.2152C52.6058 24.0496 52.8491 23.9584 53.1009 23.9585V23.9585V26.936L52.9467 30.535" stroke="#640917" stroke-width="0.4" stroke-miterlimit="10" stroke-linecap="round"/>
<path d="M53.1565 29.3137H54.4348C54.6639 29.3137 54.8496 29.128 54.8496 28.8989V27.1889C54.8496 26.9598 54.6639 26.7741 54.4348 26.7741H53.1565C52.9274 26.7741 52.7417 26.9598 52.7417 27.1889V28.8989C52.7417 29.128 52.9274 29.3137 53.1565 29.3137Z" fill="#E25959" stroke="#640917" stroke-width="0.4" stroke-miterlimit="10" stroke-linecap="round"/>
<path d="M54.7602 29.3136L52.8928 29.3013V39.2748L55.013 35.4491L54.7602 29.3136Z" fill="#E25959" stroke="#640917" stroke-width="0.4" stroke-miterlimit="10" stroke-linecap="round"/>
<path d="M51.6668 20.9703C51.2354 20.9703 50.8216 20.7989 50.5165 20.4938C50.2114 20.1887 50.04 19.775 50.04 19.3435H53.2936C53.2936 19.775 53.1222 20.1887 52.8171 20.4938C52.512 20.7989 52.0983 20.9703 51.6668 20.9703Z" fill="white" stroke="#640917" stroke-width="0.4" stroke-miterlimit="10"/>
<path d="M61.5417 40.6348C61.5417 37.6449 62.7445 33.0175 61.3999 31.3938C60.6906 30.538 58.8417 31.8286 58.868 31.8872L61.5417 40.6348Z" fill="#EDB67A" stroke="#640917" stroke-width="0.4" stroke-miterlimit="10" stroke-linecap="round"/>
<path d="M43.9785 57.9605C43.2622 57.9598 42.5707 57.6978 42.0339 57.2234C41.4972 56.7491 41.152 56.0952 41.0632 55.3844C40.9744 54.6736 41.1482 53.9548 41.5518 53.363C41.9554 52.7713 42.5611 52.3472 43.2553 52.1704C43.3679 52.1411 47.6669 50.9877 52.1479 47.5891C58.0567 43.1066 61.5323 36.9603 62.4791 29.3198C62.5266 28.9367 62.649 28.5667 62.8395 28.2309C63.03 27.8951 63.2848 27.6002 63.5893 27.3628C63.8937 27.1255 64.242 26.9505 64.6141 26.8477C64.9863 26.745 65.375 26.7165 65.7581 26.764C66.1412 26.8115 66.5112 26.934 66.847 27.1245C67.1828 27.315 67.4778 27.5697 67.7151 27.8742C67.9524 28.1787 68.1275 28.5269 68.2302 28.8991C68.333 29.2712 68.3614 29.6599 68.3139 30.043C66.8691 41.7158 60.5424 48.6624 55.4893 52.434C50.0446 56.4987 44.9098 57.8171 44.6955 57.871C44.4611 57.9303 44.2203 57.9604 43.9785 57.9605Z" fill="#CDE0DF" stroke="#640917" stroke-width="0.4" stroke-miterlimit="10"/>
<path d="M36.9673 76.4612H9.25802L9.25802 52.923C9.25802 52.1124 9.58001 51.335 10.1532 50.7619C10.7263 50.1888 11.5037 49.8668 12.3142 49.8668H33.9018C34.7124 49.8668 35.4897 50.1888 36.0629 50.7619C36.636 51.335 36.958 52.1124 36.958 52.923V76.4612H36.9673Z" fill="#FF9F36" stroke="#640917" stroke-width="0.4" stroke-miterlimit="10" stroke-linecap="round"/>
<path d="M14.6072 51.5908V76.4598H34.6729V51.5908C34.6729 48.4159 32.2057 45.8408 29.1742 45.8408H20.1059C17.0697 45.8408 14.6072 48.4159 14.6072 51.5908Z" fill="#E25959" stroke="#640917" stroke-width="0.4" stroke-miterlimit="10" stroke-linecap="round"/>
<path d="M14.729 52.2986V62.9536C14.7323 65.6763 15.8153 68.2865 17.7405 70.2117C19.6657 72.1369 22.2759 73.2199 24.9985 73.2232H36.4477C37.1293 73.2211 37.7823 72.9489 38.2636 72.4662C38.7448 71.9835 39.0151 71.3297 39.0151 70.6481C39.0151 69.2264 36.7916 68.1485 36.4415 68.073H24.9924C23.6349 68.0717 22.3333 67.532 21.3733 66.5723C20.4132 65.6125 19.8731 64.3111 19.8715 62.9536V53.1374" fill="#FFEDD9"/>
<path d="M14.729 52.2986V62.9536C14.7323 65.6763 15.8153 68.2865 17.7405 70.2117C19.6657 72.1369 22.2759 73.2199 24.9985 73.2232H36.4477C37.1293 73.2211 37.7823 72.9489 38.2636 72.4662C38.7448 71.9835 39.0151 71.3297 39.0151 70.6481C39.0151 69.2264 36.7916 68.1485 36.4415 68.073H24.9924C23.6349 68.0717 22.3333 67.532 21.3733 66.5723C20.4132 65.6125 19.8731 64.3111 19.8715 62.9536V53.1374" stroke="#640917" stroke-width="0.4" stroke-miterlimit="10" stroke-linecap="round"/>
<path d="M13.6897 52.2986V62.9536C13.693 65.6763 14.776 68.2865 16.7012 70.2117C18.6264 72.1369 21.2366 73.2199 23.9592 73.2232H35.4084C36.0911 73.2228 36.7457 72.9513 37.2283 72.4684C37.7109 71.9855 37.9819 71.3308 37.9819 70.6481C37.9819 69.2264 35.7584 68.1485 35.4084 68.073H23.9592C22.6017 68.0717 21.3002 67.532 20.3401 66.5723C19.3801 65.6125 18.84 64.3111 18.8383 62.9536V53.1374" stroke="#640917" stroke-width="0.4" stroke-miterlimit="10" stroke-linecap="round"/>
<path d="M22.0161 42.5547V45.4952C22.0161 45.5847 22.0161 45.6726 22.0269 45.7605C22.0935 46.5803 22.4664 47.345 23.0713 47.9025C23.6761 48.4599 24.4687 48.7692 25.2913 48.7688H26.8471C27.2814 48.7742 27.7086 48.6591 28.0815 48.4365C28.4544 48.2139 28.7583 47.8923 28.9596 47.5075C29.0889 47.2585 29.159 46.9831 29.1647 46.7026V43.6387L22.0161 42.5547Z" fill="#FFEDD9" stroke="#640917" stroke-width="0.4" stroke-miterlimit="10" stroke-linecap="round"/>
<path d="M22.0161 42.8291V45.4952C22.0161 45.5846 22.0161 45.6725 22.0269 45.7604C23.1302 46.3556 24.3646 46.6661 25.6182 46.664H26.8517C27.6431 46.6651 28.4277 46.5176 29.1647 46.2292C29.1737 46.2268 29.1824 46.2237 29.1909 46.2199V43.9301H29.1647L22.0161 42.8291Z" fill="#FCD3B6"/>
<path d="M22.0303 42.5547V45.4952C22.0303 45.5847 22.0303 45.6726 22.0411 45.7605C22.1073 46.5802 22.4799 47.3449 23.0845 47.9024C23.6891 48.4598 24.4815 48.7692 25.3039 48.7688H27.0802C27.6267 48.7726 28.1528 48.5616 28.545 48.1811C28.9373 47.8007 29.1644 47.2813 29.1773 46.735V43.6387L22.0303 42.5547Z" stroke="#640917" stroke-width="0.4" stroke-miterlimit="10" stroke-linecap="round"/>
<path d="M18.7813 31.9259V37.2149C18.7808 38.2119 18.9769 39.1993 19.3582 40.1206C19.7396 41.0419 20.2987 41.879 21.0036 42.5841C21.7086 43.2892 22.5456 43.8485 23.4668 44.23C24.388 44.6115 25.3753 44.8078 26.3724 44.8076H27.606C28.4403 44.8078 29.2665 44.6436 30.0374 44.3244C30.8082 44.0052 31.5087 43.5372 32.0986 42.9473C32.6886 42.3573 33.1565 41.6569 33.4757 40.886C33.7949 40.1152 33.9591 39.289 33.9589 38.4546V30.8496C33.9589 28.837 33.1595 26.9068 31.7365 25.4835C30.3135 24.0602 28.3835 23.2604 26.3708 23.26C25.3742 23.26 24.3872 23.4563 23.4664 23.8377C22.5456 24.2191 21.7089 24.7782 21.0042 25.483C20.2994 26.1877 19.7404 27.0244 19.359 27.9452C18.9776 28.866 18.7813 29.8529 18.7813 30.8496V32.5612" fill="#FFEDD9"/>
<path d="M31.0923 35.0654H33.9619V32.8018H31.0923V35.0654Z" fill="#FCD3B6"/>
<path d="M27.9377 35.0654H25.4274C25.2393 35.0654 25.0588 34.9907 24.9258 34.8577C24.7928 34.7247 24.7181 34.5442 24.7181 34.3561V32.8018H28.6948V34.3068C28.695 34.4063 28.6756 34.505 28.6376 34.597C28.5997 34.689 28.5439 34.7727 28.4736 34.8431C28.4033 34.9136 28.3198 34.9695 28.2278 35.0077C28.1358 35.0458 28.0373 35.0654 27.9377 35.0654Z" fill="#FCD3B6"/>
<path d="M18.7812 31.9275V37.2211C18.7821 39.2336 19.582 41.1634 21.0052 42.5863C22.4284 44.0092 24.3584 44.8088 26.3708 44.8092H27.6044H27.8481C25.883 44.7397 24.0215 43.9104 22.6556 42.4959C21.2897 41.0814 20.526 39.1921 20.5252 37.2257V30.6908C20.5248 29.6605 20.933 28.672 21.6602 27.9422C22.3875 27.2123 23.3745 26.8006 24.4048 26.7974H22.6778C21.6451 26.7974 20.6546 27.2075 19.9242 27.9376C19.1937 28.6678 18.7832 29.6581 18.7828 30.6908V31.9244L18.7812 31.9275Z" fill="#FCD3B6"/>
<path d="M18.7813 31.8842V37.1732C18.7808 38.1703 18.9769 39.1576 19.3582 40.0789C19.7396 41.0002 20.2987 41.8373 21.0036 42.5424C21.7086 43.2475 22.5456 43.8068 23.4668 44.1883C24.388 44.5698 25.3753 44.7661 26.3724 44.7659H27.606C28.4404 44.7659 29.2666 44.6015 30.0375 44.2821C30.8084 43.9628 31.5088 43.4947 32.0987 42.9046C32.6887 42.3145 33.1566 41.614 33.4758 40.843C33.7949 40.0721 33.9591 39.2458 33.9589 38.4114V30.8064C33.9589 28.7938 33.1595 26.8636 31.7365 25.4403C30.3135 24.017 28.3835 23.2172 26.3708 23.2168V23.2168C25.3742 23.2168 24.3872 23.4131 23.4664 23.7945C22.5456 24.1759 21.7089 24.735 21.0042 25.4397C20.2994 26.1445 19.7404 26.9812 19.359 27.902C18.9776 28.8228 18.7813 29.8097 18.7813 30.8064V32.5241" stroke="#640917" stroke-width="0.4" stroke-miterlimit="10" stroke-linecap="round"/>
<path d="M25.1187 32.9668H28.2582C28.4779 32.9668 28.656 32.7887 28.656 32.569V32.3808C28.656 32.1611 28.4779 31.983 28.2582 31.983H25.1187C24.899 31.983 24.7209 32.1611 24.7209 32.3808V32.569C24.7209 32.7887 24.899 32.9668 25.1187 32.9668Z" fill="#640917" stroke="#640917" stroke-width="0.4" stroke-miterlimit="10" stroke-linecap="round"/>
<path d="M27.2283 26.199C30.9661 26.199 33.1032 25.354 33.1032 29.0933L32.5265 29.323L29.0093 29.9892C28.5284 29.9903 28.058 29.8492 27.6571 29.5836C27.2563 29.318 26.9429 28.9398 26.7565 28.4965C26.6472 28.2206 26.4584 27.9833 26.2141 27.8147C25.9698 27.6462 25.6809 27.5539 25.3841 27.5498H25.2654C24.5361 27.5514 23.8372 27.8423 23.322 28.3586C22.8069 28.8748 22.5176 29.5744 22.5176 30.3037V33.07C22.5156 33.8853 22.1908 34.6665 21.6143 35.243C21.0379 35.8195 20.2566 36.1442 19.4414 36.1463H17.0312V29.8242C17.0313 28.073 17.7269 26.3936 18.9651 25.1553C20.2034 23.9171 21.8828 23.2214 23.634 23.2214L27.2283 26.199Z" fill="#640917" stroke="#640917" stroke-width="0.4" stroke-miterlimit="10" stroke-linecap="round"/>
<path d="M27.2283 23.2168C30.9661 23.2168 33.5874 25.1628 33.5874 28.9005L32.5265 29.323L29.0093 29.9891C28.5284 29.9903 28.058 29.8492 27.6571 29.5836C27.2563 29.318 26.9429 28.9398 26.7565 28.4965C26.6472 28.2206 26.4584 27.9833 26.2141 27.8147C25.9698 27.6461 25.6809 27.5539 25.3841 27.5497H25.2654C24.5361 27.5514 23.8372 27.8422 23.322 28.3585C22.8069 28.8748 22.5176 29.5744 22.5176 30.3037V33.07C22.5156 33.8853 22.1908 34.6665 21.6143 35.243C21.0379 35.8195 20.2566 36.1442 19.4414 36.1462H17.0312V29.8242C17.0313 28.073 17.7269 26.3936 18.9651 25.1553C20.2034 23.9171 21.8828 23.2214 23.634 23.2214L27.2283 23.2168Z" stroke="#640917" stroke-width="0.4" stroke-miterlimit="10" stroke-linecap="round"/>
<path d="M31.6598 32.9668H33.7338C33.9535 32.9668 34.1316 32.7887 34.1316 32.569V32.3808C34.1316 32.1611 33.9535 31.983 33.7338 31.983H31.6598C31.4401 31.983 31.262 32.1611 31.262 32.3808V32.569C31.262 32.7887 31.4401 32.9668 31.6598 32.9668Z" fill="#640917" stroke="#640917" stroke-width="0.4" stroke-miterlimit="10" stroke-linecap="round"/>
<path d="M17.1714 29.8197V36.1418H19.5861C19.8461 36.1428 20.1052 36.1107 20.3571 36.0462V29.8166C20.3571 28.0654 21.0527 26.386 22.291 25.1478C23.5293 23.9095 25.2087 23.2139 26.9598 23.2139H23.7726C22.9054 23.2141 22.0467 23.3851 21.2456 23.7172C20.4445 24.0493 19.7166 24.536 19.1036 25.1494C18.4907 25.7628 18.0045 26.491 17.673 27.2923C17.3414 28.0937 17.171 28.9525 17.1714 29.8197Z" fill="#4F0816" stroke="#4F0816" stroke-width="0.4" stroke-miterlimit="10" stroke-linecap="round"/>
<path d="M20.5267 36.1466C20.5264 35.73 20.3888 35.3251 20.1352 34.9945C19.8817 34.664 19.5262 34.4262 19.1239 34.318C18.7216 34.2098 18.2948 34.2371 17.9096 34.3959C17.5244 34.5546 17.2023 34.8359 16.993 35.1961C16.7837 35.5563 16.699 35.9755 16.7519 36.3887C16.8048 36.802 16.9925 37.1863 17.2858 37.4822C17.5791 37.778 17.9617 37.969 18.3745 38.0256C18.7872 38.0821 19.2071 38.0011 19.5692 37.795" fill="#FCD3B6"/>
<path d="M20.5267 36.1466C20.5264 35.73 20.3888 35.3251 20.1352 34.9945C19.8817 34.664 19.5262 34.4262 19.1239 34.318C18.7216 34.2098 18.2948 34.2371 17.9096 34.3959C17.5244 34.5546 17.2023 34.8359 16.993 35.1961C16.7837 35.5563 16.699 35.9755 16.7519 36.3887C16.8048 36.802 16.9925 37.1863 17.2858 37.4822C17.5791 37.778 17.9617 37.969 18.3745 38.0256C18.7872 38.0821 19.2071 38.0011 19.5692 37.795" stroke="#4F0816" stroke-width="0.4" stroke-miterlimit="10" stroke-linecap="round"/>
<path d="M18.6301 35.3738C18.4256 35.3738 18.2295 35.455 18.0849 35.5996C17.9404 35.7442 17.8591 35.9403 17.8591 36.1448" fill="#FFF3E4"/>
<path d="M18.6301 35.3738C18.4256 35.3738 18.2295 35.455 18.0849 35.5996C17.9404 35.7442 17.8591 35.9403 17.8591 36.1448" stroke="#640917" stroke-width="0.4" stroke-miterlimit="10" stroke-linecap="round"/>
<path d="M27.9898 35.0653C27.9898 35.2483 27.9355 35.4272 27.8339 35.5793C27.7322 35.7315 27.5877 35.8501 27.4186 35.9201C27.2496 35.9901 27.0636 36.0084 26.8841 35.9727C26.7046 35.937 26.5398 35.8489 26.4104 35.7195C26.281 35.5901 26.1929 35.4253 26.1572 35.2458C26.1215 35.0663 26.1398 34.8803 26.2098 34.7113C26.2799 34.5422 26.3984 34.3977 26.5506 34.2961C26.7027 34.1944 26.8816 34.1401 27.0646 34.1401C27.31 34.1401 27.5453 34.2376 27.7188 34.4111C27.8923 34.5846 27.9898 34.8199 27.9898 35.0653Z" fill="white" stroke="#640917" stroke-width="0.4" stroke-miterlimit="10" stroke-linecap="round"/>
<path d="M33.8372 35.0653C33.8372 35.2483 33.7829 35.4272 33.6813 35.5793C33.5796 35.7315 33.4351 35.8501 33.2661 35.9201C33.097 35.9901 32.911 36.0084 32.7315 35.9727C32.552 35.937 32.3872 35.8489 32.2578 35.7195C32.1284 35.5901 32.0403 35.4253 32.0046 35.2458C31.9689 35.0663 31.9872 34.8803 32.0572 34.7113C32.1273 34.5422 32.2459 34.3977 32.398 34.2961C32.5501 34.1944 32.729 34.1401 32.912 34.1401C33.1574 34.1401 33.3927 34.2376 33.5662 34.4111C33.7397 34.5846 33.8372 34.8199 33.8372 35.0653Z" fill="white" stroke="#640917" stroke-width="0.4" stroke-miterlimit="10" stroke-linecap="round"/>
<path d="M26.8689 34.7494C26.8689 34.8455 26.8974 34.9394 26.9508 35.0192C27.0041 35.0991 27.08 35.1614 27.1687 35.1981C27.2575 35.2349 27.3552 35.2445 27.4494 35.2258C27.5436 35.207 27.6301 35.1608 27.6981 35.0929C27.766 35.0249 27.8123 34.9384 27.831 34.8442C27.8497 34.7499 27.8401 34.6523 27.8034 34.5635C27.7666 34.4748 27.7043 34.3989 27.6245 34.3455C27.5446 34.2922 27.4507 34.2637 27.3546 34.2637C27.2258 34.2637 27.1023 34.3148 27.0112 34.4059C26.9201 34.497 26.8689 34.6206 26.8689 34.7494Z" fill="#640917"/>
<path d="M32.6157 34.7494C32.6157 34.8455 32.6442 34.9394 32.6976 35.0192C32.751 35.0991 32.8268 35.1614 32.9156 35.1981C33.0043 35.2349 33.102 35.2445 33.1962 35.2258C33.2904 35.207 33.377 35.1608 33.4449 35.0929C33.5128 35.0249 33.5591 34.9384 33.5778 34.8442C33.5966 34.7499 33.587 34.6523 33.5502 34.5635C33.5134 34.4748 33.4512 34.3989 33.3713 34.3455C33.2914 34.2922 33.1975 34.2637 33.1014 34.2637C32.9726 34.2637 32.8491 34.3148 32.758 34.4059C32.6669 34.497 32.6157 34.6206 32.6157 34.7494Z" fill="#640917"/>
<path d="M19.8992 52.2986V58.266H14.729V50.6518C14.729 49.3758 15.2359 48.1521 16.1381 47.2499C17.0403 46.3477 18.264 45.8408 19.54 45.8408H19.9054" fill="#E25959"/>
<path d="M19.8992 52.2986V58.266H14.729V50.6518C14.729 49.3758 15.2359 48.1521 16.1381 47.2499C17.0403 46.3477 18.264 45.8408 19.54 45.8408H19.9054" stroke="#640917" stroke-width="0.4" stroke-miterlimit="10" stroke-linecap="round"/>
<path d="M24.9553 73.7318H15.3457V68.9516C15.3457 68.9085 15.3553 68.8658 15.3739 68.8268C15.3925 68.7878 15.4195 68.7535 15.4531 68.7263C15.4866 68.6991 15.5258 68.6798 15.5678 68.6697C15.6098 68.6596 15.6535 68.659 15.6957 68.6679L21.9623 70.0141C22.8111 70.1981 23.5711 70.6675 24.1157 71.344C24.6604 72.0205 24.9567 72.8633 24.9553 73.7318Z" fill="#FCD3B6" stroke="#640917" stroke-width="0.4" stroke-miterlimit="10" stroke-linecap="round"/>
<path d="M14.6165 68.2827V61.4702" stroke="#640917" stroke-width="0.4" stroke-miterlimit="10" stroke-linecap="round"/>
<path d="M15.6279 65.7998H22.0071C22.2038 65.7998 22.3633 65.6403 22.3633 65.4436V64.6803C22.3633 64.4836 22.2038 64.3241 22.0071 64.3241H15.6279C15.4312 64.3241 15.2717 64.4836 15.2717 64.6803V65.4436C15.2717 65.6403 15.4312 65.7998 15.6279 65.7998Z" fill="#CC4040" stroke="#640917" stroke-width="0.4" stroke-miterlimit="10" stroke-linecap="round"/>
<path d="M15.7881 65.7998L16.3602 73.2768C16.3691 73.3906 16.4205 73.4967 16.5043 73.5742C16.588 73.6516 16.6979 73.6947 16.812 73.6947H20.8026C20.9164 73.6947 21.0261 73.6519 21.1098 73.5747C21.1935 73.4976 21.2451 73.3918 21.2544 73.2784L21.8465 65.7998H15.7881Z" fill="white" stroke="#640917" stroke-width="0.4" stroke-miterlimit="10" stroke-linecap="round"/>
<path d="M16.2292 64.3257H21.4071V63.9988C21.4068 63.8366 21.3472 63.6802 21.2396 63.5589C21.1319 63.4377 20.9837 63.3599 20.8227 63.3404L16.9678 62.8778C16.8746 62.8669 16.7802 62.8759 16.6908 62.9041C16.6014 62.9323 16.5189 62.9791 16.4489 63.0414C16.3788 63.1037 16.3228 63.1802 16.2844 63.2657C16.246 63.3513 16.2261 63.444 16.2261 63.5377L16.2292 64.3257Z" fill="#E25959" stroke="#640917" stroke-width="0.4" stroke-miterlimit="10" stroke-linecap="round"/>
<path d="M15.7881 65.7998L16.3602 73.2768C16.3691 73.3906 16.4205 73.4967 16.5043 73.5742C16.588 73.6516 16.6979 73.6947 16.812 73.6947H17.5382L16.9769 65.7998H15.7881Z" fill="#F7F0ED"/>
<path d="M15.7881 65.7998L16.3602 73.2768C16.3691 73.3906 16.4205 73.4967 16.5043 73.5742C16.588 73.6516 16.6979 73.6947 16.812 73.6947H20.8026C20.9164 73.6947 21.0261 73.6519 21.1098 73.5747C21.1935 73.4976 21.2451 73.3918 21.2544 73.2784L21.8465 65.7998H15.7881Z" stroke="#640917" stroke-width="0.4" stroke-miterlimit="10" stroke-linecap="round"/>
<path d="M15.6434 67.05L16.0258 72.3174C16.0301 72.377 16.0569 72.4327 16.1007 72.4733C16.1444 72.514 16.202 72.5365 16.2618 72.5363H17.4352L17.0189 66.7925H15.8793C15.8465 66.7926 15.8141 66.7995 15.7841 66.8127C15.7541 66.826 15.7271 66.8453 15.705 66.8695C15.6828 66.8937 15.6659 66.9223 15.6553 66.9533C15.6447 66.9844 15.6407 67.0173 15.6434 67.05Z" fill="#9FCCC9"/>
<path d="M17.0188 66.7925L17.4351 72.5317H21.3595C21.4187 72.5315 21.4757 72.509 21.5191 72.4687C21.5625 72.4285 21.5892 72.3733 21.5938 72.3143L21.9947 67.0469C21.9973 67.0145 21.9931 66.982 21.9825 66.9513C21.9719 66.9206 21.9551 66.8924 21.9331 66.8686C21.9111 66.8447 21.8844 66.8256 21.8547 66.8125C21.8249 66.7994 21.7928 66.7926 21.7604 66.7925H17.0188Z" fill="#CDE0DF"/>
<path d="M21.7556 66.7925H15.8792C15.8468 66.7924 15.8147 66.799 15.785 66.8119C15.7553 66.8248 15.7285 66.8438 15.7065 66.8675C15.6845 66.8913 15.6676 66.9194 15.657 66.95C15.6464 66.9806 15.6422 67.0131 15.6448 67.0454L16.0256 72.3127C16.0303 72.3722 16.0571 72.4277 16.1008 72.4683C16.1446 72.5089 16.2019 72.5315 16.2616 72.5317H21.3501C21.4096 72.5319 21.4669 72.5096 21.5107 72.4693C21.5544 72.429 21.5813 72.3736 21.586 72.3143L21.9869 67.0469C21.9892 67.0148 21.985 66.9826 21.9745 66.9523C21.964 66.9219 21.9474 66.8939 21.9258 66.8701C21.9041 66.8464 21.8779 66.8272 21.8487 66.8139C21.8194 66.8005 21.7878 66.7932 21.7556 66.7925Z" stroke="#640917" stroke-width="0.4" stroke-miterlimit="10"/>
<path d="M68.3562 66.9265H74.7354C74.9321 66.9265 75.0916 66.767 75.0916 66.5703V65.807C75.0916 65.6103 74.9321 65.4508 74.7354 65.4508H68.3562C68.1595 65.4508 68 65.6103 68 65.807V66.5703C68 66.767 68.1595 66.9265 68.3562 66.9265Z" fill="#CC4040" stroke="#640917" stroke-width="0.4" stroke-miterlimit="10" stroke-linecap="round"/>
<path d="M68.5164 66.9265L69.0884 74.4035C69.0974 74.5173 69.1488 74.6234 69.2326 74.7009C69.3163 74.7783 69.4262 74.8214 69.5402 74.8214H73.5309C73.6447 74.8214 73.7543 74.7786 73.838 74.7015C73.9217 74.6243 73.9734 74.5185 73.9827 74.4051L74.5748 66.9265H68.5164Z" fill="white" stroke="#640917" stroke-width="0.4" stroke-miterlimit="10" stroke-linecap="round"/>
<path d="M68.9574 65.4524H74.1354V65.1255C74.1351 64.9634 74.0755 64.8069 73.9678 64.6857C73.8602 64.5644 73.7119 64.4866 73.551 64.4671L69.696 64.0045C69.6029 63.9936 69.5085 64.0026 69.4191 64.0308C69.3297 64.059 69.2472 64.1058 69.1772 64.1681C69.1071 64.2304 69.051 64.3069 69.0126 64.3924C68.9742 64.478 68.9544 64.5707 68.9543 64.6645L68.9574 65.4524Z" fill="#E25959" stroke="#640917" stroke-width="0.4" stroke-miterlimit="10" stroke-linecap="round"/>
<path d="M68.5164 66.9265L69.0884 74.4035C69.0974 74.5173 69.1488 74.6234 69.2326 74.7009C69.3163 74.7783 69.4262 74.8214 69.5402 74.8214H70.2665L69.7052 66.9265H68.5164Z" fill="#F7F0ED"/>
<path d="M68.5164 66.9265L69.0884 74.4035C69.0974 74.5173 69.1488 74.6234 69.2326 74.7009C69.3163 74.7783 69.4262 74.8214 69.5402 74.8214H73.5309C73.6447 74.8214 73.7543 74.7786 73.838 74.7015C73.9217 74.6243 73.9734 74.5185 73.9827 74.4051L74.5748 66.9265H68.5164Z" stroke="#640917" stroke-width="0.4" stroke-miterlimit="10" stroke-linecap="round"/>
<path d="M68.3717 68.1767L68.7541 73.4441C68.7584 73.5037 68.7851 73.5594 68.8289 73.6C68.8727 73.6407 68.9303 73.6632 68.99 73.663H70.1635L69.7471 67.9192H68.6076C68.5748 67.9193 68.5424 67.9262 68.5124 67.9394C68.4823 67.9527 68.4554 67.972 68.4332 67.9962C68.4111 68.0204 68.3941 68.049 68.3836 68.08C68.373 68.1111 68.3689 68.144 68.3717 68.1767V68.1767Z" fill="#9FCCC9"/>
<path d="M69.7471 67.9192L70.1634 73.6584H74.0877C74.147 73.6582 74.2039 73.6357 74.2474 73.5955C74.2908 73.5552 74.3175 73.5 74.3221 73.441L74.723 68.1736C74.7256 68.1412 74.7214 68.1087 74.7108 68.078C74.7002 68.0473 74.6833 68.0191 74.6613 67.9953C74.6393 67.9714 74.6126 67.9523 74.5829 67.9392C74.5532 67.9261 74.5211 67.9193 74.4886 67.9192H69.7471Z" fill="#CDE0DF"/>
<path d="M74.4839 67.9192H68.6074C68.575 67.9191 68.543 67.9257 68.5132 67.9386C68.4835 67.9515 68.4568 67.9705 68.4348 67.9942C68.4128 68.018 68.3959 68.0461 68.3853 68.0767C68.3747 68.1073 68.3705 68.1398 68.373 68.1721L68.7539 73.4395C68.7586 73.4989 68.7854 73.5544 68.8291 73.595C68.8728 73.6356 68.9302 73.6582 68.9898 73.6584H74.0783C74.1378 73.6586 74.1952 73.6363 74.239 73.596C74.2827 73.5557 74.3096 73.5003 74.3143 73.441L74.7152 68.1736C74.7175 68.1415 74.7133 68.1093 74.7027 68.079C74.6922 68.0486 74.6757 68.0206 74.654 67.9969C74.6324 67.9731 74.6062 67.9539 74.5769 67.9406C74.5477 67.9272 74.516 67.9199 74.4839 67.9192Z" stroke="#640917" stroke-width="0.4" stroke-miterlimit="10"/>
<path d="M46.105 51.1265L48.5027 56.4972L42.7743 58.6112L38.9302 53.646L46.105 51.1265Z" fill="#FFEDD9" stroke="#640917" stroke-width="0.4" stroke-miterlimit="10" stroke-linecap="round"/>
<path d="M65.9781 74.0589H51.6177V72.4768H64.3945C64.6024 72.4766 64.8082 72.5174 65.0004 72.5968C65.1925 72.6762 65.3671 72.7927 65.5142 72.9396C65.6612 73.0866 65.7779 73.261 65.8575 73.4531C65.9371 73.6451 65.9781 73.851 65.9781 74.0589Z" fill="#ABC9C7" stroke="#640917" stroke-width="0.4" stroke-miterlimit="10"/>
<path d="M52.9824 73.9262H21.8222L18.3389 55.9283C18.2691 55.5678 18.2798 55.1963 18.3705 54.8404C18.4611 54.4845 18.6293 54.1531 18.863 53.8699C19.0967 53.5867 19.3902 53.3586 19.7223 53.2021C20.0545 53.0456 20.4172 52.9645 20.7844 52.9646H46.8731C47.4517 52.9645 48.0124 53.1659 48.4587 53.5343C48.9049 53.9026 49.209 54.4149 49.3187 54.983L52.9824 73.9262Z" fill="#ABC9C7" stroke="#640917" stroke-width="0.4" stroke-miterlimit="10"/>
<path d="M51.8288 73.9262H20.6655L17.1853 55.9283C17.1155 55.5678 17.1263 55.1963 17.2169 54.8404C17.3075 54.4845 17.4757 54.1531 17.7094 53.8699C17.9431 53.5867 18.2366 53.3586 18.5688 53.2021C18.901 53.0456 19.2637 52.9645 19.6309 52.9646H45.7226C46.3013 52.9645 46.8619 53.1659 47.3082 53.5343C47.7545 53.9026 48.0585 54.4149 48.1682 54.983L51.8288 73.9262Z" fill="#CDE0DF"/>
<path d="M51.8288 73.9246H20.6655L19.8313 69.6194H50.9977L51.8288 73.9246Z" fill="#ABC9C7"/>
<path d="M33.8216 66.4875C35.168 66.4875 36.2595 65.3961 36.2595 64.0497C36.2595 62.7033 35.168 61.6118 33.8216 61.6118C32.4753 61.6118 31.3838 62.7033 31.3838 64.0497C31.3838 65.3961 32.4753 66.4875 33.8216 66.4875Z" fill="white"/>
<path d="M51.8288 73.9262H20.6655L17.1853 55.9283C17.1155 55.5678 17.1263 55.1963 17.2169 54.8404C17.3075 54.4846 17.4757 54.1531 17.7094 53.8699C17.9431 53.5867 18.2366 53.3586 18.5688 53.2021C18.901 53.0456 19.2637 52.9645 19.6309 52.9646H45.7226C46.3013 52.9645 46.8619 53.1659 47.3082 53.5343C47.7545 53.9026 48.0585 54.4149 48.1682 54.983L51.8288 73.9262Z" stroke="#640917" stroke-width="0.4" stroke-miterlimit="10"/>
<path d="M53.5112 73.084C53.5115 73.2506 53.4624 73.4135 53.3701 73.5522C53.2778 73.6908 53.1464 73.799 52.9926 73.863C52.8388 73.9269 52.6694 73.9438 52.506 73.9115C52.3426 73.8792 52.1924 73.7991 52.0745 73.6814C51.9566 73.5638 51.8763 73.4137 51.8437 73.2504C51.8111 73.087 51.8277 72.9177 51.8913 72.7637C51.955 72.6098 52.0629 72.4782 52.2014 72.3856C52.3399 72.2931 52.5027 72.2437 52.6693 72.2437C52.7798 72.2435 52.8892 72.265 52.9914 72.3072C53.0935 72.3493 53.1863 72.4112 53.2645 72.4892C53.3427 72.5673 53.4048 72.66 53.4471 72.7621C53.4894 72.8641 53.5112 72.9735 53.5112 73.084Z" fill="#CDE0DF" stroke="#640917" stroke-width="0.4" stroke-miterlimit="10"/>
<path d="M18.6162 29.2565C18.6162 27.6546 19.2526 26.1183 20.3853 24.9856C21.518 23.8529 23.0542 23.2166 24.6561 23.2166H35.4962V26.7184C35.4962 27.6462 35.1278 28.536 34.4721 29.1924C33.8163 29.8487 32.9268 30.2178 31.999 30.2187H24.4896C23.9636 30.2184 23.4535 30.3984 23.0441 30.7287C22.6347 31.0589 22.3509 31.5195 22.2398 32.0336L21.7156 34.4545C21.6767 34.6319 21.5838 34.793 21.4498 34.9156C21.3158 35.0382 21.1471 35.1163 20.9669 35.1393C20.7867 35.1623 20.6038 35.1289 20.4432 35.0439C20.2827 34.9588 20.1525 34.8262 20.0703 34.6642L18.6162 33.4445V29.2565Z" fill="#640917" stroke="#640917" stroke-width="0.4" stroke-miterlimit="10" stroke-linecap="round"/>
<path d="M32.642 25.5298H35.9958V26.2807C35.9958 27.3031 35.5897 28.2836 34.8667 29.0066C34.1438 29.7295 33.1633 30.1357 32.1409 30.1357" fill="#640917"/>
<path d="M32.642 25.5298H35.9958V26.2807C35.9958 27.3031 35.5897 28.2836 34.8667 29.0066C34.1438 29.7295 33.1633 30.1357 32.1409 30.1357" stroke="#640917" stroke-width="0.4" stroke-miterlimit="10" stroke-linecap="round"/>
<path opacity="0.52" d="M33.1615 38.1337C34.3972 38.1337 35.3989 37.132 35.3989 35.8963C35.3989 34.6607 34.3972 33.6589 33.1615 33.6589C31.9258 33.6589 30.9241 34.6607 30.9241 35.8963C30.9241 37.132 31.9258 38.1337 33.1615 38.1337Z" fill="white"/>
<path opacity="0.52" d="M26.983 38.1337C28.2187 38.1337 29.2204 37.132 29.2204 35.8963C29.2204 34.6607 28.2187 33.6589 26.983 33.6589C25.7473 33.6589 24.7456 34.6607 24.7456 35.8963C24.7456 37.132 25.7473 38.1337 26.983 38.1337Z" fill="white"/>
<path d="M33.035 38.1337C34.2707 38.1337 35.2724 37.132 35.2724 35.8963C35.2724 34.6607 34.2707 33.6589 33.035 33.6589C31.7993 33.6589 30.7976 34.6607 30.7976 35.8963C30.7976 37.132 31.7993 38.1337 33.035 38.1337Z" stroke="#E25959" stroke-width="0.4" stroke-miterlimit="10" stroke-linecap="round"/>
<path d="M26.8551 38.1337C28.0908 38.1337 29.0925 37.132 29.0925 35.8963C29.0925 34.6607 28.0908 33.6589 26.8551 33.6589C25.6194 33.6589 24.6177 34.6607 24.6177 35.8963C24.6177 37.132 25.6194 38.1337 26.8551 38.1337Z" stroke="#E25959" stroke-width="0.4" stroke-miterlimit="10" stroke-linecap="round"/>
<path d="M31.1184 34.7969H28.8779" stroke="#E25959" stroke-width="0.4" stroke-miterlimit="10" stroke-linecap="round"/>
<path d="M24.4126 35.8794L20.6641 35.8964" stroke="#E25959" stroke-width="0.4" stroke-miterlimit="10" stroke-linecap="round"/>
<path d="M29.1649 42.2137C28.7334 42.2137 28.3196 42.0423 28.0146 41.7372C27.7095 41.4321 27.5381 41.0184 27.5381 40.5869H30.7917C30.7917 41.0184 30.6203 41.4321 30.3152 41.7372C30.0101 42.0423 29.5963 42.2137 29.1649 42.2137Z" fill="white" stroke="#640917" stroke-width="0.4" stroke-miterlimit="10"/>
<path d="M29.9451 38.3033C30.2491 38.3029 30.5405 38.1819 30.7553 37.9668C30.9701 37.7517 31.0908 37.4601 31.0908 37.1561V35.0359H29.8125L29.9451 38.3033Z" fill="#FFEDD9"/>
<path d="M29.9451 38.3033C30.2491 38.3029 30.5405 38.1819 30.7553 37.9668C30.9701 37.7517 31.0908 37.4601 31.0908 37.1561V35.0359" fill="#FFEDD9"/>
<path d="M29.9451 38.3033C30.2491 38.3029 30.5405 38.1819 30.7553 37.9668C30.9701 37.7517 31.0908 37.4601 31.0908 37.1561V35.0359" stroke="#640917" stroke-width="0.4" stroke-miterlimit="10" stroke-linecap="round"/>
<path d="M3.78505 74H79.22C79.9578 74.0019 80.6649 74.4242 81.1861 75.1741C81.7073 75.9241 82 76.9404 82 78V78H1C1 76.9391 1.29342 75.9217 1.81572 75.1716C2.33802 74.4214 3.04641 74 3.78505 74V74Z" fill="#E25959" stroke="#640917" stroke-width="0.4" stroke-miterlimit="10" stroke-linecap="round"/>
</svg>
