<svg width="72" height="75" viewBox="0 0 72 75" fill="none" xmlns="http://www.w3.org/2000/svg">
<path d="M34.1616 3.08777L0.171875 21.1756H68.1513L34.1616 3.08777Z" fill="#79D388"/>
<path d="M64.4351 23.598H4.11328V28.6557H64.4351V23.598Z" fill="#65B774"/>
<path d="M64.4352 66.2023H3.94141V71.2599H64.4352V66.2023Z" fill="#65B774"/>
<path d="M68.6275 69.9423H0V74.9999H68.6275V69.9423Z" fill="#79D388"/>
<path d="M14.6408 32.3158H6.59961V61.7302H14.6408V32.3158Z" fill="#79D388"/>
<path d="M16.3335 30.5989H4.65527V34.0195H16.3335V30.5989Z" fill="#E5D470"/>
<path d="M16.3335 60.6388H4.65527V64.0594H16.3335V60.6388Z" fill="#E5D470"/>
<path d="M30.485 32.3158H22.4438V61.7302H30.485V32.3158Z" fill="#79D388"/>
<path d="M32.1909 30.5989H20.5127V34.0195H32.1909V30.5989Z" fill="#E5D470"/>
<path d="M32.1909 60.6388H20.5127V64.0594H32.1909V60.6388Z" fill="#E5D470"/>
<path d="M45.7999 32.3158H37.7588V61.7302H45.7999V32.3158Z" fill="#79D388"/>
<path d="M47.5063 30.5989H35.8281V34.0195H47.5063V30.5989Z" fill="#E5D470"/>
<path d="M47.5063 60.6388H35.8281V64.0594H47.5063V60.6388Z" fill="#E5D470"/>
<path d="M61.8165 32.3158H53.7754V61.7302H61.8165V32.3158Z" fill="#79D388"/>
<path d="M63.5224 30.5989H51.8442V34.0195H63.5224V30.5989Z" fill="#E5D470"/>
<path d="M63.5224 60.6388H51.8442V64.0594H63.5224V60.6388Z" fill="#E5D470"/>
<path d="M34.1615 18.0345C36.6961 18.0345 38.7508 15.9668 38.7508 13.4161C38.7508 10.8654 36.6961 8.79761 34.1615 8.79761C31.627 8.79761 29.5723 10.8654 29.5723 13.4161C29.5723 15.9668 31.627 18.0345 34.1615 18.0345Z" fill="#E5D283" stroke="#6DB27D" stroke-miterlimit="10"/>
<path d="M10.4746 34.4454V60.3727" stroke="#6DB27D" stroke-width="0.5" stroke-miterlimit="10" stroke-linecap="round"/>
<path d="M8.64941 34.3655V60.2927" stroke="#6DB27D" stroke-width="0.5" stroke-miterlimit="10" stroke-linecap="round"/>
<path d="M12.3394 34.3655V60.2927" stroke="#6DB27D" stroke-width="0.5" stroke-miterlimit="10" stroke-linecap="round"/>
<path d="M26.438 34.4454V60.3727" stroke="#6DB27D" stroke-width="0.5" stroke-miterlimit="10" stroke-linecap="round"/>
<path d="M24.626 34.3655V60.2927" stroke="#6DB27D" stroke-width="0.5" stroke-miterlimit="10" stroke-linecap="round"/>
<path d="M28.3159 34.3655V60.2927" stroke="#6DB27D" stroke-width="0.5" stroke-miterlimit="10" stroke-linecap="round"/>
<path d="M41.6343 34.4454V60.3727" stroke="#6DB27D" stroke-width="0.5" stroke-miterlimit="10" stroke-linecap="round"/>
<path d="M39.8223 34.3655V60.2927" stroke="#6DB27D" stroke-width="0.5" stroke-miterlimit="10" stroke-linecap="round"/>
<path d="M43.5122 34.3655V60.2927" stroke="#6DB27D" stroke-width="0.5" stroke-miterlimit="10" stroke-linecap="round"/>
<path d="M57.6504 34.4454V60.3727" stroke="#6DB27D" stroke-width="0.5" stroke-miterlimit="10" stroke-linecap="round"/>
<path d="M55.8252 34.3655V60.2927" stroke="#6DB27D" stroke-width="0.5" stroke-miterlimit="10" stroke-linecap="round"/>
<path d="M59.5283 34.3655V60.2927" stroke="#6DB27D" stroke-width="0.5" stroke-miterlimit="10" stroke-linecap="round"/>
<path d="M57.0157 16.6105L55.1509 32.449L58.0076 30.4925L60.2956 33.2609L62.1869 17.2227L57.0157 16.6105Z" fill="#99658C"/>
<path d="M58.9463 15.9183L67.49 29.3611L68.4687 26.0337L71.9999 26.6992L63.3504 13.0967L58.9463 15.9183Z" fill="#99658C"/>
<path d="M60.4939 20.2573C66.0524 20.2573 70.5585 15.7226 70.5585 10.1287C70.5585 4.53476 66.0524 0 60.4939 0C54.9353 0 50.4292 4.53476 50.4292 10.1287C50.4292 15.7226 54.9353 20.2573 60.4939 20.2573Z" fill="#BC6DA7"/>
<path d="M61.5386 6.48182C61.5386 5.99745 61.6813 5.52397 61.9487 5.12124C62.2161 4.7185 62.5962 4.40461 63.0408 4.21926C63.4855 4.0339 63.9748 3.9854 64.4468 4.07989C64.9189 4.17439 65.3525 4.40763 65.6928 4.75013C66.0332 5.09262 66.2649 5.52899 66.3588 6.00405C66.4527 6.4791 66.4045 6.97151 66.2203 7.419C66.0362 7.86649 65.7243 8.24897 65.3241 8.51807C64.9239 8.78717 64.4534 8.9308 63.9721 8.9308C63.6525 8.9308 63.3361 8.86745 63.0408 8.74438C62.7456 8.62131 62.4773 8.44092 62.2513 8.21351C62.0254 7.9861 61.8461 7.71613 61.7238 7.419C61.6015 7.12188 61.5386 6.80342 61.5386 6.48182V6.48182Z" fill="#D1A7C6"/>
</svg>
