<svg width="75" height="76" viewBox="0 0 75 76" fill="none" xmlns="http://www.w3.org/2000/svg">
<g clip-path="url(#clip0)">
<path d="M6.38992 70.7899C6.38992 70.7899 3.88992 73.7299 3.75992 74.9999C3.62992 76.2699 23.2599 75.3299 23.2599 75.3299C23.2599 75.3299 21.9999 70.0799 20.6299 70.5099C13.8299 72.6699 6.38992 70.7899 6.38992 70.7899Z" fill="#A47DC6"/>
<path d="M6.92981 6.51996C6.92189 5.22876 7.29754 3.96427 8.00913 2.88681C8.72072 1.80935 9.73622 0.967448 10.9269 0.467826C12.1175 -0.0317969 13.4297 -0.166635 14.6971 0.080405C15.9645 0.327445 17.13 0.945239 18.0458 1.85546C18.9617 2.76569 19.5866 3.92736 19.8414 5.19319C20.0963 6.45903 19.9695 7.77203 19.4772 8.96573C18.985 10.1594 18.1493 11.1801 17.0763 11.8983C16.0032 12.6165 14.741 12.9999 13.4498 13C11.7275 13 10.0752 12.3186 8.85356 11.1045C7.63196 9.89036 6.94038 8.24224 6.92981 6.51996V6.51996Z" fill="#A47DC6"/>
<path d="M34.3199 6.51996C34.312 5.22832 34.6879 3.96344 35.4 2.88576C36.112 1.80809 37.1281 0.966186 38.3193 0.466857C39.5106 -0.0324729 40.8233 -0.166727 42.0909 0.0811244C43.3586 0.328976 44.5241 0.947765 45.4395 1.85899C46.3549 2.77022 46.9791 3.93282 47.2328 5.19932C47.4865 6.46582 47.3583 7.77913 46.8645 8.97267C46.3707 10.1662 45.5335 11.1862 44.4591 11.9032C43.3847 12.6202 42.1216 13.0019 40.8299 13C39.1086 13 37.4573 12.3182 36.2373 11.1038C35.0173 9.88946 34.3279 8.24131 34.3199 6.51996V6.51996Z" fill="#E57D7A"/>
<path d="M20.76 41.05V16.47L16.49 15.59C16.49 15.59 13.49 19.54 10.35 15.59C8.98859 15.9962 7.60665 16.33 6.20996 16.59V41.18L20.76 41.05Z" fill="#A47DC6"/>
<path d="M6.38965 70.51L13.1696 71.64L20.9396 70.51V16.65L16.6796 15.77C16.6796 15.77 13.6796 19.72 10.5296 15.77C9.169 16.1789 7.78692 16.5127 6.38965 16.77V70.51Z" stroke="#BABABA" stroke-linecap="round" stroke-linejoin="round"/>
<path d="M6.40985 16.77C5.35933 17.0137 4.37628 17.4884 3.53216 18.1595C2.68803 18.8307 2.00403 19.6814 1.52985 20.65C-0.000149369 24.2 0.359851 37.68 1.34985 43.51C2.20985 43.61 4.56985 43.58 4.56985 43.58C4.56985 43.58 3.17985 30.72 6.40985 23.35" stroke="#BABABA" stroke-linecap="round" stroke-linejoin="round"/>
<path d="M20.9399 16.6499C21.9905 16.8936 22.9735 17.3683 23.8176 18.0394C24.6618 18.7106 25.3458 19.5613 25.8199 20.5299C27.3299 24.0799 26.9899 37.5299 26.0099 43.3899C25.1399 43.4899 22.7799 43.4499 22.7799 43.4499C22.7799 43.4499 24.1699 30.5999 20.9399 23.2299" stroke="#BABABA" stroke-linecap="round" stroke-linejoin="round"/>
<path d="M34.3198 41.6799L34.0098 70.2599L40.5198 71.4499L48.3498 70.2699V41.6799H34.3198Z" fill="#E57D7A"/>
<path d="M33.7998 70.51L40.5698 71.64L48.3498 70.51V16.65H46.4298C45.9378 15.7747 45.3935 14.9298 44.7998 14.12C43.9498 14.49 41.3898 16.52 40.8998 16.41C40.4098 16.54 38.0898 14.48 37.0898 14.12C36.7398 14.54 36.1998 15.82 35.4998 16.75C34.9344 16.8029 34.3652 16.8029 33.7998 16.75V70.51V70.51Z" stroke="#BABABA" stroke-linecap="round" stroke-linejoin="round"/>
<path d="M6.38965 41.35H20.9396" stroke="#BABABA" stroke-linecap="round" stroke-linejoin="round"/>
<path d="M34 41.35H48.13" stroke="#BABABA" stroke-linecap="round" stroke-linejoin="round"/>
<path d="M6.38971 70.51C6.38971 70.51 4.31971 71.77 3.69971 75.34C8.08971 75.47 23.2597 75.34 23.2597 75.34C23.2597 75.34 22.7597 71.58 20.6297 70.51" stroke="#BABABA" stroke-linecap="round" stroke-linejoin="round"/>
<path d="M33.7798 70.51C33.7798 70.51 31.7098 71.77 31.0898 75.34C35.4798 75.47 50.6498 75.34 50.6498 75.34C50.6498 75.34 50.1498 71.58 48.0198 70.51" stroke="#BABABA" stroke-linecap="round" stroke-linejoin="round"/>
<path d="M13.48 46.5V75.39" stroke="#BABABA" stroke-linecap="round" stroke-linejoin="round"/>
<path d="M40.8696 46.5V75.39" stroke="#BABABA" stroke-linecap="round" stroke-linejoin="round"/>
<path d="M22.5296 43.7C22.5296 43.7 19.8796 47.28 22.4796 47.97C24.4796 47.97 25.7296 45.33 26.0096 43.39" stroke="#BABABA" stroke-linecap="round" stroke-linejoin="round"/>
<path d="M4.69984 43.7C4.69984 43.7 7.46984 47.28 4.86984 47.97C2.86984 47.97 1.60984 45.33 1.33984 43.39" stroke="#BABABA" stroke-linecap="round" stroke-linejoin="round"/>
<path d="M42.4899 20.0899L43.1699 30.9099L40.9299 33.1999L38.6299 31.0699L39.2099 20.1699L40.7899 16.9199L42.4899 20.0899Z" fill="#E57D7A"/>
<path d="M35.5 16.91L38.62 21.14L40.9 16.73L42.98 21.14L46.37 16.73" stroke="#BABABA" stroke-linecap="round" stroke-linejoin="round"/>
<path d="M25.29 19.57L33.8 16.77" stroke="#BABABA" stroke-linecap="round" stroke-linejoin="round"/>
<path d="M26.5498 24.0399L33.7998 21.6599" stroke="#BABABA" stroke-linecap="round" stroke-linejoin="round"/>
<path d="M48.3496 16.6499C48.3496 16.6499 64.9396 15.3299 71.5796 13.4799C71.8237 13.3998 72.0824 13.3745 72.3374 13.4056C72.5924 13.4368 72.8374 13.5237 73.055 13.6602C73.2726 13.7967 73.4575 13.9794 73.5966 14.1954C73.7356 14.4114 73.8254 14.6553 73.8596 14.9099C73.9696 15.272 73.9511 15.6609 73.8071 16.0108C73.6631 16.3608 73.4026 16.6501 73.0696 16.8299C73.0696 16.8299 64.6496 20.2799 48.3496 21.6599" stroke="#BABABA" stroke-linecap="round" stroke-linejoin="round"/>
<path d="M42.6699 6C42.6699 6.39556 42.5526 6.78224 42.3329 7.11114C42.1131 7.44004 41.8007 7.69638 41.4353 7.84776C41.0698 7.99913 40.6677 8.03874 40.2797 7.96157C39.8918 7.8844 39.5354 7.69392 39.2557 7.41421C38.976 7.13451 38.7855 6.77814 38.7084 6.39018C38.6312 6.00222 38.6708 5.60009 38.8222 5.23463C38.9735 4.86918 39.2299 4.55682 39.5588 4.33706C39.8877 4.1173 40.2744 4 40.6699 4C41.2004 4 41.7091 4.21071 42.0841 4.58579C42.4592 4.96086 42.6699 5.46957 42.6699 6Z" stroke="white" stroke-width="0.5" stroke-linecap="round" stroke-linejoin="round"/>
<path d="M48.3101 6C48.3101 6.39556 48.1928 6.78224 47.973 7.11114C47.7532 7.44004 47.4409 7.69638 47.0754 7.84776C46.71 7.99913 46.3078 8.03874 45.9199 7.96157C45.5319 7.8844 45.1755 7.69392 44.8958 7.41421C44.6161 7.13451 44.4257 6.77814 44.3485 6.39018C44.2713 6.00222 44.3109 5.60009 44.4623 5.23463C44.6137 4.86918 44.87 4.55682 45.1989 4.33706C45.5278 4.1173 45.9145 4 46.3101 4C46.8405 4 47.3492 4.21071 47.7243 4.58579C48.0993 4.96086 48.3101 5.46957 48.3101 6Z" stroke="white" stroke-width="0.5" stroke-linecap="round" stroke-linejoin="round"/>
<path d="M42.6699 5.99995C42.8909 5.84414 43.1546 5.7605 43.4249 5.7605C43.6953 5.7605 43.959 5.84414 44.1799 5.99995" stroke="white" stroke-width="0.5" stroke-linecap="round" stroke-linejoin="round"/>
</g>
<defs>
<clipPath id="clip0">
<rect width="74.41" height="75.9" fill="white"/>
</clipPath>
</defs>
</svg>
