<svg width="56" height="73" viewBox="0 0 56 73" fill="none" xmlns="http://www.w3.org/2000/svg">
<g clip-path="url(#clip0)">
<path d="M12.652 1.37097L26.6683 16.6081L21.4333 25.1603L11.2231 8.2388L12.652 1.37097Z" fill="#B8D5E0" stroke="white" stroke-miterlimit="10"/>
<path d="M43.2955 1.37097L29.2793 16.6081L34.5143 25.1603L44.7244 8.2388L43.2955 1.37097Z" fill="#B8D5E0" stroke="white" stroke-miterlimit="10"/>
<path d="M14.0942 2.16748L21.0699 9.49229H35.3329L42.0098 2.16748H14.0942Z" fill="#ABC6CE"/>
<path d="M26.9284 17.026H29.2276L31.5918 21.3217L30.4617 23.2149H25.6164L24.3823 21.3217L26.9284 17.026Z" fill="#68B2BC" stroke="white" stroke-miterlimit="10"/>
<path d="M8.93706 9.13965C8.93706 9.13965 8.14467 37.6163 22.8883 43.0871C37.632 48.5578 25.1876 58.3242 24.3822 62.2021C20.9228 66.1454 17.1093 69.76 12.9899 73C5.74151 64.4348 -2.36426 41.9511 0.636431 13.0567C3.53397 12.0513 6.31659 10.7382 8.93706 9.13965V9.13965Z" fill="#396B99"/>
<path d="M47.0625 9.13965C47.0625 9.13965 47.8419 37.5771 33.0982 43.0871C18.3545 48.597 30.799 58.3242 31.6174 62.2021C35.0703 66.1517 38.8845 69.7668 43.0096 73C50.2451 64.4348 58.3508 41.9511 55.3501 13.0697C52.4568 12.0586 49.6787 10.7412 47.0625 9.13965V9.13965Z" fill="#396B99"/>
<path d="M25.6551 23.933H30.3834L35.4885 57.0448L28.1492 65.4141L20.6279 57.2015L25.6551 23.933Z" fill="#68B2BC" stroke="white" stroke-miterlimit="10"/>
</g>
<defs>
<clipPath id="clip0">
<rect width="56" height="73" fill="white"/>
</clipPath>
</defs>
</svg>
