<?xml version="1.0" encoding="utf-8"?>
<!-- Generator: Adobe Illustrator 24.1.3, SVG Export Plug-In . SVG Version: 6.00 Build 0)  -->
<svg version="1.1" xmlns="http://www.w3.org/2000/svg" xmlns:xlink="http://www.w3.org/1999/xlink" x="0px" y="0px"
	 viewBox="0 0 179 232" style="enable-background:new 0 0 179 232;" xml:space="preserve">
<style type="text/css">
	.st0{fill:none;}
	.st1{fill:#F5F5F5;}
	.st2{fill:#E1E1E1;}
	.st3{fill:#ECECEC;}
	.st4{fill:#00DFBF;}
	.st5{opacity:0.15;}
	.st6{fill:#FFFFFF;}
	.st7{fill:#2B454E;}
	.st8{fill:#1A2E35;}
	.st9{fill:#375A64;}
	.st10{fill:#FAFAFA;}
	.st11{opacity:0.3;fill:#FFFFFF;}
	.st12{opacity:0.2;}
	.st13{fill:#FF9090;}
	.st14{opacity:0.1;}
	.st15{opacity:0.35;fill:#FFFFFF;}
	.st16{opacity:0.05;}
	.st17{opacity:0.95;fill:#FFFFFF;}
	.st18{opacity:0.8;fill:#FFFFFF;}
	.st19{opacity:0.7;fill:#FFFFFF;}
	.st20{fill:#FFAAA8;}
	.st21{fill:#C76668;}
	.st22{opacity:0.4;fill:#FFFFFF;}
	.st23{opacity:0.3;}
	.st24{opacity:0.4;}
	.st25{opacity:0.7;}
	.st26{fill:#E5D283;}
	.st27{opacity:0.25;}
	.st28{fill:#E57D7A;}
	.st29{opacity:0.2;fill:#E57D7A;}
	.st30{opacity:0.1;fill:#E57D7A;}
	.st31{fill:#79D388;}
	.st32{display:none;}
</style>
<g id="Layer_1">
	<rect x="-321" y="62" class="st0" width="158" height="56"/>
	<ellipse id="Floor_13_" class="st1" cx="89.421" cy="153.003" rx="84.712" ry="51.84"/>
	<path id="Shadow_15_" class="st2" d="M132.285,174.514c-0.325,0-0.809-0.055-1.266-0.319l-14.976-8.647
		c-0.536-0.309-0.857-0.828-0.857-1.386c0-0.558,0.32-1.077,0.857-1.386l24.799-14.318c0.457-0.264,0.94-0.319,1.266-0.319
		c0.325,0,0.809,0.055,1.266,0.319l14.976,8.646c0.537,0.309,0.857,0.827,0.857,1.386c0,0.558-0.32,1.076-0.857,1.386
		l-24.799,14.318C133.094,174.459,132.611,174.514,132.285,174.514z"/>
	<path id="Shadow_8_" class="st2" d="M100.809,193.47c-1.949,0-3.836-0.214-5.61-0.637c-1.824-0.433-3.491-1.049-4.953-1.829
		l-0.037-0.02c-0.3-0.168-0.688-0.401-1.185-0.711c-0.468-0.292-0.947-0.6-1.441-0.923c-0.494-0.324-0.959-0.634-1.392-0.933
		c-0.452-0.309-0.799-0.558-1.056-0.758c-1.281-1.002-2.248-2.149-2.88-3.415c-0.695-1.395-0.899-2.867-0.608-4.376
		c0.276-1.431,1.042-2.857,2.276-4.237c1.167-1.305,2.8-2.505,4.993-3.668c2.43-1.288,4.784-2.234,6.997-2.812
		c2.222-0.581,4.358-0.884,6.349-0.9l0.188-0.001c1.943,0,3.796,0.242,5.508,0.718c1.734,0.483,3.372,1.137,4.87,1.944
		c0.596,0.33,1.235,0.719,1.921,1.169c0.695,0.455,1.276,0.864,1.776,1.248c0.93,0.688,1.586,1.456,1.949,2.283
		c0.35,0.806,0.463,1.614,0.338,2.411c0.055-0.004,0.111-0.006,0.167-0.008l0.104-0.001c0.707,0,1.359,0.209,1.891,0.604
		c0.721,0.51,1.083,1.354,0.949,2.225c-0.093,0.602-0.249,1.251-0.462,1.932c-0.256,0.811-0.718,1.643-1.376,2.474
		c-0.615,0.778-1.436,1.569-2.509,2.417c-1.037,0.818-2.413,1.683-4.09,2.572c-2.099,1.113-4.241,1.938-6.365,2.451
		c-2.113,0.51-4.192,0.773-6.18,0.782L100.809,193.47z M99.482,180.646c0.068,0.049,0.144,0.102,0.23,0.158
		c0.67,0.439,1.334,0.698,1.973,0.77c0.12,0.013,0.236,0.02,0.348,0.02c0.286,0,0.554-0.044,0.811-0.133
		c-0.062-0.044-0.13-0.091-0.206-0.14c-0.677-0.443-1.348-0.709-1.995-0.79c-0.117-0.014-0.233-0.022-0.345-0.022
		C100.016,180.508,99.747,180.553,99.482,180.646z"/>
	<path id="Shadow_3_" class="st2" d="M56.413,186.571L7.704,158.513c-1.027-0.593-1.027-1.555,0-2.148l98.854-57.051
		c1.027-0.593,2.693-0.593,3.721,0l48.71,28.058c1.027,0.593,1.027,1.555,0,2.148l-98.854,57.051
		C59.106,187.164,57.441,187.164,56.413,186.571z"/>
	<g id="Clouds_7_">
		<g id="XMLID_746_">
			<path id="XMLID_923_" class="st3" d="M53.149,43.805l-2.479,1.431c0.012-0.111,0.021-0.221,0.021-0.328V44.19
				c0-1.278-0.897-1.796-2.004-1.157c-0.448,0.259-0.861,0.669-1.195,1.149c-0.181-1.607-1.442-2.206-2.974-1.322
				c-1.656,0.956-2.998,3.281-2.998,5.193v1.075c0,0.495,0.092,0.912,0.254,1.245l-2.059,1.189
				c-0.614,0.355-1.112,1.217-1.112,1.926c0,0.709,0.498,0.996,1.112,0.642l13.435-7.756c0.614-0.354,1.112-1.217,1.112-1.926
				C54.26,43.738,53.763,43.451,53.149,43.805z"/>
		</g>
		<g id="XMLID_1345_">
			<path id="XMLID_1348_" class="st3" d="M36.76,37.22l-1.368,0.526v-3.013c0-2.388-1.905-2.961-3.973-1.767l0,0
				c-2.068,1.194-3.745,4.098-3.745,6.487v0.437c-0.469-0.187-1.075-0.115-1.738,0.268l0,0c-1.488,0.859-2.695,2.949-2.695,4.668
				v0.199l-1.907,1.101c-0.98,0.566-1.775,1.942-1.775,3.074s0.795,1.59,1.775,1.025l15.426-8.906
				c0.98-0.566,1.775-1.942,1.775-3.074C38.535,37.113,37.741,36.654,36.76,37.22z"/>
		</g>
	</g>
	<g id="Plants_4_">
		<g id="XMLID_541_">
			<g id="XMLID_635_">
				<path id="XMLID_681_" class="st4" d="M16.342,147.558l2.576-1.488c0,0,1.533-6.369,0.922-12.1
					c-0.859-8.058-6.163-11.09-8.18-10.395c-2.017,0.695-2.601,3.04,0.736,7.839C14.365,134.245,16.784,140.143,16.342,147.558z"/>
			</g>
			<g id="XMLID_574_" class="st5">
				<path id="XMLID_630_" d="M16.342,147.558l2.576-1.488c0,0,1.533-6.369,0.922-12.1c-0.859-8.058-6.163-11.09-8.18-10.395
					c-2.017,0.695-2.601,3.04,0.736,7.839C14.365,134.245,16.784,140.143,16.342,147.558z"/>
			</g>
			<g id="XMLID_542_">
				<path id="XMLID_543_" class="st6" d="M17.41,144.429c-0.008,0-0.016-0.002-0.025-0.003c-0.097-0.019-0.161-0.112-0.142-0.209
					c1.412-7.432-1.184-15.783-4.399-19.259c-0.067-0.072-0.063-0.186,0.01-0.252c0.073-0.066,0.186-0.063,0.252,0.01
					c3.274,3.538,5.921,12.026,4.488,19.568C17.577,144.373,17.497,144.434,17.41,144.429z"/>
			</g>
		</g>
		<g id="XMLID_492_">
			<g id="XMLID_539_">
				<path id="XMLID_540_" class="st4" d="M9.226,152.583c-0.407,0.207-1.489-0.719-1.79-0.944c-0.516-0.386-0.924-0.915-1.182-1.504
					c-0.301-0.685-0.349-1.406-0.207-2.14c0.074-0.381,0.2-0.749,0.326-1.116c0.124-0.36,0.247-0.72,0.37-1.08
					c0.122-0.355,0.245-0.723,0.216-1.098c-0.058-0.755-0.697-1.313-1.279-1.797c-0.644-0.535-1.307-1.231-1.258-2.134
					c0.038-0.696,0.431-1.325,0.89-1.85c0.459-0.525,0.996-0.982,1.415-1.539c0.302-0.401,0.545-0.878,0.525-1.38
					c-0.013-0.312-0.127-0.61-0.261-0.892c-0.289-0.604-0.682-1.163-0.87-1.806c-0.188-0.642-0.117-1.426,0.399-1.853
					c0.423-0.35,1.027-0.372,1.573-0.308c0.505,0.059,0.988,0.313,1.419,0.581c1.393,0.869,2.125,2.607,3.615,3.297
					c0.575,0.266,1.215,0.35,1.818,0.543c0.603,0.192,1.211,0.536,1.465,1.116c0.502,1.143-0.603,2.465-0.27,3.668
					c0.294,1.065,1.292,1.517,1.816,2.49c0.229,0.425,0.263,0.906,0.198,1.384c-0.109,0.811-0.259,1.402-0.695,2.288
					c-0.361,0.732-1.376,2.115-1.376,2.115S9.289,152.551,9.226,152.583z"/>
			</g>
			<g id="XMLID_526_">
				<path id="XMLID_529_" class="st6" d="M13.169,150.528c-0.002,0-0.005,0-0.005,0c-0.101-0.009-0.173-0.096-0.164-0.195
					c0.652-7.069-2.291-15.058-4.604-17.452c-0.068-0.071-0.067-0.184,0.004-0.253c0.071-0.068,0.184-0.066,0.253,0.004
					c2.359,2.443,5.364,10.565,4.703,17.733C13.347,150.462,13.264,150.533,13.169,150.528z"/>
			</g>
			<g id="XMLID_522_">
				<path id="XMLID_523_" class="st6" d="M12.467,141.812c-0.017-0.001-0.035-0.004-0.052-0.011
					c-2.24-0.818-5.071-1.085-5.099-1.088c-0.098-0.009-0.171-0.096-0.162-0.194c0.009-0.098,0.088-0.172,0.194-0.162
					c0.029,0.003,2.904,0.274,5.189,1.109c0.093,0.034,0.141,0.136,0.107,0.229C12.616,141.77,12.543,141.816,12.467,141.812z"/>
			</g>
		</g>
	</g>
	<g id="Device">
		<g id="Mobile">
			<path class="st7" d="M10.924,156.722l45.287,26.142c1.47,0.849,3.201,0.867,4.725,0.089l91.175-52.643
				c1.436-0.829,2.601-2.684,2.601-4.143c0-1.459-1.164-3.314-2.6-4.143l-45.12-26.05c-1.43-0.826-3.771-0.826-5.202,0
				l-90.867,52.463c-1.436,0.829-2.601,2.684-2.601,4.143C8.324,154.038,9.488,155.892,10.924,156.722z"/>
			<path class="st8" d="M56.212,182.863l-45.287-26.142c-1.436-0.829-2.601-2.684-2.601-4.143c0-1.459,1.164-3.313,2.601-4.143
				l47.752-27.57v62.646C57.828,183.52,56.984,183.309,56.212,182.863z"/>
			<path class="st9" d="M57.289,178.205c1.261,0.728,3.325,0.728,4.587,0l90.249-52.105c1.94-1.12,1.94-2.953,0-4.074
				l-45.127-26.054c-1.43-0.826-3.771-0.826-5.202,0l-90.868,52.463c-1.43,0.826-1.43,2.177,0,3.003L57.289,178.205z"/>
			<path class="st7" d="M61.672,172.959c1.365,0.788,3.578,0.788,4.943,0l77.656-44.835c1.365-0.788,1.365-2.066,0-2.854
				l-42.452-24.507c-1.359-0.785-3.584-0.785-4.943,0L19.22,145.598c-1.359,0.785-1.359,2.069,0,2.854L61.672,172.959z"/>
			<path class="st8" d="M99.498,100.183c0.845,0.021,1.68,0.21,2.321,0.58l42.452,24.507c1.365,0.788,1.365,2.066,0,2.854
				l-8.415,4.858l-36.358-23.217V100.183z"/>
			<path class="st10" d="M96.847,102.618c1.359-0.785,3.584-0.785,4.943,0l42.452,24.507c0.27,0.156,0.482,0.331,0.645,0.518
				c-0.159,0.173-0.364,0.335-0.616,0.481l-77.656,44.835c-1.365,0.788-3.578,0.788-4.943,0L19.22,148.452
				c-0.267-0.154-0.479-0.327-0.641-0.512c0.158-0.175,0.358-0.34,0.612-0.486L96.847,102.618z"/>
			<g>
				<path class="st8" d="M128.754,113.808l-7.524-4.344c-0.449-0.259-0.471-0.666-0.05-0.909c0.421-0.243,1.126-0.23,1.575,0.029
					l7.524,4.344c0.449,0.259,0.471,0.666,0.05,0.909C129.908,114.08,129.203,114.067,128.754,113.808z"/>
				<g>
					<path class="st8" d="M115.834,106.36c-0.421-0.243-0.421-0.637,0-0.88c0.421-0.243,1.104-0.243,1.525,0
						c0.421,0.243,0.421,0.637,0,0.88C116.938,106.603,116.256,106.603,115.834,106.36z"/>
					<path class="st8" d="M112.785,104.596c-0.421-0.243-0.421-0.637,0-0.88s1.104-0.243,1.525,0c0.421,0.243,0.421,0.637,0,0.88
						C113.888,104.839,113.206,104.839,112.785,104.596z"/>
					<path class="st8" d="M137.184,118.684c-0.421-0.243-0.421-0.637,0-0.88c0.421-0.243,1.104-0.243,1.525,0
						c0.421,0.243,0.421,0.637,0,0.88C138.288,118.927,137.605,118.927,137.184,118.684z"/>
					<path class="st8" d="M134.134,116.921c-0.421-0.243-0.421-0.637,0-0.88c0.421-0.243,1.104-0.243,1.525,0
						c0.421,0.243,0.421,0.637,0,0.88C135.238,117.164,134.555,117.164,134.134,116.921z"/>
				</g>
			</g>
		</g>
		<g id="Mail_Notification">
			<path id="XMLID_725_" class="st4" d="M59.775,160.437v0.164c0,0.263,0.184,0.582,0.412,0.713l8.834,5.1
				c0.227,0.131,0.596,0.131,0.824,0l14.628-8.446c0.227-0.131,0.412-0.451,0.412-0.713v-0.164c0-0.263-0.184-0.582-0.412-0.713
				l-8.834-5.1c-0.227-0.131-0.596-0.131-0.824,0l-14.628,8.446C59.96,159.855,59.775,160.174,59.775,160.437z"/>
			<path id="XMLID_724_" class="st4" d="M59.775,160.437v0.164c0,0.263,0.184,0.582,0.412,0.713l8.834,5.1
				c0.227,0.131,0.596,0.131,0.824,0l14.628-8.446c0.227-0.131,0.412-0.451,0.412-0.713v-0.164c0-0.263-0.184-0.582-0.412-0.713
				l-8.834-5.1c-0.227-0.131-0.596-0.131-0.824,0l-14.628,8.446C59.96,159.855,59.775,160.174,59.775,160.437z"/>
			<path class="st11" d="M84.473,156.378l-8.834-5.1c-0.227-0.131-0.596-0.131-0.824,0l-5.383,3.108v12.127h0
				c0.149,0,0.298-0.033,0.412-0.098l14.628-8.446c0.227-0.131,0.412-0.451,0.412-0.713v-0.164
				C84.885,156.829,84.7,156.509,84.473,156.378z"/>
			<path class="st5" d="M84.473,156.378l-8.834-5.1c-0.227-0.131-0.596-0.131-0.824,0l-5.383,3.108v12.127h0
				c0.149,0,0.298-0.033,0.412-0.098l14.628-8.446c0.227-0.131,0.412-0.451,0.412-0.713v-0.164
				C84.885,156.829,84.7,156.509,84.473,156.378z"/>
			<path class="st11" d="M69.433,154.385l-9.246,5.338c-0.227,0.131-0.412,0.451-0.412,0.713v0.164c0,0.263,0.184,0.582,0.412,0.713
				l8.834,5.1c0.114,0.066,0.263,0.098,0.412,0.098h0V154.385z"/>
			<path class="st12" d="M69.433,154.385l-9.246,5.338c-0.227,0.131-0.412,0.451-0.412,0.713v0.164c0,0.263,0.184,0.582,0.412,0.713
				l8.834,5.1c0.114,0.066,0.263,0.098,0.412,0.098h0V154.385z"/>
			<path id="XMLID_723_" class="st4" d="M67.607,164.482l-7.419-4.284c-0.227-0.131-0.227-0.344,0-0.476l14.628-8.446
				c0.227-0.131,0.596-0.131,0.824,0l8.834,5.1c0.227,0.131,0.227,0.344,0,0.475l-2.427,1.401l-0.85,0.491l-11.352,6.554
				c-0.227,0.131-0.596,0.131-0.824,0l-0.72-0.416L67.607,164.482z"/>
			<path id="XMLID_720_" class="st11" d="M67.607,164.482l-7.419-4.284c-0.227-0.131-0.227-0.344,0-0.476l14.628-8.446
				c0.227-0.131,0.596-0.131,0.824,0l8.834,5.1c0.227,0.131,0.227,0.344,0,0.475l-2.427,1.401l-0.85,0.491l-11.352,6.554
				c-0.227,0.131-0.596,0.131-0.824,0l-0.72-0.416L67.607,164.482z"/>
			<path class="st5" d="M74.342,157.366l10.131-0.988l-10.042,0.569l1.208-5.669c-0.123-0.071-0.287-0.1-0.449-0.094l-1.895,7.663
				l-13.276,1.095c-0.01,0.093,0.045,0.187,0.167,0.258l10.722-0.622l-1.476,5.821l1.887-5.845h0l1.831-0.106
				c0.231-0.013,0.441-0.106,0.604-0.253l0.001,0l0-0.001c0.152-0.137,0.264-0.32,0.309-0.531L74.342,157.366z"/>
			<path id="XMLID_712_" class="st11" d="M63.187,159.68l10.108-0.834l0.362-1.448l0.2-0.806l1.334-5.408
				c-0.137,0.005-0.272,0.034-0.376,0.094l-7.314,4.223l-7.314,4.223c-0.105,0.061-0.159,0.138-0.167,0.218l2.028-0.167
				L63.187,159.68z"/>
			<path id="XMLID_703_" class="st13" d="M73.554,150.068c0.924-0.533,2.422-0.533,3.346,0c0.924,0.533,0.924,1.398,0,1.932
				c-0.924,0.533-2.422,0.533-3.346,0C72.631,151.466,72.631,150.602,73.554,150.068z"/>
			<g>
				<path class="st10" d="M74.059,151.352c-0.029-0.002-0.053-0.01-0.07-0.024c-0.016-0.014-0.023-0.029-0.019-0.047l0.138-0.608
					c0.004-0.015,0.009-0.033,0.016-0.054c0.006-0.021,0.023-0.039,0.051-0.055l0.338-0.195c0.02-0.011,0.045-0.017,0.075-0.017
					c0.03,0,0.054,0.006,0.075,0.017l1.792,1.034c0.02,0.011,0.03,0.026,0.03,0.043c0,0.017-0.01,0.031-0.03,0.043l-0.363,0.209
					c-0.021,0.012-0.046,0.018-0.075,0.018c-0.03,0-0.055-0.006-0.075-0.018l-1.212-0.7l-0.08,0.335
					c-0.004,0.017-0.017,0.031-0.04,0.041c-0.023,0.01-0.049,0.014-0.079,0.012L74.059,151.352z"/>
			</g>
		</g>
		<g id="Notification">
			<path class="st4" d="M90.545,153.991l-9.939-5.739c-0.226-0.131-0.226-0.342,0-0.473l36.068-20.825
				c0.226-0.131,0.593-0.131,0.819,0l9.941,5.739c0.226,0.131,0.226,0.342,0,0.473l-36.07,20.825
				C91.138,154.122,90.771,154.122,90.545,153.991z"/>
			<g>
				<path class="st10" d="M88.634,147.507c-0.034,0.02-0.068,0.029-0.104,0.029c-0.035,0-0.062,0-0.08-0.001l-2.066-0.233
					l1.223,0.706c0.021,0.013,0.033,0.028,0.033,0.046c0,0.018-0.011,0.034-0.033,0.046l-0.241,0.139
					c-0.022,0.013-0.049,0.019-0.08,0.019c-0.032,0-0.058-0.006-0.08-0.019l-1.918-1.107c-0.022-0.013-0.033-0.028-0.033-0.046
					c0-0.018,0.011-0.034,0.033-0.046l0.208-0.12c0.034-0.019,0.068-0.029,0.104-0.029c0.036,0,0.062,0,0.08,0.002l2.067,0.233
					l-1.224-0.707c-0.021-0.013-0.032-0.028-0.033-0.046c0-0.018,0.011-0.034,0.033-0.046l0.241-0.139
					c0.021-0.013,0.048-0.019,0.08-0.019c0.032,0,0.058,0.006,0.081,0.019l1.918,1.107c0.022,0.013,0.033,0.028,0.033,0.046
					c0,0.019-0.011,0.034-0.033,0.046L88.634,147.507z"/>
				<path class="st10" d="M88.509,146.687c-0.111-0.064-0.198-0.134-0.263-0.21c-0.064-0.076-0.101-0.153-0.11-0.232
					c-0.009-0.078,0.011-0.156,0.059-0.231c0.048-0.076,0.128-0.146,0.239-0.21c0.111-0.064,0.232-0.11,0.362-0.139
					c0.131-0.028,0.262-0.041,0.394-0.038c0.131,0.003,0.261,0.021,0.387,0.054c0.127,0.033,0.241,0.079,0.342,0.137l0.134,0.077
					c0.022,0.013,0.033,0.028,0.033,0.047c0,0.018-0.011,0.034-0.033,0.046l-0.992,0.572c0.045,0.026,0.095,0.044,0.149,0.053
					c0.053,0.009,0.108,0.011,0.164,0.007c0.055-0.005,0.109-0.016,0.163-0.033c0.053-0.017,0.102-0.038,0.145-0.064
					c0.064-0.037,0.109-0.07,0.135-0.1c0.027-0.03,0.043-0.059,0.049-0.085c0.006-0.022,0.013-0.038,0.021-0.049
					c0.008-0.012,0.024-0.024,0.048-0.038l0.238-0.137c0.022-0.013,0.049-0.019,0.081-0.02c0.033,0,0.059,0.006,0.079,0.02
					c0.026,0.017,0.047,0.047,0.061,0.088c0.015,0.042,0.014,0.091-0.001,0.149c-0.016,0.057-0.051,0.118-0.106,0.184
					c-0.055,0.066-0.137,0.131-0.248,0.195c-0.111,0.064-0.231,0.111-0.359,0.14c-0.129,0.03-0.261,0.042-0.395,0.038
					c-0.135-0.004-0.268-0.025-0.399-0.062C88.753,146.809,88.628,146.756,88.509,146.687z M88.792,146.01
					c-0.057,0.033-0.098,0.067-0.122,0.099c-0.024,0.033-0.036,0.065-0.037,0.097c-0.001,0.031,0.007,0.061,0.025,0.088
					c0.017,0.028,0.04,0.051,0.065,0.07l0.671-0.387c-0.033-0.015-0.072-0.028-0.115-0.041c-0.044-0.013-0.091-0.02-0.143-0.021
					c-0.052-0.001-0.106,0.005-0.163,0.019C88.915,145.948,88.855,145.973,88.792,146.01z"/>
				<path class="st10" d="M91.903,144.899l-0.581-0.644c-0.01-0.013-0.017-0.027-0.023-0.042c-0.005-0.016,0.006-0.031,0.034-0.047
					l0.225-0.13c0.022-0.013,0.049-0.019,0.081-0.019s0.058,0.006,0.08,0.019c0.008,0.004,0.014,0.009,0.017,0.014l0.921,1.049
					c0.012,0.014,0.02,0.028,0.024,0.045c0.003,0.016-0.008,0.032-0.036,0.048l-0.226,0.13c-0.028,0.016-0.055,0.023-0.082,0.02
					c-0.027-0.003-0.052-0.007-0.079-0.013l-1.08-0.292l0.504,0.624c0.01,0.015,0.017,0.03,0.023,0.045
					c0.005,0.015-0.007,0.031-0.034,0.047l-0.225,0.13c-0.028,0.016-0.056,0.023-0.083,0.021c-0.028-0.003-0.053-0.007-0.077-0.014
					l-1.818-0.531c-0.007-0.002-0.016-0.006-0.023-0.01c-0.022-0.013-0.033-0.028-0.033-0.047c0-0.018,0.01-0.034,0.032-0.046
					l0.226-0.13c0.028-0.016,0.055-0.023,0.082-0.02c0.027,0.003,0.051,0.007,0.073,0.013l1.116,0.336l-0.564-0.655
					c-0.012-0.011-0.018-0.026-0.019-0.044c-0.001-0.017,0.009-0.033,0.031-0.045l0.226-0.13c0.022-0.013,0.048-0.018,0.079-0.018
					c0.031,0.001,0.055,0.004,0.076,0.011L91.903,144.899z"/>
				<path class="st10" d="M93.245,143.953c-0.11-0.064-0.198-0.134-0.262-0.21c-0.064-0.076-0.101-0.153-0.11-0.232
					c-0.009-0.078,0.011-0.155,0.059-0.231c0.048-0.076,0.128-0.146,0.239-0.21c0.111-0.064,0.232-0.11,0.362-0.139
					c0.131-0.028,0.262-0.041,0.394-0.038c0.131,0.003,0.261,0.021,0.387,0.054c0.127,0.033,0.241,0.079,0.341,0.137l0.134,0.077
					c0.022,0.013,0.033,0.028,0.033,0.046c0,0.018-0.011,0.034-0.033,0.046l-0.992,0.572c0.045,0.027,0.095,0.044,0.149,0.053
					c0.053,0.009,0.108,0.011,0.163,0.007c0.055-0.004,0.11-0.016,0.163-0.033c0.053-0.017,0.102-0.038,0.145-0.064
					c0.064-0.037,0.109-0.07,0.135-0.1c0.027-0.03,0.043-0.059,0.049-0.085c0.006-0.022,0.013-0.038,0.021-0.05
					c0.008-0.012,0.024-0.024,0.047-0.038l0.238-0.137c0.021-0.013,0.049-0.019,0.081-0.02c0.033,0,0.059,0.006,0.079,0.02
					c0.026,0.017,0.046,0.047,0.061,0.089c0.015,0.041,0.014,0.091-0.001,0.148c-0.016,0.057-0.051,0.119-0.105,0.184
					c-0.055,0.065-0.137,0.13-0.248,0.194c-0.111,0.064-0.231,0.111-0.359,0.14c-0.129,0.03-0.261,0.042-0.395,0.038
					c-0.135-0.004-0.268-0.025-0.399-0.062C93.489,144.074,93.365,144.022,93.245,143.953z M93.528,143.276
					c-0.057,0.033-0.098,0.066-0.122,0.099c-0.024,0.033-0.037,0.065-0.037,0.097c-0.001,0.031,0.007,0.061,0.026,0.088
					c0.017,0.028,0.04,0.051,0.065,0.071l0.671-0.388c-0.033-0.015-0.072-0.028-0.115-0.041c-0.044-0.013-0.091-0.02-0.142-0.021
					c-0.052-0.001-0.106,0.005-0.164,0.019C93.651,143.214,93.591,143.239,93.528,143.276z"/>
				<path class="st10" d="M94.79,142.341c-0.01-0.061,0.004-0.119,0.04-0.176c0.037-0.057,0.091-0.106,0.164-0.148
					c0.125-0.072,0.25-0.118,0.376-0.136c0.126-0.019,0.249-0.02,0.369-0.003c-0.014-0.038-0.018-0.077-0.012-0.116
					c0.006-0.04,0.02-0.079,0.04-0.116c0.021-0.037,0.048-0.072,0.083-0.105c0.035-0.033,0.074-0.061,0.117-0.086
					c0.113-0.065,0.225-0.109,0.339-0.13c0.113-0.022,0.224-0.028,0.334-0.018c0.11,0.01,0.217,0.033,0.319,0.071
					c0.103,0.038,0.201,0.083,0.294,0.137l0.799,0.461c0.022,0.013,0.033,0.028,0.033,0.047c0,0.018-0.011,0.034-0.033,0.046
					l-0.226,0.13c-0.022,0.013-0.049,0.019-0.08,0.019c-0.032,0-0.058-0.006-0.081-0.019l-0.783-0.453
					c-0.135-0.078-0.255-0.117-0.36-0.118c-0.105-0.001-0.204,0.025-0.297,0.079c-0.079,0.046-0.121,0.1-0.126,0.162
					c-0.005,0.062,0.055,0.132,0.179,0.208l0.799,0.461c0.022,0.013,0.033,0.028,0.033,0.047c0,0.018-0.011,0.034-0.033,0.046
					l-0.226,0.13c-0.021,0.013-0.048,0.018-0.08,0.019c-0.032,0-0.058-0.006-0.08-0.019l-0.784-0.452
					c-0.135-0.078-0.255-0.117-0.36-0.119c-0.105-0.001-0.204,0.025-0.297,0.079c-0.081,0.047-0.123,0.103-0.126,0.167
					c-0.003,0.065,0.061,0.135,0.194,0.212l0.784,0.453c0.021,0.013,0.033,0.028,0.033,0.047c0,0.018-0.011,0.034-0.033,0.046
					l-0.226,0.13c-0.022,0.013-0.049,0.019-0.08,0.019c-0.032,0-0.058-0.006-0.08-0.019l-1.384-0.799
					c-0.022-0.013-0.033-0.028-0.033-0.047c0-0.018,0.011-0.034,0.033-0.046l0.225-0.13c0.022-0.013,0.049-0.019,0.081-0.019
					s0.058,0.006,0.081,0.019L94.79,142.341z"/>
				<path class="st10" d="M97.364,141.122c-0.034-0.028-0.06-0.065-0.079-0.109c-0.019-0.044-0.023-0.094-0.012-0.147
					c0.011-0.054,0.041-0.111,0.09-0.171c0.05-0.059,0.125-0.118,0.226-0.177c0.101-0.058,0.205-0.103,0.313-0.135
					c0.108-0.031,0.217-0.049,0.327-0.053c0.11-0.004,0.22,0.007,0.33,0.034c0.109,0.027,0.215,0.069,0.316,0.127l0.874,0.504
					c0.021,0.013,0.033,0.028,0.033,0.047c0,0.018-0.011,0.034-0.033,0.046l-0.226,0.13c-0.022,0.013-0.049,0.019-0.08,0.019
					c-0.032,0-0.058-0.006-0.08-0.019l-0.098-0.057c0.016,0.057,0.005,0.12-0.033,0.189c-0.038,0.068-0.117,0.138-0.238,0.207
					c-0.085,0.049-0.173,0.087-0.263,0.112c-0.09,0.026-0.179,0.04-0.266,0.042c-0.087,0.002-0.171-0.006-0.252-0.024
					c-0.081-0.018-0.156-0.047-0.223-0.086c-0.137-0.079-0.195-0.169-0.175-0.269c0.02-0.101,0.097-0.205,0.232-0.315l0.401-0.327
					c-0.081-0.047-0.166-0.065-0.252-0.053c-0.087,0.011-0.17,0.04-0.249,0.086c-0.05,0.028-0.081,0.055-0.095,0.079
					c-0.014,0.024-0.022,0.05-0.024,0.079c-0.001,0.02-0.007,0.035-0.016,0.047c-0.009,0.012-0.022,0.023-0.04,0.034l-0.276,0.159
					c-0.02,0.011-0.042,0.018-0.068,0.019C97.401,141.142,97.38,141.136,97.364,141.122z M98.698,141.32
					c0.067-0.039,0.118-0.079,0.152-0.12c0.034-0.041,0.052-0.081,0.056-0.12c0.004-0.039-0.005-0.075-0.026-0.108
					c-0.022-0.033-0.054-0.062-0.095-0.086l-0.03-0.017l-0.333,0.275c-0.068,0.055-0.106,0.1-0.115,0.136
					c-0.009,0.036,0.01,0.067,0.055,0.093c0.041,0.024,0.093,0.029,0.156,0.016C98.58,141.376,98.64,141.353,98.698,141.32z"/>
				<path class="st10" d="M98.436,139.413c0.022-0.013,0.048-0.019,0.08-0.019c0.031,0,0.058,0.006,0.08,0.019l0.231,0.133
					c0.022,0.013,0.033,0.028,0.033,0.047c0,0.018-0.011,0.034-0.033,0.046l-0.255,0.147c-0.022,0.013-0.049,0.019-0.081,0.019
					c-0.032,0-0.058-0.006-0.08-0.019l-0.231-0.134c-0.022-0.013-0.033-0.028-0.033-0.046c0-0.018,0.011-0.034,0.033-0.046
					L98.436,139.413z M100.53,140.546c0.022,0.013,0.033,0.028,0.033,0.047c-0.001,0.018-0.011,0.034-0.033,0.046l-0.226,0.13
					c-0.022,0.013-0.049,0.019-0.08,0.019c-0.032,0-0.059-0.006-0.081-0.019l-1.383-0.799c-0.022-0.013-0.033-0.028-0.033-0.047
					c0-0.018,0.01-0.034,0.032-0.046l0.226-0.13c0.022-0.013,0.049-0.019,0.081-0.019c0.031,0,0.058,0.007,0.08,0.019
					L100.53,140.546z"/>
				<path class="st10" d="M101.325,140.087c0.022,0.013,0.033,0.028,0.033,0.047c0,0.018-0.011,0.034-0.033,0.046l-0.225,0.13
					c-0.022,0.013-0.049,0.019-0.08,0.019c-0.032,0-0.059-0.006-0.08-0.019l-1.948-1.124c-0.021-0.013-0.033-0.028-0.033-0.047
					c0-0.018,0.011-0.034,0.033-0.046l0.226-0.13c0.022-0.013,0.048-0.019,0.08-0.019s0.058,0.006,0.08,0.019L101.325,140.087z"/>
			</g>
			<path class="st10" d="M89.546,149.106l29.428-16.99c0.362-0.209,0.892-0.242,1.184-0.073c0.292,0.168,0.235,0.474-0.127,0.683
				l-29.432,16.993c-0.362,0.209-0.891,0.241-1.182,0.072C89.127,149.621,89.184,149.315,89.546,149.106z"/>
			<path class="st10" d="M91.612,150.299l29.428-16.99c0.362-0.209,0.892-0.242,1.184-0.073c0.292,0.168,0.235,0.474-0.127,0.683
				l-29.432,16.993c-0.362,0.209-0.891,0.241-1.182,0.072C91.193,150.814,91.25,150.508,91.612,150.299z"/>
		</g>
	</g>
	<g id="Character_Envelope">
		<polygon id="Shadow_5_" class="st2" points="47.917,161.327 32.547,152.453 101.4,112.7 117.084,121.393 		"/>
		<g id="Back">
			<path id="XMLID_489_" class="st4" d="M43.76,106.001l65.484-37.807l2.62,1.513c0.678,0.391,1.232,1.351,1.232,2.134v48.306
				c0,0.782-0.554,1.742-1.232,2.134l-63.02,36.385c-0.678,0.391-1.786,0.391-2.464,0l-1.388-0.802
				c-0.678-0.391-1.232-1.351-1.232-2.134L43.76,106.001z"/>
			<path id="XMLID_471_" class="st12" d="M43.76,106.001l65.484-37.807l2.62,1.513c0.678,0.391,1.232,1.351,1.232,2.134v48.306
				c0,0.782-0.554,1.742-1.232,2.134l-63.02,36.385c-0.678,0.391-1.786,0.391-2.464,0l-1.388-0.802
				c-0.678-0.391-1.232-1.351-1.232-2.134L43.76,106.001z"/>
			<path id="XMLID_470_" class="st4" d="M108.882,63.948l0.268-0.146l-1.018-0.591v0.001c-0.087-0.051-0.178-0.095-0.27-0.129
				L79.043,52.403c-0.763-0.283-1.754,0.032-2.213,0.704l-32.238,47.079c-0.46,0.671-0.832,1.874-0.832,2.688
				c0,1.345,0,3.127,0,3.127l0.999,0.58l64.484-38.387v-3.127C109.243,64.686,109.104,64.291,108.882,63.948z"/>
			<path id="XMLID_469_" class="st14" d="M78.164,53.335c-0.128,0.098-0.241,0.221-0.334,0.353L45.59,100.766
				c-0.236,0.349-0.452,0.84-0.599,1.345l-1.002-0.579c0.074-0.245,0.162-0.486,0.26-0.712c0.005-0.01,0.005-0.015,0.01-0.02
				c0.044-0.098,0.088-0.191,0.137-0.285c0.01-0.015,0.015-0.029,0.025-0.044c0.054-0.103,0.113-0.201,0.172-0.285l32.236-47.077
				c0.049-0.074,0.103-0.133,0.162-0.196c0.054-0.054,0.113-0.108,0.172-0.157L78.164,53.335z"/>
			<path id="XMLID_465_" class="st15" d="M109.139,63.797c-0.088-0.054-0.182-0.098-0.275-0.133L80.04,52.982
				c-0.609-0.226-1.365-0.069-1.875,0.353l-1.002-0.579c0.516-0.417,1.267-0.579,1.88-0.353l28.819,10.678
				c0.093,0.034,0.182,0.079,0.27,0.133L109.139,63.797z"/>
			<g id="XMLID_408_">
				<path id="XMLID_464_" class="st4" d="M44.42,100.469c0.055-0.102,0.113-0.197,0.172-0.283
					C44.533,100.272,44.475,100.368,44.42,100.469z"/>
				<path id="XMLID_1103_" class="st4" d="M76.992,52.913c0.054-0.055,0.112-0.108,0.173-0.157
					C77.104,52.805,77.045,52.856,76.992,52.913z"/>
				<path id="XMLID_463_" class="st4" d="M43.988,101.533c0.074-0.247,0.163-0.489,0.262-0.714
					C44.15,101.044,44.062,101.286,43.988,101.533z"/>
				<path id="XMLID_449_" class="st4" d="M44.258,100.798c0.044-0.099,0.091-0.192,0.138-0.282
					C44.349,100.606,44.302,100.7,44.258,100.798z"/>
				<path id="XMLID_432_" class="st12" d="M44.25,100.819c0.003-0.007,0.005-0.014,0.008-0.02
					C44.255,100.805,44.253,100.812,44.25,100.819z"/>
				<polygon id="XMLID_1097_" class="st12" points="43.988,101.533 43.988,101.533 43.988,101.533 				"/>
				<polygon id="XMLID_431_" class="st12" points="77.165,52.756 77.164,52.756 77.165,52.756 				"/>
				<path id="XMLID_417_" class="st12" d="M44.396,100.516c0.008-0.015,0.015-0.032,0.023-0.047
					C44.412,100.484,44.404,100.501,44.396,100.516z"/>
				<path id="XMLID_409_" class="st12" d="M76.83,53.107c0.048-0.069,0.104-0.133,0.162-0.194
					C76.932,52.973,76.877,53.037,76.83,53.107z"/>
			</g>
			<path id="XMLID_402_" class="st4" d="M77.829,53.687l-32.238,47.079c-0.46,0.671-0.832,1.874-0.832,2.688
				c0,1.345,0,3.127,0,3.127l65.484-37.809l-0.001-3.124c0-0.813-0.618-1.702-1.381-1.985L80.042,52.984
				C79.279,52.701,78.288,53.016,77.829,53.687z"/>
			<path id="XMLID_1091_" class="st16" d="M110.243,65.647c0-0.374-0.135-0.761-0.35-1.101l-64.902,37.564
				c0,0-0.003,0.006-0.006,0.01c-0.139,0.466-0.226,0.944-0.226,1.333c0,1.345,0,3.127,0,3.127l65.484-37.809L110.243,65.647z"/>
		</g>
		<g id="Paper">
			<path class="st4" d="M107.446,52.378c0-0.337-0.117-0.574-0.307-0.686c-0.193-0.114-1.806-1.043-1.999-1.154
				c-0.192-0.111-0.458-0.095-0.751,0.075L50.676,81.622c-0.587,0.339-1.063,1.163-1.063,1.841l0,64.326
				c0,0.339,0.119,0.577,0.311,0.688c0.192,0.111,1.802,1.041,1.995,1.152c0.192,0.111,0.458,0.095,0.752-0.074l53.712-31.009
				c0.587-0.339,1.063-1.163,1.063-1.841L107.446,52.378z"/>
			<path class="st17" d="M107.446,52.378c0-0.337-0.117-0.574-0.307-0.686c-0.193-0.114-1.806-1.043-1.999-1.154
				c-0.192-0.111-0.458-0.095-0.751,0.075L50.676,81.622c-0.587,0.339-1.063,1.163-1.063,1.841l0,64.326
				c0,0.339,0.119,0.577,0.311,0.688c0.192,0.111,1.802,1.041,1.995,1.152c0.192,0.111,0.458,0.095,0.752-0.074l53.712-31.009
				c0.587-0.339,1.063-1.163,1.063-1.841L107.446,52.378z"/>
			<path class="st4" d="M52.671,149.554l53.712-31.009c0.587-0.339,1.063-1.163,1.063-1.841l0-64.326
				c0-0.678-0.476-0.953-1.063-0.614L52.671,82.773c-0.587,0.339-1.063,1.163-1.063,1.841l0,64.326
				C51.608,149.618,52.084,149.893,52.671,149.554z"/>
			<path class="st18" d="M52.671,149.554l53.712-31.009c0.587-0.339,1.063-1.163,1.063-1.841l0-64.326
				c0-0.678-0.476-0.953-1.063-0.614L52.671,82.773c-0.587,0.339-1.063,1.163-1.063,1.841l0,64.326
				C51.608,149.618,52.084,149.893,52.671,149.554z"/>
			<path class="st4" d="M51.606,148.94c0,0.299,0.093,0.52,0.25,0.648c-0.358-0.201-1.753-1.011-1.929-1.11
				c-0.196-0.113-0.314-0.349-0.314-0.687V83.462c0-0.339,0.118-0.712,0.314-1.046l1.993,1.149
				c-0.196,0.334-0.314,0.712-0.314,1.051V148.94z"/>
			<path class="st19" d="M51.606,148.94c0,0.299,0.093,0.52,0.25,0.648c-0.358-0.201-1.753-1.011-1.929-1.11
				c-0.196-0.113-0.314-0.349-0.314-0.687V83.462c0-0.339,0.118-0.712,0.314-1.046l1.993,1.149
				c-0.196,0.334-0.314,0.712-0.314,1.051V148.94z"/>
			<path class="st16" d="M51.606,148.94c0,0.299,0.093,0.52,0.25,0.648c-0.358-0.201-1.753-1.011-1.929-1.11
				c-0.196-0.113-0.314-0.349-0.314-0.687V83.462c0-0.339,0.118-0.712,0.314-1.046l1.993,1.149
				c-0.196,0.334-0.314,0.712-0.314,1.051V148.94z"/>
		</g>
		<g id="Character_12_">
			<path class="st7" d="M71.209,100.323c-0.237,5.984,0.166,18.808,0.166,18.808s6.343,1.917,10.655,1.202
				c4.312-0.715,13.534-7.247,13.534-7.247l-1.537-13.878L71.209,100.323z"/>
			<path class="st8" d="M85.935,118.913l1.03-9.775c4.043-2.411,5.358-5.747,5.358-5.747c-3.68,4.818-7.518,4.038-7.518,4.038
				v12.001C85.174,119.272,85.552,119.099,85.935,118.913z"/>
			<path id="XMLID_880_" class="st9" d="M96.561,82.294c1.027-5.208,1.493-12.13-3.038-13.4c-1.18-0.331-4.185-0.101-4.185-0.101
				l-4.886,0.242c-2.72,0.347-6.536,0.888-7.536,1.134c-2.625,0.646-3.404,4.932-4.58,14.432
				c-0.737,5.948-1.363,10.592-1.363,16.381c4.8,4.303,19.8,2.609,23.214-0.19C94.329,94.231,94.687,91.796,96.561,82.294z"/>
			<g>
				<path class="st7" d="M83.624,67.261c-0.047,0.951,1.048,2.556,2.722,3.683c1.675,1.127,3.118,1.583,3.301,2.054
					c-0.795,0.149-1.513,0.543-2.105,1.908c-0.565,1.303-0.559,1.345-2.493,0c-1.933-1.345-3.662-4.432-3.658-5.46
					c0.004-1.028,1.52-3.017,2.264-2.848L83.624,67.261z"/>
				<path class="st7" d="M89.648,72.998c0.566-0.618,1.102-2.174,1.172-2.846c0.069-0.672,0.248-2.438,0.248-2.438
					s0.46,0.119,0.669,0.434c0.209,0.315,1.237,2.442,1.204,3.629c-0.033,1.187-0.312,2.793-0.713,3.47
					c-0.401,0.677-0.671-0.518-0.933-0.98C90.954,73.666,90.486,73.014,89.648,72.998z"/>
				<path class="st7" d="M88.883,74.36c0,0,0.093,4.289-0.301,6.569c0,0,1.291,0.237,2.551-0.069c0,0-0.654,0.806-3.052,0.436
					C88.08,81.297,88.817,76.82,88.883,74.36z"/>
			</g>
			<g id="XMLID_796_">
				<g id="XMLID_809_">
					<path class="st8" d="M99.036,54.557c-0.056-3.758-3.148-6.76-6.906-6.705c-3.516,0.052-6.369,2.762-6.677,6.188l-3.091-2.199
						c0,0-1.127-0.176-1.99,0.733c-0.846,0.891-0.326,3.634,0.784,6.312c0,0,1.116,4.888,1.547,5.688
						c0.431,0.8,1.299,1.016,1.299,1.016l-0.107-2.975l12.364-0.888l-1.223-0.87C97.428,59.774,99.077,57.351,99.036,54.557z"/>
					<path id="XMLID_838_" class="st20" d="M83.715,59.076c-0.391,0.241-0.748-0.585-1.458-1.009
						c-0.604-0.36-1.962-0.993-2.858,0.507c-0.965,1.616,0.786,3.85,2.013,4.31c1.816,0.682,2.466-0.742,2.466-0.742l-0.375,7.569
						c2.473,4.504,9.812,4.214,7.316,0.442l0.3-2.919c0,0,1.956,0.267,2.905,0.106c1.58-0.268,2.558-1.533,3.013-3.254
						c0.731-2.765,0.991-4.992,0.256-10.398c-0.805-5.925-7.71-5.884-11.403-3.483C82.198,52.607,83.715,59.076,83.715,59.076z"/>
					<path class="st8" d="M98.801,48.157c-0.502-0.273-1.108-0.295-1.671-0.192c0.126-0.852-0.451-1.688-1.21-2.032
						c-0.919-0.417-1.749-0.27-2.558,0.342c0.167-0.602-0.38-1.215-0.99-1.348c-0.61-0.133-1.238,0.076-1.822,0.3
						c-0.868,0.332-1.723,0.701-2.604,0.995c-1.554,0.519-3.207,0.815-4.612,1.657c-0.332,0.199-0.652,0.432-0.878,0.746
						c-0.317,0.439-0.422,1.002-0.397,1.542c0.008,0.18,0.038,0.356,0.075,0.53c-0.105-0.114-0.225-0.214-0.369-0.288
						c-0.664-0.344-1.467-0.064-1.796,0.624l2.341,1.212c-0.058,0.471-0.117,0.943-0.164,1.416
						c-0.126,1.248-0.368,2.703-0.086,3.944c0.032,0.14,0.055,0.304,0.153,0.417c0,0,0.606,0.439,1.218,1.184
						c0.181,0.221,0.4,0.577,0.693,0.663c0.292,0.086,0.706-0.078,0.809-0.369c0.062-0.175,0.045-0.367,0.026-0.551
						c-0.076-0.769-0.151-1.538-0.227-2.307c-0.02-0.205-0.039-0.42,0.037-0.612c0.103-0.258,0.353-0.419,0.564-0.599
						c0.538-0.459,0.877-1.143,0.919-1.848c0.013-0.222-0.001-0.449,0.062-0.662c0.048-0.163,0.177-0.416,0.363-0.417
						c0.361-0.001,2.321,0.425,2.813,0.493c2.564,0.351,5.319,0.419,7.581-0.839c0.881-0.49,2.365-1.506,2.519-2.595
						C99.67,48.996,99.303,48.43,98.801,48.157z"/>
					<path id="XMLID_810_" class="st13" d="M91.119,67.234c0,0-3.546-0.66-4.791-1.299c-0.834-0.428-1.526-1.179-1.734-1.665
						c0,0,0.247,1.046,1,1.979c0.921,1.142,5.428,1.925,5.428,1.925L91.119,67.234z"/>
				</g>
				<g id="XMLID_797_">
					<path id="XMLID_808_" class="st8" d="M90.968,58.439c0.006,0.381-0.287,0.693-0.654,0.698
						c-0.367,0.005-0.668-0.301-0.674-0.682c-0.006-0.381,0.287-0.693,0.654-0.698C90.66,57.753,90.962,58.059,90.968,58.439z"/>
					<path id="XMLID_806_" class="st8" d="M89.677,55.964l-1.557,0.757c-0.2-0.446-0.014-0.978,0.415-1.187
						C88.965,55.325,89.476,55.517,89.677,55.964z"/>
					<path id="XMLID_804_" class="st21" d="M89.695,62.587l2.814,1.009c-0.265,0.806-1.11,1.234-1.887,0.956
						C89.844,64.273,89.429,63.393,89.695,62.587z"/>
					<path class="st13" d="M91.471,64.587c-0.112-0.797-0.844-1.357-1.643-1.253c-0.063,0.008-0.121,0.027-0.18,0.042
						c0.098,0.526,0.451,0.987,0.973,1.175C90.906,64.654,91.2,64.659,91.471,64.587z"/>
					<path id="XMLID_803_" class="st8" d="M97.058,56.478l-1.504-0.785c0.204-0.412,0.706-0.571,1.121-0.354
						C97.09,55.555,97.261,56.065,97.058,56.478z"/>
					<path id="XMLID_799_" class="st8" d="M96.293,58.327c0.006,0.381-0.287,0.693-0.654,0.698
						c-0.367,0.004-0.668-0.301-0.674-0.682c-0.006-0.381,0.287-0.693,0.654-0.698C95.985,57.641,96.287,57.946,96.293,58.327z"/>
					<polygon id="XMLID_798_" class="st13" points="92.905,57.914 93.038,62.209 95.571,61.62 					"/>
				</g>
			</g>
		</g>
		<g id="Front">
			<path id="XMLID_1018_" class="st4" d="M111.434,120.79c-0.02,0.034-0.039,0.064-0.068,0.098l-27.288-8.653
				c-2.143-0.952-4.652-0.177-5.897,1.815L49.008,157.41l-1.079,0.623l-0.01,0.005c-0.327,0.182-0.62,0.206-0.835,0.093
				l30.002-44.693c1.245-1.992,3.759-2.767,5.902-1.82L111.434,120.79z"/>
			<path id="XMLID_1017_" class="st22" d="M75.494,118.307l0.069-0.059l-26.555,39.164l-1.08,0.624l-0.01,0.005
				c-0.324,0.182-0.619,0.201-0.835,0.093l27.361-40.455L75.494,118.307z"/>
			<path id="XMLID_330_" class="st22" d="M111.436,120.792c-0.02,0.034-0.039,0.064-0.069,0.098l-27.292-8.656
				c-2.141-0.952-4.649-0.177-5.896,1.817l-1.08-0.628c1.247-1.983,3.751-2.749,5.891-1.807L111.436,120.792z"/>
			<path id="XMLID_1011_" class="st4" d="M113.073,71.532h-0.005c-0.059-0.353-0.245-0.452-0.486-0.285
				c-0.093,0.064-0.201,0.172-0.314,0.324l-0.137,0.191l-26.929,40.94l-4.021,5.602c-0.452,0.638-1.443,1.006-2.214,0.83
				l-3.471-0.825l-26.497-9.755c-0.191-0.044-0.373-0.049-0.54-0.02c-0.069,0.015-0.137,0.034-0.201,0.064l0.999-0.577l25.403,9.31
				l3.345,1.194c0.766,0.182,1.758-0.187,2.214-0.83l4.021-5.597L111.3,70.967c0.088-0.123,0.196-0.211,0.304-0.28l-2.342-1.35
				l0.982-0.565l1.62,0.933C112.454,70.049,112.95,70.82,113.073,71.532z"/>
			<path id="XMLID_1010_" class="st22" d="M85.2,112.7l-4.021,5.602c-0.452,0.638-1.443,1.006-2.214,0.83l-3.471-0.825l0.069-0.059
				l0.167-0.265l2.273,0.54c0.766,0.182,1.758-0.187,2.214-0.83l3.982-5.538L85.2,112.7z"/>
			<path id="XMLID_1009_" class="st14" d="M111.863,69.703l-1.62-0.933l-0.982,0.565l2.342,1.35
				c0.002,0.002,0.004,0.003,0.006,0.004l-0.004-0.002c-0.118,0.074-0.221,0.165-0.304,0.28l-27.063,41.129l-0.039,0.054v0.005
				L85.2,112.7l26.929-40.94l0.137-0.191c0.113-0.152,0.221-0.26,0.314-0.324c0.241-0.167,0.427-0.069,0.486,0.285h0.005
				C112.948,70.818,112.452,70.047,111.863,69.703z"/>
			<path id="XMLID_1008_" class="st4" d="M49.537,109.338l-5.777-3.337l0,49.728c0,0.782,0.554,1.742,1.232,2.134l1.388,0.801
				c0.678,0.391,1.786,0.391,2.464,0l0.693-0.4V109.338z"/>
			<path id="XMLID_329_" class="st5" d="M49.537,109.338l-5.777-3.337l0,49.728c0,0.782,0.554,1.742,1.232,2.134l1.388,0.801
				c0.678,0.391,1.786,0.391,2.464,0l0.693-0.4V109.338z"/>
			<path id="XMLID_324_" class="st4" d="M113.097,71.841v48.305c0,0.407-0.147,0.854-0.383,1.247
				c-0.196,0.324-0.442,0.614-0.722,0.81l-0.049,0.025c-0.029,0.02-0.049,0.039-0.079,0.054l-63.018,36.379l-0.01,0.005
				c-0.329,0.187-0.624,0.211-0.84,0.098c-0.192-0.098-0.324-0.299-0.368-0.589c-0.01-0.069-0.015-0.142-0.015-0.221v-48.309
				c0-0.781,0.614-1.272,1.385-1.09l26.497,9.755l3.471,0.825c0.771,0.177,1.763-0.191,2.214-0.83l4.021-5.602l26.929-40.94
				l0.137-0.191C112.724,70.938,113.097,71.056,113.097,71.841z"/>
			<path id="XMLID_1004_" class="st4" d="M111.864,122.282c0.029-0.014,0.052-0.033,0.081-0.052l0.047-0.028
				c0.28-0.194,0.526-0.484,0.721-0.806c0.233-0.387,0.378-0.829,0.382-1.227l-27.892-7.466l18.678,14.187L111.864,122.282z"/>
			<path id="XMLID_318_" class="st12" d="M111.864,122.282c0.029-0.014,0.052-0.033,0.081-0.052l0.047-0.028
				c0.28-0.194,0.526-0.484,0.721-0.806c0.233-0.387,0.378-0.829,0.382-1.227l-27.892-7.466l18.678,14.187L111.864,122.282z"/>
			<path id="XMLID_317_" class="st4" d="M47.613,157.952c0,0.408,0.147,0.688,0.384,0.811c0.218,0.114,0.512,0.09,0.839-0.095
				l0.009-0.005l21.697-12.526l4.955-27.83l-27.883,38.841L47.613,157.952z"/>
			<path id="XMLID_279_" class="st5" d="M78.169,114.045l-30.174,44.716c-0.236-0.123-0.383-0.403-0.383-0.81l0.002-0.803
				l29.475-43.712c0-0.005,0.005-0.01,0.01-0.015L78.169,114.045z"/>
			<path id="XMLID_992_" class="st4" d="M112.713,121.395c-0.194,0.322-0.441,0.612-0.721,0.806l-0.047,0.028l-63.099,36.433
				l-0.009,0.005c-0.327,0.185-0.621,0.209-0.839,0.095l30.177-44.724c1.251-1.997,3.778-2.772,5.933-1.821L112.713,121.395z"/>
			<path id="XMLID_966_" class="st5" d="M43.989,101.532l1.002,0.579c-0.142,0.471-0.231,0.952-0.231,1.345c0,1.345,0,3.122,0,3.122
				l-1.002-0.579c0,0,0-1.782,0-3.127C43.759,102.484,43.847,102.003,43.989,101.532z"/>
			<polygon id="XMLID_277_" class="st4" points="49.256,108.021 48.258,108.599 47.246,108.014 44.757,106.581 45.724,106.006 			
				"/>
			<path id="XMLID_276_" class="st14" d="M49.301,108.04l-3.576-2.034l-0.967,0.574l2.489,1.434l1.011,0.584l0.011-0.006
				c0.061-0.027,0.124-0.046,0.189-0.06c0.167-0.029,0.349-0.025,0.54,0.02l2.014,0.743l23.13,8.515l0.362-0.536L49.301,108.04z"/>
		</g>
		<g id="Arm">
			<path class="st20" d="M76.916,70.169c-3.21,0.231-5.412,0.995-7.481,5.966c-1.338,3.214-6.581,14.762-7.089,16.67
				c-0.597,2.242-1.937,19.28-1.937,19.28l3.064,1.15c0,0-1.05,3.667-1.936,5.762c-1.022,2.415,3.968,1.909,5.571-0.287
				c1.607-2.203,2.695-5.134,1.819-6.165c-1.158-1.362-2.432-2.25-2.432-2.25l3.354-15.201l7.034-14.953
				C76.884,80.142,80.413,72.792,76.916,70.169z"/>
			<path class="st13" d="M66.495,110.296c-1.64-0.925-3.109-0.887-3.109-0.887s1.611-0.517,3.255,0L66.495,110.296z"/>
			<path class="st7" d="M77.645,70.022c-1.803-0.015-5.167-0.096-7.346,3.84c-2.179,3.936-5.26,11.415-5.26,11.415
				s1.281,3.151,8.137,3.809l5.252-11.175C78.428,77.91,79.707,72.782,77.645,70.022z"/>
		</g>
		<g id="Arm_1_">
			<g id="XMLID_812_">
				<path class="st20" d="M100.907,72.602c2.708,2.135,7.107,5.493,9.245,6.838c1.616-1.956,4.589-5.912,5.311-6.778
					c0.917-1.102,3.814-2.901,3.814-2.901l1.094,4.388c0,0-5.492,10.131-7.482,12.007c-2.097,1.976-3.615,1.157-7.712-0.722
					c-3.871-1.775-8.074-3.975-8.074-3.975c0.833-7.364,0.268-11.353-3.25-12.594C96.217,69.159,98.635,70.811,100.907,72.602z"/>
				<path class="st7" d="M107.981,77.958c-1.416,0.389-4.342,4.553-3.808,7.187l-7.455-3.685c0.903-5.083,1.096-11.363-3.195-12.566
					c-0.318-0.091-0.768-0.136-1.256-0.159l0,0c2.138-0.212,3.533-0.15,5.773,1.534C100.28,71.953,107.981,77.958,107.981,77.958z"
					/>
				<path class="st13" d="M110.152,79.44c-1.068,0.936-1.414,2.625-1.621,3.294c0,0-0.223-1.952,1.003-3.696L110.152,79.44z"/>
				<g id="XMLID_813_">
					<g id="XMLID_1151_">
						<path id="XMLID_879_" class="st7" d="M120.533,64.852l2.555-1.55c0,0,0.294,13.79,0.304,14.239
							c0.01,0.448,0.536,0.886,0.536,0.886l-2.555,1.548c0,0-0.527-0.437-0.536-0.885C120.826,78.642,120.533,64.852,120.533,64.852
							z"/>
						<path id="XMLID_878_" class="st20" d="M123.21,69.049c0,0,0.734,0.175,1.015,1.313c0.281,1.139,0.422,3.314-0.232,4.03
							c-0.654,0.717-1.547,1.029-2.141,0.772c-1.11-0.482-0.772-2.734,0.117-3.254c1.422-0.83,1.251-1.745,1.251-1.745
							L123.21,69.049z"/>
						<path id="XMLID_877_" class="st9" d="M117.387,64.894l1.12,1.366l0.201,9.725l-1.138,1.901l3.801,2.089
							c-0.332-0.288-0.504-0.583-0.536-0.885l-0.265-12.447L117.387,64.894z"/>
						<polygon id="XMLID_876_" class="st4" points="117.571,77.886 117.584,78.483 121.385,80.572 121.372,79.975 						"/>
						<polygon id="XMLID_875_" class="st4" points="121.385,80.572 123.94,79.024 123.928,78.426 121.372,79.975 						"/>
						<polygon id="XMLID_874_" class="st14" points="121.385,80.572 123.94,79.024 123.928,78.426 121.372,79.975 						"/>
					</g>
					<g>
						<g id="XMLID_853_">
							<path id="XMLID_873_" class="st4" d="M118.131,58.145L118.131,58.145c-0.497-0.123-1.073,0.086-1.606,0.657l-0.019,0.021
								c-1.054,1.129-1.544,3.242-1.094,4.72l0.008,0.027c0.233,0.765,0.673,1.209,1.19,1.303l0,0l2.21,0.532l1.354-6.767
								L118.131,58.145z"/>
							<path id="XMLID_872_" class="st19" d="M118.131,58.145L118.131,58.145c-0.497-0.123-1.073,0.086-1.606,0.657l-0.019,0.021
								c-1.054,1.129-1.544,3.242-1.094,4.72l0.008,0.027c0.233,0.765,0.673,1.209,1.19,1.303l0,0l2.21,0.532l1.354-6.767
								L118.131,58.145z"/>
							<path id="XMLID_871_" class="st16" d="M116.61,64.873L116.61,64.873l2.21,0.532l0.449-2.243l-4.021-0.932
								c-0.009,0.462,0.042,0.911,0.164,1.312l0.008,0.027C115.653,64.335,116.094,64.779,116.61,64.873z"/>
							<path id="XMLID_870_" class="st4" d="M122.61,58.334l-0.001,0.002c-0.559-0.128-1.195,0.078-1.8,0.642
								c-0.064,0.058-0.127,0.121-0.19,0.189c-0.074,0.08-0.145,0.161-0.214,0.249c-0.115,0.143-0.223,0.295-0.325,0.456
								c-0.187,0.293-0.35,0.612-0.49,0.948c-0.374,0.905-0.572,1.933-0.55,2.892c0.012,0.484,0.079,0.95,0.209,1.375
								c0.275,0.903,0.781,1.451,1.379,1.609l-2.103-0.486l0.001-0.004c-0.746-0.207-1.393-0.785-1.664-1.673
								c-0.124-0.406-0.191-0.85-0.206-1.31c-0.033-0.977,0.166-2.03,0.548-2.955c0.14-0.337,0.303-0.657,0.49-0.948
								c0.101-0.161,0.209-0.314,0.325-0.456c0.069-0.088,0.141-0.171,0.214-0.249c0.062-0.067,0.127-0.129,0.193-0.188
								c0.605-0.533,1.351-0.711,2.037-0.584l0.001-0.002l0.058,0.013c0.024,0.006,0.05,0.011,0.075,0.018L122.61,58.334z"/>
							<path id="XMLID_869_" class="st14" d="M118.525,66.21l0.001-0.004c-0.746-0.207-1.393-0.785-1.664-1.673
								c-0.124-0.406-0.191-0.85-0.206-1.31l2.384,0.489c0.012,0.484,0.079,0.95,0.209,1.375c0.275,0.903,0.781,1.451,1.379,1.609
								L118.525,66.21z"/>
							<path id="XMLID_868_" class="st4" d="M124.038,59.958c0.565,1.854-0.048,4.503-1.371,5.919
								c-0.664,0.713-1.383,0.977-2.004,0.827c-0.011-0.002-0.023-0.005-0.034-0.008c-0.598-0.159-1.104-0.706-1.379-1.609
								c-0.565-1.854,0.048-4.503,1.371-5.92c0.66-0.706,1.372-0.973,1.99-0.83C123.229,58.477,123.754,59.03,124.038,59.958z"/>
							<path id="XMLID_866_" class="st12" d="M124.038,59.958c0.565,1.854-0.048,4.503-1.371,5.919
								c-0.664,0.713-1.383,0.977-2.004,0.827c-0.011-0.002-0.023-0.005-0.034-0.008c-0.598-0.159-1.104-0.706-1.379-1.609
								c-0.565-1.854,0.048-4.503,1.371-5.92c0.66-0.706,1.372-0.973,1.99-0.83C123.229,58.477,123.754,59.03,124.038,59.958z"/>
							<path id="XMLID_863_" class="st4" d="M132.801,56.763c0,0-2.473,2.398-3.655,7.498c-0.232,1.002-0.373,1.933-0.451,2.781
								c-0.317,3.468,0.435,5.561,0.435,5.561c-1.526-1.873-3.288-3.758-5.618-4.902c-1.442-0.708-2.796-1.184-2.796-1.184
								l0.001-0.003c-0.564-0.132-1.029-0.652-1.283-1.485c-0.167-0.549-0.227-1.17-0.192-1.807c0.02-0.403,0.079-0.814,0.172-1.216
								c0.24-1.038,0.709-2.022,1.348-2.706c0.595-0.636,1.24-0.899,1.805-0.769l0.001-0.002c0,0,1.426,0.168,3.032,0.166
								C128.195,58.692,130.607,57.774,132.801,56.763z"/>
							<path id="XMLID_862_" class="st19" d="M132.801,56.763c0,0-2.473,2.398-3.655,7.498c-0.232,1.002-0.373,1.933-0.451,2.781
								c-0.317,3.468,0.435,5.561,0.435,5.561c-1.526-1.873-3.288-3.758-5.618-4.902c-1.442-0.708-2.796-1.184-2.796-1.184
								l0.001-0.003c-0.564-0.132-1.029-0.652-1.283-1.485c-0.167-0.549-0.227-1.17-0.192-1.807c0.02-0.403,0.079-0.814,0.172-1.216
								c0.24-1.038,0.709-2.022,1.348-2.706c0.595-0.636,1.24-0.899,1.805-0.769l0.001-0.002c0,0,1.426,0.168,3.032,0.166
								C128.195,58.692,130.607,57.774,132.801,56.763z"/>
							<path id="XMLID_861_" class="st16" d="M128.696,67.041c-0.317,3.468,0.435,5.561,0.435,5.561
								c-1.526-1.873-3.288-3.758-5.618-4.902c-1.442-0.708-2.796-1.184-2.796-1.184l0.001-0.003
								c-0.564-0.132-1.029-0.652-1.283-1.485c-0.167-0.549-0.227-1.17-0.192-1.807C121.803,63.657,126.023,64.612,128.696,67.041z"
								/>
							<path id="XMLID_860_" class="st4" d="M139.599,59.262c0.589,1.933,0.639,4.23,0.244,6.485l0,0.001
								c-0.507,2.889-1.742,5.707-3.509,7.599c-3.147,3.369-6.788,2.525-8.132-1.884c-0.308-1.009-0.468-2.116-0.496-3.265
								c-0.066-2.83,0.676-5.911,2.025-8.378c0.19-0.348,0.391-0.683,0.605-1.004c0.088-0.134,0.18-0.265,0.273-0.394l0.001,0
								c0.132-0.183,0.267-0.36,0.407-0.53c0.146-0.178,0.294-0.349,0.448-0.514C134.613,54.009,138.255,54.852,139.599,59.262z"/>
							<path id="XMLID_858_" class="st14" d="M139.844,65.748c-0.507,2.889-1.742,5.707-3.509,7.599
								c-3.147,3.369-6.788,2.525-8.132-1.884c-0.308-1.009-0.468-2.116-0.496-3.265l0.001,0c0.432,0.492,1.609,1.023,1.851,0.325
								c0.029,1.027,0.174,2.009,0.444,2.895c0.386,1.267,0.981,2.204,1.719,2.71c0.63,0.431,1.344,0.53,2.123,0.292
								c0.757-0.229,1.552-0.777,2.3-1.576c1.503-1.609,2.603-4.013,3.139-6.519C139.284,66.324,139.583,66.453,139.844,65.748z"/>
							<path id="XMLID_855_" class="st4" d="M139.201,59.652c0.594,1.947,0.58,4.354,0.083,6.672
								c-0.536,2.506-1.636,4.91-3.139,6.519c-0.749,0.8-1.543,1.347-2.3,1.576c-0.778,0.239-1.493,0.14-2.123-0.292
								c-0.738-0.506-1.332-1.443-1.719-2.71c-0.27-0.886-0.415-1.867-0.444-2.895c-0.012-0.388-0.007-0.782,0.014-1.181
								c0.036-0.693,0.12-1.401,0.251-2.1c0.027-0.144,0.055-0.287,0.085-0.429c0.049-0.237,0.103-0.475,0.163-0.709
								c0.203-0.804,0.465-1.59,0.779-2.334c0.003-0.008,0.008-0.017,0.011-0.026c0.21-0.496,0.442-0.971,0.694-1.422
								c0.182-0.325,0.375-0.635,0.578-0.931c0.085-0.124,0.172-0.245,0.261-0.364c0.107-0.142,0.217-0.281,0.329-0.416
								c0.109-0.131,0.221-0.257,0.335-0.379c0.75-0.804,1.546-1.348,2.302-1.58C137.037,56.14,138.473,57.264,139.201,59.652z"/>
							<path id="XMLID_854_" class="st23" d="M139.201,59.652c0.594,1.947,0.58,4.354,0.083,6.672
								c-0.536,2.506-1.636,4.91-3.139,6.519c-0.749,0.8-1.543,1.347-2.3,1.576c-0.778,0.239-1.493,0.14-2.123-0.292
								c-0.738-0.506-1.332-1.443-1.719-2.71c-0.27-0.886-0.415-1.867-0.444-2.895c-0.012-0.388-0.007-0.782,0.014-1.181
								c0.036-0.693,0.12-1.401,0.251-2.1c0.027-0.144,0.055-0.287,0.085-0.429c0.049-0.237,0.103-0.475,0.163-0.709
								c0.203-0.804,0.465-1.59,0.779-2.334c0.003-0.008,0.008-0.017,0.011-0.026c0.21-0.496,0.442-0.971,0.694-1.422
								c0.182-0.325,0.375-0.635,0.578-0.931c0.085-0.124,0.172-0.245,0.261-0.364c0.107-0.142,0.217-0.281,0.329-0.416
								c0.109-0.131,0.221-0.257,0.335-0.379c0.75-0.804,1.546-1.348,2.302-1.58C137.037,56.14,138.473,57.264,139.201,59.652z"/>
						</g>
						<g id="XMLID_847_">
							<path id="XMLID_851_" class="st4" d="M133.655,62.528l-1.045,5.269c-0.759-0.048-2.038-0.106-3.051-0.06
								c0.003-0.131,0.008-0.262,0.015-0.395c0.036-0.693,0.12-1.401,0.251-2.1c0.027-0.144,0.055-0.287,0.085-0.429
								c0.049-0.237,0.103-0.475,0.163-0.709c0.203-0.804,0.465-1.59,0.779-2.334c0.003-0.008,0.008-0.017,0.011-0.026
								c0.047-0.109,0.093-0.218,0.142-0.324C132.199,62.078,133.655,62.528,133.655,62.528z"/>
						</g>
						<g id="XMLID_844_" class="st24">
							<path id="XMLID_1132_" class="st6" d="M133.655,62.528l-1.045,5.269c-0.759-0.048-2.038-0.106-3.051-0.06
								c0.003-0.131,0.008-0.262,0.015-0.395c0.036-0.693,0.12-1.401,0.251-2.1c0.027-0.144,0.055-0.287,0.085-0.429
								c0.049-0.237,0.103-0.475,0.163-0.709c0.203-0.804,0.465-1.59,0.779-2.334c0.003-0.008,0.008-0.017,0.011-0.026
								c0.047-0.109,0.093-0.218,0.142-0.324C132.199,62.078,133.655,62.528,133.655,62.528z"/>
						</g>
						<g id="XMLID_842_">
							<path id="XMLID_843_" class="st4" d="M132.809,67.724c-0.548,0.167-1.011-0.176-1.237-0.918l-0.007-0.023
								c-0.356-1.166,0.032-2.84,0.865-3.731l0.016-0.017c0.222-0.238,0.461-0.4,0.693-0.471c0.548-0.167,1.011,0.176,1.237,0.918
								l0.007,0.023c0.356,1.166-0.032,2.84-0.865,3.731l-0.016,0.017C133.279,67.491,133.04,67.653,132.809,67.724L132.809,67.724z
								"/>
						</g>
						<g id="XMLID_840_" class="st25">
							<path id="XMLID_841_" class="st6" d="M132.809,67.724c-0.548,0.167-1.011-0.176-1.237-0.918l-0.007-0.023
								c-0.356-1.166,0.032-2.84,0.865-3.731l0.016-0.017c0.222-0.238,0.461-0.4,0.693-0.471c0.548-0.167,1.011,0.176,1.237,0.918
								l0.007,0.023c0.356,1.166-0.032,2.84-0.865,3.731l-0.016,0.017C133.279,67.491,133.04,67.653,132.809,67.724L132.809,67.724z
								"/>
						</g>
					</g>
					<g id="XMLID_820_">
						<g id="XMLID_837_">
							<path id="XMLID_1125_" class="st2" d="M131.535,54.167c-0.302,0.092-0.62-0.078-0.712-0.379l-1.608-5.276
								c-0.092-0.301,0.078-0.62,0.379-0.712c0.302-0.092,0.62,0.078,0.712,0.379l1.608,5.276
								C132.007,53.757,131.837,54.075,131.535,54.167z"/>
						</g>
						<g id="XMLID_1122_">
							<path id="XMLID_1123_" class="st2" d="M127.127,56.917c-0.189,0.058-0.402,0.016-0.556-0.129l-4.031-3.765
								c-0.23-0.215-0.243-0.576-0.027-0.806c0.214-0.23,0.576-0.242,0.806-0.027l4.031,3.765c0.23,0.215,0.243,0.576,0.027,0.806
								C127.306,56.837,127.22,56.889,127.127,56.917z"/>
						</g>
						<g id="XMLID_1120_">
							<path id="XMLID_1121_" class="st2" d="M129.884,83.866c-0.093,0.028-0.194,0.033-0.295,0.01
								c-0.307-0.071-0.498-0.377-0.427-0.685l1.245-5.373c0.071-0.307,0.377-0.499,0.685-0.427
								c0.307,0.071,0.498,0.377,0.427,0.685l-1.245,5.373C130.226,83.655,130.073,83.808,129.884,83.866z"/>
						</g>
						<g id="XMLID_835_">
							<path id="XMLID_836_" class="st2" d="M139.895,81.587c-0.302,0.092-0.62-0.078-0.712-0.379l-1.608-5.276
								c-0.092-0.301,0.078-0.62,0.379-0.712c0.302-0.092,0.62,0.078,0.712,0.379l1.608,5.276
								C140.366,81.176,140.196,81.495,139.895,81.587z"/>
						</g>
						<g id="XMLID_832_">
							<path id="XMLID_833_" class="st2" d="M145.831,74.386c-0.189,0.058-0.402,0.016-0.556-0.129l-4.031-3.765
								c-0.23-0.215-0.243-0.576-0.027-0.806c0.214-0.23,0.576-0.243,0.806-0.027l4.031,3.765c0.23,0.215,0.243,0.576,0.027,0.806
								C146.01,74.306,145.923,74.358,145.831,74.386z"/>
						</g>
						<g id="XMLID_830_">
							<path id="XMLID_831_" class="st2" d="M149.615,67.281c-0.093,0.028-0.194,0.033-0.295,0.01l-5.373-1.245
								c-0.307-0.071-0.498-0.378-0.427-0.685c0.071-0.307,0.378-0.498,0.685-0.427l5.373,1.245
								c0.307,0.071,0.498,0.378,0.427,0.685C149.957,67.07,149.803,67.223,149.615,67.281z"/>
						</g>
						<g id="XMLID_827_">
							<path id="XMLID_828_" class="st2" d="M149.341,59.234l-5.276,1.608c-0.302,0.092-0.62-0.078-0.712-0.379
								c-0.092-0.301,0.078-0.62,0.379-0.712l5.276-1.608c0.302-0.092,0.62,0.078,0.712,0.379
								C149.812,58.823,149.643,59.142,149.341,59.234z"/>
						</g>
						<g id="XMLID_825_">
							<path id="XMLID_826_" class="st2" d="M141.316,56.433c-0.189,0.058-0.402,0.016-0.556-0.129
								c-0.23-0.215-0.243-0.576-0.027-0.806l3.765-4.031c0.214-0.23,0.575-0.243,0.806-0.027c0.23,0.215,0.243,0.576,0.027,0.806
								l-3.765,4.031C141.495,56.353,141.408,56.405,141.316,56.433z"/>
						</g>
						<g id="XMLID_821_">
							<path id="XMLID_823_" class="st2" d="M136.728,53.99c-0.093,0.028-0.194,0.033-0.295,0.01
								c-0.307-0.071-0.498-0.378-0.427-0.685l1.245-5.373c0.071-0.307,0.378-0.498,0.685-0.427
								c0.307,0.071,0.498,0.378,0.427,0.685l-1.245,5.373C137.07,53.779,136.917,53.933,136.728,53.99z"/>
						</g>
					</g>
					<path id="XMLID_814_" class="st20" d="M115.463,72.662c1.088-1.38,1.13-2.244,1.978-2.92c0.848-0.676,1.702-0.72,2.964-0.358
						c0.952,0.273,2.068,0.137,2.454,0.49c0.109,0.073-0.062,0.685-0.508,0.904c-0.538,0.264-1.406,0.199-2.047,0.203
						c-1.459,0.008-0.263,1.439-1.667,2.89C118.04,74.913,115.463,72.662,115.463,72.662z"/>
				</g>
			</g>
		</g>
	</g>
	<polygon id="XMLID_760_" class="st26" points="148.88,94.557 162.267,85.984 168.163,87.877 	"/>
	<polygon id="XMLID_758_" class="st26" points="148.88,94.557 160.45,84.909 157.879,81.94 	"/>
	<polygon id="XMLID_741_" class="st4" points="160.45,84.909 160.45,87.148 148.88,94.557 	"/>
	<polygon id="XMLID_736_" class="st27" points="160.45,84.909 160.45,87.148 148.88,94.557 	"/>
	<g>
		<path class="st2" d="M163.195,83.613c-0.106,0-0.211-0.044-0.286-0.131c-0.137-0.158-0.12-0.397,0.038-0.534
			c0.233-0.202,0.462-0.409,0.686-0.624c0.151-0.144,0.39-0.139,0.535,0.013c0.144,0.151,0.139,0.391-0.013,0.535
			c-0.233,0.222-0.471,0.439-0.714,0.649C163.371,83.583,163.283,83.613,163.195,83.613z"/>
	</g>
	<g>
		<path class="st2" d="M165.187,81.629c-0.089,0-0.178-0.031-0.249-0.094c-0.157-0.138-0.173-0.377-0.035-0.534
			c0.396-0.452,0.783-0.932,1.149-1.429c0.124-0.168,0.361-0.204,0.529-0.08c0.168,0.124,0.204,0.361,0.08,0.529
			c-0.379,0.513-0.779,1.011-1.189,1.478C165.397,81.585,165.292,81.629,165.187,81.629z M167.405,78.632
			c-0.068,0-0.138-0.018-0.2-0.058c-0.177-0.11-0.231-0.344-0.12-0.521c0.319-0.511,0.627-1.047,0.916-1.594
			c0.098-0.185,0.327-0.255,0.511-0.158c0.185,0.098,0.256,0.327,0.158,0.511c-0.297,0.563-0.615,1.115-0.944,1.642
			C167.654,78.57,167.531,78.632,167.405,78.632z M169.147,75.335c-0.051,0-0.103-0.01-0.153-0.032
			c-0.191-0.085-0.278-0.308-0.193-0.499c0.245-0.555,0.477-1.13,0.687-1.708c0.071-0.196,0.289-0.297,0.485-0.226
			c0.196,0.071,0.297,0.289,0.226,0.485c-0.216,0.593-0.454,1.184-0.707,1.754C169.431,75.251,169.292,75.335,169.147,75.335z
			 M170.426,71.83c-0.035,0-0.071-0.005-0.106-0.015c-0.2-0.059-0.316-0.269-0.257-0.47c0.171-0.585,0.327-1.185,0.462-1.784
			c0.046-0.204,0.247-0.332,0.452-0.286c0.204,0.046,0.332,0.248,0.286,0.452c-0.139,0.615-0.298,1.23-0.473,1.831
			C170.741,71.723,170.59,71.83,170.426,71.83z M171.246,68.19c-0.02,0-0.04-0.001-0.06-0.005c-0.207-0.033-0.347-0.227-0.314-0.433
			c0.096-0.603,0.174-1.218,0.233-1.829c0.02-0.208,0.209-0.366,0.413-0.34c0.208,0.02,0.36,0.205,0.34,0.413
			c-0.06,0.626-0.14,1.257-0.239,1.875C171.59,68.057,171.429,68.19,171.246,68.19z M171.6,64.474c-0.004,0-0.008,0-0.012,0
			c-0.209-0.007-0.373-0.181-0.367-0.39c0.009-0.291,0.014-0.583,0.014-0.874c0-0.323-0.006-0.645-0.017-0.967
			c-0.007-0.209,0.156-0.384,0.365-0.391c0.216-0.016,0.384,0.156,0.391,0.365c0.012,0.331,0.017,0.663,0.017,0.994
			c0,0.299-0.004,0.599-0.014,0.898C171.972,64.312,171.803,64.474,171.6,64.474z M171.468,60.745c-0.192,0-0.356-0.145-0.376-0.34
			c-0.063-0.612-0.148-1.225-0.253-1.822c-0.036-0.206,0.102-0.402,0.307-0.438c0.21-0.036,0.402,0.102,0.438,0.307
			c0.108,0.615,0.195,1.246,0.26,1.876c0.021,0.208-0.13,0.394-0.338,0.415C171.494,60.744,171.481,60.745,171.468,60.745z
			 M170.822,57.069c-0.169,0-0.323-0.114-0.367-0.286c-0.151-0.596-0.325-1.189-0.518-1.763c-0.067-0.198,0.04-0.413,0.238-0.479
			c0.198-0.068,0.412,0.04,0.479,0.238c0.2,0.592,0.38,1.205,0.535,1.819c0.051,0.202-0.072,0.408-0.274,0.46
			C170.884,57.066,170.852,57.069,170.822,57.069z M169.627,53.535c-0.146,0-0.286-0.085-0.347-0.228
			c-0.243-0.564-0.511-1.119-0.798-1.651c-0.099-0.184-0.03-0.414,0.154-0.513c0.184-0.099,0.413-0.03,0.513,0.154
			c0.296,0.551,0.574,1.127,0.826,1.71c0.083,0.192-0.006,0.415-0.197,0.497C169.728,53.525,169.677,53.535,169.627,53.535z
			 M167.859,50.252c-0.123,0-0.244-0.06-0.316-0.17c-0.336-0.51-0.698-1.008-1.077-1.48c-0.131-0.163-0.105-0.401,0.059-0.532
			c0.164-0.13,0.402-0.104,0.532,0.059c0.394,0.491,0.77,1.008,1.118,1.537c0.115,0.174,0.067,0.409-0.108,0.524
			C168.003,50.232,167.93,50.252,167.859,50.252z M165.53,47.34c-0.1,0-0.2-0.039-0.274-0.117c-0.414-0.435-0.858-0.866-1.318-1.282
			c-0.155-0.14-0.167-0.379-0.027-0.535c0.14-0.155,0.38-0.167,0.535-0.027c0.474,0.429,0.931,0.873,1.358,1.321
			c0.144,0.152,0.139,0.391-0.013,0.535C165.718,47.306,165.624,47.34,165.53,47.34z M162.765,44.835
			c-0.082,0-0.164-0.027-0.234-0.081c-0.473-0.373-0.973-0.742-1.483-1.095c-0.172-0.119-0.215-0.355-0.096-0.527
			c0.119-0.172,0.354-0.215,0.527-0.096c0.523,0.363,1.035,0.741,1.521,1.123c0.164,0.129,0.192,0.367,0.063,0.531
			C162.988,44.786,162.877,44.835,162.765,44.835z M159.698,42.708c-0.067,0-0.135-0.018-0.197-0.055
			c-0.517-0.316-1.055-0.625-1.602-0.92c-0.184-0.099-0.253-0.329-0.153-0.513c0.099-0.184,0.33-0.253,0.513-0.153
			c0.558,0.301,1.109,0.617,1.637,0.94c0.178,0.109,0.235,0.342,0.126,0.52C159.95,42.643,159.826,42.708,159.698,42.708z
			 M156.414,40.933c-0.054,0-0.11-0.012-0.162-0.037c-0.553-0.263-1.121-0.517-1.688-0.754c-0.193-0.081-0.284-0.302-0.203-0.495
			c0.081-0.193,0.303-0.284,0.495-0.203c0.578,0.242,1.158,0.501,1.721,0.769c0.189,0.09,0.269,0.316,0.179,0.504
			C156.691,40.854,156.555,40.933,156.414,40.933z M118.206,39.993c-0.155,0-0.301-0.096-0.356-0.251
			c-0.071-0.197,0.032-0.414,0.229-0.484c0.592-0.212,1.191-0.415,1.779-0.605c0.201-0.063,0.412,0.045,0.476,0.244
			c0.064,0.199-0.045,0.412-0.244,0.476c-0.58,0.187-1.171,0.387-1.756,0.596C118.291,39.986,118.248,39.993,118.206,39.993z
			 M152.972,39.49c-0.043,0-0.087-0.007-0.13-0.023c-0.569-0.208-1.158-0.409-1.752-0.598c-0.199-0.063-0.309-0.276-0.246-0.475
			c0.063-0.199,0.276-0.31,0.475-0.246c0.604,0.192,1.204,0.397,1.783,0.608c0.196,0.072,0.297,0.289,0.225,0.486
			C153.271,39.395,153.126,39.49,152.972,39.49z M121.76,38.85c-0.165,0-0.316-0.108-0.364-0.274
			c-0.058-0.201,0.058-0.411,0.259-0.468c0.595-0.171,1.206-0.335,1.815-0.489c0.203-0.051,0.409,0.072,0.459,0.275
			c0.051,0.203-0.072,0.408-0.275,0.459c-0.602,0.151-1.204,0.313-1.791,0.482C121.829,38.845,121.794,38.85,121.76,38.85z
			 M149.413,38.361c-0.033,0-0.066-0.004-0.099-0.013c-0.583-0.158-1.188-0.309-1.797-0.448c-0.204-0.046-0.331-0.249-0.285-0.453
			c0.046-0.203,0.246-0.333,0.453-0.285c0.619,0.141,1.233,0.294,1.827,0.455c0.202,0.055,0.321,0.262,0.266,0.464
			C149.732,38.25,149.58,38.361,149.413,38.361z M125.381,37.939c-0.174,0-0.331-0.121-0.369-0.299
			c-0.044-0.204,0.086-0.405,0.29-0.45c0.612-0.132,1.232-0.255,1.842-0.366c0.209-0.037,0.403,0.1,0.44,0.305
			c0.037,0.206-0.099,0.403-0.305,0.44c-0.602,0.109-1.214,0.231-1.817,0.361C125.434,37.937,125.407,37.939,125.381,37.939z
			 M145.773,37.533c-0.023,0-0.046-0.002-0.069-0.006c-0.596-0.111-1.211-0.212-1.828-0.303c-0.207-0.03-0.35-0.222-0.32-0.429
			c0.03-0.207,0.221-0.353,0.429-0.32c0.627,0.092,1.252,0.195,1.857,0.307c0.205,0.038,0.341,0.236,0.303,0.441
			C146.111,37.405,145.952,37.533,145.773,37.533z M129.051,37.274c-0.185,0-0.347-0.136-0.374-0.324
			c-0.03-0.207,0.113-0.399,0.32-0.429c0.621-0.091,1.248-0.171,1.863-0.24c0.206-0.021,0.395,0.126,0.418,0.334
			c0.023,0.208-0.127,0.395-0.334,0.418c-0.606,0.068-1.225,0.147-1.837,0.236C129.088,37.273,129.069,37.274,129.051,37.274z
			 M142.079,36.994c-0.013,0-0.027-0.001-0.041-0.002c-0.603-0.064-1.224-0.119-1.846-0.162c-0.208-0.015-0.366-0.195-0.351-0.404
			c0.015-0.208,0.197-0.359,0.404-0.351c0.631,0.044,1.262,0.099,1.874,0.165c0.208,0.022,0.358,0.208,0.336,0.416
			C142.434,36.85,142.27,36.994,142.079,36.994z M132.759,36.862c-0.196,0-0.362-0.151-0.377-0.35
			c-0.016-0.208,0.14-0.39,0.349-0.406c0.626-0.047,1.257-0.084,1.875-0.109c0.21-0.021,0.385,0.154,0.394,0.362
			c0.009,0.209-0.154,0.385-0.363,0.394c-0.61,0.025-1.232,0.061-1.849,0.108C132.778,36.862,132.768,36.862,132.759,36.862z
			 M138.354,36.737c-0.004,0-0.008,0-0.012,0c-0.541-0.017-1.085-0.026-1.619-0.026l-0.234,0c-0.001,0-0.001,0-0.002,0
			c-0.208,0-0.377-0.168-0.378-0.377c-0.001-0.209,0.168-0.379,0.377-0.38l0.238,0c0.541,0,1.093,0.009,1.642,0.026
			c0.209,0.006,0.373,0.181,0.367,0.39C138.725,36.575,138.557,36.737,138.354,36.737z"/>
	</g>
	<g>
		<path class="st2" d="M115.547,41.017c-0.149,0-0.29-0.088-0.35-0.234c-0.079-0.193,0.013-0.415,0.206-0.494
			c0.295-0.121,0.589-0.24,0.883-0.356c0.195-0.075,0.414,0.019,0.491,0.213c0.077,0.194-0.019,0.414-0.213,0.491
			c-0.291,0.115-0.582,0.232-0.873,0.352C115.644,41.008,115.595,41.017,115.547,41.017z"/>
	</g>
	<polygon id="XMLID_352_" class="st26" points="31.293,75.515 48.693,66.986 36.144,78.918 	"/>
	<polygon id="XMLID_339_" class="st26" points="48.693,66.986 29.507,73.297 24.656,69.893 	"/>
	<polygon id="XMLID_337_" class="st4" points="29.507,73.297 30.265,78.169 31.293,75.515 48.693,66.986 	"/>
	<polygon id="XMLID_331_" class="st27" points="29.507,73.297 30.265,78.169 31.293,75.515 48.693,66.986 	"/>
	<polygon id="XMLID_1222_" class="st4" points="30.265,78.169 32.91,76.649 31.293,75.515 	"/>
	<polygon id="XMLID_1221_" class="st27" points="31.293,75.515 32.91,76.649 32.488,76.892 	"/>
	<g>
		<path class="st2" d="M32.6,126.586c-0.042,0-0.086-0.007-0.128-0.022c-0.614-0.221-1.213-0.446-1.781-0.671
			c-0.194-0.077-0.289-0.297-0.212-0.491c0.077-0.194,0.297-0.289,0.491-0.212c0.561,0.222,1.152,0.445,1.758,0.663
			c0.197,0.071,0.299,0.287,0.228,0.484C32.901,126.49,32.755,126.586,32.6,126.586z M29.086,125.191
			c-0.051,0-0.102-0.01-0.152-0.032c-0.589-0.259-1.171-0.529-1.729-0.802c-0.188-0.092-0.265-0.319-0.174-0.506
			c0.092-0.187,0.319-0.266,0.506-0.174c0.549,0.269,1.121,0.535,1.701,0.79c0.191,0.084,0.278,0.307,0.194,0.498
			C29.37,125.107,29.231,125.191,29.086,125.191z M25.693,123.525c-0.061,0-0.124-0.015-0.181-0.047
			c-0.563-0.308-1.119-0.631-1.651-0.959c-0.178-0.11-0.233-0.343-0.124-0.521c0.109-0.178,0.343-0.234,0.521-0.124
			c0.522,0.322,1.066,0.638,1.618,0.94c0.183,0.101,0.251,0.33,0.15,0.514C25.956,123.454,25.827,123.525,25.693,123.525z
			 M22.478,121.539c-0.075,0-0.15-0.022-0.216-0.068c-0.529-0.369-1.045-0.753-1.535-1.143c-0.164-0.13-0.191-0.368-0.061-0.531
			c0.13-0.164,0.368-0.191,0.531-0.061c0.477,0.379,0.981,0.755,1.497,1.114c0.171,0.12,0.213,0.355,0.094,0.527
			C22.715,121.482,22.598,121.539,22.478,121.539z M19.524,119.185c-0.091,0-0.183-0.033-0.255-0.099
			c-0.475-0.434-0.935-0.886-1.367-1.345c-0.143-0.152-0.136-0.392,0.016-0.535c0.152-0.144,0.391-0.136,0.535,0.016
			c0.419,0.445,0.866,0.884,1.327,1.306c0.154,0.141,0.165,0.381,0.024,0.535C19.729,119.143,19.626,119.185,19.524,119.185z
			 M16.936,116.436c-0.111,0-0.22-0.048-0.295-0.141c-0.4-0.497-0.785-1.016-1.143-1.544c-0.117-0.173-0.072-0.408,0.101-0.525
			c0.173-0.118,0.408-0.072,0.526,0.101c0.346,0.511,0.718,1.014,1.105,1.494c0.131,0.163,0.106,0.401-0.057,0.532
			C17.103,116.409,17.019,116.436,16.936,116.436z M14.816,113.31c-0.132,0-0.261-0.069-0.33-0.193
			c-0.311-0.552-0.605-1.127-0.874-1.711c-0.088-0.19-0.004-0.414,0.185-0.502c0.189-0.088,0.414-0.004,0.502,0.185
			c0.26,0.565,0.545,1.122,0.846,1.655c0.103,0.182,0.038,0.413-0.144,0.515C14.943,113.295,14.879,113.31,14.816,113.31z
			 M13.233,109.881c-0.154,0-0.299-0.095-0.355-0.247c-0.218-0.589-0.419-1.202-0.598-1.822c-0.058-0.201,0.058-0.411,0.259-0.469
			c0.201-0.057,0.411,0.058,0.469,0.259c0.174,0.603,0.369,1.198,0.581,1.77c0.073,0.196-0.027,0.414-0.224,0.486
			C13.321,109.874,13.277,109.881,13.233,109.881z M12.18,106.252c-0.174,0-0.331-0.121-0.37-0.298
			c-0.133-0.61-0.251-1.243-0.351-1.882c-0.032-0.207,0.109-0.4,0.315-0.433c0.207-0.031,0.4,0.109,0.433,0.315
			c0.098,0.624,0.213,1.242,0.343,1.838c0.044,0.204-0.085,0.406-0.289,0.45C12.234,106.25,12.207,106.252,12.18,106.252z
			 M11.589,102.517c-0.191,0-0.355-0.144-0.376-0.339c-0.064-0.611-0.116-1.251-0.154-1.903c-0.013-0.208,0.147-0.388,0.355-0.4
			c0.208-0.005,0.387,0.147,0.4,0.355c0.038,0.64,0.089,1.269,0.152,1.868c0.022,0.208-0.129,0.394-0.337,0.416
			C11.616,102.516,11.602,102.517,11.589,102.517z M11.393,98.74c-0.002,0-0.004,0-0.007,0c-0.209-0.004-0.375-0.176-0.372-0.385
			c0.011-0.637,0.049-1.283,0.114-1.919c0.021-0.208,0.205-0.356,0.415-0.338c0.208,0.021,0.36,0.207,0.339,0.415
			c-0.062,0.616-0.099,1.24-0.11,1.856C11.767,98.575,11.599,98.74,11.393,98.74z M11.77,94.979c-0.023,0-0.045-0.002-0.069-0.006
			c-0.205-0.038-0.341-0.235-0.304-0.44c0.115-0.626,0.257-1.257,0.422-1.875c0.054-0.202,0.265-0.322,0.463-0.268
			c0.202,0.054,0.322,0.261,0.268,0.463c-0.16,0.599-0.297,1.21-0.409,1.817C12.109,94.851,11.95,94.979,11.77,94.979z
			 M12.746,91.326c-0.042,0-0.084-0.007-0.126-0.022c-0.197-0.069-0.3-0.286-0.231-0.483c0.212-0.6,0.452-1.201,0.712-1.785
			c0.085-0.191,0.308-0.278,0.5-0.191c0.191,0.085,0.277,0.309,0.191,0.5c-0.252,0.566-0.484,1.148-0.69,1.729
			C13.047,91.229,12.902,91.326,12.746,91.326z M14.284,87.873c-0.061,0-0.123-0.015-0.18-0.046c-0.184-0.1-0.252-0.33-0.152-0.513
			c0.306-0.562,0.637-1.117,0.984-1.651c0.114-0.175,0.348-0.224,0.524-0.11c0.175,0.114,0.225,0.348,0.11,0.524
			c-0.337,0.517-0.658,1.055-0.953,1.599C14.548,87.802,14.418,87.873,14.284,87.873z M16.348,84.706
			c-0.081,0-0.162-0.026-0.231-0.079c-0.166-0.128-0.196-0.365-0.068-0.531c0.391-0.505,0.807-1.001,1.236-1.472
			c0.141-0.153,0.38-0.166,0.535-0.025c0.154,0.141,0.166,0.38,0.025,0.535c-0.415,0.456-0.818,0.936-1.197,1.425
			C16.573,84.655,16.461,84.706,16.348,84.706z M18.894,81.913c-0.101,0-0.202-0.04-0.277-0.12
			c-0.143-0.153-0.134-0.392,0.019-0.535c0.468-0.436,0.959-0.858,1.458-1.252c0.164-0.13,0.402-0.102,0.531,0.062
			c0.13,0.164,0.102,0.402-0.062,0.531c-0.484,0.382-0.959,0.79-1.412,1.212C19.08,81.879,18.987,81.913,18.894,81.913z
			 M21.86,79.57c-0.122,0-0.243-0.059-0.316-0.169c-0.116-0.174-0.068-0.409,0.106-0.525c0.53-0.353,1.083-0.688,1.642-0.998
			c0.183-0.101,0.413-0.035,0.514,0.148c0.101,0.183,0.035,0.413-0.148,0.514c-0.542,0.3-1.076,0.625-1.59,0.966
			C22.005,79.55,21.932,79.57,21.86,79.57z M25.166,77.739c-0.144,0-0.282-0.083-0.345-0.222c-0.086-0.19-0.001-0.415,0.189-0.501
			c0.579-0.262,1.178-0.505,1.779-0.722c0.196-0.071,0.413,0.03,0.484,0.227c0.071,0.197-0.031,0.414-0.227,0.484
			c-0.583,0.211-1.163,0.446-1.724,0.7C25.271,77.729,25.218,77.739,25.166,77.739z"/>
	</g>
	<g id="At">
		<g>
			<path class="st28" d="M120.057,178.521c0.002-0.14-0.062-0.252-0.193-0.338c-0.222-0.173-0.502-0.255-0.835-0.245
				c-0.335,0.009-0.626,0.08-0.876,0.212l-1.524,0.808c0.125-0.226,0.219-0.457,0.275-0.694c0.045-0.187,0.065-0.376,0.06-0.567
				c-0.007-0.318-0.001-2.083,0-2.25c0.003-0.341-0.073-0.689-0.227-1.043c-0.231-0.527-0.682-1.037-1.354-1.531
				c-0.465-0.358-1.023-0.75-1.674-1.176c-0.651-0.427-1.245-0.788-1.781-1.086c-1.382-0.744-2.875-1.339-4.479-1.786
				c-1.605-0.446-3.331-0.662-5.174-0.648c-1.843,0.015-3.805,0.295-5.886,0.839c-2.081,0.543-4.277,1.428-6.589,2.653
				c-1.972,1.045-3.463,2.131-4.468,3.257c-1.007,1.127-1.617,2.239-1.829,3.335c-0.066,0.339-0.096,0.674-0.092,1.006
				c0.005,0.372-0.002,1.964-0.002,2.283c0.001,0.754,0.18,1.488,0.537,2.203c0.508,1.018,1.291,1.94,2.347,2.766
				c0.223,0.173,0.546,0.404,0.97,0.695c0.422,0.291,0.874,0.593,1.356,0.908c0.482,0.315,0.949,0.616,1.404,0.9
				c0.456,0.284,0.827,0.508,1.113,0.669c1.325,0.707,2.826,1.26,4.501,1.658c1.674,0.399,3.438,0.594,5.292,0.585
				c1.852-0.009,3.766-0.252,5.744-0.729c1.976-0.478,3.952-1.238,5.924-2.284c1.586-0.841,2.853-1.636,3.802-2.385
				c0.948-0.749,1.68-1.45,2.198-2.105c0.518-0.655,0.869-1.277,1.055-1.867c0.185-0.59,0.318-1.142,0.398-1.654
				c0.004-0.025,0.006-0.048,0.006-0.071C120.057,180.7,120.056,178.542,120.057,178.521z M114.382,181.239
				c-0.203,0.298-0.492,0.624-0.869,0.981c-0.38,0.356-0.87,0.74-1.473,1.15c-0.605,0.41-1.372,0.861-2.302,1.354
				c-1.314,0.697-2.649,1.22-4.004,1.568c-1.354,0.349-2.683,0.539-3.989,0.57c-1.303,0.032-2.561-0.079-3.77-0.334
				c-1.208-0.254-2.333-0.642-3.375-1.164c-0.31-0.149-0.678-0.356-1.104-0.622c-0.426-0.266-0.862-0.544-1.306-0.835
				c-0.443-0.29-0.862-0.571-1.257-0.843c-0.395-0.272-0.692-0.5-0.892-0.685c-0.77-0.665-1.316-1.372-1.637-2.119
				c-0.037-0.085-0.069-0.171-0.099-0.256c0.229-0.656,0.658-1.31,1.288-1.962c0.73-0.756,1.753-1.483,3.068-2.18
				c1.564-0.829,3.05-1.46,4.46-1.894c0.781-0.24,1.54-0.417,2.282-0.544l-0.39,0.207c-0.249,0.132-0.389,0.296-0.419,0.491
				c-0.029,0.195,0.059,0.36,0.267,0.496l0.255,0.167c-0.654-0.078-1.326-0.074-2.015,0.011c-0.69,0.086-1.498,0.375-2.427,0.867
				c-0.839,0.445-1.452,0.937-1.837,1.477c-0.338,0.472-0.505,0.958-0.504,1.456c0,0.071,0.001,1.939,0,2.323
				c0,0.071,0.003,0.142,0.01,0.213c0.055,0.574,0.314,1.159,0.772,1.755c0.458,0.596,1.123,1.178,1.991,1.747
				c0.869,0.569,1.787,1.016,2.756,1.341c0.969,0.326,1.951,0.526,2.948,0.602c0.996,0.076,1.973,0.023,2.925-0.158
				c0.954-0.181,1.851-0.494,2.689-0.938c0.703-0.372,1.246-0.716,1.627-1.03c0.382-0.314,0.655-0.605,0.821-0.872
				c0.165-0.267,0.256-0.516,0.271-0.748c0.017-0.231,0.019-0.457,0.012-0.677c0.639,0.042,1.407-0.013,2.305-0.164
				c0.895-0.151,1.912-0.527,3.045-1.127c0.06-0.032,0.115-0.067,0.174-0.1C114.59,180.917,114.493,181.075,114.382,181.239z
				 M100.877,179.007c0.938,0.118,1.872,0.479,2.796,1.085c0.337,0.221,0.617,0.437,0.843,0.649
				c-0.131,0.093-0.275,0.185-0.443,0.274c-0.795,0.421-1.66,0.578-2.6,0.472c-0.941-0.105-1.874-0.461-2.798-1.067
				c-0.347-0.227-0.635-0.452-0.864-0.674c0.119-0.085,0.249-0.169,0.401-0.249C99.05,179.054,99.939,178.889,100.877,179.007z
				 M111.425,176.767c-0.402,0.175-0.852,0.278-1.356,0.299c-0.596,0.026-1.123-0.11-1.576-0.407l-5.122-3.354
				c0.516,0.06,1.028,0.142,1.534,0.263c1.223,0.291,2.421,0.741,3.596,1.348c0.559,0.286,1.117,0.611,1.673,0.975
				C110.624,176.186,111.035,176.477,111.425,176.767z"/>
			<path class="st29" d="M120.057,178.521c0.002-0.14-0.062-0.252-0.193-0.338c-0.222-0.173-0.502-0.255-0.835-0.245
				c-0.335,0.009-0.626,0.08-0.876,0.212l-1.524,0.808c0.125-0.226,0.219-0.457,0.275-0.694c0.045-0.187,0.065-0.376,0.06-0.567
				c-0.007-0.318-0.001-2.083,0-2.25c0.003-0.341-0.073-0.689-0.227-1.043c-0.231-0.527-0.682-1.037-1.354-1.531
				c-0.465-0.358-1.023-0.75-1.674-1.176c-0.651-0.427-1.245-0.788-1.781-1.086c-1.382-0.744-2.875-1.339-4.479-1.786
				c-1.605-0.446-3.331-0.662-5.174-0.648c-1.843,0.015-3.805,0.295-5.886,0.839c-2.081,0.543-4.277,1.428-6.589,2.653
				c-1.972,1.045-3.463,2.131-4.468,3.257c-1.007,1.127-1.617,2.239-1.829,3.335c-0.066,0.339-0.096,0.674-0.092,1.006
				c0.005,0.372-0.002,1.964-0.002,2.283c0.001,0.754,0.18,1.488,0.537,2.203c0.508,1.018,1.291,1.94,2.347,2.766
				c0.223,0.173,0.546,0.404,0.97,0.695c0.422,0.291,0.874,0.593,1.356,0.908c0.482,0.315,0.949,0.616,1.404,0.9
				c0.456,0.284,0.827,0.508,1.113,0.669c1.325,0.707,2.826,1.26,4.501,1.658c1.674,0.399,3.438,0.594,5.292,0.585
				c1.852-0.009,3.766-0.252,5.744-0.729c1.976-0.478,3.952-1.238,5.924-2.284c1.586-0.841,2.853-1.636,3.802-2.385
				c0.948-0.749,1.68-1.45,2.198-2.105c0.518-0.655,0.869-1.277,1.055-1.867c0.185-0.59,0.318-1.142,0.398-1.654
				c0.004-0.025,0.006-0.048,0.006-0.071C120.057,180.7,120.056,178.542,120.057,178.521z M114.382,181.239
				c-0.203,0.298-0.492,0.624-0.869,0.981c-0.38,0.356-0.87,0.74-1.473,1.15c-0.605,0.41-1.372,0.861-2.302,1.354
				c-1.314,0.697-2.649,1.22-4.004,1.568c-1.354,0.349-2.683,0.539-3.989,0.57c-1.303,0.032-2.561-0.079-3.77-0.334
				c-1.208-0.254-2.333-0.642-3.375-1.164c-0.31-0.149-0.678-0.356-1.104-0.622c-0.426-0.266-0.862-0.544-1.306-0.835
				c-0.443-0.29-0.862-0.571-1.257-0.843c-0.395-0.272-0.692-0.5-0.892-0.685c-0.77-0.665-1.316-1.372-1.637-2.119
				c-0.037-0.085-0.069-0.171-0.099-0.256c0.229-0.656,0.658-1.31,1.288-1.962c0.73-0.756,1.753-1.483,3.068-2.18
				c1.564-0.829,3.05-1.46,4.46-1.894c0.781-0.24,1.54-0.417,2.282-0.544l-0.39,0.207c-0.249,0.132-0.389,0.296-0.419,0.491
				c-0.029,0.195,0.059,0.36,0.267,0.496l0.255,0.167c-0.654-0.078-1.326-0.074-2.015,0.011c-0.69,0.086-1.498,0.375-2.427,0.867
				c-0.839,0.445-1.452,0.937-1.837,1.477c-0.338,0.472-0.505,0.958-0.504,1.456c0,0.071,0.001,1.939,0,2.323
				c0,0.071,0.003,0.142,0.01,0.213c0.055,0.574,0.314,1.159,0.772,1.755c0.458,0.596,1.123,1.178,1.991,1.747
				c0.869,0.569,1.787,1.016,2.756,1.341c0.969,0.326,1.951,0.526,2.948,0.602c0.996,0.076,1.973,0.023,2.925-0.158
				c0.954-0.181,1.851-0.494,2.689-0.938c0.703-0.372,1.246-0.716,1.627-1.03c0.382-0.314,0.655-0.605,0.821-0.872
				c0.165-0.267,0.256-0.516,0.271-0.748c0.017-0.231,0.019-0.457,0.012-0.677c0.639,0.042,1.407-0.013,2.305-0.164
				c0.895-0.151,1.912-0.527,3.045-1.127c0.06-0.032,0.115-0.067,0.174-0.1C114.59,180.917,114.493,181.075,114.382,181.239z
				 M100.877,179.007c0.938,0.118,1.872,0.479,2.796,1.085c0.337,0.221,0.617,0.437,0.843,0.649
				c-0.131,0.093-0.275,0.185-0.443,0.274c-0.795,0.421-1.66,0.578-2.6,0.472c-0.941-0.105-1.874-0.461-2.798-1.067
				c-0.347-0.227-0.635-0.452-0.864-0.674c0.119-0.085,0.249-0.169,0.401-0.249C99.05,179.054,99.939,178.889,100.877,179.007z
				 M111.425,176.767c-0.402,0.175-0.852,0.278-1.356,0.299c-0.596,0.026-1.123-0.11-1.576-0.407l-5.122-3.354
				c0.516,0.06,1.028,0.142,1.534,0.263c1.223,0.291,2.421,0.741,3.596,1.348c0.559,0.286,1.117,0.611,1.673,0.975
				C110.624,176.186,111.035,176.477,111.425,176.767z"/>
			<path class="st30" d="M88.304,180.004c0.229-0.656,0.658-1.31,1.288-1.962c0.73-0.756,1.753-1.483,3.068-2.18
				c1.563-0.829,3.05-1.46,4.46-1.894c0.781-0.24,1.54-0.417,2.282-0.544l1.378-0.73c0.248-0.132,0.54-0.197,0.873-0.194
				c0.331,0.003,0.601,0.073,0.808,0.208l0.91,0.596c0.516,0.06,1.028,0.142,1.534,0.263c1.223,0.291,2.421,0.741,3.596,1.348
				c0.559,0.286,1.117,0.611,1.673,0.975c0.45,0.295,0.861,0.586,1.251,0.876c0.074-0.032,0.149-0.062,0.219-0.099
				c0.453-0.241,0.717-0.531,0.791-0.872c0.073-0.341-0.17-0.721-0.728-1.141c-0.465-0.358-0.976-0.719-1.533-1.084
				c-0.557-0.365-1.114-0.69-1.673-0.975c-1.175-0.608-2.373-1.057-3.596-1.348c-1.224-0.291-2.477-0.405-3.753-0.343
				c-1.279,0.062-2.624,0.311-4.032,0.744c-1.41,0.434-2.897,1.065-4.46,1.894c-1.314,0.697-2.337,1.424-3.068,2.18
				c-0.731,0.757-1.192,1.515-1.384,2.277c-0.19,0.762-0.126,1.516,0.195,2.262c0.161,0.374,0.378,0.737,0.65,1.091
				c-0.273-0.353-0.49-0.717-0.65-1.091C88.366,180.175,88.334,180.089,88.304,180.004z"/>
			<path class="st30" d="M103.673,177.771c-0.924-0.606-1.858-0.967-2.796-1.085c-0.938-0.117-1.828,0.047-2.666,0.49
				c-0.795,0.421-1.146,0.914-1.057,1.482c0.055,0.356,0.275,0.72,0.66,1.091c-0.001-0.001-0.002-0.002-0.003-0.003
				c0.119-0.085,0.249-0.169,0.401-0.249c0.838-0.444,1.727-0.608,2.666-0.49c0.938,0.118,1.872,0.479,2.796,1.085
				c0.337,0.221,0.617,0.437,0.843,0.649c-0.064,0.045-0.131,0.09-0.201,0.134c0.667-0.408,0.968-0.859,0.895-1.352
				C105.128,178.974,104.618,178.39,103.673,177.771z"/>
			<path class="st30" d="M100.809,184.255c-0.998-0.075-1.98-0.276-2.948-0.602c-0.969-0.325-1.887-0.773-2.755-1.341
				c-0.868-0.569-1.533-1.151-1.991-1.747c-0.458-0.596-0.717-1.181-0.772-1.755c-0.011-0.113-0.007-0.225-0.001-0.336
				c-0.002,0.041-0.01,0.081-0.01,0.122c0,0.071,0.001,1.939,0,2.323c0,0.071,0.003,0.141,0.01,0.213
				c0.055,0.574,0.314,1.159,0.772,1.755c0.458,0.596,1.123,1.178,1.991,1.747c0.869,0.569,1.787,1.016,2.756,1.341
				c0.969,0.326,1.951,0.526,2.948,0.602L100.809,184.255z"/>
			<path class="st30" d="M109.155,179.832c0.007,0.22,0.005,0.446-0.012,0.677l0.012,1.644c0.639,0.042,1.407-0.013,2.305-0.164
				l0-2.321C110.562,179.819,109.794,179.874,109.155,179.832z"/>
			<path class="st30" d="M95.638,189.026c-1.675-0.398-3.176-0.951-4.501-1.658c-0.286-0.161-0.657-0.384-1.113-0.669
				c-0.455-0.284-0.922-0.584-1.404-0.9c-0.482-0.316-0.934-0.618-1.356-0.908c-0.424-0.29-0.748-0.522-0.97-0.695
				c-1.056-0.826-1.839-1.748-2.347-2.766c-0.359-0.719-0.534-1.459-0.533-2.218c0,0.018-0.002,0.036-0.002,0.053
				c0.005,0.372-0.002,1.964-0.002,2.283c0.002,0.754,0.181,1.488,0.537,2.203c0.508,1.018,1.291,1.94,2.347,2.766
				c0.223,0.173,0.546,0.404,0.97,0.695c0.422,0.291,0.874,0.593,1.356,0.908c0.482,0.315,0.949,0.616,1.404,0.9
				c0.456,0.284,0.827,0.508,1.113,0.669c1.325,0.707,2.826,1.26,4.501,1.658c1.674,0.399,3.438,0.594,5.292,0.585v-2.321
				C99.076,189.62,97.312,189.425,95.638,189.026z"/>
			<path id="XMLID_27_" class="st28" d="M115.385,172.872c0.672,0.494,1.123,1.004,1.354,1.531c0.229,0.527,0.285,1.04,0.166,1.539
				c-0.119,0.499-0.391,0.974-0.813,1.421c-0.423,0.448-0.953,0.84-1.587,1.177c-1.133,0.6-2.149,0.976-3.045,1.127
				c-0.898,0.151-1.666,0.206-2.305,0.164c0.007,0.22,0.005,0.446-0.012,0.677c-0.015,0.232-0.106,0.481-0.271,0.748
				c-0.165,0.267-0.439,0.557-0.821,0.872c-0.381,0.314-0.925,0.658-1.627,1.03c-0.839,0.444-1.735,0.757-2.689,0.938
				c-0.953,0.181-1.93,0.234-2.925,0.158c-0.998-0.075-1.98-0.276-2.948-0.602c-0.969-0.325-1.887-0.773-2.756-1.341
				c-0.868-0.569-1.533-1.151-1.991-1.747c-0.458-0.596-0.717-1.181-0.772-1.755c-0.056-0.574,0.107-1.131,0.493-1.671
				c0.385-0.54,0.997-1.032,1.836-1.477c0.929-0.492,1.737-0.781,2.427-0.867c0.689-0.085,1.362-0.089,2.015-0.011l-0.255-0.167
				c-0.207-0.136-0.296-0.301-0.267-0.496c0.031-0.195,0.17-0.359,0.419-0.491l1.768-0.937c0.248-0.132,0.54-0.197,0.873-0.194
				c0.331,0.003,0.601,0.073,0.808,0.208l6.032,3.95c0.453,0.297,0.98,0.433,1.576,0.407c0.597-0.025,1.122-0.158,1.575-0.398
				c0.453-0.241,0.717-0.531,0.791-0.872c0.073-0.341-0.17-0.721-0.728-1.141c-0.465-0.358-0.976-0.719-1.533-1.084
				c-0.557-0.365-1.114-0.69-1.673-0.975c-1.175-0.608-2.373-1.057-3.596-1.348c-1.224-0.291-2.477-0.405-3.753-0.343
				c-1.279,0.062-2.624,0.311-4.032,0.744c-1.41,0.434-2.896,1.065-4.46,1.894c-1.314,0.697-2.337,1.424-3.068,2.18
				c-0.731,0.757-1.192,1.515-1.384,2.277c-0.19,0.762-0.126,1.516,0.195,2.262c0.321,0.748,0.867,1.454,1.637,2.119
				c0.2,0.185,0.497,0.413,0.892,0.685c0.395,0.272,0.814,0.553,1.257,0.843c0.444,0.291,0.88,0.569,1.306,0.835
				c0.426,0.266,0.794,0.474,1.104,0.622c1.042,0.522,2.167,0.91,3.375,1.164c1.209,0.255,2.467,0.366,3.77,0.334
				c1.306-0.032,2.635-0.222,3.989-0.57c1.354-0.349,2.689-0.872,4.004-1.568c0.93-0.492,1.696-0.944,2.302-1.354
				c0.603-0.41,1.094-0.794,1.473-1.15c0.377-0.357,0.666-0.684,0.869-0.981c0.201-0.297,0.366-0.579,0.491-0.847
				c0.099-0.23,0.188-0.406,0.269-0.528c0.081-0.121,0.246-0.248,0.496-0.38l2.515-1.333c0.25-0.132,0.541-0.203,0.876-0.212
				c0.333-0.01,0.613,0.072,0.835,0.245c0.151,0.099,0.214,0.234,0.188,0.404c-0.079,0.512-0.212,1.063-0.398,1.654
				c-0.186,0.59-0.537,1.213-1.054,1.867c-0.518,0.655-1.25,1.356-2.199,2.105c-0.949,0.749-2.216,1.544-3.802,2.385
				c-1.972,1.045-3.948,1.806-5.924,2.284c-1.978,0.477-3.893,0.721-5.744,0.729c-1.854,0.009-3.618-0.186-5.292-0.585
				c-1.675-0.398-3.176-0.951-4.501-1.658c-0.286-0.161-0.657-0.384-1.113-0.669c-0.455-0.284-0.922-0.584-1.404-0.9
				c-0.482-0.316-0.934-0.618-1.356-0.908c-0.424-0.29-0.748-0.522-0.97-0.695c-1.056-0.826-1.839-1.748-2.347-2.766
				c-0.507-1.017-0.655-2.074-0.443-3.171c0.212-1.096,0.821-2.208,1.829-3.335c1.006-1.126,2.496-2.212,4.468-3.257
				c2.312-1.226,4.508-2.11,6.589-2.653c2.081-0.544,4.043-0.823,5.886-0.839c1.843-0.014,3.569,0.201,5.174,0.648
				c1.604,0.447,3.097,1.042,4.479,1.786c0.536,0.298,1.13,0.66,1.781,1.086C114.362,172.123,114.92,172.515,115.385,172.872z
				 M98.675,180.42c0.925,0.606,1.858,0.962,2.799,1.067c0.94,0.106,1.805-0.051,2.6-0.472c0.838-0.444,1.218-0.942,1.137-1.492
				c-0.083-0.55-0.593-1.134-1.537-1.753c-0.924-0.605-1.858-0.967-2.796-1.085c-0.938-0.117-1.828,0.047-2.666,0.49
				c-0.795,0.421-1.146,0.914-1.057,1.482C97.243,179.227,97.75,179.814,98.675,180.42z"/>
		</g>
	</g>
	<path id="XMLID_767_" class="st4" d="M115.913,162.562v0.278c0,0.445,0.313,0.986,0.698,1.209l14.976,8.646
		c0.386,0.223,1.011,0.223,1.396,0l24.799-14.318c0.386-0.223,0.698-0.764,0.698-1.209v-0.278c0-0.445-0.313-0.987-0.698-1.209
		l-14.976-8.646c-0.386-0.223-1.011-0.223-1.396,0l-24.799,14.318C116.226,161.576,115.913,162.117,115.913,162.562z"/>
	<path id="XMLID_763_" class="st4" d="M115.913,162.562v0.278c0,0.445,0.313,0.986,0.698,1.209l14.976,8.646
		c0.386,0.223,1.011,0.223,1.396,0l24.799-14.318c0.386-0.223,0.698-0.764,0.698-1.209v-0.278c0-0.445-0.313-0.987-0.698-1.209
		l-14.976-8.646c-0.386-0.223-1.011-0.223-1.396,0l-24.799,14.318C116.226,161.576,115.913,162.117,115.913,162.562z"/>
	<path class="st12" d="M132.286,152.304l-15.674,9.05c-0.386,0.223-0.698,0.764-0.698,1.209v0.278c0,0.445,0.313,0.986,0.698,1.209
		l14.976,8.646c0.193,0.111,0.445,0.167,0.698,0.167h0V152.304z"/>
	<path class="st5" d="M132.286,152.304l-15.674,9.05c-0.386,0.223-0.698,0.764-0.698,1.209v0.278c0,0.445,0.313,0.986,0.698,1.209
		l14.976,8.646c0.193,0.111,0.445,0.167,0.698,0.167h0V152.304z"/>
	<path class="st12" d="M157.783,155.682l-14.976-8.646c-0.386-0.223-1.011-0.223-1.396,0l-9.125,5.268v20.559h0
		c0.253,0,0.506-0.056,0.698-0.167l24.799-14.318c0.386-0.223,0.698-0.764,0.698-1.209v-0.278
		C158.481,156.446,158.168,155.904,157.783,155.682z"/>
	<path id="XMLID_762_" class="st31" d="M129.19,169.421l-12.578-7.262c-0.386-0.223-0.386-0.584,0-0.806l24.799-14.318
		c0.386-0.223,1.011-0.223,1.396,0l14.976,8.646c0.386,0.223,0.386,0.584,0,0.806l-4.114,2.375l-1.44,0.832l-19.245,11.111
		c-0.386,0.223-1.011,0.223-1.396,0l-1.22-0.704L129.19,169.421z"/>
	<path class="st5" d="M140.608,157.357l17.175-1.676l-17.023,0.964l2.048-9.61c-0.209-0.121-0.487-0.17-0.761-0.16l-3.212,12.99
		l-22.506,1.856c-0.016,0.157,0.076,0.317,0.283,0.437l18.176-1.055l-2.502,9.868l3.199-9.909h0l3.104-0.18
		c0.391-0.023,0.748-0.18,1.024-0.428l0.002,0l0.001-0.002c0.259-0.232,0.448-0.543,0.524-0.901L140.608,157.357z"/>
	<path id="XMLID_740_" class="st31" d="M121.698,161.279l17.136-1.413l0.614-2.456l0.339-1.367l2.262-9.168
		c-0.232,0.008-0.461,0.058-0.638,0.16l-12.4,7.159l-12.4,7.159c-0.178,0.103-0.27,0.235-0.283,0.369l3.437-0.283L121.698,161.279z"
		/>
</g>
<g id="Layer_2" class="st32">
</g>
</svg>
