<?xml version="1.0" encoding="utf-8"?>
<!-- Generator: Adobe Illustrator 24.1.3, SVG Export Plug-In . SVG Version: 6.00 Build 0)  -->
<svg version="1.1" id="Layer_1" xmlns="http://www.w3.org/2000/svg" xmlns:xlink="http://www.w3.org/1999/xlink" x="0px" y="0px"
	 viewBox="0 0 1800 720" style="enable-background:new 0 0 1800 720;" xml:space="preserve">
<style type="text/css">
	.st0{fill:#EEA886;}
	.st1{fill:#1D3B54;}
	.st2{fill:#122536;}
	.st3{fill:#132738;}
	.st4{fill:#CFBEB8;}
	.st5{fill:#04BBB1;}
	.st6{fill:#FCCCA2;}
	.st7{fill:#285173;}
	.st8{fill:#049E87;}
	.st9{fill:#292C47;}
	.st10{fill:#BA3838;}
	.st11{fill:#EDDAD3;}
	.st12{fill:#D6C5BE;}
	.st13{fill:#FAE6DE;}
	.st14{fill:#D88A51;}
	.st15{fill:#A77860;}
	.st16{fill:#912B2B;}
	.st17{opacity:0.89;fill:url(#SVGID_1_);}
	.st18{fill:#FFFFFF;}
	.st19{fill:#D46946;}
	.st20{fill:#E8734D;}
	.st21{fill:url(#SVGID_2_);}
	.st22{fill:url(#SVGID_3_);}
	.st23{fill:#DBD8E3;}
	.st24{fill:#323657;}
	.st25{fill:#EEA987;}
	.st26{fill:#D44040;}
	.st27{fill:#C4C1CC;}
	.st28{fill:url(#SVGID_4_);}
	.st29{opacity:0.69;}
	.st30{opacity:0.72;fill:#D9D9D9;}
	.st31{fill:url(#SVGID_5_);}
	.st32{fill:url(#SVGID_6_);}
	.st33{fill:#4CA1AD;}
</style>
<g>
	<path class="st0" d="M1661.967,705.085h-2.794c0,0,0.931-10.552-1.655-10.655c-2.584-0.104-8.998,8.585-12.827,9.931
		c-3.827,1.344-23.48,2.48-23.583-1.139c-0.104-3.619,7.55-5.069,9.929-6.102c2.379-1.035,13.966-12.31,16.034-13.654
		c2.07-1.346,5.6-10.695,5.6-10.695l10.971-0.488c0,0,0.62,8.74,1.285,13.366c0.248,1.712,0.427,3.271,0.453,4.334
		C1665.482,693.913,1661.967,705.085,1661.967,705.085z"/>
	<path class="st0" d="M1710.508,702.998h-2.328v-9.821c-1.939,0.162-8.458,6.331-10.475,8.117
		c-2.015,1.783-4.782,1.704-13.279,2.244c-8.494,0.541-9.296-4.546-7.952-6.277c1.344-1.731,5.69-2.489,7.952-3.569
		c2.262-1.083,11.185-11.146,13.566-13.526c2.378-2.38,3.828-9.198,3.828-9.198l9.93,0.866c0,0-0.064,6.238,1.068,11.469v0.002
		c0.005,0.012,0.007,0.027,0.01,0.039c0.096,0.447,0.202,0.883,0.318,1.31C1714.62,690.094,1710.508,702.998,1710.508,702.998z"/>
	<path class="st1" d="M1673.79,480.393c0,0-3.753,8.874-4.084,11.116c-0.331,2.242-12.098,31.536-12.917,40.108
		c-0.828,8.667-3.312,31.794-4.195,35.106c-0.883,3.312,1.987,18.106,2.429,21.417c0.442,3.312,0.221,57.406-3.754,84.122
		c0,0,9.273,3.974,16.339,0c0,0,11.702-41.73,11.04-65.797c-0.662-24.067-3.715-34.223,0.019-43.938
		c3.734-9.715,25.593-38.86,27.801-41.951c2.208-3.091,16.04-20.173,2.942-38.679C1696.312,463.393,1673.79,480.393,1673.79,480.393
		z"/>
	<path class="st1" d="M1721.074,559c-1.198,7.967,0.062,18.434,2.564,47.566c2.505,29.129-4.38,64.402-4.38,64.402
		c-8.647,2.959-18.605,0-18.605,0c0.229-2.049,0-71.004,0-77.149c0-6.145-1.765-13.119-2.219-20.171
		c-0.31-4.807-2.546-13.668-5.062-22.714c-0.754-2.71-1.533-5.435-2.29-8.073c0-0.003,0-0.003,0-0.003
		c-0.427-1.478-0.843-2.932-1.25-4.339c-3.543-12.289-8.309-59.742-8.309-59.742s26.412-21.274,39.271-1.246
		c12.859,20.025,6.257,34.59,5.803,37.093C1726.143,517.128,1722.273,551.036,1721.074,559z"/>
	<path class="st2" d="M1710.123,516.203c-0.205,0.454-13.364,29.665-16.751,34.73c-0.754-2.71-1.533-5.435-2.29-8.073
		c0-0.003,0-0.003,0-0.003S1709.683,516.845,1710.123,516.203z"/>
	<path class="st3" d="M1710.508,702.998h-2.328v-9.821c-1.939,0.162-8.458,6.331-10.475,8.117
		c-2.015,1.783-4.782,1.704-13.279,2.244c-8.494,0.541-9.296-4.546-7.952-6.277c1.344-1.731,5.69-2.489,7.952-3.569
		c9.089,0.486,20.18-12.292,25.503-12.266c2.829,0.014,2.802,1.581,2.888,1.877v0.002c0.005,0.012,0.007,0.027,0.01,0.039
		c0.096,0.447,0.202,0.883,0.318,1.31C1714.62,690.094,1710.508,702.998,1710.508,702.998z"/>
	<path class="st3" d="M1661.967,705.085h-2.794c0,0,0.931-10.552-1.655-10.655c-2.584-0.104-8.998,8.585-12.827,9.931
		c-3.827,1.344-23.48,2.48-23.583-1.139c-0.104-3.619,7.55-5.069,9.929-6.102c8.106-0.018,21.289-8.941,25.378-10.749
		c4.086-1.809,8.512-0.721,8.512-0.721c0.248,1.712,0.427,3.271,0.453,4.334C1665.482,693.913,1661.967,705.085,1661.967,705.085z"
		/>
	<g>
		<path class="st4" d="M1655.057,530.94h-18.431c-1.872,0-3.395-1.523-3.395-3.395v-11.623c0-1.872,1.523-3.394,3.395-3.394h18.431
			c1.872,0,3.395,1.523,3.395,3.394v11.623C1658.452,529.418,1656.929,530.94,1655.057,530.94z M1636.625,514.807
			c-0.616,0-1.117,0.501-1.117,1.116v11.623c0,0.616,0.501,1.117,1.117,1.117h18.431c0.616,0,1.117-0.501,1.117-1.117v-11.623
			c0-0.616-0.501-1.116-1.117-1.116H1636.625z"/>
	</g>
	<g>
		<rect x="1611.265" y="525.952" class="st4" width="69.152" height="49.545"/>
	</g>
	<path class="st5" d="M1731.247,501.913l-11.198-2.698c0,0,1.948-39.5,8.679-56.23c0.059-0.147,0.307,0.053,0.454,0.08
		c-0.065-0.377-0.134-0.754-0.203-1.132c-0.143-0.785-0.29-1.571-0.44-2.347c-1.711-8.902-3.684-16.677-3.684-16.677
		s-14.124-35.546,3.054-32.768c0,0,8.889,4.984,10.82,16.353c1.931,11.365,3.895,28.107,3.545,34.786
		c-0.35,6.674-2.249,14.652-3.935,22.653C1738.337,463.932,1731.697,499.515,1731.247,501.913z"/>
	<path class="st0" d="M1697.109,368.995c0,0,4.214,11.15,0.936,19.767c0,0,15.453-1.004,16.038-2.809
		c0.586-1.804-0.621-18.51,1.504-23.447C1717.713,357.569,1697.109,368.995,1697.109,368.995z"/>
	<path class="st5" d="M1695.617,384.992c0,0-9.131,3.248-13.258,4.15c-4.127,0.902-12.76,4.991-12.058,20.387
		s3.278,28.746,4.214,35.361c0.937,6.615,0.351,23.454-1.171,31.632c0,0,21.892,5.533,47.646,0c0,0-4.565-13.952-4.449-17.56
		c0.117-3.608,15.219-33.316,15.921-38.007c0.702-4.691,3.746-25.378-3.161-29.948c-6.907-4.57-12.526-3.969-15.453-6.014
		C1710.923,382.947,1699.888,383.524,1695.617,384.992z"/>
	<path class="st5" d="M1730.852,500.714c-37.402,9.922-67.165,0.038-67.165,0.038c2.714-5.578,4.711-11.144,6.156-16.533
		c0-0.002,0.002-0.002,0.002-0.004c1.023-3.807,1.77-7.523,2.303-11.094v-0.002c3.04-20.376-0.924-35.978-0.924-35.978
		c4.317-35.531,58.078-46.135,62.385-34.872c4.306,11.262-8.344,59.663-8.985,63.815
		C1723.982,470.23,1730.852,500.714,1730.852,500.714z"/>
	<path class="st0" d="M1710.578,324.26c-6.212-2.131-23.004-4.4-27.306,21.375c-4.302,25.775,5.068,26.218,14.693,25.485
		c9.625-0.733,24.681-18.131,25.834-23.419C1724.953,342.412,1728.303,330.34,1710.578,324.26z"/>
	<path class="st6" d="M1686.733,334.159c0,0,5.129,10.973,11.857,14.797c0,0,4.215,11.66,13.342,16.375
		c0,0,24.222-16.045,10.167-35.113C1708.044,311.151,1688.319,326.336,1686.733,334.159z"/>
	<path class="st0" d="M1697.995,345.152c0.545-1.341,4.175-3.521,5.803,0.157c1.628,3.679-4.218,10.16-5.819,9.81
		C1696.378,354.77,1695.927,350.241,1697.995,345.152z"/>
	<path class="st6" d="M1721.28,333.166c0.53-0.827,16.568-8.251,19.905,7.264s-12.918,33.557-15.766,41.315
		c-2.848,7.758,1.287,25.94,1.287,25.94s-9.781-9.245-12.739-18.922C1710.718,378.136,1709.627,351.339,1721.28,333.166z"/>
	<path class="st7" d="M1722.089,332.636c0,0-4.91,3.885-5.544,10.013c0,0-0.921-4.78,1.059-7.702
		C1719.584,332.026,1722.089,332.636,1722.089,332.636z"/>
	<path class="st0" d="M1637.303,506.763c0,0-0.797,3.287-1.291,4.953c-0.494,1.666-0.798,3.699,0.369,4.578
		c1.167,0.878,3.679,3.891,5.375,5.269c1.695,1.378,11.315-2.792,12.385-4.431c1.071-1.64-1.029-10.828-3.96-12.663
		c-2.932-1.835-7.344-4.413-7.344-4.413L1637.303,506.763z"/>
	<path class="st5" d="M1679.776,389.985c0,0-12.808,5.076-13.566,22.877c-0.758,17.8-1.454,27.094-2.149,29.841
		c-0.695,2.747-2.024,13.791-5.247,20.435c-3.127,6.447-16.554,37.739-16.554,37.739l11.682,6.769c0,0,19.763-37.029,21.502-42.278
		c1.739-5.249,8.89-41.777,9.46-47.935C1685.364,412.471,1691.91,390.354,1679.776,389.985z"/>
	<path class="st5" d="M1679.255,449.626c0,0-6.718,1.305-14.617-3.195c0,0-3.565,11.94-5.823,16.707
		c-2.025,4.275-16.554,37.739-16.554,37.739l11.682,6.769c0,0,19.8-35.764,21.502-42.278
		C1677.146,458.856,1679.255,449.626,1679.255,449.626z"/>
	<path class="st8" d="M1669.845,484.214c1.023-3.807,1.77-7.523,2.303-11.094v-0.002c0,0,2.464-5.244,3.296-7.748
		c0.834-2.505,7.024-33.307,7.024-33.307S1689.02,460.991,1669.845,484.214z"/>
	<path class="st8" d="M1732.064,430.9c0,0-7.405,34.123-7.441,35.182c-0.036,1.058,2.09,14.994,2.726,18.132L1732.064,430.9z"/>
</g>
<g>
	<g>
		<g>
			<path class="st0" d="M1491.293,579.45c0,0,2.306,0.507,3.128-0.561c0.699-0.908,2.257-1.578,2.737-1.785
				c0.641-0.277,2.294-1.86,2.651-1.055c0.357,0.806-2.598,2.741-3.137,3.271c-0.539,0.53,2.823,0.861,3.39,1.406
				c0.567,0.545-0.298,6.082-2.579,5.587c-2.281-0.495-4.391-2.529-4.81-2.536c-0.418-0.008-1.674-0.294-1.674-0.294
				L1491.293,579.45z"/>
		</g>
	</g>
	<g>
		<g>
			<path class="st0" d="M1499.557,580.485c0,0,6.883,1.978,7.231,2.494c0.348,0.516,0.219,0.882-0.432,0.724
				c-0.651-0.158-6.705-1.719-6.705-1.719s7.752,3.71,8.13,4.07c0.221,0.211,0.013,0.935-0.343,0.883
				c-0.356-0.052-8.251-3.29-8.251-3.29s7.232,3.477,7.458,3.872c0.198,0.346-0.16,0.963-0.714,0.742
				c-0.554-0.221-7.449-3.069-7.449-3.069s5.104,2.862,5.099,3.309c-0.004,0.274-0.154,0.908-1.448,0.128
				c-1.294-0.78-4.54-2.298-4.54-2.298L1499.557,580.485z"/>
		</g>
	</g>
	<path class="st9" d="M1479.221,685.407c0,0,2.403,4.299,3.83,5.17c1.779,1.085,5.23,4.567,6.436,4.728
		c1.206,0.161,5.539,0.93,4.703,3.376c-0.686,2.005-11.024,1.718-12.189,0.713c-1.166-1.005-4.652-4.611-6.059-4.531
		c-1.407,0.081-0.884,5.202-0.884,5.202h-1.527c0,0-0.534-4.983-0.598-5.84c-0.191-2.536,1.618-4.401,1.698-5.848
		c0.08-1.447,0.163-2.527,0.163-2.527L1479.221,685.407z"/>
	<path class="st0" d="M1489.142,695.188c0,0-3.407,1.177-6.03-0.33c-2.623-1.507-7.656-3.796-9.435-3.812c0,0,0.97-2.969,0.991-3.3
		c0.02-0.332,0.127-1.895,0.127-1.895l4.4-0.705c0,0,2.854,4.19,4.112,5.177C1484.564,691.307,1487.786,693.769,1489.142,695.188z"
		/>
	<path class="st0" d="M1437.675,689.451c0,0,0.425,2.975,0.889,3.786s1.739,4.945,2.318,5.718c0.58,0.773,1.854,6.568,0,7.263
		c-1.854,0.696-6.22,1.855-7.688-0.463c-1.468-2.318-1.661-4.636-1.43-6.413c0.232-1.777,1.995-9.933,1.971-10.74
		C1433.71,687.795,1437.675,689.451,1437.675,689.451z"/>
	<path class="st9" d="M1440.142,697.35c0,0,0.199,4.503-3.201,4.503c-3.4,0-4.906-4.097-4.906-4.097s-1.159,2.011,0,6.299
		c1.159,4.288,5.988,3.4,7.07,3.245C1440.186,707.146,1445.313,705.789,1440.142,697.35z"/>
	<path class="st9" d="M1443.284,586.879c0,0-4.395,5.601-5.946,9.306c-1.551,3.705-4.136,11.827-3.791,18.117
		c0.345,6.29,2.413,18.095,1.81,20.766c-0.603,2.671-1.206,8.186-1.852,10.082c-0.647,1.896-3.232,7.41-3.49,13.098
		c-0.259,5.687,1.84,30.634,1.668,32.96c-0.172,2.327,7.528,0.905,7.528,0.905s0.196-22.491,1.058-26.368
		c0.862-3.878,1.896-17.061,2.671-18.009c0.776-0.948,2.952-10.945,3.092-12.576c0.135-1.58,9.353-28.908,9.87-33.561
		c0.517-4.653,12.061-14.72,12.061-14.72S1456.64,582.55,1443.284,586.879z"/>
	<path class="st9" d="M1471.914,686.64c-1.637-0.258-6.022-25.462-5.506-29.943c0.517-4.481,1.034-14.034-0.431-17.917
		c-0.961-2.548-6.967-15.516-11.008-24.621c-0.57-1.285-1.1-2.492-1.574-3.583c-1.282-2.962-2.13-5.062-2.152-5.494
		c-0.087-1.723-5.705-31.408,16.492-18.203c0,0,0.225,2.348,0.483,3.209c0.259,0.862,6.204,22.835,6.807,31.28
		c0.604,8.445,2.155,15.607,2.413,17.412c0.259,1.803-0.258,7.836-0.775,9.387c-0.517,1.551,3.361,36.57,3.62,37.432
		C1480.541,686.461,1473.551,686.898,1471.914,686.64z"/>
	<path class="st10" d="M1465.416,542.32c0,0,3.615,0.942,5.016,4.248c1.401,3.306,1.071,7.781,1.193,9.316
		c0.122,1.535,3.296,16.48,3.635,16.914c0.338,0.434,6.162,1.557,9.609,2.466c4.842,1.277,9.11,2.723,9.11,2.723l-1.934,6.355
		c0,0-22.146-4.627-23.322-6.821c-2.597-4.843-7.31-20.709-7.31-20.709S1456.871,544.292,1465.416,542.32z"/>
	<path class="st11" d="M1459.028,539.976c0,0,4.2,1.982,5.659,2.274c1.458,0.291,7.118,7.64,8.11,10.323
		c0.992,2.683,0.001,6.708-2.039,11.433c-2.041,4.725-0.115,6.3-1.047,11.025c-0.932,4.725-1.747,14.729-1.571,17.354
		c0.176,2.625-23.593,3.126-29.018-1.656c0,0,5.45-8.167,6.15-9.334c0.7-1.167,0.115-7.525-0.527-9.158
		c-0.642-1.633-7.359-14.772-7.359-14.772s-1.053-11.416,2.103-13.868c2.741-2.13,10.213-2.89,11.554-3.357
		C1452.383,539.773,1456.286,539.568,1459.028,539.976z"/>
	<path class="st12" d="M1460.372,549.338l2.551-2.989l-2.218-7.867C1460.705,538.482,1459.962,542.863,1460.372,549.338z"/>
	<path class="st0" d="M1461.031,535.129c0,0-0.836,7.705-0.661,10.213c0,0-4.363,4.374-9.329-5.103c0,0,2.088-3.907,0.514-9.23
		C1449.983,525.687,1461.031,535.129,1461.031,535.129z"/>
	<polygon class="st0" points="1460.371,545.342 1460.372,549.338 1455.348,545.586 	"/>
	<polygon class="st12" points="1460.372,549.338 1458.286,546.757 1451.26,539.758 1448.988,541.947 	"/>
	<path class="st10" d="M1452.304,596.168c-1.977,9.468-16.286-1.064-16.286-1.064s9.278-15.589,5.586-28.047
		c-0.029-0.099-0.059-0.197-0.088-0.295c-0.236-0.788-0.471-1.538-0.706-2.249c-3.389-10.303-6.432-12.709-6.432-12.709
		s4.299-9.459,8.288-10.074c3.989-0.616,7.618-1.302,7.618-1.302s5.897,8.944,6.179,12.881
		C1456.747,557.246,1454.281,586.7,1452.304,596.168z"/>
	<path class="st10" d="M1473.383,554.386c0,0,0.443,5.428-3.285,12.558c0,0,0.08,9.545,0.197,12.87
		c0.117,3.325,0.908,15.895,0.908,15.895l-4.096,2.4c-0.825,0.484-1.847-0.187-1.732-1.136c1.158-9.568,4.923-45.863-3.231-55.617
		l3.271,0.964C1465.416,542.32,1473.383,550.589,1473.383,554.386z"/>
	<polygon class="st13" points="1462.923,546.349 1466.139,547.237 1460.705,538.482 	"/>
	<polygon class="st13" points="1458.286,546.757 1455.349,550.608 1449.343,540.602 1451.26,539.758 	"/>
	<path class="st0" d="M1457.99,510.261c3.073-0.296,9.979,0.929,11.42,9.043c0,0-0.142,2.213-0.594,3.967
		c-0.452,1.754,1.34,6.78,0.948,7.05c-0.392,0.271-2.048,0.672-2.048,0.672s-1.532,5.655-3.49,5.701
		c-1.958,0.045-9.433-1.131-13.248-7.895C1447.162,522.035,1445.58,511.455,1457.99,510.261z"/>
	<path class="st14" d="M1469.41,519.304c0,0-4.838,3.647-9.769,4.571c-4.93,0.924-7.596,9.501-7.596,9.501
		s-8.269-12.426-2.542-20.384C1455.231,505.034,1470.038,509.737,1469.41,519.304z"/>
	<path class="st0" d="M1457.568,523.745c-0.073-0.96-1.21-2.351-2.722-0.963c-1.512,1.388,0.822,5.855,2.091,5.346
		C1458.205,527.62,1457.643,524.737,1457.568,523.745z"/>
	<path class="st15" d="M1461.042,536.242c-0.112,0.599-0.225,1.3-0.319,2.041c-4.136-2.359-6.305-5.363-6.305-5.363
		C1456.811,534.886,1461.042,536.242,1461.042,536.242z"/>
	<path class="st16" d="M1444.414,554.721c-0.214,5.597-2.898,12.042-2.898,12.042c-0.236-0.788-0.471-1.538-0.706-2.249
		C1442.322,560.286,1444.414,554.721,1444.414,554.721z"/>
	<linearGradient id="SVGID_1_" gradientUnits="userSpaceOnUse" x1="1494.849" y1="579.9675" x2="1494.849" y2="545.6912">
		<stop  offset="0" style="stop-color:#FF9F55"/>
		<stop  offset="1" style="stop-color:#FFD255"/>
	</linearGradient>
	<path class="st17" d="M1531.938,574.627c9.805-13.417,4.933-33.664-10.882-45.222c-15.815-11.558-36.585-10.051-46.391,3.367
		c-2.581,3.532-4.145,7.538-4.76,11.733c-0.004,0.024-3.748,23.486-14.35,40.591c-5.536,7.575-2.785,19.005,6.144,25.53
		c8.929,6.525,20.655,5.674,26.191-1.901c13.083-15.304,34.315-26,34.315-26l0,0
		C1526.016,580.865,1529.357,578.159,1531.938,574.627z"/>
	
		<rect x="1474.285" y="549.387" transform="matrix(0.8727 0.4883 -0.4883 0.8727 467.2086 -647.3442)" class="st18" width="1.315" height="45.706"/>
	
		<rect x="1493.6" y="563.499" transform="matrix(-0.7305 -0.6829 0.6829 -0.7305 2185.4512 2035.0994)" class="st18" width="1.315" height="45.706"/>
	<polygon class="st18" points="1501.624,572.368 1500.552,565.476 1493.774,566.531 1492.737,559.868 1486.189,560.888 
		1485.065,553.663 1485.958,553.524 1486.944,559.855 1493.491,558.836 1494.528,565.498 1501.306,564.443 1502.379,571.336 
		1508.767,570.341 1508.906,571.235 	"/>
	
		<rect x="1443.416" y="607.063" transform="matrix(0.8074 0.59 -0.59 0.8074 643.2684 -742.8213)" class="st19" width="31.83" height="13.498"/>
	
		<rect x="1444.006" y="595.138" transform="matrix(0.8074 0.59 -0.59 0.8074 639.7602 -747.694)" class="st20" width="42.067" height="21.729"/>
	<path class="st0" d="M1448.78,589.357c0,0,0.623,0.405,1.233,0.351c1.052-0.094,2.139-1.262,3.342-0.378
		c1.203,0.884-0.68,5.212-1.464,5.765c-0.784,0.553-2.772-0.165-5.043-2.298C1444.575,590.663,1448.78,589.357,1448.78,589.357z"/>
	<path class="st0" d="M1452.903,589.086c0,0,2.202,0.513,4.581,1.366c2.087,0.749,4.366,1.988,4.381,2.44
		c0.017,0.504-2.204-0.454-4.325-1.066c-1.953-0.563-1.665-0.143-1.665-0.143s-0.075-0.124,1.93,0.88
		c2.155,1.079,4.251,2.39,4.204,2.926c-0.023,0.261-0.177,0.351-1.026,0.079c0.454,0.255,0.445,0.408,0.351,0.595
		c-0.485,0.972-3.911-0.149-5.271-0.595c1.043,0.348,1.77,0.71,1.06,1.121c-0.812,0.47-5.582-1.321-7.354-1.808
		C1447.835,594.35,1452.903,589.086,1452.903,589.086z"/>
	<path class="st10" d="M1444.906,541.574c0,0-5.774-0.733-8.802,5.093c-3.028,5.826-3.012,8.312-3.417,11.156
		c-0.382,2.686-2.106,10.02-2.28,10.777c-0.175,0.757-4.081,9.789-2.288,12.945c1.802,3.173,20.102,12.507,19.986,13.206
		c-0.116,0.699,3.167-7.061,3.167-7.061s-7.405-4.125-8.618-5.396c-1.97-2.063-6.126-4.286-5.273-6.847
		c1.002-3.008,4.012-13.155,4.711-14.641C1442.792,559.32,1449.363,543.466,1444.906,541.574z"/>
	<path class="st14" d="M1452.952,522.023c1.511,3.44,0.598,7.168-2.041,8.328c-2.639,1.159-6.003-0.689-7.514-4.129
		c-1.511-3.44-0.598-7.168,2.041-8.328C1448.076,516.735,1451.441,518.583,1452.952,522.023z"/>
</g>
<rect y="712.017" class="st5" width="1800" height="7.863"/>
<g>
	<g>
		<linearGradient id="SVGID_2_" gradientUnits="userSpaceOnUse" x1="47.0136" y1="369.7439" x2="233.1314" y2="369.7439">
			<stop  offset="0" style="stop-color:#04BBB1"/>
			<stop  offset="0.9553" style="stop-color:#AFE8FE"/>
		</linearGradient>
		<path class="st21" d="M67.156,400.584c2.859,6.956,6.644,13.368,11.175,19.111l-6.645,14.124l13.417,10.201l13.417,10.201
			l11.519-10.419c6.707,2.802,13.84,4.69,21.229,5.525l5.151,14.738l16.604-2.403l16.603-2.403l0.875-15.61
			c6.863-2.897,13.189-6.734,18.855-11.326l13.935,6.735l10.064-13.599l10.064-13.599l-10.28-11.675
			c2.764-6.798,4.628-14.027,5.451-21.517l14.541-5.221l-2.371-16.829l-2.371-16.829l-15.402-0.887
			c-2.858-6.956-6.644-13.368-11.174-19.111l6.645-14.125l-13.417-10.201l-13.417-10.201l-11.519,10.419
			c-6.707-2.802-13.84-4.69-21.229-5.525l-5.151-14.738l-16.604,2.403l-16.603,2.403l-0.875,15.61
			c-6.863,2.897-13.19,6.734-18.855,11.326l-13.936-6.735L66.79,314.028l-10.064,13.599l10.28,11.675
			c-2.764,6.798-4.628,14.027-5.451,21.517l-14.541,5.22l2.371,16.829l2.371,16.829L67.156,400.584z M131.765,310.775
			c32.132-4.65,61.899,17.981,66.487,50.549c4.588,32.568-17.741,62.738-49.872,67.389c-32.132,4.65-61.899-17.982-66.487-50.549
			C77.305,345.596,99.633,315.425,131.765,310.775z"/>
	</g>
	<g>
		<linearGradient id="SVGID_3_" gradientUnits="userSpaceOnUse" x1="57.9464" y1="69.241" x2="143.2711" y2="69.241">
			<stop  offset="0" style="stop-color:#40D5E6"/>
			<stop  offset="1" style="stop-color:#A7E6FB"/>
		</linearGradient>
		<path class="st22" d="M67.181,83.38c1.311,3.189,3.046,6.129,5.123,8.761l-3.046,6.475l6.151,4.677l6.151,4.676l5.281-4.777
			c3.075,1.285,6.345,2.15,9.732,2.533l2.362,6.757l7.612-1.102l7.612-1.102l0.401-7.156c3.146-1.329,6.047-3.087,8.644-5.193
			l6.389,3.088l4.614-6.234l4.614-6.235l-4.713-5.352c1.267-3.117,2.122-6.431,2.499-9.864l6.666-2.393l-1.087-7.715l-1.087-7.715
			l-7.061-0.407c-1.31-3.189-3.046-6.128-5.123-8.761l3.047-6.475l-6.151-4.676l-6.151-4.677l-5.281,4.777
			c-3.075-1.285-6.345-2.15-9.732-2.533L102.284,26l-7.612,1.102l-7.612,1.102l-0.401,7.156c-3.146,1.328-6.047,3.087-8.644,5.192
			l-6.389-3.088l-4.614,6.234l-4.614,6.234l4.713,5.352c-1.267,3.117-2.122,6.431-2.499,9.864l-6.666,2.393l1.087,7.715l1.087,7.715
			L67.181,83.38z M96.8,42.207c14.731-2.132,28.377,8.244,30.48,23.174c2.103,14.93-8.133,28.762-22.864,30.894
			c-14.731,2.132-28.377-8.243-30.48-23.174C71.833,58.171,82.07,44.339,96.8,42.207z"/>
	</g>
	<g>
		<g>
			<path class="st0" d="M581.394,434.006c0,0,41.076-13.528,44.414-12.018c3.338,1.51,3.788,3.895-0.01,5.329
				c-3.798,1.433-39.386,14.279-39.386,14.279s50.756-7.414,53.772-6.829c1.767,0.343,2.899,4.894,0.924,5.859
				c-1.975,0.965-52.023,11.366-52.023,11.366s47.398-6.832,49.749-5.531c2.056,1.138,2.102,5.642-1.392,6.405
				c-3.494,0.763-47.266,9.743-47.266,9.743s34.689-2.67,36.013-0.289c0.81,1.457,1.964,5.332-6.995,5.724
				c-8.959,0.392-30.105,3.68-30.105,3.68L581.394,434.006z"/>
		</g>
		<g>
			<g>
				<path class="st0" d="M536.134,457.323c0,0,13.292-5.355,14.245-13.856c0.811-7.229,6.73-16.193,8.548-18.956
					c2.432-3.696,6.061-17.809,10.32-14.8c4.26,3.009-4.945,23.521-6.086,28.194c-1.142,4.672,17.001-5.286,21.539-4.386
					c4.539,0.9,16.898,33.149,3.772,38.482c-13.126,5.333-30.044,1.943-32.199,3.362c-2.156,1.418-9.424,4.276-9.424,4.276
					L536.134,457.323z"/>
			</g>
		</g>
		<g>
			<path class="st23" d="M375.903,699.016c0.297,3.895,0.618,7.607,0.915,10.923H186.612c0.069-3.247,0.16-6.934,0.229-10.923
				c0.641-32.143,1.579-84.833,1.167-104.73c-0.526-28.409-6.43-102.225-7.597-106.492c0,0-41.734-61.456-85.505,59.856
				c-9.038,24.999,73.813,87.638,63.516,89.563c-10.273,1.902-9.861,21.73-9.861,21.73s-78.023-68.877-76.421-89.169
				c0.892-11.271,61.983-175.045,71.319-181.816c6.361-4.638,46.31-20.872,67.017-28.826c9.587-3.711,16.886-6.285,18.396-6.378
				c4.736-0.302,63.173,5.38,63.173,5.38s8.374,2.899,16.954,6.888c14.621,6.795,37.41,17.44,53.746,25.325
				c5.286,2.551,11.898,5.983,17.389,8.929c-0.663,20.129-1.853,41.72-3.524,64.795c0,0-3.043,50.394-3.318,101.298
				c-2.631,11.525-2.173,38.311-2.173,38.311c-0.732,25.394,2.059,51.46,2.791,66.025
				C374.369,678.816,375.125,689.485,375.903,699.016z"/>
		</g>
		<g>
			<path class="st24" d="M384.117,699.016c-2.746-18.02-5.354-36.782-7.505-54.731v-0.139c-0.343-2.922-0.686-5.82-1.03-8.697
				c0-0.139-0.023-0.301-0.046-0.44c-1.373-12.152-2.494-23.771-3.317-34.415c-0.618-8.164-0.069-16.117,1.052-23.933
				c3.249-54.429,4.874-111.827,4.874-111.827c1.716-23.515,2.7-45.454,3.363-65.931c0,0-73.378-35.134-80.036-37.152
				c0,0,13.911,33.117,24.345,107.166c4.027,28.432,11.463,76.298,16.863,125.161c2.128,19.271,5.629,38.775,8.969,57.142
				c3.157,17.324,6.178,33.65,7.802,47.797c0.115,0.857,0.206,1.716,0.298,2.574c0.252,2.435,0.549,5.241,0.892,8.349h25.169
				C385.238,706.344,384.666,702.68,384.117,699.016z"/>
		</g>
		<g>
			<path class="st24" d="M254.865,612.421c-3.34,32.838-7.001,59.415-9.953,86.595c-0.389,3.617-0.778,7.258-1.144,10.923h-77.176
				c1.007-3.618,1.991-7.259,2.929-10.923c8.283-31.656,14.895-63.961,14.895-83.557c0,0-16.062-117.067-21.439-135.922
				c0,0-48.575,36.41-59.924,61.618c-10.159,22.542,64.272,91.395,63.402,93.714c-5.057,13.567-24.436,38.358-24.436,38.358
				S26.769,547.765,28.301,532.297c1.098-11.247,97.723-136.293,107.035-143.065c5.4-3.919,45.304-18.251,64.889-26.09
				c3.592-1.438,15.261-5.891,18.465-7.12c4.141,4.684,33.337,36.526,43.45,157.536C263.857,533.966,258.48,577.148,254.865,612.421
				z"/>
		</g>
		<g>
			<path class="st25" d="M234.266,359.05c0,0-0.401-20.334-8.133-61.47c-2.068-11.012,63.073,28.975,63.073,28.975
				s-0.201,3.857-0.332,9.066c-0.07,2.751-0.113,5.873-0.096,9.004c0.009,1.105,0.018,2.202,0.044,3.29
				c0.061,2.91,0.192,5.696,0.436,8.066c0.244,2.441,1.667,6.749,2.173,7.934C294.119,370.195,256.203,374.962,234.266,359.05z"/>
		</g>
		<path class="st26" d="M274.925,380.355l10.798,14.704c0,0-6.326,8.587-17.561,2.248L274.925,380.355z"/>
		<path class="st26" d="M282.835,395.656c0,0,40.953,159.813,32.512,284.213l-13.779,24.612l-12.897-25.783
			c0,0-3.533-222.517-14.762-283.434L282.835,395.656z"/>
		<path class="st25" d="M286.487,366.646l-11.562,13.709c0,0-18.555-3.643-24.003-13.467
			C245.473,357.064,286.487,366.646,286.487,366.646z"/>
		<path class="st27" d="M289.139,354.648c0,0-1.343,10.45-14.214,25.707l14.049,19.131l7.603-39.686L289.139,354.648z"/>
		<path class="st27" d="M233.197,344.705c0,0,22.966,28.132,41.727,35.65l-8.726,21.874l-43.665-47.581L233.197,344.705z"/>
		<g>
			<path class="st24" d="M570.649,480.147c0,0-98.977,108.989-122.334,103.165c-10.797-2.691-27.153-21.584-40.668-39.345
				c-4.455-5.849-8.824-11.988-12.981-18.063c-0.012-0.012-0.012-0.025-0.012-0.025c-16.581-24.264-29.574-47.523-29.574-47.523
				s-49.01-58.215-9.681-84.165c0,0,16.574-1.695,26.002,5.354c8.705,6.508,29.883,47.49,33.321,55.088
				c3.438,7.585,30.183,61.15,32.677,62.735c2.496,1.585,28.761-14.396,42.802-23.974c22.688-15.478,51.194-42.454,51.194-42.454
				L570.649,480.147z"/>
		</g>
		<g>
			<path class="st0" d="M323.508,225.331c0,0,14.311,26.892,7.218,31.074c-5.861,3.455,6.867,29.846,8.532,34.158
				c1.665,4.312-10.616,7.445-13.224,10.22c-2.608,2.775-10.342,36.922-20.456,37.952c-10.114,1.03-55.69-15.035-68.1-28.113
				c-12.41-13.078-22.593-72.152-14.309-97.069C231.451,188.634,298.25,178.353,323.508,225.331z"/>
		</g>
		<g>
			<path class="st14" d="M326.364,231.158c0,0,14.609-29.042-11.926-50.587c-26.535-21.545-75.465,16.267-80.979,17.709
				c-5.515,1.442-36.803,3.62-21.005,59.304c13.566,47.814,15.461,49.826,15.461,49.826s10.124-27.7,15.862-31.922
				c8.96-6.593,28.605-5.01,28.605-5.01s-9.361-25.189,5.268-28.756C292.279,238.156,311.564,225.589,326.364,231.158z"/>
		</g>
		<g>
			<path class="st0" d="M256.799,256.055c-1.29-3.455-5.462-18.305-18.034-9.584c-12.572,8.72,7.833,36.708,10.025,37.069
				C250.981,283.901,267.656,285.129,256.799,256.055z"/>
		</g>
		<path class="st15" d="M288.778,344.625c0.009,1.105,0.018,2.202,0.044,3.29c-37.261-12.674-44.478-31.752-44.478-31.752
			c11.623,8.332,44.53,19.458,44.53,19.458C288.805,338.372,288.761,341.494,288.778,344.625z"/>
		<path class="st0" d="M153.008,634.463c0,0,3.526,2.996,7.262,2.964c6.451-0.056,13.795-7.163,20.538-0.707
			c6.743,6.455-7.452,33.91-12.565,37.127c-5.113,3.217-16.733-2.565-29.169-17.798
			C126.639,640.815,153.008,634.463,153.008,634.463z"/>
		<path class="st0" d="M178.228,634.881c0,0,13.048,4.544,26.955,11.421c12.2,6.034,26.515,15.248,25.055,18.379
			c-2.217,4.754-13.099-4.162-25.593-9.313c-11.503-4.741-10.024-1.831-10.024-1.831s-0.376-0.852,11.162,6.814
			c12.405,8.243,25.389,17.623,24.242,20.211c-1.423,3.207-1.867,3.484-6.855,1.248c2.593,1.917,2.441,2.918,1.753,4.103
			c-3.563,6.134-23.658-3.064-31.637-6.719c6.112,2.846,10.296,5.606,5.723,7.932c-5.231,2.66-33.061-11.66-43.516-15.807
			C144.087,666.796,178.228,634.881,178.228,634.881z"/>
		<path class="st24" d="M166.457,634.881c0,0-2.836,16.829-24.434,38.35c0,0-49.503-55.351-58.334-65.714l38.734-22.778
			L166.457,634.881z"/>
	</g>
	<linearGradient id="SVGID_4_" gradientUnits="userSpaceOnUse" x1="377.9321" y1="280.7745" x2="422.5211" y2="280.7745">
		<stop  offset="0" style="stop-color:#04BBB1"/>
		<stop  offset="0.9553" style="stop-color:#AFE8FE"/>
	</linearGradient>
	<path class="st28" d="M393.247,303.372h13.958c8.458,0,15.315-6.857,15.315-15.315v-14.563c0-8.458-6.857-15.315-15.315-15.315
		h-13.958c-8.459,0-15.316,6.857-15.316,15.316v14.563C377.932,296.515,384.789,303.372,393.247,303.372z"/>
	<g class="st29">
		<path class="st30" d="M588.73,212.356H443.956c-2.627,0-4.757-2.13-4.757-4.757v-4.523c0-2.627,2.129-4.756,4.756-4.756H588.73
			c2.627,0,4.756,2.129,4.756,4.756v4.523C593.486,210.227,591.357,212.356,588.73,212.356z"/>
		<path class="st30" d="M610.24,235.049H443.956c-2.627,0-4.757-2.13-4.757-4.757v-4.523c0-2.627,2.129-4.756,4.756-4.756H610.24
			c2.627,0,4.756,2.129,4.756,4.756v4.523C614.997,232.919,612.867,235.049,610.24,235.049z"/>
	</g>
	<linearGradient id="SVGID_5_" gradientUnits="userSpaceOnUse" x1="377.9321" y1="216.6847" x2="422.5211" y2="216.6847">
		<stop  offset="0" style="stop-color:#04BBB1"/>
		<stop  offset="0.9553" style="stop-color:#AFE8FE"/>
	</linearGradient>
	<path class="st31" d="M393.248,239.282h13.958c8.459,0,15.315-6.857,15.315-15.315v-14.563c0-8.459-6.857-15.316-15.316-15.316
		h-13.958c-8.459,0-15.316,6.857-15.316,15.316v14.563C377.932,232.425,384.789,239.282,393.248,239.282z"/>
	<g class="st29">
		<path class="st30" d="M550.407,276.447H443.957c-2.627,0-4.757-2.13-4.757-4.757v-4.523c0-2.627,2.129-4.756,4.756-4.756h106.452
			c2.627,0,4.756,2.129,4.756,4.756v4.523C555.164,274.317,553.034,276.447,550.407,276.447z"/>
		<path class="st30" d="M577.078,299.139H443.956c-2.627,0-4.757-2.13-4.757-4.757v-4.523c0-2.627,2.13-4.757,4.757-4.757h133.122
			c2.627,0,4.757,2.13,4.757,4.757v4.523C581.835,297.009,579.706,299.139,577.078,299.139z"/>
	</g>
	<g class="st29">
		<path class="st30" d="M602.693,340.536H443.956c-2.627,0-4.757-2.13-4.757-4.757v-4.523c0-2.627,2.13-4.757,4.757-4.757h158.737
			c2.627,0,4.757,2.13,4.757,4.757v4.523C607.45,338.407,605.32,340.536,602.693,340.536z"/>
		<path class="st30" d="M588.729,363.229H443.956c-2.627,0-4.757-2.13-4.757-4.757v-4.523c0-2.627,2.129-4.756,4.756-4.756H588.73
			c2.627,0,4.756,2.13,4.756,4.756v4.523C593.486,361.099,591.357,363.229,588.729,363.229z"/>
	</g>
	<linearGradient id="SVGID_6_" gradientUnits="userSpaceOnUse" x1="377.9321" y1="344.8645" x2="422.5211" y2="344.8645">
		<stop  offset="0" style="stop-color:#04BBB1"/>
		<stop  offset="0.9553" style="stop-color:#AFE8FE"/>
	</linearGradient>
	<path class="st32" d="M393.248,367.462h13.958c8.459,0,15.316-6.857,15.316-15.316v-14.563c0-8.459-6.857-15.316-15.316-15.316
		h-13.958c-8.458,0-15.315,6.857-15.315,15.315v14.563C377.932,360.604,384.789,367.462,393.248,367.462z"/>
	<g>
		<g>
			<g>
				<g>
					<g>
						<path class="st18" d="M398.705,291.697l-12.374-10.897c-1.015-0.894-1.122-2.452-0.241-3.48
							c0.882-1.028,2.419-1.137,3.434-0.244l8.75,7.706l12.436-14.107c0.896-1.016,2.434-1.104,3.436-0.196
							c1.003,0.908,1.089,2.467,0.194,3.483L398.705,291.697z"/>
					</g>
				</g>
			</g>
		</g>
	</g>
	<g>
		<g>
			<g>
				<g>
					<g>
						<path class="st18" d="M398.705,355.787l-12.374-10.897c-1.015-0.894-1.122-2.452-0.241-3.48
							c0.882-1.028,2.419-1.137,3.434-0.244l8.75,7.706l12.436-14.107c0.896-1.016,2.434-1.104,3.436-0.196
							c1.003,0.908,1.089,2.467,0.194,3.483L398.705,355.787z"/>
					</g>
				</g>
			</g>
		</g>
	</g>
	<g>
		<path class="st18" d="M399.396,222.195l-0.076-0.994c-0.226-2.065,0.453-4.321,2.339-6.614c1.697-2.026,2.64-3.518,2.64-5.238
			c0-1.95-1.207-3.25-3.584-3.288c-1.358,0-2.867,0.459-3.81,1.185l-0.905-2.409c1.245-0.918,3.395-1.529,5.394-1.529
			c4.338,0,6.3,2.715,6.3,5.62c0,2.6-1.434,4.473-3.244,6.653c-1.66,1.988-2.263,3.67-2.15,5.62l0.038,0.994H399.396z
			 M398.566,227.548c0-1.415,0.943-2.409,2.263-2.409c1.32,0,2.226,0.994,2.226,2.409c0,1.338-0.868,2.37-2.263,2.37
			C399.472,229.918,398.566,228.886,398.566,227.548z"/>
	</g>
	<g>
		<g>
			<path class="st33" d="M328.832,142.457c-2.638-0.815-4.91-2.393-6.465-4.51c-1.764-2.4-2.403-5.204-1.802-7.899
				c0.802-5.393,0.383-11.249-0.132-15.314c-5.267-6.639-6.95-15.428-4.499-23.576c4.071-13.533,18.246-21.186,31.598-17.059
				c13.352,4.126,20.902,18.493,16.831,32.027c-2.216,7.367-7.498,13.259-14.518,16.213c-2.965,4.662-5.099,9.06-6.344,13.079
				c-1.279,5.498-7.433,8.767-13.741,7.29C329.446,142.635,329.136,142.551,328.832,142.457z M346.928,76.107
				c-12.26-3.789-25.275,3.238-29.013,15.663c-2.277,7.57-0.668,15.744,4.306,21.865l0.188,0.232l0.039,0.298
				c0.55,4.218,1.025,10.458,0.159,16.236l-0.015,0.079c-0.478,2.097,0.032,4.303,1.436,6.213c1.442,1.962,3.644,3.373,6.198,3.97
				c5.211,1.22,10.265-1.363,11.267-5.758l0.009-0.039l0.012-0.038c1.324-4.291,3.603-8.97,6.772-13.909l0.179-0.279l0.304-0.123
				c6.587-2.672,11.549-8.14,13.614-15.003C366.12,93.088,359.188,79.896,346.928,76.107z"/>
		</g>
		<g>
			<polygon class="st33" points="326.139,132.879 328.932,104.857 333.505,110.838 337.851,107.713 340.048,112.068 
				346.288,108.754 337.061,135.36 335.107,134.664 342.589,113.088 339.156,114.912 337.096,110.829 333.084,113.714 
				330.471,110.297 328.2,133.089 			"/>
		</g>
		<g>
			<polygon class="st33" points="337.43,149.404 319.935,145.308 321.564,138.162 339.059,142.258 			"/>
		</g>
		<g>
			<polygon class="st33" points="340.914,147.12 317.793,141.707 320.414,130.204 343.536,135.617 			"/>
		</g>
	</g>
	<g>
		<g>
			<g>
				<g>
					<g>
						<polygon class="st33" points="474.221,97.262 467.006,98.672 477.6,154.332 484.815,152.921 						"/>
					</g>
				</g>
			</g>
		</g>
		<g>
			<g>
				<g>
					<g>
						<polygon class="st33" points="461.152,106.286 453.936,107.698 463.344,157.119 470.559,155.708 						"/>
					</g>
				</g>
			</g>
		</g>
		<g>
			<g>
				<g>
					<g>
						<polygon class="st33" points="447.208,117.429 439.992,118.84 447.855,160.148 455.07,158.737 						"/>
					</g>
				</g>
			</g>
		</g>
		<g>
			<g>
				<g>
					<g>
						<polygon class="st33" points="433.248,130.77 426.033,132.181 431.948,163.258 439.164,161.848 						"/>
					</g>
				</g>
			</g>
		</g>
	</g>
</g>
<g>
</g>
<g>
</g>
<g>
</g>
<g>
</g>
<g>
</g>
<g>
</g>
<g>
</g>
<g>
</g>
<g>
</g>
<g>
</g>
<g>
</g>
<g>
</g>
<g>
</g>
<g>
</g>
<g>
</g>
</svg>
