<?xml version="1.0" encoding="utf-8"?>
<!-- Generator: Adobe Illustrator 24.1.3, SVG Export Plug-In . SVG Version: 6.00 Build 0)  -->
<svg version="1.1" xmlns="http://www.w3.org/2000/svg" xmlns:xlink="http://www.w3.org/1999/xlink" x="0px" y="0px"
	 viewBox="0 0 1800 720" style="enable-background:new 0 0 1800 720;" xml:space="preserve">
<style type="text/css">
	.st0{display:none;}
	.st1{display:inline;opacity:0.19;}
	.st2{fill:#E2D2CA;}
	.st3{fill:#706865;}
	.st4{fill:#CCBDB7;}
	.st5{fill:#4667A8;}
	.st6{fill:#B59074;}
	.st7{fill:#04BBB1;}
	.st8{fill:#EAD8CF;}
	.st9{fill:#DA9B5B;}
	.st10{fill:#424773;}
	.st11{fill:#292C47;}
	.st12{fill:#EEA886;}
	.st13{fill:#3A3F47;}
	.st14{fill:#323657;}
	.st15{fill:#918783;}
	.st16{fill:#5E5854;}
	.st17{fill:#BFB2AC;}
	.st18{fill:#04867B;}
	.st19{fill:#F5F7FF;}
	.st20{fill:#CECFD6;}
	.st21{fill:#2E436E;}
	.st22{fill:#EEF0F7;}
	.st23{fill:#D9C7C1;}
	.st24{fill:#EEA987;}
	.st25{fill:#E8734D;}
	.st26{fill:#C78D71;}
	.st27{fill:#EDDAD3;}
	.st28{fill:#5073AB;}
	.st29{fill:#64B888;}
	.st30{display:inline;fill:#04BBB1;}
	.st31{display:inline;}
	.st32{fill:url(#SVGID_1_);}
	.st33{fill:url(#SVGID_2_);}
	.st34{fill:#DBD8E3;}
	.st35{fill:#D44040;}
	.st36{fill:#C4C1CC;}
	.st37{fill:#D88A51;}
	.st38{fill:#A77860;}
	.st39{fill:url(#SVGID_3_);}
	.st40{opacity:0.69;}
	.st41{opacity:0.72;fill:#D9D9D9;}
	.st42{fill:url(#SVGID_4_);}
	.st43{fill:url(#SVGID_5_);}
	.st44{fill:#FFFFFF;}
	.st45{fill:#4CA1AD;}
	.st46{fill:#1D3B54;}
	.st47{fill:#122536;}
	.st48{fill:#132738;}
	.st49{fill:#CFBEB8;}
	.st50{fill:#FCCCA2;}
	.st51{fill:#285173;}
	.st52{fill:#049E87;}
	.st53{fill:#BA3838;}
	.st54{fill:#D6C5BE;}
	.st55{fill:#FAE6DE;}
	.st56{fill:#912B2B;}
	.st57{opacity:0.89;fill:url(#SVGID_6_);}
	.st58{fill:#D46946;}
	.st59{opacity:0.19;}
	.st60{fill:url(#SVGID_7_);}
	.st61{fill:url(#SVGID_8_);}
	.st62{fill:url(#SVGID_9_);}
	.st63{fill:url(#SVGID_10_);}
	.st64{fill:url(#SVGID_11_);}
	.st65{opacity:0.89;fill:url(#SVGID_12_);}
</style>
<g id="Layer_1" class="st0">
	<g class="st1">
		<g>
			
				<rect x="1699.98" y="597.852" transform="matrix(-1 -1.224647e-16 1.224647e-16 -1 3427.4722 1197.4647)" class="st2" width="27.512" height="1.762"/>
		</g>
		<g>
			<rect x="1721.394" y="604.198" class="st3" width="2.411" height="80.119"/>
		</g>
		<g>
			
				<rect x="1685.163" y="597.352" transform="matrix(-1 -1.224647e-16 1.224647e-16 -1 3389.449 1197.2203)" class="st4" width="19.123" height="2.516"/>
		</g>
		<g>
			
				<rect x="1691.104" y="575.886" transform="matrix(-1 -1.224647e-16 1.224647e-16 -1 3389.4487 1175.4996)" class="st5" width="7.241" height="23.727"/>
		</g>
		<g>
			
				<rect x="1631.407" y="599.643" transform="matrix(-1 -1.224647e-16 1.224647e-16 -1 3368.7676 1203.8409)" class="st6" width="105.954" height="4.555"/>
		</g>
		<g>
			<g>
				<path class="st7" d="M1757.696,572.07c0,0,1.159,17.531-2.017,19.629c-1.989,1.314-9.92,5.748-9.685,6.579
					c0.235,0.831,4.478,7.396,4.478,7.396s15.234-10.822,15.726-14.232c0.48-3.332-0.75-25.668-2.844-26.697
					c-1.568-0.771-2.396-0.133-4.373,1.45C1756.208,568.416,1757.696,572.07,1757.696,572.07z"/>
			</g>
		</g>
		<g>
			<g>
				<g>
					<path class="st8" d="M1729.931,577.075l-1.343-0.536c0,0,1.674-4.24,2.405-4.137c0.842,0.119,1.893,0.419,1.893,0.419
						L1729.931,577.075z"/>
				</g>
			</g>
		</g>
		<g>
			<g>
				<g>
					<path class="st9" d="M1729.625,577.807c0.172-0.138,2.854-5.689,2.854-5.689l5.731,0.84l-3.097,6.576L1729.625,577.807z"/>
				</g>
			</g>
		</g>
		<g>
			<g>
				<g>
					<path class="st10" d="M1738.953,673.378c0,0,0.474,3.547,0.533,4.08c0.059,0.533,5.27-0.314,5.27-0.314l0.422-4.223
						C1745.177,672.921,1739.604,672.878,1738.953,673.378z"/>
				</g>
			</g>
		</g>
		<g>
			<g>
				<g>
					<path class="st11" d="M1739.43,677.007c0,0-1.651,2.137-3.248,3.069c-1.597,0.932-4.106,1.301-5.05,2.265
						c-0.682,0.696-2.483,3.693,4.149,3.633c6.632-0.061,9.829,0.423,10.54-0.726c0.71-1.149-1.028-8.481-1.028-8.481
						S1743.222,677.376,1739.43,677.007z"/>
				</g>
			</g>
		</g>
		<g>
			<g>
				<g>
					<path class="st10" d="M1705.568,673.412c0,0,0.474,3.547,0.533,4.08c0.059,0.533,5.27-0.314,5.27-0.314l0.422-4.223
						C1711.793,672.955,1706.22,672.911,1705.568,673.412z"/>
				</g>
			</g>
		</g>
		<g>
			<g>
				<g>
					<path class="st11" d="M1706.046,677.04c0,0-1.651,2.137-3.248,3.069c-1.597,0.932-7.473,1.697-8.417,2.661
						c-0.682,0.696-1.815,3.498,7.516,3.236c6.629-0.186,9.829,0.423,10.539-0.726c0.711-1.149-1.028-8.481-1.028-8.481
						S1709.929,677.451,1706.046,677.04z"/>
				</g>
			</g>
		</g>
		<g>
			<g>
				<g>
					<path class="st11" d="M1755.759,612.106c0,0-18.944,3.458-23.223,4.183c-4.279,0.725-27.478,6.952-30.38,8.85
						c-2.309,1.511,1.211,37.788,2.034,51.628h9.138l0.662-41.518c10.965,0.296,18.79-2.767,26.775-1.459
						c7.985,1.308,14.642,3.168,19.716-4.174C1760.482,629.616,1760.67,613.71,1755.759,612.106z"/>
				</g>
			</g>
		</g>
		<g>
			<g>
				<g>
					<path class="st11" d="M1737.087,676.8l8.905-0.594l0.868-40.958c4.721,0.127,6.339-0.196,10.159-0.695l7.19-18.028
						c-6.301,1.359-26.49,6.852-29.182,8.613C1732.717,626.649,1736.264,662.959,1737.087,676.8z"/>
				</g>
			</g>
		</g>
		<g>
			<g>
				<g>
					<path class="st12" d="M1747.038,535.506c0,0-6.945-2.07-9.594,3.745c-2.649,5.815-1.448,16.84,2.052,17.877
						c3.5,1.037,8.533-0.157,9.986-3.777c1.453-3.619,2.612-8.763,2.264-12.093C1751.398,537.927,1748.882,536.301,1747.038,535.506
						z"/>
				</g>
			</g>
		</g>
		<g>
			<g>
				<g>
					<path class="st12" d="M1741.311,555.967c0,0,0.076,4.423-0.376,5.366c-0.452,0.943,9.67,0.706,9.67,0.706
						s-1.595-5.311-0.69-9.836C1750.811,547.725,1741.311,555.967,1741.311,555.967z"/>
				</g>
			</g>
		</g>
		<g>
			<g>
				<g>
					<path class="st13" d="M1750.46,550.529c0,0-0.541,1.187-3.161,0.995c-2.62-0.192-6.076-3.601-7.188-3.906
						c-1.112-0.305-1.178-0.988-1.178-0.988l-0.589,1.129l-1.14,0.187c0,0,0.775-3.417-0.913-4.62
						c-1.688-1.203,0.76-10.895,9.303-8.557c0,0,6.52,1.288,6.608,5.216C1752.29,543.912,1751.726,548.449,1750.46,550.529z"/>
				</g>
			</g>
		</g>
		<g>
			<g>
				<g>
					<path class="st2" d="M1740.403,561.22c0,0,0.028-1.802,0.785-1.974c0.757-0.173,7.957-1.241,8.886-0.847l0.399,2.379
						C1750.472,560.777,1748.682,561.965,1740.403,561.22z"/>
				</g>
			</g>
		</g>
		<g>
			<g>
				<g>
					<path class="st12" d="M1738.319,545.825c0.194-1.477,1.75-3.173,2.642-0.873c0.891,2.3-0.602,5.649-1.602,5.469
						C1738.36,550.242,1738.056,547.829,1738.319,545.825z"/>
				</g>
			</g>
		</g>
		<g>
			<g>
				<g>
					<path class="st14" d="M1710.247,582.504c0.003-0.002,0.007-0.002,0.012-0.001C1710.207,582.528,1710.2,582.53,1710.247,582.504
						z"/>
				</g>
			</g>
		</g>
		<g>
			<g>
				<g>
					<path class="st13" d="M1749.064,536.56c0,0,8.467-0.43,1.478,13.829L1749.064,536.56z"/>
				</g>
			</g>
		</g>
		<g>
			<g>
				<polygon class="st15" points="1767.93,681.659 1767.3,683.57 1740.686,674.674 1741.961,670.804 				"/>
			</g>
		</g>
		<g>
			<g>
				
					<rect x="1739.773" y="642.1" transform="matrix(-1 -1.224647e-16 1.224647e-16 -1 3482.5713 1315.4124)" class="st15" width="3.025" height="31.213"/>
			</g>
		</g>
		<g>
			<g>
				
					<rect x="1732.365" y="640.441" transform="matrix(-1 -1.224647e-16 1.224647e-16 -1 3482.5713 1282.7216)" class="st16" width="17.841" height="1.839"/>
			</g>
		</g>
		<g>
			<g>
				<polygon class="st15" points="1714.407,681.659 1715.037,683.57 1741.651,674.674 1740.482,670.561 				"/>
			</g>
		</g>
		<g>
			<g>
				<polygon class="st15" points="1733.159,683.365 1733.159,685.589 1741.651,674.674 1740.482,670.561 				"/>
			</g>
		</g>
		<g>
			<g>
				<path class="st17" d="M1711.92,684.317c0,1.482,1.114,2.683,2.487,2.683c1.374,0,2.487-1.201,2.487-2.683
					c0-1.482-1.114-2.683-2.487-2.683C1713.034,681.634,1711.92,682.835,1711.92,684.317z"/>
			</g>
		</g>
		<g>
			<g>
				<path class="st17" d="M1732.947,684.317c0,1.482,1.114,2.683,2.487,2.683s2.487-1.201,2.487-2.683
					c0-1.482-1.114-2.683-2.487-2.683S1732.947,682.835,1732.947,684.317z"/>
			</g>
		</g>
		<g>
			<g>
				<path class="st17" d="M1765.443,684.317c0,1.482,1.114,2.683,2.487,2.683c1.374,0,2.487-1.201,2.487-2.683
					c0-1.482-1.114-2.683-2.487-2.683C1766.556,681.634,1765.443,682.835,1765.443,684.317z"/>
			</g>
		</g>
		<g>
			<path class="st2" d="M1723.312,640.441h35.714c1.81,0,3.277-1.467,3.277-3.277v-0.414c0-1.81-1.467-3.277-3.277-3.277h-35.714
				c-1.81,0-3.277,1.467-3.277,3.277v0.413C1720.035,638.974,1721.502,640.441,1723.312,640.441z"/>
		</g>
		<g>
			
				<rect x="1644.963" y="604.198" transform="matrix(-1 -1.224647e-16 1.224647e-16 -1 3292.3362 1288.5153)" class="st3" width="2.411" height="80.119"/>
		</g>
		<g>
			<path class="st18" d="M1680.407,587.316h28.634c9.36,0,16.948-7.588,16.948-16.948v-13.69c0-9.36-7.588-16.947-16.947-16.947
				h-28.635c-9.36,0-16.948,7.588-16.948,16.948v13.689C1663.459,579.728,1671.047,587.316,1680.407,587.316z"/>
		</g>
		<g>
			
				<rect x="1665.908" y="542.303" transform="matrix(-1 -1.224647e-16 1.224647e-16 -1 3389.4487 1122.1617)" class="st19" width="57.633" height="37.556"/>
		</g>
		<g>
			
				<rect x="1665.908" y="542.303" transform="matrix(-1 -1.224647e-16 1.224647e-16 -1 3389.4487 1087.5942)" class="st20" width="57.633" height="2.989"/>
		</g>
		<g>
			<path class="st20" d="M1710.542,550.32h10.061c0.722,0,1.307-0.585,1.307-1.307v-0.165c0-0.722-0.585-1.307-1.307-1.307h-10.061
				c-0.722,0-1.307,0.585-1.307,1.307v0.165C1709.235,549.734,1709.82,550.32,1710.542,550.32z"/>
		</g>
		<g>
			<path class="st20" d="M1715.197,578.313h0.753c3.292,0,5.962-2.669,5.962-5.961v-14.207c0-3.292-2.669-5.961-5.962-5.961h-0.752
				c-3.293,0-5.962,2.669-5.962,5.962v14.206C1709.235,575.643,1711.904,578.313,1715.197,578.313z"/>
		</g>
		<g>
			<path class="st21" d="M1681.78,599.703v-0.847c0,0,1.103-5.267,8.91-5.267c7.806,0,7.648,6.114,7.648,6.114H1681.78z"/>
		</g>
		<g>
			<g>
				<path class="st12" d="M1698.432,594.372c0,0-1.696-0.142-2.317-0.546c-0.621-0.404-4.338-3.101-5.211-2.669
					c-0.873,0.432-6.684,2.352-6.482,3.268c0.202,0.917,0.74,0.828,1.149,0.666c0.41-0.162,4.629-1.117,5.002-0.956
					c0,0-4.145,1.631-4.161,2.821c-0.016,1.19,0.867,1.48,1.26,1.93c0.393,0.45,0.865,1.567,1.933,1.653
					c1.068,0.086,6.279-1.87,7.352-1.959c1.073-0.089,3.058,0.071,3.193-0.117C1700.285,598.274,1698.432,594.372,1698.432,594.372z
					"/>
			</g>
		</g>
		<g>
			<g>
				<g>
					<g>
						<path class="st7" d="M1729.305,563.716c5.407-1.025,11.098-2.497,11.098-2.497l10.07-0.442c0,0,9.242,2.195,12.882,3.968
							c0.345,0.168,0.347,8.894,1.294,11.182l-3.018,6.867c0,0-1.743,13.604-2.105,19.654c-0.166,2.777,0.47,26.842,0.47,26.842
							s-0.905,0.482-7.777,1.299c-6.873,0.817-24.044-0.296-24.153-1.171c-0.109-0.876,3.325-32.605,3.477-34.248
							c0.233-2.522-0.675-14.175-0.675-14.175c-1.295,1.876-4.596,10.35-8.037,14.381c-2.024,2.372-12.046,3.826-13.935,3.894
							c-4.112,0.148-11.614,1.031-11.833,0.6c-0.175-0.259-0.654-7.183-0.183-7.352c0.412-0.148,14.342-1.013,17.91-3.056
							c1.306-0.747,5.209-9.928,5.209-9.928S1726.322,565.162,1729.305,563.716z"/>
					</g>
				</g>
			</g>
		</g>
		<g>
			<path class="st2" d="M1756.737,628.595h1.729c7.572,0,13.709-6.138,13.709-13.709v-16.13c0-7.571-6.138-13.709-13.709-13.709
				h-1.729c-7.572,0-13.709,6.138-13.709,13.709v16.13C1743.028,622.457,1749.166,628.595,1756.737,628.595z"/>
		</g>
		<g>
			<path class="st2" d="M1748.193,638.707c4.297,0,7.782-1.557,10.361-4.628c5.827-6.94,4.78-19.139,4.732-19.654
				c-0.089-0.962-0.884-1.664-1.774-1.568c-0.891,0.095-1.542,0.951-1.454,1.912c0.013,0.139,0.941,11.197-3.915,16.969
				c-1.964,2.335-4.565,3.47-7.95,3.47c-0.895,0-1.622,0.783-1.622,1.749C1746.571,637.924,1747.298,638.707,1748.193,638.707z"/>
		</g>
		<g>
			<path class="st22" d="M1706.54,561.081c0,3.123-1.041,5.983-2.769,8.2c-0.404,0.519-0.846,1.001-1.32,1.444
				c-0.136,0.126-0.274,0.25-0.415,0.369c-0.159,0.136-0.321,0.266-0.487,0.393c-1.555,1.189-3.389,1.982-5.374,2.244
				c-0.349,0.047-0.704,0.076-1.063,0.089c-0.129,0.005-0.258,0.007-0.388,0.007c-0.382,0-0.76-0.02-1.133-0.058
				c-0.417-0.043-0.827-0.109-1.23-0.198c-1.79-0.391-3.433-1.22-4.83-2.378c-0.422-0.349-0.82-0.727-1.193-1.133
				c-0.073-0.079-0.144-0.159-0.215-0.24c-0.265-0.302-0.515-0.618-0.75-0.947c-1.546-2.155-2.466-4.858-2.466-7.793
				c0-7.04,5.291-12.747,11.816-12.747C1701.25,548.335,1706.54,554.042,1706.54,561.081z"/>
			<g>
				<g>
					<path class="st23" d="M1702.421,568.115l-0.872,3.373c-1.555,1.189-3.389,1.982-5.374,2.244
						c-0.349,0.047-0.704,0.076-1.063,0.089c-0.129,0.005-0.258,0.007-0.388,0.007c-0.382,0-0.76-0.02-1.133-0.058
						c-0.417-0.043-0.827-0.109-1.23-0.198c-1.79-0.391-3.433-1.22-4.83-2.378c-0.167-1.115-0.346-2.35-0.504-3.504
						c0.868-0.349,3.633-1.363,5.377-1.999c0.024-0.009,0.049-0.018,0.073-0.026c0.039-0.015,0.076-0.028,0.114-0.042
						c0.103-0.038,0.202-0.074,0.296-0.108c0.096-0.035,0.187-0.068,0.271-0.099c0.358-0.13,0.609-0.221,0.7-0.253
						c0.001-0.001,0.001-0.001,0.001-0.001c0.023-0.009,0.035-0.013,0.035-0.013l0.02,0.001l2.346,0.189l0.394,0.032l0.122,0.01
						c0,0,0.018,0.005,0.054,0.015c0.141,0.039,0.552,0.155,1.096,0.334c0.001,0,0.002,0.001,0.002,0.001
						C1699.318,566.189,1701.571,567.06,1702.421,568.115z"/>
				</g>
				<g>
					<path class="st24" d="M1695.34,554.752c0,0,2.813,0.512,2.336,5.263c-0.477,4.751-2.96,4.332-3.126,4.325
						c-0.166-0.007-2.498,0.057-2.62-5.751C1691.929,558.589,1691.893,554.294,1695.34,554.752z"/>
				</g>
				<g>
					<path class="st24" d="M1696.572,562.963c0,0-0.097,1.955,0.074,2.381c0.171,0.425-2.259,1.772-3.769,0.238
						c0,0,0.305-2.137,0.21-2.892C1692.993,561.935,1696.572,562.963,1696.572,562.963z"/>
				</g>
				<g>
					<path class="st24" d="M1697.733,558.672c0,0,0.312-0.352,0.422,0.009c0.11,0.361-0.499,1.963-0.461,2.035
						c0,0-0.058,0.139-0.131,0.061C1697.489,560.7,1697.733,558.672,1697.733,558.672z"/>
				</g>
				<g>
					<path class="st24" d="M1691.961,558.544c0,0-0.299-0.365-0.422-0.009c-0.123,0.356,0.327,1.955,0.383,2.054
						c0,0,0.097,0.164,0.173,0.09C1692.171,560.604,1691.961,558.544,1691.961,558.544z"/>
				</g>
				<g>
					<path class="st25" d="M1697.913,558.268c-0.097,0.65-0.189,1.133-0.189,1.133l-0.409,0.577c0,0,0.024-1.276-0.038-1.476
						c-0.024-0.076-0.052-0.211-0.08-0.356c-0.047-0.24-0.095-0.512-0.128-0.602c-0.053-0.144-2.411-0.887-4.512,0.156
						c0,0,0.018,0.196,0.016,0.415c-0.001,0.254-0.027,0.539-0.135,0.582c-0.201,0.08-0.117,1.493-0.117,1.493l-0.327-0.408
						c0,0-0.095-0.738-0.188-1.587c0,0,0-0.002-0.001-0.006c-0.021-0.198-0.043-0.401-0.063-0.603
						c-0.047-0.854,0.031-2.403,1.062-3.313c0.695-0.321,1.805-0.594,3.655,0.017c0,0,0.424,0.031,0.543,0.154
						C1698.153,555.813,1697.913,558.268,1697.913,558.268z"/>
				</g>
				<path class="st26" d="M1693.281,563.705c0,0,0.449,0.673,1.492,0.647c1.043-0.025,1.496-0.612,1.496-0.612
					s-0.494,1.114-1.501,1.102C1693.761,564.831,1693.281,563.705,1693.281,563.705z"/>
				<path class="st24" d="M1692.591,565.623c0,0,0.754,1.416,2.184,1.549c0.908,0.085,1.693-1.156,2.061-1.765
					C1696.836,565.407,1694.804,564.469,1692.591,565.623z"/>
				<path class="st27" d="M1696.575,564.959c0,0-0.575,0.813-1.8,1.683l0.762,1.266l1.299-2.501L1696.575,564.959z"/>
				<path class="st27" d="M1692.935,565.149c0,0,0.732,0.989,1.84,1.493l-0.836,1.305l-1.462-2.282L1692.935,565.149z"/>
				<path class="st28" d="M1694.775,566.642l0.653,1.072c0,0-0.685,0.418-1.323-0.026L1694.775,566.642z"/>
				<path class="st14" d="M1703.175,567.915c0,0-0.006,0.024-0.018,0.07c-0.072,0.275-0.348,1.333-0.706,2.74
					c-0.136,0.126-0.274,0.25-0.415,0.369c-0.159,0.136-0.321,0.266-0.487,0.393c-1.555,1.189-3.389,1.982-5.374,2.244
					c0.175-4.412,0.661-8.325,0.661-8.325c0.383,0.109,0.747,0.216,1.09,0.323c0.001,0,0.002,0.001,0.002,0.001
					c2.998,0.928,4.519,1.743,5.037,2.052c0.004,0.002,0.008,0.005,0.012,0.007C1703.113,567.871,1703.175,567.915,1703.175,567.915
					z"/>
				<path class="st14" d="M1692.362,573.572c-1.79-0.391-3.433-1.22-4.83-2.378c-0.422-0.349-0.82-0.727-1.193-1.133
					c-0.073-0.079-0.144-0.159-0.215-0.24c-0.207-0.948-0.345-1.566-0.353-1.606l-0.001-0.002c0,0,1.462-1.036,6.634-2.525
					c0,0,0,0.001,0,0.003C1692.405,565.819,1692.408,569.398,1692.362,573.572z"/>
				<path class="st28" d="M1695.149,567.831c-0.048,1.162-0.053,3.417-0.036,5.989c-0.129,0.005-0.258,0.007-0.388,0.007
					c-0.382,0-0.76-0.02-1.133-0.058c0.227-3.173,0.61-5.156,0.785-5.941c0.057-0.257,0.092-0.385,0.092-0.385l0.693,0.124
					C1695.157,567.647,1695.153,567.736,1695.149,567.831z"/>
				<g>
					<path class="st14" d="M1703.771,569.281c-0.404,0.519-0.846,1.001-1.32,1.444c-0.136,0.126-0.274,0.25-0.415,0.369l0.929-3.311
						l0.001-0.001c0.004,0.003,0.007,0.005,0.011,0.008c0.057,0.04,0.116,0.106,0.18,0.196
						C1703.339,568.243,1703.548,568.695,1703.771,569.281z"/>
				</g>
				<g>
					<path class="st14" d="M1686.339,570.061c-0.073-0.079-0.144-0.159-0.215-0.24c-0.265-0.302-0.515-0.618-0.75-0.947
						c0.133-0.344,0.266-0.575,0.396-0.661l0.001,0.002L1686.339,570.061z"/>
				</g>
			</g>
		</g>
		<g>
			<g>
				<path class="st29" d="M1730.997,495.651c-1.023,0.015-2.002-0.301-2.788-0.907c-0.891-0.687-1.43-1.664-1.519-2.751
					c-0.318-2.126-1.12-4.277-1.756-5.743c-2.602-1.854-4.178-4.954-4.222-8.318c-0.072-5.587,4.083-10.195,9.262-10.273
					c5.179-0.078,9.451,4.404,9.523,9.991c0.039,3.042-1.17,5.902-3.32,7.87c-0.528,2.115-0.791,4.03-0.782,5.693
					c0.162,2.224-1.648,4.205-4.042,4.419C1731.234,495.643,1731.115,495.649,1730.997,495.651z M1729.985,468.488
					c-4.755,0.071-8.57,4.302-8.504,9.432c0.04,3.125,1.521,6.003,3.962,7.698l0.092,0.064l0.047,0.107
					c0.665,1.519,1.53,3.808,1.869,6.087l0.004,0.031c0.065,0.847,0.491,1.615,1.201,2.162c0.729,0.562,1.664,0.824,2.634,0.737
					c1.977-0.177,3.475-1.766,3.338-3.541l-0.001-0.016v-0.016c-0.011-1.775,0.272-3.813,0.84-6.058l0.032-0.127l0.094-0.084
					c2.03-1.809,3.172-4.471,3.136-7.304C1738.663,472.532,1734.741,468.417,1729.985,468.488z"/>
			</g>
			<g>
				<polygon class="st29" points="1728.976,492.377 1726.835,481.498 1729.119,483.189 1730.306,481.483 1731.568,482.853 
					1733.403,480.845 1733.113,491.978 1732.345,491.954 1732.58,482.926 1731.57,484.031 1730.387,482.747 1729.291,484.322 
					1727.986,483.356 1729.728,492.205 				"/>
			</g>
			<g>
				<polygon class="st29" points="1734.811,497.214 1728.171,497.809 1727.949,494.923 1734.589,494.328 				"/>
			</g>
			<g>
				<polygon class="st29" points="1735.787,495.93 1727.012,496.716 1726.655,492.07 1735.429,491.284 				"/>
			</g>
		</g>
		<polygon class="st29" points="1740.65,521.722 1740.933,528.303 1743.355,528.181 1742.879,517.141 1732.427,517.666 
			1732.54,520.278 1738.858,519.961 1727.721,533.147 1716.133,521.759 1714.5,523.692 1727.88,536.841 		"/>
	</g>
	<rect y="712.017" class="st30" width="1800" height="7.863"/>
	<g class="st31">
		<g>
			<linearGradient id="SVGID_1_" gradientUnits="userSpaceOnUse" x1="47.0136" y1="369.7439" x2="233.1314" y2="369.7439">
				<stop  offset="0" style="stop-color:#04BBB1"/>
				<stop  offset="0.9553" style="stop-color:#AFE8FE"/>
			</linearGradient>
			<path class="st32" d="M67.156,400.584c2.859,6.956,6.644,13.368,11.175,19.111l-6.645,14.124l13.417,10.201l13.417,10.201
				l11.519-10.419c6.707,2.802,13.84,4.69,21.229,5.525l5.151,14.738l16.604-2.403l16.603-2.403l0.875-15.61
				c6.863-2.897,13.189-6.734,18.855-11.326l13.935,6.735l10.064-13.599l10.064-13.599l-10.28-11.675
				c2.764-6.798,4.628-14.027,5.451-21.517l14.541-5.221l-2.371-16.829l-2.371-16.829l-15.402-0.887
				c-2.858-6.956-6.644-13.368-11.174-19.111l6.645-14.125l-13.417-10.201l-13.417-10.201l-11.519,10.419
				c-6.707-2.802-13.84-4.69-21.229-5.525l-5.151-14.738l-16.604,2.403l-16.603,2.403l-0.875,15.61
				c-6.863,2.897-13.19,6.734-18.855,11.326l-13.936-6.735L66.79,314.028l-10.064,13.599l10.28,11.675
				c-2.764,6.798-4.628,14.027-5.451,21.517l-14.541,5.22l2.371,16.829l2.371,16.829L67.156,400.584z M131.765,310.775
				c32.132-4.65,61.899,17.981,66.487,50.549c4.588,32.568-17.741,62.738-49.872,67.389c-32.132,4.65-61.899-17.982-66.487-50.549
				C77.305,345.596,99.633,315.425,131.765,310.775z"/>
		</g>
		<g>
			<linearGradient id="SVGID_2_" gradientUnits="userSpaceOnUse" x1="57.9464" y1="69.241" x2="143.2711" y2="69.241">
				<stop  offset="0" style="stop-color:#40D5E6"/>
				<stop  offset="1" style="stop-color:#A7E6FB"/>
			</linearGradient>
			<path class="st33" d="M67.181,83.38c1.311,3.189,3.046,6.129,5.123,8.761l-3.046,6.475l6.151,4.677l6.151,4.676l5.281-4.777
				c3.075,1.285,6.345,2.15,9.732,2.533l2.362,6.757l7.612-1.102l7.612-1.102l0.401-7.156c3.146-1.329,6.047-3.087,8.644-5.193
				l6.389,3.088l4.614-6.234l4.614-6.235l-4.713-5.352c1.267-3.117,2.122-6.431,2.499-9.864l6.666-2.393l-1.087-7.715l-1.087-7.715
				l-7.061-0.407c-1.31-3.189-3.046-6.128-5.123-8.761l3.047-6.475l-6.151-4.676l-6.151-4.677l-5.281,4.777
				c-3.075-1.285-6.345-2.15-9.732-2.533L102.284,26l-7.612,1.102l-7.612,1.102l-0.401,7.156c-3.146,1.328-6.047,3.087-8.644,5.192
				l-6.389-3.088l-4.614,6.234l-4.614,6.234l4.713,5.352c-1.267,3.117-2.122,6.431-2.499,9.864l-6.666,2.393l1.087,7.715
				l1.087,7.715L67.181,83.38z M96.8,42.207c14.731-2.132,28.377,8.244,30.48,23.174c2.103,14.93-8.133,28.762-22.864,30.894
				c-14.731,2.132-28.377-8.243-30.48-23.174C71.833,58.171,82.07,44.339,96.8,42.207z"/>
		</g>
		<g>
			<g>
				<path class="st12" d="M581.394,434.006c0,0,41.076-13.528,44.414-12.018c3.338,1.51,3.788,3.895-0.01,5.329
					c-3.798,1.433-39.386,14.279-39.386,14.279s50.756-7.414,53.772-6.829c1.767,0.343,2.899,4.894,0.924,5.859
					c-1.975,0.965-52.023,11.366-52.023,11.366s47.398-6.832,49.749-5.531c2.056,1.138,2.102,5.642-1.392,6.405
					c-3.494,0.763-47.266,9.743-47.266,9.743s34.689-2.67,36.013-0.289c0.81,1.457,1.964,5.332-6.995,5.724
					c-8.959,0.392-30.105,3.68-30.105,3.68L581.394,434.006z"/>
			</g>
			<g>
				<g>
					<path class="st12" d="M536.134,457.323c0,0,13.292-5.355,14.245-13.856c0.811-7.229,6.73-16.193,8.548-18.956
						c2.432-3.696,6.061-17.809,10.32-14.8c4.26,3.009-4.945,23.521-6.086,28.194c-1.142,4.672,17.001-5.286,21.539-4.386
						c4.539,0.9,16.898,33.149,3.772,38.482c-13.126,5.333-30.044,1.943-32.199,3.362c-2.156,1.418-9.424,4.276-9.424,4.276
						L536.134,457.323z"/>
				</g>
			</g>
			<g>
				<path class="st34" d="M375.903,699.016c0.297,3.895,0.618,7.607,0.915,10.923H186.612c0.069-3.247,0.16-6.934,0.229-10.923
					c0.641-32.143,1.579-84.833,1.167-104.73c-0.526-28.409-6.43-102.225-7.597-106.492c0,0-41.734-61.456-85.505,59.856
					c-9.038,24.999,73.813,87.638,63.516,89.563c-10.273,1.902-9.861,21.73-9.861,21.73s-78.023-68.877-76.421-89.169
					c0.892-11.271,61.983-175.045,71.319-181.816c6.361-4.638,46.31-20.872,67.017-28.826c9.587-3.711,16.886-6.285,18.396-6.378
					c4.736-0.302,63.173,5.38,63.173,5.38s8.374,2.899,16.954,6.888c14.621,6.795,37.41,17.44,53.746,25.325
					c5.286,2.551,11.898,5.983,17.389,8.929c-0.663,20.129-1.853,41.72-3.524,64.795c0,0-3.043,50.394-3.318,101.298
					c-2.631,11.525-2.173,38.311-2.173,38.311c-0.732,25.394,2.059,51.46,2.791,66.025
					C374.369,678.816,375.125,689.485,375.903,699.016z"/>
			</g>
			<g>
				<path class="st14" d="M384.117,699.016c-2.746-18.02-5.354-36.782-7.505-54.731v-0.139c-0.343-2.922-0.686-5.82-1.03-8.697
					c0-0.139-0.023-0.301-0.046-0.44c-1.373-12.152-2.494-23.771-3.317-34.415c-0.618-8.164-0.069-16.117,1.052-23.933
					c3.249-54.429,4.874-111.827,4.874-111.827c1.716-23.515,2.7-45.454,3.363-65.931c0,0-73.378-35.134-80.036-37.152
					c0,0,13.911,33.117,24.345,107.166c4.027,28.432,11.463,76.298,16.863,125.161c2.128,19.271,5.629,38.775,8.969,57.142
					c3.157,17.324,6.178,33.65,7.802,47.797c0.115,0.857,0.206,1.716,0.298,2.574c0.252,2.435,0.549,5.241,0.892,8.349h25.169
					C385.238,706.344,384.666,702.68,384.117,699.016z"/>
			</g>
			<g>
				<path class="st14" d="M254.865,612.421c-3.34,32.838-7.001,59.415-9.953,86.595c-0.389,3.617-0.778,7.258-1.144,10.923h-77.176
					c1.007-3.618,1.991-7.259,2.929-10.923c8.283-31.656,14.895-63.961,14.895-83.557c0,0-16.062-117.067-21.439-135.922
					c0,0-48.575,36.41-59.924,61.618c-10.159,22.542,64.272,91.395,63.402,93.714c-5.057,13.567-24.436,38.358-24.436,38.358
					S26.769,547.765,28.301,532.297c1.098-11.247,97.723-136.293,107.035-143.065c5.4-3.919,45.304-18.251,64.889-26.09
					c3.592-1.438,15.261-5.891,18.465-7.12c4.141,4.684,33.337,36.526,43.45,157.536
					C263.857,533.966,258.48,577.148,254.865,612.421z"/>
			</g>
			<g>
				<path class="st24" d="M234.266,359.05c0,0-0.401-20.334-8.133-61.47c-2.068-11.012,63.073,28.975,63.073,28.975
					s-0.201,3.857-0.332,9.066c-0.07,2.751-0.113,5.873-0.096,9.004c0.009,1.105,0.018,2.202,0.044,3.29
					c0.061,2.91,0.192,5.696,0.436,8.066c0.244,2.441,1.667,6.749,2.173,7.934C294.119,370.195,256.203,374.962,234.266,359.05z"/>
			</g>
			<path class="st35" d="M274.925,380.355l10.798,14.704c0,0-6.326,8.587-17.561,2.248L274.925,380.355z"/>
			<path class="st35" d="M282.835,395.656c0,0,40.953,159.813,32.512,284.213l-13.779,24.612l-12.897-25.783
				c0,0-3.533-222.517-14.762-283.434L282.835,395.656z"/>
			<path class="st24" d="M286.487,366.646l-11.562,13.709c0,0-18.555-3.643-24.003-13.467
				C245.473,357.064,286.487,366.646,286.487,366.646z"/>
			<path class="st36" d="M289.139,354.648c0,0-1.343,10.45-14.214,25.707l14.049,19.131l7.603-39.686L289.139,354.648z"/>
			<path class="st36" d="M233.197,344.705c0,0,22.966,28.132,41.727,35.65l-8.726,21.874l-43.665-47.581L233.197,344.705z"/>
			<g>
				<path class="st14" d="M570.649,480.147c0,0-98.977,108.989-122.334,103.165c-10.797-2.691-27.153-21.584-40.668-39.345
					c-4.455-5.849-8.824-11.988-12.981-18.063c-0.012-0.012-0.012-0.025-0.012-0.025c-16.581-24.264-29.574-47.523-29.574-47.523
					s-49.01-58.215-9.681-84.165c0,0,16.574-1.695,26.002,5.354c8.705,6.508,29.883,47.49,33.321,55.088
					c3.438,7.585,30.183,61.15,32.677,62.735c2.496,1.585,28.761-14.396,42.802-23.974c22.688-15.478,51.194-42.454,51.194-42.454
					L570.649,480.147z"/>
			</g>
			<g>
				<path class="st12" d="M323.508,225.331c0,0,14.311,26.892,7.218,31.074c-5.861,3.455,6.867,29.846,8.532,34.158
					c1.665,4.312-10.616,7.445-13.224,10.22c-2.608,2.775-10.342,36.922-20.456,37.952c-10.114,1.03-55.69-15.035-68.1-28.113
					c-12.41-13.078-22.593-72.152-14.309-97.069C231.451,188.634,298.25,178.353,323.508,225.331z"/>
			</g>
			<g>
				<path class="st37" d="M326.364,231.158c0,0,14.609-29.042-11.926-50.587c-26.535-21.545-75.465,16.267-80.979,17.709
					c-5.515,1.442-36.803,3.62-21.005,59.304c13.566,47.814,15.461,49.826,15.461,49.826s10.124-27.7,15.862-31.922
					c8.96-6.593,28.605-5.01,28.605-5.01s-9.361-25.189,5.268-28.756C292.279,238.156,311.564,225.589,326.364,231.158z"/>
			</g>
			<g>
				<path class="st12" d="M256.799,256.055c-1.29-3.455-5.462-18.305-18.034-9.584c-12.572,8.72,7.833,36.708,10.025,37.069
					C250.981,283.901,267.656,285.129,256.799,256.055z"/>
			</g>
			<path class="st38" d="M288.778,344.625c0.009,1.105,0.018,2.202,0.044,3.29c-37.261-12.674-44.478-31.752-44.478-31.752
				c11.623,8.332,44.53,19.458,44.53,19.458C288.805,338.372,288.761,341.494,288.778,344.625z"/>
			<path class="st12" d="M153.008,634.463c0,0,3.526,2.996,7.262,2.964c6.451-0.056,13.795-7.163,20.538-0.707
				c6.743,6.455-7.452,33.91-12.565,37.127c-5.113,3.217-16.733-2.565-29.169-17.798
				C126.639,640.815,153.008,634.463,153.008,634.463z"/>
			<path class="st12" d="M178.228,634.881c0,0,13.048,4.544,26.955,11.421c12.2,6.034,26.515,15.248,25.055,18.379
				c-2.217,4.754-13.099-4.162-25.593-9.313c-11.503-4.741-10.024-1.831-10.024-1.831s-0.376-0.852,11.162,6.814
				c12.405,8.243,25.389,17.623,24.242,20.211c-1.423,3.207-1.867,3.484-6.855,1.248c2.593,1.917,2.441,2.918,1.753,4.103
				c-3.563,6.134-23.658-3.064-31.637-6.719c6.112,2.846,10.296,5.606,5.723,7.932c-5.231,2.66-33.061-11.66-43.516-15.807
				C144.087,666.796,178.228,634.881,178.228,634.881z"/>
			<path class="st14" d="M166.457,634.881c0,0-2.836,16.829-24.434,38.35c0,0-49.503-55.351-58.334-65.714l38.734-22.778
				L166.457,634.881z"/>
		</g>
		<linearGradient id="SVGID_3_" gradientUnits="userSpaceOnUse" x1="377.9321" y1="280.7745" x2="422.5211" y2="280.7745">
			<stop  offset="0" style="stop-color:#04BBB1"/>
			<stop  offset="0.9553" style="stop-color:#AFE8FE"/>
		</linearGradient>
		<path class="st39" d="M393.247,303.372h13.958c8.458,0,15.315-6.857,15.315-15.315v-14.563c0-8.458-6.857-15.315-15.315-15.315
			h-13.958c-8.459,0-15.316,6.857-15.316,15.316v14.563C377.932,296.515,384.789,303.372,393.247,303.372z"/>
		<g class="st40">
			<path class="st41" d="M588.73,212.356H443.956c-2.627,0-4.757-2.13-4.757-4.757v-4.523c0-2.627,2.129-4.756,4.756-4.756H588.73
				c2.627,0,4.756,2.129,4.756,4.756v4.523C593.486,210.227,591.357,212.356,588.73,212.356z"/>
			<path class="st41" d="M610.24,235.049H443.956c-2.627,0-4.757-2.13-4.757-4.757v-4.523c0-2.627,2.129-4.756,4.756-4.756H610.24
				c2.627,0,4.756,2.129,4.756,4.756v4.523C614.997,232.919,612.867,235.049,610.24,235.049z"/>
		</g>
		<linearGradient id="SVGID_4_" gradientUnits="userSpaceOnUse" x1="377.9321" y1="216.6847" x2="422.5211" y2="216.6847">
			<stop  offset="0" style="stop-color:#04BBB1"/>
			<stop  offset="0.9553" style="stop-color:#AFE8FE"/>
		</linearGradient>
		<path class="st42" d="M393.248,239.282h13.958c8.459,0,15.315-6.857,15.315-15.315v-14.563c0-8.459-6.857-15.316-15.316-15.316
			h-13.958c-8.459,0-15.316,6.857-15.316,15.316v14.563C377.932,232.425,384.789,239.282,393.248,239.282z"/>
		<g class="st40">
			<path class="st41" d="M550.407,276.447H443.957c-2.627,0-4.757-2.13-4.757-4.757v-4.523c0-2.627,2.129-4.756,4.756-4.756h106.452
				c2.627,0,4.756,2.129,4.756,4.756v4.523C555.164,274.317,553.034,276.447,550.407,276.447z"/>
			<path class="st41" d="M577.078,299.139H443.956c-2.627,0-4.757-2.13-4.757-4.757v-4.523c0-2.627,2.13-4.757,4.757-4.757h133.122
				c2.627,0,4.757,2.13,4.757,4.757v4.523C581.835,297.009,579.706,299.139,577.078,299.139z"/>
		</g>
		<g class="st40">
			<path class="st41" d="M602.693,340.536H443.956c-2.627,0-4.757-2.13-4.757-4.757v-4.523c0-2.627,2.13-4.757,4.757-4.757h158.737
				c2.627,0,4.757,2.13,4.757,4.757v4.523C607.45,338.407,605.32,340.536,602.693,340.536z"/>
			<path class="st41" d="M588.729,363.229H443.956c-2.627,0-4.757-2.13-4.757-4.757v-4.523c0-2.627,2.129-4.756,4.756-4.756H588.73
				c2.627,0,4.756,2.13,4.756,4.756v4.523C593.486,361.099,591.357,363.229,588.729,363.229z"/>
		</g>
		<linearGradient id="SVGID_5_" gradientUnits="userSpaceOnUse" x1="377.9321" y1="344.8645" x2="422.5211" y2="344.8645">
			<stop  offset="0" style="stop-color:#04BBB1"/>
			<stop  offset="0.9553" style="stop-color:#AFE8FE"/>
		</linearGradient>
		<path class="st43" d="M393.248,367.462h13.958c8.459,0,15.316-6.857,15.316-15.316v-14.563c0-8.459-6.857-15.316-15.316-15.316
			h-13.958c-8.458,0-15.315,6.857-15.315,15.315v14.563C377.932,360.604,384.789,367.462,393.248,367.462z"/>
		<g>
			<g>
				<g>
					<g>
						<g>
							<path class="st44" d="M398.705,291.697l-12.374-10.897c-1.015-0.894-1.122-2.452-0.241-3.48
								c0.882-1.028,2.419-1.137,3.434-0.244l8.75,7.706l12.436-14.107c0.896-1.016,2.434-1.104,3.436-0.196
								c1.003,0.908,1.089,2.467,0.194,3.483L398.705,291.697z"/>
						</g>
					</g>
				</g>
			</g>
		</g>
		<g>
			<g>
				<g>
					<g>
						<g>
							<path class="st44" d="M398.705,355.787l-12.374-10.897c-1.015-0.894-1.122-2.452-0.241-3.48
								c0.882-1.028,2.419-1.137,3.434-0.244l8.75,7.706l12.436-14.107c0.896-1.016,2.434-1.104,3.436-0.196
								c1.003,0.908,1.089,2.467,0.194,3.483L398.705,355.787z"/>
						</g>
					</g>
				</g>
			</g>
		</g>
		<g>
			<path class="st44" d="M399.396,222.195l-0.076-0.994c-0.226-2.065,0.453-4.321,2.339-6.614c1.697-2.026,2.64-3.518,2.64-5.238
				c0-1.95-1.207-3.25-3.584-3.288c-1.358,0-2.867,0.459-3.81,1.185l-0.905-2.409c1.245-0.918,3.395-1.529,5.394-1.529
				c4.338,0,6.3,2.715,6.3,5.62c0,2.6-1.434,4.473-3.244,6.653c-1.66,1.988-2.263,3.67-2.15,5.62l0.038,0.994H399.396z
				 M398.566,227.548c0-1.415,0.943-2.409,2.263-2.409c1.32,0,2.226,0.994,2.226,2.409c0,1.338-0.868,2.37-2.263,2.37
				C399.472,229.918,398.566,228.886,398.566,227.548z"/>
		</g>
		<g>
			<g>
				<path class="st45" d="M328.832,142.457c-2.638-0.815-4.91-2.393-6.465-4.51c-1.764-2.4-2.403-5.204-1.802-7.899
					c0.802-5.393,0.383-11.249-0.132-15.314c-5.267-6.639-6.95-15.428-4.499-23.576c4.071-13.533,18.246-21.186,31.598-17.059
					c13.352,4.126,20.902,18.493,16.831,32.027c-2.216,7.367-7.498,13.259-14.518,16.213c-2.965,4.662-5.099,9.06-6.344,13.079
					c-1.279,5.498-7.433,8.767-13.741,7.29C329.446,142.635,329.136,142.551,328.832,142.457z M346.928,76.107
					c-12.26-3.789-25.275,3.238-29.013,15.663c-2.277,7.57-0.668,15.744,4.306,21.865l0.188,0.232l0.039,0.298
					c0.55,4.218,1.025,10.458,0.159,16.236l-0.015,0.079c-0.478,2.097,0.032,4.303,1.436,6.213c1.442,1.962,3.644,3.373,6.198,3.97
					c5.211,1.22,10.265-1.363,11.267-5.758l0.009-0.039l0.012-0.038c1.324-4.291,3.603-8.97,6.772-13.909l0.179-0.279l0.304-0.123
					c6.587-2.672,11.549-8.14,13.614-15.003C366.12,93.088,359.188,79.896,346.928,76.107z"/>
			</g>
			<g>
				<polygon class="st45" points="326.139,132.879 328.932,104.857 333.505,110.838 337.851,107.713 340.048,112.068 
					346.288,108.754 337.061,135.36 335.107,134.664 342.589,113.088 339.156,114.912 337.096,110.829 333.084,113.714 
					330.471,110.297 328.2,133.089 				"/>
			</g>
			<g>
				<polygon class="st45" points="337.43,149.404 319.935,145.308 321.564,138.162 339.059,142.258 				"/>
			</g>
			<g>
				<polygon class="st45" points="340.914,147.12 317.793,141.707 320.414,130.204 343.536,135.617 				"/>
			</g>
		</g>
		<g>
			<g>
				<g>
					<g>
						<g>
							<polygon class="st45" points="474.221,97.262 467.006,98.672 477.6,154.332 484.815,152.921 							"/>
						</g>
					</g>
				</g>
			</g>
			<g>
				<g>
					<g>
						<g>
							<polygon class="st45" points="461.152,106.286 453.936,107.698 463.344,157.119 470.559,155.708 							"/>
						</g>
					</g>
				</g>
			</g>
			<g>
				<g>
					<g>
						<g>
							<polygon class="st45" points="447.208,117.429 439.992,118.84 447.855,160.148 455.07,158.737 							"/>
						</g>
					</g>
				</g>
			</g>
			<g>
				<g>
					<g>
						<g>
							<polygon class="st45" points="433.248,130.77 426.033,132.181 431.948,163.258 439.164,161.848 							"/>
						</g>
					</g>
				</g>
			</g>
		</g>
	</g>
	<g class="st31">
		<path class="st12" d="M1481.854,712.217h-3.806c0,0,1.269-14.374-2.255-14.515c-3.52-0.141-12.257,11.695-17.473,13.529
			c-5.213,1.831-31.985,3.379-32.126-1.551c-0.141-4.93,10.285-6.906,13.526-8.313c3.241-1.409,19.025-16.77,21.842-18.6
			c2.82-1.834,7.628-14.569,7.628-14.569l14.946-0.664c0,0,0.844,11.905,1.75,18.208c0.337,2.332,0.581,4.455,0.617,5.903
			C1486.643,696.998,1481.854,712.217,1481.854,712.217z"/>
		<path class="st12" d="M1547.98,709.375h-3.171v-13.379c-2.641,0.221-11.521,8.625-14.27,11.057
			c-2.745,2.429-6.515,2.321-18.089,3.057c-11.571,0.736-12.663-6.192-10.832-8.551c1.831-2.358,7.751-3.39,10.832-4.862
			c3.081-1.475,15.237-15.183,18.479-18.425c3.239-3.243,5.214-12.529,5.214-12.529l13.527,1.179c0,0-0.087,8.497,1.455,15.623
			v0.003c0.007,0.017,0.01,0.037,0.013,0.054c0.131,0.608,0.275,1.203,0.433,1.784
			C1553.581,691.796,1547.98,709.375,1547.98,709.375z"/>
		<path class="st46" d="M1497.961,406.133c0,0-5.113,12.089-5.564,15.143c-0.451,3.054-16.48,42.96-17.595,54.636
			c-1.128,11.806-4.511,43.312-5.715,47.823c-1.203,4.512,2.707,24.664,3.308,29.176c0.601,4.511,0.301,78.201-5.113,114.595
			c0,0,12.633,5.414,22.257,0c0,0,15.941-56.847,15.039-89.631c-0.902-32.785-5.061-46.62,0.026-59.854
			c5.087-13.234,34.864-52.936,37.872-57.148c3.008-4.211,21.851-27.481,4.008-52.691
			C1528.64,382.973,1497.961,406.133,1497.961,406.133z"/>
		<path class="st46" d="M1562.373,513.214c-1.632,10.853,0.084,25.111,3.492,64.797c3.413,39.68-5.966,87.732-5.966,87.732
			c-11.779,4.031-25.344,0-25.344,0c0.312-2.791,0-96.725,0-105.096s-2.404-17.871-3.023-27.478
			c-0.423-6.548-3.469-18.619-6.896-30.943c-1.028-3.692-2.088-7.404-3.12-10.998c0-0.004,0-0.004,0-0.004
			c-0.581-2.013-1.149-3.995-1.702-5.911c-4.827-16.74-11.319-81.383-11.319-81.383s35.979-28.98,53.496-1.697
			c17.517,27.278,8.524,47.121,7.906,50.529C1569.279,456.174,1564.006,502.365,1562.373,513.214z"/>
		<path class="st47" d="M1547.455,454.914c-0.279,0.618-18.205,40.41-22.819,47.311c-1.028-3.692-2.088-7.404-3.12-10.998
			c0-0.004,0-0.004,0-0.004S1546.856,455.788,1547.455,454.914z"/>
		<path class="st48" d="M1547.98,709.375h-3.171v-13.379c-2.641,0.221-11.521,8.625-14.27,11.057
			c-2.745,2.429-6.515,2.321-18.089,3.057c-11.571,0.736-12.663-6.192-10.832-8.551c1.831-2.358,7.751-3.39,10.832-4.862
			c12.381,0.662,27.49-16.745,34.741-16.709c3.853,0.019,3.817,2.154,3.935,2.557v0.003c0.007,0.017,0.01,0.037,0.013,0.054
			c0.131,0.608,0.275,1.203,0.433,1.784C1553.581,691.796,1547.98,709.375,1547.98,709.375z"/>
		<path class="st48" d="M1481.854,712.217h-3.806c0,0,1.269-14.374-2.255-14.515c-3.52-0.141-12.257,11.695-17.473,13.529
			c-5.213,1.831-31.985,3.379-32.126-1.551c-0.141-4.93,10.285-6.906,13.526-8.313c11.043-0.025,29.001-12.18,34.571-14.643
			c5.566-2.464,11.595-0.983,11.595-0.983c0.337,2.332,0.581,4.455,0.617,5.903C1486.643,696.998,1481.854,712.217,1481.854,712.217
			z"/>
		<g>
			<path class="st49" d="M1472.441,474.99h-25.108c-2.55,0-4.624-2.074-4.624-4.624v-15.833c0-2.55,2.074-4.624,4.624-4.624h25.108
				c2.55,0,4.625,2.074,4.625,4.624v15.833C1477.066,472.916,1474.991,474.99,1472.441,474.99z M1447.333,453.012
				c-0.839,0-1.521,0.682-1.521,1.521v15.833c0,0.839,0.682,1.521,1.521,1.521h25.108c0.839,0,1.521-0.683,1.521-1.521v-15.833
				c0-0.839-0.682-1.521-1.521-1.521H1447.333z"/>
		</g>
		<g>
			<rect x="1412.786" y="468.194" class="st49" width="94.202" height="67.492"/>
		</g>
		<path class="st7" d="M1576.231,435.448l-15.255-3.676c0,0,2.654-53.809,11.823-76.6c0.08-0.2,0.418,0.072,0.618,0.108
			c-0.088-0.514-0.182-1.027-0.276-1.541c-0.194-1.07-0.394-2.14-0.6-3.198c-2.33-12.127-5.019-22.718-5.019-22.718
			s-19.241-48.422,4.16-44.638c0,0,12.109,6.789,14.739,22.277c2.63,15.482,5.306,38.289,4.829,47.387
			c-0.477,9.092-3.063,19.96-5.36,30.859C1585.888,383.709,1576.844,432.181,1576.231,435.448z"/>
		<path class="st12" d="M1529.727,254.381c0,0,5.741,15.189,1.276,26.928c0,0,21.05-1.368,21.848-3.826
			c0.798-2.458-0.846-25.215,2.049-31.941C1557.795,238.816,1529.727,254.381,1529.727,254.381z"/>
		<path class="st7" d="M1527.694,276.172c0,0-12.439,4.424-18.06,5.653c-5.622,1.229-17.382,6.8-16.426,27.772
			c0.957,20.972,4.465,39.158,5.741,48.17c1.276,9.011,0.479,31.95-1.595,43.091c0,0,29.822,7.537,64.906,0
			c0,0-6.219-19.005-6.06-23.921c0.16-4.915,20.732-45.384,21.689-51.774c0.956-6.39,5.103-34.571-4.306-40.797
			c-9.409-6.226-17.063-5.407-21.05-8.192C1548.545,273.387,1533.512,274.173,1527.694,276.172z"/>
		<path class="st7" d="M1575.692,433.814c-50.95,13.516-91.495,0.051-91.495,0.051c3.697-7.599,6.417-15.18,8.386-22.522
			c0-0.003,0.003-0.003,0.003-0.006c1.394-5.186,2.411-10.249,3.137-15.113v-0.003c4.141-27.757-1.259-49.011-1.259-49.011
			c5.881-48.402,79.117-62.847,84.983-47.504c5.865,15.342-11.367,81.276-12.24,86.931
			C1566.334,392.288,1575.692,433.814,1575.692,433.814z"/>
		<path class="st12" d="M1548.075,193.441c-8.463-2.903-31.337-5.994-37.197,29.118c-5.86,35.112,6.903,35.715,20.015,34.716
			c13.112-0.998,33.622-24.699,35.192-31.903C1567.656,218.168,1572.221,201.724,1548.075,193.441z"/>
		<path class="st50" d="M1515.592,206.926c0,0,6.987,14.948,16.152,20.157c0,0,5.741,15.884,18.176,22.307
			c0,0,32.996-21.857,13.849-47.832C1544.623,175.584,1517.752,196.268,1515.592,206.926z"/>
		<path class="st12" d="M1530.934,221.901c0.742-1.826,5.687-4.797,7.905,0.214c2.218,5.011-5.746,13.84-7.927,13.364
			C1528.73,235.003,1528.117,228.833,1530.934,221.901z"/>
		<path class="st50" d="M1562.653,205.573c0.722-1.126,22.57-11.241,27.116,9.895c4.545,21.136-17.597,45.713-21.476,56.281
			c-3.88,10.568,1.753,35.337,1.753,35.337s-13.324-12.594-17.354-25.777C1548.265,266.833,1546.779,230.33,1562.653,205.573z"/>
		<path class="st51" d="M1563.755,204.851c0,0-6.688,5.292-7.552,13.641c0,0-1.255-6.512,1.443-10.492
			C1560.343,204.02,1563.755,204.851,1563.755,204.851z"/>
		<path class="st12" d="M1448.256,442.055c0,0-1.086,4.477-1.758,6.747c-0.673,2.269-1.087,5.039,0.503,6.236
			c1.59,1.197,5.012,5.301,7.321,7.178c2.309,1.878,15.413-3.803,16.871-6.036c1.458-2.234-1.401-14.751-5.395-17.25
			c-3.994-2.5-10.005-6.011-10.005-6.011L1448.256,442.055z"/>
		<path class="st7" d="M1506.115,282.974c0,0-17.447,6.915-18.48,31.164c-1.033,24.249-1.981,36.908-2.928,40.651
			c-0.947,3.742-2.757,18.786-7.147,27.838c-4.26,8.782-22.55,51.41-22.55,51.41l15.914,9.221c0,0,26.923-50.442,29.291-57.592
			c2.368-7.15,12.111-56.91,12.887-65.299C1513.727,313.605,1522.645,283.477,1506.115,282.974z"/>
		<path class="st7" d="M1505.405,364.22c0,0-9.151,1.777-19.912-4.352c0,0-4.857,16.265-7.932,22.759
			c-2.759,5.824-22.55,51.41-22.55,51.41l15.914,9.221c0,0,26.972-48.72,29.291-57.592
			C1502.533,376.793,1505.405,364.22,1505.405,364.22z"/>
		<path class="st52" d="M1492.586,411.337c1.394-5.186,2.411-10.249,3.137-15.113v-0.003c0,0,3.357-7.143,4.49-10.555
			c1.136-3.412,9.569-45.373,9.569-45.373S1518.707,379.701,1492.586,411.337z"/>
		<path class="st52" d="M1577.344,338.711c0,0-10.087,46.484-10.137,47.926c-0.049,1.441,2.848,20.425,3.714,24.7L1577.344,338.711z
			"/>
	</g>
	<g class="st31">
		<g>
			<g>
				<path class="st12" d="M1254.355,537.072c0,0,3.141,0.691,4.261-0.764c0.952-1.238,3.075-2.15,3.728-2.431
					c0.874-0.378,3.125-2.534,3.611-1.437c0.486,1.097-3.54,3.734-4.273,4.455c-0.734,0.722,3.846,1.173,4.618,1.915
					c0.772,0.742-0.406,8.285-3.513,7.611c-3.107-0.674-5.982-3.445-6.552-3.455c-0.57-0.01-2.28-0.401-2.28-0.401L1254.355,537.072
					z"/>
			</g>
		</g>
		<g>
			<g>
				<path class="st12" d="M1265.612,538.482c0,0,9.376,2.695,9.85,3.397c0.474,0.702,0.298,1.202-0.589,0.986
					c-0.887-0.215-9.134-2.341-9.134-2.341s10.561,5.054,11.075,5.545c0.301,0.287,0.018,1.274-0.468,1.203
					c-0.486-0.071-11.24-4.482-11.24-4.482s9.852,4.737,10.16,5.275c0.27,0.471-0.218,1.312-0.972,1.011
					c-0.755-0.301-10.147-4.18-10.147-4.18s6.953,3.898,6.946,4.508c-0.005,0.373-0.21,1.237-1.973,0.175
					c-1.763-1.062-6.185-3.13-6.185-3.13L1265.612,538.482z"/>
			</g>
		</g>
		<path class="st11" d="M1237.91,681.411c0,0,3.274,5.856,5.218,7.042c2.423,1.479,7.125,6.222,8.768,6.441
			c1.643,0.219,7.546,1.267,6.406,4.599c-0.934,2.732-15.017,2.34-16.605,0.971c-1.588-1.369-6.338-6.282-8.254-6.172
			c-1.917,0.11-1.205,7.086-1.205,7.086h-2.081c0,0-0.727-6.788-0.815-7.956c-0.26-3.454,2.204-5.996,2.314-7.967
			c0.109-1.971,0.222-3.442,0.222-3.442L1237.91,681.411z"/>
		<path class="st12" d="M1251.425,694.734c0,0-4.642,1.604-8.215-0.449c-3.573-2.053-10.429-5.171-12.853-5.193
			c0,0,1.322-4.044,1.349-4.496c0.028-0.453,0.173-2.582,0.173-2.582l5.994-0.961c0,0,3.888,5.708,5.602,7.052
			C1245.189,689.449,1249.578,692.802,1251.425,694.734z"/>
		<path class="st12" d="M1181.314,686.92c0,0,0.579,4.052,1.21,5.158c0.631,1.105,2.368,6.736,3.158,7.789
			c0.789,1.052,2.526,8.947,0,9.894c-2.526,0.948-8.473,2.526-10.473-0.631c-2-3.158-2.263-6.316-1.948-8.736
			c0.316-2.421,2.717-13.532,2.684-14.631C1175.913,684.664,1181.314,686.92,1181.314,686.92z"/>
		<path class="st11" d="M1184.675,697.68c0,0,0.271,6.134-4.36,6.134s-6.683-5.581-6.683-5.581s-1.578,2.739,0,8.581
			s8.157,4.631,9.63,4.421C1184.735,711.024,1191.719,709.177,1184.675,697.68z"/>
		<path class="st11" d="M1188.955,547.192c0,0-5.987,7.63-8.099,12.677c-2.113,5.048-5.634,16.111-5.165,24.68
			c0.469,8.569,3.287,24.65,2.465,28.289c-0.822,3.639-1.642,11.151-2.523,13.734s-4.402,10.095-4.755,17.842
			c-0.352,7.747,2.507,41.731,2.272,44.9c-0.235,3.169,10.255,1.232,10.255,1.232s0.267-30.638,1.441-35.92
			c1.174-5.282,2.582-23.242,3.639-24.533c1.056-1.291,4.021-14.91,4.212-17.131c0.184-2.152,12.742-39.379,13.446-45.718
			c0.704-6.339,16.43-20.052,16.43-20.052S1207.149,541.294,1188.955,547.192z"/>
		<path class="st11" d="M1227.957,683.091c-2.229-0.351-8.204-34.686-7.5-40.79c0.704-6.104,1.409-19.118-0.588-24.407
			c-1.309-3.472-9.491-21.137-14.996-33.539c-0.776-1.751-1.499-3.394-2.144-4.881c-1.747-4.035-2.902-6.895-2.932-7.485
			c-0.118-2.348-7.771-42.786,22.466-24.797c0,0,0.307,3.198,0.658,4.372c0.353,1.174,8.452,31.107,9.273,42.61
			c0.823,11.504,2.936,21.261,3.287,23.72c0.353,2.457-0.351,10.674-1.056,12.787c-0.704,2.113,4.579,49.818,4.932,50.992
			C1239.708,682.847,1230.186,683.442,1227.957,683.091z"/>
		<path class="st53" d="M1219.104,486.492c0,0,4.925,1.283,6.833,5.787c1.908,4.504,1.458,10.6,1.625,12.691
			c0.167,2.091,4.49,22.45,4.951,23.041c0.461,0.591,8.394,2.121,13.089,3.359c6.595,1.74,12.41,3.709,12.41,3.709l-2.635,8.657
			c0,0-30.168-6.304-31.77-9.291c-3.538-6.598-9.958-28.211-9.958-28.211S1207.464,489.178,1219.104,486.492z"/>
		<path class="st27" d="M1210.402,483.299c0,0,5.722,2.7,7.708,3.097c1.987,0.397,9.697,10.407,11.048,14.062
			c1.352,3.655,0.002,9.138-2.778,15.575c-2.78,6.437-0.157,8.582-1.427,15.018c-1.27,6.437-2.379,20.065-2.14,23.64
			c0.239,3.576-32.139,4.258-39.53-2.256c0,0,7.425-11.126,8.378-12.716c0.953-1.589,0.157-10.25-0.718-12.475
			c-0.875-2.225-10.025-20.123-10.025-20.123s-1.434-15.551,2.864-18.891c3.734-2.901,13.912-3.938,15.74-4.574
			C1201.351,483.022,1206.667,482.743,1210.402,483.299z"/>
		<path class="st54" d="M1212.233,496.052l3.475-4.072l-3.021-10.717C1212.687,481.263,1211.674,487.232,1212.233,496.052z"/>
		<path class="st12" d="M1213.131,476.696c0,0-1.139,10.496-0.9,13.913c0,0-5.943,5.959-12.708-6.951c0,0,2.844-5.322,0.701-12.573
			C1198.081,463.833,1213.131,476.696,1213.131,476.696z"/>
		<polygon class="st12" points="1212.231,490.609 1212.233,496.052 1205.39,490.941 		"/>
		<polygon class="st54" points="1212.233,496.052 1209.391,492.536 1199.82,483.002 1196.725,485.984 		"/>
		<path class="st53" d="M1201.242,559.846c-2.693,12.898-22.185-1.45-22.185-1.45s12.639-21.235,7.61-38.207
			c-0.04-0.135-0.08-0.269-0.12-0.402c-0.322-1.074-0.642-2.095-0.962-3.064c-4.617-14.035-8.762-17.313-8.762-17.313
			s5.856-12.885,11.291-13.723c5.434-0.839,10.377-1.773,10.377-1.773s8.033,12.183,8.417,17.547
			C1207.295,506.825,1203.936,546.948,1201.242,559.846z"/>
		<path class="st53" d="M1229.957,502.929c0,0,0.603,7.395-4.475,17.107c0,0,0.109,13.002,0.269,17.532
			c0.16,4.529,1.237,21.653,1.237,21.653l-5.579,3.269c-1.124,0.659-2.516-0.254-2.359-1.547
			c1.577-13.034,6.707-62.477-4.402-75.763l4.457,1.313C1219.104,486.492,1229.957,497.756,1229.957,502.929z"/>
		<polygon class="st55" points="1215.708,491.98 1220.089,493.189 1212.687,481.263 		"/>
		<polygon class="st55" points="1209.391,492.536 1205.391,497.782 1197.209,484.152 1199.82,483.002 		"/>
		<path class="st12" d="M1208.988,442.82c4.187-0.403,13.594,1.266,15.557,12.318c0,0-0.193,3.014-0.809,5.404
			c-0.615,2.39,1.825,9.235,1.291,9.604c-0.535,0.369-2.79,0.915-2.79,0.915s-2.087,7.704-4.754,7.766
			c-2.667,0.061-12.849-1.541-18.047-10.755C1194.238,458.858,1192.083,444.445,1208.988,442.82z"/>
		<path class="st37" d="M1224.545,455.138c0,0-6.591,4.968-13.307,6.227c-6.716,1.259-10.348,12.942-10.348,12.942
			s-11.264-16.928-3.462-27.768C1205.23,435.699,1225.401,442.106,1224.545,455.138z"/>
		<path class="st12" d="M1208.413,461.188c-0.099-1.307-1.649-3.202-3.708-1.312c-2.059,1.891,1.12,7.976,2.849,7.283
			C1209.282,466.466,1208.515,462.539,1208.413,461.188z"/>
		<path class="st38" d="M1213.146,478.212c-0.152,0.816-0.307,1.771-0.435,2.78c-5.635-3.213-8.589-7.305-8.589-7.305
			C1207.382,476.365,1213.146,478.212,1213.146,478.212z"/>
		<path class="st56" d="M1190.495,503.384c-0.292,7.625-3.948,16.404-3.948,16.404c-0.322-1.074-0.642-2.095-0.962-3.064
			C1187.644,510.966,1190.495,503.384,1190.495,503.384z"/>
		<linearGradient id="SVGID_6_" gradientUnits="userSpaceOnUse" x1="1259.1992" y1="537.7767" x2="1259.1992" y2="491.084">
			<stop  offset="0" style="stop-color:#FF9F55"/>
			<stop  offset="1" style="stop-color:#FFD255"/>
		</linearGradient>
		<path class="st57" d="M1309.724,530.501c13.357-18.278,6.72-45.858-14.824-61.603c-21.545-15.745-49.838-13.691-63.195,4.586
			c-3.516,4.812-5.646,10.268-6.484,15.983c-0.005,0.033-5.106,31.994-19.548,55.295c-7.541,10.319-3.794,25.89,8.369,34.779
			c12.163,8.889,28.137,7.73,35.678-2.589c17.823-20.848,46.746-35.419,46.746-35.419l0,0
			C1301.656,538.999,1306.208,535.313,1309.724,530.501z"/>
		
			<rect x="1231.186" y="496.119" transform="matrix(0.8727 0.4883 -0.4883 0.8727 414.3195 -534.4855)" class="st44" width="1.792" height="62.263"/>
		
			<rect x="1257.498" y="515.343" transform="matrix(-0.7305 -0.6829 0.6829 -0.7305 1804.5134 1805.0228)" class="st44" width="1.792" height="62.263"/>
		<polygon class="st44" points="1268.429,527.425 1266.967,518.036 1257.735,519.473 1256.322,510.397 1247.402,511.785 
			1245.871,501.944 1247.088,501.755 1248.43,510.379 1257.35,508.99 1258.762,518.066 1267.995,516.629 1269.457,526.018 
			1278.159,524.664 1278.348,525.881 		"/>
		
			<rect x="1189.135" y="574.688" transform="matrix(0.8074 0.59 -0.59 0.8074 577.7388 -601.9539)" class="st58" width="43.36" height="18.387"/>
		
			<rect x="1189.938" y="558.442" transform="matrix(0.8074 0.59 -0.59 0.8074 572.9594 -608.5914)" class="st25" width="57.305" height="29.6"/>
		<path class="st12" d="M1196.442,550.567c0,0,0.849,0.552,1.679,0.478c1.433-0.127,2.914-1.72,4.552-0.515
			c1.639,1.204-0.926,7.1-1.994,7.853c-1.068,0.753-3.776-0.225-6.87-3.13C1190.714,552.347,1196.442,550.567,1196.442,550.567z"/>
		<path class="st12" d="M1202.059,550.199c0,0,3,0.698,6.24,1.86c2.843,1.02,5.947,2.708,5.968,3.324
			c0.023,0.686-3.003-0.619-5.892-1.452c-2.66-0.767-2.269-0.195-2.269-0.195s-0.102-0.168,2.629,1.198
			c2.936,1.47,5.791,3.256,5.727,3.986c-0.031,0.355-0.24,0.478-1.398,0.108c0.618,0.347,0.606,0.555,0.478,0.811
			c-0.66,1.324-5.327-0.203-7.181-0.81c1.421,0.475,2.411,0.967,1.444,1.526c-1.106,0.641-7.604-1.799-10.018-2.463
			C1195.154,557.37,1202.059,550.199,1202.059,550.199z"/>
		<path class="st53" d="M1191.166,485.475c0,0-7.866-0.999-11.991,6.938c-4.125,7.936-4.104,11.323-4.654,15.198
			c-0.52,3.659-2.868,13.649-3.106,14.681c-0.238,1.032-5.559,13.335-3.117,17.634c2.455,4.322,27.385,17.037,27.226,17.989
			c-0.158,0.953,4.315-9.619,4.315-9.619s-10.087-5.62-11.74-7.35c-2.684-2.811-8.345-5.839-7.183-9.327
			c1.365-4.097,5.465-17.921,6.417-19.945C1188.285,509.65,1197.237,488.053,1191.166,485.475z"/>
		<path class="st37" d="M1202.126,458.842c2.059,4.686,0.814,9.765-2.781,11.344c-3.594,1.579-8.177-0.939-10.236-5.625
			c-2.059-4.686-0.814-9.765,2.78-11.344C1195.484,451.638,1200.067,454.157,1202.126,458.842z"/>
	</g>
</g>
<g id="Layer_2">
	<g class="st59">
		<g>
			
				<rect x="1564.644" y="449.417" transform="matrix(-1 -1.224647e-16 1.224647e-16 -1 3210.5195 904.0347)" class="st2" width="81.232" height="5.202"/>
		</g>
		<g>
			<rect x="1627.871" y="468.156" class="st3" width="7.118" height="236.564"/>
		</g>
		<g>
			
				<rect x="1520.893" y="447.942" transform="matrix(-1 -1.224647e-16 1.224647e-16 -1 3098.2502 903.3132)" class="st4" width="56.464" height="7.429"/>
		</g>
		<g>
			
				<rect x="1538.434" y="384.561" transform="matrix(-1 -1.224647e-16 1.224647e-16 -1 3098.2495 839.1792)" class="st5" width="21.382" height="70.057"/>
		</g>
		<g>
			
				<rect x="1362.169" y="454.706" transform="matrix(-1 -1.224647e-16 1.224647e-16 -1 3037.1848 922.8615)" class="st6" width="312.846" height="13.45"/>
		</g>
		<g>
			<g>
				<path class="st7" d="M1735.058,373.293c0,0,3.422,51.762-5.954,57.957c-5.873,3.881-29.291,16.971-28.596,19.425
					c0.694,2.454,13.222,21.839,13.222,21.839s44.982-31.953,46.432-42.023c1.417-9.839-2.214-75.79-8.396-78.828
					c-4.631-2.276-7.076-0.393-12.911,4.28C1730.664,362.503,1735.058,373.293,1735.058,373.293z"/>
			</g>
		</g>
		<g>
			<g>
				<g>
					<path class="st8" d="M1653.078,388.072l-3.964-1.582c0,0,4.944-12.52,7.102-12.215c2.486,0.351,5.589,1.236,5.589,1.236
						L1653.078,388.072z"/>
				</g>
			</g>
		</g>
		<g>
			<g>
				<g>
					<path class="st9" d="M1652.173,390.231c0.507-0.407,8.427-16.799,8.427-16.799l16.922,2.481l-9.144,19.415L1652.173,390.231z"
						/>
				</g>
			</g>
		</g>
		<g>
			<g>
				<g>
					<path class="st10" d="M1679.715,672.42c0,0,1.398,10.474,1.574,12.047c0.175,1.574,15.56-0.927,15.56-0.927l1.246-12.468
						C1698.095,671.072,1681.638,670.943,1679.715,672.42z"/>
				</g>
			</g>
		</g>
		<g>
			<g>
				<g>
					<path class="st11" d="M1681.125,683.135c0,0-4.875,6.311-9.59,9.062c-4.715,2.751-12.124,3.84-14.911,6.688
						c-2.012,2.055-7.33,10.904,12.251,10.726c19.581-0.179,29.022,1.25,31.121-2.143c2.097-3.393-3.036-25.042-3.036-25.042
						S1692.323,684.226,1681.125,683.135z"/>
				</g>
			</g>
		</g>
		<g>
			<g>
				<g>
					<path class="st10" d="M1581.143,672.52c0,0,1.398,10.473,1.574,12.046c0.174,1.574,15.56-0.927,15.56-0.927l1.246-12.468
						C1599.523,671.171,1583.066,671.042,1581.143,672.52z"/>
				</g>
			</g>
		</g>
		<g>
			<g>
				<g>
					<path class="st11" d="M1582.553,683.234c0,0-4.875,6.311-9.589,9.062c-4.715,2.751-22.065,5.01-24.853,7.858
						c-2.012,2.055-5.36,10.33,22.193,9.555c19.574-0.55,29.022,1.25,31.12-2.142c2.098-3.393-3.036-25.042-3.036-25.042
						S1594.019,684.448,1582.553,683.234z"/>
				</g>
			</g>
		</g>
		<g>
			<g>
				<g>
					<path class="st11" d="M1729.339,491.505c0,0-55.935,10.21-68.569,12.35c-12.633,2.141-81.135,20.528-89.701,26.131
						c-6.819,4.46,3.576,111.574,6.005,152.441h26.981l1.956-122.588c32.377,0.873,55.481-8.17,79.059-4.307
						c23.577,3.863,43.233,9.354,58.216-12.325C1743.286,543.206,1743.841,496.24,1729.339,491.505z"/>
				</g>
			</g>
		</g>
		<g>
			<g>
				<g>
					<path class="st11" d="M1674.206,682.525l26.293-1.753l2.563-120.934c13.939,0.375,18.716-0.577,29.996-2.053l21.229-53.231
						c-18.605,4.013-78.216,20.231-86.164,25.431C1661.304,534.447,1671.778,641.657,1674.206,682.525z"/>
				</g>
			</g>
		</g>
		<g>
			<g>
				<g>
					<path class="st12" d="M1703.59,265.33c0,0-20.505-6.113-28.328,11.058c-7.823,17.171-4.276,49.723,6.058,52.785
						c10.334,3.062,25.195-0.464,29.485-11.151c4.29-10.687,7.712-25.873,6.685-35.707
						C1716.464,272.481,1709.035,267.68,1703.59,265.33z"/>
				</g>
			</g>
		</g>
		<g>
			<g>
				<g>
					<path class="st12" d="M1686.678,325.747c0,0,0.225,13.058-1.109,15.843c-1.334,2.784,28.553,2.085,28.553,2.085
						s-4.71-15.681-2.038-29.041C1714.728,301.41,1686.678,325.747,1686.678,325.747z"/>
				</g>
			</g>
		</g>
		<g>
			<g>
				<g>
					<path class="st13" d="M1713.693,309.689c0,0-1.597,3.504-9.333,2.939c-7.736-0.566-17.94-10.633-21.224-11.533
						c-3.285-0.9-3.479-2.916-3.479-2.916l-1.738,3.333l-3.366,0.552c0,0,2.287-10.09-2.695-13.643
						c-4.983-3.553,2.243-32.168,27.469-25.266c0,0,19.252,3.803,19.51,15.4C1719.096,290.151,1717.431,303.546,1713.693,309.689z"
						/>
				</g>
			</g>
		</g>
		<g>
			<g>
				<g>
					<path class="st2" d="M1683.998,341.255c0,0,0.083-5.319,2.319-5.829c2.235-0.51,23.494-3.665,26.237-2.501l1.177,7.023
						C1713.73,339.948,1708.444,343.457,1683.998,341.255z"/>
				</g>
			</g>
		</g>
		<g>
			<g>
				<g>
					<path class="st12" d="M1677.846,295.8c0.574-4.36,5.169-9.368,7.8-2.577c2.631,6.791-1.777,16.679-4.729,16.149
						C1677.966,308.843,1677.068,301.716,1677.846,295.8z"/>
				</g>
			</g>
		</g>
		<g>
			<g>
				<g>
					<path class="st14" d="M1594.958,404.101c0.01-0.005,0.022-0.006,0.036-0.003
						C1594.841,404.171,1594.818,404.177,1594.958,404.101z"/>
				</g>
			</g>
		</g>
		<g>
			<g>
				<g>
					<path class="st13" d="M1709.571,268.444c0,0,25.001-1.27,4.363,40.831L1709.571,268.444z"/>
				</g>
			</g>
		</g>
		<g>
			<g>
				<polygon class="st15" points="1765.276,696.87 1763.415,702.514 1684.834,676.249 1688.6,664.82 				"/>
			</g>
		</g>
		<g>
			<g>
				
					<rect x="1682.138" y="580.067" transform="matrix(-1 -1.224647e-16 1.224647e-16 -1 3373.2083 1252.2942)" class="st15" width="8.932" height="92.16"/>
			</g>
		</g>
		<g>
			<g>
				
					<rect x="1660.264" y="575.169" transform="matrix(-1 -1.224647e-16 1.224647e-16 -1 3373.2083 1155.7694)" class="st16" width="52.68" height="5.43"/>
			</g>
		</g>
		<g>
			<g>
				<polygon class="st15" points="1607.242,696.87 1609.102,702.514 1687.684,676.249 1684.23,664.103 				"/>
			</g>
		</g>
		<g>
			<g>
				<polygon class="st15" points="1662.608,701.91 1662.608,708.475 1687.684,676.249 1684.23,664.103 				"/>
			</g>
		</g>
		<g>
			<g>
				<path class="st17" d="M1599.898,704.72c0,4.375,3.288,7.922,7.344,7.922c4.056,0,7.344-3.547,7.344-7.922
					c0-4.375-3.288-7.922-7.344-7.922C1603.186,696.798,1599.898,700.345,1599.898,704.72z"/>
			</g>
		</g>
		<g>
			<g>
				<path class="st17" d="M1661.984,704.72c0,4.375,3.288,7.922,7.344,7.922s7.344-3.547,7.344-7.922
					c0-4.375-3.288-7.922-7.344-7.922S1661.984,700.345,1661.984,704.72z"/>
			</g>
		</g>
		<g>
			<g>
				<path class="st17" d="M1757.932,704.72c0,4.375,3.288,7.922,7.344,7.922c4.056,0,7.344-3.547,7.344-7.922
					c0-4.375-3.288-7.922-7.344-7.922C1761.219,696.798,1757.932,700.345,1757.932,704.72z"/>
			</g>
		</g>
		<g>
			<path class="st2" d="M1627.135,575.169h118.247c1.81,0,3.277-1.467,3.277-3.277v-14.017c0-1.81-1.467-3.277-3.277-3.277h-118.247
				c-1.81,0-3.277,1.467-3.277,3.277v14.017C1623.858,573.703,1625.325,575.169,1627.135,575.169z"/>
		</g>
		<g>
			
				<rect x="1402.195" y="468.156" transform="matrix(-1 -1.224647e-16 1.224647e-16 -1 2811.509 1172.876)" class="st3" width="7.118" height="236.564"/>
		</g>
		<g>
			<path class="st18" d="M1473.757,418.309h150.735c9.36,0,16.948-7.588,16.948-16.948V294.753c0-9.36-7.588-16.947-16.947-16.947
				h-150.736c-9.36,0-16.948,7.588-16.948,16.948v106.606C1456.809,410.721,1464.397,418.309,1473.757,418.309z"/>
		</g>
		<g>
			
				<rect x="1464.04" y="285.4" transform="matrix(-1 -1.224647e-16 1.224647e-16 -1 3098.2495 681.6905)" class="st19" width="170.169" height="110.89"/>
		</g>
		<g>
			
				<rect x="1464.04" y="285.4" transform="matrix(-1 -1.224647e-16 1.224647e-16 -1 3098.2495 579.6245)" class="st20" width="170.169" height="8.824"/>
		</g>
		<g>
			<path class="st20" d="M1593.277,309.071h34.813c0.722,0,1.307-0.585,1.307-1.307v-5.593c0-0.722-0.585-1.307-1.307-1.307h-34.813
				c-0.722,0-1.307,0.585-1.307,1.307v5.592C1591.97,308.486,1592.555,309.071,1593.277,309.071z"/>
		</g>
		<g>
			<path class="st20" d="M1597.931,391.724h25.504c3.292,0,5.961-2.669,5.961-5.962v-65.229c0-3.292-2.669-5.962-5.961-5.962
				h-25.503c-3.293,0-5.962,2.669-5.962,5.962v65.229C1591.97,389.055,1594.639,391.724,1597.931,391.724z"/>
		</g>
		<g>
			<path class="st21" d="M1510.903,454.885v-2.5c0,0,3.258-15.552,26.307-15.552c23.048,0,22.582,18.052,22.582,18.052H1510.903z"/>
		</g>
		<g>
			<g>
				<path class="st12" d="M1560.071,439.144c0,0-5.006-0.419-6.841-1.613c-1.834-1.194-12.81-9.157-15.388-7.882
					c-2.578,1.275-19.734,6.944-19.139,9.651c0.596,2.706,2.183,2.446,3.393,1.966c1.21-0.479,13.669-3.299,14.768-2.824
					c0,0-12.237,4.816-12.287,8.329c-0.049,3.513,2.561,4.37,3.721,5.699c1.161,1.328,2.553,4.628,5.707,4.881
					c3.154,0.253,18.541-5.523,21.708-5.785c3.168-0.264,9.03,0.211,9.429-0.345
					C1565.543,450.663,1560.071,439.144,1560.071,439.144z"/>
			</g>
		</g>
		<g>
			<g>
				<g>
					<g>
						<path class="st7" d="M1651.229,348.627c15.965-3.027,32.769-7.373,32.769-7.373l29.733-1.306c0,0,27.289,6.48,38.036,11.716
							c1.02,0.496,1.024,26.26,3.821,33.017l-8.91,20.277c0,0-5.147,40.167-6.215,58.032c-0.49,8.2,1.386,79.256,1.386,79.256
							s-2.671,1.422-22.963,3.835c-20.293,2.413-70.995-0.873-71.314-3.458c-0.321-2.586,9.819-96.272,10.268-101.124
							c0.689-7.447-1.994-41.854-1.994-41.854c-3.823,5.539-13.571,30.559-23.73,42.462c-5.977,7.002-35.569,11.296-41.146,11.496
							c-12.142,0.437-34.292,3.045-34.939,1.771c-0.517-0.765-1.93-21.209-0.541-21.708c1.216-0.438,42.346-2.992,52.883-9.023
							c3.855-2.206,15.379-29.315,15.379-29.315S1642.422,352.896,1651.229,348.627z"/>
					</g>
				</g>
			</g>
		</g>
		<g>
			<path class="st2" d="M1705.458,540.192h58.646c7.571,0,13.709-6.138,13.709-13.709V425.316c0-7.572-6.138-13.709-13.709-13.709
				h-58.646c-7.572,0-13.709,6.138-13.709,13.709v101.166C1691.749,534.054,1697.886,540.192,1705.458,540.192z"/>
		</g>
		<g>
			<path class="st2" d="M1706.999,570.05c12.687,0,22.979-4.597,30.592-13.664c17.204-20.49,14.113-56.51,13.973-58.033
				c-0.261-2.839-2.61-4.914-5.238-4.631c-2.631,0.281-4.552,2.809-4.293,5.646c0.037,0.411,2.778,33.06-11.559,50.104
				c-5.799,6.894-13.478,10.246-23.475,10.246c-2.644,0-4.788,2.313-4.788,5.165C1702.211,567.736,1704.355,570.05,1706.999,570.05z
				"/>
		</g>
		<g>
			<path class="st22" d="M1584.013,340.846c0,9.222-3.075,17.666-8.176,24.211c-1.194,1.531-2.498,2.957-3.898,4.264
				c-0.401,0.373-0.809,0.738-1.225,1.09c-0.47,0.4-0.949,0.786-1.437,1.162c-4.592,3.51-10.005,5.853-15.867,6.626
				c-1.032,0.138-2.08,0.225-3.138,0.262c-0.38,0.013-0.762,0.019-1.146,0.019c-1.129,0-2.246-0.058-3.345-0.17
				c-1.23-0.127-2.443-0.321-3.631-0.583c-5.286-1.156-10.137-3.602-14.261-7.02c-1.245-1.03-2.42-2.147-3.523-3.345
				c-0.214-0.233-0.426-0.47-0.634-0.709c-0.782-0.892-1.52-1.825-2.215-2.796c-4.565-6.362-7.281-14.344-7.281-23.01
				c0-20.786,15.621-37.636,34.889-37.636C1568.392,303.21,1584.013,320.06,1584.013,340.846z"/>
			<g>
				<g>
					<path class="st23" d="M1571.85,361.613l-2.574,9.959c-4.592,3.51-10.005,5.853-15.867,6.626
						c-1.032,0.138-2.08,0.225-3.138,0.262c-0.38,0.013-0.762,0.019-1.146,0.019c-1.129,0-2.246-0.058-3.345-0.17
						c-1.23-0.127-2.443-0.321-3.631-0.583c-5.286-1.156-10.137-3.602-14.261-7.02c-0.494-3.293-1.023-6.938-1.489-10.346
						c2.564-1.03,10.725-4.023,15.876-5.901c0.072-0.027,0.144-0.052,0.214-0.078c0.114-0.043,0.225-0.084,0.335-0.123
						c0.304-0.111,0.596-0.218,0.873-0.319c0.282-0.103,0.551-0.2,0.801-0.293c1.056-0.383,1.799-0.653,2.065-0.748
						c0.002-0.002,0.002-0.002,0.004-0.002c0.069-0.026,0.104-0.039,0.104-0.039l0.06,0.004l6.926,0.559l1.162,0.093l0.361,0.029
						c0,0,0.054,0.014,0.159,0.043c0.418,0.114,1.631,0.458,3.238,0.987c0.002,0,0.005,0.002,0.007,0.002
						C1562.688,355.929,1569.341,358.501,1571.85,361.613z"/>
				</g>
				<g>
					<path class="st24" d="M1550.941,322.158c0,0,8.306,1.512,6.897,15.54c-1.409,14.027-8.74,12.79-9.231,12.77
						c-0.49-0.019-7.374,0.17-7.737-16.982C1540.87,333.487,1540.764,320.805,1550.941,322.158z"/>
				</g>
				<g>
					<path class="st24" d="M1554.581,346.402c0,0-0.287,5.773,0.219,7.03c0.505,1.256-6.669,5.232-11.128,0.703
						c0,0,0.901-6.311,0.621-8.539C1544.013,343.368,1554.581,346.402,1554.581,346.402z"/>
				</g>
				<g>
					<path class="st24" d="M1558.007,333.733c0,0,0.922-1.039,1.245,0.027c0.324,1.066-1.472,5.795-1.36,6.009
						c0,0-0.171,0.41-0.387,0.181C1557.289,339.721,1558.007,333.733,1558.007,333.733z"/>
				</g>
				<g>
					<path class="st24" d="M1540.965,333.355c0,0-0.882-1.079-1.246-0.027c-0.364,1.051,0.965,5.772,1.13,6.064
						c0,0,0.287,0.485,0.511,0.265C1541.585,339.437,1540.965,333.355,1540.965,333.355z"/>
				</g>
				<g>
					<path class="st25" d="M1558.539,332.541c-0.287,1.919-0.557,3.346-0.557,3.346l-1.209,1.703c0,0,0.072-3.766-0.113-4.357
						c-0.07-0.224-0.152-0.622-0.237-1.051c-0.139-0.71-0.28-1.511-0.378-1.777c-0.156-0.426-7.12-2.62-13.321,0.46
						c0,0,0.052,0.58,0.049,1.226c-0.002,0.751-0.079,1.593-0.399,1.72c-0.595,0.235-0.346,4.407-0.346,4.407l-0.966-1.204
						c0,0-0.28-2.18-0.555-4.685c0,0-0.001-0.006-0.003-0.018c-0.062-0.584-0.126-1.184-0.186-1.78
						c-0.139-2.521,0.093-7.095,3.134-9.783c2.052-0.949,5.329-1.754,10.792,0.05c0,0,1.253,0.091,1.604,0.455
						C1559.25,325.291,1558.539,332.541,1558.539,332.541z"/>
				</g>
				<path class="st26" d="M1544.863,348.593c0,0,1.326,1.986,4.406,1.911c3.08-0.075,4.417-1.807,4.417-1.807
					s-1.458,3.289-4.432,3.255C1546.281,351.917,1544.863,348.593,1544.863,348.593z"/>
				<path class="st24" d="M1542.825,354.257c0,0,2.227,4.181,6.45,4.575c2.68,0.25,4.999-3.413,6.085-5.212
					C1555.36,353.62,1549.361,350.849,1542.825,354.257z"/>
				<path class="st27" d="M1554.59,352.297c0,0-1.698,2.401-5.315,4.968l2.25,3.739l3.835-7.384L1554.59,352.297z"/>
				<path class="st27" d="M1543.841,352.857c0,0,2.161,2.922,5.434,4.408l-2.47,3.852l-4.316-6.738L1543.841,352.857z"/>
				<path class="st28" d="M1549.275,357.265l1.927,3.165c0,0-2.024,1.235-3.906-0.078L1549.275,357.265z"/>
				<path class="st14" d="M1574.078,361.024c0,0-0.018,0.072-0.054,0.208c-0.213,0.813-1.026,3.936-2.085,8.089
					c-0.401,0.373-0.809,0.738-1.225,1.09c-0.47,0.4-0.949,0.786-1.437,1.162c-4.592,3.51-10.005,5.853-15.867,6.626
					c0.517-13.027,1.95-24.58,1.95-24.58c1.131,0.32,2.204,0.639,3.218,0.954c0.002,0,0.005,0.002,0.007,0.002
					c8.853,2.741,13.343,5.146,14.873,6.059c0.013,0.006,0.024,0.014,0.035,0.019
					C1573.892,360.894,1574.078,361.024,1574.078,361.024z"/>
				<path class="st14" d="M1542.149,377.727c-5.286-1.156-10.137-3.602-14.261-7.02c-1.245-1.03-2.42-2.147-3.523-3.345
					c-0.214-0.233-0.426-0.47-0.634-0.709c-0.61-2.798-1.018-4.624-1.043-4.742l-0.002-0.006c0,0,4.317-3.06,19.588-7.456
					c0,0,0,0.004,0,0.01C1542.275,354.835,1542.285,365.403,1542.149,377.727z"/>
				<path class="st28" d="M1550.379,360.777c-0.142,3.431-0.156,10.088-0.108,17.684c-0.38,0.013-0.762,0.019-1.146,0.019
					c-1.129,0-2.246-0.058-3.345-0.17c0.671-9.368,1.802-15.225,2.317-17.542c0.169-0.76,0.272-1.138,0.272-1.138l2.048,0.365
					C1550.402,360.234,1550.39,360.494,1550.379,360.777z"/>
				<g>
					<path class="st14" d="M1575.837,365.057c-1.194,1.531-2.498,2.957-3.898,4.264c-0.401,0.373-0.809,0.738-1.225,1.09
						l2.745-9.777l0.002-0.004c0.011,0.008,0.022,0.014,0.032,0.023c0.167,0.119,0.344,0.313,0.531,0.579
						C1574.562,361.992,1575.178,363.326,1575.837,365.057z"/>
				</g>
				<g>
					<path class="st14" d="M1524.366,367.361c-0.214-0.233-0.426-0.47-0.634-0.709c-0.782-0.892-1.52-1.825-2.215-2.796
						c0.394-1.016,0.787-1.697,1.17-1.952l0.002,0.006L1524.366,367.361z"/>
				</g>
			</g>
		</g>
		<g>
			<g>
				<path class="st29" d="M1656.225,147.653c-3.022,0.046-5.911-0.889-8.231-2.678c-2.632-2.03-4.223-4.913-4.484-8.123
					c-0.94-6.278-3.308-12.63-5.186-16.958c-7.683-5.475-12.337-14.629-12.465-24.56c-0.212-16.496,12.056-30.102,27.347-30.331
					c15.292-0.229,27.906,13.004,28.118,29.5c0.116,8.981-3.453,17.426-9.804,23.236c-1.558,6.245-2.334,11.899-2.309,16.811
					c0.477,6.567-4.866,12.415-11.935,13.048C1656.924,147.63,1656.574,147.648,1656.225,147.653z M1653.238,67.451
					c-14.04,0.21-25.305,12.704-25.109,27.85c0.119,9.227,4.492,17.724,11.699,22.729l0.273,0.19l0.138,0.316
					c1.965,4.485,4.517,11.244,5.517,17.973l0.011,0.093c0.193,2.501,1.451,4.768,3.545,6.382c2.151,1.659,4.914,2.433,7.776,2.175
					c5.839-0.523,10.261-5.213,9.857-10.454l-0.003-0.047v-0.046c-0.032-5.242,0.802-11.26,2.481-17.886l0.095-0.374l0.277-0.247
					c5.993-5.34,9.367-13.201,9.26-21.567C1678.86,79.391,1667.279,67.24,1653.238,67.451z"/>
			</g>
			<g>
				<polygon class="st29" points="1650.259,137.987 1643.937,105.863 1650.68,110.856 1654.184,105.821 1657.912,109.865 
					1663.331,103.936 1662.472,136.807 1660.204,136.739 1660.9,110.082 1657.919,113.344 1654.424,109.553 1651.189,114.202 
					1647.335,111.349 1652.478,137.479 				"/>
			</g>
			<g>
				<polygon class="st29" points="1667.487,152.269 1647.882,154.026 1647.226,145.503 1666.831,143.747 				"/>
			</g>
			<g>
				<polygon class="st29" points="1670.369,148.478 1644.459,150.799 1643.404,137.08 1669.313,134.759 				"/>
			</g>
		</g>
		<polygon class="st29" points="1684.726,224.631 1685.564,244.062 1692.715,243.703 1691.308,211.105 1660.449,212.654 
			1660.781,220.367 1679.435,219.431 1646.552,258.367 1612.337,224.74 1607.517,230.449 1647.023,269.274 		"/>
	</g>
	<rect x="0.2" y="712.509" class="st7" width="1800" height="7.863"/>
	<g>
		<g>
			<linearGradient id="SVGID_7_" gradientUnits="userSpaceOnUse" x1="48.3035" y1="495.5948" x2="167.2016" y2="495.5948">
				<stop  offset="0" style="stop-color:#04BBB1"/>
				<stop  offset="0.9553" style="stop-color:#AFE8FE"/>
			</linearGradient>
			<path class="st60" d="M61.171,515.297c1.826,4.444,4.244,8.54,7.139,12.209l-4.245,9.023l8.571,6.516l8.571,6.516l7.359-6.656
				c4.285,1.79,8.841,2.996,13.562,3.53l3.291,9.415l10.607-1.535l10.607-1.535l0.559-9.972c4.385-1.851,8.426-4.302,12.045-7.235
				l8.902,4.303l6.429-8.687l6.429-8.687l-6.567-7.458c1.766-4.343,2.956-8.961,3.482-13.745l9.289-3.335l-1.515-10.751
				l-1.515-10.751l-9.839-0.567c-1.826-4.444-4.244-8.54-7.139-12.209l4.245-9.023l-8.571-6.516l-8.571-6.516l-7.359,6.656
				c-4.284-1.79-8.841-2.996-13.562-3.53l-3.29-9.415l-10.607,1.535l-10.607,1.535l-0.559,9.972
				c-4.385,1.851-8.426,4.302-12.045,7.235l-8.903-4.303l-6.429,8.687l-6.429,8.687l6.567,7.459
				c-1.766,4.343-2.956,8.961-3.482,13.745l-9.289,3.335l1.515,10.751l1.515,10.751L61.171,515.297z M102.446,457.924
				c20.527-2.971,39.543,11.487,42.474,32.292c2.931,20.805-11.333,40.079-31.86,43.05c-20.527,2.97-39.543-11.487-42.474-32.293
				C67.654,480.169,81.919,460.894,102.446,457.924z"/>
		</g>
		<g>
			<linearGradient id="SVGID_8_" gradientUnits="userSpaceOnUse" x1="55.2878" y1="303.6237" x2="109.796" y2="303.6237">
				<stop  offset="0" style="stop-color:#40D5E6"/>
				<stop  offset="1" style="stop-color:#A7E6FB"/>
			</linearGradient>
			<path class="st61" d="M61.187,312.656c0.837,2.037,1.946,3.915,3.273,5.597l-1.946,4.137l3.929,2.988l3.93,2.987l3.373-3.052
				c1.964,0.821,4.053,1.374,6.217,1.618l1.509,4.316l4.863-0.704l4.863-0.704l0.256-4.572c2.01-0.849,3.863-1.972,5.522-3.317
				l4.081,1.973l2.947-3.982l2.947-3.983l-3.011-3.419c0.81-1.991,1.355-4.108,1.596-6.302l4.259-1.529l-0.694-4.929l-0.694-4.928
				l-4.511-0.26c-0.837-2.037-1.946-3.915-3.273-5.597l1.946-4.137l-3.93-2.987l-3.929-2.988l-3.373,3.052
				c-1.964-0.821-4.053-1.374-6.217-1.618L83.612,276l-4.863,0.704l-4.863,0.704l-0.256,4.572c-2.01,0.848-3.863,1.972-5.522,3.317
				l-4.081-1.973l-2.947,3.983l-2.947,3.983l3.011,3.419c-0.81,1.991-1.355,4.108-1.596,6.302l-4.259,1.529l0.694,4.929l0.694,4.929
				L61.187,312.656z M80.109,286.353c9.41-1.362,18.128,5.266,19.472,14.804c1.344,9.538-5.196,18.374-14.606,19.736
				c-9.41,1.362-18.128-5.266-19.472-14.804C64.159,296.552,70.698,287.716,80.109,286.353z"/>
		</g>
		<g>
			<g>
				<path class="st12" d="M389.683,536.647c0,0,26.241-8.642,28.373-7.677c2.132,0.964,2.42,2.489-0.007,3.404
					c-2.426,0.915-25.161,9.122-25.161,9.122s32.425-4.736,34.351-4.362c1.129,0.219,1.852,3.126,0.59,3.743
					c-1.262,0.616-33.234,7.261-33.234,7.261s30.279-4.364,31.781-3.534c1.314,0.727,1.343,3.604-0.889,4.092
					c-2.232,0.488-30.195,6.224-30.195,6.224s22.16-1.706,23.007-0.184c0.517,0.931,1.254,3.407-4.469,3.657
					c-5.723,0.25-19.232,2.351-19.232,2.351L389.683,536.647z"/>
			</g>
			<g>
				<g>
					<path class="st12" d="M360.77,551.543c0,0,8.491-3.421,9.1-8.852c0.518-4.618,4.3-10.345,5.461-12.11
						c1.553-2.361,3.872-11.377,6.593-9.455c2.721,1.922-3.159,15.026-3.888,18.011c-0.729,2.985,10.861-3.377,13.76-2.802
						c2.899,0.575,10.795,21.177,2.41,24.584s-19.193,1.242-20.57,2.148c-1.377,0.906-6.021,2.732-6.021,2.732L360.77,551.543z"/>
				</g>
			</g>
			<g>
				<path class="st34" d="M258.409,705.945c0.19,2.489,0.395,4.859,0.585,6.978h-121.51c0.044-2.074,0.102-4.43,0.146-6.978
					c0.409-20.534,1.008-54.194,0.746-66.905c-0.336-18.149-4.107-65.305-4.853-68.031c0,0-26.661-39.26-54.623,38.238
					c-5.774,15.97,47.154,55.986,40.576,57.216c-6.563,1.215-6.3,13.882-6.3,13.882s-49.843-44.001-48.82-56.964
					c0.57-7.2,39.597-111.825,45.561-116.15c4.063-2.963,29.584-13.334,42.813-18.415c6.124-2.371,10.787-4.015,11.752-4.074
					c3.026-0.193,40.357,3.437,40.357,3.437s5.35,1.852,10.831,4.4c9.34,4.341,23.899,11.141,34.335,16.178
					c3.377,1.63,7.601,3.822,11.109,5.704c-0.424,12.859-1.184,26.652-2.251,41.393c0,0-1.944,32.193-2.119,64.712
					c-1.681,7.363-1.389,24.474-1.389,24.474c-0.468,16.222,1.315,32.875,1.783,42.179
					C257.429,693.04,257.912,699.856,258.409,705.945z"/>
			</g>
			<g>
				<path class="st14" d="M263.656,705.945c-1.754-11.511-3.42-23.497-4.794-34.964v-0.089c-0.219-1.867-0.438-3.718-0.658-5.556
					c0-0.089-0.015-0.192-0.029-0.281c-0.877-7.763-1.593-15.186-2.119-21.986c-0.395-5.215-0.044-10.296,0.672-15.289
					c2.076-34.771,3.113-71.439,3.113-71.439c1.096-15.022,1.725-29.037,2.149-42.119c0,0-46.876-22.445-51.13-23.734
					c0,0,8.887,21.156,15.552,68.461c2.573,18.163,7.323,48.741,10.773,79.957c1.359,12.311,3.596,24.771,5.73,36.504
					c2.017,11.067,3.947,21.497,4.984,30.534c0.073,0.548,0.132,1.096,0.19,1.644c0.161,1.555,0.351,3.348,0.57,5.333h16.079
					C264.372,710.626,264.007,708.285,263.656,705.945z"/>
			</g>
			<g>
				<path class="st14" d="M181.086,650.625c-2.134,20.978-4.473,37.956-6.358,55.32c-0.248,2.311-0.497,4.637-0.731,6.978h-49.303
					c0.643-2.311,1.272-4.637,1.871-6.978c5.291-20.223,9.516-40.86,9.516-53.379c0,0-10.261-74.786-13.696-86.831
					c0,0-31.032,23.26-38.282,39.364c-6.49,14.4,41.059,58.386,40.503,59.868c-3.23,8.667-15.611,24.504-15.611,24.504
					S35.37,609.321,36.35,599.439c0.702-7.185,62.429-87.068,68.378-91.394c3.45-2.504,28.941-11.659,41.453-16.667
					c2.295-0.918,9.749-3.763,11.796-4.548c2.646,2.993,21.297,23.334,27.757,100.639
					C186.83,600.505,183.395,628.091,181.086,650.625z"/>
			</g>
			<g>
				<path class="st24" d="M167.926,488.763c0,0-0.256-12.99-5.196-39.269c-1.321-7.035,40.293,18.51,40.293,18.51
					s-0.128,2.464-0.212,5.792c-0.044,1.757-0.072,3.752-0.061,5.752c0.006,0.706,0.011,1.407,0.028,2.102
					c0.039,1.859,0.123,3.639,0.279,5.153c0.156,1.56,1.065,4.311,1.388,5.068C206.163,495.883,181.941,498.928,167.926,488.763z"/>
			</g>
			<path class="st35" d="M193.901,502.373l6.898,9.394c0,0-4.041,5.485-11.219,1.436L193.901,502.373z"/>
			<path class="st35" d="M198.954,512.149c0,0,26.162,102.094,20.769,181.564l-8.802,15.723l-8.239-16.471
				c0,0-2.257-142.151-9.431-181.067L198.954,512.149z"/>
			<path class="st24" d="M201.287,493.616l-7.386,8.758c0,0-11.853-2.327-15.334-8.603
				C175.086,487.495,201.287,493.616,201.287,493.616z"/>
			<path class="st36" d="M202.981,485.951c0,0-0.858,6.676-9.08,16.423l8.975,12.222l4.857-25.353L202.981,485.951z"/>
			<path class="st36" d="M167.244,479.599c0,0,14.671,17.972,26.657,22.774l-5.575,13.974l-27.895-30.396L167.244,479.599z"/>
			<g>
				<path class="st14" d="M382.819,566.124c0,0-63.23,69.626-78.151,65.905c-6.898-1.719-17.346-13.789-25.98-25.135
					c-2.846-3.737-5.637-7.658-8.293-11.54c-0.008-0.008-0.008-0.016-0.008-0.016c-10.592-15.501-18.893-30.359-18.893-30.359
					s-31.309-37.189-6.185-53.768c0,0,10.588-1.083,16.611,3.42c5.561,4.158,19.09,30.338,21.286,35.192
					c2.196,4.846,19.282,39.064,20.875,40.077c1.595,1.012,18.374-9.196,27.343-15.316c14.494-9.888,32.704-27.121,32.704-27.121
					L382.819,566.124z"/>
			</g>
			<g>
				<path class="st12" d="M224.937,403.339c0,0,9.142,17.18,4.611,19.851c-3.744,2.207,4.387,19.067,5.45,21.821
					c1.064,2.755-6.782,4.756-8.448,6.529c-1.666,1.773-6.607,23.587-13.068,24.245c-6.461,0.658-35.577-9.605-43.505-17.96
					c-7.928-8.355-14.433-46.093-9.141-62.011C166.128,379.896,208.802,373.328,224.937,403.339z"/>
			</g>
			<g>
				<path class="st37" d="M226.762,407.061c0,0,9.333-18.553-7.619-32.317c-16.952-13.764-48.209,10.392-51.732,11.313
					c-3.523,0.921-23.511,2.313-13.419,37.885c8.666,30.545,9.877,31.831,9.877,31.831s6.468-17.695,10.133-20.393
					c5.724-4.212,18.274-3.2,18.274-3.2s-5.98-16.092,3.365-18.37C204.987,411.532,217.307,403.504,226.762,407.061z"/>
			</g>
			<g>
				<path class="st12" d="M182.321,422.966c-0.824-2.207-3.489-11.694-11.52-6.123c-8.031,5.571,5.004,23.45,6.404,23.681
					C178.605,440.755,189.257,441.54,182.321,422.966z"/>
			</g>
			<path class="st38" d="M202.751,479.548c0.006,0.706,0.011,1.407,0.028,2.102c-23.804-8.097-28.414-20.284-28.414-20.284
				c7.425,5.323,28.447,12.431,28.447,12.431C202.767,475.553,202.74,477.548,202.751,479.548z"/>
			<path class="st12" d="M116.016,664.706c0,0,2.252,1.914,4.639,1.893c4.121-0.036,8.813-4.576,13.12-0.452
				c4.307,4.124-4.761,21.663-8.027,23.718c-3.266,2.055-10.69-1.638-18.634-11.37C99.171,668.764,116.016,664.706,116.016,664.706z
				"/>
			<path class="st12" d="M132.128,664.973c0,0,8.336,2.903,17.219,7.296c7.794,3.855,16.938,9.741,16.006,11.741
				c-1.416,3.037-8.368-2.659-16.349-5.949c-7.348-3.029-6.403-1.169-6.403-1.169s-0.24-0.545,7.13,4.353
				c7.925,5.266,16.219,11.258,15.486,12.911c-0.909,2.048-1.193,2.226-4.379,0.797c1.656,1.224,1.559,1.864,1.12,2.621
				c-2.276,3.919-15.113-1.957-20.211-4.292c3.905,1.818,6.577,3.581,3.656,5.067c-3.342,1.7-21.12-7.449-27.8-10.098
				C110.317,685.362,132.128,664.973,132.128,664.973z"/>
			<path class="st14" d="M124.608,664.973c0,0-1.812,10.751-15.609,24.5c0,0-31.624-35.36-37.265-41.98l24.744-14.551
				L124.608,664.973z"/>
		</g>
		<linearGradient id="SVGID_9_" gradientUnits="userSpaceOnUse" x1="259.7051" y1="438.7583" x2="288.1899" y2="438.7583">
			<stop  offset="0" style="stop-color:#04BBB1"/>
			<stop  offset="0.9553" style="stop-color:#AFE8FE"/>
		</linearGradient>
		<path class="st62" d="M273.947,453.194L273.947,453.194c7.866,0,14.243-6.376,14.243-14.242v-0.387
			c0-7.866-6.376-14.242-14.242-14.242h0c-7.866,0-14.243,6.377-14.243,14.243v0.387
			C259.705,446.818,266.082,453.194,273.947,453.194z"/>
		<g class="st40">
			<path class="st41" d="M392.925,395.051h-89.597c-2.476,0-4.484-2.007-4.484-4.484v0c0-2.476,2.007-4.483,4.483-4.483h89.598
				c2.476,0,4.483,2.007,4.483,4.483v0.001C397.408,393.043,395.401,395.051,392.925,395.051z"/>
			<path class="st41" d="M406.667,409.547H303.328c-2.476,0-4.483-2.007-4.483-4.483l0,0c0-2.476,2.007-4.483,4.483-4.483h103.339
				c2.476,0,4.483,2.007,4.483,4.483v0.001C411.15,407.54,409.142,409.547,406.667,409.547z"/>
		</g>
		<linearGradient id="SVGID_10_" gradientUnits="userSpaceOnUse" x1="259.7051" y1="397.8156" x2="288.1899" y2="397.8156">
			<stop  offset="0" style="stop-color:#04BBB1"/>
			<stop  offset="0.9553" style="stop-color:#AFE8FE"/>
		</linearGradient>
		<path class="st63" d="M273.948,412.251L273.948,412.251c7.866,0,14.242-6.377,14.242-14.242v-0.386
			c0-7.866-6.377-14.242-14.242-14.242h0c-7.866,0-14.242,6.377-14.242,14.242v0.386
			C259.705,405.875,266.082,412.251,273.948,412.251z"/>
		<g class="st40">
			<path class="st41" d="M368.443,435.993h-65.115c-2.476,0-4.484-2.007-4.484-4.484v0c0-2.476,2.007-4.483,4.483-4.483h65.116
				c2.476,0,4.482,2.007,4.482,4.483v0.001C372.927,433.986,370.919,435.993,368.443,435.993z"/>
			<path class="st41" d="M385.482,450.49h-82.154c-2.476,0-4.483-2.007-4.483-4.483l0,0c0-2.476,2.007-4.483,4.483-4.483h82.154
				c2.476,0,4.483,2.007,4.483,4.483l0,0C389.965,448.483,387.958,450.49,385.482,450.49z"/>
		</g>
		<g class="st40">
			<path class="st41" d="M401.845,476.936h-98.517c-2.476,0-4.483-2.007-4.483-4.483l0,0c0-2.476,2.007-4.483,4.483-4.483h98.517
				c2.476,0,4.483,2.007,4.483,4.483v0C406.329,474.929,404.321,476.936,401.845,476.936z"/>
			<path class="st41" d="M392.925,491.433h-89.596c-2.476,0-4.484-2.007-4.484-4.484v0c0-2.476,2.007-4.483,4.483-4.483h89.597
				c2.476,0,4.483,2.007,4.483,4.483l0,0C397.408,489.426,395.401,491.433,392.925,491.433z"/>
		</g>
		<linearGradient id="SVGID_11_" gradientUnits="userSpaceOnUse" x1="259.7051" y1="479.701" x2="288.1899" y2="479.701">
			<stop  offset="0" style="stop-color:#04BBB1"/>
			<stop  offset="0.9553" style="stop-color:#AFE8FE"/>
		</linearGradient>
		<path class="st64" d="M273.948,494.137L273.948,494.137c7.866,0,14.242-6.377,14.242-14.242v-0.387
			c0-7.866-6.377-14.242-14.242-14.242h0c-7.866,0-14.242,6.376-14.242,14.242v0.387
			C259.705,487.76,266.082,494.137,273.948,494.137z"/>
		<g>
			<g>
				<g>
					<g>
						<g>
							<path class="st44" d="M272.976,445.736l-7.905-6.961c-0.648-0.571-0.717-1.566-0.154-2.223
								c0.563-0.657,1.545-0.727,2.194-0.156l5.59,4.923l7.945-9.012c0.572-0.649,1.555-0.705,2.195-0.125
								c0.641,0.58,0.696,1.576,0.124,2.225L272.976,445.736z"/>
						</g>
					</g>
				</g>
			</g>
		</g>
		<g>
			<g>
				<g>
					<g>
						<g>
							<path class="st44" d="M272.976,486.679l-7.905-6.961c-0.648-0.571-0.717-1.566-0.154-2.223
								c0.563-0.657,1.545-0.726,2.194-0.156l5.59,4.923l7.945-9.012c0.572-0.649,1.555-0.705,2.195-0.125
								c0.641,0.58,0.696,1.576,0.124,2.225L272.976,486.679z"/>
						</g>
					</g>
				</g>
			</g>
		</g>
		<g>
			<path class="st44" d="M273.417,401.336l-0.048-0.635c-0.145-1.319,0.289-2.76,1.494-4.226c1.084-1.295,1.687-2.247,1.687-3.346
				c0-1.246-0.771-2.076-2.289-2.1c-0.867,0-1.831,0.293-2.434,0.757l-0.578-1.539c0.795-0.586,2.169-0.977,3.446-0.977
				c2.771,0,4.024,1.734,4.024,3.59c0,1.661-0.916,2.858-2.073,4.25c-1.06,1.27-1.446,2.345-1.373,3.59l0.024,0.635H273.417z
				 M272.887,404.755c0-0.904,0.602-1.539,1.446-1.539c0.843,0,1.422,0.635,1.422,1.539c0,0.855-0.554,1.514-1.446,1.514
				C273.465,406.27,272.887,405.61,272.887,404.755z"/>
		</g>
		<g>
			<g>
				<path class="st45" d="M228.338,350.396c-1.686-0.521-3.136-1.529-4.13-2.881c-1.127-1.533-1.535-3.324-1.151-5.046
					c0.513-3.445,0.245-7.186-0.085-9.783c-3.365-4.241-4.44-9.856-2.874-15.061c2.601-8.645,11.656-13.534,20.186-10.898
					c8.53,2.636,13.353,11.814,10.752,20.46c-1.416,4.707-4.79,8.471-9.275,10.357c-1.894,2.978-3.257,5.788-4.053,8.355
					c-0.817,3.512-4.749,5.601-8.778,4.657C228.73,350.51,228.533,350.456,228.338,350.396z M239.899,308.01
					c-7.832-2.421-16.146,2.068-18.534,10.006c-1.455,4.836-0.426,10.058,2.751,13.968l0.12,0.148l0.025,0.19
					c0.352,2.694,0.655,6.681,0.101,10.372l-0.009,0.05c-0.305,1.339,0.02,2.749,0.917,3.969c0.921,1.253,2.328,2.155,3.959,2.536
					c3.329,0.779,6.558-0.871,7.197-3.678l0.006-0.025l0.008-0.024c0.846-2.741,2.302-5.731,4.326-8.885l0.114-0.178l0.195-0.079
					c4.208-1.707,7.378-5.2,8.697-9.585C252.159,318.858,247.73,310.431,239.899,308.01z"/>
			</g>
			<g>
				<polygon class="st45" points="226.618,344.278 228.402,326.377 231.324,330.197 234.1,328.201 235.503,330.983 239.49,328.866 
					233.595,345.863 232.347,345.418 237.127,331.635 234.934,332.8 233.618,330.192 231.055,332.035 229.385,329.852 
					227.934,344.412 				"/>
			</g>
			<g>
				<polygon class="st45" points="233.831,354.834 222.655,352.218 223.695,347.653 234.872,350.269 				"/>
			</g>
			<g>
				<polygon class="st45" points="236.057,353.375 221.286,349.917 222.961,342.569 237.732,346.027 				"/>
			</g>
		</g>
		<g>
			<g>
				<g>
					<g>
						<g>
							<polygon class="st45" points="321.217,321.524 316.608,322.425 323.376,357.982 327.985,357.081 							"/>
						</g>
					</g>
				</g>
			</g>
			<g>
				<g>
					<g>
						<g>
							<polygon class="st45" points="312.869,327.29 308.259,328.191 314.269,359.763 318.878,358.862 							"/>
						</g>
					</g>
				</g>
			</g>
			<g>
				<g>
					<g>
						<g>
							<polygon class="st45" points="303.961,334.408 299.351,335.309 304.374,361.698 308.983,360.797 							"/>
						</g>
					</g>
				</g>
			</g>
			<g>
				<g>
					<g>
						<g>
							<polygon class="st45" points="295.043,342.931 290.433,343.832 294.212,363.685 298.822,362.784 							"/>
						</g>
					</g>
				</g>
			</g>
		</g>
	</g>
	<g>
		<g>
			<path class="st12" d="M981.935,713.397h-3.131c0,0,1.044-11.822-1.855-11.938c-2.895-0.116-10.081,9.619-14.372,11.127
				c-4.288,1.506-26.307,2.779-26.424-1.276c-0.116-4.055,8.459-5.68,11.125-6.837c2.666-1.159,15.648-13.793,17.965-15.299
				c2.319-1.509,6.274-11.983,6.274-11.983l12.293-0.546c0,0,0.694,9.792,1.44,14.976c0.277,1.918,0.478,3.664,0.507,4.856
				C985.874,700.88,981.935,713.397,981.935,713.397z"/>
			<path class="st12" d="M1036.323,711.059h-2.608v-11.004c-2.173,0.182-9.476,7.094-11.737,9.094
				c-2.258,1.998-5.358,1.909-14.878,2.514c-9.517,0.606-10.415-5.093-8.909-7.033c1.506-1.94,6.375-2.788,8.909-3.999
				c2.534-1.213,12.532-12.488,15.199-15.154c2.664-2.667,4.289-10.305,4.289-10.305l11.126,0.97c0,0-0.072,6.989,1.197,12.85v0.003
				c0.005,0.014,0.008,0.031,0.011,0.044c0.108,0.5,0.227,0.989,0.357,1.468C1040.93,696.601,1036.323,711.059,1036.323,711.059z"/>
			<path class="st46" d="M995.183,461.647c0,0-4.205,9.943-4.576,12.455c-0.371,2.512-13.554,35.334-14.472,44.938
				c-0.928,9.71-3.711,35.623-4.7,39.334c-0.99,3.711,2.227,20.286,2.721,23.996s0.247,64.319-4.206,94.253
				c0,0,10.39,4.453,18.306,0c0,0,13.111-46.755,12.369-73.72c-0.742-26.965-4.163-38.344,0.021-49.229
				c4.184-10.885,28.675-43.539,31.149-47.003c2.474-3.463,17.972-22.603,3.297-43.337
				C1020.416,442.599,995.183,461.647,995.183,461.647z"/>
			<path class="st46" d="M1048.161,549.72c-1.343,8.927,0.069,20.654,2.872,53.294c2.807,32.636-4.907,72.158-4.907,72.158
				c-9.688,3.316-20.845,0-20.845,0c0.256-2.295,0-79.555,0-86.44c0-6.885-1.977-14.698-2.486-22.6
				c-0.348-5.385-2.853-15.314-5.672-25.45c-0.845-3.037-1.717-6.089-2.566-9.046c0-0.004,0-0.004,0-0.004
				c-0.478-1.656-0.945-3.285-1.4-4.862c-3.97-13.768-9.309-66.937-9.309-66.937s29.592-23.836,44-1.396
				c14.408,22.436,7.01,38.756,6.502,41.559C1053.841,502.805,1049.504,540.797,1048.161,549.72z"/>
			<path class="st47" d="M1035.891,501.769c-0.229,0.509-14.974,33.237-18.768,38.913c-0.845-3.037-1.717-6.089-2.566-9.046
				c0-0.004,0-0.004,0-0.004S1035.398,502.488,1035.891,501.769z"/>
			<path class="st48" d="M1036.323,711.059h-2.608v-11.004c-2.173,0.182-9.476,7.094-11.737,9.094
				c-2.258,1.998-5.358,1.909-14.878,2.514c-9.517,0.606-10.415-5.093-8.909-7.033c1.506-1.94,6.375-2.788,8.909-3.999
				c10.183,0.544,22.61-13.772,28.574-13.743c3.169,0.016,3.139,1.772,3.236,2.103v0.003c0.005,0.014,0.008,0.031,0.011,0.044
				c0.108,0.5,0.227,0.989,0.357,1.468C1040.93,696.601,1036.323,711.059,1036.323,711.059z"/>
			<path class="st48" d="M981.935,713.397h-3.131c0,0,1.044-11.822-1.855-11.938c-2.895-0.116-10.081,9.619-14.372,11.127
				c-4.288,1.506-26.307,2.779-26.424-1.276c-0.116-4.055,8.459-5.68,11.125-6.837c9.083-0.021,23.853-10.018,28.434-12.044
				c4.578-2.026,9.537-0.808,9.537-0.808c0.277,1.918,0.478,3.664,0.507,4.856C985.874,700.88,981.935,713.397,981.935,713.397z"/>
			<g>
				<path class="st49" d="M974.194,518.281h-20.651c-2.097,0-3.804-1.706-3.804-3.803v-13.023c0-2.097,1.706-3.803,3.804-3.803
					h20.651c2.097,0,3.804,1.706,3.804,3.803v13.023C977.997,516.575,976.291,518.281,974.194,518.281z M953.543,500.205
					c-0.69,0-1.251,0.561-1.251,1.251v13.023c0,0.69,0.561,1.251,1.251,1.251h20.651c0.69,0,1.251-0.562,1.251-1.251v-13.023
					c0-0.69-0.561-1.251-1.251-1.251H953.543z"/>
			</g>
			<g>
				<rect x="925.128" y="512.692" class="st49" width="77.479" height="55.511"/>
			</g>
			<path class="st7" d="M1059.559,485.758l-12.547-3.023c0,0,2.183-44.257,9.724-63.002c0.066-0.164,0.344,0.059,0.508,0.089
				c-0.073-0.423-0.15-0.845-0.227-1.268c-0.16-0.88-0.324-1.76-0.494-2.63c-1.917-9.974-4.128-18.686-4.128-18.686
				s-15.825-39.826,3.421-36.714c0,0,9.96,5.584,12.123,18.323c2.163,12.734,4.364,31.492,3.972,38.975
				c-0.392,7.478-2.519,16.417-4.409,25.381C1067.502,443.204,1060.063,483.071,1059.559,485.758z"/>
			<path class="st12" d="M1021.31,336.834c0,0,4.722,12.493,1.049,22.148c0,0,17.314-1.125,17.969-3.147
				c0.656-2.021-0.696-20.739,1.685-26.271C1044.395,324.032,1021.31,336.834,1021.31,336.834z"/>
			<path class="st7" d="M1019.638,354.757c0,0-10.231,3.639-14.854,4.649c-4.624,1.011-14.297,5.593-13.51,22.842
				c0.787,17.249,3.673,32.207,4.722,39.619c1.049,7.412,0.394,26.278-1.312,35.442c0,0,24.528,6.199,53.384,0
				c0,0-5.115-15.632-4.985-19.675c0.131-4.043,17.052-37.328,17.839-42.584c0.787-5.256,4.197-28.434-3.541-33.555
				c-7.738-5.121-14.035-4.447-17.313-6.738C1036.787,352.466,1024.423,353.112,1019.638,354.757z"/>
			<path class="st7" d="M1059.116,484.414c-41.906,11.117-75.253,0.042-75.253,0.042c3.041-6.25,5.278-12.486,6.898-18.524
				c0-0.002,0.003-0.002,0.003-0.005c1.146-4.265,1.983-8.429,2.58-12.43v-0.002c3.406-22.83-1.035-40.311-1.035-40.311
				c4.837-39.81,65.072-51.69,69.897-39.071c4.824,12.619-9.349,66.848-10.067,71.499
				C1051.419,450.26,1059.116,484.414,1059.116,484.414z"/>
			<path class="st12" d="M1036.401,286.712c-6.96-2.388-25.774-4.93-30.594,23.949c-4.819,28.879,5.678,29.375,16.462,28.554
				c10.785-0.821,27.653-20.314,28.945-26.24C1052.506,307.049,1056.261,293.524,1036.401,286.712z"/>
			<path class="st50" d="M1009.685,297.803c0,0,5.747,12.294,13.285,16.579c0,0,4.722,13.064,14.949,18.347
				c0,0,27.139-17.977,11.391-39.341C1033.562,272.024,1011.461,289.037,1009.685,297.803z"/>
			<path class="st12" d="M1022.303,310.119c0.61-1.502,4.677-3.945,6.501,0.176c1.824,4.122-4.726,11.383-6.52,10.992
				C1020.491,320.896,1019.986,315.821,1022.303,310.119z"/>
			<path class="st50" d="M1048.391,296.69c0.594-0.926,18.564-9.245,22.302,8.139c3.738,17.384-14.473,37.598-17.664,46.29
				c-3.191,8.692,1.442,29.064,1.442,29.064s-10.959-10.358-14.273-21.201C1036.558,347.076,1035.335,317.052,1048.391,296.69z"/>
			<path class="st51" d="M1049.298,296.096c0,0-5.501,4.353-6.211,11.219c0,0-1.032-5.356,1.187-8.629
				C1046.491,295.412,1049.298,296.096,1049.298,296.096z"/>
			<path class="st12" d="M954.302,491.192c0,0-0.893,3.682-1.446,5.549c-0.554,1.866-0.894,4.144,0.414,5.129
				c1.307,0.984,4.122,4.36,6.022,5.904c1.899,1.544,12.677-3.128,13.876-4.965c1.2-1.838-1.152-12.132-4.437-14.188
				c-3.285-2.056-8.229-4.944-8.229-4.944L954.302,491.192z"/>
			<path class="st7" d="M1001.89,360.351c0,0-14.35,5.687-15.2,25.632c-0.85,19.944-1.629,30.356-2.408,33.435
				c-0.779,3.078-2.267,15.452-5.879,22.896c-3.504,7.223-18.547,42.284-18.547,42.284l13.089,7.584
				c0,0,22.143-41.488,24.091-47.369c1.948-5.881,9.961-46.808,10.599-53.708C1008.151,385.545,1015.485,360.764,1001.89,360.351z"
				/>
			<path class="st7" d="M1001.306,427.175c0,0-7.527,1.462-16.378-3.58c0,0-3.994,13.377-6.524,18.719
				c-2.269,4.79-18.547,42.284-18.547,42.284l13.089,7.584c0,0,22.184-40.071,24.091-47.369
				C998.943,437.516,1001.306,427.175,1001.306,427.175z"/>
			<path class="st52" d="M990.763,465.928c1.146-4.265,1.983-8.429,2.58-12.43v-0.002c0,0,2.761-5.875,3.693-8.681
				c0.935-2.807,7.87-37.318,7.87-37.318S1012.246,439.908,990.763,465.928z"/>
			<path class="st52" d="M1060.474,406.194c0,0-8.297,38.232-8.337,39.419c-0.041,1.185,2.342,16.799,3.054,20.315L1060.474,406.194
				z"/>
		</g>
		<g>
			<g>
				<g>
					<path class="st12" d="M794.821,569.343c0,0,2.584,0.568,3.504-0.628c0.783-1.018,2.529-1.768,3.067-2
						c0.719-0.31,2.57-2.084,2.97-1.182c0.4,0.903-2.911,3.071-3.515,3.664c-0.603,0.594,3.163,0.965,3.798,1.575
						c0.635,0.61-0.334,6.814-2.89,6.26c-2.555-0.554-4.92-2.833-5.389-2.841c-0.469-0.008-1.875-0.33-1.875-0.33L794.821,569.343z"
						/>
				</g>
			</g>
			<g>
				<g>
					<path class="st12" d="M804.08,570.502c0,0,7.711,2.216,8.102,2.794c0.39,0.578,0.245,0.988-0.484,0.811
						c-0.73-0.177-7.513-1.926-7.513-1.926s8.686,4.157,9.109,4.56c0.248,0.236,0.015,1.048-0.385,0.989
						c-0.399-0.059-9.244-3.686-9.244-3.686s8.103,3.896,8.357,4.339c0.222,0.387-0.179,1.079-0.8,0.831
						c-0.621-0.248-8.346-3.438-8.346-3.438s5.719,3.206,5.713,3.708c-0.004,0.307-0.173,1.017-1.623,0.144
						c-1.45-0.873-5.087-2.575-5.087-2.575L804.08,570.502z"/>
				</g>
			</g>
			<path class="st11" d="M781.295,688.06c0,0,2.693,4.816,4.292,5.792c1.993,1.216,5.86,5.117,7.211,5.297
				c1.351,0.18,6.207,1.042,5.269,3.783c-0.768,2.247-12.351,1.924-13.657,0.798c-1.306-1.126-5.213-5.167-6.789-5.077
				c-1.576,0.09-0.991,5.828-0.991,5.828h-1.711c0,0-0.598-5.583-0.67-6.543c-0.214-2.841,1.813-4.931,1.903-6.553
				c0.09-1.621,0.183-2.831,0.183-2.831L781.295,688.06z"/>
			<path class="st12" d="M792.411,699.018c0,0-3.818,1.319-6.756-0.37s-8.578-4.253-10.571-4.271c0,0,1.087-3.326,1.11-3.698
				c0.023-0.372,0.142-2.124,0.142-2.124l4.93-0.79c0,0,3.198,4.695,4.607,5.8C787.282,694.67,790.892,697.428,792.411,699.018z"/>
			<path class="st12" d="M734.746,692.591c0,0,0.476,3.333,0.996,4.242c0.519,0.909,1.948,5.541,2.597,6.406
				c0.649,0.866,2.078,7.359,0,8.138c-2.078,0.779-6.969,2.078-8.614-0.519c-1.645-2.597-1.861-5.194-1.602-7.185
				c0.26-1.991,2.235-11.13,2.208-12.034C730.304,690.735,734.746,692.591,734.746,692.591z"/>
			<path class="st11" d="M737.51,701.44c0,0,0.223,5.045-3.586,5.045c-3.809,0-5.497-4.591-5.497-4.591s-1.298,2.253,0,7.058
				c1.298,4.805,6.709,3.809,7.921,3.636C737.56,712.416,743.304,710.896,737.51,701.44z"/>
			<path class="st11" d="M741.03,577.667c0,0-4.924,6.276-6.662,10.427c-1.738,4.152-4.634,13.251-4.248,20.299
				c0.386,7.048,2.703,20.274,2.027,23.267c-0.676,2.993-1.351,9.172-2.075,11.296c-0.725,2.124-3.621,8.303-3.911,14.675
				c-0.29,6.372,2.062,34.323,1.869,36.929c-0.193,2.607,8.435,1.014,8.435,1.014s0.22-25.199,1.185-29.544
				c0.965-4.344,2.124-19.116,2.993-20.178c0.869-1.062,3.308-12.263,3.464-14.09c0.152-1.77,10.48-32.389,11.059-37.602
				c0.579-5.213,13.513-16.493,13.513-16.493S755.995,572.815,741.03,577.667z"/>
			<path class="st11" d="M773.109,689.441c-1.834-0.289-6.748-28.528-6.169-33.549c0.579-5.021,1.159-15.725-0.483-20.074
				c-1.076-2.855-7.806-17.385-12.334-27.585c-0.639-1.44-1.233-2.792-1.764-4.014c-1.437-3.319-2.387-5.671-2.411-6.156
				c-0.097-1.931-6.392-35.191,18.478-20.395c0,0,0.252,2.63,0.541,3.596c0.291,0.965,6.952,25.585,7.627,35.046
				c0.677,9.462,2.414,17.487,2.703,19.509c0.29,2.021-0.289,8.779-0.868,10.517c-0.579,1.738,3.766,40.974,4.057,41.94
				C782.774,689.24,774.943,689.73,773.109,689.441z"/>
			<path class="st53" d="M765.828,527.741c0,0,4.051,1.055,5.62,4.759c1.569,3.704,1.2,8.718,1.337,10.438
				c0.137,1.72,3.693,18.465,4.072,18.951c0.379,0.486,6.904,1.744,10.766,2.763c5.424,1.431,10.207,3.05,10.207,3.05l-2.167,7.12
				c0,0-24.813-5.185-26.13-7.642c-2.91-5.426-8.19-23.203-8.19-23.203S756.254,529.95,765.828,527.741z"/>
			<path class="st27" d="M758.67,525.115c0,0,4.706,2.221,6.34,2.547c1.634,0.326,7.975,8.56,9.087,11.566
				c1.112,3.006,0.002,7.516-2.284,12.81c-2.286,5.294-0.129,7.058-1.174,12.352c-1.044,5.294-1.957,16.503-1.76,19.444
				c0.197,2.941-26.434,3.502-32.513-1.856c0,0,6.107-9.151,6.891-10.458c0.784-1.307,0.129-8.431-0.591-10.261
				c-0.719-1.83-8.245-16.551-8.245-16.551s-1.18-12.791,2.356-15.538c3.071-2.386,11.443-3.239,12.946-3.762
				C751.226,524.887,755.599,524.658,758.67,525.115z"/>
			<path class="st54" d="M760.176,535.604l2.859-3.349l-2.485-8.815C760.55,523.441,759.717,528.35,760.176,535.604z"/>
			<path class="st12" d="M760.915,519.685c0,0-0.937,8.633-0.74,11.443c0,0-4.888,4.901-10.452-5.717c0,0,2.339-4.378,0.576-10.341
				C748.537,509.105,760.915,519.685,760.915,519.685z"/>
			<polygon class="st12" points="760.175,531.127 760.176,535.604 754.548,531.401 			"/>
			<polygon class="st54" points="760.176,535.604 757.839,532.713 749.967,524.871 747.421,527.323 			"/>
			<path class="st53" d="M751.137,588.074c-2.215,10.609-18.247-1.192-18.247-1.192s10.396-17.466,6.259-31.424
				c-0.033-0.111-0.066-0.221-0.099-0.33c-0.265-0.883-0.528-1.723-0.792-2.52c-3.798-11.544-7.206-14.24-7.206-14.24
				s4.817-10.598,9.287-11.287c4.47-0.69,8.535-1.458,8.535-1.458s6.607,10.021,6.923,14.432
				C756.115,544.465,753.352,577.466,751.137,588.074z"/>
			<path class="st53" d="M774.754,541.261c0,0,0.496,6.082-3.681,14.07c0,0,0.089,10.694,0.221,14.42
				c0.132,3.725,1.017,17.809,1.017,17.809l-4.589,2.689c-0.924,0.542-2.069-0.209-1.94-1.273c1.297-10.72,5.516-51.386-3.62-62.314
				l3.665,1.08C765.828,527.741,774.754,537.006,774.754,541.261z"/>
			<polygon class="st55" points="763.035,532.255 766.638,533.25 760.55,523.441 			"/>
			<polygon class="st55" points="757.839,532.713 754.549,537.027 747.82,525.817 749.967,524.871 			"/>
			<path class="st12" d="M757.508,491.822c3.444-0.331,11.181,1.041,12.796,10.132c0,0-0.159,2.479-0.665,4.445
				s1.501,7.596,1.062,7.899c-0.44,0.303-2.294,0.753-2.294,0.753s-1.717,6.336-3.91,6.387c-2.193,0.051-10.568-1.267-14.844-8.846
				C745.376,505.013,743.603,493.159,757.508,491.822z"/>
			<path class="st37" d="M770.303,501.953c0,0-5.421,4.086-10.945,5.122c-5.524,1.036-8.511,10.645-8.511,10.645
				s-9.265-13.923-2.848-22.839C754.417,485.965,771.007,491.235,770.303,501.953z"/>
			<path class="st12" d="M757.034,506.929c-0.082-1.075-1.356-2.634-3.05-1.079c-1.694,1.555,0.921,6.561,2.343,5.99
				C757.749,511.27,757.118,508.04,757.034,506.929z"/>
			<path class="st38" d="M760.928,520.931c-0.125,0.671-0.253,1.457-0.358,2.286c-4.635-2.643-7.065-6.008-7.065-6.008
				C756.187,519.412,760.928,520.931,760.928,520.931z"/>
			<path class="st56" d="M742.297,541.635c-0.24,6.271-3.247,13.492-3.247,13.492c-0.265-0.883-0.528-1.723-0.792-2.52
				C739.952,547.871,742.297,541.635,742.297,541.635z"/>
			<linearGradient id="SVGID_12_" gradientUnits="userSpaceOnUse" x1="798.8054" y1="569.9224" x2="798.8054" y2="531.5184">
				<stop  offset="0" style="stop-color:#FF9F55"/>
				<stop  offset="1" style="stop-color:#FFD255"/>
			</linearGradient>
			<path class="st65" d="M840.361,563.938c10.986-15.033,5.527-37.718-12.193-50.667c-17.72-12.95-40.991-11.261-51.977,3.772
				c-2.892,3.957-4.644,8.445-5.333,13.146c-0.004,0.027-4.199,26.315-16.078,45.479c-6.202,8.487-3.12,21.294,6.884,28.605
				c10.004,7.311,23.142,6.358,29.345-2.129c14.659-17.147,38.448-29.131,38.448-29.131l0,0
				C833.725,570.928,837.469,567.896,840.361,563.938z"/>
			
				<rect x="775.765" y="535.66" transform="matrix(0.8727 0.4883 -0.4883 0.8727 372.9243 -307.6991)" class="st44" width="1.474" height="51.21"/>
			
				<rect x="797.406" y="551.471" transform="matrix(-0.7305 -0.6829 0.6829 -0.7305 987.1377 1543.684)" class="st44" width="1.474" height="51.21"/>
			<polygon class="st44" points="806.397,561.408 805.195,553.686 797.601,554.868 796.439,547.403 789.103,548.545 
				787.843,540.451 788.844,540.295 789.948,547.388 797.284,546.246 798.446,553.711 806.04,552.529 807.242,560.251 
				814.399,559.137 814.555,560.138 			"/>
			
				<rect x="741.179" y="600.281" transform="matrix(0.8074 0.59 -0.59 0.8074 504.8495 -330.7582)" class="st58" width="35.663" height="15.123"/>
			
				<rect x="741.839" y="586.919" transform="matrix(0.8074 0.59 -0.59 0.8074 500.9185 -336.2173)" class="st25" width="47.133" height="24.345"/>
			<path class="st12" d="M747.188,580.442c0,0,0.698,0.454,1.381,0.393c1.179-0.105,2.396-1.414,3.744-0.424
				c1.348,0.991-0.762,5.839-1.64,6.459c-0.878,0.619-3.106-0.185-5.651-2.575C742.477,581.906,747.188,580.442,747.188,580.442z"/>
			<path class="st12" d="M751.809,580.139c0,0,2.467,0.574,5.133,1.53c2.339,0.839,4.892,2.227,4.909,2.734
				c0.019,0.564-2.47-0.509-4.846-1.194c-2.188-0.631-1.866-0.161-1.866-0.161s-0.084-0.139,2.163,0.986
				c2.415,1.209,4.763,2.678,4.71,3.279c-0.025,0.292-0.198,0.393-1.15,0.089c0.508,0.285,0.498,0.457,0.393,0.667
				c-0.543,1.089-4.382-0.167-5.906-0.667c1.168,0.39,1.983,0.795,1.187,1.255c-0.91,0.527-6.254-1.48-8.24-2.026
				C746.13,586.037,751.809,580.139,751.809,580.139z"/>
			<path class="st53" d="M742.849,526.905c0,0-6.47-0.821-9.862,5.707c-3.393,6.527-3.375,9.313-3.828,12.5
				c-0.428,3.009-2.359,11.226-2.555,12.075c-0.196,0.849-4.572,10.968-2.563,14.503c2.019,3.555,22.523,14.013,22.393,14.796
				c-0.13,0.784,3.549-7.911,3.549-7.911s-8.297-4.622-9.656-6.045c-2.207-2.312-6.864-4.803-5.908-7.672
				c1.123-3.37,4.495-14.74,5.278-16.404C740.479,546.789,747.842,529.025,742.849,526.905z"/>
			<path class="st37" d="M751.863,505c1.693,3.854,0.669,8.031-2.287,9.331c-2.956,1.299-6.726-0.772-8.419-4.626
				c-1.693-3.854-0.67-8.031,2.287-9.331C746.4,499.075,750.17,501.146,751.863,505z"/>
		</g>
	</g>
	<g>
	</g>
	<g>
	</g>
	<g>
	</g>
	<g>
	</g>
	<g>
	</g>
	<g>
	</g>
	<g>
	</g>
	<g>
	</g>
	<g>
	</g>
	<g>
	</g>
	<g>
	</g>
	<g>
	</g>
	<g>
	</g>
	<g>
	</g>
	<g>
	</g>
</g>
</svg>
