<?xml version="1.0" encoding="utf-8"?>
<!-- Generator: Adobe Illustrator 24.1.3, SVG Export Plug-In . SVG Version: 6.00 Build 0)  -->
<svg version="1.1" xmlns="http://www.w3.org/2000/svg" xmlns:xlink="http://www.w3.org/1999/xlink" x="0px" y="0px"
	 viewBox="0 0 1800 720" style="enable-background:new 0 0 1800 720;" xml:space="preserve">
<style type="text/css">
	.st0{opacity:0.58;fill:#F2F2F2;}
	.st1{filter:url(#Adobe_OpacityMaskFilter);}
	.st2{filter:url(#Adobe_OpacityMaskFilter_1_);}
	.st3{mask:url(#SVGID_1_);fill:url(#SVGID_2_);}
	.st4{fill:url(#SVGID_3_);}
	.st5{filter:url(#Adobe_OpacityMaskFilter_2_);}
	.st6{filter:url(#Adobe_OpacityMaskFilter_3_);}
	.st7{mask:url(#SVGID_4_);fill:url(#SVGID_5_);}
	.st8{fill:url(#SVGID_6_);}
	.st9{fill:#04BBB1;}
	.st10{fill:#FFC155;}
	.st11{fill:url(#SVGID_7_);}
	.st12{fill:#45FFE7;}
	.st13{fill:#FFDC94;}
	.st14{fill:#DED4CE;}
	.st15{fill:#202338;}
	.st16{fill:#2F6B8C;}
	.st17{fill:#323657;}
	.st18{fill:#FAA146;}
	.st19{fill:#EEA886;}
	.st20{fill:#F08D29;}
	.st21{fill:#B86C1F;}
	.st22{fill:#C4B4AF;}
	.st23{fill:#EB4747;}
	.st24{fill:#CF2B2B;}
	.st25{fill:#E03636;}
	.st26{fill:#EDDAD3;}
	.st27{fill:#DECCC6;}
	.st28{fill:#E3D1CA;}
	.st29{fill:#B39696;}
	.st30{fill:#DBB8B8;}
	.st31{fill:#F2CBCB;}
	.st32{fill:#163342;}
	.st33{fill:#B07C63;}
	.st34{opacity:0.24;fill:#3F444F;}
	.st35{fill:#E66947;}
	.st36{fill:#494F5C;}
	.st37{opacity:0.3;fill:#C2C2C2;}
	.st38{fill:#DE9D7D;}
	.st39{fill:#E55353;}
	.st40{fill:#A77860;}
	.st41{fill:#FFB48F;}
	.st42{fill:#A63D3D;}
	.st43{fill:#0E2D3D;}
	.st44{fill:#78C2FF;}
	.st45{fill:#1D3B54;}
	.st46{fill:#285173;}
	.st47{fill:#FF7E55;}
	.st48{fill:#183C59;}
	.st49{fill:#616161;}
	.st50{fill:#E0CEC7;}
	.st51{fill:#EEA987;}
	.st52{display:none;}
	.st53{display:inline;}
	.st54{fill:#F2F2F2;}
	.st55{filter:url(#Adobe_OpacityMaskFilter_4_);}
	.st56{filter:url(#Adobe_OpacityMaskFilter_5_);}
	.st57{mask:url(#SVGID_8_);fill:url(#SVGID_9_);}
	.st58{fill:url(#SVGID_10_);}
	.st59{filter:url(#Adobe_OpacityMaskFilter_6_);}
	.st60{filter:url(#Adobe_OpacityMaskFilter_7_);}
	.st61{mask:url(#SVGID_11_);fill:url(#SVGID_12_);}
	.st62{fill:url(#SVGID_13_);}
	.st63{fill:#E8913A;}
	.st64{fill:#FFF9F5;}
	.st65{fill:#FFCA55;}
</style>
<g id="Layer_3">
	<rect class="st0" width="1805.283" height="720"/>
	<defs>
		<filter id="Adobe_OpacityMaskFilter" filterUnits="userSpaceOnUse" x="283.153" y="648.478" width="124.807" height="11.43">
			<feFlood  style="flood-color:white;flood-opacity:1" result="back"/>
			<feBlend  in="SourceGraphic" in2="back" mode="normal"/>
		</filter>
	</defs>
	<mask maskUnits="userSpaceOnUse" x="283.153" y="648.478" width="124.807" height="11.43" id="SVGID_1_">
		<g class="st1">
			<defs>
				<filter id="Adobe_OpacityMaskFilter_1_" filterUnits="userSpaceOnUse" x="283.153" y="648.478" width="124.807" height="11.43">
					<feFlood  style="flood-color:white;flood-opacity:1" result="back"/>
					<feBlend  in="SourceGraphic" in2="back" mode="normal"/>
				</filter>
			</defs>
			<mask maskUnits="userSpaceOnUse" x="283.153" y="648.478" width="124.807" height="11.43" id="SVGID_1_">
				<g class="st2">
				</g>
			</mask>
			<linearGradient id="SVGID_2_" gradientUnits="userSpaceOnUse" x1="265.3304" y1="655.7277" x2="427.6207" y2="652.6237">
				<stop  offset="0" style="stop-color:#FFFFFF"/>
				<stop  offset="1" style="stop-color:#000000"/>
			</linearGradient>
			<path class="st3" d="M407.961,654.193c0,3.156-27.939,5.715-62.404,5.715c-34.465,0-62.404-2.559-62.404-5.715
				c0-3.157,27.939-5.715,62.404-5.715C380.022,648.478,407.961,651.037,407.961,654.193z"/>
		</g>
	</mask>
	<linearGradient id="SVGID_3_" gradientUnits="userSpaceOnUse" x1="265.3304" y1="655.7277" x2="427.6207" y2="652.6237">
		<stop  offset="0" style="stop-color:#FF9F55"/>
		<stop  offset="1" style="stop-color:#FFD255"/>
	</linearGradient>
	<path class="st4" d="M407.961,654.193c0,3.156-27.939,5.715-62.404,5.715c-34.465,0-62.404-2.559-62.404-5.715
		c0-3.157,27.939-5.715,62.404-5.715C380.022,648.478,407.961,651.037,407.961,654.193z"/>
	<defs>
		<filter id="Adobe_OpacityMaskFilter_2_" filterUnits="userSpaceOnUse" x="503.095" y="643.506" width="124.808" height="11.429">
			<feFlood  style="flood-color:white;flood-opacity:1" result="back"/>
			<feBlend  in="SourceGraphic" in2="back" mode="normal"/>
		</filter>
	</defs>
	<mask maskUnits="userSpaceOnUse" x="503.095" y="643.506" width="124.808" height="11.429" id="SVGID_4_">
		<g class="st5">
			<defs>
				
					<filter id="Adobe_OpacityMaskFilter_3_" filterUnits="userSpaceOnUse" x="503.095" y="643.506" width="124.808" height="11.429">
					<feFlood  style="flood-color:white;flood-opacity:1" result="back"/>
					<feBlend  in="SourceGraphic" in2="back" mode="normal"/>
				</filter>
			</defs>
			<mask maskUnits="userSpaceOnUse" x="503.095" y="643.506" width="124.808" height="11.429" id="SVGID_4_">
				<g class="st6">
				</g>
			</mask>
			<linearGradient id="SVGID_5_" gradientUnits="userSpaceOnUse" x1="503.0949" y1="649.2203" x2="627.9025" y2="649.2203">
				<stop  offset="0" style="stop-color:#FFFFFF"/>
				<stop  offset="1" style="stop-color:#000000"/>
			</linearGradient>
			<ellipse class="st7" cx="565.499" cy="649.22" rx="62.404" ry="5.715"/>
		</g>
	</mask>
	<linearGradient id="SVGID_6_" gradientUnits="userSpaceOnUse" x1="503.0949" y1="649.2203" x2="627.9025" y2="649.2203">
		<stop  offset="0" style="stop-color:#FF9F55"/>
		<stop  offset="1" style="stop-color:#FFD255"/>
	</linearGradient>
	<ellipse class="st8" cx="565.499" cy="649.22" rx="62.404" ry="5.715"/>
	<path class="st9" d="M560.558,203.874H326.727c-59.976,3.991-59.71,70.06-59.71,70.06l0,0v315.712H501.14V273.934
		C501.14,273.934,502.249,207.643,560.558,203.874z"/>
	<g>
		<rect x="250.638" y="277.924" class="st10" width="2.825" height="242.992"/>
	</g>
	<g>
		<path class="st10" d="M520.696,166.892H377.751V87.651h142.946V166.892z M380.576,164.066h137.295v-73.59H380.576V164.066z"/>
	</g>
	<g>
		<path class="st10" d="M253.464,249.407H110.519v-99.638h142.945V249.407z M113.344,246.581h137.294v-93.987H113.344V246.581z"/>
	</g>
	<g>
		<path class="st10" d="M658.155,408.076H515.21v-79.536h142.945V408.076z M518.036,405.25H655.33v-73.885H518.036V405.25z"/>
	</g>
	<linearGradient id="SVGID_7_" gradientUnits="userSpaceOnUse" x1="257.6677" y1="392.4738" x2="551.2093" y2="392.4738">
		<stop  offset="0" style="stop-color:#AFE8FE"/>
		<stop  offset="0.5875" style="stop-color:#5FD3DA"/>
		<stop  offset="1" style="stop-color:#04BBB1"/>
	</linearGradient>
	<path class="st11" d="M551.209,199.588c-58.309,3.769-59.418,70.06-59.418,70.06V585.36H257.668V269.648
		c0,0-0.266-66.069,59.71-70.06H551.209z"/>
	<rect x="288.411" y="282.063" class="st12" width="160.812" height="14.189"/>
	<rect x="288.411" y="314.876" class="st12" width="137.311" height="10.051"/>
	<rect x="288.411" y="341.407" class="st13" width="69.025" height="14.928"/>
	<rect x="377.833" y="341.407" class="st12" width="71.39" height="14.928"/>
	<rect x="288.411" y="370.155" class="st13" width="109.967" height="10.642"/>
	<rect x="288.411" y="396.76" class="st13" width="123.898" height="5.912"/>
	<rect x="288.411" y="423.365" class="st13" width="148.988" height="5.912"/>
	<g>
		<path class="st13" d="M357.966,483.017h-70.085V449.44h70.085V483.017z M288.941,481.957h67.966V450.5h-67.966V481.957z"/>
	</g>
	<rect x="374.729" y="449.97" class="st13" width="62.67" height="7.686"/>
	<rect x="374.729" y="466.229" class="st13" width="44.419" height="7.686"/>
	<rect x="288.411" y="503.18" class="st13" width="133.985" height="5.912"/>
	<rect x="288.411" y="529.785" class="st13" width="70.577" height="5.912"/>
	<g>
		<g>
			<g>
				<g>
					<g>
						<g>
							<g>
								<path class="st9" d="M552.093,377.559l-6.905-11.304c-0.566-0.927-0.273-2.138,0.653-2.704
									c0.927-0.566,2.138-0.273,2.704,0.653l4.883,7.994l12.98-7.683c0.935-0.553,2.141-0.244,2.694,0.691
									c0.554,0.935,0.244,2.141-0.69,2.694L552.093,377.559z"/>
							</g>
						</g>
					</g>
				</g>
			</g>
			<g>
				<path class="st9" d="M556.729,394.987c-13.692,0-24.831-11.14-24.831-24.831c0-13.692,11.139-24.831,24.831-24.831
					c13.692,0,24.831,11.139,24.831,24.831C581.56,383.847,570.421,394.987,556.729,394.987z M556.729,348.871
					c-11.736,0-21.284,9.548-21.284,21.284c0,11.736,9.548,21.284,21.284,21.284c11.736,0,21.284-9.548,21.284-21.284
					C578.013,358.419,568.465,348.871,556.729,348.871z"/>
			</g>
		</g>
	</g>
	<polygon class="st9" points="437.695,118.994 438.18,129.43 442.323,129.237 441.508,111.729 423.629,112.561 423.822,116.704 
		434.629,116.201 415.578,137.113 395.755,119.052 392.962,122.118 415.85,142.971 	"/>
	<g>
		<g>
			<path class="st9" d="M162.187,186.386c-0.404-0.451-1-0.938-1.786-1.459c-0.787-0.52-1.698-1.019-2.732-1.496
				c-1.035-0.476-2.171-0.885-3.409-1.227c-1.239-0.342-2.51-0.559-3.816-0.655l-0.046,13.988l1.283,0.275
				c2.431,0.594,4.625,1.255,6.582,1.981c1.957,0.728,3.61,1.611,4.958,2.652c1.348,1.042,2.391,2.317,3.13,3.828
				c0.738,1.513,1.104,3.349,1.097,5.511c-0.008,2.388-0.443,4.425-1.304,6.111c-0.862,1.687-2.049,3.091-3.562,4.212
				c-1.513,1.122-3.273,1.961-5.279,2.517c-2.007,0.556-4.159,0.853-6.456,0.891l-0.023,7.095l-3.514-0.011l0.024-7.231
				c-3.243-0.237-6.327-0.887-9.252-1.956c-2.925-1.067-5.6-2.552-8.027-4.452l3.468-6.476c0.493,0.542,1.213,1.13,2.157,1.764
				c0.944,0.635,2.045,1.246,3.305,1.835c1.259,0.59,2.642,1.113,4.151,1.568c1.507,0.456,3.072,0.777,4.693,0.961l0.046-13.988
				c-0.27-0.091-0.551-0.171-0.844-0.239c-0.293-0.069-0.574-0.148-0.844-0.239c-2.386-0.638-4.467-1.309-6.244-2.014
				c-1.778-0.704-3.25-1.553-4.418-2.548c-1.169-0.994-2.054-2.158-2.658-3.489c-0.604-1.33-0.903-2.943-0.897-4.835
				c0.007-2.207,0.396-4.165,1.168-5.875c0.771-1.709,1.857-3.181,3.258-4.415c1.4-1.234,3.036-2.197,4.909-2.89
				c1.871-0.692,3.934-1.124,6.187-1.298l0.022-6.825l3.514,0.012l-0.022,6.825c2.927,0.19,5.628,0.785,8.103,1.783
				c2.474,1,4.656,2.201,6.543,3.603L162.187,186.386z M139.882,188.07c-0.006,1.892,0.653,3.313,1.98,4.264
				c1.325,0.95,3.339,1.791,6.04,2.52l0.043-13.312c-2.749,0.126-4.778,0.761-6.088,1.906
				C140.546,184.592,139.888,186.134,139.882,188.07z M159.338,210.569c0.007-1.982-0.777-3.483-2.35-4.501
				c-1.574-1.019-3.778-1.938-6.613-2.758l-0.044,13.38c2.883-0.035,5.104-0.568,6.662-1.6
				C158.549,214.058,159.331,212.552,159.338,210.569z"/>
		</g>
	</g>
	<rect x="183.617" y="178.16" class="st14" width="56.092" height="7.981"/>
	<rect x="183.617" y="195.597" class="st14" width="44.087" height="7.982"/>
	<rect x="183.617" y="213.034" class="st14" width="49.469" height="7.981"/>
	<rect x="591.856" y="355.598" class="st14" width="40.079" height="7.982"/>
	<rect x="591.856" y="373.035" class="st14" width="44.971" height="7.982"/>
	<rect x="454.397" y="105.844" class="st14" width="50.993" height="7.981"/>
	<rect x="454.397" y="123.281" class="st14" width="40.079" height="7.981"/>
	<rect x="454.397" y="140.717" class="st14" width="44.972" height="7.982"/>
	<g>
		<polygon class="st14" points="552.622,460.842 509.233,460.842 509.233,458.017 549.797,458.017 549.797,409.767 552.622,409.767 
					"/>
	</g>
	<g>
		<polygon class="st14" points="344.808,194.854 341.982,194.854 341.982,180.738 435.987,180.738 435.987,170.913 438.812,170.913 
			438.812,183.563 344.808,183.563 		"/>
	</g>
	<g>
		<polygon class="st14" points="239.709,360.709 190.334,360.709 190.334,254.276 193.159,254.276 193.159,357.884 239.709,357.884 
					"/>
	</g>
	<g>
		<path class="st10" d="M509.323,317.462h-2.825v-32.148c-0.038-0.53-3.468-62.249,48.618-71.23l0.48,2.784
			c-49.61,8.554-46.315,67.757-46.276,68.354L509.323,317.462z"/>
	</g>
	<g>
		<polygon class="st10" points="665.028,379.243 662.202,379.243 662.202,324.785 603.754,324.785 603.754,321.96 665.028,321.96 		
			"/>
	</g>
	<g>
		<polygon class="st10" points="158.525,257.52 102.907,257.52 102.907,205.115 105.732,205.115 105.732,254.695 158.525,254.695 		
			"/>
	</g>
	<g>
		<polygon class="st10" points="374.124,123.281 371.298,123.281 371.298,82 440.304,82 440.304,84.825 374.124,84.825 		"/>
	</g>
	<g>
		<polygon class="st10" points="510.646,599.002 460.013,599.002 460.013,596.176 507.82,596.176 507.82,519.548 510.646,519.548 		
			"/>
	</g>
	<g>
		<g>
			<path class="st15" d="M545.836,638.996c0,0-3.332,3.499-6.715,4.232c-3.382,0.733-5.749,1.668-5.775,3.676
				c-0.025,2.008,9.736,3.331,13.607,1.307c5.778-3.021,6.365-2.11,7.006-3.62c0.64-1.51-0.769-5.548-0.728-6.029
				C553.282,637.968,545.836,638.996,545.836,638.996z"/>
		</g>
		<g>
			<path class="st16" d="M546.211,637.322c0,0-0.44,1.64-0.375,1.674c0.066,0.034,7.623,0.882,7.394-0.434
				c-0.185-1.067-0.45-2.226-0.45-2.226L546.211,637.322z"/>
		</g>
		<g>
			<path class="st15" d="M583.477,639.908c0,0-2.451,3.408-5.73,4.194c-3.233,0.775-5.328,2.25-5.486,4.202
				c-0.158,1.951,7.622,4.507,13.089,1.079c3.592-2.253,4.932-2.124,5.655-3.555c0.724-1.431-0.379-5.442-0.307-5.907
				C590.788,639.348,583.477,639.908,583.477,639.908z"/>
		</g>
		<g>
			<path class="st16" d="M583.578,638.223c0,0-0.161,1.647-0.1,1.685c0.061,0.037,7.265,1.312,7.222,0.013
				c-0.034-1.032-0.457-2.315-0.457-2.315L583.578,638.223z"/>
		</g>
		<g>
			<path class="st17" d="M553.834,538.874c0,0-3.5,25.423-4.93,34.018c-1.671,10.049-2.238,18.352-2.704,23.553
				c-0.586,6.542-0.261,40.02-0.671,41.933c-0.41,1.913,8.276,0.918,8.276,0.918s6.37-43.644,8.116-50.611
				c1.626-6.487,6.098-33.231,7.582-31.46c1.484,1.771,6.288,32.237,7.386,37.353c1.098,5.116,5.535,45.392,5.535,45.392
				s7.383,1.603,9.398,0c0,0-0.45-35.914-1.15-45.506c-0.267-3.656,2.313-43.763-3.869-59.937
				C583.536,525.979,553.834,538.874,553.834,538.874z"/>
		</g>
		<path class="st18" d="M553.53,540.088l-0.395,3.817c0,0,10.663,4.32,36.622,4.323v-4.368L553.53,540.088z"/>
		<g>
			<g>
				<g>
					<path class="st19" d="M523.627,492.048c0,0-1.553,3.428-2.474,3.643c-0.921,0.214-2.016,1.359-2.806,1.711
						c-0.789,0.351-3.274,0.545-3.94,1.195c-0.273,0.266-1.315,2.553-1.927,3.033c-0.611,0.48-1.966,1.304-1.546,1.819
						c0.42,0.514,1.828,0.108,1.828,0.108s-0.53,0.472-0.302,1.041c0.445,1.106,1.188,1.154,1.188,1.154s-0.236,0.832,0.064,1.244
						c0.663,0.907,1.383,0.933,1.383,0.933s0.063,0.643,0.641,1.143c0.74,0.64,1.65,0.272,1.65,0.272s0.739,1.019,1.421,0.82
						c0.681-0.199,1.077-0.709,1.563-1.008c0.486-0.298,3.882-4.215,5.132-7.878c1.25-3.663,3.423-6.639,3.423-6.639
						L523.627,492.048z"/>
				</g>
			</g>
		</g>
		<g>
			<path class="st20" d="M524.331,509.386c0,0,12.066,5.489,16.354,4.434c1.982-0.487,4.593-3.223,7.074-6.44
				c0.818-1.06,1.62-2.171,2.383-3.272c0.002-0.002,0.002-0.004,0.002-0.004c3.043-4.394,5.429-8.607,5.429-8.607
				s8.996-10.543,1.777-15.243c0,0-2.62-0.982-5.026,1.597c-2.408,2.579-5.233,7.974-5.864,9.35
				c-0.631,1.374-9.468,14.12-9.926,14.407c-0.458,0.287-4.32-0.729-7.416-0.987c-5.048-0.421-4.046-0.634-4.046-0.634
				L524.331,509.386z"/>
		</g>
		<path class="st20" d="M564.102,477.901c0,0-9.261,1.915-10.36,2.888c-1.193,1.036-3.297,11.18-3.423,14.005
			c-0.125,2.825,1.117,14.629,2.31,19.024c1.193,4.395-1.571,23.105,0.642,26.189c0,0,19.088,6.124,37.423,3.738
			c0,0-3.936-17.658-3.202-23.68c0.94-7.716,3.202-25.493,3.202-25.493s-2.449-11.97-4.082-13.351
			c-1.633-1.381-12.981-3.629-12.981-3.629L564.102,477.901z"/>
		<path class="st21" d="M584.726,502.058c0,0,1.749,11.382,1.627,12.112C586.23,514.9,594.271,511.884,584.726,502.058z"/>
		<g>
			<path class="st22" d="M625.101,564.746l8.045-13.353c1.363-2.263,0.634-5.202-1.629-6.565l-20.159-12.146
				c-2.263-1.363-5.202-0.634-6.565,1.628l-8.045,13.353c-1.363,2.263-0.634,5.202,1.629,6.565l20.159,12.146
				C620.798,567.737,623.737,567.009,625.101,564.746z"/>
			
				<rect x="532.142" y="427.411" transform="matrix(-0.5161 0.8565 -0.8565 -0.5161 1262.1207 302.4574)" class="st23" width="26.958" height="160.695"/>
			
				<rect x="545.765" y="419.714" transform="matrix(0.5161 -0.8565 0.8565 0.5161 -162.0407 713.3134)" class="st24" width="8.986" height="160.695"/>
			
				<rect x="541.128" y="427.411" transform="matrix(-0.5161 0.8565 -0.8565 -0.5161 1262.1187 302.4494)" class="st25" width="8.986" height="160.695"/>
			
				<rect x="536.49" y="435.108" transform="matrix(-0.5161 0.8565 -0.8565 -0.5161 1261.6842 318.104)" class="st23" width="8.986" height="160.695"/>
			<polygon class="st26" points="469.843,477.838 483.756,454.748 452.522,448.448 444.49,446.827 449.677,453.171 			"/>
			<path class="st27" d="M479.118,462.445c2.061,1.242,4.769,0.524,6.05-1.601c1.28-2.125,0.649-4.855-1.412-6.096L479.118,462.445z
				"/>
			<path class="st28" d="M474.481,470.142c2.061,1.242,4.769,0.524,6.05-1.601c1.281-2.125,0.649-4.855-1.412-6.096L474.481,470.142
				z"/>
			<path class="st26" d="M469.843,477.839c2.061,1.242,4.769,0.525,6.05-1.601c1.281-2.125,0.649-4.854-1.412-6.096L469.843,477.839
				z"/>
			
				<rect x="615.091" y="536.894" transform="matrix(0.5161 -0.8565 0.8565 0.5161 -164.2682 792.9111)" class="st29" width="8.986" height="9.875"/>
			
				<rect x="610.454" y="544.591" transform="matrix(-0.5161 0.8565 -0.8565 -0.5161 1403.0029 306.4073)" class="st30" width="8.986" height="9.874"/>
			
				<rect x="605.816" y="552.288" transform="matrix(-0.516 0.8566 -0.8566 -0.516 1402.5525 322.0071)" class="st31" width="8.986" height="9.874"/>
			<polygon class="st27" points="479.118,462.444 444.49,446.827 483.756,454.748 			"/>
			<polygon class="st28" points="474.481,470.142 444.49,446.827 479.118,462.444 			"/>
			<polygon class="st26" points="474.481,470.142 444.49,446.827 469.843,477.839 			"/>
			<polygon class="st23" points="449.677,453.171 452.522,448.448 444.49,446.827 			"/>
		</g>
		<g>
			<g>
				<g>
					<g>
						<g>
							<path class="st19" d="M565.753,540.315c0,0,0.855-0.072,1.214-0.287c0,0,0.623-0.44,1.084-0.726
								c0.147-0.09,0.277-0.166,0.366-0.206c0.372-0.167,1.237-0.422,2.018-1.074c0.779-0.65,3.42-4.323,3.42-4.323l-1.58-1.991
								l-1.213-2.075c0,0-6.148,0.951-6.944,1.474c-0.077,0.051-0.152,0.105-0.218,0.161c-0.631,0.508-0.888,1.151-1.189,1.455
								c-0.11,0.112-1.128,1.303-1.047,1.764c0.111,0.64,0.447,1.039,0.855,1.217c0,0,0.272,1.244,0.945,1.775
								c0,0,0.214,1.155,1.239,1.578C564.701,539.059,565.05,540.207,565.753,540.315z"/>
						</g>
					</g>
				</g>
			</g>
		</g>
		<path class="st20" d="M581.513,480.966c-1.215,0.47-2.501,3.409-1.545,9.171c1.027,6.183,3.068,8.824,3.888,10.269
			c0.82,1.445,5.333,10.353,4.522,11.525c-0.811,1.172-8.472,8.731-8.916,9.346c-0.443,0.616-8.997,8.359-8.997,8.359l4.355,6.086
			c0,0,18.471-14.428,19.912-15.869c1.441-1.44,5.749-4.467,4.156-9.499c-1.62-5.114-4.53-17.087-5.047-18.023
			S589.543,477.857,581.513,480.966z"/>
		<g>
			<g>
				<path class="st19" d="M512.951,503.103c0,0,2.961-3.299,4.438-3.239c1.477,0.06,0.472,1.309,0.472,1.309
					s0.973-1.252,2.025-0.591s-0.199,2.062-0.199,2.062s0.985-0.753,1.765,0.286c0.779,1.04-0.516,1.968-0.516,1.968
					s1.956-0.291,1.539,1.306c-0.704,2.697-3.615,3.985-3.615,3.985s-0.832,0.325-1.512-0.729c0,0-1.84,0.691-2.347-1.428
					c0,0-2.207-0.51-1.53-2.219C513.471,505.814,511.253,504.959,512.951,503.103z"/>
			</g>
		</g>
		<path class="st18" d="M559.911,478.841c0,0-0.556-2.534,7.375-3.121c7.931-0.587,13.296,1.195,13.446,3.47
			c0.149,2.276-20.092,7.956-20.092,7.956L559.911,478.841z"/>
		<path class="st19" d="M567.931,449.264c0,0-11.14-4.122-10.444,10.683c0.696,14.805,3.307,16.309,10.636,14.242
			c7.328-2.068,7.942-11.411,8.897-15.906C577.974,453.787,571.574,449.91,567.931,449.264z"/>
		<path class="st19" d="M562.268,480.245c0,0,2.67,1.176,11.362-2.653c0,0-0.246-5.96,1.46-11.526
			c1.705-5.566-11.666,7.422-11.666,7.422c0.14,0.099,0.167,0.655,0.087,1.431c-0.068,0.658-0.212,1.473-0.429,2.3
			C562.595,479.081,562.709,478.751,562.268,480.245z"/>
		<path class="st32" d="M575.471,465.625c0,0,0.032-3.955-1.613-4.319c-1.645-0.364-2.492,1.922-2.492,1.922l-1.324-0.071
			c0,0,1.183-4.008-0.385-4.927c-1.568-0.919-10.948-0.112-12.125-1.461c-1.177-1.349,0.53-9.363,3.089-10.15
			c2.559-0.786,9.55-2.382,13.989,1.571c0,0,3.813,1.647,3.968,4.791C578.734,456.127,576.81,463.48,575.471,465.625z"/>
		<path class="st33" d="M563.084,477.22c8.635-1.452,9.925-6.362,9.945-6.439c-3.357,4.329-9.516,4.138-9.516,4.138
			C563.444,475.578,563.3,476.393,563.084,477.22z"/>
		<path class="st19" d="M571.997,459.627c0.492-1.304,3.271-1.14,2.986,0.928c-0.285,2.068-2.581,5.254-3.503,4.656
			C570.558,464.613,571.318,461.426,571.997,459.627z"/>
	</g>
	<g>
		<path class="st13" d="M471.962,545.46h-44.22v-44.22h44.22V545.46z M431.98,541.222h35.743v-35.744H431.98V541.222z"/>
	</g>
	<g>
		<polygon class="st13" points="450.541,532.699 434.977,518.025 439.821,512.885 450.862,523.293 475.064,503.407 479.549,508.865 
					"/>
	</g>
	<path class="st34" d="M436.48,418.617c-33.034-56.89-105.941-76.232-162.84-43.188c-5.711,3.317-11.041,7.032-15.972,11.094v27.323
		c7.121-8.363,15.759-15.67,25.798-21.506c47.552-27.616,108.486-11.449,136.102,36.103c8.478,14.597,12.824,30.454,13.409,46.222
		c0.044,1.233,0.071,2.456,0.071,3.689c0,34.32-17.763,67.719-49.583,86.191c-42.302,24.557-95.202,14.482-125.797-21.524v27.35
		c7.192,5.942,15.014,10.953,23.262,14.988H386.01c2.457-1.206,4.878-2.51,7.281-3.902
		C450.181,548.423,469.523,475.517,436.48,418.617z"/>
	
		<rect x="38.756" y="609.708" transform="matrix(-0.7682 0.6402 -0.6402 -0.7682 639.5592 1020.5807)" class="st9" width="192.523" height="32.731"/>
	
		<rect x="207.773" y="548.732" transform="matrix(-0.7682 0.6402 -0.6402 -0.7682 735.7296 855.9276)" class="st35" width="10.284" height="24.844"/>
	<path class="st36" d="M199.624,538.266c33.04,56.894,105.945,76.232,162.84,43.193c56.894-33.039,76.232-105.945,43.192-162.839
		c-33.039-56.895-105.945-76.232-162.839-43.193C185.922,408.466,166.584,481.372,199.624,538.266z M216.54,528.442
		c-14.655-25.235-16.98-54.242-8.827-80.036c7.209-22.807,22.611-43.104,44.927-56.063c47.552-27.614,108.486-11.451,136.099,36.1
		c8.476,14.597,12.828,30.453,13.413,46.221c-0.001,0.001,0,0.002,0,0.002c1.322,35.599-16.556,70.74-49.512,89.878
		C305.088,592.157,244.155,575.994,216.54,528.442z"/>
	<path class="st37" d="M207.713,448.406c0,0,103.693-78.736,194.439,26.259c0,0-0.001-0.001,0-0.002
		c-0.586-15.767-4.937-31.624-13.413-46.221c-27.613-47.551-88.547-63.714-136.099-36.1
		C230.325,405.302,214.922,425.598,207.713,448.406z"/>
	<g>
		<g>
			<path class="st38" d="M340.288,314.941c0,0,1.903-6.438,1.662-7.119c-0.241-0.681-4.722-5.028-4.683-5.554
				c0.04-0.525,5.995-4.199,6.606-5.248c0.611-1.049,1.713,2.019,1.928,4.671c0.215,2.652,0.643,6.873,0.635,7.441
				c-0.008,0.568-1.394,7.805-1.394,7.805L340.288,314.941z"/>
		</g>
		<g>
			<path class="st39" d="M323.038,324.9c0,0,0.111,0.668,0.279,1.671v0.001c0.104,0.621,0.23,1.371,0.365,2.169
				c0.418,2.484,0.921,5.439,1.111,6.458c0.348,1.875,1.53,6.212,3.006,8.259c0.612,0.85,2.218,1.249,3.034,1.324
				c0.94,0.086,3.418,1.043,6.318-3.539c2.9-4.582,7.509-20.7,7.753-21.575c0.243-0.875,0.949-3.334,0.949-3.334l-5.965-2.109
				c0,0-4.285,11.635-4.891,13.239c-0.46,1.217-3.145,6.103-3.28,6.253c-0.136,0.151-0.473-13.34-0.473-13.34L323.038,324.9z"/>
		</g>
		<g>
			<g>
				<path class="st17" d="M349.321,412.507c0,0,4.401,7.46,6.259,8.679c2.522,1.654,0.942,3.327-0.256,3.328
					c-1.198,0.001-7.316,0.439-8.664-1.091c-1.348-1.53-2.017-6.115-3.271-7.314c-1.254-1.199-2.549-5.965,0.611-7.124
					C346.793,407.961,349.321,412.507,349.321,412.507z"/>
			</g>
		</g>
		<g>
			<g>
				<path class="st19" d="M347.415,409.225c0,0,5.041,8.738,5.909,10.028c0.869,1.291-1.636,1.289-3.188,0.676
					c-1.552-0.613-5.456-6.88-6.016-8.021c-0.669-1.362-0.119-2.922-0.119-2.922L347.415,409.225z"/>
			</g>
		</g>
		<g>
			<g>
				<polygon class="st17" points="342.308,413.926 343.472,422.884 344.088,422.91 343.896,416.467 				"/>
			</g>
		</g>
		<g>
			<g>
				<path class="st17" d="M305.675,412.507c0,0,4.401,7.46,6.259,8.679c2.522,1.654,0.942,3.327-0.256,3.328
					c-1.198,0.001-7.316,0.439-8.664-1.091c-1.348-1.53-2.017-6.115-3.271-7.314c-1.254-1.199-2.591-6.089,0.611-7.124
					C303.163,408.078,305.675,412.507,305.675,412.507z"/>
			</g>
		</g>
		<g>
			<g>
				<path class="st19" d="M304.034,409.243c0,0,4.776,8.719,5.645,10.01c0.869,1.291-1.636,1.289-3.188,0.676
					c-1.552-0.613-5.456-6.88-6.016-8.021c-0.669-1.362-0.119-2.922-0.119-2.922L304.034,409.243z"/>
			</g>
		</g>
		<g>
			<g>
				<polygon class="st17" points="298.663,413.926 299.827,422.884 300.443,422.91 300.251,416.467 				"/>
			</g>
		</g>
		<g>
			<g>
				<path class="st19" d="M286.148,344.606l39.828,18.148c0,0,0.947,0.309,2.019,1.126v0.001c0.404,0.309,0.826,0.691,1.222,1.158
					c0.82,0.969,1.523,2.302,1.704,4.096c1.555,15.407,13.08,39.851,13.08,39.851c3.698,1.807,3.415,0.238,3.415,0.238
					c-2.331-7.481-5.167-38.312-6.18-50.707c-0.214-2.626-0.347-4.424-0.376-4.999c-0.019-0.392-0.447-0.903-1.185-1.501
					c-5.465-4.432-27.954-13.606-27.954-13.606C294.836,337.983,286.148,344.606,286.148,344.606z"/>
			</g>
		</g>
		<g>
			<g>
				<path class="st19" d="M283.221,350.836c1.233,10.766,12.021,11.095,12.021,11.095h18.625c0,0-4.892,10.886-6.781,20.068
					c-2.005,9.745-6.73,26.986-6.73,26.986s0.309,0.586,3.679,0.258c0,0,14.62-29.139,20.216-36.464
					c1.204-1.576,4.654-10.133,5.249-15.237c0.2-1.718,0.077-3.044-0.565-3.583c-0.646-0.541-2.131-1.561-4.112-2.81
					c-5.834-3.679-15.965-9.342-21.61-10.611c-7.56-1.699-16.251-4.884-16.251-4.884S281.989,340.071,283.221,350.836z"/>
			</g>
		</g>
		<g>
			<path class="st17" d="M311.923,361.932h-16.682c0,0-12.132,0.316-13.551-10.426c-1.19-9.012,4.457-15.204,4.457-15.204
				s5.666,1.516,12.753,3.228c3.548-0.754,7.825-1.244,12.82-1.118c0,0,21.169,4.263,29.001,14.704
				C340.722,353.115,328.294,346.846,311.923,361.932z"/>
		</g>
		<g>
			<path class="st19" d="M329.948,291.323c-0.063,1.209-0.086,2.422-0.101,3.593c-0.005,0.363,0.009,0.726,0.038,1.087
				c0.177,2.137,0.947,4.199,2.159,5.796c0.001,0.001,0.001,0.001,0.001,0.001s0,0.001,0.001,0.001
				c1.716,2.259,4.314,3.583,7.362,2.859c5.566-1.322,9.27-19.387,9.27-19.387c-1.522-7.069-10.948-7.481-14.727-4.952
				C330.968,282.319,330.182,286.792,329.948,291.323z"/>
		</g>
		<g>
			<path class="st39" d="M285.246,336.823c0,0,0.171,2.067,15.947,4.561c0.43,0.068,0.842,0.135,1.238,0.2
				c1.455,0.24,2.691,0.463,3.748,0.658c7.482,1.375,5.971,1.339,9.082-3.881c0.427-0.715,3.299-7.466,4.381-8.102
				c1.082-0.637,3.107-2.767,3.947-4.086c0.84-1.317,4.017-0.468,6.985-3.066c2.966-2.598,1.737-6.337,1.918-9.36
				c0.316-5.304-1.692-11.353-1.692-11.353c-8.313-15.573-20.424-3.219-22.634-0.983c-2.21,2.236-9.714,20.669-11.766,23.003
				C289.112,332.702,285.246,336.823,285.246,336.823z"/>
		</g>
		<g>
			<path class="st19" d="M322.339,295.47c0,0,1.232,15.162,4.852,16.874c3.723,1.761,2.419-13.149,2.419-13.149
				S326.55,292.935,322.339,295.47z"/>
		</g>
		<g>
			<path class="st32" d="M344.336,286.382c0,0,1.917,6.252,1.573,8.716c0,0,2.507-3.37,3.004-6.453
				c0.495-3.067,1.969-8.026-2.639-11.817C341.666,273.037,344.336,286.382,344.336,286.382z"/>
		</g>
		<g>
			<path class="st19" d="M325.539,299.942c0.015,3.741,3.995,5.847,4.297,4.069c0.034-0.199,0.497-0.685,0.844-1.042l0-0.002
				c0.138-0.141,0.257-0.262,0.323-0.335c0.267-0.296,0.632-0.575,1.042-0.832c1.525-0.957,3.67-1.605,3.67-1.605l-4.024-11.018
				c0,0-0.759,0.863-1.742,2.145C328.126,293.699,325.529,297.511,325.539,299.942z"/>
		</g>
		<g>
			<path class="st40" d="M330.68,302.967c0.138-0.141,0.257-0.262,0.323-0.335c0.267-0.296,0.632-0.575,1.042-0.832
				c0,0-1.975-2.705-2.159-5.798C329.885,296.002,329.009,298.353,330.68,302.967z"/>
		</g>
		<g>
			<g>
				<g>
					<g>
						<g>
							<path class="st41" d="M316.479,370.22c0,0-0.461-0.554-0.545-0.895c0,0-0.104-0.632-0.206-1.076
								c-0.033-0.141-0.064-0.263-0.093-0.34c-0.119-0.321-0.477-0.988-0.548-1.839c-0.071-0.849,0.567-4.593,0.567-4.593
								l2.121-0.23l1.955-0.498c0,0,3.056,4.235,3.214,5.019c0.015,0.077,0.027,0.153,0.033,0.226
								c0.069,0.677-0.164,1.21-0.168,1.569c-0.003,0.132-0.114,1.442-0.437,1.666c-0.448,0.311-0.884,0.345-1.231,0.206
								c0,0-0.904,0.571-1.618,0.482c0,0-0.817,0.553-1.674,0.19C317.849,370.108,316.957,370.577,316.479,370.22z"/>
						</g>
					</g>
				</g>
			</g>
		</g>
		<g>
			<path class="st39" d="M315.944,307.198c0,0,2.083-7.829-3.352-7.711c-5.436,0.117-5.809,6.902-5.966,8.246
				c-0.157,1.344-2.016,17.191-1.802,20.189c0.214,2.999-0.386,7.086,0.253,11.059c0.479,2.978,10.153,23.717,10.311,23.798
				c0.158,0.082,4.937-1.872,4.937-1.872s-6.202-20.239-7.026-22.117c-1.277-2.913-0.779-5.041-0.839-6.477
				C312.4,330.877,315.704,308.414,315.944,307.198z"/>
		</g>
		<g>
			<path class="st32" d="M345.093,287.039c0,0-2.624,4.624-6.706,3.531c-4.082-1.092-7.084-0.026-7.578,1.696
				c-0.494,1.722-3.994,10.947-7.696,10.649c-3.702-0.299-6.399-5.922-8.481-4.822c-2.082,1.1-4.357,7.323-7.07,5.648
				c-2.714-1.676-2.183-7.411,3.614-9.894c5.798-2.483,9.924-2.484,11.615-5.717c1.691-3.233,5.899-12.048,9.921-13.794
				c2.982-1.295,6.526-2.264,12.116,1.361c5.591,3.625,3.85,9.577,3.85,9.577L345.093,287.039z"/>
		</g>
		<path class="st33" d="M327.995,363.88v0.001c0.404,0.309,0.826,0.691,1.222,1.158c0,0,0.821-3.071,0.352-8.295
			C329.569,356.744,329.548,358.99,327.995,363.88z"/>
		<path class="st42" d="M302.431,341.583c1.455,0.24,2.691,0.463,3.748,0.658c0-0.001,0-0.001,0-0.001s-1.157-2.665-1.145-3.539
			c0.01-0.874-0.552-10.371,0.184-17.682c0.735-7.311,0.68-6.794,0.68-6.794S300.855,329.281,302.431,341.583z"/>
		<path class="st42" d="M323.317,326.57v0.001c0.104,0.621,0.099,0.6,0.234,1.398c4.647-1.695,5.92-3.919,5.979-4.032
			c-1.588,1.158-3.79,1.296-4.911,1.565C323.497,325.771,323.317,326.57,323.317,326.57z"/>
	</g>
	<g>
		<g>
			<g>
				<g>
					<g>
						<g>
							<path class="st43" d="M352.317,448.535c0,0,6.66,3.257,5.013,12.119c-1.647,8.862-2.375,10.056-0.534,13.518
								c1.842,3.462,4.015,18.233,2.357,21.033c-1.658,2.8-20.517-12.303-23.133-24.974c-2.615-12.671,1.658-18.307,3.168-20.407
								C340.699,447.724,346.438,445.551,352.317,448.535z"/>
						</g>
					</g>
				</g>
			</g>
		</g>
		<g>
			<g>
				<polygon class="st44" points="296.597,431.812 324.641,431.812 324.641,452.139 324.641,456.42 320.36,452.139 296.597,452.139 
									"/>
			</g>
		</g>
		<g>
			<path class="st32" d="M355.173,637.091c0,0,0.673,1.592,1.945,3.251c0.932,1.216,3.831,6.211,5.108,6.559
				c1.277,0.348,5.224,1.045,5.573,3.25c0.348,2.206,0.522,3.773-3.367,3.947c-3.889,0.174-6.443,0.407-8.301-2.322
				c-1.857-2.728-4.818-4.702-4.818-4.702v7.119h-1.509c0,0-0.697-7.409-1.103-7.931c-0.406-0.522-1.451-6.211,2.148-9.172
				C354.448,634.13,355.173,637.091,355.173,637.091z"/>
		</g>
		<g>
			<path class="st19" d="M362.226,646.901c0,0-3.483,0.87-4.818,0c-1.335-0.871-5.874-8.543-7.378-9.002
				c0,0,1.457-2.956,5.143-0.808C355.173,637.091,361.24,645.624,362.226,646.901z"/>
		</g>
		<g>
			<g>
				<g>
					<g>
						<path class="st19" d="M396.221,515.588c0,0,2.416,0.464,3.242-0.673c0.702-0.966,2.307-1.707,2.801-1.936
							c0.66-0.307,2.336-2.002,2.731-1.173s-2.629,2.928-3.175,3.495c-0.546,0.567,2.965,0.817,3.57,1.369
							c0.606,0.551-0.139,6.343-2.529,5.892c-2.39-0.451-4.645-2.51-5.081-2.506c-0.436,0.004-1.752-0.259-1.752-0.259
							L396.221,515.588z"/>
					</g>
				</g>
			</g>
		</g>
		<g>
			<g>
				<g>
					<g>
						<path class="st19" d="M404.857,516.433c0,0,7.225,1.866,7.602,2.394c0.377,0.527,0.253,0.913-0.43,0.766
							c-0.683-0.146-7.032-1.601-7.032-1.601s8.179,3.646,8.583,4.01c0.236,0.214,0.04,0.974-0.333,0.93
							c-0.373-0.044-8.686-3.194-8.686-3.194s7.631,3.418,7.877,3.823c0.216,0.355-0.139,1.007-0.723,0.793
							c-0.583-0.215-7.845-2.986-7.845-2.986s5.397,2.837,5.404,3.303c0.004,0.285-0.135,0.95-1.505,0.174
							c-1.37-0.775-4.793-2.266-4.793-2.266L404.857,516.433z"/>
					</g>
				</g>
			</g>
		</g>
		<g>
			<path class="st32" d="M335.704,641.705c0,0,3.889,5.776,5.457,7.169c0,0,3.483,1.277,3.831,3.715
				c0.348,2.438,0.29,4.065-3.831,4.181c-4.121,0.116-6.823-0.624-7.578-3.12s-2.406-4.195-2.406-4.195v5.224h-0.929
				c0,0-0.232-5.05-0.29-5.979c-0.058-0.929-0.667-4.5,1.292-6.081C333.208,641.038,335.704,641.705,335.704,641.705z"/>
		</g>
		<g>
			<path class="st45" d="M333.092,530.225c0,0-4.911,6.385-6.243,13.96c-1.332,7.575,0.787,33,0.729,36.744
				c-0.058,3.744-3.541,13.061-2.844,20.114c0.697,7.053,3.446,42.156,3.446,42.156l7.526-1.493c0,0-0.435-35.786,0-38.747
				c0.435-2.961,1.309-13.752,1.483-14.97c0.174-1.219,11.055-33.228,11.055-38.69S344.934,521.315,333.092,530.225z"/>
		</g>
		<g>
			<path class="st45" d="M357.762,532.721c0,0,8.069,30.794,9.027,35.061c0.957,4.266,2.345,7.785,2.345,9.596
				c0,4.203-1.561,10.952-1.561,10.952l-10.246,49.003h-9.759c0,0,5.437-29.399,5.583-35.147c0.147-5.761,4.582-13.943,3.711-16.381
				c-0.871-2.438-14.018-30.562-14.018-30.562S332.889,523.782,357.762,532.721z"/>
		</g>
		<g>
			<path class="st19" d="M341.161,648.874c0,0-3.983,2.227-6.547-0.632c-2.165-2.414-3.364-5.623-3.364-5.623l4.455-0.914
				L341.161,648.874z"/>
		</g>
		<g>
			<g>
				<path class="st46" d="M354.43,480.39c0,0,3.327,0.314,5.84,3.007c2.513,2.693,4.872,6.988,5.531,8.424
					c0.658,1.436,9.886,14.748,10.365,15.047c0.479,0.299,5.117,1.849,8.191,2.883c4.743,1.596,14.251,5.052,14.251,5.052
					l-1.888,5.978c0,0-17.878-5.85-22.355-6.953c-5.475-1.349-18.079-17.518-18.079-17.518S346.889,485.297,354.43,480.39z"/>
			</g>
		</g>
		<g>
			<g>
				<path class="st47" d="M348.625,478.056c0,0,4.309,2.035,5.805,2.334c1.496,0.299,7.301,7.84,8.319,10.593
					c1.017,2.753,0,6.883-2.095,11.73c-2.094,4.848-0.12,6.463-1.077,11.311c-0.958,4.848-0.65,22.982-0.47,25.676
					c0.179,2.693-28.012,6.775-33.578,1.868c0,0,3.768-16.344,8.229-21.009c0.965-1.009,0.863-7.732,0.204-9.408
					c-0.658-1.676-8.079-14.184-8.079-14.184s-0.545-12.686,2.693-15.201c2.813-2.185,10.479-2.963,11.855-3.442
					C341.808,477.846,345.812,477.637,348.625,478.056z"/>
			</g>
		</g>
		<g>
			<g>
				<path class="st19" d="M350.682,473.084c0,0-0.129,1.186-0.277,2.79c-0.057,0.634-0.12,1.335-0.177,2.052
					c-0.172,2.149-0.309,4.456-0.226,5.637c0,0-4.479,4.488-9.57-5.237c0,0,2.141-4.01,0.529-9.47
					C339.349,463.394,350.682,473.084,350.682,473.084z"/>
			</g>
		</g>
		<g>
			<path class="st48" d="M363.215,504.501c0,0,1.078-7.169-0.068-11.528c0,0,0,3.749-2.056,9.072L363.215,504.501z"/>
		</g>
		<g>
			<path class="st19" d="M336.991,479.015c0,0,3.08,9.097,11.537,8.428c8.457-0.669,4.009-7.682,4.009-7.682
				s-2.108-1.209-2.701-1.323c-0.593-0.114-9.35-0.225-9.35-0.225L336.991,479.015z"/>
		</g>
		<g>
			<path class="st46" d="M352.537,479.762c0,0,4.429,12.252,4.429,24.739c0,12.487,0.357,32.828,1.903,39.252
				c1.546,6.423,5.948,26.289,5.948,26.289l3.45-1.784c0,0-8.296-31.705-8.922-33.991c-0.626-2.286,0.476-26.438,1.071-28.461
				c0.595-2.022,3.125-11.024,2.732-13.521c-0.496-3.148-3.442-7.807-8.2-11.812L352.537,479.762z"/>
		</g>
		<g>
			<path class="st46" d="M338.662,478.632c0,0,2.753,8.815,4.148,20.104c1.395,11.29-4.282,63.692-8.089,75.588l-14.75-2.379
				c0,0,3.175-37.041,7.485-43.782c4.31-6.741,5.682-12.705,1.029-26.774c-4.653-14.07,2.04-21.037,2.04-21.037
				S337.369,478.778,338.662,478.632z"/>
		</g>
		<g>
			<polygon class="st49" points="354.576,516.013 336.691,546.991 316.809,535.512 333.917,504.086 			"/>
		</g>
		<g>
			<polygon class="st50" points="352.42,517.079 336.536,544.591 318.878,534.396 334.072,506.485 			"/>
		</g>
		<g>
			<polygon class="st49" points="346.56,514.607 347.675,512.676 340.536,508.555 339.142,510.325 			"/>
		</g>
		<g>
			<g>
				<g>
					<g>
						<g>
							<g>
								<path class="st19" d="M345.708,536.586c0,0-0.813,0.004-1.17-0.168c0,0-0.625-0.362-1.084-0.593
									c-0.146-0.073-0.275-0.133-0.362-0.163c-0.365-0.126-1.203-0.294-1.994-0.843c-0.79-0.548-3.591-3.79-3.591-3.79
									l1.323-2.011l0.97-2.06c0,0,5.88,0.38,6.676,0.806c0.077,0.042,0.153,0.086,0.22,0.133c0.639,0.426,0.935,1.011,1.245,1.273
									c0.113,0.097,1.173,1.134,1.136,1.576c-0.051,0.613-0.334,1.018-0.704,1.22c0,0-0.152,1.196-0.742,1.755
									c0,0-0.105,1.108-1.036,1.593C346.594,535.313,346.361,536.425,345.708,536.586z"/>
							</g>
						</g>
					</g>
				</g>
			</g>
		</g>
		<g>
			<g>
				<path class="st46" d="M333.588,480.39c0,0-5.431-1.556-8.543,4.429c-3.112,5.985-3.097,8.538-3.513,11.46
					c-0.393,2.76-2.166,10.294-2.345,11.072c-0.18,0.778-4.195,10.056-2.354,13.298c1.851,3.259,20.649,12.853,20.53,13.572
					c-0.12,0.718,3.256-7.254,3.256-7.254s-7.606-4.24-8.852-5.545c-2.024-2.12-6.292-4.405-5.415-7.036
					c1.03-3.09,4.125-13.515,4.843-15.041C331.912,497.819,338.166,482.335,333.588,480.39z"/>
			</g>
		</g>
		<g>
			<g>
				<g>
					<g>
						<g>
							<path class="st51" d="M351.351,449.517c0,0,9.669,3.039,4.42,19.725c-5.249,16.686-18.454-1.934-17.073-12.101
								C340.079,446.976,351.351,449.517,351.351,449.517z"/>
						</g>
					</g>
				</g>
			</g>
		</g>
		<g>
			<g>
				<g>
					<g>
						<g>
							<path class="st43" d="M356.759,459.253c0,0-4.805,4.715-12.845,5.305c0,0-3.09,3.623-3.327,5.045
								c0,0-7.174-12.228,1.644-19.558C351.05,442.715,360.001,456.233,356.759,459.253z"/>
						</g>
					</g>
				</g>
			</g>
		</g>
		<g>
			<g>
				<g>
					<g>
						<g>
							<path class="st51" d="M344.011,464.89c-0.062-1.214-0.811-3.978-2.615-3.204c-1.805,0.774,0.111,6.402,1.308,6.055
								C342.703,467.741,344.158,467.763,344.011,464.89z"/>
						</g>
					</g>
				</g>
			</g>
		</g>
		<g>
			<path class="st40" d="M350.405,475.873c-0.057,0.634-0.12,1.335-0.177,2.052c0,0-4.268-0.255-7.12-6.603
				C343.293,471.6,346.42,476.194,350.405,475.873z"/>
		</g>
	</g>
</g>
<g id="Layer_2" class="st52">
	<g class="st53">
		<rect x="-1120" y="-8" class="st54" width="1065.547" height="726"/>
		<g>
			<defs>
				
					<filter id="Adobe_OpacityMaskFilter_4_" filterUnits="userSpaceOnUse" x="-676.651" y="618.772" width="150.924" height="11.748">
					<feFlood  style="flood-color:white;flood-opacity:1" result="back"/>
					<feBlend  in="SourceGraphic" in2="back" mode="normal"/>
				</filter>
			</defs>
			<mask maskUnits="userSpaceOnUse" x="-676.651" y="618.772" width="150.924" height="11.748" id="SVGID_8_">
				<g class="st55">
					<defs>
						
							<filter id="Adobe_OpacityMaskFilter_5_" filterUnits="userSpaceOnUse" x="-676.651" y="618.772" width="150.924" height="11.748">
							<feFlood  style="flood-color:white;flood-opacity:1" result="back"/>
							<feBlend  in="SourceGraphic" in2="back" mode="normal"/>
						</filter>
					</defs>
					<mask maskUnits="userSpaceOnUse" x="-676.651" y="618.772" width="150.924" height="11.748" id="SVGID_8_">
						<g class="st56">
						</g>
					</mask>
					<linearGradient id="SVGID_9_" gradientUnits="userSpaceOnUse" x1="-698.204" y1="626.5012" x2="-501.954" y2="622.7477">
						<stop  offset="0" style="stop-color:#FFFFFF"/>
						<stop  offset="1" style="stop-color:#000000"/>
					</linearGradient>
					<path class="st57" d="M-525.728,624.646c0,3.244-33.785,5.874-75.462,5.874c-41.677,0-75.462-2.63-75.462-5.874
						c0-3.244,33.785-5.874,75.462-5.874C-559.513,618.772-525.728,621.402-525.728,624.646z"/>
				</g>
			</mask>
			<linearGradient id="SVGID_10_" gradientUnits="userSpaceOnUse" x1="-698.204" y1="626.5012" x2="-501.954" y2="622.7477">
				<stop  offset="0" style="stop-color:#FF9F55"/>
				<stop  offset="1" style="stop-color:#FFD255"/>
			</linearGradient>
			<path class="st58" d="M-525.728,624.646c0,3.244-33.785,5.874-75.462,5.874c-41.677,0-75.462-2.63-75.462-5.874
				c0-3.244,33.785-5.874,75.462-5.874C-559.513,618.772-525.728,621.402-525.728,624.646z"/>
			<defs>
				
					<filter id="Adobe_OpacityMaskFilter_6_" filterUnits="userSpaceOnUse" x="-410.687" y="613.661" width="150.924" height="11.747">
					<feFlood  style="flood-color:white;flood-opacity:1" result="back"/>
					<feBlend  in="SourceGraphic" in2="back" mode="normal"/>
				</filter>
			</defs>
			<mask maskUnits="userSpaceOnUse" x="-410.687" y="613.661" width="150.924" height="11.747" id="SVGID_11_">
				<g class="st59">
					<defs>
						
							<filter id="Adobe_OpacityMaskFilter_7_" filterUnits="userSpaceOnUse" x="-410.687" y="613.661" width="150.924" height="11.747">
							<feFlood  style="flood-color:white;flood-opacity:1" result="back"/>
							<feBlend  in="SourceGraphic" in2="back" mode="normal"/>
						</filter>
					</defs>
					<mask maskUnits="userSpaceOnUse" x="-410.687" y="613.661" width="150.924" height="11.747" id="SVGID_11_">
						<g class="st60">
						</g>
					</mask>
					<linearGradient id="SVGID_12_" gradientUnits="userSpaceOnUse" x1="-410.6866" y1="619.5344" x2="-259.7627" y2="619.5344">
						<stop  offset="0" style="stop-color:#FFFFFF"/>
						<stop  offset="1" style="stop-color:#000000"/>
					</linearGradient>
					<ellipse class="st61" cx="-335.225" cy="619.534" rx="75.462" ry="5.874"/>
				</g>
			</mask>
			<linearGradient id="SVGID_13_" gradientUnits="userSpaceOnUse" x1="-410.6866" y1="619.5344" x2="-259.7627" y2="619.5344">
				<stop  offset="0" style="stop-color:#FF9F55"/>
				<stop  offset="1" style="stop-color:#FFD255"/>
			</linearGradient>
			<ellipse class="st62" cx="-335.225" cy="619.534" rx="75.462" ry="5.874"/>
			<path class="st63" d="M-341.199,161.804H-623.96c-72.526,4.102-72.205,72.008-72.205,72.008l0,0v324.492h283.115V233.812
				C-413.051,233.812-411.71,165.678-341.199,161.804z"/>
			<g>
				<rect x="-715.97" y="237.913" class="st10" width="3.417" height="249.749"/>
			</g>
			<g>
				<path class="st10" d="M-389.402,123.793H-562.26V42.348h172.857V123.793z M-558.843,120.889h166.024V45.252h-166.024V120.889z"
					/>
			</g>
			<g>
				<path class="st10" d="M-712.554,208.602H-885.41V106.194h172.857V208.602z M-881.994,205.699h166.023v-96.601h-166.023V205.699z
					"/>
			</g>
			<g>
				<path class="st10" d="M-223.18,371.684h-172.856v-81.748h172.856V371.684z M-392.619,368.78h166.023v-75.94h-166.023V368.78z"/>
			</g>
			<path class="st64" d="M-352.504,157.398c-70.511,3.874-71.851,72.008-71.851,72.008v324.492H-707.47V229.406
				c0,0-0.322-67.906,72.205-72.008H-352.504z"/>
			<rect x="-670.293" y="242.167" class="st13" width="194.462" height="14.584"/>
			<rect x="-670.293" y="275.893" class="st13" width="166.044" height="10.33"/>
			<rect x="-670.293" y="303.161" class="st13" width="83.469" height="15.344"/>
			<rect x="-562.159" y="303.161" class="st13" width="86.329" height="15.344"/>
			<rect x="-670.293" y="332.709" class="st13" width="132.978" height="10.938"/>
			<rect x="-670.293" y="360.054" class="st13" width="149.824" height="6.077"/>
			<rect x="-670.293" y="387.398" class="st13" width="180.164" height="6.077"/>
			<g>
				<path class="st13" d="M-586.184,448.709h-84.75v-34.511h84.75V448.709z M-669.653,447.62h82.187v-32.332h-82.187V447.62z"/>
			</g>
			<rect x="-565.913" y="414.743" class="st13" width="75.784" height="7.899"/>
			<rect x="-565.913" y="431.454" class="st13" width="53.714" height="7.9"/>
			<rect x="-670.293" y="469.433" class="st13" width="162.022" height="6.077"/>
			<rect x="-670.293" y="496.778" class="st13" width="85.345" height="6.077"/>
			<g>
				<g>
					<g>
						<g>
							<g>
								<g>
									<path class="st65" d="M-351.435,340.319l-8.35-11.619c-0.684-0.953-0.331-2.197,0.79-2.779
										c1.121-0.582,2.585-0.281,3.27,0.671l5.904,8.217l15.697-7.896c1.131-0.569,2.589-0.251,3.258,0.71
										c0.669,0.961,0.295,2.201-0.835,2.769L-351.435,340.319z"/>
								</g>
							</g>
						</g>
					</g>
				</g>
				<g>
					<path class="st65" d="M-345.829,358.231c-16.557,0-30.028-11.449-30.028-25.522c0-14.073,13.47-25.522,30.028-25.522
						c16.557,0,30.027,11.449,30.027,25.522C-315.802,346.781-329.272,358.231-345.829,358.231z M-345.829,310.833
						c-14.192,0-25.738,9.813-25.738,21.876c0,12.062,11.546,21.876,25.738,21.876c14.192,0,25.738-9.814,25.738-21.876
						C-320.092,320.647-331.638,310.833-345.829,310.833z"/>
				</g>
			</g>
			<polygon class="st65" points="-489.772,74.563 -489.185,85.29 -484.175,85.091 -485.161,67.097 -506.781,67.952 -506.548,72.21 
				-493.479,71.693 -516.517,93.186 -540.488,74.623 -543.865,77.774 -516.187,99.207 			"/>
			<g>
				<path class="st65" d="M-822.93,143.829c-0.489-0.464-1.209-0.964-2.16-1.499c-0.952-0.534-2.053-1.048-3.304-1.537
					c-1.252-0.49-2.626-0.91-4.122-1.261c-1.498-0.352-3.035-0.575-4.615-0.673l-0.055,14.377l1.552,0.282
					c2.939,0.61,5.593,1.289,7.959,2.036c2.367,0.748,4.365,1.656,5.996,2.725c1.63,1.071,2.892,2.381,3.785,3.935
					c0.893,1.555,1.335,3.442,1.327,5.664c-0.01,2.455-0.536,4.548-1.577,6.281c-1.042,1.734-2.478,3.177-4.307,4.329
					c-1.83,1.153-3.958,2.015-6.384,2.587c-2.427,0.572-5.029,0.877-7.807,0.916l-0.028,7.293l-4.249-0.012l0.029-7.432
					c-3.922-0.243-7.651-0.912-11.188-2.011c-3.538-1.097-6.772-2.623-9.707-4.576l4.193-6.656c0.597,0.557,1.466,1.162,2.608,1.813
					c1.142,0.652,2.473,1.281,3.997,1.886c1.522,0.607,3.195,1.144,5.019,1.611c1.823,0.468,3.715,0.798,5.676,0.988l0.055-14.377
					c-0.326-0.093-0.667-0.176-1.02-0.246c-0.355-0.071-0.694-0.152-1.021-0.246c-2.885-0.656-5.402-1.346-7.551-2.07
					c-2.15-0.723-3.93-1.596-5.342-2.619c-1.414-1.022-2.484-2.218-3.214-3.586c-0.73-1.367-1.092-3.024-1.084-4.969
					c0.009-2.268,0.479-4.281,1.412-6.039c0.932-1.757,2.246-3.269,3.94-4.538c1.693-1.268,3.672-2.258,5.936-2.97
					c2.263-0.711,4.757-1.156,7.482-1.334l0.027-7.015l4.249,0.012l-0.027,7.015c3.54,0.196,6.806,0.807,9.799,1.833
					c2.991,1.028,5.63,2.262,7.912,3.703L-822.93,143.829z M-849.903,145.56c-0.008,1.945,0.79,3.406,2.394,4.382
					c1.603,0.976,4.038,1.841,7.304,2.59l0.053-13.682c-3.324,0.129-5.778,0.782-7.362,1.959
					C-849.1,141.986-849.896,143.57-849.903,145.56z M-826.376,168.685c0.008-2.037-0.94-3.579-2.842-4.627
					c-1.904-1.047-4.568-1.992-7.997-2.835l-0.053,13.752c3.486-0.036,6.172-0.584,8.056-1.644
					C-827.329,172.271-826.384,170.723-826.376,168.685z"/>
			</g>
			<rect x="-797.016" y="135.375" class="st14" width="67.83" height="8.203"/>
			<rect x="-797.016" y="153.297" class="st14" width="53.312" height="8.203"/>
			<rect x="-797.016" y="171.218" class="st14" width="59.82" height="8.203"/>
			<rect x="-303.352" y="317.747" class="st14" width="48.465" height="8.204"/>
			<rect x="-303.352" y="335.669" class="st14" width="54.382" height="8.204"/>
			<rect x="-469.575" y="61.047" class="st14" width="61.663" height="8.203"/>
			<rect x="-469.575" y="78.969" class="st14" width="48.466" height="8.203"/>
			<rect x="-469.575" y="96.891" class="st14" width="54.382" height="8.204"/>
			<g>
				<polygon class="st14" points="-350.796,425.918 -403.264,425.918 -403.264,423.014 -354.212,423.014 -354.212,373.422 
					-350.796,373.422 				"/>
			</g>
			<g>
				<polygon class="st14" points="-602.096,152.533 -605.513,152.533 -605.513,138.024 -491.838,138.024 -491.838,127.926 
					-488.421,127.926 -488.421,140.928 -602.096,140.928 				"/>
			</g>
			<g>
				<polygon class="st14" points="-729.186,323 -788.894,323 -788.894,213.607 -785.477,213.607 -785.477,320.096 -729.186,320.096 
									"/>
			</g>
			<g>
				<path class="st10" d="M-403.155,278.551h-3.417v-33.042c-0.045-0.545-4.194-63.981,58.792-73.211l0.581,2.861
					c-59.991,8.791-56.007,69.641-55.96,70.255L-403.155,278.551z"/>
			</g>
			<g>
				<polygon class="st10" points="-214.869,342.05 -218.286,342.05 -218.286,286.077 -288.964,286.077 -288.964,283.173 
					-214.869,283.173 				"/>
			</g>
			<g>
				<polygon class="st10" points="-827.359,216.942 -894.615,216.942 -894.615,163.079 -891.198,163.079 -891.198,214.038 
					-827.359,214.038 				"/>
			</g>
			<g>
				<polygon class="st10" points="-566.645,78.969 -570.062,78.969 -570.062,36.541 -486.616,36.541 -486.616,39.444 
					-566.645,39.444 				"/>
			</g>
			<g>
				<polygon class="st10" points="-401.556,567.919 -462.784,567.919 -462.784,565.015 -404.973,565.015 -404.973,486.256 
					-401.556,486.256 				"/>
			</g>
			<g>
				<g>
					<path class="st15" d="M-359.002,609.026c0,0-4.03,3.596-8.12,4.35c-4.09,0.753-6.952,1.714-6.983,3.778
						c-0.03,2.064,11.773,3.424,16.454,1.343c6.987-3.105,7.697-2.169,8.472-3.721c0.774-1.552-0.931-5.703-0.88-6.196
						C-349.998,607.969-359.002,609.026-359.002,609.026z"/>
				</g>
				<g>
					<path class="st16" d="M-358.549,607.305c0,0-0.532,1.685-0.453,1.721c0.079,0.035,9.218,0.906,8.942-0.446
						c-0.224-1.096-0.544-2.288-0.544-2.288L-358.549,607.305z"/>
				</g>
				<g>
					<path class="st15" d="M-313.484,609.964c0,0-2.964,3.503-6.929,4.311c-3.909,0.797-6.443,2.313-6.634,4.319
						c-0.191,2.006,9.217,4.633,15.828,1.109c4.344-2.315,5.964-2.183,6.839-3.654c0.875-1.471-0.458-5.594-0.371-6.071
						C-304.643,609.387-313.484,609.964-313.484,609.964z"/>
				</g>
				<g>
					<path class="st16" d="M-313.363,608.232c0,0-0.195,1.693-0.121,1.732c0.074,0.038,8.785,1.348,8.733,0.014
						c-0.041-1.06-0.552-2.379-0.552-2.379L-313.363,608.232z"/>
				</g>
				<g>
					<path class="st17" d="M-349.331,506.12c0,0-4.232,26.13-5.961,34.964c-2.021,10.329-2.706,18.862-3.269,24.208
						c-0.709,6.724-0.315,41.133-0.812,43.099c-0.496,1.966,10.008,0.944,10.008,0.944s7.703-44.858,9.815-52.018
						c1.966-6.668,7.374-34.155,9.168-32.335c1.794,1.821,7.603,33.133,8.932,38.392c1.328,5.259,6.694,46.655,6.694,46.655
						s8.928,1.648,11.364,0c0,0-0.544-36.913-1.391-46.772c-0.323-3.757,2.796-44.98-4.679-61.604
						C-313.413,492.866-349.331,506.12-349.331,506.12z"/>
				</g>
				<path class="st18" d="M-349.698,507.367l-0.477,3.924c0,0,12.895,4.44,44.285,4.443v-4.49L-349.698,507.367z"/>
				<g>
					<g>
						<g>
							<path class="st19" d="M-385.859,457.992c0,0-1.878,3.524-2.992,3.744c-1.114,0.22-2.438,1.397-3.393,1.758
								c-0.955,0.361-3.959,0.56-4.765,1.229c-0.329,0.273-1.59,2.624-2.33,3.118c-0.739,0.494-2.377,1.341-1.869,1.869
								c0.508,0.528,2.211,0.111,2.211,0.111s-0.641,0.485-0.365,1.07c0.538,1.137,1.436,1.186,1.436,1.186
								s-0.286,0.855,0.078,1.278c0.802,0.933,1.673,0.959,1.673,0.959s0.076,0.661,0.775,1.175c0.894,0.658,1.996,0.28,1.996,0.28
								s0.894,1.047,1.718,0.843c0.824-0.205,1.302-0.729,1.89-1.036c0.588-0.307,4.694-4.333,6.206-8.097
								c1.511-3.765,4.14-6.824,4.14-6.824L-385.859,457.992z"/>
						</g>
					</g>
				</g>
				<g>
					<path class="st20" d="M-385.007,475.811c0,0,14.591,5.641,19.776,4.557c2.397-0.501,5.554-3.313,8.554-6.619
						c0.989-1.089,1.959-2.232,2.882-3.363c0.003-0.002,0.003-0.005,0.003-0.005c3.68-4.517,6.565-8.846,6.565-8.846
						s10.879-10.836,2.149-15.667c0,0-3.168-1.009-6.077,1.641c-2.912,2.651-6.328,8.195-7.091,9.61
						c-0.763,1.412-11.449,14.513-12.003,14.808c-0.554,0.295-5.223-0.749-8.967-1.014c-6.104-0.433-4.893-0.652-4.893-0.652
						L-385.007,475.811z"/>
				</g>
				<path class="st20" d="M-336.913,443.451c0,0-11.199,1.968-12.528,2.969c-1.443,1.065-3.987,11.491-4.139,14.395
					c-0.151,2.904,1.351,15.035,2.793,19.553c1.442,4.518-1.9,23.748,0.777,26.917c0,0,23.082,6.294,45.254,3.842
					c0,0-4.76-18.149-3.873-24.339c1.137-7.93,3.873-26.202,3.873-26.202s-2.962-12.303-4.936-13.722
					c-1.974-1.42-15.698-3.73-15.698-3.73L-336.913,443.451z"/>
				<path class="st21" d="M-311.974,468.279c0,0,2.115,11.699,1.967,12.449C-310.155,481.479-300.432,478.379-311.974,468.279z"/>
				<g>
					<path class="st22" d="M-263.151,532.711l9.729-13.724c1.648-2.326,0.767-5.346-1.969-6.748l-24.377-12.484
						c-2.736-1.401-6.29-0.652-7.939,1.674l-9.729,13.725c-1.648,2.325-0.767,5.346,1.969,6.747l24.377,12.484
						C-268.354,535.786-264.8,535.037-263.151,532.711z"/>
					<polygon class="st23" points="-284.452,528.624 -267.628,504.891 -434.073,419.654 -450.896,443.387 					"/>
					<polygon class="st24" points="-439.681,427.565 -273.236,512.802 -267.628,504.891 -434.073,419.654 					"/>
					<polygon class="st25" points="-278.844,520.713 -273.236,512.802 -439.68,427.565 -445.288,435.476 					"/>
					<polygon class="st23" points="-284.452,528.624 -278.844,520.713 -445.288,435.476 -450.896,443.387 					"/>
					<polygon class="st26" points="-450.896,443.386 -434.073,419.654 -471.842,413.179 -481.554,411.513 -475.283,418.033 					"/>
					<path class="st27" d="M-439.681,427.565c2.492,1.276,5.767,0.539,7.315-1.646c1.548-2.184,0.785-4.99-1.708-6.266
						L-439.681,427.565z"/>
					<path class="st28" d="M-445.289,435.476c2.492,1.276,5.767,0.539,7.315-1.646c1.549-2.184,0.785-4.99-1.707-6.266
						L-445.289,435.476z"/>
					<path class="st26" d="M-450.897,443.387c2.492,1.276,5.767,0.539,7.315-1.646c1.549-2.184,0.785-4.989-1.707-6.266
						L-450.897,443.387z"/>
					<polygon class="st29" points="-277.74,510.496 -267.512,515.734 -261.904,507.822 -272.132,502.584 					"/>
					<polygon class="st30" points="-273.12,523.644 -267.512,515.733 -277.739,510.496 -283.347,518.407 					"/>
					<polygon class="st31" points="-278.727,531.555 -273.12,523.644 -283.347,518.407 -288.955,526.318 					"/>
					<polygon class="st27" points="-439.68,427.565 -481.554,411.513 -434.073,419.654 					"/>
					<polygon class="st28" points="-445.288,435.476 -481.554,411.513 -439.68,427.565 					"/>
					<polygon class="st26" points="-445.288,435.476 -481.554,411.513 -450.897,443.387 					"/>
					<polygon class="st23" points="-475.283,418.033 -471.842,413.179 -481.554,411.513 					"/>
				</g>
				<g>
					<g>
						<g>
							<g>
								<g>
									<path class="st19" d="M-334.917,507.601c0,0,1.034-0.074,1.468-0.295c0,0,0.753-0.452,1.311-0.746
										c0.177-0.093,0.334-0.171,0.442-0.211c0.45-0.172,1.496-0.434,2.44-1.104c0.943-0.668,4.136-4.443,4.136-4.443
										l-1.911-2.046l-1.467-2.132c0,0-7.434,0.978-8.397,1.515c-0.093,0.053-0.184,0.108-0.264,0.165
										c-0.764,0.522-1.074,1.183-1.438,1.496c-0.133,0.116-1.363,1.339-1.266,1.813c0.134,0.658,0.541,1.068,1.034,1.251
										c0,0,0.329,1.278,1.142,1.824c0,0,0.259,1.188,1.498,1.622C-336.189,506.31-335.767,507.49-334.917,507.601z"/>
								</g>
							</g>
						</g>
					</g>
				</g>
				<path class="st20" d="M-315.859,446.601c-1.469,0.484-3.025,3.503-1.868,9.426c1.242,6.355,3.71,9.069,4.702,10.554
					c0.992,1.485,6.449,10.641,5.469,11.846c-0.981,1.205-10.245,8.974-10.782,9.606c-0.536,0.633-10.88,8.591-10.88,8.591
					l5.267,6.255c0,0,22.336-14.829,24.079-16.31c1.743-1.48,6.952-4.591,5.025-9.763c-1.959-5.256-5.477-17.563-6.103-18.525
					C-301.576,457.32-306.149,443.405-315.859,446.601z"/>
				<g>
					<g>
						<path class="st19" d="M-398.768,469.354c0,0,3.581-3.391,5.367-3.329c1.785,0.062,0.571,1.346,0.571,1.346
							s1.177-1.287,2.449-0.608c1.272,0.679-0.241,2.119-0.241,2.119s1.192-0.774,2.134,0.294c0.942,1.069-0.624,2.022-0.624,2.022
							s2.365-0.299,1.861,1.343c-0.851,2.772-4.372,4.096-4.372,4.096s-1.006,0.334-1.829-0.749c0,0-2.225,0.71-2.838-1.468
							c0,0-2.669-0.525-1.851-2.281C-398.139,472.14-400.822,471.262-398.768,469.354z"/>
					</g>
				</g>
				<path class="st18" d="M-341.982,444.417c0,0-0.672-2.604,8.918-3.207c9.591-0.604,16.078,1.228,16.259,3.567
					c0.181,2.339-24.296,8.177-24.296,8.177L-341.982,444.417z"/>
				<path class="st19" d="M-332.283,414.018c0,0-13.471-4.237-12.629,10.98c0.842,15.217,3.999,16.763,12.861,14.638
					c8.862-2.125,9.604-11.729,10.759-16.349C-320.139,418.667-327.878,414.682-332.283,414.018z"/>
				<path class="st19" d="M-339.131,445.861c0,0,3.228,1.209,13.74-2.727c0,0-0.297-6.126,1.765-11.847
					c2.062-5.721-14.107,7.628-14.107,7.628c0.169,0.102,0.202,0.674,0.105,1.471c-0.082,0.676-0.257,1.514-0.518,2.364
					C-338.736,444.664-338.599,444.324-339.131,445.861z"/>
				<path class="st32" d="M-323.165,430.833c0,0,0.038-4.065-1.95-4.439c-1.989-0.374-3.013,1.976-3.013,1.976l-1.601-0.073
					c0,0,1.431-4.119-0.465-5.064c-1.896-0.944-13.238-0.115-14.662-1.502s0.641-9.623,3.735-10.432
					c3.095-0.808,11.548-2.448,16.916,1.615c0,0,4.611,1.693,4.798,4.925C-319.22,421.072-321.547,428.629-323.165,430.833z"/>
				<path class="st33" d="M-338.145,442.751c10.442-1.492,12.002-6.539,12.025-6.618c-4.059,4.449-11.507,4.254-11.507,4.254
					C-337.709,441.063-337.883,441.901-338.145,442.751z"/>
				<path class="st19" d="M-327.367,424.668c0.595-1.341,3.955-1.172,3.611,0.954c-0.344,2.126-3.121,5.4-4.236,4.786
					C-329.107,429.794-328.187,426.517-327.367,424.668z"/>
			</g>
			<g>
				<path class="st13" d="M-448.334,512.889h-53.473v-45.45h53.473V512.889z M-496.682,508.533h43.223v-36.738h-43.223V508.533z"/>
			</g>
			<g>
				<polygon class="st13" points="-474.237,499.772 -493.059,484.691 -487.2,479.408 -473.849,490.105 -444.583,469.667 
					-439.16,475.276 				"/>
			</g>
			<path class="st34" d="M-491.241,382.519c-39.947-58.472-128.109-78.352-196.915-44.389c-6.906,3.409-13.351,7.228-19.314,11.403
				v28.083c8.612-8.595,19.057-16.106,31.196-22.104c57.502-28.384,131.187-11.768,164.582,37.107
				c10.252,15.003,15.507,31.301,16.215,47.507c0.053,1.267,0.086,2.525,0.086,3.792c0,35.275-21.48,69.602-59.958,88.588
				c-51.154,25.239-115.123,14.884-152.121-22.122v28.111c8.697,6.107,18.156,11.257,28.129,15.404h127.069
				c2.971-1.24,5.898-2.58,8.805-4.01C-474.673,515.935-451.283,441.001-491.241,382.519z"/>
			<g>
				<polygon class="st47" points="-932.537,672.007 -753.694,545.324 -779.034,519.481 -957.876,646.165 				"/>
				<polygon class="st35" points="-756.747,542.21 -747.194,535.444 -766.428,515.828 -775.981,522.595 				"/>
				<path class="st36" d="M-777.66,505.495c39.953,58.476,128.115,78.352,196.915,44.394
					c68.799-33.958,92.184-108.891,52.23-167.368c-39.953-58.477-128.115-78.352-196.914-44.394
					C-794.229,372.085-817.613,447.018-777.66,505.495z M-757.204,495.397c-17.721-25.937-20.533-55.75-10.674-82.262
					c8.717-23.441,27.343-44.303,54.328-57.622c57.502-28.382,131.187-11.769,164.578,37.104c10.25,15.002,15.512,31.3,16.22,47.506
					c-0.002,0.001,0,0.002,0,0.002c1.599,36.589-20.021,72.707-59.872,92.377C-650.127,560.884-723.811,544.271-757.204,495.397z"/>
				<path class="st37" d="M-767.877,413.135c0,0,125.391-80.925,235.125,26.99c0,0-0.001-0.001,0-0.002
					c-0.708-16.206-5.97-32.503-16.22-47.506c-33.392-48.873-107.076-65.486-164.578-37.104
					C-740.535,368.833-759.16,389.694-767.877,413.135z"/>
			</g>
			<g>
				<g>
					<path class="st38" d="M-607.561,275.959c0,0,2.301-6.617,2.01-7.317c-0.291-0.7-5.711-5.168-5.662-5.708
						c0.048-0.54,7.249-4.316,7.988-5.394c0.739-1.078,2.072,2.075,2.331,4.801c0.259,2.725,0.778,7.064,0.768,7.648
						c-0.01,0.584-1.686,8.022-1.686,8.022L-607.561,275.959z"/>
				</g>
				<g>
					<path class="st39" d="M-628.421,286.195c0,0,0.134,0.687,0.338,1.717v0.001c0.126,0.638,0.278,1.409,0.441,2.23
						c0.506,2.553,1.113,5.591,1.343,6.638c0.421,1.927,1.851,6.385,3.635,8.489c0.74,0.873,2.682,1.283,3.669,1.361
						c1.137,0.088,4.133,1.072,7.64-3.637c3.507-4.71,9.08-21.275,9.375-22.175c0.294-0.899,1.147-3.426,1.147-3.426l-7.213-2.168
						c0,0-5.182,11.958-5.914,13.607c-0.557,1.25-3.803,6.272-3.967,6.427c-0.165,0.155-0.572-13.711-0.572-13.711L-628.421,286.195
						z"/>
				</g>
				<g>
					<g>
						<path class="st17" d="M-596.639,376.238c0,0,5.322,7.668,7.569,8.92c3.05,1.7,1.139,3.419-0.309,3.421
							c-1.449,0.001-8.847,0.451-10.477-1.121c-1.63-1.573-2.439-6.285-3.955-7.517c-1.516-1.232-3.082-6.131,0.739-7.322
							C-599.695,371.566-596.639,376.238-596.639,376.238z"/>
					</g>
				</g>
				<g>
					<g>
						<path class="st19" d="M-598.943,372.865c0,0,6.095,8.981,7.146,10.307s-1.978,1.325-3.855,0.695
							c-1.877-0.63-6.597-7.071-7.275-8.244c-0.809-1.4-0.144-3.004-0.144-3.004L-598.943,372.865z"/>
					</g>
				</g>
				<g>
					<g>
						<polygon class="st17" points="-605.118,377.697 -603.711,386.904 -602.966,386.931 -603.198,380.309 						"/>
					</g>
				</g>
				<g>
					<g>
						<path class="st17" d="M-649.417,376.238c0,0,5.322,7.668,7.569,8.92c3.05,1.7,1.139,3.419-0.309,3.421
							c-1.449,0.001-8.847,0.451-10.477-1.121c-1.63-1.573-2.439-6.285-3.955-7.517c-1.516-1.232-3.133-6.258,0.739-7.322
							C-652.455,371.686-649.417,376.238-649.417,376.238z"/>
					</g>
				</g>
				<g>
					<g>
						<path class="st19" d="M-651.401,372.884c0,0,5.776,8.962,6.826,10.288c1.05,1.327-1.978,1.325-3.855,0.695
							c-1.877-0.63-6.597-7.071-7.275-8.244c-0.809-1.4-0.144-3.004-0.144-3.004L-651.401,372.884z"/>
					</g>
				</g>
				<g>
					<g>
						<polygon class="st17" points="-657.896,377.697 -656.49,386.904 -655.744,386.931 -655.976,380.309 						"/>
					</g>
				</g>
				<g>
					<g>
						<path class="st19" d="M-673.03,306.449l48.162,18.652c0,0,1.146,0.317,2.441,1.157v0.001c0.489,0.317,0.999,0.71,1.477,1.19
							c0.992,0.996,1.841,2.366,2.06,4.21c1.88,15.836,15.817,40.959,15.817,40.959c4.472,1.858,4.13,0.245,4.13,0.245
							c-2.819-7.689-6.249-39.377-7.473-52.117c-0.259-2.699-0.419-4.547-0.455-5.138c-0.023-0.402-0.54-0.928-1.433-1.543
							c-6.608-4.555-33.803-13.985-33.803-13.985C-662.524,299.642-673.03,306.449-673.03,306.449z"/>
					</g>
				</g>
				<g>
					<g>
						<path class="st19" d="M-676.57,312.853c1.491,11.065,14.536,11.403,14.536,11.403h22.523c0,0-5.916,11.189-8.2,20.626
							c-2.424,10.016-8.139,27.737-8.139,27.737s0.374,0.602,4.448,0.265c0,0,17.679-29.949,24.447-37.478
							c1.455-1.62,5.628-10.415,6.347-15.661c0.242-1.766,0.093-3.129-0.683-3.682c-0.781-0.556-2.576-1.605-4.972-2.888
							c-7.054-3.781-19.306-9.602-26.132-10.906c-9.142-1.746-19.651-5.02-19.651-5.02S-678.06,301.788-676.57,312.853z"/>
					</g>
				</g>
				<g>
					<path class="st17" d="M-641.861,324.257h-20.173c0,0-14.671,0.325-16.386-10.716c-1.439-9.263,5.39-15.627,5.39-15.627
						s6.851,1.558,15.422,3.318c4.291-0.775,9.463-1.279,15.502-1.149c0,0,25.598,4.382,35.07,15.113
						C-607.037,315.195-622.065,308.752-641.861,324.257z"/>
				</g>
				<g>
					<path class="st19" d="M-620.065,251.684c-0.076,1.243-0.104,2.489-0.122,3.693c-0.006,0.373,0.01,0.746,0.046,1.117
						c0.214,2.196,1.146,4.316,2.61,5.957c0.001,0.001,0.002,0.001,0.002,0.001s0,0.001,0.001,0.001
						c2.074,2.322,5.217,3.683,8.903,2.939c6.731-1.359,11.21-19.926,11.21-19.926c-1.84-7.266-13.239-7.689-17.809-5.089
						C-618.832,242.43-619.782,247.027-620.065,251.684z"/>
				</g>
				<g>
					<path class="st39" d="M-674.121,298.449c0,0,0.207,2.125,19.283,4.687c0.52,0.069,1.018,0.139,1.497,0.206
						c1.76,0.247,3.254,0.476,4.533,0.676c9.048,1.413,7.221,1.376,10.982-3.989c0.517-0.735,3.99-7.673,5.297-8.328
						c1.308-0.655,3.757-2.844,4.773-4.2c1.016-1.354,4.858-0.481,8.447-3.151c3.587-2.67,2.1-6.513,2.319-9.62
						c0.382-5.451-2.046-11.668-2.046-11.668c-10.052-16.006-24.698-3.309-27.371-1.011c-2.673,2.298-11.747,21.244-14.228,23.643
						C-669.446,294.214-674.121,298.449-674.121,298.449z"/>
				</g>
				<g>
					<path class="st19" d="M-629.266,255.947c0,0,1.489,15.583,5.867,17.343c4.502,1.81,2.925-13.515,2.925-13.515
						S-624.174,253.341-629.266,255.947z"/>
				</g>
				<g>
					<path class="st32" d="M-602.667,246.606c0,0,2.318,6.426,1.902,8.958c0,0,3.031-3.464,3.633-6.633
						c0.598-3.152,2.381-8.25-3.191-12.146C-605.894,232.89-602.667,246.606-602.667,246.606z"/>
				</g>
				<g>
					<path class="st19" d="M-625.397,260.543c0.018,3.845,4.831,6.01,5.196,4.182c0.041-0.204,0.601-0.704,1.02-1.071l0-0.002
						c0.167-0.145,0.311-0.269,0.391-0.344c0.323-0.304,0.764-0.591,1.26-0.855c1.844-0.983,4.438-1.649,4.438-1.649l-4.866-11.325
						c0,0-0.918,0.887-2.107,2.205C-622.269,254.127-625.408,258.044-625.397,260.543z"/>
				</g>
				<g>
					<path class="st40" d="M-619.18,263.653c0.167-0.145,0.311-0.269,0.391-0.344c0.323-0.304,0.764-0.591,1.26-0.855
						c0,0-2.389-2.781-2.611-5.959C-620.141,256.494-621.2,258.91-619.18,263.653z"/>
				</g>
				<g>
					<g>
						<g>
							<g>
								<g>
									<path class="st41" d="M-636.353,332.776c0,0-0.558-0.569-0.659-0.92c0,0-0.126-0.649-0.249-1.106
										c-0.04-0.145-0.078-0.27-0.112-0.349c-0.144-0.33-0.577-1.016-0.663-1.89c-0.086-0.873,0.685-4.72,0.685-4.72l2.565-0.236
										l2.364-0.512c0,0,3.696,4.353,3.887,5.158c0.018,0.079,0.033,0.157,0.039,0.232c0.083,0.696-0.199,1.243-0.203,1.612
										c-0.003,0.136-0.138,1.482-0.529,1.713c-0.541,0.32-1.07,0.355-1.489,0.212c0,0-1.093,0.587-1.956,0.496
										c0,0-0.988,0.569-2.024,0.195C-634.696,332.66-635.774,333.142-636.353,332.776z"/>
								</g>
							</g>
						</g>
					</g>
				</g>
				<g>
					<path class="st39" d="M-637,268.001c0,0,2.519-8.046-4.054-7.926c-6.573,0.121-7.024,7.094-7.214,8.475
						c-0.19,1.381-2.437,17.669-2.179,20.751c0.259,3.082-0.466,7.283,0.306,11.366c0.579,3.061,12.278,24.376,12.469,24.46
						c0.191,0.084,5.97-1.924,5.97-1.924s-7.5-20.802-8.496-22.733c-1.545-2.994-0.942-5.182-1.015-6.657
						C-641.285,292.339-637.29,269.251-637,268.001z"/>
				</g>
				<g>
					<path class="st32" d="M-601.751,247.281c0,0-3.174,4.752-8.11,3.629c-4.936-1.122-8.566-0.026-9.164,1.743
						c-0.598,1.77-4.83,11.252-9.306,10.945c-4.476-0.307-7.738-6.086-10.256-4.956c-2.518,1.13-5.268,7.527-8.55,5.805
						c-3.282-1.722-2.64-7.617,4.371-10.169c7.011-2.552,12.001-2.553,14.046-5.876c2.044-3.323,7.133-12.383,11.997-14.177
						c3.607-1.331,7.891-2.327,14.652,1.399c6.761,3.726,4.656,9.843,4.656,9.843L-601.751,247.281z"/>
				</g>
				<path class="st33" d="M-622.427,326.259v0.001c0.489,0.317,0.999,0.71,1.477,1.19c0,0,0.993-3.157,0.426-8.526
					C-620.524,318.925-620.548,321.233-622.427,326.259z"/>
				<path class="st42" d="M-653.34,303.342c1.76,0.247,3.254,0.476,4.533,0.676c0-0.001,0-0.001,0-0.001s-1.399-2.739-1.385-3.637
					c0.012-0.898-0.668-10.659,0.222-18.174c0.888-7.515,0.822-6.982,0.822-6.982S-655.246,290.698-653.34,303.342z"/>
				<path class="st42" d="M-628.084,287.912v0.001c0.126,0.638,0.12,0.616,0.283,1.437c5.62-1.742,7.159-4.028,7.23-4.144
					c-1.921,1.19-4.584,1.332-5.939,1.608C-627.866,287.09-628.084,287.912-628.084,287.912z"/>
			</g>
			<g>
				<g>
					<g>
						<g>
							<g>
								<g>
									<path class="st43" d="M-593.015,413.268c0,0,8.053,3.348,6.062,12.456c-1.991,9.108-2.872,10.336-0.645,13.894
										c2.227,3.559,4.855,18.74,2.851,21.618c-2.004,2.877-24.81-12.645-27.973-25.669c-3.163-13.024,2.005-18.816,3.831-20.974
										C-607.064,412.435-600.125,410.201-593.015,413.268z"/>
								</g>
							</g>
						</g>
					</g>
				</g>
				<g>
					<g>
						<polygon class="st44" points="-660.395,396.081 -626.482,396.081 -626.482,416.973 -626.482,421.373 -631.659,416.973 
							-660.395,416.973 						"/>
					</g>
				</g>
				<g>
					<path class="st32" d="M-589.561,607.067c0,0,0.814,1.636,2.352,3.341c1.127,1.25,4.633,6.384,6.177,6.742
						c1.544,0.358,6.317,1.074,6.739,3.341c0.421,2.267,0.631,3.878-4.071,4.057c-4.703,0.179-7.792,0.418-10.038-2.386
						c-2.246-2.804-5.826-4.833-5.826-4.833v7.317h-1.825c0,0-0.842-7.615-1.334-8.152c-0.492-0.537-1.755-6.384,2.597-9.427
						C-590.438,604.025-589.561,607.067-589.561,607.067z"/>
				</g>
				<g>
					<path class="st19" d="M-581.032,617.151c0,0-4.212,0.895-5.826,0c-1.615-0.895-7.103-8.78-8.922-9.253
						c0,0,1.762-3.038,6.219-0.831C-589.561,607.067-582.226,615.838-581.032,617.151z"/>
				</g>
				<g>
					<g>
						<g>
							<g>
								<path class="st19" d="M-539.924,482.186c0,0,2.922,0.476,3.92-0.691c0.849-0.993,2.789-1.754,3.387-1.989
									c0.798-0.315,2.825-2.057,3.302-1.206c0.477,0.852-3.179,3.009-3.839,3.592c-0.661,0.582,3.585,0.84,4.318,1.407
									c0.732,0.566-0.169,6.519-3.058,6.056c-2.89-0.463-5.617-2.58-6.144-2.576c-0.527,0.004-2.118-0.267-2.118-0.267
									L-539.924,482.186z"/>
							</g>
						</g>
					</g>
				</g>
				<g>
					<g>
						<g>
							<g>
								<path class="st19" d="M-529.481,483.055c0,0,8.736,1.918,9.193,2.461c0.456,0.542,0.306,0.938-0.52,0.788
									s-8.504-1.646-8.504-1.646s9.891,3.747,10.379,4.122c0.286,0.22,0.048,1.001-0.402,0.955
									c-0.451-0.046-10.504-3.283-10.504-3.283s9.227,3.513,9.526,3.93c0.261,0.365-0.169,1.035-0.874,0.815
									s-9.487-3.069-9.487-3.069s6.527,2.916,6.535,3.395c0.005,0.293-0.164,0.977-1.82,0.179
									c-1.657-0.797-5.796-2.329-5.796-2.329L-529.481,483.055z"/>
							</g>
						</g>
					</g>
				</g>
				<g>
					<path class="st32" d="M-613.104,611.81c0,0,4.703,5.937,6.598,7.368c0,0,4.212,1.312,4.633,3.818
						c0.421,2.506,0.351,4.178-4.633,4.298c-4.984,0.119-8.251-0.642-9.164-3.207c-0.913-2.565-2.91-4.312-2.91-4.312v5.37h-1.123
						c0,0-0.281-5.19-0.351-6.145c-0.07-0.955-0.807-4.625,1.562-6.25C-616.122,611.125-613.104,611.81-613.104,611.81z"/>
				</g>
				<g>
					<path class="st45" d="M-616.263,497.23c0,0-5.939,6.563-7.55,14.348c-1.611,7.786,0.951,33.918,0.881,37.766
						c-0.07,3.848-4.282,13.424-3.44,20.673c0.843,7.249,4.167,43.328,4.167,43.328l9.1-1.535c0,0-0.527-36.781,0-39.824
						c0.526-3.043,1.583-14.134,1.794-15.387c0.211-1.253,13.368-34.152,13.368-39.766
						C-597.942,511.221-601.943,488.072-616.263,497.23z"/>
				</g>
				<g>
					<path class="st45" d="M-586.431,499.795c0,0,9.757,31.651,10.916,36.036c1.158,4.385,2.836,8.002,2.836,9.863
						c0,4.32-1.888,11.257-1.888,11.257l-12.39,50.366h-11.801c0,0,6.575-30.216,6.752-36.125c0.177-5.921,5.54-14.331,4.487-16.836
						c-1.053-2.506-16.952-31.412-16.952-31.412S-616.508,490.607-586.431,499.795z"/>
				</g>
				<g>
					<path class="st19" d="M-606.506,619.179c0,0-4.816,2.289-7.917-0.65c-2.618-2.481-4.068-5.779-4.068-5.779l5.387-0.939
						L-606.506,619.179z"/>
				</g>
				<g>
					<g>
						<path class="st46" d="M-590.46,446.009c0,0,4.023,0.322,7.062,3.09c3.039,2.768,5.892,7.182,6.688,8.658
							c0.796,1.476,11.955,15.158,12.534,15.465c0.579,0.308,6.188,1.9,9.905,2.964c5.736,1.641,17.233,5.192,17.233,5.192
							l-2.283,6.144c0,0-21.619-6.013-27.033-7.147c-6.621-1.386-21.862-18.005-21.862-18.005S-599.579,451.053-590.46,446.009z"/>
					</g>
				</g>
				<g>
					<g>
						<path class="st47" d="M-597.48,443.61c0,0,5.211,2.091,7.02,2.399c1.809,0.308,8.829,8.058,10.06,10.888
							c1.23,2.83,0,7.074-2.533,12.056c-2.532,4.983-0.145,6.643-1.302,11.626c-1.158,4.982-0.786,23.622-0.568,26.39
							c0.217,2.768-33.874,6.964-40.605,1.92c0,0,4.556-16.799,9.951-21.593c1.167-1.037,1.043-7.947,0.247-9.669
							c-0.796-1.722-9.77-14.578-9.77-14.578s-0.659-13.039,3.257-15.624c3.401-2.245,12.672-3.046,14.336-3.538
							C-605.723,443.394-600.881,443.18-597.48,443.61z"/>
					</g>
				</g>
				<g>
					<g>
						<path class="st19" d="M-594.992,438.5c0,0-0.156,1.219-0.335,2.867c-0.069,0.652-0.145,1.372-0.214,2.109
							c-0.208,2.209-0.374,4.58-0.273,5.793c0,0-5.416,4.613-11.573-5.382c0,0,2.589-4.122,0.639-9.733
							C-608.697,428.54-594.992,438.5-594.992,438.5z"/>
					</g>
				</g>
				<g>
					<path class="st48" d="M-579.837,470.79c0,0,1.303-7.368-0.083-11.849c0,0,0,3.853-2.486,9.325L-579.837,470.79z"/>
				</g>
				<g>
					<path class="st19" d="M-611.548,444.596c0,0,3.724,9.35,13.951,8.663c10.226-0.688,4.848-7.895,4.848-7.895
						s-2.549-1.242-3.266-1.359c-0.717-0.117-11.306-0.231-11.306-0.231L-611.548,444.596z"/>
				</g>
				<g>
					<path class="st46" d="M-592.749,445.363c0,0,5.356,12.593,5.356,25.427c0,12.834,0.432,33.741,2.301,40.344
						c1.87,6.602,7.192,27.02,7.192,27.02l4.172-1.834c0,0-10.031-32.586-10.789-34.936c-0.757-2.35,0.576-27.174,1.295-29.252
						c0.719-2.078,3.779-11.33,3.303-13.897c-0.6-3.236-4.162-8.024-9.916-12.141L-592.749,445.363z"/>
				</g>
				<g>
					<path class="st46" d="M-609.528,444.202c0,0,3.329,9.06,5.016,20.663c1.687,11.604-5.178,65.463-9.781,77.69l-17.837-2.445
						c0,0,3.839-38.071,9.052-44.999c5.212-6.929,6.871-13.058,1.244-27.518c-5.627-14.461,2.466-21.622,2.466-21.622
						S-611.091,444.353-609.528,444.202z"/>
				</g>
				<g>
					<polygon class="st49" points="-590.284,482.623 -611.911,514.462 -635.954,502.664 -615.266,470.364 					"/>
				</g>
				<g>
					<polygon class="st50" points="-592.891,483.718 -612.099,511.995 -633.452,501.517 -615.078,472.83 					"/>
				</g>
				<g>
					<polygon class="st49" points="-599.977,481.178 -598.629,479.193 -607.261,474.957 -608.947,476.776 					"/>
				</g>
				<g>
					<g>
						<g>
							<g>
								<g>
									<g>
										<path class="st19" d="M-601.007,503.768c0,0-0.984,0.004-1.414-0.173c0,0-0.755-0.373-1.311-0.61
											c-0.177-0.075-0.333-0.137-0.438-0.168c-0.441-0.13-1.455-0.302-2.411-0.867c-0.956-0.563-4.342-3.896-4.342-3.896
											l1.599-2.067l1.173-2.117c0,0,7.111,0.39,8.073,0.828c0.094,0.043,0.185,0.089,0.266,0.137
											c0.772,0.438,1.13,1.039,1.505,1.308c0.137,0.099,1.419,1.166,1.374,1.62c-0.061,0.63-0.404,1.046-0.852,1.254
											c0,0-0.184,1.23-0.897,1.803c0,0-0.127,1.139-1.253,1.638C-599.936,502.46-600.217,503.603-601.007,503.768z"/>
									</g>
								</g>
							</g>
						</g>
					</g>
				</g>
				<g>
					<g>
						<path class="st46" d="M-615.663,446.009c0,0-6.568-1.599-10.331,4.552c-3.763,6.151-3.745,8.776-4.248,11.779
							c-0.475,2.836-2.619,10.58-2.836,11.38c-0.217,0.799-5.073,10.335-2.846,13.668c2.238,3.35,24.97,13.211,24.825,13.949
							c-0.145,0.738,3.937-7.455,3.937-7.455s-9.198-4.357-10.705-5.699c-2.447-2.179-7.609-4.528-6.549-7.231
							c1.246-3.176,4.988-13.89,5.857-15.459S-610.127,448.008-615.663,446.009z"/>
					</g>
				</g>
				<g>
					<g>
						<g>
							<g>
								<g>
									<path class="st51" d="M-594.183,414.278c0,0,11.692,3.123,5.345,20.274c-6.347,17.15-22.316-1.988-20.646-12.437
										C-607.814,411.666-594.183,414.278-594.183,414.278z"/>
								</g>
							</g>
						</g>
					</g>
				</g>
				<g>
					<g>
						<g>
							<g>
								<g>
									<path class="st43" d="M-587.643,424.285c0,0-5.81,4.846-15.533,5.452c0,0-3.737,3.724-4.024,5.185
										c0,0-8.675-12.568,1.989-20.102C-594.547,407.286-583.724,421.18-587.643,424.285z"/>
								</g>
							</g>
						</g>
					</g>
				</g>
				<g>
					<g>
						<g>
							<g>
								<g>
									<path class="st51" d="M-603.059,430.078c-0.075-1.248-0.98-4.089-3.163-3.294c-2.182,0.795,0.134,6.58,1.581,6.224
										C-604.641,433.008-602.881,433.031-603.059,430.078z"/>
								</g>
							</g>
						</g>
					</g>
				</g>
				<g>
					<path class="st40" d="M-595.327,441.367c-0.069,0.652-0.145,1.372-0.214,2.109c0,0-5.161-0.262-8.61-6.786
						C-603.927,436.975-600.146,441.696-595.327,441.367z"/>
				</g>
			</g>
		</g>
	</g>
</g>
</svg>
