<?xml version="1.0" encoding="utf-8"?>
<!-- Generator: Adobe Illustrator 24.1.3, SVG Export Plug-In . SVG Version: 6.00 Build 0)  -->
<svg version="1.1" xmlns="http://www.w3.org/2000/svg" xmlns:xlink="http://www.w3.org/1999/xlink" x="0px" y="0px"
	 viewBox="0 0 1800 720" style="enable-background:new 0 0 1800 720;" xml:space="preserve">
<style type="text/css">
	.st0{display:none;}
	.st1{display:inline;opacity:0.81;fill:#EFEBFD;}
	.st2{display:inline;}
	.st3{fill-rule:evenodd;clip-rule:evenodd;fill:#C3C4ED;}
	.st4{fill:#B286AE;}
	.st5{fill:#FDFDFD;}
	.st6{fill:#EC759F;}
	.st7{fill:#CB83E7;}
	.st8{fill:#FFFFFF;}
	.st9{fill:#B7B8E1;}
	.st10{fill:#D98CF1;}
	.st11{fill:#FDFDFD;stroke:#CDCEF5;stroke-width:8;stroke-miterlimit:10;}
	.st12{fill:#EFEBFD;}
	.st13{fill:#8F91C7;}
	.st14{fill:#525C7B;}
	.st15{fill:#FFD458;}
	.st16{fill:#00B0D0;}
	.st17{clip-path:url(#SVGID_2_);}
	.st18{fill:#FAC7C4;}
	.st19{opacity:0.07;}
	.st20{fill:#F3B5B3;}
	.st21{fill:#47526C;}
	.st22{fill:#3B445B;}
	.st23{fill:#EECAA5;}
	.st24{opacity:0.37;}
	.st25{fill:#D6A872;}
	.st26{fill:#D25787;}
	.st27{fill:#49536E;}
	.st28{fill:#C67DE3;}
	.st29{opacity:0.07;fill:#050505;}
	.st30{fill:#9F779D;}
	.st31{fill:#CDCEF5;}
	.st32{fill:#FFFAFA;}
	.st33{fill:url(#SVGID_3_);}
	.st34{filter:url(#Adobe_OpacityMaskFilter);}
	.st35{filter:url(#Adobe_OpacityMaskFilter_1_);}
	.st36{mask:url(#SVGID_4_);fill:url(#SVGID_5_);}
	.st37{fill:url(#SVGID_6_);}
	.st38{filter:url(#Adobe_OpacityMaskFilter_2_);}
	.st39{filter:url(#Adobe_OpacityMaskFilter_3_);}
	.st40{mask:url(#SVGID_7_);fill:url(#SVGID_8_);}
	.st41{fill:url(#SVGID_9_);}
	.st42{filter:url(#Adobe_OpacityMaskFilter_4_);}
	.st43{filter:url(#Adobe_OpacityMaskFilter_5_);}
	.st44{mask:url(#SVGID_10_);fill:url(#SVGID_11_);}
	.st45{opacity:0.64;fill:url(#SVGID_12_);}
	.st46{fill:url(#SVGID_13_);}
	.st47{fill:url(#SVGID_14_);}
	.st48{fill:url(#SVGID_15_);}
	.st49{fill:url(#SVGID_16_);}
	.st50{fill:url(#SVGID_17_);}
	.st51{fill:url(#SVGID_18_);}
	.st52{fill:#F7F7F7;}
	.st53{fill:#7DC6FF;}
	.st54{fill:#695C54;}
	.st55{fill:#807066;}
	.st56{fill:#FAB869;}
	.st57{fill:#F09B56;}
	.st58{fill:#66658C;}
	.st59{fill:#E38A42;}
	.st60{fill:#DECDC5;}
	.st61{fill:#25354D;}
	.st62{fill:#2F4563;}
	.st63{fill:#F5E1DA;}
	.st64{fill:#323657;}
	.st65{fill:#EEA886;}
	.st66{fill:#E65555;}
	.st67{fill:#A77860;}
	.st68{fill:#F4EAE1;}
	.st69{fill:#E6DCD4;}
	.st70{fill:#213A70;}
	.st71{fill:#FFCA55;}
	.st72{fill:#E8E8E8;}
	.st73{fill:#3A3F47;}
	.st74{fill:#C9A043;}
	.st75{fill:#444C94;}
	.st76{fill:#303669;}
	.st77{fill:url(#SVGID_19_);}
	.st78{fill:#FF9F55;}
	.st79{fill:#EFF7FE;}
	.st80{fill:url(#SVGID_20_);}
	.st81{fill:#5284FC;}
	.st82{fill:url(#SVGID_21_);}
	.st83{fill:url(#SVGID_22_);}
	.st84{fill:url(#SVGID_23_);}
	.st85{fill:#FFC655;}
	.st86{fill:#587AA3;}
	.st87{fill:url(#SVGID_24_);}
	.st88{opacity:0.73;fill:#6BB0FF;}
	.st89{filter:url(#Adobe_OpacityMaskFilter_6_);}
	.st90{filter:url(#Adobe_OpacityMaskFilter_7_);}
	.st91{mask:url(#SVGID_25_);fill:url(#SVGID_26_);}
	.st92{opacity:0.97;fill:url(#SVGID_27_);}
	.st93{fill:#4DA8F2;}
	.st94{fill:#E3F2FF;}
	.st95{fill:#EBEBEB;}
	.st96{fill:#16202E;}
	.st97{fill:#CF8C6C;}
	.st98{fill:#162D40;}
	.st99{fill:#1D3B54;}
	.st100{fill:#EDDAD3;}
	.st101{fill:#D1C0BA;}
	.st102{fill:#FAE6DE;}
	.st103{fill:#54281A;}
	.st104{fill:#DB9C7C;}
	.st105{fill:#366E9C;}
	.st106{fill:#292929;}
	.st107{fill:#272A45;}
	.st108{fill:#51578F;}
</style>
<g id="Layer_1" class="st0">
	<path class="st1" d="M1135.031,325.209c87.604-151.568-3.231-326.783-169.528-335.338c-195.291-10.048-276.381,85.94-358.206,85.94
		C492.442,67.723,421.587-88,275.789-88C106.539-88,36.664,42.47,40.598,171.621c4.467,146.631,84.439,114.041,16.868,281.262
		C-44.413,705.011,262.89,707.664,373.305,707.851c160.267,0.272,298.389-29.463,359.6-45.829
		c5.367,0.308,10.884,0.484,16.594,0.484c48.644,0,167.709,36.231,248.533,36.231c91.646,2.884,141.141-32.165,160.155-121.841
		C1186.529,443.227,1072.191,433.931,1135.031,325.209z"/>
	<g class="st2">
		<g>
			<path class="st3" d="M412.485,416.426c-1.553,5.714,1.604,30.065,7.723,47.073c-0.46,2.794-2.059,14.268-2.264,16.881
				c1.555-19.848-12.147-49.338-14.176-49.176c-2.793,1.431,5.449,33.652,13.489,53.349c-0.089,2.468-0.961,15.054-0.958,17.151
				c-0.032-17.466-17.145-50.442-18.239-48.187c-4.385,6.571,6.366,35.843,17.737,51.155c4.391,61.764,38.784,157.302,38.94,158.795
				c0.822,0.088,3.727,2.1,3.339,0.96c-34.527-101.495-41.892-158.721-39.962-161.053c1.931-2.332,35.678-46.509,33.116-46.389
				c-1.847-0.293-30.215,27.071-33.416,44.193c0.418-2.24,1.468-17.726,1.468-17.726c12.958-14.587,36.593-42.202,35.367-43.589
				c-1.1-1.182-30.385,19.885-35.285,38.972c0.633-2.467,1.848-14.534,2.34-17.33c14.708-17.883,35.185-40.902,33.765-42.132
				c-2.6-2.251-28.664,22.767-32.835,36.062c-0.632,2.014,3.364-14.843,4.202-18.132c11.578-11.644,29.262-29.191,28.677-31.3
				c-0.718-1.927-20.793,7.314-27.942,27.798c0.638-1.829,3.651-13.26,4.644-15.909c11.573-11.245,24.861-26.283,23.797-27.837
				c-0.732-1.125-15.328,6.681-22.186,22.138c0.228-0.514,4.37-11.189,4.939-12.36c10.067-16.048,14.03-25.199,11.887-27.452
				c-2.579-3.34-7.159,6.571-13.742,29.733c-0.652,1.483-3.463,8.301-3.856,9.889c5.157-20.828-0.728-35.737-2.553-32.515
				c-2.168,3.828-1.966,24.114,0.604,38.255c-0.766,2.632-3.941,12.687-4.254,14.979c2.942-21.527-5.757-44.328-7.402-40.32
				c-1.565,6.725,3.331,32.635,5.778,47.056c-0.69,2.403-3.853,19.036-3.688,16.61C422.673,439.488,412.485,416.426,412.485,416.426
				z"/>
			<path class="st3" d="M422.065,543.704c-4.739-15.926-22.349-33.968-22.349-33.968c0.543,5.896,12.019,27.604,23.701,41.398"/>
			<path class="st3" d="M418.875,519.975c-4.291-14.964-28.6-44.761-28.739-40.431c0.886,6.847,22.237,34.655,29.574,47.309"/>
			<path class="st3" d="M420.072,524.682c6.774-14.959,29.353-46.808,28.068-48.58c-1.347-1.554-29.073,23.35-28.604,45.042"/>
			<path class="st3" d="M423.811,546.815c7.523-21.898,25.044-47.858,23.283-48.513c-3.223-1.199-24.967,30.512-24.224,44.427"/>
			<path class="st3" d="M428.557,569.216c7.037-18.197,20.492-51.403,18.859-52.273c-1.444-0.723-21.511,29.257-19.424,48.852"/>
			<path class="st3" d="M433.468,590.771c5.818-16.363,17.155-56.051,14.798-55.042c-1.833,0.371-18.838,35.929-15.847,53.09"/>
			<path class="st3" d="M433.119,588.292c-6.14-16.352-33.706-41.258-33.942-38.764c-1.81,7.69,18.501,31.352,34.51,41.719"/>
			<path class="st3" d="M427.201,567.74c-5.486-19.138-28.638-41.972-30.482-41.111c-2.115,2.318,16.876,29.62,31.298,45.26"/>
			<path class="st3" d="M437.674,610.213c-6.788-15.167-26.613-30.741-26.613-30.741c1.313,5.774,15.537,25.788,28.929,37.93"/>
			<path class="st3" d="M439.813,613.07c4.585-22.696,18.547-50.731,16.716-51.149c-3.353-0.765-20.748,33.525-18.185,47.222"/>
			<path class="st3" d="M447.458,634.653c4.588-18.963,13.569-53.648,11.836-54.296c-1.527-0.527-17.485,31.827-12.845,50.979"/>
			<path class="st3" d="M455.155,655.378c3.62-16.985,9.651-57.817,7.447-56.508c-1.768,0.608-13.96,38.091-8.743,54.71"/>
			<path class="st3" d="M454.483,652.966c-8.233-15.405-38.828-36.479-38.735-33.975c-0.785,7.861,22.456,28.654,39.686,36.83"/>
			<path class="st3" d="M445.919,633.368c-7.95-18.252-33.898-37.851-35.613-36.755c-1.793,2.575,20.617,27.149,36.966,40.761"/>
		</g>
		<g>
			<g>
				<path class="st3" d="M513.576,359.775c1.568,7.533-4.427,38.878-13.693,60.466c0.379,3.661,1.559,18.67,1.62,22.076
					c-0.468-25.87,19.609-63.06,22.228-62.691c3.512,2.074-9.695,43.232-21.662,68.158c-0.078,3.21,0.073,19.605-0.096,22.325
					c1.405-22.657,26.178-64.101,27.421-61.091c5.176,8.867-11.056,46.004-27.002,64.981
					c-10.516,79.784-62.589,201.045-62.907,202.969c-1.072,0.051-4.998,2.434-4.406,0.986
					c52.711-128.977,66.731-202.643,64.409-205.819c-2.322-3.176-42.656-63.121-39.343-62.764
					c2.419-0.237,37.087,37.476,39.903,59.939c-0.368-2.938-0.522-23.111-0.522-23.111c-15.672-19.934-44.18-57.605-42.481-59.308
					c1.519-1.448,37.868,28.168,42.734,53.312c-0.629-3.25-1.264-18.999-1.684-22.665c-17.685-24.348-42.455-55.809-40.516-57.293
					c3.549-2.717,35.41,31.772,39.785,49.346c0.662,2.662-3.206-19.518-4.037-23.851c-14.113-16.009-35.684-40.153-34.761-42.843
					c1.082-2.445,26.405,11.11,34.081,38.243c-0.685-2.422-3.702-17.488-4.784-21.002c-14.137-15.492-30.202-36.037-28.701-37.97
					c1.037-1.401,19.364,9.864,27.055,30.451c-0.256-0.685-4.795-14.857-5.443-16.421c-11.808-21.605-16.235-33.786-13.279-36.541
					c3.606-4.132,8.775,9.082,15.508,39.645c0.731,1.975,3.844,11.039,4.23,13.129c-5.065-27.422,3.733-46.306,5.849-41.983
					c2.513,5.135,0.669,31.437-3.768,49.582c0.788,3.475,4.123,16.766,4.35,19.763c-2.137-28.156,10.927-57.058,12.748-51.73
					c1.506,8.846-6.867,42.078-11.167,60.595c0.708,3.172,3.514,24.996,3.489,21.836
					C498.561,388.899,513.576,359.775,513.576,359.775z"/>
				<path class="st3" d="M491.218,524.147c7.39-20.292,31.644-42.323,31.644-42.323c-1.165,7.606-17.746,34.873-33.978,51.857"/>
				<path class="st3" d="M497.207,493.612c6.734-19.079,40.595-55.838,40.438-50.21c-1.683,8.814-31.552,43.224-42.058,59.067"/>
				<path class="st3" d="M495.287,499.625c-7.621-19.934-34.428-63.015-32.623-65.213c1.869-1.912,35.895,32.561,33.595,60.665"/>
				<path class="st3" d="M488.71,528.048c-8.051-28.996-28.755-64.041-26.421-64.754c4.276-1.304,30.01,41.532,27.961,59.526"/>
				<path class="st3" d="M480.806,556.738c-7.709-24.156-22.574-68.285-20.387-69.286c1.93-0.825,25.624,39.634,21.387,64.892"/>
				<path class="st3" d="M472.753,584.319c-6.272-21.682-17.883-74.054-14.903-72.562c2.349,0.624,21.635,48.081,16.417,70.111"/>
				<path class="st3" d="M473.399,581.13c9.241-20.734,46.946-50.895,47.058-47.641c1.748,10.117-26.449,39.231-48.025,51.431"/>
				<path class="st3" d="M482.68,554.929c8.611-24.4,40.428-52.217,42.752-50.955c2.564,3.171-24.205,37.11-44.135,56.275"/>
				<path class="st3" d="M465.778,609.213c9.989-19.147,36.925-37.804,36.925-37.804c-2.154,7.388-22.169,32.243-40.489,46.949"/>
				<path class="st3" d="M462.781,612.752c-4.177-29.801-20.103-67.261-17.695-67.661c4.409-0.732,24.3,45.11,19.907,62.68"/>
				<path class="st3" d="M451.18,640.156c-4.473-24.959-13.418-70.657-11.119-71.362c2.022-0.564,20.201,42.654,12.687,67.138"/>
				<path class="st3" d="M439.577,666.442c-3.372-22.317-8.01-75.76-5.252-73.89c2.247,0.927,15.139,50.505,7.074,71.659"/>
				<path class="st3" d="M440.636,663.365c11.883-19.342,53.219-44.294,52.903-41.053c0.405,10.259-31.368,35.421-54.359,44.684"/>
				<path class="st3" d="M453.275,638.609c11.738-23.059,46.93-46.461,49.069-44.904c2.126,3.48-28.865,33.612-51.137,49.996"/>
			</g>
			<path class="st3" d="M493.665,379.793c-2.137-28.156,10.927-57.058,12.748-51.73c1.506,8.846-6.867,42.078-11.167,60.595"/>
			<path class="st3" d="M499.527,446.197c-15.672-19.934-44.18-57.605-42.481-59.308c1.519-1.448,37.868,28.168,42.734,53.312"/>
			<path class="st3" d="M501.503,442.318c-0.468-25.87,19.609-63.06,22.228-62.691c3.512,2.074-9.695,43.232-21.662,68.158"/>
		</g>
		<g>
			<g>
				<path class="st3" d="M336.308,298.766c-1.803,8.659,5.088,44.688,15.739,69.502c-0.435,4.209-1.791,21.461-1.862,25.375
					c0.538-29.737-22.539-72.484-25.55-72.06c-4.036,2.384,11.144,49.693,24.9,78.344c0.089,3.689-0.084,22.535,0.11,25.662
					c-1.615-26.043-30.09-73.681-31.519-70.222c-5.95,10.192,12.707,52.879,31.037,74.692
					c12.088,91.708,71.942,231.09,72.308,233.302c1.233,0.058,5.745,2.798,5.065,1.133
					c-60.589-148.252-76.704-232.928-74.034-236.578c2.669-3.65,49.031-72.554,45.222-72.144
					c-2.78-0.272-42.63,43.077-45.867,68.897c0.424-3.377,0.6-26.565,0.6-26.565c18.014-22.913,50.783-66.214,48.83-68.171
					c-1.747-1.664-43.528,32.378-49.121,61.279c0.723-3.736,1.453-21.839,1.936-26.053c20.328-27.986,48.799-64.15,46.572-65.855
					c-4.08-3.123-40.702,36.52-45.73,56.721c-0.761,3.06,3.686-22.435,4.641-27.415c16.221-18.401,41.017-46.153,39.956-49.246
					c-1.243-2.81-30.351,12.77-39.174,43.959c0.788-2.784,4.255-20.101,5.499-24.141c16.25-17.807,34.715-41.423,32.99-43.645
					c-1.192-1.611-22.258,11.338-31.098,35.002c0.294-0.788,5.512-17.077,6.257-18.875c13.573-24.834,18.661-38.835,15.264-42.002
					c-4.145-4.75-10.086,10.44-17.826,45.569c-0.84,2.271-4.419,12.689-4.863,15.092c5.822-31.52-4.291-53.226-6.723-48.257
					c-2.889,5.902-0.769,36.135,4.331,56.992c-0.905,3.994-4.739,19.272-5.001,22.717c2.456-32.364-12.56-65.585-14.654-59.462
					c-1.731,10.168,7.893,48.366,12.836,69.651c-0.814,3.646-4.039,28.732-4.01,25.1
					C353.568,332.241,336.308,298.766,336.308,298.766z"/>
				<path class="st3" d="M362.008,487.702c-8.495-23.324-36.374-48.648-36.374-48.648c1.339,8.743,20.398,40.085,39.056,59.607"/>
				<path class="st3" d="M355.124,452.603c-7.74-21.93-46.662-64.183-46.481-57.713c1.935,10.131,36.267,49.683,48.343,67.895"/>
				<path class="st3" d="M357.331,459.515c8.76-22.913,39.574-72.432,37.499-74.959c-2.148-2.197-41.259,37.427-38.616,69.732"/>
				<path class="st3" d="M364.89,492.186c9.255-33.329,33.052-73.612,30.369-74.431c-4.914-1.499-34.495,47.739-32.139,68.422"/>
				<path class="st3" d="M373.976,525.163c8.862-27.767,25.948-78.49,23.434-79.641c-2.218-0.948-29.453,45.558-24.584,74.59"/>
				<path class="st3" d="M383.233,556.866c7.209-24.922,20.555-85.121,17.13-83.406c-2.7,0.717-24.869,55.267-18.87,80.589"/>
				<path class="st3" d="M382.49,553.2c-10.623-23.833-53.962-58.501-54.091-54.76c-2.009,11.629,30.401,45.094,55.203,59.117"/>
				<path class="st3" d="M371.822,523.084c-9.897-28.046-46.469-60.021-49.142-58.57c-2.947,3.645,27.822,42.656,50.731,64.685"/>
				<path class="st3" d="M391.25,585.481c-11.482-22.008-42.444-43.454-42.444-43.454c2.475,8.492,25.482,37.062,46.54,53.966"/>
				<path class="st3" d="M394.695,589.548c4.801-34.255,23.107-77.313,20.339-77.772c-5.068-0.841-27.932,51.852-22.882,72.048"/>
				<path class="st3" d="M408.03,621.048c5.141-28.69,15.423-81.216,12.78-82.027c-2.324-0.648-23.22,49.029-14.583,77.171"/>
				<path class="st3" d="M421.367,651.262c3.876-25.653,9.207-87.082,6.037-84.932c-2.583,1.066-17.401,58.052-8.131,82.368"/>
				<path class="st3" d="M420.149,647.726c-13.658-22.233-61.173-50.914-60.809-47.188c-0.465,11.792,36.056,40.714,62.483,51.362"
					/>
				<path class="st3" d="M405.621,619.27c-13.493-26.505-53.944-53.404-56.402-51.615c-2.444,4.001,33.179,38.636,58.78,57.469"/>
			</g>
			<path class="st3" d="M359.195,321.774c2.456-32.364-12.56-65.585-14.654-59.462c-1.731,10.168,7.893,48.366,12.836,69.651"/>
			<path class="st3" d="M352.457,398.103c18.014-22.913,50.783-66.214,48.83-68.171c-1.747-1.664-43.528,32.378-49.121,61.279"/>
			<path class="st3" d="M350.185,393.643c0.538-29.737-22.539-72.484-25.55-72.06c-4.036,2.384,11.144,49.693,24.9,78.344"/>
		</g>
		<g>
			<path class="st3" d="M580.794,438.718c0.652,5.885-6.226,29.456-14.898,45.316c0.023,2.832-0.168,14.414-0.369,17.027
				c1.528-19.85,19.619-46.871,21.599-46.398c2.538,1.845-10.579,32.407-21.564,50.627c-0.293,2.453-1.374,15.022-1.702,17.093
				c2.729-17.252,24.727-47.19,25.459-44.794c3.318,7.169-11.823,34.431-25.422,47.804
				c-13.874,60.345-62.604,149.428-62.988,150.879c-0.825-0.039-4.006,1.499-3.447,0.433
				c49.782-94.947,65.893-150.351,64.346-152.953c-1.548-2.602-28.07-51.459-25.558-50.945c1.87-0.005,25.674,31.411,26.193,48.822
				c-0.068-2.277,1.286-17.741,1.286-17.741c-10.55-16.412-29.639-47.345-28.213-48.526c1.269-0.998,26.951,24.338,28.845,43.952
				c-0.245-2.535,0.418-14.645,0.363-17.484c-11.771-19.939-28.449-45.844-26.856-46.839c2.916-1.822,24.806,26.919,26.874,40.699
				c0.314,2.087-1.032-15.184-1.353-18.563c-9.642-13.292-24.404-33.358-23.501-35.352c1.007-1.793,19.415,10.436,23.315,31.779
				c-0.348-1.905-1.56-13.665-2.132-16.435c-9.698-12.897-20.505-29.806-19.214-31.177c0.896-0.998,14.113,8.968,18.502,25.298
				c-0.146-0.544-2.59-11.73-2.972-12.975c-7.469-17.41-9.971-27.063-7.506-28.958c3.063-2.902,6.059,7.597,8.987,31.498
				c0.416,1.566,2.14,8.736,2.283,10.365c-1.88-21.374,6.236-35.196,7.542-31.731c1.551,4.116-1.781,24.129-6.502,37.703
				c0.35,2.719,1.935,13.143,1.891,15.456c0.417-21.723,12.531-42.908,13.538-38.694c0.508,6.886-8.329,31.729-12.973,45.6
				c0.311,2.481,0.868,19.402,1.079,16.98C567.168,459.93,580.794,438.718,580.794,438.718z"/>
			<path class="st3" d="M551.68,562.99c7.141-15.003,27.325-30.11,27.325-30.11c-1.447,5.742-16.136,25.418-29.808,37.243"/>
			<path class="st3" d="M558.495,540.038c6.55-14.123,35.167-39.809,34.636-35.51c-1.932,6.628-27.32,30.807-36.523,42.176"/>
			<path class="st3" d="M556.586,544.504c-4.384-15.825-21.775-50.778-20.232-52.331c1.571-1.328,25.119,27.559,21.307,48.918"/>
			<path class="st3" d="M549.475,565.795c-4.052-22.797-17.355-51.151-15.514-51.526c3.37-0.687,19.957,34.001,17.075,47.634"/>
			<path class="st3" d="M541.327,587.194c-4.143-19.065-12.311-53.95-10.562-54.558c1.539-0.491,16.736,32.227,11.649,51.265"/>
			<path class="st3" d="M533.148,607.733c-3.223-17.065-8.296-58.027-6.123-56.666c1.754,0.649,13.065,38.407,7.461,54.9"/>
			<path class="st3" d="M533.875,605.337c8.591-15.208,39.672-35.56,39.52-33.059c0.601,7.877-23.12,28.12-40.537,35.892"/>
			<path class="st3" d="M542.895,585.945c8.375-18.061,34.775-37.047,36.463-35.911c1.732,2.616-21.247,26.659-37.91,39.885"/>
			<path class="st3" d="M525.99,626.293c9.048-13.937,31.04-26.264,31.04-26.264c-2.188,5.502-19.332,23.08-34.438,33.009"/>
			<path class="st3" d="M523.436,628.784c-1.026-23.131-10.492-52.986-8.619-53.116c3.431-0.238,15.323,36.326,10.677,49.463"/>
			<path class="st3" d="M512.551,648.929c-1.606-19.445-5.124-55.1-3.312-55.472c1.59-0.285,12.362,34.145,4.821,52.351"/>
			<path class="st3" d="M501.746,668.217c-0.955-17.341-0.61-58.614,1.366-56.98c1.653,0.874,7.912,39.789,0.192,55.404"/>
			<path class="st3" d="M502.782,665.937c10.512-13.948,43.995-30.046,43.516-27.587c-0.438,7.888-26.61,24.844-44.896,30.262"/>
			<path class="st3" d="M514.269,647.897c10.673-16.806,39.336-32.165,40.86-30.816c1.374,2.821-24.561,23.641-42.816,34.565"/>
		</g>
	</g>
	<g class="st2">
		<g>
			<circle class="st4" cx="158.315" cy="181.594" r="136.594"/>
			<circle class="st5" cx="158.315" cy="181.594" r="120.651"/>
			<g>
				<path class="st6" d="M216.062,129.233c-0.061,0.466-0.27,0.917-0.627,1.277l-56.586,57.035c-0.867,0.873-2.28,0.879-3.154,0.012
					c-0.877-0.863-0.887-2.274-0.012-3.154l56.585-57.035c0.867-0.873,2.28-0.879,3.154-0.012
					C215.937,127.865,216.15,128.564,216.062,129.233z"/>
			</g>
			<g>
				<path class="st7" d="M158.314,188.286c-3.696,0-6.691-2.995-6.691-6.691v-66.193c0-3.696,2.995-6.692,6.691-6.692
					s6.691,2.995,6.691,6.692v66.193C165.005,185.292,162.011,188.286,158.314,188.286z"/>
			</g>
			<g>
				<path class="st4" d="M162.256,76.962c0,2.176-1.764,3.941-3.941,3.941c-2.177,0-3.941-1.765-3.941-3.941
					c0-2.177,1.765-3.942,3.941-3.942C160.492,73.02,162.256,74.785,162.256,76.962z"/>
				<path class="st4" d="M162.256,286.556c0,2.177-1.764,3.942-3.941,3.942c-2.177,0-3.941-1.765-3.941-3.942
					c0-2.176,1.765-3.941,3.941-3.941C160.492,282.615,162.256,284.38,162.256,286.556z"/>
				<path class="st4" d="M263.112,185.7c-2.177,0-3.941-1.765-3.941-3.941c0-2.177,1.765-3.941,3.941-3.941s3.941,1.764,3.941,3.941
					C267.053,183.936,265.289,185.7,263.112,185.7z"/>
				<path class="st4" d="M53.517,185.7c-2.177,0-3.941-1.765-3.941-3.941c0-2.177,1.764-3.941,3.941-3.941s3.941,1.764,3.941,3.941
					C57.458,183.936,55.694,185.7,53.517,185.7z"/>
				<path class="st4" d="M216.54,94.536c-1.14,1.854-3.567,2.434-5.421,1.294c-1.855-1.139-2.434-3.567-1.294-5.421
					c1.14-1.854,3.567-2.434,5.421-1.294C217.1,90.254,217.679,92.681,216.54,94.536z"/>
				<path class="st4" d="M106.805,273.109c-1.14,1.854-3.567,2.434-5.421,1.294c-1.855-1.139-2.434-3.566-1.295-5.421
					c1.14-1.854,3.567-2.434,5.421-1.294C107.365,268.827,107.944,271.255,106.805,273.109z"/>
				<path class="st4" d="M252.742,136.136c-1.923,1.02-4.308,0.288-5.328-1.636c-1.02-1.923-0.288-4.308,1.635-5.328
					c1.923-1.02,4.308-0.288,5.328,1.635C255.397,132.73,254.665,135.115,252.742,136.136z"/>
				<path class="st4" d="M67.581,234.346c-1.923,1.02-4.309,0.288-5.328-1.636c-1.02-1.923-0.288-4.308,1.635-5.328
					c1.923-1.019,4.308-0.288,5.328,1.636C70.236,230.941,69.503,233.326,67.581,234.346z"/>
				<path class="st4" d="M247.795,236.452c-1.898-1.064-2.574-3.467-1.51-5.366c1.064-1.898,3.467-2.574,5.366-1.51
					c1.898,1.065,2.574,3.467,1.51,5.366C252.096,236.84,249.693,237.517,247.795,236.452z"/>
				<path class="st4" d="M64.979,133.941c-1.898-1.065-2.574-3.467-1.51-5.366c1.064-1.898,3.467-2.574,5.365-1.51
					c1.899,1.064,2.574,3.466,1.51,5.365C69.28,134.329,66.878,135.006,64.979,133.941z"/>
				<path class="st4" d="M207.675,274.288c-1.096-1.88-0.46-4.293,1.421-5.389c1.88-1.096,4.293-0.46,5.389,1.421
					c1.096,1.88,0.46,4.293-1.42,5.39C211.184,276.804,208.771,276.168,207.675,274.288z"/>
				<path class="st4" d="M102.144,93.199c-1.096-1.881-0.46-4.294,1.421-5.39c1.88-1.096,4.293-0.46,5.389,1.421
					c1.096,1.88,0.46,4.294-1.42,5.39C105.653,95.715,103.24,95.079,102.144,93.199z"/>
			</g>
		</g>
	</g>
	<g class="st2">
		<g>
			<g>
				<g>
					<g>
						<path class="st6" d="M596.161,218.613h85.345c3.67,0,6.644,2.975,6.644,6.644v51.597c0,3.669-2.975,6.644-6.644,6.644h-0.417
							v7.729c0,1.233-1.378,1.966-2.401,1.277l-13.363-9.006h-69.165c-3.67,0-6.644-2.975-6.644-6.644v-51.597
							C589.517,221.587,592.491,218.613,596.161,218.613z"/>
						<g>
							<g>
								<path class="st8" d="M608.383,235.038h60.901c0.8,0,1.45-0.65,1.45-1.45s-0.65-1.45-1.45-1.45h-60.901
									c-0.801,0-1.45,0.649-1.45,1.45S607.582,235.038,608.383,235.038z"/>
							</g>
							<g>
								<path class="st8" d="M608.383,243.853h60.901c0.8,0,1.45-0.65,1.45-1.45c0-0.8-0.65-1.45-1.45-1.45h-60.901
									c-0.801,0-1.45,0.65-1.45,1.45C606.933,243.204,607.582,243.853,608.383,243.853z"/>
							</g>
							<g>
								<path class="st8" d="M608.383,252.67h60.901c0.8,0,1.45-0.65,1.45-1.45s-0.65-1.45-1.45-1.45h-60.901
									c-0.801,0-1.45,0.65-1.45,1.45S607.582,252.67,608.383,252.67z"/>
							</g>
							<g>
								<path class="st8" d="M608.383,261.485h60.901c0.8,0,1.45-0.65,1.45-1.45c0-0.8-0.65-1.45-1.45-1.45h-60.901
									c-0.801,0-1.45,0.65-1.45,1.45C606.933,260.836,607.582,261.485,608.383,261.485z"/>
							</g>
							<g>
								<path class="st8" d="M608.383,270.301h35.768c0.8,0,1.45-0.649,1.45-1.45c0-0.801-0.65-1.45-1.45-1.45h-35.768
									c-0.801,0-1.45,0.65-1.45,1.45C606.933,269.651,607.582,270.301,608.383,270.301z"/>
							</g>
						</g>
					</g>
				</g>
			</g>
		</g>
		<g>
			<path class="st9" d="M718.017,222.182h51.389c2.58,0,4.672,2.092,4.672,4.672v28.06c0,2.58-2.092,4.672-4.672,4.672h-0.293v5.527
				c0,0.824-0.923,1.31-1.602,0.843l-9.105-6.252l0.611-0.118h-41c-2.58,0-4.672-2.092-4.672-4.672v-28.06
				C713.345,224.274,715.437,222.182,718.017,222.182z"/>
			<g>
				<path class="st6" d="M751.68,240.884c0,1.857,1.505,3.363,3.363,3.363s3.363-1.505,3.363-3.363c0-1.857-1.506-3.363-3.363-3.363
					S751.68,239.027,751.68,240.884z"/>
				<path class="st6" d="M740.186,240.884c0,1.857,1.505,3.363,3.362,3.363c1.857,0,3.363-1.505,3.363-3.363
					c0-1.857-1.505-3.363-3.363-3.363C741.692,237.522,740.186,239.027,740.186,240.884z"/>
				<path class="st6" d="M728.692,240.884c0,1.857,1.505,3.363,3.362,3.363c1.857,0,3.363-1.505,3.363-3.363
					c0-1.857-1.505-3.363-3.363-3.363C730.198,237.522,728.692,239.027,728.692,240.884z"/>
			</g>
		</g>
		<g>
			<path class="st10" d="M810.175,243.968h63.348c3.181,0,5.759,2.578,5.759,5.759v34.589c0,3.181-2.578,5.759-5.759,5.759h-47.438
				c-1.289,0-2.549,0.387-3.615,1.111l-10.336,7.014c-0.679,0.461-1.598-0.026-1.598-0.847v-7.278h-0.361
				c-3.181,0-5.759-2.579-5.759-5.759v-34.59C804.416,246.546,806.994,243.968,810.175,243.968z"/>
			<g>
				<path class="st5" d="M832.025,267.022c0,2.289-1.856,4.145-4.145,4.145c-2.289,0-4.145-1.856-4.145-4.145
					s1.856-4.145,4.145-4.145C830.17,262.877,832.025,264.733,832.025,267.022z"/>
				<path class="st5" d="M846.194,267.022c0,2.289-1.856,4.145-4.145,4.145c-2.289,0-4.145-1.856-4.145-4.145
					s1.856-4.145,4.145-4.145C844.338,262.877,846.194,264.733,846.194,267.022z"/>
				<path class="st5" d="M860.363,267.022c0,2.289-1.856,4.145-4.145,4.145c-2.289,0-4.145-1.856-4.145-4.145
					s1.856-4.145,4.145-4.145C858.507,262.877,860.363,264.733,860.363,267.022z"/>
			</g>
		</g>
		<g>
			<g>
				<path class="st11" d="M628.857,312.573h246.551c4.467,0,8.089,3.621,8.089,8.089v165.654c0,4.467-3.622,8.089-8.089,8.089
					H626.541c-4.467,0-8.089-3.621-8.089-8.089V321.541C618.452,317.074,624.39,312.573,628.857,312.573z"/>
			</g>
			<g>
				<path class="st12" d="M669.836,360.805c12.208,0,22.104,9.896,22.104,22.104c0,6.713-2.996,12.722-7.719,16.776v6.747
					c0,1.187-1.325,1.892-2.309,1.228l-5.435-3.663c-2.096,0.659-4.326,1.016-6.64,1.016c-12.208,0-22.104-9.896-22.104-22.104
					C647.732,370.702,657.628,360.805,669.836,360.805z"/>
				<g>
					<path class="st13" d="M682.935,380.316c-0.001-0.861-0.276-1.133-1.143-1.134c-1.753-0.002-3.506-0.003-5.258-0.001
						c-0.812,0.001-1.112,0.305-1.112,1.121c-0.001,3.455-0.001,6.909,0,10.364c0,0.914,0.278,1.19,1.197,1.19
						c1.736,0.001,3.472,0.002,5.208-0.001c0.82-0.001,1.107-0.291,1.109-1.123C682.939,388.996,682.937,382.052,682.935,380.316z"
						/>
					<path class="st13" d="M656.734,384.306c0-0.802,0.383-1.514,0.975-1.966c0.025-0.032,0.047-0.065,0.073-0.096
						c0.016-0.019,0.025-0.036,0.039-0.054c-0.232-0.361-0.368-0.789-0.368-1.249c0-1.278,1.036-2.313,2.313-2.313
						c0.065,0,2.598-0.029,3.566-0.016c0.9,0.012,1.196,0.057,0.994-1.218c-0.005-0.033-0.018-0.064-0.025-0.097
						c-0.332-1.558-0.516-3.13-0.44-4.726c0.036-0.75,0.187-1.462,0.696-2.046c0.856-0.98,2.063-0.784,2.533,0.424
						c0.199,0.512,0.341,1.048,0.483,1.579c0.377,1.412,0.89,2.767,1.713,3.984c1.133,1.673,2.571,2.891,4.699,3.029
						c0.392,0.026,0.542,0.229,0.54,0.623c-0.012,1.77-0.008,8.852,0.007,10.623c0.004,0.448-0.149,0.626-0.609,0.724
						c-1.006,0.213-1.991,0.526-2.987,0.791c-0.978,0.26-1.95,0.674-2.941,0.733c-2.148,0.128-6.73,0.091-6.792,0.091
						c-1.278,0-2.313-1.036-2.313-2.313c0-0.415,0.11-0.803,0.301-1.14c-0.01-0.008-0.022-0.015-0.034-0.023
						c-0.883-0.326-1.515-1.172-1.515-2.169c0-0.361,0.085-0.7,0.232-1.005c-0.053-0.061-0.102-0.126-0.15-0.19
						C657.124,385.832,656.734,385.116,656.734,384.306z"/>
				</g>
			</g>
			<g>
				<path class="st14" d="M879.282,327.779H622.658v-5.173c0-3.249,2.633-5.882,5.882-5.882h246.918
					c2.112,0,3.824,1.712,3.824,3.824V327.779z"/>
				<g>
					<path class="st6" d="M638.833,322.252c0,1.599-1.296,2.895-2.895,2.895c-1.599,0-2.895-1.296-2.895-2.895
						c0-1.599,1.296-2.895,2.895-2.895C637.537,319.357,638.833,320.653,638.833,322.252z"/>
					<path class="st15" d="M648.121,322.252c0,1.599-1.296,2.895-2.895,2.895c-1.599,0-2.895-1.296-2.895-2.895
						c0-1.599,1.296-2.895,2.895-2.895C646.825,319.357,648.121,320.653,648.121,322.252z"/>
					<path class="st16" d="M657.541,322.252c0,1.599-1.296,2.895-2.895,2.895c-1.599,0-2.895-1.296-2.895-2.895
						c0-1.599,1.296-2.895,2.895-2.895C656.245,319.357,657.541,320.653,657.541,322.252z"/>
				</g>
			</g>
			<g>
				<defs>
					
						<rect id="SVGID_1_" x="695.741" y="304.96" transform="matrix(-1 -1.224647e-16 1.224647e-16 -1 1532.4314 795.1729)" width="140.95" height="185.253"/>
				</defs>
				<clipPath id="SVGID_2_">
					<use xlink:href="#SVGID_1_"  style="overflow:visible;"/>
				</clipPath>
				<g class="st17">
					<g>
						<g>
							<path class="st18" d="M713.465,429.786c0,0,1.938-12.336,0.367-13.154c-2.418-1.259-2.823,3.954-4.855,1.677
								c-2.035-2.278-2.346-5.399-2.831-7.683c-0.487-2.286-1.971-2.973-2.332-1.081c-0.316,1.656-5.178,7.396,3.499,17.956
								c0.767,0.933,0.747,3.201,1.552,4.152L713.465,429.786z"/>
							<path class="st14" d="M714.579,424.717c0,0,11.563,12.544,20.9,19.871c1.308,1.026,2.789-0.387,3.775-1.727
								c3.604-4.899,6.139-12.552,11.353-22.839c11.694-23.072,25.423-13.088,26.11-9.091c2.698,15.687-6.643,29.679-15.897,41.661
								c-4.192,5.427-13.946,12.318-21.154,13.871c-9.623,2.074-29.24-19.313-33.133-34.81
								C706.039,427.581,714.579,424.717,714.579,424.717z"/>
						</g>
					</g>
					<path class="st5" d="M770.468,395.738l3.693,61.524l26.004-62.259l-2.713-0.999c0,0-8.759,0.336-14.971-1.449
						c-6.212-1.785-10.539,2.444-10.539,2.444L770.468,395.738z"/>
					<polygon class="st19" points="791.567,493.791 810.859,493.791 810.859,497.606 791.567,498.341 					"/>
					<path class="st14" d="M763.334,405.972c-8.953,3.583-13.613,13.226-12.652,23.256c5.331,55.649-1.809,70.124-2.435,73.975
						c5.281,7.261,67.601,7.839,73.823-4.32c0-4.268-9.935-15.269-10.069-31.564c-0.176-21.491,10.069-43.625,1.091-57.283
						c-2.304-3.504-9.594-5.91-9.892-5.998c-5.319-1.563-10.648-2.132-16.093-2.218c-7.977-0.126-12.932,0.067-18.702,1.983
						C768.003,403.937,763.908,405.742,763.334,405.972z"/>
					<path class="st8" d="M794.52,402.291c0,0-11.817,42.785-12.996,56.411c-1.179,13.627-3.581,49.691-3.581,49.691l-5.298-0.073
						c0,0,0.392-37.888,0.907-49.126c0.515-11.238-3.235-53.871-3.235-53.871S788.072,401.046,794.52,402.291z"/>
					<path class="st18" d="M792.694,395.547c-0.466-0.008,0.619,5.121,1.826,6.743c-7.827,5.903-20.936,4.516-24.203,3.032
						c0,0,0.054-7.484-0.886-9.112C769.431,396.211,790.777,396.654,792.694,395.547z"/>
					<path class="st20" d="M770.021,398.728c0,0,13.739,1.201,21.188-0.008c0,0-7.359,4.356-20.989,3.07L770.021,398.728z"/>
					<path class="st21" d="M806.893,405.439c0,0,3.188,24.499-5.165,38.968c-8.353,14.468-21.917,31.83-21.179,31.092
						c0.739-0.738,20.735-31.886,22.36-38.054c1.625-6.168,1.456-32.995,1.456-32.995L806.893,405.439z"/>
					<g>
						<path class="st18" d="M791.858,329.764c0,0,6.59,1.496,13.527,5.445c7.111,4.049,14.586,10.684,15.689,20.933
							c0.637,5.903,0.192,11.618-1.318,16.868c-3.672,12.759-13.625,22.752-29.588,25.929c-11.265,2.242-23.505,0.818-32.662-5.763
							c-9.161-6.58-14.754-20.69-12.62-32.515c2.133-11.825,7.489-18.146,15.813-23.694
							C769.021,331.42,779.818,329.016,791.858,329.764z"/>
						<g>
							<path class="st20" d="M774.257,372.643c-0.023,0-0.046,0-0.067-0.002c-0.11-0.009-1.067-0.086-1.685-0.256
								c-1.499-0.415-2.039-1.201-2.23-1.787c-0.196-0.605-0.214-1.602,0.825-2.906c0.92-1.157,1.057-3.478,1.031-4.277
								c-0.012-0.42,0.319-0.775,0.739-0.786c0.008,0,0.014,0,0.018,0c0.415-0.005,0.758,0.323,0.771,0.739
								c0.006,0.139,0.096,3.443-1.365,5.276c-0.473,0.595-0.678,1.134-0.567,1.481c0.106,0.325,0.526,0.603,1.181,0.785
								c0.406,0.111,1.146,0.187,1.397,0.207c0.422,0.032,0.738,0.401,0.704,0.82C774.979,372.336,774.649,372.638,774.257,372.643z
								"/>
						</g>
						<path class="st20" d="M746.712,379.192c1.068,0.524,2.27,0.81,3.542,0.796c4.345-0.048,7.829-3.609,7.78-7.956
							c-0.048-4.345-3.61-7.831-7.955-7.783c-1.63,0.018-3.139,0.53-4.385,1.392"/>
						<g>
							<path class="st22" d="M790.733,366.266c-0.096,1.615,0.754,2.978,1.894,3.044c1.143,0.066,2.144-1.188,2.238-2.802
								c0.095-1.613-0.756-2.976-1.897-3.043C791.825,363.399,790.826,364.654,790.733,366.266z"/>
						</g>
						<g>
							<path class="st22" d="M761.959,363.612c-0.14,1.612-1.179,2.837-2.317,2.736c-1.14-0.101-1.949-1.487-1.807-3.098
								c0.141-1.61,1.18-2.834,2.319-2.735C761.296,360.618,762.102,362.004,761.959,363.612z"/>
						</g>
						<path class="st20" d="M812.354,374.563c0.052,4.636-3.663,8.435-8.298,8.487c-4.636,0.051-8.435-3.664-8.487-8.3
							c-0.051-4.634,3.664-8.433,8.3-8.484C808.505,366.213,812.303,369.929,812.354,374.563z"/>
						<g>
							<path class="st23" d="M809.859,380.678c0.436,0.114,1.417,0.251,1.89,0.245c2.836-0.032,5.11-2.357,5.078-5.193
								c-0.031-2.836-2.356-5.11-5.192-5.079c-0.71,0.008-1.665-0.243-2.278,0.025c0,0,0.809,3.067,0.655,6.535
								C809.859,380.678,809.859,380.678,809.859,380.678z"/>
							<g class="st24">
								<path class="st25" d="M814.242,376.84c-0.372,0.004-0.701-0.258-0.769-0.637c-0.37-2.129-2.359-2.401-2.443-2.412
									c-0.42-0.052-0.722-0.435-0.674-0.855c0.052-0.418,0.429-0.719,0.848-0.673c1.112,0.12,3.33,1.047,3.789,3.676
									c0.071,0.419-0.209,0.817-0.628,0.89C814.321,376.837,814.28,376.839,814.242,376.84z"/>
							</g>
						</g>
						<path class="st26" d="M755.663,327.312c15.512-15.512,42.366-11.695,42.366-11.695c26.328,5.171,35.097,22.523,35.361,46.319
							c0.169,15.257-16.992,35.571-35.691,34.844c11.659-5.921,13.563-16.791,11.702-26.458c-0.764-3.968-3.589-8.059-3.589-8.059
							c-24.623-0.829-51.336-20.405-51.336-20.405c-4.297,4.295-6.43,14.69-7.066,23.947c-0.282,6.864,0.616,18.745,8.904,26.455
							c2.839,2.025,3.649,2.586,5.73,3.647c-13.96,1.646-20.456-3.25-20.456-3.25s1.664-2.7,2.844-6.17
							c1.893-5.563-0.492-12.302-1.095-14.226C738.363,356.38,744.466,338.509,755.663,327.312z"/>
						<path class="st26" d="M833.505,374.549c0,0-0.956,8.501,1.115,13.429c0.927,2.205,2.071,3.744,2.071,3.744
							s-7.943,10.88-34.883,8.651c-8.999-0.744-9.477-3.115-9.477-3.115s12.599-6.648,14.261-17.27
							c1.662-10.622-0.78-17.726-0.78-17.726L833.13,356L833.505,374.549z"/>
					</g>
					<path class="st8" d="M769.431,375.738c0,0,5.513,1.993,8.624,0.197c0,0-0.143,4.658-4.312,4.658
						S769.431,375.738,769.431,375.738z"/>
					<path class="st21" d="M763.334,405.972c0,0-10.277,23.311-6.007,36.065c3.152,9.417,15.798,33.004,15.798,33.004
						s-18.006-28.267-19.107-34.015c-2.673-13.958,4.182-32.076,4.182-32.076L763.334,405.972z"/>
					<polygon class="st21" points="753.407,446.02 752.588,460.138 750.626,461.467 					"/>
					<path class="st21" d="M809.186,437.71c0,0-6.005,18.027-8.645,19.552c-5.665-1.555-18.767-1.241-18.767-1.241l-1.486,18.711
						c0,0,15.495,5.791,24.393,4.482c6.476-0.953,8.576-2.259,8.576-2.259s-0.622-1.758-0.622-8.045S809.186,437.71,809.186,437.71z
						"/>
					<g>
						<g>
							<path class="st18" d="M774.45,462.419c0,0-5.682-11.12-7.434-10.858c-2.696,0.402,0.04,4.859-2.942,4.211
								c-2.985-0.647-5.071-2.99-6.806-4.552c-1.737-1.563-3.342-1.247-2.522,0.496c0.717,1.525,0.158,9.027,13.384,12.471
								c1.168,0.304,2.486,2.151,3.696,2.447L774.45,462.419z"/>
							<path class="st14" d="M772.372,457.663c0,0,16.503-2.454,27.793,1.204c1.563,0.506,2.213-1.604,3.213-3.775
								c3.008-6.532,5.979-18.227,5.979-18.227s-0.082-30.759,2.823-27.93c11.403,11.106,14.432,28.971,13.986,44.104
								c-0.202,6.854-4.838,15.573-9.757,21.066c-6.567,7.333-34.213,4.149-46.47-6.101
								C767.146,464.999,772.372,457.663,772.372,457.663z"/>
						</g>
					</g>
				</g>
			</g>
		</g>
	</g>
	<g class="st2">
		<path class="st27" d="M401.928,360.197c0,0-6.715,33.244-1.548,74.778c4.216,33.895-1.039,48.522-41.411,57.937
			c-37.499,8.745-49.845,6.883-67.837-11.109c-17.992-17.992-1.89-14.515,17.616-87.565
			c19.505-73.049,48.794-100.999,48.794-100.999L401.928,360.197z"/>
		<g>
			<path class="st18" d="M312.439,444.647c0,0-4.35,10.043,1.971,19.372c0,0-37.506,15.562-53.775,6.169
				c-16.269-9.393-16.269-9.393-16.269-9.393l-5.894-31.867C238.472,428.929,303.187,449.989,312.439,444.647z"/>
			<path class="st20" d="M313.545,458.509c0,0-37.073,5.485-54.616-10.089c0,0,37.842,5.192,52.292,2.344L313.545,458.509z"/>
		</g>
		<path class="st18" d="M377.2,527.162c16.556,39.516,24.767,112.781,58.716,115.252c39.055,2.842,76.949,11.518,96.828,18.97
			c16.502,6.186,26.365,18.488,27.061,22.531c0.696,4.044-19.752-10.996-19.752-10.996s2.123,11.266,1.096,14.053
			c-1.027,2.786-9.994-13.506-9.994-13.506s-123.032-0.528-137.828-0.528c-7.884,0-70.031-104.18-70.031-104.18
			S367.103,503.064,377.2,527.162z"/>
		<g>
			<g>
				<path class="st18" d="M254.078,237.405c0,0-20.108,4.796-41.189,17.115c-21.614,12.631-44.251,33.173-47.283,64.565
					c-1.746,18.076-0.187,35.548,4.612,51.553c11.661,38.9,42.449,69.135,91.382,78.31c34.533,6.475,71.922,1.702,99.715-18.739
					c27.793-20.441,44.42-63.789,37.495-99.89c-6.924-36.099-23.528-55.248-49.173-71.935
					C323.992,241.696,290.878,234.708,254.078,237.405z"/>
				<g>
					<path class="st20" d="M297.312,381.292c5.559,6.92,17.519,9.087,20.171-1.755c0.884-3.62,6.59-2.515,5.699,1.131
						c-1.499,6.129-6.114,11.18-12.503,12.288c-7.304,1.266-13.762-2.904-18.156-8.372
						C290.178,381.663,294.983,378.394,297.312,381.292L297.312,381.292z"/>
				</g>
				<g>
					<path class="st20" d="M309.374,367.969c0.068,0,0.138-0.003,0.207-0.01c0.329-0.029,3.259-0.298,5.147-0.842
						c4.567-1.318,6.197-3.74,6.76-5.54c0.581-1.861,0.6-4.909-2.62-8.862c-2.855-3.504-3.356-10.603-3.307-13.043
						c0.025-1.29-0.998-2.359-2.29-2.386c-0.018,0-0.035,0-0.05,0c-1.269,0.001-2.31,1.013-2.338,2.287
						c-0.008,0.427-0.175,10.533,4.358,16.097c1.466,1.799,2.116,3.445,1.782,4.51c-0.311,0.996-1.587,1.862-3.591,2.44
						c-1.231,0.355-3.495,0.61-4.262,0.678c-1.287,0.113-2.239,1.249-2.125,2.536C307.153,367.052,308.175,367.969,309.374,367.969z
						"/>
				</g>
				<path class="st22" d="M243.583,343.843c0.16,5.132,3.233,9.201,6.863,9.087c3.63-0.113,6.442-4.366,6.282-9.499
					c-0.161-5.133-3.234-9.2-6.864-9.087C246.234,334.459,243.421,338.711,243.583,343.843z"/>
				<path class="st22" d="M344.419,340.349c0.161,5.132,3.233,9.201,6.863,9.087c3.63-0.113,6.442-4.366,6.282-9.499
					c-0.16-5.132-3.233-9.2-6.863-9.087C347.071,330.965,344.259,335.217,344.419,340.349z"/>
				<circle class="st20" cx="218.576" cy="375.138" r="25.675"/>
				<path class="st20" d="M393.852,387.065c-3.25,1.636-6.921,2.557-10.808,2.557c-13.296,0-24.075-10.779-24.075-24.075
					c0-13.297,10.779-24.076,24.075-24.076c4.986,0,9.619,1.516,13.461,4.112"/>
			</g>
		</g>
		<path class="st27" d="M381.372,408.915c39.203-55.192,25.636-137.942-16.661-180.239
			c-42.297-42.297-129.909-27.606-129.909-27.606c-80.366,16.712-106.665,63.357-106.665,136.155
			c0,46.676,6.567,50.621-18.47,109.593c-24.721,58.228,62.356,57.946,62.356,57.946s5.771-41.035,63.995-46.439
			c37.502-3.481,34.153,3.624,7.558-21.849c-28.383-27.186-32.237-53.218-26.445-79.212c2.689-12.069,5.792-25.994,5.792-25.994
			c75.286-3.367,145.905-58.137,145.905-58.137c21.892,21.396,30.879,88.502,16.529,126.303
			C384.247,402.359,382.208,406.967,381.372,408.915z"/>
		<polygon class="st28" points="229.483,539.508 241.701,549.196 233.695,558.393 		"/>
		<g>
			<g>
				<path class="st10" d="M170.951,700.054l2.738-130.717c0,0-22.209-48.267,9.872-83.609c26.85-29.58,60.711-31.038,60.711-31.038
					s15.53,11.891,39.591,14.414c18.201,1.518,32.517-3.97,39.431-11.703c17.635,2.543,55.23,29.36,66.446,72.228
					c-10.786,14.443-24.479,14.443-24.479,14.443l26.17,155.982H170.951"/>
			</g>
		</g>
		<path class="st29" d="M241.701,538.437c7.129-2.211,11.511-5.195,11.511-5.195l-2.42-15.216c0,0,6.084,16.448,6.882,18.412
			c0.797,1.964-15.231,6.452-15.231,6.452S242.112,540.566,241.701,538.437z"/>
		<path class="st29" d="M360.435,520.904l4.828,23.168c0,0,4.253-0.474,6.156-1.115L360.435,520.904z"/>
		<path class="st7" d="M313.382,456.036c0,0-3.286,5.826-28.023,7.056c-16.819,0.836-41.086-8.402-41.086-8.402
			s-8.939,0.928-11.262,1.812c0,0,21.077,17.938,48.81,18.139c21.842,0.158,30.475-5.197,36.362-11.084
			c4.542-4.542,5.112-6.157,5.112-6.157C320.747,456.945,313.382,456.036,313.382,456.036z"/>
		<path class="st18" d="M241.701,538.346c0,0,11.719,44.362,15.408,52.587c3.688,8.226,17.324,41.099,48.603,46.049
			c31.28,4.951,47.866,4.863,59.965,11.721c22.467,12.736,25.656,28.168,13.451,25.699c-9.532-1.928-35.948-1.238-35.948-1.238
			s-72.99,15.145-106.749-12.312c-19.594-15.936-45.538-80.727-49.679-98.137C205.154,544.316,241.701,538.346,241.701,538.346z"/>
		<path class="st27" d="M234.279,426.6c12.9,15.367,40.573,32.506,40.573,47.619s-17.226,20.255-34.552,7.375
			c-21.835-16.231-47.89-7.628-57.615,5.495c-9.725,13.123-11.303,17.467-11.303,17.467s-25.892,1.444-33.425-11.604
			c-7.533-13.048,23.394-40.858,45.464-40.858C205.49,452.095,223.934,414.278,234.279,426.6z"/>
	</g>
	<g class="st2">
		<path class="st30" d="M506.935,683.577l50.178-183.746c2.901-10.62,12.548-17.987,23.558-17.987h143.506l68.268,201.733H506.935z"
			/>
		<path class="st30" d="M648.374,692.489H319.759v-6.901c0-6.86,5.562-12.422,12.422-12.422h316.193V692.489z"/>
		<path class="st4" d="M524.359,692.347l52.785-192.54c2.909-10.609,12.551-17.964,23.551-17.964h228.684
			c16.045,0,27.73,15.209,23.596,30.711l-47.939,179.792H524.359z"/>
		<path class="st30" d="M721.901,597.056c-7.234,8.48-18.327,10.896-24.775,5.394c-6.448-5.501-5.811-16.835,1.424-25.315
			c7.234-8.48,18.326-10.896,24.774-5.394C729.772,577.242,729.135,588.576,721.901,597.056z"/>
	</g>
	<g class="st2">
		<path class="st31" d="M900.154,708.642H112.429c-4.743,0-8.588-3.845-8.588-8.588c0-4.743,3.845-8.588,8.588-8.588h787.725
			c4.743,0,8.588,3.845,8.588,8.588C908.742,704.797,904.896,708.642,900.154,708.642z"/>
	</g>
</g>
<g id="Layer_2">
	
		<rect x="385" y="0" transform="matrix(-1 -1.224647e-16 1.224647e-16 -1 2184.7974 601.8964)" class="st32" width="1414.797" height="601.896"/>
	
		<linearGradient id="SVGID_3_" gradientUnits="userSpaceOnUse" x1="-3807.7883" y1="541.0239" x2="-3807.7883" y2="783.7404" gradientTransform="matrix(-1 0 0 1 -2450.6465 0)">
		<stop  offset="0" style="stop-color:#EDF7FF"/>
		<stop  offset="1" style="stop-color:#4BB0DE"/>
	</linearGradient>
	<polygon class="st33" points="914.464,718.003 1799.82,718.003 1799.82,582.25 914.464,582.25 	"/>
	<defs>
		<filter id="Adobe_OpacityMaskFilter" filterUnits="userSpaceOnUse" x="1232.342" y="348.305" width="567.479" height="236.563">
			<feFlood  style="flood-color:white;flood-opacity:1" result="back"/>
			<feBlend  in="SourceGraphic" in2="back" mode="normal"/>
		</filter>
	</defs>
	<mask maskUnits="userSpaceOnUse" x="1232.342" y="348.305" width="567.479" height="236.563" id="SVGID_4_">
		<g class="st34">
			<defs>
				
					<filter id="Adobe_OpacityMaskFilter_1_" filterUnits="userSpaceOnUse" x="1232.342" y="348.305" width="567.479" height="236.563">
					<feFlood  style="flood-color:white;flood-opacity:1" result="back"/>
					<feBlend  in="SourceGraphic" in2="back" mode="normal"/>
				</filter>
			</defs>
			<mask maskUnits="userSpaceOnUse" x="1232.342" y="348.305" width="567.479" height="236.563" id="SVGID_4_">
				<g class="st35">
				</g>
			</mask>
			
				<linearGradient id="SVGID_5_" gradientUnits="userSpaceOnUse" x1="-4250.4668" y1="466.587" x2="-3682.988" y2="466.587" gradientTransform="matrix(-1 0 0 1 -2450.6465 0)">
				<stop  offset="0.0052" style="stop-color:#FFFFFF"/>
				<stop  offset="1" style="stop-color:#000000"/>
			</linearGradient>
			<polygon class="st36" points="1232.342,584.869 1523.577,408.589 1605.115,445.458 1799.82,348.305 1799.82,584.252 			"/>
		</g>
	</mask>
	
		<linearGradient id="SVGID_6_" gradientUnits="userSpaceOnUse" x1="-4250.4668" y1="466.587" x2="-3682.988" y2="466.587" gradientTransform="matrix(-1 0 0 1 -2450.6465 0)">
		<stop  offset="0.0052" style="stop-color:#F9E5DB"/>
		<stop  offset="1" style="stop-color:#FFFFFF"/>
	</linearGradient>
	<polygon class="st37" points="1232.342,584.869 1523.577,408.589 1605.115,445.458 1799.82,348.305 1799.82,584.252 	"/>
	<defs>
		<filter id="Adobe_OpacityMaskFilter_2_" filterUnits="userSpaceOnUse" x="822.229" y="428.498" width="977.592" height="157.945">
			<feFlood  style="flood-color:white;flood-opacity:1" result="back"/>
			<feBlend  in="SourceGraphic" in2="back" mode="normal"/>
		</filter>
	</defs>
	<mask maskUnits="userSpaceOnUse" x="822.229" y="428.498" width="977.592" height="157.945" id="SVGID_7_">
		<g class="st38">
			<defs>
				
					<filter id="Adobe_OpacityMaskFilter_3_" filterUnits="userSpaceOnUse" x="822.229" y="428.498" width="977.592" height="157.945">
					<feFlood  style="flood-color:white;flood-opacity:1" result="back"/>
					<feBlend  in="SourceGraphic" in2="back" mode="normal"/>
				</filter>
			</defs>
			<mask maskUnits="userSpaceOnUse" x="822.229" y="428.498" width="977.592" height="157.945" id="SVGID_7_">
				<g class="st39">
				</g>
			</mask>
			
				<linearGradient id="SVGID_8_" gradientUnits="userSpaceOnUse" x1="-3761.6709" y1="429.4848" x2="-3761.6709" y2="610.0454" gradientTransform="matrix(-1 0 0 1 -2450.6465 0)">
				<stop  offset="0.0052" style="stop-color:#FFFFFF"/>
				<stop  offset="1" style="stop-color:#000000"/>
			</linearGradient>
			<polygon class="st40" points="822.229,586.443 1119.16,428.498 1347.148,520.064 1799.82,436.343 1799.82,584.252 			"/>
		</g>
	</mask>
	
		<linearGradient id="SVGID_9_" gradientUnits="userSpaceOnUse" x1="-3761.6709" y1="429.4848" x2="-3761.6709" y2="610.0454" gradientTransform="matrix(-1 0 0 1 -2450.6465 0)">
		<stop  offset="0.0052" style="stop-color:#F9E5DB"/>
		<stop  offset="1" style="stop-color:#FFFFFF"/>
	</linearGradient>
	<polygon class="st41" points="822.229,586.443 1119.16,428.498 1347.148,520.064 1799.82,436.343 1799.82,584.252 	"/>
	<defs>
		<filter id="Adobe_OpacityMaskFilter_4_" filterUnits="userSpaceOnUse" x="1342.614" y="59" width="256.296" height="256.296">
			<feFlood  style="flood-color:white;flood-opacity:1" result="back"/>
			<feBlend  in="SourceGraphic" in2="back" mode="normal"/>
		</filter>
	</defs>
	<mask maskUnits="userSpaceOnUse" x="1342.614" y="59" width="256.296" height="256.296" id="SVGID_10_">
		<g class="st42">
			<defs>
				<filter id="Adobe_OpacityMaskFilter_5_" filterUnits="userSpaceOnUse" x="1342.614" y="59" width="256.296" height="256.296">
					<feFlood  style="flood-color:white;flood-opacity:1" result="back"/>
					<feBlend  in="SourceGraphic" in2="back" mode="normal"/>
				</filter>
			</defs>
			<mask maskUnits="userSpaceOnUse" x="1342.614" y="59" width="256.296" height="256.296" id="SVGID_10_">
				<g class="st43">
				</g>
			</mask>
			
				<linearGradient id="SVGID_11_" gradientUnits="userSpaceOnUse" x1="-3921.4084" y1="93.132" x2="-3921.4084" y2="405.7237" gradientTransform="matrix(-1 0 0 1 -2450.6465 0)">
				<stop  offset="0" style="stop-color:#FFFFFF"/>
				<stop  offset="1" style="stop-color:#000000"/>
			</linearGradient>
			<circle class="st44" cx="1470.762" cy="187.148" r="128.148"/>
		</g>
	</mask>
	
		<linearGradient id="SVGID_12_" gradientUnits="userSpaceOnUse" x1="-3921.4084" y1="93.132" x2="-3921.4084" y2="405.7237" gradientTransform="matrix(-1 0 0 1 -2450.6465 0)">
		<stop  offset="0" style="stop-color:#FFD370"/>
		<stop  offset="1" style="stop-color:#FFFFFF"/>
	</linearGradient>
	<circle class="st45" cx="1470.762" cy="187.148" r="128.148"/>
	<g>
		<path class="st8" d="M1564.482,211.277c3.037,0,5.944,0.448,8.621,1.267c3.53-8.564,12.3-14.629,22.563-14.629
			c11.407,0,20.972,7.495,23.541,17.586c1.971-0.745,4.118-1.156,6.369-1.156c9.495,0,17.194,7.317,17.194,16.343h-25.155h-9.232
			h-19.676h-14.99h-33.456C1540.26,219.968,1551.104,211.277,1564.482,211.277z"/>
	</g>
	<g>
		<path class="st8" d="M1340.193,229.804c3.787,0,7.41,0.558,10.747,1.579c4.401-10.675,15.332-18.235,28.125-18.235
			c14.219,0,26.142,9.343,29.344,21.922c2.456-0.928,5.132-1.441,7.938-1.441c11.836,0,21.433,9.12,21.433,20.372h-31.357h-11.508
			h-24.526h-18.685H1310C1310,240.638,1323.518,229.804,1340.193,229.804z"/>
	</g>
	<linearGradient id="SVGID_13_" gradientUnits="userSpaceOnUse" x1="197.4598" y1="777.1088" x2="197.4598" y2="-138.8247">
		<stop  offset="0" style="stop-color:#FFFFFF"/>
		<stop  offset="1" style="stop-color:#DEDEDE"/>
	</linearGradient>
	<polygon class="st46" points="2.574,720 392.346,720 392.346,0.057 2.574,0.057 	"/>
	<g class="st24">
		
			<linearGradient id="SVGID_14_" gradientUnits="userSpaceOnUse" x1="-4148.1592" y1="45.6426" x2="-2819.4924" y2="45.6426" gradientTransform="matrix(-1 0 0 1 -2450.6465 0)">
			<stop  offset="0" style="stop-color:#FFDEC4"/>
			<stop  offset="1" style="stop-color:#FFF1C9"/>
		</linearGradient>
		<rect x="386" y="37.621" class="st47" width="1388.661" height="16.043"/>
		
			<linearGradient id="SVGID_15_" gradientUnits="userSpaceOnUse" x1="-4148.1592" y1="71.3854" x2="-2819.4924" y2="71.3854" gradientTransform="matrix(-1 0 0 1 -2450.6465 0)">
			<stop  offset="0" style="stop-color:#FFDEC4"/>
			<stop  offset="1" style="stop-color:#FFF1C9"/>
		</linearGradient>
		<rect x="386" y="63.364" class="st48" width="1388.661" height="16.043"/>
		
			<linearGradient id="SVGID_16_" gradientUnits="userSpaceOnUse" x1="-4148.1592" y1="97.1283" x2="-2819.4924" y2="97.1283" gradientTransform="matrix(-1 0 0 1 -2450.6465 0)">
			<stop  offset="0" style="stop-color:#FFDEC4"/>
			<stop  offset="1" style="stop-color:#FFF1C9"/>
		</linearGradient>
		<rect x="386" y="89.107" class="st49" width="1388.661" height="16.043"/>
		
			<linearGradient id="SVGID_17_" gradientUnits="userSpaceOnUse" x1="-4148.1592" y1="122.871" x2="-2819.4924" y2="122.871" gradientTransform="matrix(-1 0 0 1 -2450.6465 0)">
			<stop  offset="0" style="stop-color:#FFDEC4"/>
			<stop  offset="1" style="stop-color:#FFF1C9"/>
		</linearGradient>
		<rect x="386" y="114.85" class="st50" width="1388.661" height="16.043"/>
		
			<linearGradient id="SVGID_18_" gradientUnits="userSpaceOnUse" x1="-4148.1592" y1="148.6138" x2="-2819.4924" y2="148.6138" gradientTransform="matrix(-1 0 0 1 -2450.6465 0)">
			<stop  offset="0" style="stop-color:#FFDEC4"/>
			<stop  offset="1" style="stop-color:#FFF1C9"/>
		</linearGradient>
		<rect x="386" y="140.592" class="st51" width="1388.661" height="16.043"/>
	</g>
	<rect x="18.411" y="570.413" class="st52" width="1781.589" height="147.591"/>
	<g>
		<path class="st53" d="M1635.191,663.898c0,5.9-58.422,10.683-130.488,10.683c-72.067,0-130.488-4.783-130.488-10.683
			c0-5.9,58.422-10.684,130.488-10.684C1576.769,653.214,1635.191,657.998,1635.191,663.898z"/>
		<g>
			<polygon class="st54" points="1721.995,524.256 1691.525,653.092 1685.031,653.092 1718.863,508.253 			"/>
			<polygon class="st55" points="1702.572,386.449 1734.583,653.092 1741.418,653.092 1708.611,384.142 			"/>
			<rect x="1732.693" y="651.391" class="st54" width="10.428" height="4.954"/>
			<rect x="1683.349" y="651.391" class="st54" width="10.427" height="4.954"/>
			
				<rect x="1666.323" y="354.634" transform="matrix(0.9927 -0.1205 0.1205 0.9927 -32.9041 208.1259)" class="st56" width="74.874" height="42.777"/>
			
				<rect x="1663.498" y="350.717" transform="matrix(0.9927 -0.1205 0.1205 0.9927 -30.1201 207.6115)" class="st57" width="74.874" height="4.088"/>
		</g>
		<rect x="1353.927" y="611.471" class="st58" width="305.881" height="7.511"/>
		<path class="st56" d="M1506.867,452.465c-214.905,0-188.185,62.19-188.185,62.19l35.357,78.414h152.828h152.828l35.358-78.414
			C1695.053,514.655,1721.773,452.465,1506.867,452.465z"/>
		<polygon class="st58" points="1353.927,618.982 1344.238,657.062 1348.407,657.062 1362.377,618.982 		"/>
		<polygon class="st58" points="1659.808,618.982 1669.498,657.062 1665.329,657.062 1651.359,618.982 		"/>
		<rect x="1348.519" y="568.508" class="st59" width="316.697" height="18.026"/>
		<path class="st57" d="M1717.583,502.988L1717.583,502.988c-7.705-4.839-17.873-2.514-22.712,5.191l-46.303,73.736h-283.095
			l-46.303-73.736c-4.838-7.705-15.007-10.029-22.712-5.191l0,0c-7.875,4.945-10.25,15.337-5.305,23.212l55.902,89.023v0.003
			h319.626v-0.191l0.303,0.191l55.904-89.026C1727.833,518.326,1725.458,507.933,1717.583,502.988z"/>
		<g>
			<path class="st60" d="M1495.3,568.808c0,0-2.442-3.7-2.84-5.874c-0.399-2.173-1.623-3.411-1.623-3.411s-9.252-1.346-12.808-4.647
				c-3.556-3.3-11.089-12.291-14.645-9.597c-3.557,2.694,2.578,14.031,6.207,17.457c3.629,3.426,8.543,9.429,13.007,8.984
				C1487.063,571.275,1493.142,569.156,1495.3,568.808z"/>
			<path class="st61" d="M1495.3,568.24l-4.463-8.718c0,0,21.364-3.914,27.613-7.678c1.566-0.944,3.124-1.889,4.575-2.785
				c3.3-2.037,6.036-3.799,7.001-4.619c3.084-2.623,15.451-11.384,18.792-14.602c3.338-3.217,7.284-1.256,12.491-1.204
				c5.208,0.056,24.072,5.281,29.714,6.029c5.645,0.744,26.022,4.534,26.022,4.534C1613.459,549.001,1495.3,568.24,1495.3,568.24z"
				/>
			<path class="st62" d="M1618.236,538.88c0,0-11.497,1.657-14.453,1.882c-3.026,0.231-20.146,1.608-28.403,2.401
				c-8.256,0.793-24.474,0.319-27.691,1.733c-3.218,1.414-21.813,7.716-27.9,9.682c-6.087,1.966-45.634,9.206-45.634,9.206
				s-0.678,5.358,2.823,9.471c0,0,17.432-1.557,26.631-0.204c9.199,1.352,25.268-0.708,35.02-5.131
				c9.752-4.424,25.211-0.388,33.851,2.648c8.639,3.036,41.669,5.474,45.791,4.548c4.122-0.925,12.342-4.892,18.298-11.369
				C1642.524,557.27,1618.236,538.88,1618.236,538.88z"/>
			<path class="st63" d="M1476.978,573.256c0,0-1.474-4.181-1.335-6.386c0.139-2.205-0.536-3.26-0.536-3.26
				s-8.866-3.987-11.518-8.05c-2.652-4.062-7.786-14.608-11.889-12.854s-0.893,14.238,1.801,18.44
				c2.693,4.202,4.358,15.383,8.798,16.031C1466.738,577.825,1474.799,573.071,1476.978,573.256z"/>
			<path class="st62" d="M1644.083,531.52c0,0,14.531,32.975-8.026,40.97c-17.99,6.377-51.157,0.507-51.157,0.507l20.405-32.153
				L1644.083,531.52z"/>
			<path class="st64" d="M1606.681,407.085c5.533,1.231,2.234,15.122,5.943,34.545c3.708,19.423,15.414,22.458,15.414,22.458
				s-5.198-8.612-4.629-17.617c0.444-7.036,8.968-26.232,0.542-38.78c-6.509-9.694-17.979-0.893-17.979-0.893L1606.681,407.085z"/>
			<path class="st65" d="M1615.006,447.522l-10.758,11.072c-0.099-2.033-0.846-4.505-1.612-6.568
				c-0.376-1.009-0.759-1.922-1.067-2.628c-0.408-0.929-0.696-1.507-0.696-1.507l9.597-10.148L1615.006,447.522z"/>
			<path class="st66" d="M1602.198,457.506c0,0-0.416,5.325-3.315,10.237c-2.898,4.912-7.691,13.065-7.011,18.367
				c0.679,5.301,2.933,7.227,4.971,9.136c2.038,1.908,7.63,15.685,8.309,20.986c0.679,5.301,1.107,16.317-0.182,24.416
				c0,0,37.726,4.378,41.522-2.214c0,0-4.682-21.196-6.891-26.507c-2.209-5.311-6.832-37.088-8.815-42.491
				c-1.983-5.403-6.659-10.627-9.518-14.374c-2.554-3.347-7.207-9.576-7.207-9.576L1602.198,457.506z"/>
			<path class="st65" d="M1597.484,408.213c-4.979,0.333-15.673,4.092-15.85,17.409c0,0,0.805,3.492,1.984,6.173
				c1.18,2.68-0.364,11.163,0.332,11.492c0.697,0.329,3.442,0.535,3.442,0.535s3.923,8.619,7.057,8.18
				c3.134-0.44,14.749-4.271,19.066-16.056C1617.832,424.16,1617.589,406.871,1597.484,408.213z"/>
			<path class="st64" d="M1581.633,425.622c0,0,8.671,4.552,16.776,4.737c8.105,0.185,14.748,13.178,14.748,13.178
				s9.813-22.016-1.425-33.187C1600.528,399.212,1578.133,410.539,1581.633,425.622z"/>
			<path class="st65" d="M1600.304,430.28c-0.135-1.55,1.316-4.066,4.09-2.248c2.774,1.818,0.219,9.554-1.938,9.074
				C1600.3,436.626,1600.444,431.881,1600.304,430.28z"/>
			<path class="st67" d="M1609.261,443.241c-0.151,0.251-4.098,6.716-6.626,8.784c-0.376-1.009-0.759-1.922-1.067-2.628
				C1601.568,449.397,1607.206,446.037,1609.261,443.241z"/>
			
				<rect x="1528.014" y="541.831" transform="matrix(-0.9826 0.1855 -0.1855 -0.9826 3183.6414 790.4368)" class="st8" width="53.652" height="4.67"/>
			
				<rect x="1488.822" y="525.661" transform="matrix(-0.5655 -0.8247 0.8247 -0.5655 1937.3094 2076.5979)" class="st8" width="53.652" height="4.67"/>
			<path class="st65" d="M1538.99,544.782c-0.261-1.172,0-3.127,3.69-5.103s11.659-6.473,14.461-6.58
				c2.802-0.106,8.322,0.335,9.454,0.329c1.133-0.005-1.776,6.668-1.776,6.668L1538.99,544.782z"/>
			<path class="st65" d="M1565.301,533.939c0,0,15.381-6.054,17.879-7.259c2.497-1.206,14.145-5.123,15.178-5.64
				c1.034-0.517,5.902-29.596,6.333-36.916c0.431-7.321,0.861-22.823,9.129-22.134c8.268,0.689,10.249,6.115,9.215,16.794
				c-1.033,10.679-7.148,48.918-9.732,50.209c-2.584,1.292-32.243,7.925-47.882,11.045
				C1550.455,543.024,1565.301,533.939,1565.301,533.939z"/>
			<path class="st66" d="M1603.845,486.4c0,0,11.914,2.224,18.783,2.914c0,0,8.547-24.349-3.088-28.239
				C1605.747,456.464,1602.665,475.334,1603.845,486.4z"/>
		</g>
		<path class="st68" d="M1427.015,570.532c-0.805,0.287-1.654,0.507-2.525,0.65l-36.573,5.877
			c-7.686,1.224-14.918-4.002-16.153-11.688l-7.156-44.621c-1.235-7.685,3.991-14.918,11.677-16.153l5.193-0.838l31.38-5.028
			c7.685-1.235,14.918,4.002,16.142,11.687l7.167,44.622C1437.257,561.855,1433.277,568.294,1427.015,570.532z"/>
		<path class="st69" d="M1427.015,570.532c-0.805,0.287-1.654,0.507-2.525,0.65l-36.573,5.877
			c-7.686,1.224-14.918-4.002-16.153-11.688l-7.156-44.621c-1.235-7.685,3.991-14.918,11.677-16.153l5.193-0.838
			c0,0.011,0.011,0.011,0.011,0.011S1383.264,564.391,1427.015,570.532z"/>
	</g>
	<g>
		<g>
			<g>
				<path class="st57" d="M959.551,537.176c-0.034,81.437-2.314,97.378-22.764,115.624c-8.009,7.145-22.737,21.99-65.233,29.38
					c-12.757,2.22-28.012,3.767-46.339,4.233c-7.478,0.191-14.341-0.081-20.618-0.765c-5.265-0.569-10.116-1.43-14.576-2.547
					c-46.705-11.704-50.193-51.72-29.766-85.385c5.41-8.914,11.592-17.109,18.073-24.75c10.004-11.8,20.73-22.282,30.443-32.066
					c8.953-9.015,17.046-17.439,22.93-25.755c2.482-3.504,4.569-6.989,6.164-10.491c0.379-0.83,0.76-1.65,1.143-2.462
					c1.258-2.648,2.552-5.19,3.856-7.623c2.453-4.572,4.951-8.748,7.361-12.486c1.921-2.987,3.787-5.693,5.522-8.092
					c5.966-8.244,10.394-12.872,10.394-12.872s0.554-0.26,1.574-0.684c0.543-0.227,1.222-0.5,2.02-0.805
					c0.321-0.123,0.659-0.251,1.018-0.384c0.354-0.13,0.729-0.267,1.121-0.406c0.359-0.126,0.731-0.256,1.117-0.388
					c0.453-0.155,0.924-0.311,1.415-0.471c0.287-0.094,0.581-0.188,0.881-0.282c0.177-0.056,0.357-0.112,0.538-0.168
					c0.067-0.02,0.137-0.043,0.206-0.063c6.063-1.859,14.381-3.796,23.432-4.119C926.303,452.394,959.582,465.629,959.551,537.176z"
					/>
			</g>
			<g>
				<path class="st70" d="M850.9,659.775c0,0,0.669,5.459,1.555,7.867c0.887,2.408,5.703,7.966,3.668,13.305
					c-2.206,5.79-11.836,0.209-15.763-1.558c-3.928-1.767-3.033-4.971-3.452-8.897s-2.335-4.032-1.628-6.793
					c0.707-2.761,5.003-8.045,5.003-8.045L850.9,659.775z"/>
			</g>
			<g>
				<g>
					<path class="st65" d="M842.138,652.799c0,0-2.465,3.45-2.397,3.544c0.068,0.094,10.559,6.482,11.289,4.41
						c0.58-1.646,0.824-4.03,0.824-4.03L842.138,652.799z"/>
				</g>
			</g>
			<g>
				<path class="st70" d="M806.574,663.635c0,0-3.201,2.805-6.075,7.116c-2.874,4.311-10.503,4.54-10.83,10.425
					c-0.327,5.885,10.373,6.066,15.99,4.15c5.618-1.916,6.467-7.664,9.863-9.101c3.397-1.437,5.16-2.6,4.899-5.406
					c-0.261-2.805-2.141-7.359-2.141-7.359s-2.111,0.674-3.352,0.81C813.689,664.408,809.514,664.456,806.574,663.635z"/>
			</g>
			<g>
				<path class="st71" d="M845.079,504.195c0,0-2.153,12.804-3.888,21.26c0,0,0,0,0,0.001c-0.704,3.429-1.339,6.144-1.733,6.999
					c-0.496,1.076-4.538,5.415-9.483,10.507c-8.679,8.934-20.144,20.184-20.144,20.184l-4.482-8.508
					c0,0,10.184-11.939,17.088-19.906c3.196-3.687,5.688-6.522,6.145-6.93c1.443-1.291,3.119-14.015,5.473-24.498
					c2.355-10.484,7.074-16.277,7.074-16.277L845.079,504.195z"/>
			</g>
			<g>
				<path class="st65" d="M829.975,542.962c-8.679,8.934-20.144,20.184-20.144,20.184l-4.482-8.508c0,0,10.184-11.939,17.088-19.906
					C824.553,535.77,828.438,538.245,829.975,542.962z"/>
			</g>
			<g>
				<path class="st65" d="M807.077,659.715l-0.503,3.921c0,0,5.57,1.968,11.708-0.175l0.125-3.486L807.077,659.715z"/>
			</g>
			<g>
				<path class="st71" d="M886.149,561.415c0.321,1.14-58.998,0-58.998,0s16.409-11.943,17.472-15.134
					c1.063-3.191-4.178-22.334-4.862-28.564c-0.547-4.984-1.918-27.285,1.367-30.691c3.434-3.561,15.801-7.293,15.801-7.293
					l18.029,0.669c0,0,2.975,0.622,5.103,1.61c2.127,0.987,14.291,5.32,16.266,11.397c1.975,6.077-12.137,25.617-12.137,25.617
					s-0.028,0.878-0.07,2.317c0,0.001,0,0.001,0,0.001c-0.055,1.919-0.135,4.835-0.209,7.999c-0.094,4.097-0.177,8.608-0.177,11.903
					C883.735,548.996,885.83,560.276,886.149,561.415z"/>
			</g>
			<g>
				<path class="st72" d="M886.15,561.416c0,0,8.068,11.85,8.182,19.94c0.114,8.09-14.318,35.187-16.502,39.063
					c-6.566,11.653-24.572,36.789-24.572,36.789s-3.104-0.078-12.789-3.839c0,0,11.979-33.203,13.497-36.65
					c6.439-14.618,10.034-24.988,7.869-27.495c-2.165-2.507-8.067-5.02-9.776-6.501c-1.709-1.481-31.485,5.626-34.605,6.436
					c-8.079,2.095-4.396,16.152-2.609,22.454c2.99,10.543,5.604,48.619,5.604,48.619s-5.754,2.452-15.393,0.38
					c0,0-18.927-68.75-19.534-75.587c-0.608-6.837-0.906-18.11,45.735-26.68L886.15,561.416z"/>
			</g>
			<g>
				<path class="st65" d="M861.877,440.562c0,0-15.651-3.53-12.076,16.166c3.575,19.696,7.339,21.244,16.781,17.168
					c9.442-4.076,8.596-16.695,9.072-22.883C876.13,444.825,866.87,440.777,861.877,440.562z"/>
			</g>
			<g>
				<path class="st65" d="M857.736,484.79c0,0,6.931,7.349,17.886,0.67c0,0-2.45-15.925-1.16-23.682
					c1.29-7.757-14.293,12.019-14.293,12.019c0.205,0.108,0.341,0.848,0.372,1.901c0.027,0.893-0.021,2.01-0.164,3.156
					C860.055,481.433,859.253,484.156,857.736,484.79z"/>
			</g>
			<g>
				<path class="st73" d="M874.892,461.119c0,0-0.404-6.206-2.671-6.399c-2.267-0.194-2.615,2.305-2.615,2.305l-2.289,0.432
					c0,0,0.723-5.439-1.54-6.39c-2.263-0.95-14.664,2.994-16.481,1.398c-1.817-1.596-0.962-12.63,2.324-14.14
					c3.285-1.51,12.36-4.893,19.008-0.393c0,0,5.182-0.591,5.951,3.591C877.348,445.707,876.301,458.009,874.892,461.119z"/>
			</g>
			<g>
				<path class="st67" d="M860.377,478.854c11.301-3.485,12.152-10.29,12.165-10.396c-3.721,6.395-12.001,7.24-12.001,7.24
					C860.568,476.59,860.52,477.707,860.377,478.854z"/>
			</g>
			<g>
				<path class="st65" d="M880.248,482.099c0,0-8.276,16.475-21.646,15.412c-13.37-1.063-2.279-17.623-1.671-17.776
					C857.598,479.566,870.642,476.315,880.248,482.099z"/>
			</g>
			<g>
				<path class="st71" d="M820.365,560.581c0,0,40.966,5.05,65.784,0.835l-47.423-5.925
					C838.727,555.49,838.447,556.699,820.365,560.581z"/>
			</g>
			<g>
				<path class="st65" d="M851.005,553.625l-3.051,1.546c0,0,0.695,4.847,2.366,6.316l3.424-0.874
					C853.744,560.613,853.031,555.296,851.005,553.625z"/>
			</g>
			<g>
				<path class="st71" d="M898.408,543.698c-0.61,0.707-8.664,3.946-17.762,7.45l-0.001,0.001
					c-12.429,4.788-26.449,9.317-26.449,9.317l-3.192-6.841c0,0,14.682-7.978,24.603-13.573c4.687-2.643,8.31-4.754,8.822-5.242
					c1.595-1.519,2.008-3.956,0.836-8.205c-1.173-4.249-3.874-23.778-4.178-26.057c-0.304-2.279,0.76-8.356,6.457-8.66
					c5.697-0.304,8.597,1.304,8.597,1.304s1.43,0.595,2.494,14.421C899.7,521.44,899.851,542.027,898.408,543.698z"/>
			</g>
			<g>
				<path class="st74" d="M884.121,521.345C884.121,521.346,884.121,521.346,884.121,521.345c-0.055,1.92-0.135,4.836-0.209,7.999
					c-5.561-13.63-2.348-24.508-2.294-24.691C881.017,508.353,884.078,521.164,884.121,521.345z"/>
			</g>
			<g>
				<path class="st74" d="M841.191,525.456C841.191,525.456,841.191,525.456,841.191,525.456c-0.704,3.43-1.339,6.145-1.733,7
					c-1.899-9.192-0.191-20.96-0.191-20.96C839.527,517.117,841.191,525.456,841.191,525.456z"/>
			</g>
			<g>
				<path class="st65" d="M880.646,551.149L880.646,551.149c-12.43,4.789-26.903,9.465-26.903,9.465l-2.739-6.988
					c0,0,14.682-7.978,24.603-13.573C875.608,540.052,879.217,541.81,880.646,551.149z"/>
			</g>
			<g>
				<polygon class="st75" points="850.121,561.019 791.895,560.162 821.293,575.089 				"/>
			</g>
			<g>
				<polygon class="st76" points="821.293,575.089 850.121,563.923 850.121,561.019 819.014,572.24 				"/>
			</g>
			<g>
				<g>
					<path class="st65" d="M848.613,555.277c0,0-3.637-0.566-6.151-1.151c-1.945-0.453-6.782,0.171-8.014,1.42
						s-5.15,9.948-5.891,10.478c-0.741,0.531,0.379,1.759,1.681,1.143c0,0,1.195,3.806,4.143,2.381
						c2.949-1.425,4.951-4.536,6.495-5.084c1.545-0.548,10.537-3.313,10.537-3.313S850.929,554.35,848.613,555.277z"/>
				</g>
			</g>
			<g>
				<g>
					<path class="st65" d="M835.335,554.975c0,0-2.336,1.128-2.946,1.631c-0.61,0.503-3.082,2.354-3.681,2.789
						c-0.599,0.435,0.903,1.673,5.323-0.241C838.451,557.24,835.335,554.975,835.335,554.975z"/>
				</g>
			</g>
			<g>
				<polygon class="st76" points="821.293,575.089 803.974,527.802 748.141,528.713 764.647,572.29 				"/>
			</g>
			<g>
				<path class="st65" d="M869.654,454.396c0.206-1.738,3.641-2.375,3.917,0.231c0.277,2.605-1.56,7.178-2.864,6.728
					C869.404,460.905,869.37,456.792,869.654,454.396z"/>
			</g>
		</g>
		<g>
			<linearGradient id="SVGID_19_" gradientUnits="userSpaceOnUse" x1="965.9962" y1="676.3074" x2="965.9962" y2="644.2607">
				<stop  offset="0" style="stop-color:#FF9F55"/>
				<stop  offset="1" style="stop-color:#FFD255"/>
			</linearGradient>
			<path class="st77" d="M1026.629,678.958H918.263c-7.124,0-12.899-5.775-12.899-12.899v-4.083c0-7.124,5.775-12.899,12.899-12.899
				h108.366V678.958z"/>
			<path class="st78" d="M1046.038,652.154v23.73h1.982v3.076h-81.919c-4.555,0-8.247-3.692-8.247-8.247v-13.387
				c0-4.554,3.692-8.247,8.247-8.247h81.919v3.075H1046.038z"/>
			<path class="st79" d="M1046.037,675.882h-71.891c-5.657,0-10.244-4.586-10.244-10.244v-3.242c0-5.657,4.586-10.244,10.244-10.244
				h71.891V675.882z"/>
			<linearGradient id="SVGID_20_" gradientUnits="userSpaceOnUse" x1="964.8651" y1="604.0505" x2="964.8651" y2="648.4128">
				<stop  offset="0" style="stop-color:#40D5E6"/>
				<stop  offset="1" style="stop-color:#5577FF"/>
			</linearGradient>
			<path class="st80" d="M1031.908,649.076H912.822c-8.285,0-15.001-6.716-15.001-15.001v-4.748c0-8.285,6.716-15.001,15.001-15.001
				h119.086V649.076z"/>
			<path class="st81" d="M1053.855,617.905v27.597h1.707v3.577h-67.292c-5.723,0-10.362-4.639-10.362-10.362v-14.027
				c0-5.723,4.639-10.362,10.362-10.362h67.292v3.577H1053.855z"/>
			<path class="st79" d="M1053.854,645.5h-58.824c-6.579,0-11.913-5.333-11.913-11.913v-3.771c0-6.579,5.334-11.913,11.913-11.913
				h58.824V645.5z"/>
			<linearGradient id="SVGID_21_" gradientUnits="userSpaceOnUse" x1="995.3955" y1="606.1789" x2="995.3955" y2="573.0122">
				<stop  offset="0" style="stop-color:#FF9F55"/>
				<stop  offset="1" style="stop-color:#FFD255"/>
			</linearGradient>
			<path class="st82" d="M942.77,614.32h86.859c10.157,0,18.391-8.234,18.391-18.391v-5.821c0-10.157-8.234-18.391-18.391-18.391
				H942.77V614.32z"/>
			<path class="st78" d="M925.924,576.103v33.833h-1.72v4.386h67.044c6.193,0,11.214-5.02,11.214-11.214v-20.177
				c0-6.193-5.021-11.214-11.214-11.214h-67.044v4.385H925.924z"/>
			<path class="st79" d="M925.926,609.935h55.829c8.066,0,14.605-6.539,14.605-14.605v-4.623c0-8.066-6.539-14.605-14.605-14.605
				h-55.829V609.935z"/>
			<linearGradient id="SVGID_22_" gradientUnits="userSpaceOnUse" x1="957.4373" y1="517.006" x2="957.4373" y2="554.2662">
				<stop  offset="0" style="stop-color:#40D5E6"/>
				<stop  offset="1" style="stop-color:#5577FF"/>
			</linearGradient>
			<path class="st83" d="M1013.188,571.707h-93.11c-10.157,0-18.391-8.234-18.391-18.391v-5.821
				c0-10.157,8.234-18.391,18.391-18.391h93.109V571.707z"/>
			<path class="st81" d="M1031.035,533.49v33.834h1.823v4.385H961.74c-6.511,0-11.789-5.278-11.789-11.789v-19.026
				c0-6.511,5.278-11.789,11.789-11.789h71.117v4.385H1031.035z"/>
			<path class="st79" d="M1031.033,567.322h-60.288c-8.066,0-14.605-6.539-14.605-14.605v-4.623c0-8.066,6.539-14.605,14.605-14.605
				h60.288V567.322z"/>
			<linearGradient id="SVGID_23_" gradientUnits="userSpaceOnUse" x1="985.5607" y1="498.6338" x2="985.5607" y2="528.436">
				<stop  offset="0" style="stop-color:#40D5E6"/>
				<stop  offset="1" style="stop-color:#5577FF"/>
			</linearGradient>
			<path class="st84" d="M1041.311,529.092h-97.583c-7.687,0-13.918-6.231-13.918-13.918v-4.405c0-7.686,6.231-13.917,13.917-13.917
				h97.583V529.092z"/>
			<path class="st81" d="M1059.158,500.171v25.604h1.823v3.319h-75.589c-4.041,0-7.317-3.276-7.317-7.317v-17.607
				c0-4.041,3.276-7.317,7.317-7.317h75.589v3.318H1059.158z"/>
			<path class="st79" d="M1059.156,525.773h-64.469c-6.104,0-11.053-4.949-11.053-11.053v-3.498c0-6.104,4.948-11.052,11.052-11.052
				h64.469V525.773z"/>
		</g>
		<g>
			<g>
				<g>
					<polygon class="st85" points="918.587,423 981.479,423.289 981.269,468.874 981.225,478.476 971.668,468.83 918.377,468.584 
											"/>
				</g>
			</g>
			<path class="st8" d="M945.119,447.744c-0.009,2.653,2.135,4.81,4.788,4.818c2.653,0.009,4.81-2.135,4.818-4.788
				c0.008-2.653-2.136-4.81-4.788-4.819C947.285,442.948,945.127,445.092,945.119,447.744z"/>
			<path class="st8" d="M929.344,447.695c-0.008,2.653,2.135,4.81,4.788,4.819c2.653,0.008,4.81-2.136,4.818-4.788
				c0.009-2.653-2.135-4.81-4.788-4.818C931.509,442.898,929.352,445.042,929.344,447.695z"/>
			<path class="st8" d="M960.532,447.793c-0.008,2.653,2.136,4.81,4.788,4.818c2.653,0.008,4.81-2.135,4.818-4.788
				c0.009-2.652-2.135-4.81-4.788-4.818C962.698,442.997,960.541,445.14,960.532,447.793z"/>
		</g>
	</g>
	<g>
		<g>
			<path class="st86" d="M105.875,657.285h125.861c21.06,0,38.132-17.072,38.132-38.132V214.189
				c0-21.06-17.072-38.132-38.132-38.132h-125.86c-21.06,0-38.132,17.072-38.132,38.132v404.964
				C67.743,640.213,84.815,657.285,105.875,657.285z"/>
			<linearGradient id="SVGID_24_" gradientUnits="userSpaceOnUse" x1="59.6359" y1="416.3639" x2="298.4522" y2="416.3639">
				<stop  offset="0" style="stop-color:#FF9F55"/>
				<stop  offset="1" style="stop-color:#FFD255"/>
			</linearGradient>
			<path class="st87" d="M97.768,660.98H260.32c21.06,0,38.132-17.072,38.132-38.132V209.88c0-21.06-17.072-38.132-38.132-38.132
				H97.768c-21.06,0-38.132,17.072-38.132,38.132v412.969C59.636,643.908,76.708,660.98,97.768,660.98z"/>
			<path class="st88" d="M278.538,189.386v454.567c0,7.361-5.817,13.328-12.993,13.328H89.407c-7.176,0-12.993-5.967-12.993-13.328
				V189.386c0-7.361,5.817-13.328,12.993-13.328h176.138C272.721,176.059,278.538,182.026,278.538,189.386z"/>
			<defs>
				
					<filter id="Adobe_OpacityMaskFilter_6_" filterUnits="userSpaceOnUse" x="76.405" y="176.045" width="218.548" height="481.239">
					<feFlood  style="flood-color:white;flood-opacity:1" result="back"/>
					<feBlend  in="SourceGraphic" in2="back" mode="normal"/>
				</filter>
			</defs>
			<mask maskUnits="userSpaceOnUse" x="76.405" y="176.045" width="218.548" height="481.239" id="SVGID_25_">
				<g class="st89">
					<defs>
						
							<filter id="Adobe_OpacityMaskFilter_7_" filterUnits="userSpaceOnUse" x="76.405" y="176.045" width="218.548" height="481.239">
							<feFlood  style="flood-color:white;flood-opacity:1" result="back"/>
							<feBlend  in="SourceGraphic" in2="back" mode="normal"/>
						</filter>
					</defs>
					<mask maskUnits="userSpaceOnUse" x="76.405" y="176.045" width="218.548" height="481.239" id="SVGID_25_">
						<g class="st90">
						</g>
					</mask>
					<linearGradient id="SVGID_26_" gradientUnits="userSpaceOnUse" x1="185.6791" y1="208.3836" x2="185.6791" y2="819.2632">
						<stop  offset="0" style="stop-color:#FFFFFF"/>
						<stop  offset="1" style="stop-color:#000000"/>
					</linearGradient>
					<path class="st91" d="M294.953,189.373v454.584c0,7.36-5.817,13.328-12.994,13.328H89.399c-7.176,0-12.994-5.967-12.994-13.328
						V189.373c0-7.361,5.818-13.328,12.994-13.328h192.56C289.136,176.045,294.953,182.012,294.953,189.373z"/>
				</g>
			</mask>
			<linearGradient id="SVGID_27_" gradientUnits="userSpaceOnUse" x1="185.6791" y1="208.3836" x2="185.6791" y2="819.2632">
				<stop  offset="0" style="stop-color:#FFFFFF"/>
				<stop  offset="1" style="stop-color:#FFFFFF"/>
			</linearGradient>
			<path class="st92" d="M294.953,189.373v454.584c0,7.36-5.817,13.328-12.994,13.328H89.399c-7.176,0-12.994-5.967-12.994-13.328
				V189.373c0-7.361,5.818-13.328,12.994-13.328h192.56C289.136,176.045,294.953,182.012,294.953,189.373z"/>
		</g>
		<g>
			<g>
				<path class="st93" d="M353.848,331.965h-37.472c-1.265,0-2.291-1.052-2.291-2.35v-8.3c0-1.298,1.026-2.35,2.291-2.35h37.472
					c1.265,0,2.291,1.052,2.291,2.35v8.3C356.138,330.913,355.113,331.965,353.848,331.965z"/>
			</g>
			<g>
				<path class="st72" d="M353.848,363.136h-37.472c-1.265,0-2.291-1.052-2.291-2.35v-8.3c0-1.298,1.026-2.35,2.291-2.35h37.472
					c1.265,0,2.291,1.052,2.291,2.35v8.3C356.138,362.084,355.113,363.136,353.848,363.136z"/>
			</g>
			<g>
				<path class="st72" d="M353.848,394.307h-37.472c-1.265,0-2.291-1.052-2.291-2.35v-8.3c0-1.298,1.026-2.35,2.291-2.35h37.472
					c1.265,0,2.291,1.052,2.291,2.35v8.3C356.138,393.255,355.113,394.307,353.848,394.307z"/>
			</g>
			<g>
				<path class="st72" d="M353.848,425.478h-37.472c-1.265,0-2.291-1.052-2.291-2.35v-8.3c0-1.298,1.026-2.35,2.291-2.35h37.472
					c1.265,0,2.291,1.052,2.291,2.35v8.3C356.138,424.426,355.113,425.478,353.848,425.478z"/>
			</g>
			<g>
				<path class="st72" d="M353.848,456.649h-37.472c-1.265,0-2.291-1.052-2.291-2.35v-8.3c0-1.298,1.026-2.35,2.291-2.35h37.472
					c1.265,0,2.291,1.052,2.291,2.35v8.3C356.138,455.597,355.113,456.649,353.848,456.649z"/>
			</g>
			<g>
				<path class="st72" d="M353.848,487.82h-37.472c-1.265,0-2.291-1.052-2.291-2.35v-8.3c0-1.298,1.026-2.35,2.291-2.35h37.472
					c1.265,0,2.291,1.052,2.291,2.35v8.3C356.138,486.768,355.113,487.82,353.848,487.82z"/>
			</g>
			<g>
				<path class="st93" d="M383.177,331.965h-7.384c-1.265,0-2.291-1.052-2.291-2.35v-8.3c0-1.298,1.026-2.35,2.291-2.35h7.384
					c1.265,0,2.291,1.052,2.291,2.35v8.3C385.467,330.913,384.442,331.965,383.177,331.965z"/>
			</g>
			<g>
				<path class="st72" d="M383.177,363.136h-7.384c-1.265,0-2.291-1.052-2.291-2.35v-8.3c0-1.298,1.026-2.35,2.291-2.35h7.384
					c1.265,0,2.291,1.052,2.291,2.35v8.3C385.467,362.084,384.442,363.136,383.177,363.136z"/>
			</g>
			<g>
				<path class="st72" d="M383.177,394.307h-7.384c-1.265,0-2.291-1.052-2.291-2.35v-8.3c0-1.298,1.026-2.35,2.291-2.35h7.384
					c1.265,0,2.291,1.052,2.291,2.35v8.3C385.467,393.255,384.442,394.307,383.177,394.307z"/>
			</g>
			<g>
				<path class="st72" d="M383.177,425.478h-7.384c-1.265,0-2.291-1.052-2.291-2.35v-8.3c0-1.298,1.026-2.35,2.291-2.35h7.384
					c1.265,0,2.291,1.052,2.291,2.35v8.3C385.467,424.426,384.442,425.478,383.177,425.478z"/>
			</g>
			<g>
				<path class="st72" d="M383.177,456.649h-7.384c-1.265,0-2.291-1.052-2.291-2.35v-8.3c0-1.298,1.026-2.35,2.291-2.35h7.384
					c1.265,0,2.291,1.052,2.291,2.35v8.3C385.467,455.597,384.442,456.649,383.177,456.649z"/>
			</g>
			<g>
				<path class="st72" d="M383.177,487.82h-7.384c-1.265,0-2.291-1.052-2.291-2.35v-8.3c0-1.298,1.026-2.35,2.291-2.35h7.384
					c1.265,0,2.291,1.052,2.291,2.35v8.3C385.467,486.768,384.442,487.82,383.177,487.82z"/>
			</g>
		</g>
		<g>
			<g>
				<path class="st53" d="M253.7,330.846h-33.563c-1.34,0-2.427-1.45-2.427-3.239c0-1.789,1.086-3.239,2.427-3.239H253.7
					c1.34,0,2.427,1.45,2.427,3.239C256.126,329.396,255.04,330.846,253.7,330.846z"/>
			</g>
			<g>
				<path class="st53" d="M240.075,310.394v34.426c0,1.375-1.414,2.489-3.158,2.489c-1.744,0-3.158-1.114-3.158-2.489v-34.426
					c0-1.375,1.414-2.489,3.158-2.489C238.662,307.905,240.075,309.019,240.075,310.394z"/>
			</g>
		</g>
		<g>
			<path class="st53" d="M161.659,260.803c-0.865,0-1.666-0.152-2.407-0.456c-0.741-0.304-1.383-0.715-1.925-1.235
				c-0.543-0.518-0.976-1.126-1.296-1.823c-0.321-0.696-0.482-1.449-0.482-2.26c0-0.784,0.161-1.531,0.482-2.241
				c0.32-0.708,0.752-1.316,1.296-1.823c0.543-0.507,1.185-0.912,1.925-1.216c0.74-0.304,1.542-0.456,2.407-0.456
				c0.839,0,1.635,0.152,2.388,0.456c0.753,0.304,1.401,0.709,1.944,1.216c0.543,0.506,0.975,1.114,1.296,1.823
				c0.32,0.709,0.481,1.456,0.481,2.241c0,0.811-0.161,1.564-0.481,2.26c-0.321,0.697-0.753,1.305-1.296,1.823
				c-0.543,0.52-1.191,0.931-1.944,1.235C163.294,260.651,162.498,260.803,161.659,260.803z M157.623,274.855l10.442-12.495
				l9.627-12.988l2.259,2.05l-10.108,12.267l-9.96,13.217L157.623,274.855z M161.659,258.259c0.37,0,0.709-0.089,1.018-0.266
				c0.308-0.177,0.586-0.411,0.833-0.703c0.247-0.291,0.438-0.632,0.574-1.025c0.135-0.392,0.204-0.804,0.204-1.235
				c0-0.886-0.259-1.639-0.778-2.26c-0.518-0.62-1.135-0.93-1.851-0.93c-0.37,0-0.709,0.089-1.018,0.266
				c-0.309,0.178-0.586,0.412-0.833,0.703c-0.247,0.291-0.439,0.626-0.574,1.007c-0.136,0.38-0.204,0.785-0.204,1.215
				c0,0.887,0.259,1.646,0.778,2.279C160.326,257.942,160.943,258.259,161.659,258.259z M175.952,277.02
				c-0.865,0-1.666-0.152-2.407-0.456c-0.741-0.304-1.383-0.709-1.926-1.216c-0.543-0.506-0.975-1.107-1.296-1.804
				c-0.321-0.696-0.481-1.45-0.481-2.26c0-0.81,0.16-1.563,0.481-2.26c0.321-0.696,0.753-1.304,1.296-1.823
				c0.542-0.518,1.185-0.931,1.926-1.235c0.74-0.303,1.542-0.456,2.407-0.456c0.864,0,1.666,0.152,2.407,0.456
				c0.741,0.304,1.389,0.716,1.944,1.235c0.555,0.519,0.987,1.127,1.296,1.823c0.308,0.697,0.463,1.45,0.463,2.26
				c0,0.81-0.155,1.563-0.463,2.26c-0.309,0.696-0.741,1.298-1.296,1.804c-0.555,0.507-1.203,0.911-1.944,1.216
				C177.618,276.868,176.815,277.02,175.952,277.02z M175.952,274.475c0.37,0,0.709-0.088,1.018-0.266
				c0.308-0.176,0.586-0.411,0.833-0.702c0.247-0.29,0.438-0.626,0.574-1.007c0.135-0.38,0.204-0.784,0.204-1.215
				c0-0.456-0.074-0.88-0.222-1.272c-0.148-0.392-0.339-0.735-0.574-1.025c-0.235-0.291-0.513-0.519-0.833-0.684
				c-0.321-0.164-0.655-0.247-1-0.247c-0.37,0-0.71,0.089-1.018,0.266c-0.309,0.177-0.587,0.412-0.833,0.702
				c-0.248,0.292-0.439,0.633-0.574,1.026c-0.136,0.393-0.204,0.804-0.204,1.234c0,0.887,0.259,1.64,0.778,2.26
				C174.619,274.166,175.235,274.475,175.952,274.475z"/>
		</g>
		<g>
			<path class="st53" d="M108.628,218.909v-7.076h24.819v7.076H108.628z M108.628,233.305v-7.076h24.819v7.076H108.628z"/>
		</g>
		<g>
			<path class="st53" d="M172.778,213.407c-0.552,0-1.068-0.093-1.546-0.279c-0.48-0.186-0.893-0.447-1.241-0.782
				c-0.348-0.335-0.621-0.726-0.817-1.172c-0.196-0.447-0.294-0.938-0.294-1.474c0-0.551,0.121-1.061,0.36-1.53
				c0.239-0.469,0.573-0.867,1.001-1.195c0.428-0.327,0.94-0.584,1.536-0.77c0.595-0.186,1.249-0.279,1.96-0.279
				c0.508,0,1.005,0.045,1.491,0.134c0.486,0.089,0.918,0.216,1.296,0.38v-0.67c0-0.774-0.215-1.37-0.643-1.787
				c-0.429-0.417-1.064-0.626-1.906-0.626c-0.61,0-1.205,0.112-1.786,0.335c-0.581,0.224-1.176,0.551-1.785,0.983l-0.893-1.898
				c1.467-0.997,3.049-1.497,4.748-1.497c1.64,0,2.914,0.414,3.821,1.24c0.907,0.826,1.361,2.021,1.361,3.585v3.641
				c0,0.313,0.054,0.536,0.163,0.67c0.109,0.134,0.286,0.209,0.533,0.223v2.547c-0.494,0.104-0.921,0.156-1.285,0.156
				c-0.552,0-0.976-0.126-1.273-0.38c-0.298-0.253-0.483-0.588-0.556-1.005l-0.066-0.648c-0.508,0.685-1.125,1.206-1.851,1.564
				C174.382,213.228,173.604,213.407,172.778,213.407z M173.604,211.218c0.494,0,0.962-0.089,1.405-0.268
				c0.442-0.179,0.787-0.417,1.034-0.715c0.319-0.253,0.48-0.536,0.48-0.849v-1.34c-0.349-0.134-0.727-0.242-1.132-0.324
				c-0.407-0.082-0.799-0.123-1.176-0.123c-0.756,0-1.372,0.175-1.851,0.525c-0.48,0.35-0.719,0.793-0.719,1.329
				c0,0.507,0.188,0.927,0.566,1.262C172.588,211.05,173.053,211.218,173.604,211.218z"/>
		</g>
		<g>
			<path class="st53" d="M102.193,294.213c-0.871,0-1.648-0.201-2.33-0.603c-0.682-0.402-1.219-0.953-1.611-1.653v2.033h-2.548
				v-16.305h2.918v6.656c0.407-0.715,0.94-1.269,1.601-1.664c0.66-0.394,1.433-0.592,2.319-0.592c0.741,0,1.415,0.164,2.026,0.492
				c0.609,0.327,1.135,0.767,1.578,1.318c0.443,0.551,0.784,1.199,1.023,1.943c0.24,0.745,0.36,1.527,0.36,2.346
				c0,0.849-0.134,1.638-0.403,2.367c-0.269,0.73-0.643,1.366-1.121,1.91c-0.48,0.544-1.046,0.971-1.699,1.284
				C103.652,294.056,102.947,294.213,102.193,294.213z M101.387,291.666c0.465,0,0.893-0.093,1.285-0.279
				c0.393-0.186,0.726-0.436,1.002-0.748c0.276-0.313,0.49-0.677,0.642-1.094c0.152-0.417,0.229-0.864,0.229-1.341
				c0-0.476-0.073-0.93-0.218-1.362c-0.145-0.432-0.352-0.811-0.62-1.139c-0.269-0.327-0.585-0.588-0.947-0.782
				c-0.363-0.193-0.762-0.29-1.198-0.29c-0.653,0-1.238,0.22-1.753,0.659c-0.516,0.439-0.912,0.98-1.187,1.619v2.792
				c0.102,0.298,0.251,0.566,0.447,0.804c0.196,0.238,0.417,0.443,0.665,0.614c0.246,0.171,0.515,0.305,0.805,0.402
				C100.829,291.618,101.111,291.666,101.387,291.666z"/>
		</g>
		<g>
			<g>
				<path class="st53" d="M386.467,606.475h-96.616c-43.427,0-78.632-35.205-78.632-78.632V305.606
					c0-43.427,35.204-78.631,78.631-78.631h96.617c43.427,0,78.632,35.205,78.632,78.632v222.237
					C465.099,571.27,429.894,606.475,386.467,606.475z"/>
			</g>
			<g>
				<g>
					<g>
						<g>
							<g>
								<rect x="424.973" y="472.056" class="st94" width="13.154" height="102.683"/>
							</g>
						</g>
					</g>
				</g>
				<g>
					<g>
						<g>
							<g>
								<rect x="398.984" y="483.564" class="st94" width="13.153" height="91.175"/>
							</g>
						</g>
					</g>
				</g>
				<g>
					<g>
						<g>
							<g>
								<rect x="370.749" y="498.532" class="st94" width="13.154" height="76.207"/>
							</g>
						</g>
					</g>
				</g>
				<g>
					<g>
						<g>
							<g>
								<rect x="341.751" y="517.406" class="st94" width="13.154" height="57.333"/>
							</g>
						</g>
					</g>
				</g>
				<g>
					<g>
						<g>
							<polygon class="st94" points="263.259,505.241 260.407,504.198 285.213,432.823 339.006,418.227 358.338,339.886 
								399.85,321.093 409.147,260.178 412.138,260.658 402.585,323.249 360.911,342.116 341.504,420.761 287.529,435.406 							
								"/>
						</g>
					</g>
				</g>
				<g>
					<g>
						<path class="st53" d="M346.505,414.254c2.822,3.541,2.31,8.757-1.141,11.651c-3.452,2.894-8.537,2.37-11.359-1.171
							c-2.822-3.541-2.31-8.757,1.141-11.651C338.598,410.189,343.684,410.713,346.505,414.254z"/>
					</g>
				</g>
				<g>
					<g>
						<path class="st94" d="M346.322,427.107c-4.092,3.431-10.143,2.807-13.489-1.391c-3.345-4.198-2.737-10.404,1.355-13.835
							c4.093-3.431,10.144-2.808,13.489,1.39C351.022,417.469,350.414,423.676,346.322,427.107z M336.104,414.285
							c-2.8,2.348-3.217,6.594-0.927,9.467c2.289,2.872,6.429,3.299,9.229,0.951c2.8-2.348,3.216-6.594,0.928-9.466
							C343.044,412.364,338.904,411.937,336.104,414.285z"/>
					</g>
				</g>
				<g>
					<g>
						<path class="st53" d="M366.092,336.234c2.822,3.541,2.31,8.757-1.142,11.651c-3.452,2.894-8.537,2.37-11.359-1.171
							c-2.822-3.541-2.31-8.757,1.142-11.651C358.185,332.169,363.271,332.693,366.092,336.234z"/>
					</g>
				</g>
				<g>
					<g>
						<path class="st94" d="M365.909,349.087c-4.093,3.431-10.144,2.807-13.489-1.39c-3.345-4.198-2.737-10.405,1.356-13.836
							c4.093-3.431,10.144-2.808,13.489,1.391C370.609,339.449,370.001,345.656,365.909,349.087z M355.691,336.265
							c-2.8,2.348-3.216,6.594-0.927,9.467c2.289,2.872,6.429,3.299,9.229,0.951c2.8-2.348,3.216-6.594,0.927-9.467
							C362.632,334.344,358.491,333.918,355.691,336.265z"/>
					</g>
				</g>
				<g>
					<g>
						<path class="st53" d="M406.965,316.906c2.821,3.541,2.31,8.757-1.142,11.651c-3.452,2.894-8.537,2.37-11.359-1.171
							c-2.822-3.541-2.31-8.757,1.141-11.651C399.058,312.841,404.144,313.366,406.965,316.906z"/>
					</g>
				</g>
				<g>
					<g>
						<path class="st94" d="M406.782,329.759c-4.093,3.431-10.144,2.808-13.489-1.39c-3.345-4.198-2.737-10.405,1.356-13.836
							c4.092-3.431,10.143-2.807,13.489,1.391C411.482,320.122,410.874,326.328,406.782,329.759z M396.564,316.937
							c-2.8,2.348-3.216,6.594-0.927,9.467s6.429,3.299,9.229,0.951c2.8-2.348,3.217-6.594,0.928-9.466
							C403.505,315.016,399.364,314.59,396.564,316.937z"/>
					</g>
				</g>
				<g>
					<g>
						<path class="st53" d="M292.923,429.577c2.821,3.541,2.31,8.757-1.142,11.651c-3.452,2.894-8.537,2.37-11.359-1.171
							c-2.822-3.541-2.31-8.757,1.141-11.651C285.015,425.512,290.101,426.036,292.923,429.577z"/>
					</g>
				</g>
				<g>
					<g>
						<path class="st94" d="M292.739,442.43c-4.093,3.431-10.144,2.807-13.489-1.391c-3.345-4.198-2.737-10.404,1.356-13.835
							c4.093-3.431,10.144-2.808,13.489,1.39C297.44,432.792,296.832,438.999,292.739,442.43z M282.521,429.608
							c-2.8,2.348-3.216,6.594-0.927,9.466c2.289,2.873,6.429,3.299,9.229,0.952c2.8-2.348,3.216-6.594,0.927-9.467
							C289.462,427.687,285.322,427.26,282.521,429.608z"/>
					</g>
				</g>
				<g>
					<g>
						<g>
							<g>
								<path class="st95" d="M312.325,351.867h-67.45c-3.691,0-6.683-2.992-6.683-6.683v-3.807c0-3.691,2.992-6.683,6.683-6.683
									h67.45c3.691,0,6.683,2.992,6.683,6.683v3.806C319.008,348.875,316.016,351.867,312.325,351.867z"/>
							</g>
						</g>
					</g>
				</g>
				<g>
					<g>
						<g>
							<g>
								<path class="st95" d="M312.325,321.846h-67.45c-3.691,0-6.683-2.992-6.683-6.683v-3.807c0-3.691,2.992-6.683,6.683-6.683
									h67.45c3.691,0,6.683,2.992,6.683,6.683v3.806C319.008,318.854,316.016,321.846,312.325,321.846z"/>
							</g>
						</g>
					</g>
				</g>
			</g>
		</g>
		<g>
			<g>
				<path class="st96" d="M170.348,328.541c0,0-2.343,23.705,1.926,29.652c0,0-11.305-2.525-13.922-6.517
					C155.735,347.684,170.348,328.541,170.348,328.541z"/>
			</g>
			<g>
				<g>
					<path class="st65" d="M240.933,404.24c0,0,4.102-2.826,4.741-3.238c0.639-0.412,2.745-0.344,5.157-0.05
						c2.412,0.294,5.542,1.799,5.731,2.182c0.189,0.383,0.553,0.681,0.402,1.773c-0.151,1.092-0.865,1.929-0.865,1.929
						s0.43,1.435-0.525,2.399c0,0,0.344,1.369-0.915,2.282c0,0,0.301,1.346-0.668,1.93c0,0-2.111-0.064-2.899,0.143
						c-0.788,0.208-5.17-0.236-9.309-1.324C241.783,412.268,237.168,411.251,240.933,404.24z"/>
				</g>
			</g>
			<g>
				<g>
					<path class="st97" d="M247.914,406.202c0,0-1.235,2.208-1.888,2.649c-0.653,0.44,3.157,4.644,3.157,4.644
						S250.491,407.814,247.914,406.202z"/>
				</g>
			</g>
			<g>
				<g>
					<path class="st65" d="M238.503,404.646c0,0,2.582-0.294,4.175-1.049c1.593-0.755-0.3,8.242-0.3,8.242s-3.864-2.734-6.384-2.815
						S238.503,404.646,238.503,404.646z"/>
				</g>
			</g>
			<g>
				<g>
					<path class="st98" d="M131.6,644.208c0,0,8.065,12.095,10.88,14.662c0,0,5.627,2.996,5.801,5.389
						c0.329,4.525,0.563,7.189-6.839,7.403c-7.402,0.214-12.031-0.024-13.387-4.622c-1.355-4.598-3.693-8.205-3.693-8.205
						l-0.565,11.965h-1.668c0,0-0.745-11.993-0.85-13.704c-0.104-1.711-1.198-8.289,2.32-11.203
						C127.117,642.979,131.6,644.208,131.6,644.208z"/>
				</g>
			</g>
			<g>
				<g>
					<path class="st98" d="M143.553,659.492c0,0-4.003,1.158-8.762-0.072c-4.76-1.23-9.33-12.917-10.72-13.89l-1.233-4.716h9.279
						c0,0,0.076,3.489,1.576,6.477C135.192,650.277,143.553,659.492,143.553,659.492z"/>
				</g>
			</g>
			<g>
				<g>
					<path class="st98" d="M183.958,639.69c0,0,1.209,2.932,3.492,5.988c1.674,2.241,6.881,11.442,9.175,12.084
						c2.293,0.641,9.383,1.925,10.009,5.989c0.625,4.064,0.938,6.951-6.047,7.272c-6.985,0.32-11.572,0.748-14.909-4.278
						c-3.336-5.026-8.653-8.662-8.653-8.662v13.113h-2.711c0,0-1.251-13.648-1.981-14.61c-0.73-0.963-2.606-11.442,3.858-16.896
						C182.654,634.237,183.958,639.69,183.958,639.69z"/>
				</g>
			</g>
			<g>
				<g>
					<path class="st98" d="M196.625,657.763c0,0-6.255,1.604-8.653,0c-2.398-1.604-10.55-15.737-13.251-16.584
						c0,0,2.617-5.445,9.237-1.488C183.958,639.69,194.853,655.41,196.625,657.763z"/>
				</g>
			</g>
			<g>
				<g>
					<path class="st99" d="M128.051,443.302c0,0-8.821,11.763-11.213,25.718c-2.393,13.955,1.413,60.793,1.308,67.691
						c-0.104,6.897-5.934,28.359-4.683,41.351c1.251,12.993,7.802,67.225,7.802,67.225l15.282-0.281c0,0-3.062-58.519-2.28-63.972
						c0.782-5.454,3.27-28.657,3.583-30.903c0.313-2.246,17.411-61.63,17.411-71.691
						C155.261,468.379,149.319,426.887,128.051,443.302z"/>
				</g>
			</g>
			<g>
				<g>
					<path class="st99" d="M172.359,447.9c0,0,14.492,56.73,16.212,64.59c1.72,7.86,5.161,18.126,5.004,19.57
						c-0.156,1.443-1.825,25.665-1.825,25.665l-4.118,82.448h-15.274c0,0-4.9-52.452-5.682-63.039
						c-0.782-10.587,5.63-26.948,4.066-31.439c-1.564-4.491-25.178-56.302-25.178-56.302S127.686,431.432,172.359,447.9z"/>
				</g>
			</g>
			<g>
				<g>
					<path class="st100" d="M167.876,362.993c0,0,5.795,0.56,10.174,5.373c4.379,4.812,8.488,12.486,9.635,15.052
						s17.223,26.351,18.057,26.886c0.834,0.535,7.86-1.36,13.49-1.841c9.186-0.785,22.929-5.586,22.929-5.586l2.041,10.647
						c0,0-33.798,11.187-41.598,9.216c-9.537-2.41-31.494-31.303-31.494-31.303S154.74,371.761,167.876,362.993z"/>
				</g>
			</g>
			<g>
				<g>
					<path class="st100" d="M157.764,358.822c0,0,7.506,3.636,10.113,4.171c2.606,0.535,12.719,14.009,14.492,18.928
						c1.772,4.919,0,12.298-3.649,20.96c-3.649,8.661-0.208,11.549-1.876,20.211c-1.668,8.662-1.667,32.276-1.354,37.088
						c0.313,4.812-48.263,13.888-57.959,5.119c0,0,6.564-22.195,14.335-30.53c1.68-1.803,1.503-13.816,0.356-16.81
						c-1.147-2.994-14.075-25.344-14.075-25.344s-0.949-22.668,4.692-27.162c4.9-3.903,18.255-5.295,20.652-6.15
						C145.888,358.447,152.864,358.073,157.764,358.822z"/>
				</g>
			</g>
			<g>
				<g>
					<path class="st101" d="M160.161,375.985l4.562-5.479l-3.961-14.423C160.762,356.084,159.431,364.115,160.161,375.985z"/>
				</g>
			</g>
			<g>
				<g>
					<path class="st65" d="M131.569,362.993c0,0-9.461-2.78-14.883,7.913c-5.421,10.694-4.066,16.468-5.317,21.28
						c-1.251,4.812-6.255,37-6.568,38.39c-0.313,1.39-5.109,17.751-4.483,22.777c0.625,5.026,5.108,43.096,4.9,44.379
						c-0.209,1.283,8.653-1.23,8.653-1.23s-0.365-38.872-0.052-42.08c0.313-3.208,0.626-20.051,2.971-24.381
						c2.346-4.331,8.132-30.798,9.383-33.525C127.425,393.79,139.545,366.468,131.569,362.993z"/>
				</g>
			</g>
			<g>
				<g>
					<path class="st65" d="M161.346,349.938c0,0-1.497,14.124-1.185,18.722c0,0-7.799,8.017-16.671-9.358
						c0,0,3.733-7.162,0.923-16.921C141.604,332.623,161.346,349.938,161.346,349.938z"/>
				</g>
			</g>
			<g>
				<g>
					<polygon class="st65" points="160.161,368.66 160.161,375.985 151.777,368.365 					"/>
				</g>
			</g>
			<g>
				<g>
					<polygon class="st101" points="160.161,375.985 156.434,371.253 143.88,358.419 139.176,360.562 					"/>
				</g>
			</g>
			<g>
				<g>
					<polygon class="st102" points="164.723,370.507 170.47,372.136 160.762,356.084 					"/>
				</g>
			</g>
			<g>
				<g>
					<polygon class="st102" points="156.434,371.253 151.185,379.882 138.985,360.254 144.209,357.526 					"/>
				</g>
			</g>
			<g>
				<path class="st101" d="M183.18,406.074c0,0,1.877-12.809-0.119-20.599c0,0-1.104,6.286-3.793,16.076L183.18,406.074z"/>
			</g>
			<g>
				<path class="st101" d="M124.871,404.371c0,0,5.192-17.61,5.499-18.575c0,0-0.356,16.186-2.345,24.195
					C128.025,409.99,126.114,406.573,124.871,404.371z"/>
			</g>
			<g>
				<polygon class="st103" points="318.2,316.105 236.521,421.662 239.369,423.916 				"/>
			</g>
			<g>
				<g>
					<path class="st104" d="M255.932,403.033c0,0-6.131-0.592-6.346,0.409c-0.215,1.001,0.298,1.503,0.298,1.503l-2.631,0.93
						c0,0-1.403,1.625,0.732,2.718c0,0-1.464,1.378,0.721,2.182c0,0-0.57,1.351,0.377,1.906c0.948,0.555,4.908,0.768,4.908,0.768
						s0.976-0.282,0.788-1.872c0,0,1.35-0.808,1.008-2.289c0,0,0.879-0.811,0.496-2.407c0,0,1.704-1.997,0.278-3.746
						C256.562,403.135,256.191,403.055,255.932,403.033z"/>
				</g>
			</g>
			<g>
				<g>
					<path class="st65" d="M245.868,400.999c0,0,3.564,2.329,4.965,4.478c0.317,0.486,0.538,1.016,0.217,1.501
						c-0.32,0.485-1.412,0.625-3.006-0.303c-1.594-0.928-4.068-1.38-4.068-1.38S242.61,403.848,245.868,400.999z"/>
				</g>
			</g>
			<g>
				<path class="st65" d="M155.02,301.863c0,0,13.819-0.367,16.36,16.414c2.541,16.781-3.336,31.526-5.639,33.888
					c-2.303,2.362-16.122,0.57-19.378-8.146c-3.256-8.716-8.022-15.07-7.307-22.565C139.771,313.96,138.024,301.577,155.02,301.863z
					"/>
			</g>
			<g>
				<path class="st96" d="M171.968,324.627c0,0,3.701-20.931-14.645-24.679c-18.346-3.747-24.779,9.124-26.526,16.781
					c-1.747,7.657,0.32,29.245,0.32,29.245s12.229,10.997,19.535,13.848c0,0-6.116-22.972-3.812-39.427c0,0,14.906,2.4,24.806-0.104
					C171.646,320.291,171.943,323.727,171.968,324.627z"/>
			</g>
			<g>
				<path class="st67" d="M161.034,353.087c0,0-4.8-0.032-11.328-4.384c0,0,4.595,5.917,10.997,8.081
					C160.702,356.785,161.083,353.841,161.034,353.087z"/>
			</g>
			<g>
				<polygon class="st105" points="140.197,501.656 86.825,510.593 80.381,470.108 133.753,461.17 				"/>
			</g>
			<g>
				<g>
					<g>
						<g>
							<g>
								<g>
									<path class="st65" d="M103.375,509.887c0,0-0.837-1.395-0.913-2.188c0,0-0.03-1.454-0.112-2.487
										c-0.027-0.327-0.058-0.612-0.097-0.794c-0.161-0.759-0.735-2.377-0.623-4.313c0.112-1.933,2.688-10.147,2.688-10.147
										l4.723,0.168l4.444-0.49c0,0,5.369,10.512,5.468,12.326c0.009,0.178,0.011,0.353,0.001,0.518
										c-0.062,1.545-0.741,2.667-0.863,3.474c-0.047,0.296-0.704,3.207-1.483,3.606c-1.08,0.556-2.048,0.492-2.765,0.067
										c0,0-2.161,0.992-3.7,0.562c0,0-1.965,0.981-3.73-0.112C106.415,510.077,104.313,510.843,103.375,509.887z"/>
								</g>
							</g>
						</g>
					</g>
				</g>
			</g>
			<g>
				<g>
					<path class="st100" d="M131.569,362.993c0,0-9.461-2.78-14.883,7.913c-5.421,10.694-5.394,15.257-6.119,20.479
						c-0.684,4.93-7.295,34.219-7.607,35.61c-0.313,1.39-2.489,19.699-2.642,26.36c-0.116,5.066,1.043,38.284,0.834,39.567
						c-0.209,1.283,14.972-2.247,14.972-2.247s-1.679-30.636-1.367-33.844c0.313-3.208,0.979-19.2,2.507-23.9
						c1.795-5.522,8.883-33.339,10.134-36.066C128.65,394.136,139.545,366.468,131.569,362.993z"/>
				</g>
			</g>
		</g>
		<g>
			
				<rect x="298.242" y="202.837" transform="matrix(0.0046 -1 1 0.0046 118.379 526.5984)" class="st106" width="50.931" height="1.998"/>
		</g>
		<path class="st106" d="M323.571,227.69v-0.011c0.011,0,0.021,0.005,0.032,0.005c0.011,0,0.021-0.005,0.032-0.005v0.01
			c4.707,0.249,4.053,25.093,4.053,25.093l-4.164-0.019l-0.063,0l-4.164-0.019C319.297,252.745,318.862,227.895,323.571,227.69z"/>
		<polygon class="st107" points="206.67,159.465 160.935,131.666 256.903,105 362.911,183.773 305.098,196.01 		"/>
		<path class="st108" d="M205.435,171.748c0,0,43.9-0.125,93.018,32.941l11.102-16.717c0,0-32.916-43.69-103.014-33.669
			L205.435,171.748z"/>
		<g>
			<g>
				<g>
					<polygon class="st53" points="430.854,208.318 502,208.654 501.763,261.547 501.713,272.688 490.901,261.496 430.617,261.211 
											"/>
				</g>
			</g>
			<path class="st8" d="M460.868,237.03c-0.01,3.078,2.416,5.581,5.417,5.591c3.001,0.01,5.441-2.478,5.451-5.556
				c0.009-3.078-2.416-5.581-5.417-5.591C463.318,231.464,460.878,233.952,460.868,237.03z"/>
			<path class="st8" d="M443.022,236.972c-0.009,3.078,2.416,5.581,5.417,5.591c3.001,0.01,5.441-2.478,5.451-5.556
				c0.01-3.078-2.416-5.581-5.416-5.591C445.472,231.407,443.032,233.894,443.022,236.972z"/>
			<path class="st8" d="M478.304,237.086c-0.009,3.078,2.416,5.581,5.417,5.591c3.001,0.01,5.441-2.478,5.451-5.556
				c0.01-3.078-2.416-5.581-5.416-5.591C480.755,231.521,478.314,234.008,478.304,237.086z"/>
		</g>
	</g>
	<g>
	</g>
	<g>
	</g>
	<g>
	</g>
	<g>
	</g>
	<g>
	</g>
	<g>
	</g>
	<g>
	</g>
	<g>
	</g>
	<g>
	</g>
	<g>
	</g>
	<g>
	</g>
	<g>
	</g>
	<g>
	</g>
	<g>
	</g>
	<g>
	</g>
</g>
</svg>
